ISO-10303-21;
HEADER;
/* Generated by software containing ST-Developer
 * from STEP Tools, Inc. (www.steptools.com) 
 */
/* OPTION: using custom renumber hook */

FILE_DESCRIPTION(
/* description */ ('STEP AP242 Edition 2',
'CAx-IF Rec.Pracs.---Representation and Presentation of Product Manufa
cturing Information (PMI)---4.0---2014-10-13',
'CAx-IF Rec.Pracs.---3D Tessellated Geometry---0.4---2014-09-14','2;1',
'CAx-IF Rec.Pracs.---User Defined Attributes---1.5---2016-08-15'),
/* implementation_level */ '2;1');

FILE_NAME(
/* name */ 'Body - Hull Foamy',
/* time_stamp */ '2026-08-24T02:45:13Z',
/* author */ (''),
/* organization */ (''),
/* preprocessor_version */ 'ST-DEVELOPER v20',
/* originating_system */ 'ONSHAPE BY PTC INC, 1.219',
/* authorisation */ '  ');

FILE_SCHEMA (('AP242_MANAGED_MODEL_BASED_3D_ENGINEERING_MIM_LF { 1 0 10303 442 3 1 4 }'));
ENDSEC;

DATA;
#10=SHAPE_REPRESENTATION_RELATIONSHIP('','',#342,#11);
#11=ADVANCED_BREP_SHAPE_REPRESENTATION('',(#340),#544);
#12=CYLINDRICAL_SURFACE('',#362,0.00635);
#13=ELLIPSE('',#359,0.0428069341475316,0.00635);
#14=ELLIPSE('',#361,0.0428069341475317,0.00635);
#15=LINE('',#455,#56);
#16=LINE('',#457,#57);
#17=LINE('',#459,#58);
#18=LINE('',#461,#59);
#19=LINE('',#463,#60);
#20=LINE('',#465,#61);
#21=LINE('',#467,#62);
#22=LINE('',#470,#63);
#23=LINE('',#472,#64);
#24=LINE('',#474,#65);
#25=LINE('',#476,#66);
#26=LINE('',#478,#67);
#27=LINE('',#480,#68);
#28=LINE('',#482,#69);
#29=LINE('',#484,#70);
#30=LINE('',#485,#71);
#31=LINE('',#487,#72);
#32=LINE('',#489,#73);
#33=LINE('',#491,#74);
#34=LINE('',#493,#75);
#35=LINE('',#495,#76);
#36=LINE('',#497,#77);
#37=LINE('',#499,#78);
#38=LINE('',#501,#79);
#39=LINE('',#503,#80);
#40=LINE('',#505,#81);
#41=LINE('',#507,#82);
#42=LINE('',#509,#83);
#43=LINE('',#511,#84);
#44=LINE('',#513,#85);
#45=LINE('',#515,#86);
#46=LINE('',#517,#87);
#47=LINE('',#518,#88);
#48=LINE('',#521,#89);
#49=LINE('',#526,#90);
#50=LINE('',#527,#91);
#51=LINE('',#529,#92);
#52=LINE('',#531,#93);
#53=LINE('',#535,#94);
#54=LINE('',#539,#95);
#55=LINE('',#540,#96);
#56=VECTOR('',#371,1.);
#57=VECTOR('',#372,1.);
#58=VECTOR('',#373,1.);
#59=VECTOR('',#374,1.);
#60=VECTOR('',#375,1.);
#61=VECTOR('',#376,1.);
#62=VECTOR('',#379,1.);
#63=VECTOR('',#380,1.);
#64=VECTOR('',#381,1.);
#65=VECTOR('',#382,1.);
#66=VECTOR('',#383,1.);
#67=VECTOR('',#386,1.);
#68=VECTOR('',#387,1.);
#69=VECTOR('',#388,1.);
#70=VECTOR('',#391,1.);
#71=VECTOR('',#392,1.);
#72=VECTOR('',#393,1.);
#73=VECTOR('',#396,1.);
#74=VECTOR('',#397,1.);
#75=VECTOR('',#400,1.);
#76=VECTOR('',#401,1.);
#77=VECTOR('',#402,1.);
#78=VECTOR('',#403,1.);
#79=VECTOR('',#406,1.);
#80=VECTOR('',#407,1.);
#81=VECTOR('',#408,1.);
#82=VECTOR('',#411,1.);
#83=VECTOR('',#412,1.);
#84=VECTOR('',#413,1.);
#85=VECTOR('',#414,1.);
#86=VECTOR('',#415,1.);
#87=VECTOR('',#418,1.);
#88=VECTOR('',#419,1.);
#89=VECTOR('',#424,1.);
#90=VECTOR('',#429,1.);
#91=VECTOR('',#430,1.);
#92=VECTOR('',#431,1.);
#93=VECTOR('',#434,1.);
#94=VECTOR('',#437,1.);
#95=VECTOR('',#444,1.);
#96=VECTOR('',#445,1.);
#97=ORIENTED_EDGE('',*,*,#187,.F.);
#98=ORIENTED_EDGE('',*,*,#188,.F.);
#99=ORIENTED_EDGE('',*,*,#189,.F.);
#100=ORIENTED_EDGE('',*,*,#190,.F.);
#101=ORIENTED_EDGE('',*,*,#191,.T.);
#102=ORIENTED_EDGE('',*,*,#192,.F.);
#103=ORIENTED_EDGE('',*,*,#193,.T.);
#104=ORIENTED_EDGE('',*,*,#194,.T.);
#105=ORIENTED_EDGE('',*,*,#195,.T.);
#106=ORIENTED_EDGE('',*,*,#196,.F.);
#107=ORIENTED_EDGE('',*,*,#197,.F.);
#108=ORIENTED_EDGE('',*,*,#198,.F.);
#109=ORIENTED_EDGE('',*,*,#199,.T.);
#110=ORIENTED_EDGE('',*,*,#200,.F.);
#111=ORIENTED_EDGE('',*,*,#201,.F.);
#112=ORIENTED_EDGE('',*,*,#197,.T.);
#113=ORIENTED_EDGE('',*,*,#200,.T.);
#114=ORIENTED_EDGE('',*,*,#202,.T.);
#115=ORIENTED_EDGE('',*,*,#192,.T.);
#116=ORIENTED_EDGE('',*,*,#203,.F.);
#117=ORIENTED_EDGE('',*,*,#204,.F.);
#118=ORIENTED_EDGE('',*,*,#203,.T.);
#119=ORIENTED_EDGE('',*,*,#191,.F.);
#120=ORIENTED_EDGE('',*,*,#205,.F.);
#121=ORIENTED_EDGE('',*,*,#206,.F.);
#122=ORIENTED_EDGE('',*,*,#205,.T.);
#123=ORIENTED_EDGE('',*,*,#190,.T.);
#124=ORIENTED_EDGE('',*,*,#207,.T.);
#125=ORIENTED_EDGE('',*,*,#208,.T.);
#126=ORIENTED_EDGE('',*,*,#209,.F.);
#127=ORIENTED_EDGE('',*,*,#210,.F.);
#128=ORIENTED_EDGE('',*,*,#211,.T.);
#129=ORIENTED_EDGE('',*,*,#212,.F.);
#130=ORIENTED_EDGE('',*,*,#213,.F.);
#131=ORIENTED_EDGE('',*,*,#209,.T.);
#132=ORIENTED_EDGE('',*,*,#214,.T.);
#133=ORIENTED_EDGE('',*,*,#215,.T.);
#134=ORIENTED_EDGE('',*,*,#216,.T.);
#135=ORIENTED_EDGE('',*,*,#217,.F.);
#136=ORIENTED_EDGE('',*,*,#218,.F.);
#137=ORIENTED_EDGE('',*,*,#212,.T.);
#138=ORIENTED_EDGE('',*,*,#217,.T.);
#139=ORIENTED_EDGE('',*,*,#219,.F.);
#140=ORIENTED_EDGE('',*,*,#194,.F.);
#141=ORIENTED_EDGE('',*,*,#220,.F.);
#142=ORIENTED_EDGE('',*,*,#198,.T.);
#143=ORIENTED_EDGE('',*,*,#201,.T.);
#144=ORIENTED_EDGE('',*,*,#204,.T.);
#145=ORIENTED_EDGE('',*,*,#206,.T.);
#146=ORIENTED_EDGE('',*,*,#210,.T.);
#147=ORIENTED_EDGE('',*,*,#213,.T.);
#148=ORIENTED_EDGE('',*,*,#218,.T.);
#149=ORIENTED_EDGE('',*,*,#220,.T.);
#150=ORIENTED_EDGE('',*,*,#214,.F.);
#151=ORIENTED_EDGE('',*,*,#211,.F.);
#152=ORIENTED_EDGE('',*,*,#208,.F.);
#153=ORIENTED_EDGE('',*,*,#221,.T.);
#154=ORIENTED_EDGE('',*,*,#222,.F.);
#155=ORIENTED_EDGE('',*,*,#223,.T.);
#156=ORIENTED_EDGE('',*,*,#195,.F.);
#157=ORIENTED_EDGE('',*,*,#219,.T.);
#158=ORIENTED_EDGE('',*,*,#216,.F.);
#159=ORIENTED_EDGE('',*,*,#224,.F.);
#160=ORIENTED_EDGE('',*,*,#225,.T.);
#161=ORIENTED_EDGE('',*,*,#226,.F.);
#162=ORIENTED_EDGE('',*,*,#227,.F.);
#163=ORIENTED_EDGE('',*,*,#228,.T.);
#164=ORIENTED_EDGE('',*,*,#224,.T.);
#165=ORIENTED_EDGE('',*,*,#215,.F.);
#166=ORIENTED_EDGE('',*,*,#221,.F.);
#167=ORIENTED_EDGE('',*,*,#207,.F.);
#168=ORIENTED_EDGE('',*,*,#189,.T.);
#169=ORIENTED_EDGE('',*,*,#223,.F.);
#170=ORIENTED_EDGE('',*,*,#229,.T.);
#171=ORIENTED_EDGE('',*,*,#193,.F.);
#172=ORIENTED_EDGE('',*,*,#202,.F.);
#173=ORIENTED_EDGE('',*,*,#199,.F.);
#174=ORIENTED_EDGE('',*,*,#196,.T.);
#175=ORIENTED_EDGE('',*,*,#227,.T.);
#176=ORIENTED_EDGE('',*,*,#230,.F.);
#177=ORIENTED_EDGE('',*,*,#187,.T.);
#178=ORIENTED_EDGE('',*,*,#229,.F.);
#179=ORIENTED_EDGE('',*,*,#222,.T.);
#180=ORIENTED_EDGE('',*,*,#231,.T.);
#181=ORIENTED_EDGE('',*,*,#188,.T.);
#182=ORIENTED_EDGE('',*,*,#230,.T.);
#183=ORIENTED_EDGE('',*,*,#226,.T.);
#184=ORIENTED_EDGE('',*,*,#228,.F.);
#185=ORIENTED_EDGE('',*,*,#231,.F.);
#186=ORIENTED_EDGE('',*,*,#225,.F.);
#187=EDGE_CURVE('',#232,#233,#262,.T.);
#188=EDGE_CURVE('',#234,#232,#15,.T.);
#189=EDGE_CURVE('',#235,#234,#16,.T.);
#190=EDGE_CURVE('',#236,#235,#17,.T.);
#191=EDGE_CURVE('',#236,#237,#18,.T.);
#192=EDGE_CURVE('',#238,#237,#19,.T.);
#193=EDGE_CURVE('',#238,#233,#20,.T.);
#194=EDGE_CURVE('',#239,#240,#21,.T.);
#195=EDGE_CURVE('',#240,#241,#22,.T.);
#196=EDGE_CURVE('',#242,#241,#23,.T.);
#197=EDGE_CURVE('',#243,#242,#24,.T.);
#198=EDGE_CURVE('',#239,#243,#25,.T.);
#199=EDGE_CURVE('',#242,#244,#26,.T.);
#200=EDGE_CURVE('',#245,#244,#27,.T.);
#201=EDGE_CURVE('',#243,#245,#28,.T.);
#202=EDGE_CURVE('',#244,#238,#29,.T.);
#203=EDGE_CURVE('',#246,#237,#30,.T.);
#204=EDGE_CURVE('',#245,#246,#31,.T.);
#205=EDGE_CURVE('',#247,#236,#32,.T.);
#206=EDGE_CURVE('',#246,#247,#33,.T.);
#207=EDGE_CURVE('',#235,#248,#34,.T.);
#208=EDGE_CURVE('',#248,#249,#35,.T.);
#209=EDGE_CURVE('',#250,#249,#36,.T.);
#210=EDGE_CURVE('',#247,#250,#37,.T.);
#211=EDGE_CURVE('',#249,#251,#38,.T.);
#212=EDGE_CURVE('',#252,#251,#39,.T.);
#213=EDGE_CURVE('',#250,#252,#40,.T.);
#214=EDGE_CURVE('',#251,#253,#41,.T.);
#215=EDGE_CURVE('',#253,#254,#42,.T.);
#216=EDGE_CURVE('',#254,#255,#43,.T.);
#217=EDGE_CURVE('',#256,#255,#44,.T.);
#218=EDGE_CURVE('',#252,#256,#45,.T.);
#219=EDGE_CURVE('',#240,#255,#46,.T.);
#220=EDGE_CURVE('',#256,#239,#47,.T.);
#221=EDGE_CURVE('',#248,#253,#48,.T.);
#222=EDGE_CURVE('',#257,#258,#263,.T.);
#223=EDGE_CURVE('',#257,#241,#49,.T.);
#224=EDGE_CURVE('',#259,#254,#50,.T.);
#225=EDGE_CURVE('',#259,#258,#51,.T.);
#226=EDGE_CURVE('',#260,#234,#52,.T.);
#227=EDGE_CURVE('',#261,#260,#13,.T.);
#228=EDGE_CURVE('',#261,#259,#53,.T.);
#229=EDGE_CURVE('',#257,#233,#14,.T.);
#230=EDGE_CURVE('',#232,#260,#54,.T.);
#231=EDGE_CURVE('',#258,#261,#55,.T.);
#232=VERTEX_POINT('',#453);
#233=VERTEX_POINT('',#454);
#234=VERTEX_POINT('',#456);
#235=VERTEX_POINT('',#458);
#236=VERTEX_POINT('',#460);
#237=VERTEX_POINT('',#462);
#238=VERTEX_POINT('',#464);
#239=VERTEX_POINT('',#468);
#240=VERTEX_POINT('',#469);
#241=VERTEX_POINT('',#471);
#242=VERTEX_POINT('',#473);
#243=VERTEX_POINT('',#475);
#244=VERTEX_POINT('',#479);
#245=VERTEX_POINT('',#481);
#246=VERTEX_POINT('',#486);
#247=VERTEX_POINT('',#490);
#248=VERTEX_POINT('',#494);
#249=VERTEX_POINT('',#496);
#250=VERTEX_POINT('',#498);
#251=VERTEX_POINT('',#502);
#252=VERTEX_POINT('',#504);
#253=VERTEX_POINT('',#508);
#254=VERTEX_POINT('',#510);
#255=VERTEX_POINT('',#512);
#256=VERTEX_POINT('',#514);
#257=VERTEX_POINT('',#524);
#258=VERTEX_POINT('',#525);
#259=VERTEX_POINT('',#528);
#260=VERTEX_POINT('',#532);
#261=VERTEX_POINT('',#534);
#262=CIRCLE('',#345,0.00635);
#263=CIRCLE('',#357,0.00635);
#264=EDGE_LOOP('',(#97,#98,#99,#100,#101,#102,#103));
#265=EDGE_LOOP('',(#104,#105,#106,#107,#108));
#266=EDGE_LOOP('',(#109,#110,#111,#112));
#267=EDGE_LOOP('',(#113,#114,#115,#116,#117));
#268=EDGE_LOOP('',(#118,#119,#120,#121));
#269=EDGE_LOOP('',(#122,#123,#124,#125,#126,#127));
#270=EDGE_LOOP('',(#128,#129,#130,#131));
#271=EDGE_LOOP('',(#132,#133,#134,#135,#136,#137));
#272=EDGE_LOOP('',(#138,#139,#140,#141));
#273=EDGE_LOOP('',(#142,#143,#144,#145,#146,#147,#148,#149));
#274=EDGE_LOOP('',(#150,#151,#152,#153));
#275=EDGE_LOOP('',(#154,#155,#156,#157,#158,#159,#160));
#276=EDGE_LOOP('',(#161,#162,#163,#164,#165,#166,#167,#168));
#277=EDGE_LOOP('',(#169,#170,#171,#172,#173,#174));
#278=EDGE_LOOP('',(#175,#176,#177,#178,#179,#180));
#279=EDGE_LOOP('',(#181,#182,#183));
#280=EDGE_LOOP('',(#184,#185,#186));
#281=FACE_BOUND('',#264,.T.);
#282=FACE_BOUND('',#265,.T.);
#283=FACE_BOUND('',#266,.T.);
#284=FACE_BOUND('',#267,.T.);
#285=FACE_BOUND('',#268,.T.);
#286=FACE_BOUND('',#269,.T.);
#287=FACE_BOUND('',#270,.T.);
#288=FACE_BOUND('',#271,.T.);
#289=FACE_BOUND('',#272,.T.);
#290=FACE_BOUND('',#273,.T.);
#291=FACE_BOUND('',#274,.T.);
#292=FACE_BOUND('',#275,.T.);
#293=FACE_BOUND('',#276,.T.);
#294=FACE_BOUND('',#277,.T.);
#295=FACE_BOUND('',#278,.T.);
#296=FACE_BOUND('',#279,.T.);
#297=FACE_BOUND('',#280,.T.);
#298=PLANE('',#344);
#299=PLANE('',#346);
#300=PLANE('',#347);
#301=PLANE('',#348);
#302=PLANE('',#349);
#303=PLANE('',#350);
#304=PLANE('',#351);
#305=PLANE('',#352);
#306=PLANE('',#353);
#307=PLANE('',#354);
#308=PLANE('',#355);
#309=PLANE('',#356);
#310=PLANE('',#358);
#311=PLANE('',#360);
#312=PLANE('',#363);
#313=PLANE('',#364);
#314=ADVANCED_FACE('',(#281),#298,.T.);
#315=ADVANCED_FACE('',(#282),#299,.F.);
#316=ADVANCED_FACE('',(#283),#300,.F.);
#317=ADVANCED_FACE('',(#284),#301,.F.);
#318=ADVANCED_FACE('',(#285),#302,.F.);
#319=ADVANCED_FACE('',(#286),#303,.F.);
#320=ADVANCED_FACE('',(#287),#304,.F.);
#321=ADVANCED_FACE('',(#288),#305,.F.);
#322=ADVANCED_FACE('',(#289),#306,.F.);
#323=ADVANCED_FACE('',(#290),#307,.T.);
#324=ADVANCED_FACE('',(#291),#308,.T.);
#325=ADVANCED_FACE('',(#292),#309,.T.);
#326=ADVANCED_FACE('',(#293),#310,.T.);
#327=ADVANCED_FACE('',(#294),#311,.F.);
#328=ADVANCED_FACE('',(#295),#12,.F.);
#329=ADVANCED_FACE('',(#296),#312,.F.);
#330=ADVANCED_FACE('',(#297),#313,.T.);
#331=CLOSED_SHELL('',(#314,#315,#316,#317,#318,#319,#320,#321,#322,#323,
#324,#325,#326,#327,#328,#329,#330));
#332=STYLED_ITEM('',(#333),#340);
#333=PRESENTATION_STYLE_ASSIGNMENT((#334));
#334=SURFACE_STYLE_USAGE(.BOTH.,#335);
#335=SURFACE_SIDE_STYLE('',(#336));
#336=SURFACE_STYLE_FILL_AREA(#337);
#337=FILL_AREA_STYLE('',(#338));
#338=FILL_AREA_STYLE_COLOUR('',#339);
#339=COLOUR_RGB('',0.901960784313726,0.901960784313726,0.901960784313726);
#340=MANIFOLD_SOLID_BREP('Hull Foamy',#331);
#341=SHAPE_DEFINITION_REPRESENTATION(#549,#342);
#342=SHAPE_REPRESENTATION('Hull Foamy',(#343),#544);
#343=AXIS2_PLACEMENT_3D('',#450,#365,#366);
#344=AXIS2_PLACEMENT_3D('',#451,#367,#368);
#345=AXIS2_PLACEMENT_3D('',#452,#369,#370);
#346=AXIS2_PLACEMENT_3D('',#466,#377,#378);
#347=AXIS2_PLACEMENT_3D('',#477,#384,#385);
#348=AXIS2_PLACEMENT_3D('',#483,#389,#390);
#349=AXIS2_PLACEMENT_3D('',#488,#394,#395);
#350=AXIS2_PLACEMENT_3D('',#492,#398,#399);
#351=AXIS2_PLACEMENT_3D('',#500,#404,#405);
#352=AXIS2_PLACEMENT_3D('',#506,#409,#410);
#353=AXIS2_PLACEMENT_3D('',#516,#416,#417);
#354=AXIS2_PLACEMENT_3D('',#519,#420,#421);
#355=AXIS2_PLACEMENT_3D('',#520,#422,#423);
#356=AXIS2_PLACEMENT_3D('',#522,#425,#426);
#357=AXIS2_PLACEMENT_3D('',#523,#427,#428);
#358=AXIS2_PLACEMENT_3D('',#530,#432,#433);
#359=AXIS2_PLACEMENT_3D('',#533,#435,#436);
#360=AXIS2_PLACEMENT_3D('',#536,#438,#439);
#361=AXIS2_PLACEMENT_3D('',#537,#440,#441);
#362=AXIS2_PLACEMENT_3D('',#538,#442,#443);
#363=AXIS2_PLACEMENT_3D('',#541,#446,#447);
#364=AXIS2_PLACEMENT_3D('',#542,#448,#449);
#365=DIRECTION('',(0.,0.,1.));
#366=DIRECTION('',(1.,0.,0.));
#367=DIRECTION('',(0.,1.,0.));
#368=DIRECTION('',(0.,0.,1.));
#369=DIRECTION('',(0.,1.,0.));
#370=DIRECTION('',(0.,0.,1.));
#371=DIRECTION('',(2.44343912721188E-16,0.,-1.));
#372=DIRECTION('',(-1.,0.,0.));
#373=DIRECTION('',(1.50722647926304E-16,0.,-1.));
#374=DIRECTION('',(1.,0.,0.));
#375=DIRECTION('',(0.,0.,1.));
#376=DIRECTION('',(-1.,0.,0.));
#377=DIRECTION('',(1.,0.,1.36592399683213E-16));
#378=DIRECTION('',(1.36592399683213E-16,0.,-1.));
#379=DIRECTION('',(0.,1.,0.));
#380=DIRECTION('',(1.36592399683213E-16,0.,-1.));
#381=DIRECTION('',(0.,0.988936352868298,0.148340452930245));
#382=DIRECTION('',(0.,1.,0.));
#383=DIRECTION('',(1.36592399683213E-16,0.,-1.));
#384=DIRECTION('',(0.,0.,1.));
#385=DIRECTION('',(1.,0.,0.));
#386=DIRECTION('',(1.,0.,0.));
#387=DIRECTION('',(0.,1.,0.));
#388=DIRECTION('',(1.,0.,0.));
#389=DIRECTION('',(-1.,0.,0.));
#390=DIRECTION('',(0.,0.,1.));
#391=DIRECTION('',(0.,0.988936352868298,0.148340452930245));
#392=DIRECTION('',(0.,1.,0.));
#393=DIRECTION('',(0.,0.,1.));
#394=DIRECTION('',(0.,0.,-1.));
#395=DIRECTION('',(-1.,0.,0.));
#396=DIRECTION('',(0.,1.,0.));
#397=DIRECTION('',(-1.,0.,0.));
#398=DIRECTION('',(1.,0.,1.50722647926304E-16));
#399=DIRECTION('',(1.50722647926304E-16,0.,-1.));
#400=DIRECTION('',(2.23582658602338E-17,-0.988936352868298,-0.148340452930245));
#401=DIRECTION('',(1.50722647926304E-16,0.,-1.));
#402=DIRECTION('',(0.,1.,0.));
#403=DIRECTION('',(1.50722647926304E-16,0.,-1.));
#404=DIRECTION('',(1.27486239704332E-16,0.,-1.));
#405=DIRECTION('',(-1.,0.,-1.27486239704332E-16));
#406=DIRECTION('',(-1.,0.,-1.27486239704332E-16));
#407=DIRECTION('',(0.,1.,0.));
#408=DIRECTION('',(-1.,0.,-1.27486239704332E-16));
#409=DIRECTION('',(-1.,0.,-2.26083971889457E-16));
#410=DIRECTION('',(-2.26083971889457E-16,0.,1.));
#411=DIRECTION('',(-2.26083971889457E-16,0.,1.));
#412=DIRECTION('',(-3.35373987903507E-17,0.988936352868298,0.148340452930245));
#413=DIRECTION('',(-2.26083971889457E-16,0.,1.));
#414=DIRECTION('',(0.,1.,0.));
#415=DIRECTION('',(-2.26083971889457E-16,0.,1.));
#416=DIRECTION('',(0.,0.,-1.));
#417=DIRECTION('',(-1.,0.,0.));
#418=DIRECTION('',(1.,0.,0.));
#419=DIRECTION('',(-1.,0.,0.));
#420=DIRECTION('',(0.,-1.,0.));
#421=DIRECTION('',(1.,0.,0.));
#422=DIRECTION('',(0.,-1.,0.));
#423=DIRECTION('',(1.,0.,0.));
#424=DIRECTION('',(-1.,0.,0.));
#425=DIRECTION('',(0.,1.,0.));
#426=DIRECTION('',(0.,0.,1.));
#427=DIRECTION('',(0.,1.,0.));
#428=DIRECTION('',(0.,0.,1.));
#429=DIRECTION('',(-1.,0.,0.));
#430=DIRECTION('',(-1.,0.,0.));
#431=DIRECTION('',(0.,0.,-1.));
#432=DIRECTION('',(0.,-0.148340452930245,0.988936352868298));
#433=DIRECTION('',(0.,-0.988936352868298,-0.148340452930245));
#434=DIRECTION('',(-3.62460866838092E-17,0.988936352868298,0.148340452930245));
#435=DIRECTION('',(0.,-0.148340452930245,0.988936352868298));
#436=DIRECTION('',(0.,-0.988936352868298,-0.148340452930245));
#437=DIRECTION('',(0.,0.988936352868298,0.148340452930245));
#438=DIRECTION('',(0.,-0.148340452930245,0.988936352868298));
#439=DIRECTION('',(0.,-0.988936352868298,-0.148340452930245));
#440=DIRECTION('',(0.,-0.148340452930245,0.988936352868298));
#441=DIRECTION('',(0.,-0.988936352868298,-0.148340452930245));
#442=DIRECTION('',(0.,-1.,0.));
#443=DIRECTION('',(0.,0.,-1.));
#444=DIRECTION('',(0.,-1.,0.));
#445=DIRECTION('',(0.,-1.,0.));
#446=DIRECTION('',(1.,0.,2.44343912721188E-16));
#447=DIRECTION('',(2.44343912721188E-16,0.,-1.));
#448=DIRECTION('',(1.,0.,0.));
#449=DIRECTION('',(0.,0.,-1.));
#450=CARTESIAN_POINT('',(0.,0.,0.));
#451=CARTESIAN_POINT('',(-0.0635,0.254,0.0468578900457987));
#452=CARTESIAN_POINT('',(-5.20417042793042E-18,0.254,0.041275));
#453=CARTESIAN_POINT('',(0.00635,0.254,0.041275));
#454=CARTESIAN_POINT('',(0.0054992613140312,0.254,0.0381));
#455=CARTESIAN_POINT('',(0.00635,0.254,0.0468578900457987));
#456=CARTESIAN_POINT('',(0.00635,0.254,0.0429157800915973));
#457=CARTESIAN_POINT('',(0.028575,0.254,0.0429157800915973));
#458=CARTESIAN_POINT('',(0.0238125,0.254,0.0429157800915973));
#459=CARTESIAN_POINT('',(0.0238125,0.254,0.02778125));
#460=CARTESIAN_POINT('',(0.0238125,0.254,0.0508));
#461=CARTESIAN_POINT('',(-0.0635,0.254,0.0508));
#462=CARTESIAN_POINT('',(0.028575,0.254,0.0508));
#463=CARTESIAN_POINT('',(0.028575,0.254,0.0254));
#464=CARTESIAN_POINT('',(0.028575,0.254,0.0381));
#465=CARTESIAN_POINT('',(0.028575,0.254,0.0381));
#466=CARTESIAN_POINT('',(-0.028575,-0.508,0.0254));
#467=CARTESIAN_POINT('',(-0.028575,-0.508,0.0508));
#468=CARTESIAN_POINT('',(-0.028575,-0.508,0.0508));
#469=CARTESIAN_POINT('',(-0.028575,0.254,0.0508));
#470=CARTESIAN_POINT('',(-0.028575,0.254,0.0254));
#471=CARTESIAN_POINT('',(-0.028575,0.254,0.0381));
#472=CARTESIAN_POINT('',(-0.028575,0.127,0.01905));
#473=CARTESIAN_POINT('',(-0.028575,-1.66533453693773E-16,-2.77555756156289E-17));
#474=CARTESIAN_POINT('',(-0.028575,-0.508,-3.46944695195361E-18));
#475=CARTESIAN_POINT('',(-0.028575,-0.508,-3.46944695195361E-18));
#476=CARTESIAN_POINT('',(-0.028575,-0.508,0.0254));
#477=CARTESIAN_POINT('',(0.,-0.508,0.));
#478=CARTESIAN_POINT('',(0.,0.,0.));
#479=CARTESIAN_POINT('',(0.028575,-1.66533453693773E-16,-2.77555756156289E-17));
#480=CARTESIAN_POINT('',(0.028575,-0.508,0.));
#481=CARTESIAN_POINT('',(0.028575,-0.508,0.));
#482=CARTESIAN_POINT('',(0.,-0.508,0.));
#483=CARTESIAN_POINT('',(0.028575,-0.508,0.0254));
#484=CARTESIAN_POINT('',(0.028575,0.127,0.01905));
#485=CARTESIAN_POINT('',(0.028575,-0.508,0.0508));
#486=CARTESIAN_POINT('',(0.028575,-0.508,0.0508));
#487=CARTESIAN_POINT('',(0.028575,-0.508,0.0254));
#488=CARTESIAN_POINT('',(0.02619375,-0.508,0.0508));
#489=CARTESIAN_POINT('',(0.0238125,-0.508,0.0508));
#490=CARTESIAN_POINT('',(0.0238125,-0.508,0.0508));
#491=CARTESIAN_POINT('',(0.02619375,-0.508,0.0508));
#492=CARTESIAN_POINT('',(0.0238125,-0.508,0.02778125));
#493=CARTESIAN_POINT('',(0.0238125,0.500190533482895,0.0798443601140317));
#494=CARTESIAN_POINT('',(0.0238125,0.,0.00481578009159732));
#495=CARTESIAN_POINT('',(0.0238125,0.,0.02778125));
#496=CARTESIAN_POINT('',(0.0238125,0.,0.0047625));
#497=CARTESIAN_POINT('',(0.0238125,-0.508,0.0047625));
#498=CARTESIAN_POINT('',(0.0238125,-0.508,0.0047625));
#499=CARTESIAN_POINT('',(0.0238125,-0.508,0.02778125));
#500=CARTESIAN_POINT('',(0.,-0.508,0.0047625));
#501=CARTESIAN_POINT('',(0.,0.,0.0047625));
#502=CARTESIAN_POINT('',(-0.0238125,0.,0.0047625));
#503=CARTESIAN_POINT('',(-0.0238125,-0.508,0.0047625));
#504=CARTESIAN_POINT('',(-0.0238125,-0.508,0.0047625));
#505=CARTESIAN_POINT('',(0.,-0.508,0.0047625));
#506=CARTESIAN_POINT('',(-0.0238125,-0.508,0.02778125));
#507=CARTESIAN_POINT('',(-0.0238125,0.,0.02778125));
#508=CARTESIAN_POINT('',(-0.0238125,0.,0.00481578009159732));
#509=CARTESIAN_POINT('',(-0.0238125,0.500190533482895,0.0798443601140317));
#510=CARTESIAN_POINT('',(-0.0238125,0.254,0.0429157800915973));
#511=CARTESIAN_POINT('',(-0.0238125,0.254,0.02778125));
#512=CARTESIAN_POINT('',(-0.0238125,0.254,0.0508));
#513=CARTESIAN_POINT('',(-0.0238125,-0.508,0.0508));
#514=CARTESIAN_POINT('',(-0.0238125,-0.508,0.0508));
#515=CARTESIAN_POINT('',(-0.0238125,-0.508,0.02778125));
#516=CARTESIAN_POINT('',(-0.02619375,-0.508,0.0508));
#517=CARTESIAN_POINT('',(-0.0635,0.254,0.0508));
#518=CARTESIAN_POINT('',(-0.02619375,-0.508,0.0508));
#519=CARTESIAN_POINT('',(0.,-0.508,0.0254));
#520=CARTESIAN_POINT('',(0.,0.,0.0254));
#521=CARTESIAN_POINT('',(0.028575,0.,0.00481578009159732));
#522=CARTESIAN_POINT('',(-0.0635,0.254,0.0468578900457987));
#523=CARTESIAN_POINT('',(-5.20417042793042E-18,0.254,0.041275));
#524=CARTESIAN_POINT('',(-0.00549926131403119,0.254,0.0381));
#525=CARTESIAN_POINT('',(-0.00635,0.254,0.041275));
#526=CARTESIAN_POINT('',(0.028575,0.254,0.0381));
#527=CARTESIAN_POINT('',(0.028575,0.254,0.0429157800915973));
#528=CARTESIAN_POINT('',(-0.00635,0.254,0.0429157800915973));
#529=CARTESIAN_POINT('',(-0.00635,0.254,0.0468578900457987));
#530=CARTESIAN_POINT('',(0.028575,0.127,0.0238657800915974));
#531=CARTESIAN_POINT('',(0.00635,0.127,0.0238657800915974));
#532=CARTESIAN_POINT('',(0.00635,0.243061466056017,0.041275));
#533=CARTESIAN_POINT('',(-5.20417042793042E-18,0.243061466056018,0.041275));
#534=CARTESIAN_POINT('',(-0.00635,0.243061466056017,0.041275));
#535=CARTESIAN_POINT('',(-0.00635,0.127,0.0238657800915974));
#536=CARTESIAN_POINT('',(0.028575,0.127,0.01905));
#537=CARTESIAN_POINT('',(-5.20417042793042E-18,0.275166666666667,0.041275));
#538=CARTESIAN_POINT('',(-5.20417042793042E-18,0.508,0.041275));
#539=CARTESIAN_POINT('',(0.00635,0.508,0.041275));
#540=CARTESIAN_POINT('',(-0.00635,0.508,0.041275));
#541=CARTESIAN_POINT('',(0.00635,0.508,0.0448247579142809));
#542=CARTESIAN_POINT('',(-0.00635,0.508,0.0448247579142809));
#543=MECHANICAL_DESIGN_GEOMETRIC_PRESENTATION_REPRESENTATION('',(#332),
#544);
#544=(
GEOMETRIC_REPRESENTATION_CONTEXT(3)
GLOBAL_UNCERTAINTY_ASSIGNED_CONTEXT((#545))
GLOBAL_UNIT_ASSIGNED_CONTEXT((#548,#547,#546))
REPRESENTATION_CONTEXT('Hull Foamy','TOP_LEVEL_ASSEMBLY_PART')
);
#545=UNCERTAINTY_MEASURE_WITH_UNIT(LENGTH_MEASURE(1.E-8),#548,
'DISTANCE_ACCURACY_VALUE','Maximum Tolerance applied to model');
#546=(
NAMED_UNIT(*)
SI_UNIT($,.STERADIAN.)
SOLID_ANGLE_UNIT()
);
#547=(
NAMED_UNIT(*)
PLANE_ANGLE_UNIT()
SI_UNIT($,.RADIAN.)
);
#548=(
LENGTH_UNIT()
NAMED_UNIT(*)
SI_UNIT($,.METRE.)
);
#549=PRODUCT_DEFINITION_SHAPE('','',#550);
#550=PRODUCT_DEFINITION('','',#552,#551);
#551=PRODUCT_DEFINITION_CONTEXT('',#558,'design');
#552=PRODUCT_DEFINITION_FORMATION_WITH_SPECIFIED_SOURCE('','',#554,
 .NOT_KNOWN.);
#553=PRODUCT_RELATED_PRODUCT_CATEGORY('','',(#554));
#554=PRODUCT('Hull Foamy','Hull Foamy','Hull Foamy',(#556));
#555=PRODUCT_CATEGORY('','');
#556=PRODUCT_CONTEXT('',#558,'mechanical');
#557=APPLICATION_PROTOCOL_DEFINITION('international standard',
'ap242_managed_model_based_3d_engineering',2020,#558);
#558=APPLICATION_CONTEXT('managed model based 3d engineering');
ENDSEC;
END-ISO-10303-21;
