ISO-10303-21;
HEADER;
/* Generated by software containing ST-Developer
 * from STEP Tools, Inc. (www.steptools.com) 
 */
/* OPTION: using custom renumber hook */

FILE_DESCRIPTION(
/* description */ ('STEP AP242 Edition 2',
'CAx-IF Rec.Pracs.---Representation and Presentation of Product Manufa
cturing Information (PMI)---4.0---2014-10-13',
'CAx-IF Rec.Pracs.---3D Tessellated Geometry---0.4---2014-09-14','2;1',
'CAx-IF Rec.Pracs.---User Defined Attributes---1.5---2016-08-15'),
/* implementation_level */ '2;1');

FILE_NAME(
/* name */ 'Control Horns',
/* time_stamp */ '2026-08-24T02:44:07Z',
/* author */ (''),
/* organization */ (''),
/* preprocessor_version */ 'ST-DEVELOPER v20',
/* originating_system */ 'ONSHAPE BY PTC INC, 1.219',
/* authorisation */ '  ');

FILE_SCHEMA (('AP242_MANAGED_MODEL_BASED_3D_ENGINEERING_MIM_LF { 1 0 10303 442 3 1 4 }'));
ENDSEC;

DATA;
#10=LINE('',#628,#58);
#11=LINE('',#631,#59);
#12=LINE('',#633,#60);
#13=LINE('',#635,#61);
#14=LINE('',#637,#62);
#15=LINE('',#639,#63);
#16=LINE('',#641,#64);
#17=LINE('',#643,#65);
#18=LINE('',#645,#66);
#19=LINE('',#647,#67);
#20=LINE('',#649,#68);
#21=LINE('',#651,#69);
#22=LINE('',#653,#70);
#23=LINE('',#655,#71);
#24=LINE('',#657,#72);
#25=LINE('',#659,#73);
#26=LINE('',#661,#74);
#27=LINE('',#663,#75);
#28=LINE('',#665,#76);
#29=LINE('',#667,#77);
#30=LINE('',#669,#78);
#31=LINE('',#671,#79);
#32=LINE('',#673,#80);
#33=LINE('',#675,#81);
#34=LINE('',#677,#82);
#35=LINE('',#679,#83);
#36=LINE('',#681,#84);
#37=LINE('',#683,#85);
#38=LINE('',#685,#86);
#39=LINE('',#687,#87);
#40=LINE('',#689,#88);
#41=LINE('',#691,#89);
#42=LINE('',#693,#90);
#43=LINE('',#695,#91);
#44=LINE('',#697,#92);
#45=LINE('',#699,#93);
#46=LINE('',#701,#94);
#47=LINE('',#703,#95);
#48=LINE('',#705,#96);
#49=LINE('',#707,#97);
#50=LINE('',#709,#98);
#51=LINE('',#711,#99);
#52=LINE('',#713,#100);
#53=LINE('',#715,#101);
#54=LINE('',#717,#102);
#55=LINE('',#719,#103);
#56=LINE('',#721,#104);
#57=LINE('',#722,#105);
#58=VECTOR('',#521,1.);
#59=VECTOR('',#522,1.);
#60=VECTOR('',#523,1.);
#61=VECTOR('',#524,1.);
#62=VECTOR('',#527,1.);
#63=VECTOR('',#528,1.);
#64=VECTOR('',#529,1.);
#65=VECTOR('',#532,1.);
#66=VECTOR('',#533,1.);
#67=VECTOR('',#534,1.);
#68=VECTOR('',#537,1.);
#69=VECTOR('',#538,1.);
#70=VECTOR('',#539,1.);
#71=VECTOR('',#542,1.);
#72=VECTOR('',#543,1.);
#73=VECTOR('',#544,1.);
#74=VECTOR('',#547,1.);
#75=VECTOR('',#548,1.);
#76=VECTOR('',#549,1.);
#77=VECTOR('',#552,1.);
#78=VECTOR('',#553,1.);
#79=VECTOR('',#554,1.);
#80=VECTOR('',#557,1.);
#81=VECTOR('',#558,1.);
#82=VECTOR('',#559,1.);
#83=VECTOR('',#562,1.);
#84=VECTOR('',#563,1.);
#85=VECTOR('',#564,1.);
#86=VECTOR('',#567,1.);
#87=VECTOR('',#568,1.);
#88=VECTOR('',#569,1.);
#89=VECTOR('',#572,1.);
#90=VECTOR('',#573,1.);
#91=VECTOR('',#574,1.);
#92=VECTOR('',#577,1.);
#93=VECTOR('',#578,1.);
#94=VECTOR('',#579,1.);
#95=VECTOR('',#582,1.);
#96=VECTOR('',#583,1.);
#97=VECTOR('',#584,1.);
#98=VECTOR('',#587,1.);
#99=VECTOR('',#588,1.);
#100=VECTOR('',#589,1.);
#101=VECTOR('',#592,1.);
#102=VECTOR('',#593,1.);
#103=VECTOR('',#594,1.);
#104=VECTOR('',#597,1.);
#105=VECTOR('',#598,1.);
#106=SHAPE_REPRESENTATION_RELATIONSHIP('','',#457,#108);
#107=SHAPE_REPRESENTATION_RELATIONSHIP('','',#458,#109);
#108=ADVANCED_BREP_SHAPE_REPRESENTATION('',(#453),#732);
#109=ADVANCED_BREP_SHAPE_REPRESENTATION('',(#454),#733);
#110=PLANE('',#469);
#111=PLANE('',#470);
#112=PLANE('',#472);
#113=PLANE('',#473);
#114=PLANE('',#474);
#115=PLANE('',#475);
#116=PLANE('',#476);
#117=PLANE('',#477);
#118=PLANE('',#478);
#119=PLANE('',#479);
#120=PLANE('',#480);
#121=PLANE('',#481);
#122=PLANE('',#482);
#123=PLANE('',#483);
#124=PLANE('',#484);
#125=PLANE('',#485);
#126=PLANE('',#486);
#127=PLANE('',#487);
#128=PLANE('',#491);
#129=PLANE('',#492);
#130=TOROIDAL_SURFACE('',#465,0.0015875,0.0005);
#131=ELLIPSE('',#462,0.000707106781186548,0.0005);
#132=ELLIPSE('',#464,0.000707106781186548,0.0005);
#133=ORIENTED_EDGE('',*,*,#243,.T.);
#134=ORIENTED_EDGE('',*,*,#244,.T.);
#135=ORIENTED_EDGE('',*,*,#244,.F.);
#136=ORIENTED_EDGE('',*,*,#245,.T.);
#137=ORIENTED_EDGE('',*,*,#246,.F.);
#138=ORIENTED_EDGE('',*,*,#247,.T.);
#139=ORIENTED_EDGE('',*,*,#245,.F.);
#140=ORIENTED_EDGE('',*,*,#247,.F.);
#141=ORIENTED_EDGE('',*,*,#243,.F.);
#142=ORIENTED_EDGE('',*,*,#246,.T.);
#143=ORIENTED_EDGE('',*,*,#248,.F.);
#144=ORIENTED_EDGE('',*,*,#249,.F.);
#145=ORIENTED_EDGE('',*,*,#250,.T.);
#146=ORIENTED_EDGE('',*,*,#251,.T.);
#147=ORIENTED_EDGE('',*,*,#252,.F.);
#148=ORIENTED_EDGE('',*,*,#253,.F.);
#149=ORIENTED_EDGE('',*,*,#254,.T.);
#150=ORIENTED_EDGE('',*,*,#249,.T.);
#151=ORIENTED_EDGE('',*,*,#255,.F.);
#152=ORIENTED_EDGE('',*,*,#256,.F.);
#153=ORIENTED_EDGE('',*,*,#257,.T.);
#154=ORIENTED_EDGE('',*,*,#253,.T.);
#155=ORIENTED_EDGE('',*,*,#258,.T.);
#156=ORIENTED_EDGE('',*,*,#259,.F.);
#157=ORIENTED_EDGE('',*,*,#260,.F.);
#158=ORIENTED_EDGE('',*,*,#256,.T.);
#159=ORIENTED_EDGE('',*,*,#261,.T.);
#160=ORIENTED_EDGE('',*,*,#262,.F.);
#161=ORIENTED_EDGE('',*,*,#263,.F.);
#162=ORIENTED_EDGE('',*,*,#259,.T.);
#163=ORIENTED_EDGE('',*,*,#264,.T.);
#164=ORIENTED_EDGE('',*,*,#265,.F.);
#165=ORIENTED_EDGE('',*,*,#266,.F.);
#166=ORIENTED_EDGE('',*,*,#262,.T.);
#167=ORIENTED_EDGE('',*,*,#267,.T.);
#168=ORIENTED_EDGE('',*,*,#268,.F.);
#169=ORIENTED_EDGE('',*,*,#269,.F.);
#170=ORIENTED_EDGE('',*,*,#265,.T.);
#171=ORIENTED_EDGE('',*,*,#270,.T.);
#172=ORIENTED_EDGE('',*,*,#271,.F.);
#173=ORIENTED_EDGE('',*,*,#272,.F.);
#174=ORIENTED_EDGE('',*,*,#268,.T.);
#175=ORIENTED_EDGE('',*,*,#273,.T.);
#176=ORIENTED_EDGE('',*,*,#274,.F.);
#177=ORIENTED_EDGE('',*,*,#275,.F.);
#178=ORIENTED_EDGE('',*,*,#271,.T.);
#179=ORIENTED_EDGE('',*,*,#276,.T.);
#180=ORIENTED_EDGE('',*,*,#277,.F.);
#181=ORIENTED_EDGE('',*,*,#278,.F.);
#182=ORIENTED_EDGE('',*,*,#274,.T.);
#183=ORIENTED_EDGE('',*,*,#279,.T.);
#184=ORIENTED_EDGE('',*,*,#280,.F.);
#185=ORIENTED_EDGE('',*,*,#281,.F.);
#186=ORIENTED_EDGE('',*,*,#277,.T.);
#187=ORIENTED_EDGE('',*,*,#282,.T.);
#188=ORIENTED_EDGE('',*,*,#283,.F.);
#189=ORIENTED_EDGE('',*,*,#284,.F.);
#190=ORIENTED_EDGE('',*,*,#280,.T.);
#191=ORIENTED_EDGE('',*,*,#285,.T.);
#192=ORIENTED_EDGE('',*,*,#286,.F.);
#193=ORIENTED_EDGE('',*,*,#287,.F.);
#194=ORIENTED_EDGE('',*,*,#283,.T.);
#195=ORIENTED_EDGE('',*,*,#288,.T.);
#196=ORIENTED_EDGE('',*,*,#289,.F.);
#197=ORIENTED_EDGE('',*,*,#290,.F.);
#198=ORIENTED_EDGE('',*,*,#286,.T.);
#199=ORIENTED_EDGE('',*,*,#291,.T.);
#200=ORIENTED_EDGE('',*,*,#292,.F.);
#201=ORIENTED_EDGE('',*,*,#293,.F.);
#202=ORIENTED_EDGE('',*,*,#289,.T.);
#203=ORIENTED_EDGE('',*,*,#294,.T.);
#204=ORIENTED_EDGE('',*,*,#251,.F.);
#205=ORIENTED_EDGE('',*,*,#295,.F.);
#206=ORIENTED_EDGE('',*,*,#292,.T.);
#207=ORIENTED_EDGE('',*,*,#296,.T.);
#208=ORIENTED_EDGE('',*,*,#297,.F.);
#209=ORIENTED_EDGE('',*,*,#250,.F.);
#210=ORIENTED_EDGE('',*,*,#254,.F.);
#211=ORIENTED_EDGE('',*,*,#257,.F.);
#212=ORIENTED_EDGE('',*,*,#260,.T.);
#213=ORIENTED_EDGE('',*,*,#263,.T.);
#214=ORIENTED_EDGE('',*,*,#266,.T.);
#215=ORIENTED_EDGE('',*,*,#269,.T.);
#216=ORIENTED_EDGE('',*,*,#272,.T.);
#217=ORIENTED_EDGE('',*,*,#275,.T.);
#218=ORIENTED_EDGE('',*,*,#278,.T.);
#219=ORIENTED_EDGE('',*,*,#281,.T.);
#220=ORIENTED_EDGE('',*,*,#284,.T.);
#221=ORIENTED_EDGE('',*,*,#287,.T.);
#222=ORIENTED_EDGE('',*,*,#290,.T.);
#223=ORIENTED_EDGE('',*,*,#293,.T.);
#224=ORIENTED_EDGE('',*,*,#295,.T.);
#225=ORIENTED_EDGE('',*,*,#296,.F.);
#226=ORIENTED_EDGE('',*,*,#248,.T.);
#227=ORIENTED_EDGE('',*,*,#294,.F.);
#228=ORIENTED_EDGE('',*,*,#291,.F.);
#229=ORIENTED_EDGE('',*,*,#288,.F.);
#230=ORIENTED_EDGE('',*,*,#285,.F.);
#231=ORIENTED_EDGE('',*,*,#282,.F.);
#232=ORIENTED_EDGE('',*,*,#279,.F.);
#233=ORIENTED_EDGE('',*,*,#276,.F.);
#234=ORIENTED_EDGE('',*,*,#273,.F.);
#235=ORIENTED_EDGE('',*,*,#270,.F.);
#236=ORIENTED_EDGE('',*,*,#267,.F.);
#237=ORIENTED_EDGE('',*,*,#264,.F.);
#238=ORIENTED_EDGE('',*,*,#261,.F.);
#239=ORIENTED_EDGE('',*,*,#258,.F.);
#240=ORIENTED_EDGE('',*,*,#255,.T.);
#241=ORIENTED_EDGE('',*,*,#252,.T.);
#242=ORIENTED_EDGE('',*,*,#297,.T.);
#243=EDGE_CURVE('',#298,#298,#337,.T.);
#244=EDGE_CURVE('',#299,#299,#131,.F.);
#245=EDGE_CURVE('',#300,#300,#132,.F.);
#246=EDGE_CURVE('',#301,#301,#338,.T.);
#247=EDGE_CURVE('',#302,#302,#339,.T.);
#248=EDGE_CURVE('',#303,#304,#10,.T.);
#249=EDGE_CURVE('',#305,#303,#11,.T.);
#250=EDGE_CURVE('',#305,#306,#12,.T.);
#251=EDGE_CURVE('',#306,#304,#13,.T.);
#252=EDGE_CURVE('',#307,#303,#14,.T.);
#253=EDGE_CURVE('',#308,#307,#15,.T.);
#254=EDGE_CURVE('',#308,#305,#16,.T.);
#255=EDGE_CURVE('',#309,#307,#17,.T.);
#256=EDGE_CURVE('',#310,#309,#18,.T.);
#257=EDGE_CURVE('',#310,#308,#19,.T.);
#258=EDGE_CURVE('',#309,#311,#20,.T.);
#259=EDGE_CURVE('',#312,#311,#21,.T.);
#260=EDGE_CURVE('',#310,#312,#22,.T.);
#261=EDGE_CURVE('',#311,#313,#23,.T.);
#262=EDGE_CURVE('',#314,#313,#24,.T.);
#263=EDGE_CURVE('',#312,#314,#25,.T.);
#264=EDGE_CURVE('',#313,#315,#26,.T.);
#265=EDGE_CURVE('',#316,#315,#27,.T.);
#266=EDGE_CURVE('',#314,#316,#28,.T.);
#267=EDGE_CURVE('',#315,#317,#29,.T.);
#268=EDGE_CURVE('',#318,#317,#30,.T.);
#269=EDGE_CURVE('',#316,#318,#31,.T.);
#270=EDGE_CURVE('',#317,#319,#32,.T.);
#271=EDGE_CURVE('',#320,#319,#33,.T.);
#272=EDGE_CURVE('',#318,#320,#34,.T.);
#273=EDGE_CURVE('',#319,#321,#35,.T.);
#274=EDGE_CURVE('',#322,#321,#36,.T.);
#275=EDGE_CURVE('',#320,#322,#37,.T.);
#276=EDGE_CURVE('',#321,#323,#38,.T.);
#277=EDGE_CURVE('',#324,#323,#39,.T.);
#278=EDGE_CURVE('',#322,#324,#40,.T.);
#279=EDGE_CURVE('',#323,#325,#41,.T.);
#280=EDGE_CURVE('',#326,#325,#42,.T.);
#281=EDGE_CURVE('',#324,#326,#43,.T.);
#282=EDGE_CURVE('',#325,#327,#44,.T.);
#283=EDGE_CURVE('',#328,#327,#45,.T.);
#284=EDGE_CURVE('',#326,#328,#46,.T.);
#285=EDGE_CURVE('',#327,#329,#47,.T.);
#286=EDGE_CURVE('',#330,#329,#48,.T.);
#287=EDGE_CURVE('',#328,#330,#49,.T.);
#288=EDGE_CURVE('',#329,#331,#50,.T.);
#289=EDGE_CURVE('',#332,#331,#51,.T.);
#290=EDGE_CURVE('',#330,#332,#52,.T.);
#291=EDGE_CURVE('',#331,#333,#53,.T.);
#292=EDGE_CURVE('',#334,#333,#54,.T.);
#293=EDGE_CURVE('',#332,#334,#55,.T.);
#294=EDGE_CURVE('',#333,#304,#56,.T.);
#295=EDGE_CURVE('',#334,#306,#57,.T.);
#296=EDGE_CURVE('',#335,#335,#340,.T.);
#297=EDGE_CURVE('',#336,#336,#341,.T.);
#298=VERTEX_POINT('',#612);
#299=VERTEX_POINT('',#614);
#300=VERTEX_POINT('',#617);
#301=VERTEX_POINT('',#620);
#302=VERTEX_POINT('',#622);
#303=VERTEX_POINT('',#629);
#304=VERTEX_POINT('',#630);
#305=VERTEX_POINT('',#632);
#306=VERTEX_POINT('',#634);
#307=VERTEX_POINT('',#638);
#308=VERTEX_POINT('',#640);
#309=VERTEX_POINT('',#644);
#310=VERTEX_POINT('',#646);
#311=VERTEX_POINT('',#650);
#312=VERTEX_POINT('',#652);
#313=VERTEX_POINT('',#656);
#314=VERTEX_POINT('',#658);
#315=VERTEX_POINT('',#662);
#316=VERTEX_POINT('',#664);
#317=VERTEX_POINT('',#668);
#318=VERTEX_POINT('',#670);
#319=VERTEX_POINT('',#674);
#320=VERTEX_POINT('',#676);
#321=VERTEX_POINT('',#680);
#322=VERTEX_POINT('',#682);
#323=VERTEX_POINT('',#686);
#324=VERTEX_POINT('',#688);
#325=VERTEX_POINT('',#692);
#326=VERTEX_POINT('',#694);
#327=VERTEX_POINT('',#698);
#328=VERTEX_POINT('',#700);
#329=VERTEX_POINT('',#704);
#330=VERTEX_POINT('',#706);
#331=VERTEX_POINT('',#710);
#332=VERTEX_POINT('',#712);
#333=VERTEX_POINT('',#716);
#334=VERTEX_POINT('',#718);
#335=VERTEX_POINT('',#725);
#336=VERTEX_POINT('',#727);
#337=CIRCLE('',#461,0.0005);
#338=CIRCLE('',#466,0.0005);
#339=CIRCLE('',#467,0.0005);
#340=CIRCLE('',#489,0.001);
#341=CIRCLE('',#490,0.001);
#342=EDGE_LOOP('',(#133));
#343=EDGE_LOOP('',(#134));
#344=EDGE_LOOP('',(#135));
#345=EDGE_LOOP('',(#136));
#346=EDGE_LOOP('',(#137));
#347=EDGE_LOOP('',(#138));
#348=EDGE_LOOP('',(#139));
#349=EDGE_LOOP('',(#140));
#350=EDGE_LOOP('',(#141));
#351=EDGE_LOOP('',(#142));
#352=EDGE_LOOP('',(#143,#144,#145,#146));
#353=EDGE_LOOP('',(#147,#148,#149,#150));
#354=EDGE_LOOP('',(#151,#152,#153,#154));
#355=EDGE_LOOP('',(#155,#156,#157,#158));
#356=EDGE_LOOP('',(#159,#160,#161,#162));
#357=EDGE_LOOP('',(#163,#164,#165,#166));
#358=EDGE_LOOP('',(#167,#168,#169,#170));
#359=EDGE_LOOP('',(#171,#172,#173,#174));
#360=EDGE_LOOP('',(#175,#176,#177,#178));
#361=EDGE_LOOP('',(#179,#180,#181,#182));
#362=EDGE_LOOP('',(#183,#184,#185,#186));
#363=EDGE_LOOP('',(#187,#188,#189,#190));
#364=EDGE_LOOP('',(#191,#192,#193,#194));
#365=EDGE_LOOP('',(#195,#196,#197,#198));
#366=EDGE_LOOP('',(#199,#200,#201,#202));
#367=EDGE_LOOP('',(#203,#204,#205,#206));
#368=EDGE_LOOP('',(#207));
#369=EDGE_LOOP('',(#208));
#370=EDGE_LOOP('',(#209,#210,#211,#212,#213,#214,#215,#216,#217,#218,#219,
#220,#221,#222,#223,#224));
#371=EDGE_LOOP('',(#225));
#372=EDGE_LOOP('',(#226,#227,#228,#229,#230,#231,#232,#233,#234,#235,#236,
#237,#238,#239,#240,#241));
#373=EDGE_LOOP('',(#242));
#374=FACE_BOUND('',#342,.T.);
#375=FACE_BOUND('',#343,.T.);
#376=FACE_BOUND('',#344,.T.);
#377=FACE_BOUND('',#345,.T.);
#378=FACE_BOUND('',#346,.T.);
#379=FACE_BOUND('',#347,.T.);
#380=FACE_BOUND('',#348,.T.);
#381=FACE_BOUND('',#349,.T.);
#382=FACE_BOUND('',#350,.T.);
#383=FACE_BOUND('',#351,.T.);
#384=FACE_BOUND('',#352,.T.);
#385=FACE_BOUND('',#353,.T.);
#386=FACE_BOUND('',#354,.T.);
#387=FACE_BOUND('',#355,.T.);
#388=FACE_BOUND('',#356,.T.);
#389=FACE_BOUND('',#357,.T.);
#390=FACE_BOUND('',#358,.T.);
#391=FACE_BOUND('',#359,.T.);
#392=FACE_BOUND('',#360,.T.);
#393=FACE_BOUND('',#361,.T.);
#394=FACE_BOUND('',#362,.T.);
#395=FACE_BOUND('',#363,.T.);
#396=FACE_BOUND('',#364,.T.);
#397=FACE_BOUND('',#365,.T.);
#398=FACE_BOUND('',#366,.T.);
#399=FACE_BOUND('',#367,.T.);
#400=FACE_BOUND('',#368,.T.);
#401=FACE_BOUND('',#369,.T.);
#402=FACE_BOUND('',#370,.T.);
#403=FACE_BOUND('',#371,.T.);
#404=FACE_BOUND('',#372,.T.);
#405=FACE_BOUND('',#373,.T.);
#406=CYLINDRICAL_SURFACE('',#460,0.0005);
#407=CYLINDRICAL_SURFACE('',#463,0.0005);
#408=CYLINDRICAL_SURFACE('',#468,0.0005);
#409=CYLINDRICAL_SURFACE('',#488,0.001);
#410=ADVANCED_FACE('',(#374,#375),#406,.T.);
#411=ADVANCED_FACE('',(#376,#377),#407,.T.);
#412=ADVANCED_FACE('',(#378,#379),#130,.T.);
#413=ADVANCED_FACE('',(#380,#381),#408,.T.);
#414=ADVANCED_FACE('',(#382),#110,.F.);
#415=ADVANCED_FACE('',(#383),#111,.T.);
#416=ADVANCED_FACE('',(#384),#112,.T.);
#417=ADVANCED_FACE('',(#385),#113,.T.);
#418=ADVANCED_FACE('',(#386),#114,.T.);
#419=ADVANCED_FACE('',(#387),#115,.F.);
#420=ADVANCED_FACE('',(#388),#116,.F.);
#421=ADVANCED_FACE('',(#389),#117,.F.);
#422=ADVANCED_FACE('',(#390),#118,.F.);
#423=ADVANCED_FACE('',(#391),#119,.F.);
#424=ADVANCED_FACE('',(#392),#120,.F.);
#425=ADVANCED_FACE('',(#393),#121,.F.);
#426=ADVANCED_FACE('',(#394),#122,.F.);
#427=ADVANCED_FACE('',(#395),#123,.F.);
#428=ADVANCED_FACE('',(#396),#124,.F.);
#429=ADVANCED_FACE('',(#397),#125,.F.);
#430=ADVANCED_FACE('',(#398),#126,.F.);
#431=ADVANCED_FACE('',(#399),#127,.F.);
#432=ADVANCED_FACE('',(#400,#401),#409,.F.);
#433=ADVANCED_FACE('',(#402,#403),#128,.T.);
#434=ADVANCED_FACE('',(#404,#405),#129,.F.);
#435=CLOSED_SHELL('',(#410,#411,#412,#413,#414,#415));
#436=CLOSED_SHELL('',(#416,#417,#418,#419,#420,#421,#422,#423,#424,#425,
#426,#427,#428,#429,#430,#431,#432,#433,#434));
#437=STYLED_ITEM('',(#439),#453);
#438=STYLED_ITEM('',(#440),#454);
#439=PRESENTATION_STYLE_ASSIGNMENT((#441));
#440=PRESENTATION_STYLE_ASSIGNMENT((#442));
#441=SURFACE_STYLE_USAGE(.BOTH.,#443);
#442=SURFACE_STYLE_USAGE(.BOTH.,#444);
#443=SURFACE_SIDE_STYLE('',(#445));
#444=SURFACE_SIDE_STYLE('',(#446));
#445=SURFACE_STYLE_FILL_AREA(#447);
#446=SURFACE_STYLE_FILL_AREA(#448);
#447=FILL_AREA_STYLE('',(#449));
#448=FILL_AREA_STYLE('',(#450));
#449=FILL_AREA_STYLE_COLOUR('',#451);
#450=FILL_AREA_STYLE_COLOUR('',#452);
#451=COLOUR_RGB('',0.6,0.6,0.6);
#452=COLOUR_RGB('',0.227450980392157,0.227450980392157,0.227450980392157);
#453=MANIFOLD_SOLID_BREP('Push/Pull Rod1',#435);
#454=MANIFOLD_SOLID_BREP('Control Horn',#436);
#455=SHAPE_DEFINITION_REPRESENTATION(#742,#457);
#456=SHAPE_DEFINITION_REPRESENTATION(#743,#458);
#457=SHAPE_REPRESENTATION('Push/Pull Rod1',(#459),#732);
#458=SHAPE_REPRESENTATION('Control Horn',(#471),#733);
#459=AXIS2_PLACEMENT_3D('',#609,#493,#494);
#460=AXIS2_PLACEMENT_3D('',#610,#495,#496);
#461=AXIS2_PLACEMENT_3D('',#611,#497,#498);
#462=AXIS2_PLACEMENT_3D('',#613,#499,#500);
#463=AXIS2_PLACEMENT_3D('',#615,#501,#502);
#464=AXIS2_PLACEMENT_3D('',#616,#503,#504);
#465=AXIS2_PLACEMENT_3D('',#618,#505,#506);
#466=AXIS2_PLACEMENT_3D('',#619,#507,#508);
#467=AXIS2_PLACEMENT_3D('',#621,#509,#510);
#468=AXIS2_PLACEMENT_3D('',#623,#511,#512);
#469=AXIS2_PLACEMENT_3D('',#624,#513,#514);
#470=AXIS2_PLACEMENT_3D('',#625,#515,#516);
#471=AXIS2_PLACEMENT_3D('',#626,#517,#518);
#472=AXIS2_PLACEMENT_3D('',#627,#519,#520);
#473=AXIS2_PLACEMENT_3D('',#636,#525,#526);
#474=AXIS2_PLACEMENT_3D('',#642,#530,#531);
#475=AXIS2_PLACEMENT_3D('',#648,#535,#536);
#476=AXIS2_PLACEMENT_3D('',#654,#540,#541);
#477=AXIS2_PLACEMENT_3D('',#660,#545,#546);
#478=AXIS2_PLACEMENT_3D('',#666,#550,#551);
#479=AXIS2_PLACEMENT_3D('',#672,#555,#556);
#480=AXIS2_PLACEMENT_3D('',#678,#560,#561);
#481=AXIS2_PLACEMENT_3D('',#684,#565,#566);
#482=AXIS2_PLACEMENT_3D('',#690,#570,#571);
#483=AXIS2_PLACEMENT_3D('',#696,#575,#576);
#484=AXIS2_PLACEMENT_3D('',#702,#580,#581);
#485=AXIS2_PLACEMENT_3D('',#708,#585,#586);
#486=AXIS2_PLACEMENT_3D('',#714,#590,#591);
#487=AXIS2_PLACEMENT_3D('',#720,#595,#596);
#488=AXIS2_PLACEMENT_3D('',#723,#599,#600);
#489=AXIS2_PLACEMENT_3D('',#724,#601,#602);
#490=AXIS2_PLACEMENT_3D('',#726,#603,#604);
#491=AXIS2_PLACEMENT_3D('',#728,#605,#606);
#492=AXIS2_PLACEMENT_3D('',#729,#607,#608);
#493=DIRECTION('',(0.,0.,1.));
#494=DIRECTION('',(1.,0.,0.));
#495=DIRECTION('',(0.,-1.,0.));
#496=DIRECTION('',(0.,0.,-1.));
#497=DIRECTION('',(0.,-1.,0.));
#498=DIRECTION('',(0.,0.,-1.));
#499=DIRECTION('',(0.707106781186548,-0.707106781186548,0.));
#500=DIRECTION('',(-0.707106781186548,-0.707106781186548,0.));
#501=DIRECTION('',(1.,0.,0.));
#502=DIRECTION('',(0.,0.,-1.));
#503=DIRECTION('',(0.707106781186548,-0.707106781186548,0.));
#504=DIRECTION('',(0.707106781186548,0.707106781186548,0.));
#505=DIRECTION('',(0.,0.,1.));
#506=DIRECTION('',(1.,0.,0.));
#507=DIRECTION('',(-0.797757136563639,0.602978897691937,0.));
#508=DIRECTION('',(0.,0.,-1.));
#509=DIRECTION('',(0.,-1.,0.));
#510=DIRECTION('',(0.,0.,-1.));
#511=DIRECTION('',(0.,-1.,0.));
#512=DIRECTION('',(0.,0.,-1.));
#513=DIRECTION('',(0.,-1.,0.));
#514=DIRECTION('',(1.,0.,0.));
#515=DIRECTION('',(-0.797757136563639,0.602978897691937,0.));
#516=DIRECTION('',(-0.602978897691937,-0.797757136563639,0.));
#517=DIRECTION('',(0.,0.,1.));
#518=DIRECTION('',(1.,0.,0.));
#519=DIRECTION('',(0.,-0.52999894000318,-0.847998304005088));
#520=DIRECTION('',(0.,0.847998304005088,-0.52999894000318));
#521=DIRECTION('',(0.,-0.847998304005088,0.52999894000318));
#522=DIRECTION('',(-1.,0.,0.));
#523=DIRECTION('',(0.,-0.847998304005088,0.52999894000318));
#524=DIRECTION('',(-1.,0.,0.));
#525=DIRECTION('',(0.,1.22464679914735E-16,-1.));
#526=DIRECTION('',(0.,1.,1.22464679914735E-16));
#527=DIRECTION('',(0.,-1.,-1.22464679914735E-16));
#528=DIRECTION('',(-1.,0.,0.));
#529=DIRECTION('',(0.,-1.,-1.22464679914735E-16));
#530=DIRECTION('',(0.,-1.,0.));
#531=DIRECTION('',(0.,0.,-1.));
#532=DIRECTION('',(0.,0.,1.));
#533=DIRECTION('',(-1.,0.,0.));
#534=DIRECTION('',(0.,0.,1.));
#535=DIRECTION('',(0.,0.936329177569045,0.351123441588391));
#536=DIRECTION('',(0.,-0.351123441588391,0.936329177569045));
#537=DIRECTION('',(0.,0.351123441588391,-0.936329177569045));
#538=DIRECTION('',(-1.,0.,0.));
#539=DIRECTION('',(0.,0.351123441588391,-0.936329177569045));
#540=DIRECTION('',(0.,0.,1.));
#541=DIRECTION('',(1.,0.,0.));
#542=DIRECTION('',(0.,1.,0.));
#543=DIRECTION('',(-1.,0.,0.));
#544=DIRECTION('',(0.,1.,0.));
#545=DIRECTION('',(0.,-0.936329177569045,0.351123441588391));
#546=DIRECTION('',(0.,-0.351123441588391,-0.936329177569045));
#547=DIRECTION('',(0.,0.351123441588391,0.936329177569045));
#548=DIRECTION('',(-1.,0.,0.));
#549=DIRECTION('',(0.,0.351123441588391,0.936329177569045));
#550=DIRECTION('',(0.,2.16840434497101E-16,1.));
#551=DIRECTION('',(0.,-1.,2.16840434497101E-16));
#552=DIRECTION('',(0.,1.,-2.16840434497101E-16));
#553=DIRECTION('',(-1.,0.,0.));
#554=DIRECTION('',(0.,1.,-2.16840434497101E-16));
#555=DIRECTION('',(0.,0.936329177569045,0.351123441588391));
#556=DIRECTION('',(0.,-0.351123441588391,0.936329177569045));
#557=DIRECTION('',(0.,0.351123441588391,-0.936329177569045));
#558=DIRECTION('',(-1.,0.,0.));
#559=DIRECTION('',(0.,0.351123441588391,-0.936329177569045));
#560=DIRECTION('',(0.,0.,1.));
#561=DIRECTION('',(1.,0.,0.));
#562=DIRECTION('',(0.,1.,0.));
#563=DIRECTION('',(-1.,0.,0.));
#564=DIRECTION('',(0.,1.,0.));
#565=DIRECTION('',(0.,-0.936329177569045,0.351123441588391));
#566=DIRECTION('',(0.,-0.351123441588391,-0.936329177569045));
#567=DIRECTION('',(0.,0.351123441588391,0.936329177569045));
#568=DIRECTION('',(-1.,0.,0.));
#569=DIRECTION('',(0.,0.351123441588391,0.936329177569045));
#570=DIRECTION('',(0.,-1.,0.));
#571=DIRECTION('',(0.,0.,-1.));
#572=DIRECTION('',(0.,0.,1.));
#573=DIRECTION('',(-1.,0.,0.));
#574=DIRECTION('',(0.,0.,1.));
#575=DIRECTION('',(0.,0.,1.));
#576=DIRECTION('',(1.,0.,0.));
#577=DIRECTION('',(0.,1.,0.));
#578=DIRECTION('',(-1.,0.,0.));
#579=DIRECTION('',(0.,1.,0.));
#580=DIRECTION('',(0.,-1.,0.));
#581=DIRECTION('',(0.,0.,-1.));
#582=DIRECTION('',(0.,0.,1.));
#583=DIRECTION('',(-1.,0.,0.));
#584=DIRECTION('',(0.,0.,1.));
#585=DIRECTION('',(0.,-0.384615384615385,-0.923076923076923));
#586=DIRECTION('',(0.,0.923076923076923,-0.384615384615385));
#587=DIRECTION('',(0.,-0.923076923076923,0.384615384615385));
#588=DIRECTION('',(-1.,0.,0.));
#589=DIRECTION('',(0.,-0.923076923076923,0.384615384615385));
#590=DIRECTION('',(0.,0.,-1.));
#591=DIRECTION('',(-1.,0.,0.));
#592=DIRECTION('',(0.,-1.,0.));
#593=DIRECTION('',(-1.,0.,0.));
#594=DIRECTION('',(0.,-1.,0.));
#595=DIRECTION('',(0.,1.,0.));
#596=DIRECTION('',(0.,0.,1.));
#597=DIRECTION('',(0.,0.,-1.));
#598=DIRECTION('',(0.,0.,-1.));
#599=DIRECTION('',(-1.,0.,0.));
#600=DIRECTION('',(0.,0.,1.));
#601=DIRECTION('',(1.,0.,0.));
#602=DIRECTION('',(0.,0.,-1.));
#603=DIRECTION('',(1.,0.,0.));
#604=DIRECTION('',(0.,0.,-1.));
#605=DIRECTION('',(1.,0.,0.));
#606=DIRECTION('',(0.,1.,0.));
#607=DIRECTION('',(1.,0.,0.));
#608=DIRECTION('',(0.,1.,0.));
#609=CARTESIAN_POINT('',(0.,0.,0.));
#610=CARTESIAN_POINT('',(0.,0.,3.06161699786839E-20));
#611=CARTESIAN_POINT('',(0.,0.,3.06161699786839E-20));
#612=CARTESIAN_POINT('',(0.,0.,-0.0005));
#613=CARTESIAN_POINT('',(0.,-0.00635,3.06161699786839E-20));
#614=CARTESIAN_POINT('',(-0.000500000000000001,-0.00685,3.06161699786839E-20));
#615=CARTESIAN_POINT('',(-0.0012,-0.00635,3.06161699786839E-20));
#616=CARTESIAN_POINT('',(0.003175,-0.00635,3.06161699786839E-20));
#617=CARTESIAN_POINT('',(0.003675,-0.00585,3.06161699786839E-20));
#618=CARTESIAN_POINT('',(0.0047625,-0.1905,3.06161699786839E-20));
#619=CARTESIAN_POINT('',(0.00571972900008597,-0.189233560545705,3.06161699786839E-20));
#620=CARTESIAN_POINT('',(0.00571972900008597,-0.189233560545705,-0.0005));
#621=CARTESIAN_POINT('',(0.003175,-0.1905,3.06161699786839E-20));
#622=CARTESIAN_POINT('',(0.003175,-0.1905,-0.0005));
#623=CARTESIAN_POINT('',(0.003175,-0.00515,3.06161699786839E-20));
#624=CARTESIAN_POINT('',(0.,0.,0.));
#625=CARTESIAN_POINT('',(0.00571972900008597,-0.189233560545705,0.));
#626=CARTESIAN_POINT('',(0.,0.,0.));
#627=CARTESIAN_POINT('',(0.0014,-0.036,0.0025));
#628=CARTESIAN_POINT('',(0.,-0.036,0.0025));
#629=CARTESIAN_POINT('',(0.,-0.032,-6.5322732531872E-19));
#630=CARTESIAN_POINT('',(0.,-0.04,0.005));
#631=CARTESIAN_POINT('',(0.0014,-0.032,-6.5322732531872E-19));
#632=CARTESIAN_POINT('',(0.0014,-0.032,-6.5322732531872E-19));
#633=CARTESIAN_POINT('',(0.0014,-0.036,0.0025));
#634=CARTESIAN_POINT('',(0.0014,-0.04,0.005));
#635=CARTESIAN_POINT('',(0.0014,-0.04,0.005));
#636=CARTESIAN_POINT('',(0.0014,-0.03,-4.0829796548925E-19));
#637=CARTESIAN_POINT('',(0.,-0.03,-4.0829796548925E-19));
#638=CARTESIAN_POINT('',(0.,-0.028,0.));
#639=CARTESIAN_POINT('',(0.0014,-0.028,0.));
#640=CARTESIAN_POINT('',(0.0014,-0.028,0.));
#641=CARTESIAN_POINT('',(0.0014,-0.03,-4.0829796548925E-19));
#642=CARTESIAN_POINT('',(0.0014,-0.028,-0.001));
#643=CARTESIAN_POINT('',(0.,-0.028,-0.001));
#644=CARTESIAN_POINT('',(0.,-0.028,-0.002));
#645=CARTESIAN_POINT('',(0.0014,-0.028,-0.002));
#646=CARTESIAN_POINT('',(0.0014,-0.028,-0.002));
#647=CARTESIAN_POINT('',(0.0014,-0.028,-0.001));
#648=CARTESIAN_POINT('',(0.0014,-0.02725,-0.004));
#649=CARTESIAN_POINT('',(0.,-0.02725,-0.004));
#650=CARTESIAN_POINT('',(0.,-0.0265,-0.006));
#651=CARTESIAN_POINT('',(0.0014,-0.0265,-0.006));
#652=CARTESIAN_POINT('',(0.0014,-0.0265,-0.006));
#653=CARTESIAN_POINT('',(0.0014,-0.02725,-0.004));
#654=CARTESIAN_POINT('',(0.0014,-0.023,-0.006));
#655=CARTESIAN_POINT('',(0.,-0.023,-0.006));
#656=CARTESIAN_POINT('',(0.,-0.0195,-0.006));
#657=CARTESIAN_POINT('',(0.0014,-0.0195,-0.006));
#658=CARTESIAN_POINT('',(0.0014,-0.0195,-0.006));
#659=CARTESIAN_POINT('',(0.0014,-0.023,-0.006));
#660=CARTESIAN_POINT('',(0.0014,-0.01875,-0.004));
#661=CARTESIAN_POINT('',(0.,-0.01875,-0.004));
#662=CARTESIAN_POINT('',(0.,-0.018,-0.002));
#663=CARTESIAN_POINT('',(0.0014,-0.018,-0.002));
#664=CARTESIAN_POINT('',(0.0014,-0.018,-0.002));
#665=CARTESIAN_POINT('',(0.0014,-0.01875,-0.004));
#666=CARTESIAN_POINT('',(0.0014,-0.015,-0.002));
#667=CARTESIAN_POINT('',(0.,-0.015,-0.002));
#668=CARTESIAN_POINT('',(0.,-0.012,-0.002));
#669=CARTESIAN_POINT('',(0.0014,-0.012,-0.002));
#670=CARTESIAN_POINT('',(0.0014,-0.012,-0.002));
#671=CARTESIAN_POINT('',(0.0014,-0.015,-0.002));
#672=CARTESIAN_POINT('',(0.0014,-0.01125,-0.004));
#673=CARTESIAN_POINT('',(0.,-0.01125,-0.004));
#674=CARTESIAN_POINT('',(0.,-0.0105,-0.006));
#675=CARTESIAN_POINT('',(0.0014,-0.0105,-0.006));
#676=CARTESIAN_POINT('',(0.0014,-0.0105,-0.006));
#677=CARTESIAN_POINT('',(0.0014,-0.01125,-0.004));
#678=CARTESIAN_POINT('',(0.0014,-0.007,-0.006));
#679=CARTESIAN_POINT('',(0.,-0.007,-0.006));
#680=CARTESIAN_POINT('',(0.,-0.0035,-0.006));
#681=CARTESIAN_POINT('',(0.0014,-0.0035,-0.006));
#682=CARTESIAN_POINT('',(0.0014,-0.0035,-0.006));
#683=CARTESIAN_POINT('',(0.0014,-0.007,-0.006));
#684=CARTESIAN_POINT('',(0.0014,-0.00275,-0.004));
#685=CARTESIAN_POINT('',(0.,-0.00275,-0.004));
#686=CARTESIAN_POINT('',(0.,-0.002,-0.002));
#687=CARTESIAN_POINT('',(0.0014,-0.002,-0.002));
#688=CARTESIAN_POINT('',(0.0014,-0.002,-0.002));
#689=CARTESIAN_POINT('',(0.0014,-0.00275,-0.004));
#690=CARTESIAN_POINT('',(0.0014,-0.002,-0.001));
#691=CARTESIAN_POINT('',(0.,-0.002,-0.001));
#692=CARTESIAN_POINT('',(0.,-0.002,0.));
#693=CARTESIAN_POINT('',(0.0014,-0.002,0.));
#694=CARTESIAN_POINT('',(0.0014,-0.002,0.));
#695=CARTESIAN_POINT('',(0.0014,-0.002,-0.001));
#696=CARTESIAN_POINT('',(0.0014,-0.001,0.));
#697=CARTESIAN_POINT('',(0.,-0.001,0.));
#698=CARTESIAN_POINT('',(0.,0.,0.));
#699=CARTESIAN_POINT('',(0.0014,0.,0.));
#700=CARTESIAN_POINT('',(0.0014,0.,0.));
#701=CARTESIAN_POINT('',(0.0014,-0.001,0.));
#702=CARTESIAN_POINT('',(0.0014,0.,0.001));
#703=CARTESIAN_POINT('',(0.,0.,0.001));
#704=CARTESIAN_POINT('',(0.,0.,0.002));
#705=CARTESIAN_POINT('',(0.0014,0.,0.002));
#706=CARTESIAN_POINT('',(0.0014,0.,0.002));
#707=CARTESIAN_POINT('',(0.0014,0.,0.001));
#708=CARTESIAN_POINT('',(0.0014,-0.018,0.0095));
#709=CARTESIAN_POINT('',(0.,-0.018,0.0095));
#710=CARTESIAN_POINT('',(0.,-0.036,0.017));
#711=CARTESIAN_POINT('',(0.0014,-0.036,0.017));
#712=CARTESIAN_POINT('',(0.0014,-0.036,0.017));
#713=CARTESIAN_POINT('',(0.0014,-0.018,0.0095));
#714=CARTESIAN_POINT('',(0.0014,-0.038,0.017));
#715=CARTESIAN_POINT('',(0.,-0.038,0.017));
#716=CARTESIAN_POINT('',(0.,-0.04,0.017));
#717=CARTESIAN_POINT('',(0.0014,-0.04,0.017));
#718=CARTESIAN_POINT('',(0.0014,-0.04,0.017));
#719=CARTESIAN_POINT('',(0.0014,-0.038,0.017));
#720=CARTESIAN_POINT('',(0.0014,-0.04,0.011));
#721=CARTESIAN_POINT('',(0.,-0.04,0.011));
#722=CARTESIAN_POINT('',(0.0014,-0.04,0.011));
#723=CARTESIAN_POINT('',(0.0014,-0.037,0.014));
#724=CARTESIAN_POINT('',(0.0014,-0.037,0.014));
#725=CARTESIAN_POINT('',(0.0014,-0.037,0.013));
#726=CARTESIAN_POINT('',(0.,-0.037,0.014));
#727=CARTESIAN_POINT('',(0.,-0.037,0.013));
#728=CARTESIAN_POINT('',(0.0014,-0.02,0.0055));
#729=CARTESIAN_POINT('',(0.,-0.02,0.0055));
#730=MECHANICAL_DESIGN_GEOMETRIC_PRESENTATION_REPRESENTATION('',(#437),
#732);
#731=MECHANICAL_DESIGN_GEOMETRIC_PRESENTATION_REPRESENTATION('',(#438),
#733);
#732=(
GEOMETRIC_REPRESENTATION_CONTEXT(3)
GLOBAL_UNCERTAINTY_ASSIGNED_CONTEXT((#734))
GLOBAL_UNIT_ASSIGNED_CONTEXT((#740,#738,#736))
REPRESENTATION_CONTEXT('Push/Pull Rod1','TOP_LEVEL_ASSEMBLY_PART')
);
#733=(
GEOMETRIC_REPRESENTATION_CONTEXT(3)
GLOBAL_UNCERTAINTY_ASSIGNED_CONTEXT((#735))
GLOBAL_UNIT_ASSIGNED_CONTEXT((#741,#739,#737))
REPRESENTATION_CONTEXT('Control Horn','TOP_LEVEL_ASSEMBLY_PART')
);
#734=UNCERTAINTY_MEASURE_WITH_UNIT(LENGTH_MEASURE(1.E-8),#740,
'DISTANCE_ACCURACY_VALUE','Maximum Tolerance applied to model');
#735=UNCERTAINTY_MEASURE_WITH_UNIT(LENGTH_MEASURE(1.E-8),#741,
'DISTANCE_ACCURACY_VALUE','Maximum Tolerance applied to model');
#736=(
NAMED_UNIT(*)
SI_UNIT($,.STERADIAN.)
SOLID_ANGLE_UNIT()
);
#737=(
NAMED_UNIT(*)
SI_UNIT($,.STERADIAN.)
SOLID_ANGLE_UNIT()
);
#738=(
NAMED_UNIT(*)
PLANE_ANGLE_UNIT()
SI_UNIT($,.RADIAN.)
);
#739=(
NAMED_UNIT(*)
PLANE_ANGLE_UNIT()
SI_UNIT($,.RADIAN.)
);
#740=(
LENGTH_UNIT()
NAMED_UNIT(*)
SI_UNIT($,.METRE.)
);
#741=(
LENGTH_UNIT()
NAMED_UNIT(*)
SI_UNIT($,.METRE.)
);
#742=PRODUCT_DEFINITION_SHAPE('','',#744);
#743=PRODUCT_DEFINITION_SHAPE('','',#745);
#744=PRODUCT_DEFINITION('','',#748,#746);
#745=PRODUCT_DEFINITION('','',#749,#747);
#746=PRODUCT_DEFINITION_CONTEXT('',#760,'design');
#747=PRODUCT_DEFINITION_CONTEXT('',#761,'design');
#748=PRODUCT_DEFINITION_FORMATION_WITH_SPECIFIED_SOURCE('','',#752,
 .NOT_KNOWN.);
#749=PRODUCT_DEFINITION_FORMATION_WITH_SPECIFIED_SOURCE('','',#753,
 .NOT_KNOWN.);
#750=PRODUCT_RELATED_PRODUCT_CATEGORY('','',(#752));
#751=PRODUCT_RELATED_PRODUCT_CATEGORY('','',(#753));
#752=PRODUCT('Push/Pull Rod1','Push/Pull Rod1','Push/Pull Rod1',(#756));
#753=PRODUCT('Control Horn','Control Horn','Control Horn',(#757));
#754=PRODUCT_CATEGORY('','');
#755=PRODUCT_CATEGORY('','');
#756=PRODUCT_CONTEXT('',#760,'mechanical');
#757=PRODUCT_CONTEXT('',#761,'mechanical');
#758=APPLICATION_PROTOCOL_DEFINITION('international standard',
'ap242_managed_model_based_3d_engineering',2020,#760);
#759=APPLICATION_PROTOCOL_DEFINITION('international standard',
'ap242_managed_model_based_3d_engineering',2020,#761);
#760=APPLICATION_CONTEXT('managed model based 3d engineering');
#761=APPLICATION_CONTEXT('managed model based 3d engineering');
ENDSEC;
END-ISO-10303-21;
