ISO-10303-21;
HEADER;
/* Generated by software containing ST-Developer
 * from STEP Tools, Inc. (www.steptools.com) 
 */
/* OPTION: using custom renumber hook */

FILE_DESCRIPTION(
/* description */ ('STEP AP242 Edition 2',
'CAx-IF Rec.Pracs.---Representation and Presentation of Product Manufa
cturing Information (PMI)---4.0---2014-10-13',
'CAx-IF Rec.Pracs.---3D Tessellated Geometry---0.4---2014-09-14','2;1',
'CAx-IF Rec.Pracs.---User Defined Attributes---1.5---2016-08-15'),
/* implementation_level */ '2;1');

FILE_NAME(
/* name */ 'Control Horns - Control Horn',
/* time_stamp */ '2026-08-24T02:44:01Z',
/* author */ (''),
/* organization */ (''),
/* preprocessor_version */ 'ST-DEVELOPER v20',
/* originating_system */ 'ONSHAPE BY PTC INC, 1.219',
/* authorisation */ '  ');

FILE_SCHEMA (('AP242_MANAGED_MODEL_BASED_3D_ENGINEERING_MIM_LF { 1 0 10303 442 3 1 4 }'));
ENDSEC;

DATA;
#10=SHAPE_REPRESENTATION_RELATIONSHIP('','',#387,#11);
#11=ADVANCED_BREP_SHAPE_REPRESENTATION('',(#385),#607);
#12=CIRCLE('',#406,0.001);
#13=CIRCLE('',#407,0.001);
#14=CYLINDRICAL_SURFACE('',#405,0.001);
#15=ORIENTED_EDGE('',*,*,#115,.F.);
#16=ORIENTED_EDGE('',*,*,#116,.F.);
#17=ORIENTED_EDGE('',*,*,#117,.T.);
#18=ORIENTED_EDGE('',*,*,#118,.T.);
#19=ORIENTED_EDGE('',*,*,#119,.F.);
#20=ORIENTED_EDGE('',*,*,#120,.F.);
#21=ORIENTED_EDGE('',*,*,#121,.T.);
#22=ORIENTED_EDGE('',*,*,#116,.T.);
#23=ORIENTED_EDGE('',*,*,#122,.F.);
#24=ORIENTED_EDGE('',*,*,#123,.F.);
#25=ORIENTED_EDGE('',*,*,#124,.T.);
#26=ORIENTED_EDGE('',*,*,#120,.T.);
#27=ORIENTED_EDGE('',*,*,#125,.T.);
#28=ORIENTED_EDGE('',*,*,#126,.F.);
#29=ORIENTED_EDGE('',*,*,#127,.F.);
#30=ORIENTED_EDGE('',*,*,#123,.T.);
#31=ORIENTED_EDGE('',*,*,#128,.T.);
#32=ORIENTED_EDGE('',*,*,#129,.F.);
#33=ORIENTED_EDGE('',*,*,#130,.F.);
#34=ORIENTED_EDGE('',*,*,#126,.T.);
#35=ORIENTED_EDGE('',*,*,#131,.T.);
#36=ORIENTED_EDGE('',*,*,#132,.F.);
#37=ORIENTED_EDGE('',*,*,#133,.F.);
#38=ORIENTED_EDGE('',*,*,#129,.T.);
#39=ORIENTED_EDGE('',*,*,#134,.T.);
#40=ORIENTED_EDGE('',*,*,#135,.F.);
#41=ORIENTED_EDGE('',*,*,#136,.F.);
#42=ORIENTED_EDGE('',*,*,#132,.T.);
#43=ORIENTED_EDGE('',*,*,#137,.T.);
#44=ORIENTED_EDGE('',*,*,#138,.F.);
#45=ORIENTED_EDGE('',*,*,#139,.F.);
#46=ORIENTED_EDGE('',*,*,#135,.T.);
#47=ORIENTED_EDGE('',*,*,#140,.T.);
#48=ORIENTED_EDGE('',*,*,#141,.F.);
#49=ORIENTED_EDGE('',*,*,#142,.F.);
#50=ORIENTED_EDGE('',*,*,#138,.T.);
#51=ORIENTED_EDGE('',*,*,#143,.T.);
#52=ORIENTED_EDGE('',*,*,#144,.F.);
#53=ORIENTED_EDGE('',*,*,#145,.F.);
#54=ORIENTED_EDGE('',*,*,#141,.T.);
#55=ORIENTED_EDGE('',*,*,#146,.T.);
#56=ORIENTED_EDGE('',*,*,#147,.F.);
#57=ORIENTED_EDGE('',*,*,#148,.F.);
#58=ORIENTED_EDGE('',*,*,#144,.T.);
#59=ORIENTED_EDGE('',*,*,#149,.T.);
#60=ORIENTED_EDGE('',*,*,#150,.F.);
#61=ORIENTED_EDGE('',*,*,#151,.F.);
#62=ORIENTED_EDGE('',*,*,#147,.T.);
#63=ORIENTED_EDGE('',*,*,#152,.T.);
#64=ORIENTED_EDGE('',*,*,#153,.F.);
#65=ORIENTED_EDGE('',*,*,#154,.F.);
#66=ORIENTED_EDGE('',*,*,#150,.T.);
#67=ORIENTED_EDGE('',*,*,#155,.T.);
#68=ORIENTED_EDGE('',*,*,#156,.F.);
#69=ORIENTED_EDGE('',*,*,#157,.F.);
#70=ORIENTED_EDGE('',*,*,#153,.T.);
#71=ORIENTED_EDGE('',*,*,#158,.T.);
#72=ORIENTED_EDGE('',*,*,#159,.F.);
#73=ORIENTED_EDGE('',*,*,#160,.F.);
#74=ORIENTED_EDGE('',*,*,#156,.T.);
#75=ORIENTED_EDGE('',*,*,#161,.T.);
#76=ORIENTED_EDGE('',*,*,#118,.F.);
#77=ORIENTED_EDGE('',*,*,#162,.F.);
#78=ORIENTED_EDGE('',*,*,#159,.T.);
#79=ORIENTED_EDGE('',*,*,#163,.T.);
#80=ORIENTED_EDGE('',*,*,#164,.F.);
#81=ORIENTED_EDGE('',*,*,#117,.F.);
#82=ORIENTED_EDGE('',*,*,#121,.F.);
#83=ORIENTED_EDGE('',*,*,#124,.F.);
#84=ORIENTED_EDGE('',*,*,#127,.T.);
#85=ORIENTED_EDGE('',*,*,#130,.T.);
#86=ORIENTED_EDGE('',*,*,#133,.T.);
#87=ORIENTED_EDGE('',*,*,#136,.T.);
#88=ORIENTED_EDGE('',*,*,#139,.T.);
#89=ORIENTED_EDGE('',*,*,#142,.T.);
#90=ORIENTED_EDGE('',*,*,#145,.T.);
#91=ORIENTED_EDGE('',*,*,#148,.T.);
#92=ORIENTED_EDGE('',*,*,#151,.T.);
#93=ORIENTED_EDGE('',*,*,#154,.T.);
#94=ORIENTED_EDGE('',*,*,#157,.T.);
#95=ORIENTED_EDGE('',*,*,#160,.T.);
#96=ORIENTED_EDGE('',*,*,#162,.T.);
#97=ORIENTED_EDGE('',*,*,#163,.F.);
#98=ORIENTED_EDGE('',*,*,#115,.T.);
#99=ORIENTED_EDGE('',*,*,#161,.F.);
#100=ORIENTED_EDGE('',*,*,#158,.F.);
#101=ORIENTED_EDGE('',*,*,#155,.F.);
#102=ORIENTED_EDGE('',*,*,#152,.F.);
#103=ORIENTED_EDGE('',*,*,#149,.F.);
#104=ORIENTED_EDGE('',*,*,#146,.F.);
#105=ORIENTED_EDGE('',*,*,#143,.F.);
#106=ORIENTED_EDGE('',*,*,#140,.F.);
#107=ORIENTED_EDGE('',*,*,#137,.F.);
#108=ORIENTED_EDGE('',*,*,#134,.F.);
#109=ORIENTED_EDGE('',*,*,#131,.F.);
#110=ORIENTED_EDGE('',*,*,#128,.F.);
#111=ORIENTED_EDGE('',*,*,#125,.F.);
#112=ORIENTED_EDGE('',*,*,#122,.T.);
#113=ORIENTED_EDGE('',*,*,#119,.T.);
#114=ORIENTED_EDGE('',*,*,#164,.T.);
#115=EDGE_CURVE('',#165,#166,#199,.T.);
#116=EDGE_CURVE('',#167,#165,#200,.T.);
#117=EDGE_CURVE('',#167,#168,#201,.T.);
#118=EDGE_CURVE('',#168,#166,#202,.T.);
#119=EDGE_CURVE('',#169,#165,#203,.T.);
#120=EDGE_CURVE('',#170,#169,#204,.T.);
#121=EDGE_CURVE('',#170,#167,#205,.T.);
#122=EDGE_CURVE('',#171,#169,#206,.T.);
#123=EDGE_CURVE('',#172,#171,#207,.T.);
#124=EDGE_CURVE('',#172,#170,#208,.T.);
#125=EDGE_CURVE('',#171,#173,#209,.T.);
#126=EDGE_CURVE('',#174,#173,#210,.T.);
#127=EDGE_CURVE('',#172,#174,#211,.T.);
#128=EDGE_CURVE('',#173,#175,#212,.T.);
#129=EDGE_CURVE('',#176,#175,#213,.T.);
#130=EDGE_CURVE('',#174,#176,#214,.T.);
#131=EDGE_CURVE('',#175,#177,#215,.T.);
#132=EDGE_CURVE('',#178,#177,#216,.T.);
#133=EDGE_CURVE('',#176,#178,#217,.T.);
#134=EDGE_CURVE('',#177,#179,#218,.T.);
#135=EDGE_CURVE('',#180,#179,#219,.T.);
#136=EDGE_CURVE('',#178,#180,#220,.T.);
#137=EDGE_CURVE('',#179,#181,#221,.T.);
#138=EDGE_CURVE('',#182,#181,#222,.T.);
#139=EDGE_CURVE('',#180,#182,#223,.T.);
#140=EDGE_CURVE('',#181,#183,#224,.T.);
#141=EDGE_CURVE('',#184,#183,#225,.T.);
#142=EDGE_CURVE('',#182,#184,#226,.T.);
#143=EDGE_CURVE('',#183,#185,#227,.T.);
#144=EDGE_CURVE('',#186,#185,#228,.T.);
#145=EDGE_CURVE('',#184,#186,#229,.T.);
#146=EDGE_CURVE('',#185,#187,#230,.T.);
#147=EDGE_CURVE('',#188,#187,#231,.T.);
#148=EDGE_CURVE('',#186,#188,#232,.T.);
#149=EDGE_CURVE('',#187,#189,#233,.T.);
#150=EDGE_CURVE('',#190,#189,#234,.T.);
#151=EDGE_CURVE('',#188,#190,#235,.T.);
#152=EDGE_CURVE('',#189,#191,#236,.T.);
#153=EDGE_CURVE('',#192,#191,#237,.T.);
#154=EDGE_CURVE('',#190,#192,#238,.T.);
#155=EDGE_CURVE('',#191,#193,#239,.T.);
#156=EDGE_CURVE('',#194,#193,#240,.T.);
#157=EDGE_CURVE('',#192,#194,#241,.T.);
#158=EDGE_CURVE('',#193,#195,#242,.T.);
#159=EDGE_CURVE('',#196,#195,#243,.T.);
#160=EDGE_CURVE('',#194,#196,#244,.T.);
#161=EDGE_CURVE('',#195,#166,#245,.T.);
#162=EDGE_CURVE('',#196,#168,#246,.T.);
#163=EDGE_CURVE('',#197,#197,#12,.T.);
#164=EDGE_CURVE('',#198,#198,#13,.T.);
#165=VERTEX_POINT('',#505);
#166=VERTEX_POINT('',#506);
#167=VERTEX_POINT('',#508);
#168=VERTEX_POINT('',#510);
#169=VERTEX_POINT('',#514);
#170=VERTEX_POINT('',#516);
#171=VERTEX_POINT('',#520);
#172=VERTEX_POINT('',#522);
#173=VERTEX_POINT('',#526);
#174=VERTEX_POINT('',#528);
#175=VERTEX_POINT('',#532);
#176=VERTEX_POINT('',#534);
#177=VERTEX_POINT('',#538);
#178=VERTEX_POINT('',#540);
#179=VERTEX_POINT('',#544);
#180=VERTEX_POINT('',#546);
#181=VERTEX_POINT('',#550);
#182=VERTEX_POINT('',#552);
#183=VERTEX_POINT('',#556);
#184=VERTEX_POINT('',#558);
#185=VERTEX_POINT('',#562);
#186=VERTEX_POINT('',#564);
#187=VERTEX_POINT('',#568);
#188=VERTEX_POINT('',#570);
#189=VERTEX_POINT('',#574);
#190=VERTEX_POINT('',#576);
#191=VERTEX_POINT('',#580);
#192=VERTEX_POINT('',#582);
#193=VERTEX_POINT('',#586);
#194=VERTEX_POINT('',#588);
#195=VERTEX_POINT('',#592);
#196=VERTEX_POINT('',#594);
#197=VERTEX_POINT('',#601);
#198=VERTEX_POINT('',#603);
#199=LINE('',#504,#247);
#200=LINE('',#507,#248);
#201=LINE('',#509,#249);
#202=LINE('',#511,#250);
#203=LINE('',#513,#251);
#204=LINE('',#515,#252);
#205=LINE('',#517,#253);
#206=LINE('',#519,#254);
#207=LINE('',#521,#255);
#208=LINE('',#523,#256);
#209=LINE('',#525,#257);
#210=LINE('',#527,#258);
#211=LINE('',#529,#259);
#212=LINE('',#531,#260);
#213=LINE('',#533,#261);
#214=LINE('',#535,#262);
#215=LINE('',#537,#263);
#216=LINE('',#539,#264);
#217=LINE('',#541,#265);
#218=LINE('',#543,#266);
#219=LINE('',#545,#267);
#220=LINE('',#547,#268);
#221=LINE('',#549,#269);
#222=LINE('',#551,#270);
#223=LINE('',#553,#271);
#224=LINE('',#555,#272);
#225=LINE('',#557,#273);
#226=LINE('',#559,#274);
#227=LINE('',#561,#275);
#228=LINE('',#563,#276);
#229=LINE('',#565,#277);
#230=LINE('',#567,#278);
#231=LINE('',#569,#279);
#232=LINE('',#571,#280);
#233=LINE('',#573,#281);
#234=LINE('',#575,#282);
#235=LINE('',#577,#283);
#236=LINE('',#579,#284);
#237=LINE('',#581,#285);
#238=LINE('',#583,#286);
#239=LINE('',#585,#287);
#240=LINE('',#587,#288);
#241=LINE('',#589,#289);
#242=LINE('',#591,#290);
#243=LINE('',#593,#291);
#244=LINE('',#595,#292);
#245=LINE('',#597,#293);
#246=LINE('',#598,#294);
#247=VECTOR('',#414,1.);
#248=VECTOR('',#415,1.);
#249=VECTOR('',#416,1.);
#250=VECTOR('',#417,1.);
#251=VECTOR('',#420,1.);
#252=VECTOR('',#421,1.);
#253=VECTOR('',#422,1.);
#254=VECTOR('',#425,1.);
#255=VECTOR('',#426,1.);
#256=VECTOR('',#427,1.);
#257=VECTOR('',#430,1.);
#258=VECTOR('',#431,1.);
#259=VECTOR('',#432,1.);
#260=VECTOR('',#435,1.);
#261=VECTOR('',#436,1.);
#262=VECTOR('',#437,1.);
#263=VECTOR('',#440,1.);
#264=VECTOR('',#441,1.);
#265=VECTOR('',#442,1.);
#266=VECTOR('',#445,1.);
#267=VECTOR('',#446,1.);
#268=VECTOR('',#447,1.);
#269=VECTOR('',#450,1.);
#270=VECTOR('',#451,1.);
#271=VECTOR('',#452,1.);
#272=VECTOR('',#455,1.);
#273=VECTOR('',#456,1.);
#274=VECTOR('',#457,1.);
#275=VECTOR('',#460,1.);
#276=VECTOR('',#461,1.);
#277=VECTOR('',#462,1.);
#278=VECTOR('',#465,1.);
#279=VECTOR('',#466,1.);
#280=VECTOR('',#467,1.);
#281=VECTOR('',#470,1.);
#282=VECTOR('',#471,1.);
#283=VECTOR('',#472,1.);
#284=VECTOR('',#475,1.);
#285=VECTOR('',#476,1.);
#286=VECTOR('',#477,1.);
#287=VECTOR('',#480,1.);
#288=VECTOR('',#481,1.);
#289=VECTOR('',#482,1.);
#290=VECTOR('',#485,1.);
#291=VECTOR('',#486,1.);
#292=VECTOR('',#487,1.);
#293=VECTOR('',#490,1.);
#294=VECTOR('',#491,1.);
#295=EDGE_LOOP('',(#15,#16,#17,#18));
#296=EDGE_LOOP('',(#19,#20,#21,#22));
#297=EDGE_LOOP('',(#23,#24,#25,#26));
#298=EDGE_LOOP('',(#27,#28,#29,#30));
#299=EDGE_LOOP('',(#31,#32,#33,#34));
#300=EDGE_LOOP('',(#35,#36,#37,#38));
#301=EDGE_LOOP('',(#39,#40,#41,#42));
#302=EDGE_LOOP('',(#43,#44,#45,#46));
#303=EDGE_LOOP('',(#47,#48,#49,#50));
#304=EDGE_LOOP('',(#51,#52,#53,#54));
#305=EDGE_LOOP('',(#55,#56,#57,#58));
#306=EDGE_LOOP('',(#59,#60,#61,#62));
#307=EDGE_LOOP('',(#63,#64,#65,#66));
#308=EDGE_LOOP('',(#67,#68,#69,#70));
#309=EDGE_LOOP('',(#71,#72,#73,#74));
#310=EDGE_LOOP('',(#75,#76,#77,#78));
#311=EDGE_LOOP('',(#79));
#312=EDGE_LOOP('',(#80));
#313=EDGE_LOOP('',(#81,#82,#83,#84,#85,#86,#87,#88,#89,#90,#91,#92,#93,
#94,#95,#96));
#314=EDGE_LOOP('',(#97));
#315=EDGE_LOOP('',(#98,#99,#100,#101,#102,#103,#104,#105,#106,#107,#108,
#109,#110,#111,#112,#113));
#316=EDGE_LOOP('',(#114));
#317=FACE_BOUND('',#295,.T.);
#318=FACE_BOUND('',#296,.T.);
#319=FACE_BOUND('',#297,.T.);
#320=FACE_BOUND('',#298,.T.);
#321=FACE_BOUND('',#299,.T.);
#322=FACE_BOUND('',#300,.T.);
#323=FACE_BOUND('',#301,.T.);
#324=FACE_BOUND('',#302,.T.);
#325=FACE_BOUND('',#303,.T.);
#326=FACE_BOUND('',#304,.T.);
#327=FACE_BOUND('',#305,.T.);
#328=FACE_BOUND('',#306,.T.);
#329=FACE_BOUND('',#307,.T.);
#330=FACE_BOUND('',#308,.T.);
#331=FACE_BOUND('',#309,.T.);
#332=FACE_BOUND('',#310,.T.);
#333=FACE_BOUND('',#311,.T.);
#334=FACE_BOUND('',#312,.T.);
#335=FACE_BOUND('',#313,.T.);
#336=FACE_BOUND('',#314,.T.);
#337=FACE_BOUND('',#315,.T.);
#338=FACE_BOUND('',#316,.T.);
#339=PLANE('',#389);
#340=PLANE('',#390);
#341=PLANE('',#391);
#342=PLANE('',#392);
#343=PLANE('',#393);
#344=PLANE('',#394);
#345=PLANE('',#395);
#346=PLANE('',#396);
#347=PLANE('',#397);
#348=PLANE('',#398);
#349=PLANE('',#399);
#350=PLANE('',#400);
#351=PLANE('',#401);
#352=PLANE('',#402);
#353=PLANE('',#403);
#354=PLANE('',#404);
#355=PLANE('',#408);
#356=PLANE('',#409);
#357=ADVANCED_FACE('',(#317),#339,.T.);
#358=ADVANCED_FACE('',(#318),#340,.T.);
#359=ADVANCED_FACE('',(#319),#341,.T.);
#360=ADVANCED_FACE('',(#320),#342,.F.);
#361=ADVANCED_FACE('',(#321),#343,.F.);
#362=ADVANCED_FACE('',(#322),#344,.F.);
#363=ADVANCED_FACE('',(#323),#345,.F.);
#364=ADVANCED_FACE('',(#324),#346,.F.);
#365=ADVANCED_FACE('',(#325),#347,.F.);
#366=ADVANCED_FACE('',(#326),#348,.F.);
#367=ADVANCED_FACE('',(#327),#349,.F.);
#368=ADVANCED_FACE('',(#328),#350,.F.);
#369=ADVANCED_FACE('',(#329),#351,.F.);
#370=ADVANCED_FACE('',(#330),#352,.F.);
#371=ADVANCED_FACE('',(#331),#353,.F.);
#372=ADVANCED_FACE('',(#332),#354,.F.);
#373=ADVANCED_FACE('',(#333,#334),#14,.F.);
#374=ADVANCED_FACE('',(#335,#336),#355,.T.);
#375=ADVANCED_FACE('',(#337,#338),#356,.F.);
#376=CLOSED_SHELL('',(#357,#358,#359,#360,#361,#362,#363,#364,#365,#366,
#367,#368,#369,#370,#371,#372,#373,#374,#375));
#377=STYLED_ITEM('',(#378),#385);
#378=PRESENTATION_STYLE_ASSIGNMENT((#379));
#379=SURFACE_STYLE_USAGE(.BOTH.,#380);
#380=SURFACE_SIDE_STYLE('',(#381));
#381=SURFACE_STYLE_FILL_AREA(#382);
#382=FILL_AREA_STYLE('',(#383));
#383=FILL_AREA_STYLE_COLOUR('',#384);
#384=COLOUR_RGB('',0.227450980392157,0.227450980392157,0.227450980392157);
#385=MANIFOLD_SOLID_BREP('Control Horn',#376);
#386=SHAPE_DEFINITION_REPRESENTATION(#612,#387);
#387=SHAPE_REPRESENTATION('Control Horn',(#388),#607);
#388=AXIS2_PLACEMENT_3D('',#502,#410,#411);
#389=AXIS2_PLACEMENT_3D('',#503,#412,#413);
#390=AXIS2_PLACEMENT_3D('',#512,#418,#419);
#391=AXIS2_PLACEMENT_3D('',#518,#423,#424);
#392=AXIS2_PLACEMENT_3D('',#524,#428,#429);
#393=AXIS2_PLACEMENT_3D('',#530,#433,#434);
#394=AXIS2_PLACEMENT_3D('',#536,#438,#439);
#395=AXIS2_PLACEMENT_3D('',#542,#443,#444);
#396=AXIS2_PLACEMENT_3D('',#548,#448,#449);
#397=AXIS2_PLACEMENT_3D('',#554,#453,#454);
#398=AXIS2_PLACEMENT_3D('',#560,#458,#459);
#399=AXIS2_PLACEMENT_3D('',#566,#463,#464);
#400=AXIS2_PLACEMENT_3D('',#572,#468,#469);
#401=AXIS2_PLACEMENT_3D('',#578,#473,#474);
#402=AXIS2_PLACEMENT_3D('',#584,#478,#479);
#403=AXIS2_PLACEMENT_3D('',#590,#483,#484);
#404=AXIS2_PLACEMENT_3D('',#596,#488,#489);
#405=AXIS2_PLACEMENT_3D('',#599,#492,#493);
#406=AXIS2_PLACEMENT_3D('',#600,#494,#495);
#407=AXIS2_PLACEMENT_3D('',#602,#496,#497);
#408=AXIS2_PLACEMENT_3D('',#604,#498,#499);
#409=AXIS2_PLACEMENT_3D('',#605,#500,#501);
#410=DIRECTION('',(0.,0.,1.));
#411=DIRECTION('',(1.,0.,0.));
#412=DIRECTION('',(0.,-0.52999894000318,-0.847998304005088));
#413=DIRECTION('',(0.,0.847998304005088,-0.52999894000318));
#414=DIRECTION('',(0.,-0.847998304005088,0.52999894000318));
#415=DIRECTION('',(-1.,0.,0.));
#416=DIRECTION('',(0.,-0.847998304005088,0.52999894000318));
#417=DIRECTION('',(-1.,0.,0.));
#418=DIRECTION('',(0.,1.22464679914735E-16,-1.));
#419=DIRECTION('',(0.,1.,1.22464679914735E-16));
#420=DIRECTION('',(0.,-1.,-1.22464679914735E-16));
#421=DIRECTION('',(-1.,0.,0.));
#422=DIRECTION('',(0.,-1.,-1.22464679914735E-16));
#423=DIRECTION('',(0.,-1.,0.));
#424=DIRECTION('',(0.,0.,-1.));
#425=DIRECTION('',(0.,0.,1.));
#426=DIRECTION('',(-1.,0.,0.));
#427=DIRECTION('',(0.,0.,1.));
#428=DIRECTION('',(0.,0.936329177569045,0.351123441588391));
#429=DIRECTION('',(0.,-0.351123441588391,0.936329177569045));
#430=DIRECTION('',(0.,0.351123441588391,-0.936329177569045));
#431=DIRECTION('',(-1.,0.,0.));
#432=DIRECTION('',(0.,0.351123441588391,-0.936329177569045));
#433=DIRECTION('',(0.,0.,1.));
#434=DIRECTION('',(1.,0.,0.));
#435=DIRECTION('',(0.,1.,0.));
#436=DIRECTION('',(-1.,0.,0.));
#437=DIRECTION('',(0.,1.,0.));
#438=DIRECTION('',(0.,-0.936329177569045,0.351123441588391));
#439=DIRECTION('',(0.,-0.351123441588391,-0.936329177569045));
#440=DIRECTION('',(0.,0.351123441588391,0.936329177569045));
#441=DIRECTION('',(-1.,0.,0.));
#442=DIRECTION('',(0.,0.351123441588391,0.936329177569045));
#443=DIRECTION('',(0.,2.16840434497101E-16,1.));
#444=DIRECTION('',(0.,-1.,2.16840434497101E-16));
#445=DIRECTION('',(0.,1.,-2.16840434497101E-16));
#446=DIRECTION('',(-1.,0.,0.));
#447=DIRECTION('',(0.,1.,-2.16840434497101E-16));
#448=DIRECTION('',(0.,0.936329177569045,0.351123441588391));
#449=DIRECTION('',(0.,-0.351123441588391,0.936329177569045));
#450=DIRECTION('',(0.,0.351123441588391,-0.936329177569045));
#451=DIRECTION('',(-1.,0.,0.));
#452=DIRECTION('',(0.,0.351123441588391,-0.936329177569045));
#453=DIRECTION('',(0.,0.,1.));
#454=DIRECTION('',(1.,0.,0.));
#455=DIRECTION('',(0.,1.,0.));
#456=DIRECTION('',(-1.,0.,0.));
#457=DIRECTION('',(0.,1.,0.));
#458=DIRECTION('',(0.,-0.936329177569045,0.351123441588391));
#459=DIRECTION('',(0.,-0.351123441588391,-0.936329177569045));
#460=DIRECTION('',(0.,0.351123441588391,0.936329177569045));
#461=DIRECTION('',(-1.,0.,0.));
#462=DIRECTION('',(0.,0.351123441588391,0.936329177569045));
#463=DIRECTION('',(0.,-1.,0.));
#464=DIRECTION('',(0.,0.,-1.));
#465=DIRECTION('',(0.,0.,1.));
#466=DIRECTION('',(-1.,0.,0.));
#467=DIRECTION('',(0.,0.,1.));
#468=DIRECTION('',(0.,0.,1.));
#469=DIRECTION('',(1.,0.,0.));
#470=DIRECTION('',(0.,1.,0.));
#471=DIRECTION('',(-1.,0.,0.));
#472=DIRECTION('',(0.,1.,0.));
#473=DIRECTION('',(0.,-1.,0.));
#474=DIRECTION('',(0.,0.,-1.));
#475=DIRECTION('',(0.,0.,1.));
#476=DIRECTION('',(-1.,0.,0.));
#477=DIRECTION('',(0.,0.,1.));
#478=DIRECTION('',(0.,-0.384615384615385,-0.923076923076923));
#479=DIRECTION('',(0.,0.923076923076923,-0.384615384615385));
#480=DIRECTION('',(0.,-0.923076923076923,0.384615384615385));
#481=DIRECTION('',(-1.,0.,0.));
#482=DIRECTION('',(0.,-0.923076923076923,0.384615384615385));
#483=DIRECTION('',(0.,0.,-1.));
#484=DIRECTION('',(-1.,0.,0.));
#485=DIRECTION('',(0.,-1.,0.));
#486=DIRECTION('',(-1.,0.,0.));
#487=DIRECTION('',(0.,-1.,0.));
#488=DIRECTION('',(0.,1.,0.));
#489=DIRECTION('',(0.,0.,1.));
#490=DIRECTION('',(0.,0.,-1.));
#491=DIRECTION('',(0.,0.,-1.));
#492=DIRECTION('',(-1.,0.,0.));
#493=DIRECTION('',(0.,0.,1.));
#494=DIRECTION('',(1.,0.,0.));
#495=DIRECTION('',(0.,0.,-1.));
#496=DIRECTION('',(1.,0.,0.));
#497=DIRECTION('',(0.,0.,-1.));
#498=DIRECTION('',(1.,0.,0.));
#499=DIRECTION('',(0.,1.,0.));
#500=DIRECTION('',(1.,0.,0.));
#501=DIRECTION('',(0.,1.,0.));
#502=CARTESIAN_POINT('',(0.,0.,0.));
#503=CARTESIAN_POINT('',(0.0014,-0.036,0.0025));
#504=CARTESIAN_POINT('',(0.,-0.036,0.0025));
#505=CARTESIAN_POINT('',(0.,-0.032,-6.5322732531872E-19));
#506=CARTESIAN_POINT('',(0.,-0.04,0.005));
#507=CARTESIAN_POINT('',(0.0014,-0.032,-6.5322732531872E-19));
#508=CARTESIAN_POINT('',(0.0014,-0.032,-6.5322732531872E-19));
#509=CARTESIAN_POINT('',(0.0014,-0.036,0.0025));
#510=CARTESIAN_POINT('',(0.0014,-0.04,0.005));
#511=CARTESIAN_POINT('',(0.0014,-0.04,0.005));
#512=CARTESIAN_POINT('',(0.0014,-0.03,-4.0829796548925E-19));
#513=CARTESIAN_POINT('',(0.,-0.03,-4.0829796548925E-19));
#514=CARTESIAN_POINT('',(0.,-0.028,0.));
#515=CARTESIAN_POINT('',(0.0014,-0.028,0.));
#516=CARTESIAN_POINT('',(0.0014,-0.028,0.));
#517=CARTESIAN_POINT('',(0.0014,-0.03,-4.0829796548925E-19));
#518=CARTESIAN_POINT('',(0.0014,-0.028,-0.001));
#519=CARTESIAN_POINT('',(0.,-0.028,-0.001));
#520=CARTESIAN_POINT('',(0.,-0.028,-0.002));
#521=CARTESIAN_POINT('',(0.0014,-0.028,-0.002));
#522=CARTESIAN_POINT('',(0.0014,-0.028,-0.002));
#523=CARTESIAN_POINT('',(0.0014,-0.028,-0.001));
#524=CARTESIAN_POINT('',(0.0014,-0.02725,-0.004));
#525=CARTESIAN_POINT('',(0.,-0.02725,-0.004));
#526=CARTESIAN_POINT('',(0.,-0.0265,-0.006));
#527=CARTESIAN_POINT('',(0.0014,-0.0265,-0.006));
#528=CARTESIAN_POINT('',(0.0014,-0.0265,-0.006));
#529=CARTESIAN_POINT('',(0.0014,-0.02725,-0.004));
#530=CARTESIAN_POINT('',(0.0014,-0.023,-0.006));
#531=CARTESIAN_POINT('',(0.,-0.023,-0.006));
#532=CARTESIAN_POINT('',(0.,-0.0195,-0.006));
#533=CARTESIAN_POINT('',(0.0014,-0.0195,-0.006));
#534=CARTESIAN_POINT('',(0.0014,-0.0195,-0.006));
#535=CARTESIAN_POINT('',(0.0014,-0.023,-0.006));
#536=CARTESIAN_POINT('',(0.0014,-0.01875,-0.004));
#537=CARTESIAN_POINT('',(0.,-0.01875,-0.004));
#538=CARTESIAN_POINT('',(0.,-0.018,-0.002));
#539=CARTESIAN_POINT('',(0.0014,-0.018,-0.002));
#540=CARTESIAN_POINT('',(0.0014,-0.018,-0.002));
#541=CARTESIAN_POINT('',(0.0014,-0.01875,-0.004));
#542=CARTESIAN_POINT('',(0.0014,-0.015,-0.002));
#543=CARTESIAN_POINT('',(0.,-0.015,-0.002));
#544=CARTESIAN_POINT('',(0.,-0.012,-0.002));
#545=CARTESIAN_POINT('',(0.0014,-0.012,-0.002));
#546=CARTESIAN_POINT('',(0.0014,-0.012,-0.002));
#547=CARTESIAN_POINT('',(0.0014,-0.015,-0.002));
#548=CARTESIAN_POINT('',(0.0014,-0.01125,-0.004));
#549=CARTESIAN_POINT('',(0.,-0.01125,-0.004));
#550=CARTESIAN_POINT('',(0.,-0.0105,-0.006));
#551=CARTESIAN_POINT('',(0.0014,-0.0105,-0.006));
#552=CARTESIAN_POINT('',(0.0014,-0.0105,-0.006));
#553=CARTESIAN_POINT('',(0.0014,-0.01125,-0.004));
#554=CARTESIAN_POINT('',(0.0014,-0.007,-0.006));
#555=CARTESIAN_POINT('',(0.,-0.007,-0.006));
#556=CARTESIAN_POINT('',(0.,-0.0035,-0.006));
#557=CARTESIAN_POINT('',(0.0014,-0.0035,-0.006));
#558=CARTESIAN_POINT('',(0.0014,-0.0035,-0.006));
#559=CARTESIAN_POINT('',(0.0014,-0.007,-0.006));
#560=CARTESIAN_POINT('',(0.0014,-0.00275,-0.004));
#561=CARTESIAN_POINT('',(0.,-0.00275,-0.004));
#562=CARTESIAN_POINT('',(0.,-0.002,-0.002));
#563=CARTESIAN_POINT('',(0.0014,-0.002,-0.002));
#564=CARTESIAN_POINT('',(0.0014,-0.002,-0.002));
#565=CARTESIAN_POINT('',(0.0014,-0.00275,-0.004));
#566=CARTESIAN_POINT('',(0.0014,-0.002,-0.001));
#567=CARTESIAN_POINT('',(0.,-0.002,-0.001));
#568=CARTESIAN_POINT('',(0.,-0.002,0.));
#569=CARTESIAN_POINT('',(0.0014,-0.002,0.));
#570=CARTESIAN_POINT('',(0.0014,-0.002,0.));
#571=CARTESIAN_POINT('',(0.0014,-0.002,-0.001));
#572=CARTESIAN_POINT('',(0.0014,-0.001,0.));
#573=CARTESIAN_POINT('',(0.,-0.001,0.));
#574=CARTESIAN_POINT('',(0.,0.,0.));
#575=CARTESIAN_POINT('',(0.0014,0.,0.));
#576=CARTESIAN_POINT('',(0.0014,0.,0.));
#577=CARTESIAN_POINT('',(0.0014,-0.001,0.));
#578=CARTESIAN_POINT('',(0.0014,0.,0.001));
#579=CARTESIAN_POINT('',(0.,0.,0.001));
#580=CARTESIAN_POINT('',(0.,0.,0.002));
#581=CARTESIAN_POINT('',(0.0014,0.,0.002));
#582=CARTESIAN_POINT('',(0.0014,0.,0.002));
#583=CARTESIAN_POINT('',(0.0014,0.,0.001));
#584=CARTESIAN_POINT('',(0.0014,-0.018,0.0095));
#585=CARTESIAN_POINT('',(0.,-0.018,0.0095));
#586=CARTESIAN_POINT('',(0.,-0.036,0.017));
#587=CARTESIAN_POINT('',(0.0014,-0.036,0.017));
#588=CARTESIAN_POINT('',(0.0014,-0.036,0.017));
#589=CARTESIAN_POINT('',(0.0014,-0.018,0.0095));
#590=CARTESIAN_POINT('',(0.0014,-0.038,0.017));
#591=CARTESIAN_POINT('',(0.,-0.038,0.017));
#592=CARTESIAN_POINT('',(0.,-0.04,0.017));
#593=CARTESIAN_POINT('',(0.0014,-0.04,0.017));
#594=CARTESIAN_POINT('',(0.0014,-0.04,0.017));
#595=CARTESIAN_POINT('',(0.0014,-0.038,0.017));
#596=CARTESIAN_POINT('',(0.0014,-0.04,0.011));
#597=CARTESIAN_POINT('',(0.,-0.04,0.011));
#598=CARTESIAN_POINT('',(0.0014,-0.04,0.011));
#599=CARTESIAN_POINT('',(0.0014,-0.037,0.014));
#600=CARTESIAN_POINT('',(0.0014,-0.037,0.014));
#601=CARTESIAN_POINT('',(0.0014,-0.037,0.013));
#602=CARTESIAN_POINT('',(0.,-0.037,0.014));
#603=CARTESIAN_POINT('',(0.,-0.037,0.013));
#604=CARTESIAN_POINT('',(0.0014,-0.02,0.0055));
#605=CARTESIAN_POINT('',(0.,-0.02,0.0055));
#606=MECHANICAL_DESIGN_GEOMETRIC_PRESENTATION_REPRESENTATION('',(#377),
#607);
#607=(
GEOMETRIC_REPRESENTATION_CONTEXT(3)
GLOBAL_UNCERTAINTY_ASSIGNED_CONTEXT((#608))
GLOBAL_UNIT_ASSIGNED_CONTEXT((#611,#610,#609))
REPRESENTATION_CONTEXT('Control Horn','TOP_LEVEL_ASSEMBLY_PART')
);
#608=UNCERTAINTY_MEASURE_WITH_UNIT(LENGTH_MEASURE(1.E-8),#611,
'DISTANCE_ACCURACY_VALUE','Maximum Tolerance applied to model');
#609=(
NAMED_UNIT(*)
SI_UNIT($,.STERADIAN.)
SOLID_ANGLE_UNIT()
);
#610=(
NAMED_UNIT(*)
PLANE_ANGLE_UNIT()
SI_UNIT($,.RADIAN.)
);
#611=(
LENGTH_UNIT()
NAMED_UNIT(*)
SI_UNIT($,.METRE.)
);
#612=PRODUCT_DEFINITION_SHAPE('','',#613);
#613=PRODUCT_DEFINITION('','',#615,#614);
#614=PRODUCT_DEFINITION_CONTEXT('',#621,'design');
#615=PRODUCT_DEFINITION_FORMATION_WITH_SPECIFIED_SOURCE('','',#617,
 .NOT_KNOWN.);
#616=PRODUCT_RELATED_PRODUCT_CATEGORY('','',(#617));
#617=PRODUCT('Control Horn','Control Horn','Control Horn',(#619));
#618=PRODUCT_CATEGORY('','');
#619=PRODUCT_CONTEXT('',#621,'mechanical');
#620=APPLICATION_PROTOCOL_DEFINITION('international standard',
'ap242_managed_model_based_3d_engineering',2020,#621);
#621=APPLICATION_CONTEXT('managed model based 3d engineering');
ENDSEC;
END-ISO-10303-21;
