ISO-10303-21;
HEADER;
/* Generated by software containing ST-Developer
 * from STEP Tools, Inc. (www.steptools.com) 
 */
/* OPTION: using custom renumber hook */

FILE_DESCRIPTION(
/* description */ ('STEP AP242 Edition 2',
'CAx-IF Rec.Pracs.---Representation and Presentation of Product Manufa
cturing Information (PMI)---4.0---2014-10-13',
'CAx-IF Rec.Pracs.---3D Tessellated Geometry---0.4---2014-09-14','2;1',
'CAx-IF Rec.Pracs.---User Defined Attributes---1.5---2016-08-15'),
/* implementation_level */ '2;1');

FILE_NAME(
/* name */ 'Elevator and Rudder - Elevator and Rudder',
/* time_stamp */ '2026-08-24T02:45:01Z',
/* author */ (''),
/* organization */ (''),
/* preprocessor_version */ 'ST-DEVELOPER v20',
/* originating_system */ 'ONSHAPE BY PTC INC, 1.219',
/* authorisation */ '  ');

FILE_SCHEMA (('AP242_MANAGED_MODEL_BASED_3D_ENGINEERING_MIM_LF { 1 0 10303 442 3 1 4 }'));
ENDSEC;

DATA;
#10=SHAPE_REPRESENTATION_RELATIONSHIP('','',#452,#11);
#11=ADVANCED_BREP_SHAPE_REPRESENTATION('',(#450),#713);
#12=CYLINDRICAL_SURFACE('',#472,0.00635);
#13=CIRCLE('',#462,0.00635);
#14=CIRCLE('',#473,0.00635);
#15=ORIENTED_EDGE('',*,*,#135,.F.);
#16=ORIENTED_EDGE('',*,*,#136,.T.);
#17=ORIENTED_EDGE('',*,*,#137,.T.);
#18=ORIENTED_EDGE('',*,*,#138,.T.);
#19=ORIENTED_EDGE('',*,*,#139,.T.);
#20=ORIENTED_EDGE('',*,*,#140,.T.);
#21=ORIENTED_EDGE('',*,*,#141,.T.);
#22=ORIENTED_EDGE('',*,*,#142,.T.);
#23=ORIENTED_EDGE('',*,*,#143,.T.);
#24=ORIENTED_EDGE('',*,*,#144,.T.);
#25=ORIENTED_EDGE('',*,*,#145,.T.);
#26=ORIENTED_EDGE('',*,*,#146,.T.);
#27=ORIENTED_EDGE('',*,*,#147,.T.);
#28=ORIENTED_EDGE('',*,*,#148,.F.);
#29=ORIENTED_EDGE('',*,*,#149,.F.);
#30=ORIENTED_EDGE('',*,*,#150,.F.);
#31=ORIENTED_EDGE('',*,*,#151,.T.);
#32=ORIENTED_EDGE('',*,*,#152,.T.);
#33=ORIENTED_EDGE('',*,*,#153,.F.);
#34=ORIENTED_EDGE('',*,*,#154,.F.);
#35=ORIENTED_EDGE('',*,*,#155,.F.);
#36=ORIENTED_EDGE('',*,*,#156,.F.);
#37=ORIENTED_EDGE('',*,*,#157,.F.);
#38=ORIENTED_EDGE('',*,*,#158,.F.);
#39=ORIENTED_EDGE('',*,*,#159,.F.);
#40=ORIENTED_EDGE('',*,*,#160,.F.);
#41=ORIENTED_EDGE('',*,*,#161,.F.);
#42=ORIENTED_EDGE('',*,*,#162,.F.);
#43=ORIENTED_EDGE('',*,*,#163,.T.);
#44=ORIENTED_EDGE('',*,*,#159,.T.);
#45=ORIENTED_EDGE('',*,*,#164,.F.);
#46=ORIENTED_EDGE('',*,*,#142,.F.);
#47=ORIENTED_EDGE('',*,*,#165,.T.);
#48=ORIENTED_EDGE('',*,*,#141,.F.);
#49=ORIENTED_EDGE('',*,*,#166,.T.);
#50=ORIENTED_EDGE('',*,*,#167,.T.);
#51=ORIENTED_EDGE('',*,*,#143,.F.);
#52=ORIENTED_EDGE('',*,*,#168,.T.);
#53=ORIENTED_EDGE('',*,*,#160,.T.);
#54=ORIENTED_EDGE('',*,*,#165,.F.);
#55=ORIENTED_EDGE('',*,*,#161,.T.);
#56=ORIENTED_EDGE('',*,*,#168,.F.);
#57=ORIENTED_EDGE('',*,*,#152,.F.);
#58=ORIENTED_EDGE('',*,*,#169,.T.);
#59=ORIENTED_EDGE('',*,*,#170,.F.);
#60=ORIENTED_EDGE('',*,*,#147,.F.);
#61=ORIENTED_EDGE('',*,*,#171,.T.);
#62=ORIENTED_EDGE('',*,*,#156,.T.);
#63=ORIENTED_EDGE('',*,*,#172,.T.);
#64=ORIENTED_EDGE('',*,*,#162,.T.);
#65=ORIENTED_EDGE('',*,*,#169,.F.);
#66=ORIENTED_EDGE('',*,*,#151,.F.);
#67=ORIENTED_EDGE('',*,*,#157,.T.);
#68=ORIENTED_EDGE('',*,*,#171,.F.);
#69=ORIENTED_EDGE('',*,*,#146,.F.);
#70=ORIENTED_EDGE('',*,*,#173,.T.);
#71=ORIENTED_EDGE('',*,*,#174,.T.);
#72=ORIENTED_EDGE('',*,*,#175,.T.);
#73=ORIENTED_EDGE('',*,*,#139,.F.);
#74=ORIENTED_EDGE('',*,*,#164,.T.);
#75=ORIENTED_EDGE('',*,*,#158,.T.);
#76=ORIENTED_EDGE('',*,*,#173,.F.);
#77=ORIENTED_EDGE('',*,*,#145,.F.);
#78=ORIENTED_EDGE('',*,*,#136,.F.);
#79=ORIENTED_EDGE('',*,*,#176,.T.);
#80=ORIENTED_EDGE('',*,*,#153,.T.);
#81=ORIENTED_EDGE('',*,*,#177,.T.);
#82=ORIENTED_EDGE('',*,*,#178,.F.);
#83=ORIENTED_EDGE('',*,*,#179,.T.);
#84=ORIENTED_EDGE('',*,*,#180,.F.);
#85=ORIENTED_EDGE('',*,*,#137,.F.);
#86=ORIENTED_EDGE('',*,*,#178,.T.);
#87=ORIENTED_EDGE('',*,*,#181,.T.);
#88=ORIENTED_EDGE('',*,*,#182,.T.);
#89=ORIENTED_EDGE('',*,*,#138,.F.);
#90=ORIENTED_EDGE('',*,*,#180,.T.);
#91=ORIENTED_EDGE('',*,*,#183,.T.);
#92=ORIENTED_EDGE('',*,*,#184,.F.);
#93=ORIENTED_EDGE('',*,*,#185,.F.);
#94=ORIENTED_EDGE('',*,*,#186,.T.);
#95=ORIENTED_EDGE('',*,*,#187,.F.);
#96=ORIENTED_EDGE('',*,*,#188,.F.);
#97=ORIENTED_EDGE('',*,*,#184,.T.);
#98=ORIENTED_EDGE('',*,*,#172,.F.);
#99=ORIENTED_EDGE('',*,*,#189,.F.);
#100=ORIENTED_EDGE('',*,*,#187,.T.);
#101=ORIENTED_EDGE('',*,*,#190,.T.);
#102=ORIENTED_EDGE('',*,*,#191,.F.);
#103=ORIENTED_EDGE('',*,*,#185,.T.);
#104=ORIENTED_EDGE('',*,*,#188,.T.);
#105=ORIENTED_EDGE('',*,*,#189,.T.);
#106=ORIENTED_EDGE('',*,*,#155,.T.);
#107=ORIENTED_EDGE('',*,*,#177,.F.);
#108=ORIENTED_EDGE('',*,*,#163,.F.);
#109=ORIENTED_EDGE('',*,*,#190,.F.);
#110=ORIENTED_EDGE('',*,*,#186,.F.);
#111=ORIENTED_EDGE('',*,*,#183,.F.);
#112=ORIENTED_EDGE('',*,*,#179,.F.);
#113=ORIENTED_EDGE('',*,*,#148,.T.);
#114=ORIENTED_EDGE('',*,*,#170,.T.);
#115=ORIENTED_EDGE('',*,*,#150,.T.);
#116=ORIENTED_EDGE('',*,*,#192,.F.);
#117=ORIENTED_EDGE('',*,*,#149,.T.);
#118=ORIENTED_EDGE('',*,*,#192,.T.);
#119=ORIENTED_EDGE('',*,*,#140,.F.);
#120=ORIENTED_EDGE('',*,*,#175,.F.);
#121=ORIENTED_EDGE('',*,*,#193,.F.);
#122=ORIENTED_EDGE('',*,*,#166,.F.);
#123=ORIENTED_EDGE('',*,*,#193,.T.);
#124=ORIENTED_EDGE('',*,*,#174,.F.);
#125=ORIENTED_EDGE('',*,*,#144,.F.);
#126=ORIENTED_EDGE('',*,*,#167,.F.);
#127=ORIENTED_EDGE('',*,*,#135,.T.);
#128=ORIENTED_EDGE('',*,*,#182,.F.);
#129=ORIENTED_EDGE('',*,*,#194,.T.);
#130=ORIENTED_EDGE('',*,*,#176,.F.);
#131=ORIENTED_EDGE('',*,*,#191,.T.);
#132=ORIENTED_EDGE('',*,*,#154,.T.);
#133=ORIENTED_EDGE('',*,*,#194,.F.);
#134=ORIENTED_EDGE('',*,*,#181,.F.);
#135=EDGE_CURVE('',#195,#196,#234,.T.);
#136=EDGE_CURVE('',#195,#197,#235,.T.);
#137=EDGE_CURVE('',#197,#198,#236,.T.);
#138=EDGE_CURVE('',#198,#196,#237,.T.);
#139=EDGE_CURVE('',#199,#200,#238,.T.);
#140=EDGE_CURVE('',#200,#201,#239,.T.);
#141=EDGE_CURVE('',#201,#202,#240,.T.);
#142=EDGE_CURVE('',#202,#199,#241,.T.);
#143=EDGE_CURVE('',#203,#204,#242,.T.);
#144=EDGE_CURVE('',#204,#205,#243,.T.);
#145=EDGE_CURVE('',#205,#206,#244,.T.);
#146=EDGE_CURVE('',#206,#207,#245,.T.);
#147=EDGE_CURVE('',#207,#208,#246,.T.);
#148=EDGE_CURVE('',#209,#208,#247,.F.);
#149=EDGE_CURVE('',#210,#209,#248,.T.);
#150=EDGE_CURVE('',#211,#210,#249,.T.);
#151=EDGE_CURVE('',#211,#212,#250,.T.);
#152=EDGE_CURVE('',#212,#203,#251,.T.);
#153=EDGE_CURVE('',#213,#214,#252,.T.);
#154=EDGE_CURVE('',#215,#213,#253,.T.);
#155=EDGE_CURVE('',#216,#215,#254,.T.);
#156=EDGE_CURVE('',#217,#216,#255,.T.);
#157=EDGE_CURVE('',#218,#217,#256,.T.);
#158=EDGE_CURVE('',#219,#218,#257,.T.);
#159=EDGE_CURVE('',#220,#219,#258,.T.);
#160=EDGE_CURVE('',#221,#220,#259,.T.);
#161=EDGE_CURVE('',#222,#221,#260,.T.);
#162=EDGE_CURVE('',#223,#222,#261,.T.);
#163=EDGE_CURVE('',#223,#214,#262,.T.);
#164=EDGE_CURVE('',#199,#219,#263,.T.);
#165=EDGE_CURVE('',#202,#220,#264,.T.);
#166=EDGE_CURVE('',#201,#224,#265,.T.);
#167=EDGE_CURVE('',#224,#204,#266,.T.);
#168=EDGE_CURVE('',#203,#221,#267,.T.);
#169=EDGE_CURVE('',#212,#222,#268,.T.);
#170=EDGE_CURVE('',#208,#211,#13,.F.);
#171=EDGE_CURVE('',#207,#217,#269,.T.);
#172=EDGE_CURVE('',#216,#223,#270,.T.);
#173=EDGE_CURVE('',#206,#218,#271,.T.);
#174=EDGE_CURVE('',#205,#225,#272,.T.);
#175=EDGE_CURVE('',#225,#200,#273,.T.);
#176=EDGE_CURVE('',#195,#213,#274,.T.);
#177=EDGE_CURVE('',#214,#226,#275,.T.);
#178=EDGE_CURVE('',#197,#226,#276,.T.);
#179=EDGE_CURVE('',#226,#227,#277,.T.);
#180=EDGE_CURVE('',#198,#227,#278,.T.);
#181=EDGE_CURVE('',#228,#229,#279,.T.);
#182=EDGE_CURVE('',#229,#196,#280,.T.);
#183=EDGE_CURVE('',#227,#230,#281,.T.);
#184=EDGE_CURVE('',#231,#230,#282,.T.);
#185=EDGE_CURVE('',#228,#231,#283,.T.);
#186=EDGE_CURVE('',#230,#232,#284,.T.);
#187=EDGE_CURVE('',#233,#232,#285,.T.);
#188=EDGE_CURVE('',#231,#233,#286,.T.);
#189=EDGE_CURVE('',#233,#216,#287,.T.);
#190=EDGE_CURVE('',#232,#223,#288,.T.);
#191=EDGE_CURVE('',#228,#215,#289,.T.);
#192=EDGE_CURVE('',#209,#210,#14,.T.);
#193=EDGE_CURVE('',#224,#225,#290,.T.);
#194=EDGE_CURVE('',#229,#213,#291,.T.);
#195=VERTEX_POINT('',#592);
#196=VERTEX_POINT('',#593);
#197=VERTEX_POINT('',#595);
#198=VERTEX_POINT('',#597);
#199=VERTEX_POINT('',#601);
#200=VERTEX_POINT('',#602);
#201=VERTEX_POINT('',#604);
#202=VERTEX_POINT('',#606);
#203=VERTEX_POINT('',#610);
#204=VERTEX_POINT('',#611);
#205=VERTEX_POINT('',#613);
#206=VERTEX_POINT('',#615);
#207=VERTEX_POINT('',#617);
#208=VERTEX_POINT('',#619);
#209=VERTEX_POINT('',#621);
#210=VERTEX_POINT('',#623);
#211=VERTEX_POINT('',#625);
#212=VERTEX_POINT('',#627);
#213=VERTEX_POINT('',#631);
#214=VERTEX_POINT('',#632);
#215=VERTEX_POINT('',#634);
#216=VERTEX_POINT('',#636);
#217=VERTEX_POINT('',#638);
#218=VERTEX_POINT('',#640);
#219=VERTEX_POINT('',#642);
#220=VERTEX_POINT('',#644);
#221=VERTEX_POINT('',#646);
#222=VERTEX_POINT('',#648);
#223=VERTEX_POINT('',#650);
#224=VERTEX_POINT('',#657);
#225=VERTEX_POINT('',#670);
#226=VERTEX_POINT('',#675);
#227=VERTEX_POINT('',#679);
#228=VERTEX_POINT('',#683);
#229=VERTEX_POINT('',#684);
#230=VERTEX_POINT('',#687);
#231=VERTEX_POINT('',#689);
#232=VERTEX_POINT('',#693);
#233=VERTEX_POINT('',#695);
#234=LINE('',#591,#292);
#235=LINE('',#594,#293);
#236=LINE('',#596,#294);
#237=LINE('',#598,#295);
#238=LINE('',#600,#296);
#239=LINE('',#603,#297);
#240=LINE('',#605,#298);
#241=LINE('',#607,#299);
#242=LINE('',#609,#300);
#243=LINE('',#612,#301);
#244=LINE('',#614,#302);
#245=LINE('',#616,#303);
#246=LINE('',#618,#304);
#247=LINE('',#620,#305);
#248=LINE('',#622,#306);
#249=LINE('',#624,#307);
#250=LINE('',#626,#308);
#251=LINE('',#628,#309);
#252=LINE('',#630,#310);
#253=LINE('',#633,#311);
#254=LINE('',#635,#312);
#255=LINE('',#637,#313);
#256=LINE('',#639,#314);
#257=LINE('',#641,#315);
#258=LINE('',#643,#316);
#259=LINE('',#645,#317);
#260=LINE('',#647,#318);
#261=LINE('',#649,#319);
#262=LINE('',#651,#320);
#263=LINE('',#653,#321);
#264=LINE('',#654,#322);
#265=LINE('',#656,#323);
#266=LINE('',#658,#324);
#267=LINE('',#659,#325);
#268=LINE('',#661,#326);
#269=LINE('',#664,#327);
#270=LINE('',#665,#328);
#271=LINE('',#667,#329);
#272=LINE('',#669,#330);
#273=LINE('',#671,#331);
#274=LINE('',#673,#332);
#275=LINE('',#674,#333);
#276=LINE('',#676,#334);
#277=LINE('',#678,#335);
#278=LINE('',#680,#336);
#279=LINE('',#682,#337);
#280=LINE('',#685,#338);
#281=LINE('',#686,#339);
#282=LINE('',#688,#340);
#283=LINE('',#690,#341);
#284=LINE('',#692,#342);
#285=LINE('',#694,#343);
#286=LINE('',#696,#344);
#287=LINE('',#698,#345);
#288=LINE('',#699,#346);
#289=LINE('',#701,#347);
#290=LINE('',#707,#348);
#291=LINE('',#710,#349);
#292=VECTOR('',#483,1.);
#293=VECTOR('',#484,1.);
#294=VECTOR('',#485,1.);
#295=VECTOR('',#486,1.);
#296=VECTOR('',#489,1.);
#297=VECTOR('',#490,1.);
#298=VECTOR('',#491,1.);
#299=VECTOR('',#492,1.);
#300=VECTOR('',#495,1.);
#301=VECTOR('',#496,1.);
#302=VECTOR('',#497,1.);
#303=VECTOR('',#498,1.);
#304=VECTOR('',#499,1.);
#305=VECTOR('',#500,1.);
#306=VECTOR('',#501,1.);
#307=VECTOR('',#502,1.);
#308=VECTOR('',#503,1.);
#309=VECTOR('',#504,1.);
#310=VECTOR('',#507,1.);
#311=VECTOR('',#508,1.);
#312=VECTOR('',#509,1.);
#313=VECTOR('',#510,1.);
#314=VECTOR('',#511,1.);
#315=VECTOR('',#512,1.);
#316=VECTOR('',#513,1.);
#317=VECTOR('',#514,1.);
#318=VECTOR('',#515,1.);
#319=VECTOR('',#516,1.);
#320=VECTOR('',#517,1.);
#321=VECTOR('',#520,1.);
#322=VECTOR('',#521,1.);
#323=VECTOR('',#524,1.);
#324=VECTOR('',#525,1.);
#325=VECTOR('',#526,1.);
#326=VECTOR('',#529,1.);
#327=VECTOR('',#534,1.);
#328=VECTOR('',#535,1.);
#329=VECTOR('',#538,1.);
#330=VECTOR('',#541,1.);
#331=VECTOR('',#542,1.);
#332=VECTOR('',#545,1.);
#333=VECTOR('',#546,1.);
#334=VECTOR('',#547,1.);
#335=VECTOR('',#550,1.);
#336=VECTOR('',#551,1.);
#337=VECTOR('',#554,1.);
#338=VECTOR('',#555,1.);
#339=VECTOR('',#556,1.);
#340=VECTOR('',#557,1.);
#341=VECTOR('',#558,1.);
#342=VECTOR('',#561,1.);
#343=VECTOR('',#562,1.);
#344=VECTOR('',#563,1.);
#345=VECTOR('',#566,1.);
#346=VECTOR('',#567,1.);
#347=VECTOR('',#570,1.);
#348=VECTOR('',#581,1.);
#349=VECTOR('',#586,1.);
#350=EDGE_LOOP('',(#15,#16,#17,#18));
#351=EDGE_LOOP('',(#19,#20,#21,#22));
#352=EDGE_LOOP('',(#23,#24,#25,#26,#27,#28,#29,#30,#31,#32));
#353=EDGE_LOOP('',(#33,#34,#35,#36,#37,#38,#39,#40,#41,#42,#43));
#354=EDGE_LOOP('',(#44,#45,#46,#47));
#355=EDGE_LOOP('',(#48,#49,#50,#51,#52,#53,#54));
#356=EDGE_LOOP('',(#55,#56,#57,#58));
#357=EDGE_LOOP('',(#59,#60,#61,#62,#63,#64,#65,#66));
#358=EDGE_LOOP('',(#67,#68,#69,#70));
#359=EDGE_LOOP('',(#71,#72,#73,#74,#75,#76,#77));
#360=EDGE_LOOP('',(#78,#79,#80,#81,#82));
#361=EDGE_LOOP('',(#83,#84,#85,#86));
#362=EDGE_LOOP('',(#87,#88,#89,#90,#91,#92,#93));
#363=EDGE_LOOP('',(#94,#95,#96,#97));
#364=EDGE_LOOP('',(#98,#99,#100,#101));
#365=EDGE_LOOP('',(#102,#103,#104,#105,#106));
#366=EDGE_LOOP('',(#107,#108,#109,#110,#111,#112));
#367=EDGE_LOOP('',(#113,#114,#115,#116));
#368=EDGE_LOOP('',(#117,#118));
#369=EDGE_LOOP('',(#119,#120,#121,#122));
#370=EDGE_LOOP('',(#123,#124,#125,#126));
#371=EDGE_LOOP('',(#127,#128,#129,#130));
#372=EDGE_LOOP('',(#131,#132,#133,#134));
#373=FACE_BOUND('',#350,.T.);
#374=FACE_BOUND('',#351,.T.);
#375=FACE_BOUND('',#352,.T.);
#376=FACE_BOUND('',#353,.T.);
#377=FACE_BOUND('',#354,.T.);
#378=FACE_BOUND('',#355,.T.);
#379=FACE_BOUND('',#356,.T.);
#380=FACE_BOUND('',#357,.T.);
#381=FACE_BOUND('',#358,.T.);
#382=FACE_BOUND('',#359,.T.);
#383=FACE_BOUND('',#360,.T.);
#384=FACE_BOUND('',#361,.T.);
#385=FACE_BOUND('',#362,.T.);
#386=FACE_BOUND('',#363,.T.);
#387=FACE_BOUND('',#364,.T.);
#388=FACE_BOUND('',#365,.T.);
#389=FACE_BOUND('',#366,.T.);
#390=FACE_BOUND('',#367,.T.);
#391=FACE_BOUND('',#368,.T.);
#392=FACE_BOUND('',#369,.T.);
#393=FACE_BOUND('',#370,.T.);
#394=FACE_BOUND('',#371,.T.);
#395=FACE_BOUND('',#372,.T.);
#396=PLANE('',#454);
#397=PLANE('',#455);
#398=PLANE('',#456);
#399=PLANE('',#457);
#400=PLANE('',#458);
#401=PLANE('',#459);
#402=PLANE('',#460);
#403=PLANE('',#461);
#404=PLANE('',#463);
#405=PLANE('',#464);
#406=PLANE('',#465);
#407=PLANE('',#466);
#408=PLANE('',#467);
#409=PLANE('',#468);
#410=PLANE('',#469);
#411=PLANE('',#470);
#412=PLANE('',#471);
#413=PLANE('',#474);
#414=PLANE('',#475);
#415=PLANE('',#476);
#416=PLANE('',#477);
#417=PLANE('',#478);
#418=ADVANCED_FACE('',(#373),#396,.T.);
#419=ADVANCED_FACE('',(#374),#397,.F.);
#420=ADVANCED_FACE('',(#375),#398,.F.);
#421=ADVANCED_FACE('',(#376),#399,.T.);
#422=ADVANCED_FACE('',(#377),#400,.F.);
#423=ADVANCED_FACE('',(#378),#401,.F.);
#424=ADVANCED_FACE('',(#379),#402,.F.);
#425=ADVANCED_FACE('',(#380),#403,.F.);
#426=ADVANCED_FACE('',(#381),#404,.F.);
#427=ADVANCED_FACE('',(#382),#405,.F.);
#428=ADVANCED_FACE('',(#383),#406,.F.);
#429=ADVANCED_FACE('',(#384),#407,.F.);
#430=ADVANCED_FACE('',(#385),#408,.F.);
#431=ADVANCED_FACE('',(#386),#409,.F.);
#432=ADVANCED_FACE('',(#387),#410,.F.);
#433=ADVANCED_FACE('',(#388),#411,.T.);
#434=ADVANCED_FACE('',(#389),#412,.F.);
#435=ADVANCED_FACE('',(#390),#12,.F.);
#436=ADVANCED_FACE('',(#391),#413,.T.);
#437=ADVANCED_FACE('',(#392),#414,.F.);
#438=ADVANCED_FACE('',(#393),#415,.F.);
#439=ADVANCED_FACE('',(#394),#416,.F.);
#440=ADVANCED_FACE('',(#395),#417,.F.);
#441=CLOSED_SHELL('',(#418,#419,#420,#421,#422,#423,#424,#425,#426,#427,
#428,#429,#430,#431,#432,#433,#434,#435,#436,#437,#438,#439,#440));
#442=STYLED_ITEM('',(#443),#450);
#443=PRESENTATION_STYLE_ASSIGNMENT((#444));
#444=SURFACE_STYLE_USAGE(.BOTH.,#445);
#445=SURFACE_SIDE_STYLE('',(#446));
#446=SURFACE_STYLE_FILL_AREA(#447);
#447=FILL_AREA_STYLE('',(#448));
#448=FILL_AREA_STYLE_COLOUR('',#449);
#449=COLOUR_RGB('',0.901960784313726,0.901960784313726,0.901960784313726);
#450=MANIFOLD_SOLID_BREP('Elevator and Rudder',#441);
#451=SHAPE_DEFINITION_REPRESENTATION(#718,#452);
#452=SHAPE_REPRESENTATION('Elevator and Rudder',(#453),#713);
#453=AXIS2_PLACEMENT_3D('',#589,#479,#480);
#454=AXIS2_PLACEMENT_3D('',#590,#481,#482);
#455=AXIS2_PLACEMENT_3D('',#599,#487,#488);
#456=AXIS2_PLACEMENT_3D('',#608,#493,#494);
#457=AXIS2_PLACEMENT_3D('',#629,#505,#506);
#458=AXIS2_PLACEMENT_3D('',#652,#518,#519);
#459=AXIS2_PLACEMENT_3D('',#655,#522,#523);
#460=AXIS2_PLACEMENT_3D('',#660,#527,#528);
#461=AXIS2_PLACEMENT_3D('',#662,#530,#531);
#462=AXIS2_PLACEMENT_3D('',#663,#532,#533);
#463=AXIS2_PLACEMENT_3D('',#666,#536,#537);
#464=AXIS2_PLACEMENT_3D('',#668,#539,#540);
#465=AXIS2_PLACEMENT_3D('',#672,#543,#544);
#466=AXIS2_PLACEMENT_3D('',#677,#548,#549);
#467=AXIS2_PLACEMENT_3D('',#681,#552,#553);
#468=AXIS2_PLACEMENT_3D('',#691,#559,#560);
#469=AXIS2_PLACEMENT_3D('',#697,#564,#565);
#470=AXIS2_PLACEMENT_3D('',#700,#568,#569);
#471=AXIS2_PLACEMENT_3D('',#702,#571,#572);
#472=AXIS2_PLACEMENT_3D('',#703,#573,#574);
#473=AXIS2_PLACEMENT_3D('',#704,#575,#576);
#474=AXIS2_PLACEMENT_3D('',#705,#577,#578);
#475=AXIS2_PLACEMENT_3D('',#706,#579,#580);
#476=AXIS2_PLACEMENT_3D('',#708,#582,#583);
#477=AXIS2_PLACEMENT_3D('',#709,#584,#585);
#478=AXIS2_PLACEMENT_3D('',#711,#587,#588);
#479=DIRECTION('',(0.,0.,1.));
#480=DIRECTION('',(1.,0.,0.));
#481=DIRECTION('',(1.,0.,0.));
#482=DIRECTION('',(0.,1.,0.));
#483=DIRECTION('',(0.,0.,1.));
#484=DIRECTION('',(0.,0.752576694706878,0.658504607868518));
#485=DIRECTION('',(0.,0.,1.));
#486=DIRECTION('',(0.,-1.,0.));
#487=DIRECTION('',(0.,0.,1.));
#488=DIRECTION('',(1.,0.,0.));
#489=DIRECTION('',(0.,-1.,0.));
#490=DIRECTION('',(-1.,0.,0.));
#491=DIRECTION('',(0.,1.,0.));
#492=DIRECTION('',(1.,0.,0.));
#493=DIRECTION('',(0.,0.,1.));
#494=DIRECTION('',(1.,0.,0.));
#495=DIRECTION('',(0.,1.,0.));
#496=DIRECTION('',(1.,0.,0.));
#497=DIRECTION('',(0.,-1.,0.));
#498=DIRECTION('',(-0.9590177080589,-0.283346141017403,0.));
#499=DIRECTION('',(-1.,0.,0.));
#500=DIRECTION('',(0.,1.,0.));
#501=DIRECTION('',(1.,0.,0.));
#502=DIRECTION('',(0.,1.,0.));
#503=DIRECTION('',(-1.,0.,0.));
#504=DIRECTION('',(-0.9590177080589,0.283346141017403,0.));
#505=DIRECTION('',(0.,0.,1.));
#506=DIRECTION('',(1.,0.,0.));
#507=DIRECTION('',(-1.,0.,0.));
#508=DIRECTION('',(-0.970142500145332,0.242535625036333,0.));
#509=DIRECTION('',(0.,1.,-1.36796301391973E-16));
#510=DIRECTION('',(-1.,0.,0.));
#511=DIRECTION('',(-0.9590177080589,-0.283346141017403,0.));
#512=DIRECTION('',(0.,-1.,0.));
#513=DIRECTION('',(1.,0.,0.));
#514=DIRECTION('',(0.,1.,0.));
#515=DIRECTION('',(-0.9590177080589,0.283346141017403,0.));
#516=DIRECTION('',(-1.,0.,0.));
#517=DIRECTION('',(0.,1.,-1.36796301391973E-16));
#518=DIRECTION('',(0.,-1.,0.));
#519=DIRECTION('',(0.,0.,-1.));
#520=DIRECTION('',(0.,0.,1.));
#521=DIRECTION('',(0.,0.,1.));
#522=DIRECTION('',(1.,0.,0.));
#523=DIRECTION('',(0.,0.,-1.));
#524=DIRECTION('',(0.,-0.242535625036333,0.970142500145332));
#525=DIRECTION('',(0.,-0.242535625036333,-0.970142500145332));
#526=DIRECTION('',(0.,0.,1.));
#527=DIRECTION('',(0.283346141017403,0.9590177080589,0.));
#528=DIRECTION('',(-0.959017708058901,0.283346141017403,0.));
#529=DIRECTION('',(0.,0.,1.));
#530=DIRECTION('',(0.,1.,0.));
#531=DIRECTION('',(0.,0.,1.));
#532=DIRECTION('',(0.,1.,0.));
#533=DIRECTION('',(0.,0.,1.));
#534=DIRECTION('',(0.,0.,1.));
#535=DIRECTION('',(-1.,0.,0.));
#536=DIRECTION('',(-0.283346141017403,0.9590177080589,0.));
#537=DIRECTION('',(-0.959017708058901,-0.283346141017403,0.));
#538=DIRECTION('',(0.,0.,1.));
#539=DIRECTION('',(-1.,0.,0.));
#540=DIRECTION('',(0.,0.,1.));
#541=DIRECTION('',(0.,0.242535625036333,0.970142500145332));
#542=DIRECTION('',(0.,0.242535625036333,-0.970142500145332));
#543=DIRECTION('',(0.,-0.658504607868518,0.752576694706878));
#544=DIRECTION('',(0.,-0.752576694706878,-0.658504607868518));
#545=DIRECTION('',(-0.949007721376949,-0.237251930344237,-0.207595439051208));
#546=DIRECTION('',(0.,0.752576694706878,0.658504607868518));
#547=DIRECTION('',(-1.,0.,0.));
#548=DIRECTION('',(0.,-1.,0.));
#549=DIRECTION('',(0.,0.,-1.));
#550=DIRECTION('',(0.,0.,1.));
#551=DIRECTION('',(-1.,0.,0.));
#552=DIRECTION('',(0.,0.,-1.));
#553=DIRECTION('',(-1.,0.,0.));
#554=DIRECTION('',(-0.970142500145332,0.242535625036333,0.));
#555=DIRECTION('',(0.970142500145332,0.242535625036333,0.));
#556=DIRECTION('',(0.,-1.,0.));
#557=DIRECTION('',(-1.,0.,0.));
#558=DIRECTION('',(0.,-1.,0.));
#559=DIRECTION('',(0.,0.928476690885259,-0.371390676354103));
#560=DIRECTION('',(0.,0.371390676354103,0.92847669088526));
#561=DIRECTION('',(0.,-0.371390676354103,-0.928476690885259));
#562=DIRECTION('',(-1.,0.,0.));
#563=DIRECTION('',(0.,-0.371390676354103,-0.928476690885259));
#564=DIRECTION('',(0.,1.36796301391973E-16,1.));
#565=DIRECTION('',(0.,-1.,1.36796301391973E-16));
#566=DIRECTION('',(0.,1.,-1.36796301391973E-16));
#567=DIRECTION('',(0.,1.,-1.36796301391973E-16));
#568=DIRECTION('',(1.,0.,0.));
#569=DIRECTION('',(0.,1.,0.));
#570=DIRECTION('',(0.,0.,-1.));
#571=DIRECTION('',(1.,0.,0.));
#572=DIRECTION('',(0.,1.,0.));
#573=DIRECTION('',(0.,1.,0.));
#574=DIRECTION('',(0.,0.,1.));
#575=DIRECTION('',(0.,-1.,0.));
#576=DIRECTION('',(0.,0.,-1.));
#577=DIRECTION('',(0.,-1.,0.));
#578=DIRECTION('',(1.,0.,0.));
#579=DIRECTION('',(0.,0.970142500145332,0.242535625036333));
#580=DIRECTION('',(0.,-0.242535625036333,0.970142500145332));
#581=DIRECTION('',(1.,0.,0.));
#582=DIRECTION('',(0.,-0.970142500145332,0.242535625036332));
#583=DIRECTION('',(0.,-0.242535625036333,-0.970142500145332));
#584=DIRECTION('',(-0.242535625036333,0.970142500145332,0.));
#585=DIRECTION('',(-0.970142500145332,-0.242535625036333,0.));
#586=DIRECTION('',(0.,0.,-1.));
#587=DIRECTION('',(-0.242535625036333,-0.970142500145332,0.));
#588=DIRECTION('',(0.970142500145332,-0.242535625036333,0.));
#589=CARTESIAN_POINT('',(0.,0.,0.));
#590=CARTESIAN_POINT('',(0.00238125,-0.1016,0.127));
#591=CARTESIAN_POINT('',(0.00238125,-0.0434578125,0.127));
#592=CARTESIAN_POINT('',(0.00238125,-0.0434578125,0.000868164062499987));
#593=CARTESIAN_POINT('',(0.00238125,-0.0434578125,0.254));
#594=CARTESIAN_POINT('',(0.00238125,-0.01905,0.022225));
#595=CARTESIAN_POINT('',(0.00238125,0.00635,0.04445));
#596=CARTESIAN_POINT('',(0.00238125,0.00635,0.149225));
#597=CARTESIAN_POINT('',(0.00238125,0.00635,0.254));
#598=CARTESIAN_POINT('',(0.00238125,-0.0508,0.254));
#599=CARTESIAN_POINT('',(0.,-0.079375,-0.0047625));
#600=CARTESIAN_POINT('',(0.3048,-0.0381,-0.0047625));
#601=CARTESIAN_POINT('',(0.3048,-1.38777878078145E-17,-0.0047625));
#602=CARTESIAN_POINT('',(0.3048,-0.0371078125,-0.0047625));
#603=CARTESIAN_POINT('',(0.,-0.0371078125,-0.0047625));
#604=CARTESIAN_POINT('',(-0.3048,-0.0371078125,-0.0047625));
#605=CARTESIAN_POINT('',(-0.3048,-0.0381,-0.0047625));
#606=CARTESIAN_POINT('',(-0.3048,-1.38777878078145E-17,-0.0047625));
#607=CARTESIAN_POINT('',(0.,0.,-0.0047625));
#608=CARTESIAN_POINT('',(0.,-0.079375,-0.0047625));
#609=CARTESIAN_POINT('',(-0.3048,-0.0381,-0.0047625));
#610=CARTESIAN_POINT('',(-0.3048,-0.0762,-0.0047625));
#611=CARTESIAN_POINT('',(-0.3048,-0.0390921875,-0.0047625));
#612=CARTESIAN_POINT('',(0.,-0.0390921875,-0.0047625));
#613=CARTESIAN_POINT('',(0.3048,-0.0390921875,-0.0047625));
#614=CARTESIAN_POINT('',(0.3048,-0.0381,-0.0047625));
#615=CARTESIAN_POINT('',(0.3048,-0.0762,-0.0047625));
#616=CARTESIAN_POINT('',(0.1651,-0.117475,-0.0047625));
#617=CARTESIAN_POINT('',(0.0254,-0.15875,-0.0047625));
#618=CARTESIAN_POINT('',(0.,-0.15875,-0.0047625));
#619=CARTESIAN_POINT('',(0.00482558221875869,-0.15875,-0.0047625));
#620=CARTESIAN_POINT('',(0.00482558221875869,-0.5588,-0.0047625));
#621=CARTESIAN_POINT('',(0.00482558221875869,-0.0508,-0.0047625));
#622=CARTESIAN_POINT('',(0.,-0.0508,-0.0047625));
#623=CARTESIAN_POINT('',(-0.00482558221875869,-0.0508,-0.0047625));
#624=CARTESIAN_POINT('',(-0.00482558221875869,-0.5588,-0.0047625));
#625=CARTESIAN_POINT('',(-0.00482558221875869,-0.15875,-0.0047625));
#626=CARTESIAN_POINT('',(0.,-0.15875,-0.0047625));
#627=CARTESIAN_POINT('',(-0.0254,-0.15875,-0.0047625));
#628=CARTESIAN_POINT('',(-0.1651,-0.117475,-0.0047625));
#629=CARTESIAN_POINT('',(0.,-0.079375,0.));
#630=CARTESIAN_POINT('',(0.00238125,-0.04445,-1.7347234759768E-18));
#631=CARTESIAN_POINT('',(-0.0015875,-0.04445,0.));
#632=CARTESIAN_POINT('',(-0.00238125,-0.04445,-1.7347234759768E-18));
#633=CARTESIAN_POINT('',(0.0047625,-0.0460375,0.));
#634=CARTESIAN_POINT('',(0.00238125,-0.0454421875,0.));
#635=CARTESIAN_POINT('',(0.00238125,-0.127,1.05807885804238E-17));
#636=CARTESIAN_POINT('',(0.00238125,-0.15875,0.));
#637=CARTESIAN_POINT('',(0.,-0.15875,0.));
#638=CARTESIAN_POINT('',(0.0254,-0.15875,0.));
#639=CARTESIAN_POINT('',(0.1651,-0.117475,0.));
#640=CARTESIAN_POINT('',(0.3048,-0.0762,0.));
#641=CARTESIAN_POINT('',(0.3048,-0.0381,0.));
#642=CARTESIAN_POINT('',(0.3048,-1.38777878078145E-17,0.));
#643=CARTESIAN_POINT('',(0.,0.,0.));
#644=CARTESIAN_POINT('',(-0.3048,-1.38777878078145E-17,0.));
#645=CARTESIAN_POINT('',(-0.3048,-0.0381,0.));
#646=CARTESIAN_POINT('',(-0.3048,-0.0762,0.));
#647=CARTESIAN_POINT('',(-0.1651,-0.117475,0.));
#648=CARTESIAN_POINT('',(-0.0254,-0.15875,0.));
#649=CARTESIAN_POINT('',(0.,-0.15875,0.));
#650=CARTESIAN_POINT('',(-0.00238125,-0.15875,0.));
#651=CARTESIAN_POINT('',(-0.00238125,-0.127,1.05807885804238E-17));
#652=CARTESIAN_POINT('',(0.,0.,-0.0047625));
#653=CARTESIAN_POINT('',(0.3048,-1.38777878078145E-17,-0.0047625));
#654=CARTESIAN_POINT('',(-0.3048,-1.38777878078145E-17,-0.0047625));
#655=CARTESIAN_POINT('',(-0.3048,-0.0381,-0.0047625));
#656=CARTESIAN_POINT('',(-0.3048,-0.0371661764705883,-0.00452904411764705));
#657=CARTESIAN_POINT('',(-0.3048,-0.0381,-0.00079375));
#658=CARTESIAN_POINT('',(-0.3048,-0.0390338235294118,-0.00452904411764707));
#659=CARTESIAN_POINT('',(-0.3048,-0.0762,-0.0047625));
#660=CARTESIAN_POINT('',(-0.1651,-0.117475,-0.0047625));
#661=CARTESIAN_POINT('',(-0.0254,-0.15875,-0.0047625));
#662=CARTESIAN_POINT('',(0.,-0.15875,-0.0047625));
#663=CARTESIAN_POINT('',(0.,-0.15875,-0.00889));
#664=CARTESIAN_POINT('',(0.0254,-0.15875,-0.0047625));
#665=CARTESIAN_POINT('',(0.,-0.15875,0.));
#666=CARTESIAN_POINT('',(0.1651,-0.117475,-0.0047625));
#667=CARTESIAN_POINT('',(0.3048,-0.0762,-0.0047625));
#668=CARTESIAN_POINT('',(0.3048,-0.0381,-0.0047625));
#669=CARTESIAN_POINT('',(0.3048,-0.0390338235294118,-0.00452904411764707));
#670=CARTESIAN_POINT('',(0.3048,-0.0381,-0.00079375));
#671=CARTESIAN_POINT('',(0.3048,-0.0371661764705883,-0.00452904411764705));
#672=CARTESIAN_POINT('',(0.00238125,-0.01905,0.022225));
#673=CARTESIAN_POINT('',(0.0120842678100264,-0.0410320580474934,0.00299069920844328));
#674=CARTESIAN_POINT('',(-0.00238125,-0.01905,0.022225));
#675=CARTESIAN_POINT('',(-0.00238125,0.00635,0.04445));
#676=CARTESIAN_POINT('',(0.00238125,0.00635,0.04445));
#677=CARTESIAN_POINT('',(0.00238125,0.00635,0.149225));
#678=CARTESIAN_POINT('',(-0.00238125,0.00635,0.149225));
#679=CARTESIAN_POINT('',(-0.00238125,0.00635,0.254));
#680=CARTESIAN_POINT('',(0.00238125,0.00635,0.254));
#681=CARTESIAN_POINT('',(0.00238125,-0.0508,0.254));
#682=CARTESIAN_POINT('',(0.00364191176470588,-0.0457573529411765,0.254));
#683=CARTESIAN_POINT('',(0.00238125,-0.0454421875,0.254));
#684=CARTESIAN_POINT('',(-0.0015875,-0.04445,0.254));
#685=CARTESIAN_POINT('',(0.000653676470588242,-0.043889705882353,0.254));
#686=CARTESIAN_POINT('',(-0.00238125,-0.0508,0.254));
#687=CARTESIAN_POINT('',(-0.00238125,-0.10795,0.254));
#688=CARTESIAN_POINT('',(0.00238125,-0.10795,0.254));
#689=CARTESIAN_POINT('',(0.00238125,-0.10795,0.254));
#690=CARTESIAN_POINT('',(0.00238125,-0.0508,0.254));
#691=CARTESIAN_POINT('',(0.00238125,-0.15875,0.127));
#692=CARTESIAN_POINT('',(-0.00238125,-0.15875,0.127));
#693=CARTESIAN_POINT('',(-0.00238125,-0.20955,2.18733232603312E-17));
#694=CARTESIAN_POINT('',(0.00238125,-0.20955,2.18733232603312E-17));
#695=CARTESIAN_POINT('',(0.00238125,-0.20955,2.18733232603312E-17));
#696=CARTESIAN_POINT('',(0.00238125,-0.15875,0.127));
#697=CARTESIAN_POINT('',(0.00238125,-0.127,1.05807885804238E-17));
#698=CARTESIAN_POINT('',(0.00238125,-0.127,1.05807885804238E-17));
#699=CARTESIAN_POINT('',(-0.00238125,-0.127,1.05807885804238E-17));
#700=CARTESIAN_POINT('',(0.00238125,-0.1016,0.127));
#701=CARTESIAN_POINT('',(0.00238125,-0.0454421875,0.127));
#702=CARTESIAN_POINT('',(-0.00238125,-0.1016,0.127));
#703=CARTESIAN_POINT('',(0.,-0.5588,-0.00889));
#704=CARTESIAN_POINT('',(0.,-0.0508,-0.00889));
#705=CARTESIAN_POINT('',(0.,-0.0508,-0.00889));
#706=CARTESIAN_POINT('',(-1.27,-0.0365125,-0.00714375));
#707=CARTESIAN_POINT('',(-1.27,-0.0381,-0.00079375));
#708=CARTESIAN_POINT('',(-1.27,-0.0396875,-0.00714375));
#709=CARTESIAN_POINT('',(0.0047625,-0.0428625,0.635));
#710=CARTESIAN_POINT('',(-0.0015875,-0.04445,0.635));
#711=CARTESIAN_POINT('',(0.0047625,-0.0460375,0.635));
#712=MECHANICAL_DESIGN_GEOMETRIC_PRESENTATION_REPRESENTATION('',(#442),
#713);
#713=(
GEOMETRIC_REPRESENTATION_CONTEXT(3)
GLOBAL_UNCERTAINTY_ASSIGNED_CONTEXT((#714))
GLOBAL_UNIT_ASSIGNED_CONTEXT((#717,#716,#715))
REPRESENTATION_CONTEXT('Elevator and Rudder','TOP_LEVEL_ASSEMBLY_PART')
);
#714=UNCERTAINTY_MEASURE_WITH_UNIT(LENGTH_MEASURE(1.E-8),#717,
'DISTANCE_ACCURACY_VALUE','Maximum Tolerance applied to model');
#715=(
NAMED_UNIT(*)
SI_UNIT($,.STERADIAN.)
SOLID_ANGLE_UNIT()
);
#716=(
NAMED_UNIT(*)
PLANE_ANGLE_UNIT()
SI_UNIT($,.RADIAN.)
);
#717=(
LENGTH_UNIT()
NAMED_UNIT(*)
SI_UNIT($,.METRE.)
);
#718=PRODUCT_DEFINITION_SHAPE('','',#719);
#719=PRODUCT_DEFINITION('','',#721,#720);
#720=PRODUCT_DEFINITION_CONTEXT('',#727,'design');
#721=PRODUCT_DEFINITION_FORMATION_WITH_SPECIFIED_SOURCE('','',#723,
 .NOT_KNOWN.);
#722=PRODUCT_RELATED_PRODUCT_CATEGORY('','',(#723));
#723=PRODUCT('Elevator and Rudder','Elevator and Rudder',
'Elevator and Rudder',(#725));
#724=PRODUCT_CATEGORY('','');
#725=PRODUCT_CONTEXT('',#727,'mechanical');
#726=APPLICATION_PROTOCOL_DEFINITION('international standard',
'ap242_managed_model_based_3d_engineering',2020,#727);
#727=APPLICATION_CONTEXT('managed model based 3d engineering');
ENDSEC;
END-ISO-10303-21;
