ISO-10303-21;
HEADER;
/* Generated by software containing ST-Developer
 * from STEP Tools, Inc. (www.steptools.com) 
 */
/* OPTION: using custom renumber hook */

FILE_DESCRIPTION(
/* description */ ('STEP AP242 Edition 2',
'CAx-IF Rec.Pracs.---Representation and Presentation of Product Manufa
cturing Information (PMI)---4.0---2014-10-13',
'CAx-IF Rec.Pracs.---3D Tessellated Geometry---0.4---2014-09-14','2;1',
'CAx-IF Rec.Pracs.---User Defined Attributes---1.5---2016-08-15'),
/* implementation_level */ '2;1');

FILE_NAME(
/* name */ 'Front Hull and Nose - Cover',
/* time_stamp */ '2026-08-24T02:47:31Z',
/* author */ (''),
/* organization */ (''),
/* preprocessor_version */ 'ST-DEVELOPER v20',
/* originating_system */ 'ONSHAPE BY PTC INC, 1.219',
/* authorisation */ '  ');

FILE_SCHEMA (('AP242_MANAGED_MODEL_BASED_3D_ENGINEERING_MIM_LF { 1 0 10303 442 3 1 4 }'));
ENDSEC;

DATA;
#10=SHAPE_REPRESENTATION_RELATIONSHIP('','',#521,#11);
#11=ADVANCED_BREP_SHAPE_REPRESENTATION('',(#519),#851);
#12=CYLINDRICAL_SURFACE('',#531,0.04445);
#13=CYLINDRICAL_SURFACE('',#533,0.04445);
#14=CYLINDRICAL_SURFACE('',#537,0.04445);
#15=CYLINDRICAL_SURFACE('',#539,0.04445);
#16=CYLINDRICAL_SURFACE('',#541,0.04445);
#17=CYLINDRICAL_SURFACE('',#543,0.04445);
#18=CYLINDRICAL_SURFACE('',#562,0.009525);
#19=ELLIPSE('',#524,0.0113243310922787,0.009525);
#20=ELLIPSE('',#525,0.052846878430634,0.04445);
#21=ELLIPSE('',#526,0.052846878430634,0.04445);
#22=ELLIPSE('',#527,0.052846878430634,0.04445);
#23=ELLIPSE('',#528,0.052846878430634,0.04445);
#24=ELLIPSE('',#529,0.052846878430634,0.04445);
#25=ELLIPSE('',#530,0.052846878430634,0.04445);
#26=ELLIPSE('',#532,0.052846878430634,0.04445);
#27=ELLIPSE('',#534,0.052846878430634,0.04445);
#28=ELLIPSE('',#538,0.052846878430634,0.04445);
#29=ELLIPSE('',#540,0.052846878430634,0.04445);
#30=ELLIPSE('',#542,0.052846878430634,0.04445);
#31=ELLIPSE('',#544,0.052846878430634,0.04445);
#32=ELLIPSE('',#561,0.0113243310922787,0.009525);
#33=ORIENTED_EDGE('',*,*,#177,.T.);
#34=ORIENTED_EDGE('',*,*,#178,.T.);
#35=ORIENTED_EDGE('',*,*,#179,.F.);
#36=ORIENTED_EDGE('',*,*,#180,.F.);
#37=ORIENTED_EDGE('',*,*,#181,.T.);
#38=ORIENTED_EDGE('',*,*,#182,.T.);
#39=ORIENTED_EDGE('',*,*,#183,.T.);
#40=ORIENTED_EDGE('',*,*,#184,.F.);
#41=ORIENTED_EDGE('',*,*,#185,.T.);
#42=ORIENTED_EDGE('',*,*,#186,.T.);
#43=ORIENTED_EDGE('',*,*,#187,.T.);
#44=ORIENTED_EDGE('',*,*,#188,.F.);
#45=ORIENTED_EDGE('',*,*,#189,.T.);
#46=ORIENTED_EDGE('',*,*,#190,.T.);
#47=ORIENTED_EDGE('',*,*,#191,.T.);
#48=ORIENTED_EDGE('',*,*,#192,.F.);
#49=ORIENTED_EDGE('',*,*,#193,.T.);
#50=ORIENTED_EDGE('',*,*,#194,.T.);
#51=ORIENTED_EDGE('',*,*,#195,.T.);
#52=ORIENTED_EDGE('',*,*,#196,.F.);
#53=ORIENTED_EDGE('',*,*,#197,.T.);
#54=ORIENTED_EDGE('',*,*,#198,.T.);
#55=ORIENTED_EDGE('',*,*,#199,.T.);
#56=ORIENTED_EDGE('',*,*,#200,.F.);
#57=ORIENTED_EDGE('',*,*,#201,.F.);
#58=ORIENTED_EDGE('',*,*,#200,.T.);
#59=ORIENTED_EDGE('',*,*,#202,.T.);
#60=ORIENTED_EDGE('',*,*,#203,.F.);
#61=ORIENTED_EDGE('',*,*,#204,.F.);
#62=ORIENTED_EDGE('',*,*,#180,.T.);
#63=ORIENTED_EDGE('',*,*,#205,.T.);
#64=ORIENTED_EDGE('',*,*,#206,.F.);
#65=ORIENTED_EDGE('',*,*,#207,.T.);
#66=ORIENTED_EDGE('',*,*,#208,.F.);
#67=ORIENTED_EDGE('',*,*,#177,.F.);
#68=ORIENTED_EDGE('',*,*,#201,.T.);
#69=ORIENTED_EDGE('',*,*,#205,.F.);
#70=ORIENTED_EDGE('',*,*,#179,.T.);
#71=ORIENTED_EDGE('',*,*,#209,.T.);
#72=ORIENTED_EDGE('',*,*,#210,.F.);
#73=ORIENTED_EDGE('',*,*,#211,.F.);
#74=ORIENTED_EDGE('',*,*,#184,.T.);
#75=ORIENTED_EDGE('',*,*,#212,.T.);
#76=ORIENTED_EDGE('',*,*,#213,.F.);
#77=ORIENTED_EDGE('',*,*,#214,.F.);
#78=ORIENTED_EDGE('',*,*,#188,.T.);
#79=ORIENTED_EDGE('',*,*,#215,.T.);
#80=ORIENTED_EDGE('',*,*,#216,.F.);
#81=ORIENTED_EDGE('',*,*,#217,.F.);
#82=ORIENTED_EDGE('',*,*,#192,.T.);
#83=ORIENTED_EDGE('',*,*,#218,.T.);
#84=ORIENTED_EDGE('',*,*,#219,.F.);
#85=ORIENTED_EDGE('',*,*,#220,.F.);
#86=ORIENTED_EDGE('',*,*,#196,.T.);
#87=ORIENTED_EDGE('',*,*,#221,.T.);
#88=ORIENTED_EDGE('',*,*,#222,.F.);
#89=ORIENTED_EDGE('',*,*,#223,.T.);
#90=ORIENTED_EDGE('',*,*,#224,.F.);
#91=ORIENTED_EDGE('',*,*,#197,.F.);
#92=ORIENTED_EDGE('',*,*,#220,.T.);
#93=ORIENTED_EDGE('',*,*,#225,.T.);
#94=ORIENTED_EDGE('',*,*,#226,.F.);
#95=ORIENTED_EDGE('',*,*,#198,.F.);
#96=ORIENTED_EDGE('',*,*,#224,.T.);
#97=ORIENTED_EDGE('',*,*,#227,.T.);
#98=ORIENTED_EDGE('',*,*,#202,.F.);
#99=ORIENTED_EDGE('',*,*,#199,.F.);
#100=ORIENTED_EDGE('',*,*,#226,.T.);
#101=ORIENTED_EDGE('',*,*,#228,.T.);
#102=ORIENTED_EDGE('',*,*,#229,.F.);
#103=ORIENTED_EDGE('',*,*,#193,.F.);
#104=ORIENTED_EDGE('',*,*,#217,.T.);
#105=ORIENTED_EDGE('',*,*,#230,.T.);
#106=ORIENTED_EDGE('',*,*,#231,.F.);
#107=ORIENTED_EDGE('',*,*,#194,.F.);
#108=ORIENTED_EDGE('',*,*,#229,.T.);
#109=ORIENTED_EDGE('',*,*,#232,.T.);
#110=ORIENTED_EDGE('',*,*,#221,.F.);
#111=ORIENTED_EDGE('',*,*,#195,.F.);
#112=ORIENTED_EDGE('',*,*,#231,.T.);
#113=ORIENTED_EDGE('',*,*,#233,.T.);
#114=ORIENTED_EDGE('',*,*,#234,.F.);
#115=ORIENTED_EDGE('',*,*,#189,.F.);
#116=ORIENTED_EDGE('',*,*,#214,.T.);
#117=ORIENTED_EDGE('',*,*,#235,.T.);
#118=ORIENTED_EDGE('',*,*,#236,.F.);
#119=ORIENTED_EDGE('',*,*,#190,.F.);
#120=ORIENTED_EDGE('',*,*,#234,.T.);
#121=ORIENTED_EDGE('',*,*,#237,.T.);
#122=ORIENTED_EDGE('',*,*,#218,.F.);
#123=ORIENTED_EDGE('',*,*,#191,.F.);
#124=ORIENTED_EDGE('',*,*,#236,.T.);
#125=ORIENTED_EDGE('',*,*,#238,.T.);
#126=ORIENTED_EDGE('',*,*,#239,.F.);
#127=ORIENTED_EDGE('',*,*,#185,.F.);
#128=ORIENTED_EDGE('',*,*,#211,.T.);
#129=ORIENTED_EDGE('',*,*,#240,.T.);
#130=ORIENTED_EDGE('',*,*,#241,.F.);
#131=ORIENTED_EDGE('',*,*,#186,.F.);
#132=ORIENTED_EDGE('',*,*,#239,.T.);
#133=ORIENTED_EDGE('',*,*,#242,.T.);
#134=ORIENTED_EDGE('',*,*,#215,.F.);
#135=ORIENTED_EDGE('',*,*,#187,.F.);
#136=ORIENTED_EDGE('',*,*,#241,.T.);
#137=ORIENTED_EDGE('',*,*,#243,.T.);
#138=ORIENTED_EDGE('',*,*,#244,.F.);
#139=ORIENTED_EDGE('',*,*,#181,.F.);
#140=ORIENTED_EDGE('',*,*,#204,.T.);
#141=ORIENTED_EDGE('',*,*,#245,.T.);
#142=ORIENTED_EDGE('',*,*,#246,.F.);
#143=ORIENTED_EDGE('',*,*,#182,.F.);
#144=ORIENTED_EDGE('',*,*,#244,.T.);
#145=ORIENTED_EDGE('',*,*,#247,.T.);
#146=ORIENTED_EDGE('',*,*,#212,.F.);
#147=ORIENTED_EDGE('',*,*,#183,.F.);
#148=ORIENTED_EDGE('',*,*,#246,.T.);
#149=ORIENTED_EDGE('',*,*,#248,.F.);
#150=ORIENTED_EDGE('',*,*,#207,.F.);
#151=ORIENTED_EDGE('',*,*,#203,.T.);
#152=ORIENTED_EDGE('',*,*,#227,.F.);
#153=ORIENTED_EDGE('',*,*,#225,.F.);
#154=ORIENTED_EDGE('',*,*,#223,.F.);
#155=ORIENTED_EDGE('',*,*,#222,.T.);
#156=ORIENTED_EDGE('',*,*,#232,.F.);
#157=ORIENTED_EDGE('',*,*,#230,.F.);
#158=ORIENTED_EDGE('',*,*,#228,.F.);
#159=ORIENTED_EDGE('',*,*,#219,.T.);
#160=ORIENTED_EDGE('',*,*,#237,.F.);
#161=ORIENTED_EDGE('',*,*,#235,.F.);
#162=ORIENTED_EDGE('',*,*,#233,.F.);
#163=ORIENTED_EDGE('',*,*,#216,.T.);
#164=ORIENTED_EDGE('',*,*,#242,.F.);
#165=ORIENTED_EDGE('',*,*,#240,.F.);
#166=ORIENTED_EDGE('',*,*,#238,.F.);
#167=ORIENTED_EDGE('',*,*,#213,.T.);
#168=ORIENTED_EDGE('',*,*,#247,.F.);
#169=ORIENTED_EDGE('',*,*,#245,.F.);
#170=ORIENTED_EDGE('',*,*,#243,.F.);
#171=ORIENTED_EDGE('',*,*,#206,.T.);
#172=ORIENTED_EDGE('',*,*,#210,.T.);
#173=ORIENTED_EDGE('',*,*,#208,.T.);
#174=ORIENTED_EDGE('',*,*,#248,.T.);
#175=ORIENTED_EDGE('',*,*,#209,.F.);
#176=ORIENTED_EDGE('',*,*,#178,.F.);
#177=EDGE_CURVE('',#249,#250,#297,.T.);
#178=EDGE_CURVE('',#250,#251,#19,.T.);
#179=EDGE_CURVE('',#252,#251,#298,.T.);
#180=EDGE_CURVE('',#253,#252,#20,.T.);
#181=EDGE_CURVE('',#253,#254,#299,.T.);
#182=EDGE_CURVE('',#254,#255,#300,.T.);
#183=EDGE_CURVE('',#255,#256,#301,.T.);
#184=EDGE_CURVE('',#257,#256,#21,.F.);
#185=EDGE_CURVE('',#257,#258,#302,.T.);
#186=EDGE_CURVE('',#258,#259,#303,.T.);
#187=EDGE_CURVE('',#259,#260,#304,.T.);
#188=EDGE_CURVE('',#261,#260,#22,.F.);
#189=EDGE_CURVE('',#261,#262,#305,.T.);
#190=EDGE_CURVE('',#262,#263,#306,.T.);
#191=EDGE_CURVE('',#263,#264,#307,.T.);
#192=EDGE_CURVE('',#265,#264,#23,.F.);
#193=EDGE_CURVE('',#265,#266,#308,.T.);
#194=EDGE_CURVE('',#266,#267,#309,.T.);
#195=EDGE_CURVE('',#267,#268,#310,.T.);
#196=EDGE_CURVE('',#269,#268,#24,.F.);
#197=EDGE_CURVE('',#269,#270,#311,.T.);
#198=EDGE_CURVE('',#270,#271,#312,.T.);
#199=EDGE_CURVE('',#271,#272,#313,.T.);
#200=EDGE_CURVE('',#249,#272,#25,.T.);
#201=EDGE_CURVE('',#249,#273,#314,.T.);
#202=EDGE_CURVE('',#272,#274,#315,.T.);
#203=EDGE_CURVE('',#273,#274,#26,.T.);
#204=EDGE_CURVE('',#253,#275,#316,.T.);
#205=EDGE_CURVE('',#252,#276,#317,.T.);
#206=EDGE_CURVE('',#275,#276,#27,.T.);
#207=EDGE_CURVE('',#273,#277,#318,.T.);
#208=EDGE_CURVE('',#250,#277,#319,.T.);
#209=EDGE_CURVE('',#251,#278,#320,.T.);
#210=EDGE_CURVE('',#276,#278,#321,.T.);
#211=EDGE_CURVE('',#257,#279,#322,.T.);
#212=EDGE_CURVE('',#256,#280,#323,.T.);
#213=EDGE_CURVE('',#279,#280,#28,.T.);
#214=EDGE_CURVE('',#261,#281,#324,.T.);
#215=EDGE_CURVE('',#260,#282,#325,.T.);
#216=EDGE_CURVE('',#281,#282,#29,.T.);
#217=EDGE_CURVE('',#265,#283,#326,.T.);
#218=EDGE_CURVE('',#264,#284,#327,.T.);
#219=EDGE_CURVE('',#283,#284,#30,.T.);
#220=EDGE_CURVE('',#269,#285,#328,.T.);
#221=EDGE_CURVE('',#268,#286,#329,.T.);
#222=EDGE_CURVE('',#285,#286,#31,.T.);
#223=EDGE_CURVE('',#285,#287,#330,.T.);
#224=EDGE_CURVE('',#270,#287,#331,.T.);
#225=EDGE_CURVE('',#287,#288,#332,.T.);
#226=EDGE_CURVE('',#271,#288,#333,.T.);
#227=EDGE_CURVE('',#288,#274,#334,.T.);
#228=EDGE_CURVE('',#283,#289,#335,.T.);
#229=EDGE_CURVE('',#266,#289,#336,.T.);
#230=EDGE_CURVE('',#289,#290,#337,.T.);
#231=EDGE_CURVE('',#267,#290,#338,.T.);
#232=EDGE_CURVE('',#290,#286,#339,.T.);
#233=EDGE_CURVE('',#281,#291,#340,.T.);
#234=EDGE_CURVE('',#262,#291,#341,.T.);
#235=EDGE_CURVE('',#291,#292,#342,.T.);
#236=EDGE_CURVE('',#263,#292,#343,.T.);
#237=EDGE_CURVE('',#292,#284,#344,.T.);
#238=EDGE_CURVE('',#279,#293,#345,.T.);
#239=EDGE_CURVE('',#258,#293,#346,.T.);
#240=EDGE_CURVE('',#293,#294,#347,.T.);
#241=EDGE_CURVE('',#259,#294,#348,.T.);
#242=EDGE_CURVE('',#294,#282,#349,.T.);
#243=EDGE_CURVE('',#275,#295,#350,.T.);
#244=EDGE_CURVE('',#254,#295,#351,.T.);
#245=EDGE_CURVE('',#295,#296,#352,.T.);
#246=EDGE_CURVE('',#255,#296,#353,.T.);
#247=EDGE_CURVE('',#296,#280,#354,.T.);
#248=EDGE_CURVE('',#277,#278,#32,.T.);
#249=VERTEX_POINT('',#706);
#250=VERTEX_POINT('',#707);
#251=VERTEX_POINT('',#709);
#252=VERTEX_POINT('',#711);
#253=VERTEX_POINT('',#713);
#254=VERTEX_POINT('',#715);
#255=VERTEX_POINT('',#717);
#256=VERTEX_POINT('',#719);
#257=VERTEX_POINT('',#721);
#258=VERTEX_POINT('',#723);
#259=VERTEX_POINT('',#725);
#260=VERTEX_POINT('',#727);
#261=VERTEX_POINT('',#729);
#262=VERTEX_POINT('',#731);
#263=VERTEX_POINT('',#733);
#264=VERTEX_POINT('',#735);
#265=VERTEX_POINT('',#737);
#266=VERTEX_POINT('',#739);
#267=VERTEX_POINT('',#741);
#268=VERTEX_POINT('',#743);
#269=VERTEX_POINT('',#745);
#270=VERTEX_POINT('',#747);
#271=VERTEX_POINT('',#749);
#272=VERTEX_POINT('',#751);
#273=VERTEX_POINT('',#755);
#274=VERTEX_POINT('',#757);
#275=VERTEX_POINT('',#761);
#276=VERTEX_POINT('',#763);
#277=VERTEX_POINT('',#767);
#278=VERTEX_POINT('',#771);
#279=VERTEX_POINT('',#775);
#280=VERTEX_POINT('',#777);
#281=VERTEX_POINT('',#781);
#282=VERTEX_POINT('',#783);
#283=VERTEX_POINT('',#787);
#284=VERTEX_POINT('',#789);
#285=VERTEX_POINT('',#793);
#286=VERTEX_POINT('',#795);
#287=VERTEX_POINT('',#799);
#288=VERTEX_POINT('',#803);
#289=VERTEX_POINT('',#809);
#290=VERTEX_POINT('',#813);
#291=VERTEX_POINT('',#819);
#292=VERTEX_POINT('',#823);
#293=VERTEX_POINT('',#829);
#294=VERTEX_POINT('',#833);
#295=VERTEX_POINT('',#839);
#296=VERTEX_POINT('',#843);
#297=LINE('',#705,#355);
#298=LINE('',#710,#356);
#299=LINE('',#714,#357);
#300=LINE('',#716,#358);
#301=LINE('',#718,#359);
#302=LINE('',#722,#360);
#303=LINE('',#724,#361);
#304=LINE('',#726,#362);
#305=LINE('',#730,#363);
#306=LINE('',#732,#364);
#307=LINE('',#734,#365);
#308=LINE('',#738,#366);
#309=LINE('',#740,#367);
#310=LINE('',#742,#368);
#311=LINE('',#746,#369);
#312=LINE('',#748,#370);
#313=LINE('',#750,#371);
#314=LINE('',#754,#372);
#315=LINE('',#756,#373);
#316=LINE('',#760,#374);
#317=LINE('',#762,#375);
#318=LINE('',#766,#376);
#319=LINE('',#768,#377);
#320=LINE('',#770,#378);
#321=LINE('',#772,#379);
#322=LINE('',#774,#380);
#323=LINE('',#776,#381);
#324=LINE('',#780,#382);
#325=LINE('',#782,#383);
#326=LINE('',#786,#384);
#327=LINE('',#788,#385);
#328=LINE('',#792,#386);
#329=LINE('',#794,#387);
#330=LINE('',#798,#388);
#331=LINE('',#800,#389);
#332=LINE('',#802,#390);
#333=LINE('',#804,#391);
#334=LINE('',#806,#392);
#335=LINE('',#808,#393);
#336=LINE('',#810,#394);
#337=LINE('',#812,#395);
#338=LINE('',#814,#396);
#339=LINE('',#816,#397);
#340=LINE('',#818,#398);
#341=LINE('',#820,#399);
#342=LINE('',#822,#400);
#343=LINE('',#824,#401);
#344=LINE('',#826,#402);
#345=LINE('',#828,#403);
#346=LINE('',#830,#404);
#347=LINE('',#832,#405);
#348=LINE('',#834,#406);
#349=LINE('',#836,#407);
#350=LINE('',#838,#408);
#351=LINE('',#840,#409);
#352=LINE('',#842,#410);
#353=LINE('',#844,#411);
#354=LINE('',#846,#412);
#355=VECTOR('',#567,1.);
#356=VECTOR('',#570,1.);
#357=VECTOR('',#573,1.);
#358=VECTOR('',#574,1.);
#359=VECTOR('',#575,1.);
#360=VECTOR('',#578,1.);
#361=VECTOR('',#579,1.);
#362=VECTOR('',#580,1.);
#363=VECTOR('',#583,1.);
#364=VECTOR('',#584,1.);
#365=VECTOR('',#585,1.);
#366=VECTOR('',#588,1.);
#367=VECTOR('',#589,1.);
#368=VECTOR('',#590,1.);
#369=VECTOR('',#593,1.);
#370=VECTOR('',#594,1.);
#371=VECTOR('',#595,1.);
#372=VECTOR('',#600,1.);
#373=VECTOR('',#601,1.);
#374=VECTOR('',#606,1.);
#375=VECTOR('',#607,1.);
#376=VECTOR('',#612,1.);
#377=VECTOR('',#613,1.);
#378=VECTOR('',#616,1.);
#379=VECTOR('',#617,1.);
#380=VECTOR('',#620,1.);
#381=VECTOR('',#621,1.);
#382=VECTOR('',#626,1.);
#383=VECTOR('',#627,1.);
#384=VECTOR('',#632,1.);
#385=VECTOR('',#633,1.);
#386=VECTOR('',#638,1.);
#387=VECTOR('',#639,1.);
#388=VECTOR('',#644,1.);
#389=VECTOR('',#645,1.);
#390=VECTOR('',#648,1.);
#391=VECTOR('',#649,1.);
#392=VECTOR('',#652,1.);
#393=VECTOR('',#655,1.);
#394=VECTOR('',#656,1.);
#395=VECTOR('',#659,1.);
#396=VECTOR('',#660,1.);
#397=VECTOR('',#663,1.);
#398=VECTOR('',#666,1.);
#399=VECTOR('',#667,1.);
#400=VECTOR('',#670,1.);
#401=VECTOR('',#671,1.);
#402=VECTOR('',#674,1.);
#403=VECTOR('',#677,1.);
#404=VECTOR('',#678,1.);
#405=VECTOR('',#681,1.);
#406=VECTOR('',#682,1.);
#407=VECTOR('',#685,1.);
#408=VECTOR('',#688,1.);
#409=VECTOR('',#689,1.);
#410=VECTOR('',#692,1.);
#411=VECTOR('',#693,1.);
#412=VECTOR('',#696,1.);
#413=EDGE_LOOP('',(#33,#34,#35,#36,#37,#38,#39,#40,#41,#42,#43,#44,#45,
#46,#47,#48,#49,#50,#51,#52,#53,#54,#55,#56));
#414=EDGE_LOOP('',(#57,#58,#59,#60));
#415=EDGE_LOOP('',(#61,#62,#63,#64));
#416=EDGE_LOOP('',(#65,#66,#67,#68));
#417=EDGE_LOOP('',(#69,#70,#71,#72));
#418=EDGE_LOOP('',(#73,#74,#75,#76));
#419=EDGE_LOOP('',(#77,#78,#79,#80));
#420=EDGE_LOOP('',(#81,#82,#83,#84));
#421=EDGE_LOOP('',(#85,#86,#87,#88));
#422=EDGE_LOOP('',(#89,#90,#91,#92));
#423=EDGE_LOOP('',(#93,#94,#95,#96));
#424=EDGE_LOOP('',(#97,#98,#99,#100));
#425=EDGE_LOOP('',(#101,#102,#103,#104));
#426=EDGE_LOOP('',(#105,#106,#107,#108));
#427=EDGE_LOOP('',(#109,#110,#111,#112));
#428=EDGE_LOOP('',(#113,#114,#115,#116));
#429=EDGE_LOOP('',(#117,#118,#119,#120));
#430=EDGE_LOOP('',(#121,#122,#123,#124));
#431=EDGE_LOOP('',(#125,#126,#127,#128));
#432=EDGE_LOOP('',(#129,#130,#131,#132));
#433=EDGE_LOOP('',(#133,#134,#135,#136));
#434=EDGE_LOOP('',(#137,#138,#139,#140));
#435=EDGE_LOOP('',(#141,#142,#143,#144));
#436=EDGE_LOOP('',(#145,#146,#147,#148));
#437=EDGE_LOOP('',(#149,#150,#151,#152,#153,#154,#155,#156,#157,#158,#159,
#160,#161,#162,#163,#164,#165,#166,#167,#168,#169,#170,#171,#172));
#438=EDGE_LOOP('',(#173,#174,#175,#176));
#439=FACE_BOUND('',#413,.T.);
#440=FACE_BOUND('',#414,.T.);
#441=FACE_BOUND('',#415,.T.);
#442=FACE_BOUND('',#416,.T.);
#443=FACE_BOUND('',#417,.T.);
#444=FACE_BOUND('',#418,.T.);
#445=FACE_BOUND('',#419,.T.);
#446=FACE_BOUND('',#420,.T.);
#447=FACE_BOUND('',#421,.T.);
#448=FACE_BOUND('',#422,.T.);
#449=FACE_BOUND('',#423,.T.);
#450=FACE_BOUND('',#424,.T.);
#451=FACE_BOUND('',#425,.T.);
#452=FACE_BOUND('',#426,.T.);
#453=FACE_BOUND('',#427,.T.);
#454=FACE_BOUND('',#428,.T.);
#455=FACE_BOUND('',#429,.T.);
#456=FACE_BOUND('',#430,.T.);
#457=FACE_BOUND('',#431,.T.);
#458=FACE_BOUND('',#432,.T.);
#459=FACE_BOUND('',#433,.T.);
#460=FACE_BOUND('',#434,.T.);
#461=FACE_BOUND('',#435,.T.);
#462=FACE_BOUND('',#436,.T.);
#463=FACE_BOUND('',#437,.T.);
#464=FACE_BOUND('',#438,.T.);
#465=PLANE('',#523);
#466=PLANE('',#535);
#467=PLANE('',#536);
#468=PLANE('',#545);
#469=PLANE('',#546);
#470=PLANE('',#547);
#471=PLANE('',#548);
#472=PLANE('',#549);
#473=PLANE('',#550);
#474=PLANE('',#551);
#475=PLANE('',#552);
#476=PLANE('',#553);
#477=PLANE('',#554);
#478=PLANE('',#555);
#479=PLANE('',#556);
#480=PLANE('',#557);
#481=PLANE('',#558);
#482=PLANE('',#559);
#483=PLANE('',#560);
#484=ADVANCED_FACE('',(#439),#465,.F.);
#485=ADVANCED_FACE('',(#440),#12,.T.);
#486=ADVANCED_FACE('',(#441),#13,.T.);
#487=ADVANCED_FACE('',(#442),#466,.F.);
#488=ADVANCED_FACE('',(#443),#467,.T.);
#489=ADVANCED_FACE('',(#444),#14,.T.);
#490=ADVANCED_FACE('',(#445),#15,.T.);
#491=ADVANCED_FACE('',(#446),#16,.T.);
#492=ADVANCED_FACE('',(#447),#17,.T.);
#493=ADVANCED_FACE('',(#448),#468,.F.);
#494=ADVANCED_FACE('',(#449),#469,.F.);
#495=ADVANCED_FACE('',(#450),#470,.F.);
#496=ADVANCED_FACE('',(#451),#471,.F.);
#497=ADVANCED_FACE('',(#452),#472,.F.);
#498=ADVANCED_FACE('',(#453),#473,.F.);
#499=ADVANCED_FACE('',(#454),#474,.F.);
#500=ADVANCED_FACE('',(#455),#475,.F.);
#501=ADVANCED_FACE('',(#456),#476,.F.);
#502=ADVANCED_FACE('',(#457),#477,.F.);
#503=ADVANCED_FACE('',(#458),#478,.F.);
#504=ADVANCED_FACE('',(#459),#479,.F.);
#505=ADVANCED_FACE('',(#460),#480,.F.);
#506=ADVANCED_FACE('',(#461),#481,.F.);
#507=ADVANCED_FACE('',(#462),#482,.F.);
#508=ADVANCED_FACE('',(#463),#483,.T.);
#509=ADVANCED_FACE('',(#464),#18,.F.);
#510=CLOSED_SHELL('',(#484,#485,#486,#487,#488,#489,#490,#491,#492,#493,
#494,#495,#496,#497,#498,#499,#500,#501,#502,#503,#504,#505,#506,#507,#508,
#509));
#511=STYLED_ITEM('',(#512),#519);
#512=PRESENTATION_STYLE_ASSIGNMENT((#513));
#513=SURFACE_STYLE_USAGE(.BOTH.,#514);
#514=SURFACE_SIDE_STYLE('',(#515));
#515=SURFACE_STYLE_FILL_AREA(#516);
#516=FILL_AREA_STYLE('',(#517));
#517=FILL_AREA_STYLE_COLOUR('',#518);
#518=COLOUR_RGB('',0.701960784313725,0.701960784313725,0.701960784313725);
#519=MANIFOLD_SOLID_BREP('Cover',#510);
#520=SHAPE_DEFINITION_REPRESENTATION(#856,#521);
#521=SHAPE_REPRESENTATION('Cover',(#522),#851);
#522=AXIS2_PLACEMENT_3D('',#703,#563,#564);
#523=AXIS2_PLACEMENT_3D('',#704,#565,#566);
#524=AXIS2_PLACEMENT_3D('',#708,#568,#569);
#525=AXIS2_PLACEMENT_3D('',#712,#571,#572);
#526=AXIS2_PLACEMENT_3D('',#720,#576,#577);
#527=AXIS2_PLACEMENT_3D('',#728,#581,#582);
#528=AXIS2_PLACEMENT_3D('',#736,#586,#587);
#529=AXIS2_PLACEMENT_3D('',#744,#591,#592);
#530=AXIS2_PLACEMENT_3D('',#752,#596,#597);
#531=AXIS2_PLACEMENT_3D('',#753,#598,#599);
#532=AXIS2_PLACEMENT_3D('',#758,#602,#603);
#533=AXIS2_PLACEMENT_3D('',#759,#604,#605);
#534=AXIS2_PLACEMENT_3D('',#764,#608,#609);
#535=AXIS2_PLACEMENT_3D('',#765,#610,#611);
#536=AXIS2_PLACEMENT_3D('',#769,#614,#615);
#537=AXIS2_PLACEMENT_3D('',#773,#618,#619);
#538=AXIS2_PLACEMENT_3D('',#778,#622,#623);
#539=AXIS2_PLACEMENT_3D('',#779,#624,#625);
#540=AXIS2_PLACEMENT_3D('',#784,#628,#629);
#541=AXIS2_PLACEMENT_3D('',#785,#630,#631);
#542=AXIS2_PLACEMENT_3D('',#790,#634,#635);
#543=AXIS2_PLACEMENT_3D('',#791,#636,#637);
#544=AXIS2_PLACEMENT_3D('',#796,#640,#641);
#545=AXIS2_PLACEMENT_3D('',#797,#642,#643);
#546=AXIS2_PLACEMENT_3D('',#801,#646,#647);
#547=AXIS2_PLACEMENT_3D('',#805,#650,#651);
#548=AXIS2_PLACEMENT_3D('',#807,#653,#654);
#549=AXIS2_PLACEMENT_3D('',#811,#657,#658);
#550=AXIS2_PLACEMENT_3D('',#815,#661,#662);
#551=AXIS2_PLACEMENT_3D('',#817,#664,#665);
#552=AXIS2_PLACEMENT_3D('',#821,#668,#669);
#553=AXIS2_PLACEMENT_3D('',#825,#672,#673);
#554=AXIS2_PLACEMENT_3D('',#827,#675,#676);
#555=AXIS2_PLACEMENT_3D('',#831,#679,#680);
#556=AXIS2_PLACEMENT_3D('',#835,#683,#684);
#557=AXIS2_PLACEMENT_3D('',#837,#686,#687);
#558=AXIS2_PLACEMENT_3D('',#841,#690,#691);
#559=AXIS2_PLACEMENT_3D('',#845,#694,#695);
#560=AXIS2_PLACEMENT_3D('',#847,#697,#698);
#561=AXIS2_PLACEMENT_3D('',#848,#699,#700);
#562=AXIS2_PLACEMENT_3D('',#849,#701,#702);
#563=DIRECTION('',(0.,0.,1.));
#564=DIRECTION('',(1.,0.,0.));
#565=DIRECTION('',(0.,-0.841109282515985,0.540865209516608));
#566=DIRECTION('',(0.,-0.540865209516608,-0.841109282515985));
#567=DIRECTION('',(0.785679854355605,-0.334597232299616,-0.520338215584049));
#568=DIRECTION('',(0.,-0.841109282515985,0.540865209516608));
#569=DIRECTION('',(0.,-0.540865209516608,-0.841109282515985));
#570=DIRECTION('',(-0.785679854355606,-0.334597232299615,-0.520338215584048));
#571=DIRECTION('',(0.,-0.841109282515985,0.540865209516608));
#572=DIRECTION('',(0.,-0.540865209516608,-0.841109282515985));
#573=DIRECTION('',(-0.824459199500903,-0.306087195329109,-0.476001740767709));
#574=DIRECTION('',(0.436831458110721,-0.486531714094203,-0.756614279792166));
#575=DIRECTION('',(0.824459199500903,0.306087195329109,0.476001740767709));
#576=DIRECTION('',(0.,0.841109282515985,-0.540865209516608));
#577=DIRECTION('',(0.,-0.540865209516608,-0.841109282515985));
#578=DIRECTION('',(-0.824459199500903,0.306087195329109,0.47600174076771));
#579=DIRECTION('',(-0.436831458110722,-0.486531714094203,-0.756614279792166));
#580=DIRECTION('',(0.824459199500903,-0.306087195329109,-0.47600174076771));
#581=DIRECTION('',(0.,0.841109282515985,-0.540865209516608));
#582=DIRECTION('',(0.,-0.540865209516608,-0.841109282515985));
#583=DIRECTION('',(-6.42572231155378E-18,0.540865209516608,0.841109282515986));
#584=DIRECTION('',(-1.,7.87494397426399E-17,1.22464679914735E-16));
#585=DIRECTION('',(-1.03006179056633E-16,-0.540865209516608,-0.841109282515986));
#586=DIRECTION('',(0.,0.841109282515985,-0.540865209516608));
#587=DIRECTION('',(0.,-0.540865209516608,-0.841109282515985));
#588=DIRECTION('',(0.824459199500903,0.306087195329109,0.47600174076771));
#589=DIRECTION('',(-0.436831458110721,0.486531714094203,0.756614279792166));
#590=DIRECTION('',(-0.824459199500903,-0.306087195329109,-0.47600174076771));
#591=DIRECTION('',(0.,0.841109282515985,-0.540865209516608));
#592=DIRECTION('',(0.,-0.540865209516608,-0.841109282515985));
#593=DIRECTION('',(0.824459199500903,-0.306087195329109,-0.47600174076771));
#594=DIRECTION('',(0.436831458110722,0.486531714094203,0.756614279792166));
#595=DIRECTION('',(-0.824459199500903,0.306087195329109,0.47600174076771));
#596=DIRECTION('',(0.,-0.841109282515985,0.540865209516608));
#597=DIRECTION('',(0.,-0.540865209516608,-0.841109282515985));
#598=DIRECTION('',(0.,-1.,0.));
#599=DIRECTION('',(0.,0.,-1.));
#600=DIRECTION('',(0.,-1.,0.));
#601=DIRECTION('',(0.,-1.,0.));
#602=DIRECTION('',(0.,-0.841109282515985,0.540865209516608));
#603=DIRECTION('',(0.,-0.540865209516608,-0.841109282515985));
#604=DIRECTION('',(0.,-1.,0.));
#605=DIRECTION('',(0.,0.,-1.));
#606=DIRECTION('',(0.,-1.,0.));
#607=DIRECTION('',(0.,-1.,0.));
#608=DIRECTION('',(0.,-0.841109282515985,0.540865209516608));
#609=DIRECTION('',(0.,-0.540865209516608,-0.841109282515985));
#610=DIRECTION('',(-0.552164284512639,0.,-0.833735331450363));
#611=DIRECTION('',(-0.833735331450363,0.,0.552164284512639));
#612=DIRECTION('',(0.785679854355605,-0.334597232299616,-0.520338215584049));
#613=DIRECTION('',(0.,-1.,0.));
#614=DIRECTION('',(-0.552164284512637,0.,0.833735331450363));
#615=DIRECTION('',(0.833735331450363,0.,0.552164284512637));
#616=DIRECTION('',(0.,-1.,0.));
#617=DIRECTION('',(-0.785679854355606,-0.334597232299615,-0.520338215584048));
#618=DIRECTION('',(0.,-1.,0.));
#619=DIRECTION('',(0.,0.,-1.));
#620=DIRECTION('',(0.,-1.,0.));
#621=DIRECTION('',(0.,-1.,0.));
#622=DIRECTION('',(0.,-0.841109282515985,0.540865209516608));
#623=DIRECTION('',(0.,-0.540865209516608,-0.841109282515985));
#624=DIRECTION('',(0.,-1.,0.));
#625=DIRECTION('',(0.,0.,-1.));
#626=DIRECTION('',(0.,-1.,0.));
#627=DIRECTION('',(0.,-1.,0.));
#628=DIRECTION('',(0.,-0.841109282515985,0.540865209516608));
#629=DIRECTION('',(0.,-0.540865209516608,-0.841109282515985));
#630=DIRECTION('',(0.,-1.,0.));
#631=DIRECTION('',(0.,0.,-1.));
#632=DIRECTION('',(0.,-1.,0.));
#633=DIRECTION('',(0.,-1.,0.));
#634=DIRECTION('',(0.,-0.841109282515985,0.540865209516608));
#635=DIRECTION('',(0.,-0.540865209516608,-0.841109282515985));
#636=DIRECTION('',(0.,-1.,0.));
#637=DIRECTION('',(0.,0.,-1.));
#638=DIRECTION('',(0.,-1.,0.));
#639=DIRECTION('',(0.,-1.,0.));
#640=DIRECTION('',(0.,-0.841109282515985,0.540865209516608));
#641=DIRECTION('',(0.,-0.540865209516608,-0.841109282515985));
#642=DIRECTION('',(-0.5,0.,-0.866025403784439));
#643=DIRECTION('',(-0.866025403784439,0.,0.5));
#644=DIRECTION('',(0.824459199500903,-0.306087195329109,-0.47600174076771));
#645=DIRECTION('',(0.,-1.,0.));
#646=DIRECTION('',(0.866025403784439,0.,-0.5));
#647=DIRECTION('',(-0.5,0.,-0.866025403784439));
#648=DIRECTION('',(0.436831458110722,0.486531714094203,0.756614279792166));
#649=DIRECTION('',(0.,-1.,0.));
#650=DIRECTION('',(0.5,0.,0.866025403784439));
#651=DIRECTION('',(0.866025403784439,0.,-0.5));
#652=DIRECTION('',(-0.824459199500903,0.306087195329109,0.47600174076771));
#653=DIRECTION('',(0.5,0.,-0.866025403784439));
#654=DIRECTION('',(-0.866025403784439,0.,-0.5));
#655=DIRECTION('',(0.824459199500903,0.306087195329109,0.47600174076771));
#656=DIRECTION('',(0.,-1.,0.));
#657=DIRECTION('',(0.866025403784439,0.,0.5));
#658=DIRECTION('',(0.5,0.,-0.866025403784439));
#659=DIRECTION('',(-0.436831458110721,0.486531714094203,0.756614279792166));
#660=DIRECTION('',(0.,-1.,0.));
#661=DIRECTION('',(-0.5,0.,0.866025403784439));
#662=DIRECTION('',(0.866025403784439,0.,0.5));
#663=DIRECTION('',(-0.824459199500903,-0.306087195329109,-0.47600174076771));
#664=DIRECTION('',(1.,0.,7.63958078352519E-18));
#665=DIRECTION('',(7.63958078352519E-18,0.,-1.));
#666=DIRECTION('',(-6.42572231155378E-18,0.540865209516608,0.841109282515985));
#667=DIRECTION('',(0.,-1.,0.));
#668=DIRECTION('',(1.22464679914735E-16,0.,1.));
#669=DIRECTION('',(1.,0.,-1.22464679914735E-16));
#670=DIRECTION('',(-1.,7.87494397426399E-17,1.22464679914735E-16));
#671=DIRECTION('',(0.,-1.,0.));
#672=DIRECTION('',(-1.,0.,1.22464679914735E-16));
#673=DIRECTION('',(1.22464679914735E-16,0.,1.));
#674=DIRECTION('',(-1.03006179056633E-16,-0.540865209516608,-0.841109282515985));
#675=DIRECTION('',(0.5,0.,0.866025403784438));
#676=DIRECTION('',(0.866025403784439,0.,-0.5));
#677=DIRECTION('',(-0.824459199500903,0.306087195329109,0.47600174076771));
#678=DIRECTION('',(0.,-1.,0.));
#679=DIRECTION('',(-0.866025403784438,0.,0.5));
#680=DIRECTION('',(0.5,0.,0.866025403784438));
#681=DIRECTION('',(-0.436831458110722,-0.486531714094203,-0.756614279792166));
#682=DIRECTION('',(0.,-1.,0.));
#683=DIRECTION('',(-0.5,0.,-0.866025403784438));
#684=DIRECTION('',(-0.866025403784438,0.,0.5));
#685=DIRECTION('',(0.824459199500903,-0.306087195329109,-0.47600174076771));
#686=DIRECTION('',(-0.5,0.,0.866025403784439));
#687=DIRECTION('',(0.866025403784439,0.,0.5));
#688=DIRECTION('',(-0.824459199500903,-0.306087195329109,-0.476001740767709));
#689=DIRECTION('',(0.,-1.,0.));
#690=DIRECTION('',(-0.866025403784439,0.,-0.5));
#691=DIRECTION('',(-0.5,0.,0.866025403784439));
#692=DIRECTION('',(0.436831458110721,-0.486531714094203,-0.756614279792166));
#693=DIRECTION('',(0.,-1.,0.));
#694=DIRECTION('',(0.5,0.,-0.866025403784439));
#695=DIRECTION('',(-0.866025403784439,0.,-0.5));
#696=DIRECTION('',(0.824459199500903,0.306087195329109,0.476001740767709));
#697=DIRECTION('',(0.,-0.841109282515985,0.540865209516608));
#698=DIRECTION('',(0.,-0.540865209516608,-0.841109282515985));
#699=DIRECTION('',(0.,-0.841109282515985,0.540865209516608));
#700=DIRECTION('',(0.,-0.540865209516608,-0.841109282515985));
#701=DIRECTION('',(0.,-1.,0.));
#702=DIRECTION('',(0.,0.,-1.));
#703=CARTESIAN_POINT('',(0.,0.,0.));
#704=CARTESIAN_POINT('',(0.1016,0.1016,-0.00635));
#705=CARTESIAN_POINT('',(0.0823034228492294,0.0883449415482837,-0.0269631814505037));
#706=CARTESIAN_POINT('',(-0.01905,0.131508291838408,0.0401609262841385));
#707=CARTESIAN_POINT('',(-0.00931973052735643,0.127364465040473,0.0337167861849884));
#708=CARTESIAN_POINT('',(-3.64291929955129E-17,0.126099746835443,0.03175));
#709=CARTESIAN_POINT('',(0.00931973052735638,0.127364465040473,0.0337167861849883));
#710=CARTESIAN_POINT('',(0.0431304809261486,0.141763438671645,0.0561088908476369));
#711=CARTESIAN_POINT('',(0.01905,0.131508291838408,0.0401609262841384));
#712=CARTESIAN_POINT('',(-4.99282536605411E-18,0.10568329113924,1.38777878078145E-17));
#713=CARTESIAN_POINT('',(0.0369070550159733,0.121612884911281,0.0247723997636062));
#714=CARTESIAN_POINT('',(0.0407519405289385,0.123040329985261,0.02699224544952));
#715=CARTESIAN_POINT('',(0.028246800978129,0.118397695037863,0.0197723997636063));
#716=CARTESIAN_POINT('',(0.0221651412609757,0.125171292203968,0.0303061433880607));
#717=CARTESIAN_POINT('',(0.031246800978129,0.115056371707819,0.0145762473408996));
#718=CARTESIAN_POINT('',(0.0445951448692384,0.120012053136799,0.0222829172796674));
#719=CARTESIAN_POINT('',(0.0399070550159733,0.118271561581237,0.0195762473408996));
#720=CARTESIAN_POINT('',(-4.99282536605411E-18,0.10568329113924,1.38777878078145E-17));
#721=CARTESIAN_POINT('',(0.0399070550159733,0.0930950206972443,-0.0195762473408996));
#722=CARTESIAN_POINT('',(0.0210166235560075,0.100108247291887,-0.00866985165238025));
#723=CARTESIAN_POINT('',(0.0312468009781289,0.096310210570662,-0.0145762473408997));
#724=CARTESIAN_POINT('',(0.0420227658532596,0.108312204850999,0.00408827132340433));
#725=CARTESIAN_POINT('',(0.0282468009781289,0.0929688872406177,-0.0197723997636063));
#726=CARTESIAN_POINT('',(0.0171734192157075,0.097079970443425,-0.0133791798222328));
#727=CARTESIAN_POINT('',(0.0369070550159733,0.0897536973672,-0.0247723997636063));
#728=CARTESIAN_POINT('',(-4.99282536605411E-18,0.10568329113924,1.38777878078145E-17));
#729=CARTESIAN_POINT('',(0.003,0.0771654269252038,-0.0443486471045059));
#730=CARTESIAN_POINT('',(0.003,0.101448819657138,-0.00658510328909608));
#731=CARTESIAN_POINT('',(0.003,0.0835958066720393,-0.0343486471045059));
#732=CARTESIAN_POINT('',(-1.00584686186729E-17,0.0835958066720393,-0.0343486471045059));
#733=CARTESIAN_POINT('',(-0.003,0.0835958066720393,-0.0343486471045059));
#734=CARTESIAN_POINT('',(-0.003,0.101448819657138,-0.00658510328909608));
#735=CARTESIAN_POINT('',(-0.003,0.0771654269252038,-0.0443486471045059));
#736=CARTESIAN_POINT('',(-4.99282536605411E-18,0.10568329113924,1.38777878078145E-17));
#737=CARTESIAN_POINT('',(-0.0369070550159733,0.0897536973672,-0.0247723997636063));
#738=CARTESIAN_POINT('',(-0.0171734192157076,0.097079970443425,-0.0133791798222328));
#739=CARTESIAN_POINT('',(-0.028246800978129,0.0929688872406177,-0.0197723997636063));
#740=CARTESIAN_POINT('',(-0.0420227658532596,0.108312204850999,0.00408827132340437));
#741=CARTESIAN_POINT('',(-0.031246800978129,0.096310210570662,-0.0145762473408996));
#742=CARTESIAN_POINT('',(-0.0210166235560075,0.100108247291887,-0.00866985165238024));
#743=CARTESIAN_POINT('',(-0.0399070550159733,0.0930950206972443,-0.0195762473408996));
#744=CARTESIAN_POINT('',(-4.99282536605411E-18,0.10568329113924,1.38777878078145E-17));
#745=CARTESIAN_POINT('',(-0.0399070550159733,0.118271561581237,0.0195762473408996));
#746=CARTESIAN_POINT('',(-0.0445951448692384,0.120012053136799,0.0222829172796674));
#747=CARTESIAN_POINT('',(-0.031246800978129,0.115056371707819,0.0145762473408996));
#748=CARTESIAN_POINT('',(-0.0221651412609757,0.125171292203968,0.0303061433880608));
#749=CARTESIAN_POINT('',(-0.028246800978129,0.118397695037863,0.0197723997636063));
#750=CARTESIAN_POINT('',(-0.0407519405289385,0.123040329985261,0.0269922454495201));
#751=CARTESIAN_POINT('',(-0.0369070550159733,0.121612884911281,0.0247723997636063));
#752=CARTESIAN_POINT('',(-4.99282536605411E-18,0.10568329113924,1.38777878078145E-17));
#753=CARTESIAN_POINT('',(-4.99282536605411E-18,0.1524,1.38777878078145E-17));
#754=CARTESIAN_POINT('',(-0.01905,0.1524,0.0401609262841385));
#755=CARTESIAN_POINT('',(-0.01905,0.125158291838408,0.0401609262841385));
#756=CARTESIAN_POINT('',(-0.0369070550159733,0.1524,0.0247723997636062));
#757=CARTESIAN_POINT('',(-0.0369070550159733,0.115262884911281,0.0247723997636062));
#758=CARTESIAN_POINT('',(-4.99282536605411E-18,0.0993332911392405,1.38777878078145E-17));
#759=CARTESIAN_POINT('',(-4.99282536605411E-18,0.1524,1.38777878078145E-17));
#760=CARTESIAN_POINT('',(0.0369070550159733,0.1524,0.0247723997636062));
#761=CARTESIAN_POINT('',(0.0369070550159733,0.115262884911281,0.0247723997636062));
#762=CARTESIAN_POINT('',(0.01905,0.1524,0.0401609262841384));
#763=CARTESIAN_POINT('',(0.01905,0.125158291838408,0.0401609262841384));
#764=CARTESIAN_POINT('',(-4.99282536605411E-18,0.0993332911392405,1.38777878078145E-17));
#765=CARTESIAN_POINT('',(-0.0141848652636782,0.1524,0.0369388562345634));
#766=CARTESIAN_POINT('',(0.0786339792711361,0.0835576463300127,-0.0245329909434842));
#767=CARTESIAN_POINT('',(-0.0093197305273564,0.121014465040474,0.0337167861849884));
#768=CARTESIAN_POINT('',(-0.0093197305273564,0.1524,0.0337167861849884));
#769=CARTESIAN_POINT('',(0.0141848652636782,0.1524,0.0369388562345634));
#770=CARTESIAN_POINT('',(0.00931973052735641,0.1524,0.0337167861849884));
#771=CARTESIAN_POINT('',(0.00931973052735637,0.121014465040473,0.0337167861849883));
#772=CARTESIAN_POINT('',(0.0467999245042419,0.136976143453374,0.0585390813546563));
#773=CARTESIAN_POINT('',(-4.99282536605411E-18,0.1524,1.38777878078145E-17));
#774=CARTESIAN_POINT('',(0.0399070550159733,0.1524,-0.0195762473408996));
#775=CARTESIAN_POINT('',(0.0399070550159733,0.0867450206972443,-0.0195762473408996));
#776=CARTESIAN_POINT('',(0.0399070550159733,0.1524,0.0195762473408996));
#777=CARTESIAN_POINT('',(0.0399070550159733,0.111921561581237,0.0195762473408996));
#778=CARTESIAN_POINT('',(-4.99282536605411E-18,0.0993332911392405,1.38777878078145E-17));
#779=CARTESIAN_POINT('',(-4.99282536605411E-18,0.1524,1.38777878078145E-17));
#780=CARTESIAN_POINT('',(0.003,0.1524,-0.0443486471045059));
#781=CARTESIAN_POINT('',(0.003,0.0708154269252038,-0.0443486471045059));
#782=CARTESIAN_POINT('',(0.0369070550159733,0.1524,-0.0247723997636063));
#783=CARTESIAN_POINT('',(0.0369070550159733,0.0834036973672,-0.0247723997636063));
#784=CARTESIAN_POINT('',(-4.99282536605411E-18,0.0993332911392405,1.38777878078145E-17));
#785=CARTESIAN_POINT('',(-4.99282536605411E-18,0.1524,1.38777878078145E-17));
#786=CARTESIAN_POINT('',(-0.0369070550159733,0.1524,-0.0247723997636063));
#787=CARTESIAN_POINT('',(-0.0369070550159733,0.0834036973672001,-0.0247723997636062));
#788=CARTESIAN_POINT('',(-0.003,0.1524,-0.0443486471045059));
#789=CARTESIAN_POINT('',(-0.003,0.0708154269252038,-0.0443486471045059));
#790=CARTESIAN_POINT('',(-4.99282536605411E-18,0.0993332911392405,1.38777878078145E-17));
#791=CARTESIAN_POINT('',(-4.99282536605411E-18,0.1524,1.38777878078145E-17));
#792=CARTESIAN_POINT('',(-0.0399070550159733,0.1524,0.0195762473408996));
#793=CARTESIAN_POINT('',(-0.0399070550159733,0.111921561581237,0.0195762473408996));
#794=CARTESIAN_POINT('',(-0.0399070550159733,0.1524,-0.0195762473408996));
#795=CARTESIAN_POINT('',(-0.0399070550159733,0.0867450206972443,-0.0195762473408996));
#796=CARTESIAN_POINT('',(-4.99282536605411E-18,0.0993332911392405,1.38777878078145E-17));
#797=CARTESIAN_POINT('',(-0.0355769279970511,0.1524,0.0170762473408996));
#798=CARTESIAN_POINT('',(0.0671392677486437,0.0721797420646964,-0.0422269759230115));
#799=CARTESIAN_POINT('',(-0.031246800978129,0.108706371707819,0.0145762473408996));
#800=CARTESIAN_POINT('',(-0.031246800978129,0.1524,0.0145762473408996));
#801=CARTESIAN_POINT('',(-0.0297468009781289,0.1524,0.0171743235522529));
#802=CARTESIAN_POINT('',(-0.0127064665211315,0.129356122397149,0.0466890486097391));
#803=CARTESIAN_POINT('',(-0.0282468009781289,0.112047695037863,0.0197723997636063));
#804=CARTESIAN_POINT('',(-0.0282468009781289,0.1524,0.0197723997636063));
#805=CARTESIAN_POINT('',(-0.0325769279970511,0.1524,0.0222723997636063));
#806=CARTESIAN_POINT('',(0.0709824720889436,0.0752080189131586,-0.0375176477531589));
#807=CARTESIAN_POINT('',(-0.0325769279970511,0.1524,-0.0222723997636062));
#808=CARTESIAN_POINT('',(0.0709824720889436,0.123458563365322,0.0375176477531589));
#809=CARTESIAN_POINT('',(-0.028246800978129,0.0866188872406178,-0.0197723997636063));
#810=CARTESIAN_POINT('',(-0.028246800978129,0.1524,-0.0197723997636063));
#811=CARTESIAN_POINT('',(-0.0297468009781289,0.1524,-0.0171743235522529));
#812=CARTESIAN_POINT('',(-0.0127064665211315,0.0693104598813323,-0.0466890486097391));
#813=CARTESIAN_POINT('',(-0.0312468009781289,0.089960210570662,-0.0145762473408996));
#814=CARTESIAN_POINT('',(-0.031246800978129,0.1524,-0.0145762473408996));
#815=CARTESIAN_POINT('',(-0.0355769279970512,0.1524,-0.0170762473408996));
#816=CARTESIAN_POINT('',(0.0671392677486437,0.126486840213785,0.0422269759230115));
#817=CARTESIAN_POINT('',(0.003,0.1524,-0.0393486471045059));
#818=CARTESIAN_POINT('',(0.003,0.0993332911392405,9.87543401610541E-18));
#819=CARTESIAN_POINT('',(0.003,0.0772458066720393,-0.0343486471045059));
#820=CARTESIAN_POINT('',(0.003,0.1524,-0.0343486471045059));
#821=CARTESIAN_POINT('',(-4.64017694215172E-18,0.1524,-0.0343486471045059));
#822=CARTESIAN_POINT('',(0.1016,0.0772458066720392,-0.0343486471045059));
#823=CARTESIAN_POINT('',(-0.003,0.0772458066720393,-0.0343486471045059));
#824=CARTESIAN_POINT('',(-0.003,0.1524,-0.0343486471045059));
#825=CARTESIAN_POINT('',(-0.003,0.1524,-0.0393486471045059));
#826=CARTESIAN_POINT('',(-0.003,0.0993332911392405,1.94708276774254E-17));
#827=CARTESIAN_POINT('',(0.0355769279970511,0.1524,-0.0170762473408996));
#828=CARTESIAN_POINT('',(0.0709824720889436,0.0752080189131586,-0.0375176477531589));
#829=CARTESIAN_POINT('',(0.0312468009781289,0.089960210570662,-0.0145762473408996));
#830=CARTESIAN_POINT('',(0.0312468009781289,0.1524,-0.0145762473408997));
#831=CARTESIAN_POINT('',(0.0297468009781289,0.1524,-0.0171743235522529));
#832=CARTESIAN_POINT('',(0.0514814405931038,0.11249703504418,0.0204711765450828));
#833=CARTESIAN_POINT('',(0.0282468009781289,0.0866188872406177,-0.0197723997636063));
#834=CARTESIAN_POINT('',(0.0282468009781289,0.1524,-0.0197723997636063));
#835=CARTESIAN_POINT('',(0.0325769279970511,0.1524,-0.0222723997636063));
#836=CARTESIAN_POINT('',(0.0671392677486436,0.0721797420646964,-0.0422269759230115));
#837=CARTESIAN_POINT('',(0.0325769279970511,0.1524,0.0222723997636062));
#838=CARTESIAN_POINT('',(0.0671392677486438,0.126486840213785,0.0422269759230115));
#839=CARTESIAN_POINT('',(0.028246800978129,0.112047695037863,0.0197723997636063));
#840=CARTESIAN_POINT('',(0.028246800978129,0.1524,0.0197723997636063));
#841=CARTESIAN_POINT('',(0.0297468009781289,0.1524,0.0171743235522529));
#842=CARTESIAN_POINT('',(0.0514814405931037,0.0861695472343012,-0.0204711765450828));
#843=CARTESIAN_POINT('',(0.031246800978129,0.108706371707819,0.0145762473408996));
#844=CARTESIAN_POINT('',(0.031246800978129,0.1524,0.0145762473408996));
#845=CARTESIAN_POINT('',(0.0355769279970512,0.1524,0.0170762473408996));
#846=CARTESIAN_POINT('',(0.0709824720889437,0.123458563365322,0.0375176477531589));
#847=CARTESIAN_POINT('',(0.1016,0.0993332911392405,1.04083408558608E-17));
#848=CARTESIAN_POINT('',(-3.64291929955129E-17,0.119749746835443,0.03175));
#849=CARTESIAN_POINT('',(-3.64291929955129E-17,0.2032,0.03175));
#850=MECHANICAL_DESIGN_GEOMETRIC_PRESENTATION_REPRESENTATION('',(#511),
#851);
#851=(
GEOMETRIC_REPRESENTATION_CONTEXT(3)
GLOBAL_UNCERTAINTY_ASSIGNED_CONTEXT((#852))
GLOBAL_UNIT_ASSIGNED_CONTEXT((#855,#854,#853))
REPRESENTATION_CONTEXT('Cover','TOP_LEVEL_ASSEMBLY_PART')
);
#852=UNCERTAINTY_MEASURE_WITH_UNIT(LENGTH_MEASURE(1.E-8),#855,
'DISTANCE_ACCURACY_VALUE','Maximum Tolerance applied to model');
#853=(
NAMED_UNIT(*)
SI_UNIT($,.STERADIAN.)
SOLID_ANGLE_UNIT()
);
#854=(
NAMED_UNIT(*)
PLANE_ANGLE_UNIT()
SI_UNIT($,.RADIAN.)
);
#855=(
LENGTH_UNIT()
NAMED_UNIT(*)
SI_UNIT($,.METRE.)
);
#856=PRODUCT_DEFINITION_SHAPE('','',#857);
#857=PRODUCT_DEFINITION('','',#859,#858);
#858=PRODUCT_DEFINITION_CONTEXT('',#865,'design');
#859=PRODUCT_DEFINITION_FORMATION_WITH_SPECIFIED_SOURCE('','',#861,
 .NOT_KNOWN.);
#860=PRODUCT_RELATED_PRODUCT_CATEGORY('','',(#861));
#861=PRODUCT('Cover','Cover','Cover',(#863));
#862=PRODUCT_CATEGORY('','');
#863=PRODUCT_CONTEXT('',#865,'mechanical');
#864=APPLICATION_PROTOCOL_DEFINITION('international standard',
'ap242_managed_model_based_3d_engineering',2020,#865);
#865=APPLICATION_CONTEXT('managed model based 3d engineering');
ENDSEC;
END-ISO-10303-21;
