ISO-10303-21;
HEADER;
/* Generated by software containing ST-Developer
 * from STEP Tools, Inc. (www.steptools.com) 
 */
/* OPTION: using custom renumber hook */

FILE_DESCRIPTION(
/* description */ ('STEP AP242 Edition 2',
'CAx-IF Rec.Pracs.---Representation and Presentation of Product Manufa
cturing Information (PMI)---4.0---2014-10-13',
'CAx-IF Rec.Pracs.---3D Tessellated Geometry---0.4---2014-09-14','2;1',
'CAx-IF Rec.Pracs.---User Defined Attributes---1.5---2016-08-15'),
/* implementation_level */ '2;1');

FILE_NAME(
/* name */ 'Front Hull and Nose - Nose Ring',
/* time_stamp */ '2026-08-24T02:47:26Z',
/* author */ (''),
/* organization */ (''),
/* preprocessor_version */ 'ST-DEVELOPER v20',
/* originating_system */ 'ONSHAPE BY PTC INC, 1.219',
/* authorisation */ '  ');

FILE_SCHEMA (('AP242_MANAGED_MODEL_BASED_3D_ENGINEERING_MIM_LF { 1 0 10303 442 3 1 4 }'));
ENDSEC;

DATA;
#10=SHAPE_REPRESENTATION_RELATIONSHIP('','',#995,#11);
#11=ADVANCED_BREP_SHAPE_REPRESENTATION('',(#993),#1753);
#12=B_SPLINE_CURVE_WITH_KNOTS('',3,(#1558,#1559,#1560,#1561),
 .UNSPECIFIED.,.F.,.F.,(4,4),(0.0842508503642259,0.0906394079644633),
 .UNSPECIFIED.);
#13=B_SPLINE_CURVE_WITH_KNOTS('',3,(#1562,#1563,#1564,#1565),
 .UNSPECIFIED.,.F.,.F.,(4,4),(0.0842508503642259,0.0906394079644633),
 .UNSPECIFIED.);
#14=B_SPLINE_CURVE_WITH_KNOTS('',3,(#1582,#1583,#1584,#1585),
 .UNSPECIFIED.,.F.,.F.,(4,4),(0.0842508503642089,0.0906394079644633),
 .UNSPECIFIED.);
#15=B_SPLINE_CURVE_WITH_KNOTS('',3,(#1586,#1587,#1588,#1589),
 .UNSPECIFIED.,.F.,.F.,(4,4),(0.0842508503642089,0.0906394079644633),
 .UNSPECIFIED.);
#16=B_SPLINE_CURVE_WITH_KNOTS('',3,(#1606,#1607,#1608,#1609),
 .UNSPECIFIED.,.F.,.F.,(4,4),(0.0842508503642089,0.0906394079644633),
 .UNSPECIFIED.);
#17=B_SPLINE_CURVE_WITH_KNOTS('',3,(#1610,#1611,#1612,#1613),
 .UNSPECIFIED.,.F.,.F.,(4,4),(0.084250850364226,0.0906394079644633),
 .UNSPECIFIED.);
#18=B_SPLINE_CURVE_WITH_KNOTS('',3,(#1630,#1631,#1632,#1633),
 .UNSPECIFIED.,.F.,.F.,(4,4),(0.084250850364226,0.0906394079644633),
 .UNSPECIFIED.);
#19=B_SPLINE_CURVE_WITH_KNOTS('',3,(#1634,#1635,#1636,#1637),
 .UNSPECIFIED.,.F.,.F.,(4,4),(0.0842508503642259,0.0906394079644633),
 .UNSPECIFIED.);
#20=B_SPLINE_CURVE_WITH_KNOTS('',3,(#1654,#1655,#1656,#1657),
 .UNSPECIFIED.,.F.,.F.,(4,4),(0.0842508503642259,0.0906394079644633),
 .UNSPECIFIED.);
#21=B_SPLINE_CURVE_WITH_KNOTS('',3,(#1658,#1659,#1660,#1661),
 .UNSPECIFIED.,.F.,.F.,(4,4),(0.084250850364226,0.0906394079644633),
 .UNSPECIFIED.);
#22=B_SPLINE_CURVE_WITH_KNOTS('',3,(#1678,#1679,#1680,#1681),
 .UNSPECIFIED.,.F.,.F.,(4,4),(0.0842508503642259,0.0906394079644633),
 .UNSPECIFIED.);
#23=B_SPLINE_CURVE_WITH_KNOTS('',3,(#1682,#1683,#1684,#1685),
 .UNSPECIFIED.,.F.,.F.,(4,4),(0.0842508503642259,0.0906394079644633),
 .UNSPECIFIED.);
#24=B_SPLINE_CURVE_WITH_KNOTS('',3,(#1687,#1688,#1689,#1690),
 .UNSPECIFIED.,.F.,.F.,(4,4),(0.,0.352308834971444),
 .PIECEWISE_BEZIER_KNOTS.);
#25=B_SPLINE_CURVE_WITH_KNOTS('',3,(#1692,#1693,#1694,#1695),
 .UNSPECIFIED.,.F.,.F.,(4,4),(0.,0.352308834971444),
 .PIECEWISE_BEZIER_KNOTS.);
#26=B_SPLINE_CURVE_WITH_KNOTS('',3,(#1698,#1699,#1700,#1701),
 .UNSPECIFIED.,.F.,.F.,(4,4),(0.,0.352308834971444),
 .PIECEWISE_BEZIER_KNOTS.);
#27=B_SPLINE_CURVE_WITH_KNOTS('',3,(#1703,#1704,#1705,#1706),
 .UNSPECIFIED.,.F.,.F.,(4,4),(0.,0.352308834971444),
 .PIECEWISE_BEZIER_KNOTS.);
#28=B_SPLINE_CURVE_WITH_KNOTS('',3,(#1709,#1710,#1711,#1712),
 .UNSPECIFIED.,.F.,.F.,(4,4),(0.,0.352308834971444),
 .PIECEWISE_BEZIER_KNOTS.);
#29=B_SPLINE_CURVE_WITH_KNOTS('',3,(#1714,#1715,#1716,#1717),
 .UNSPECIFIED.,.F.,.F.,(4,4),(0.,0.352308834971444),
 .PIECEWISE_BEZIER_KNOTS.);
#30=B_SPLINE_CURVE_WITH_KNOTS('',3,(#1720,#1721,#1722,#1723),
 .UNSPECIFIED.,.F.,.F.,(4,4),(0.,0.352308834971444),
 .PIECEWISE_BEZIER_KNOTS.);
#31=B_SPLINE_CURVE_WITH_KNOTS('',3,(#1725,#1726,#1727,#1728),
 .UNSPECIFIED.,.F.,.F.,(4,4),(0.,0.352308834971444),
 .PIECEWISE_BEZIER_KNOTS.);
#32=B_SPLINE_CURVE_WITH_KNOTS('',3,(#1731,#1732,#1733,#1734),
 .UNSPECIFIED.,.F.,.F.,(4,4),(0.,0.352308834971444),
 .PIECEWISE_BEZIER_KNOTS.);
#33=B_SPLINE_CURVE_WITH_KNOTS('',3,(#1736,#1737,#1738,#1739),
 .UNSPECIFIED.,.F.,.F.,(4,4),(0.,0.352308834971444),
 .PIECEWISE_BEZIER_KNOTS.);
#34=B_SPLINE_CURVE_WITH_KNOTS('',3,(#1742,#1743,#1744,#1745),
 .UNSPECIFIED.,.F.,.F.,(4,4),(0.,0.352308834971444),
 .PIECEWISE_BEZIER_KNOTS.);
#35=B_SPLINE_CURVE_WITH_KNOTS('',3,(#1747,#1748,#1749,#1750),
 .UNSPECIFIED.,.F.,.F.,(4,4),(0.,0.352308834971444),
 .PIECEWISE_BEZIER_KNOTS.);
#36=(
BOUNDED_SURFACE()
B_SPLINE_SURFACE(3,3,((#1542,#1543,#1544,#1545),(#1546,#1547,#1548,#1549),
(#1550,#1551,#1552,#1553),(#1554,#1555,#1556,#1557)),
 .SURF_OF_REVOLUTION.,.F.,.F.,.F.)
B_SPLINE_SURFACE_WITH_KNOTS((4,4),(4,4),(0.119637919454621,0.134850766752053),
(0.,1.),.PIECEWISE_BEZIER_KNOTS.)
GEOMETRIC_REPRESENTATION_ITEM()
RATIONAL_B_SPLINE_SURFACE(((1.,0.932032452437568,0.932032452437568,1.),
(1.,0.932032452437568,0.932032452437568,1.),(1.,0.932032452437568,0.932032452437568,
1.),(1.,0.932032452437568,0.932032452437568,1.)))
REPRESENTATION_ITEM('')
SURFACE()
);
#37=(
BOUNDED_SURFACE()
B_SPLINE_SURFACE(3,3,((#1566,#1567,#1568,#1569),(#1570,#1571,#1572,#1573),
(#1574,#1575,#1576,#1577),(#1578,#1579,#1580,#1581)),
 .SURF_OF_REVOLUTION.,.F.,.F.,.F.)
B_SPLINE_SURFACE_WITH_KNOTS((4,4),(4,4),(0.119637919454621,0.134850766752094),
(0.,1.),.PIECEWISE_BEZIER_KNOTS.)
GEOMETRIC_REPRESENTATION_ITEM()
RATIONAL_B_SPLINE_SURFACE(((1.,0.932032452437568,0.932032452437568,1.),
(1.,0.932032452437568,0.932032452437568,1.),(1.,0.932032452437568,0.932032452437568,
1.),(1.,0.932032452437568,0.932032452437568,1.)))
REPRESENTATION_ITEM('')
SURFACE()
);
#38=(
BOUNDED_SURFACE()
B_SPLINE_SURFACE(3,3,((#1590,#1591,#1592,#1593),(#1594,#1595,#1596,#1597),
(#1598,#1599,#1600,#1601),(#1602,#1603,#1604,#1605)),
 .SURF_OF_REVOLUTION.,.F.,.F.,.F.)
B_SPLINE_SURFACE_WITH_KNOTS((4,4),(4,4),(0.119637919454621,0.134850766752094),
(0.,1.),.PIECEWISE_BEZIER_KNOTS.)
GEOMETRIC_REPRESENTATION_ITEM()
RATIONAL_B_SPLINE_SURFACE(((1.,0.932032452437568,0.932032452437568,1.),
(1.,0.932032452437568,0.932032452437568,1.),(1.,0.932032452437568,0.932032452437568,
1.),(1.,0.932032452437568,0.932032452437568,1.)))
REPRESENTATION_ITEM('')
SURFACE()
);
#39=(
BOUNDED_SURFACE()
B_SPLINE_SURFACE(3,3,((#1614,#1615,#1616,#1617),(#1618,#1619,#1620,#1621),
(#1622,#1623,#1624,#1625),(#1626,#1627,#1628,#1629)),
 .SURF_OF_REVOLUTION.,.F.,.F.,.F.)
B_SPLINE_SURFACE_WITH_KNOTS((4,4),(4,4),(0.119637919454621,0.134850766752053),
(0.,1.),.PIECEWISE_BEZIER_KNOTS.)
GEOMETRIC_REPRESENTATION_ITEM()
RATIONAL_B_SPLINE_SURFACE(((1.,0.932032452437568,0.932032452437568,1.),
(1.,0.932032452437568,0.932032452437568,1.),(1.,0.932032452437568,0.932032452437568,
1.),(1.,0.932032452437568,0.932032452437568,1.)))
REPRESENTATION_ITEM('')
SURFACE()
);
#40=(
BOUNDED_SURFACE()
B_SPLINE_SURFACE(3,3,((#1638,#1639,#1640,#1641),(#1642,#1643,#1644,#1645),
(#1646,#1647,#1648,#1649),(#1650,#1651,#1652,#1653)),
 .SURF_OF_REVOLUTION.,.F.,.F.,.F.)
B_SPLINE_SURFACE_WITH_KNOTS((4,4),(4,4),(0.119637919454621,0.134850766752054),
(0.,1.),.PIECEWISE_BEZIER_KNOTS.)
GEOMETRIC_REPRESENTATION_ITEM()
RATIONAL_B_SPLINE_SURFACE(((1.,0.932032452437568,0.932032452437568,1.),
(1.,0.932032452437568,0.932032452437568,1.),(1.,0.932032452437568,0.932032452437568,
1.),(1.,0.932032452437568,0.932032452437568,1.)))
REPRESENTATION_ITEM('')
SURFACE()
);
#41=(
BOUNDED_SURFACE()
B_SPLINE_SURFACE(3,3,((#1662,#1663,#1664,#1665),(#1666,#1667,#1668,#1669),
(#1670,#1671,#1672,#1673),(#1674,#1675,#1676,#1677)),
 .SURF_OF_REVOLUTION.,.F.,.F.,.F.)
B_SPLINE_SURFACE_WITH_KNOTS((4,4),(4,4),(0.119637919454621,0.134850766752054),
(0.,1.),.PIECEWISE_BEZIER_KNOTS.)
GEOMETRIC_REPRESENTATION_ITEM()
RATIONAL_B_SPLINE_SURFACE(((1.,0.932032452437568,0.932032452437568,1.),
(1.,0.932032452437568,0.932032452437568,1.),(1.,0.932032452437568,0.932032452437568,
1.),(1.,0.932032452437568,0.932032452437568,1.)))
REPRESENTATION_ITEM('')
SURFACE()
);
#42=PLANE('',#1015);
#43=PLANE('',#1022);
#44=PLANE('',#1029);
#45=PLANE('',#1030);
#46=PLANE('',#1031);
#47=PLANE('',#1032);
#48=PLANE('',#1033);
#49=PLANE('',#1034);
#50=PLANE('',#1035);
#51=PLANE('',#1036);
#52=PLANE('',#1037);
#53=PLANE('',#1038);
#54=PLANE('',#1039);
#55=PLANE('',#1040);
#56=PLANE('',#1041);
#57=PLANE('',#1042);
#58=PLANE('',#1043);
#59=PLANE('',#1044);
#60=PLANE('',#1045);
#61=PLANE('',#1046);
#62=PLANE('',#1047);
#63=PLANE('',#1048);
#64=PLANE('',#1050);
#65=PLANE('',#1051);
#66=PLANE('',#1053);
#67=PLANE('',#1054);
#68=PLANE('',#1056);
#69=PLANE('',#1057);
#70=PLANE('',#1059);
#71=PLANE('',#1060);
#72=PLANE('',#1062);
#73=PLANE('',#1063);
#74=LINE('',#1304,#170);
#75=LINE('',#1308,#171);
#76=LINE('',#1310,#172);
#77=LINE('',#1315,#173);
#78=LINE('',#1319,#174);
#79=LINE('',#1324,#175);
#80=LINE('',#1328,#176);
#81=LINE('',#1333,#177);
#82=LINE('',#1337,#178);
#83=LINE('',#1342,#179);
#84=LINE('',#1346,#180);
#85=LINE('',#1351,#181);
#86=LINE('',#1355,#182);
#87=LINE('',#1358,#183);
#88=LINE('',#1362,#184);
#89=LINE('',#1364,#185);
#90=LINE('',#1366,#186);
#91=LINE('',#1370,#187);
#92=LINE('',#1372,#188);
#93=LINE('',#1374,#189);
#94=LINE('',#1378,#190);
#95=LINE('',#1380,#191);
#96=LINE('',#1382,#192);
#97=LINE('',#1386,#193);
#98=LINE('',#1388,#194);
#99=LINE('',#1390,#195);
#100=LINE('',#1394,#196);
#101=LINE('',#1396,#197);
#102=LINE('',#1398,#198);
#103=LINE('',#1402,#199);
#104=LINE('',#1403,#200);
#105=LINE('',#1405,#201);
#106=LINE('',#1407,#202);
#107=LINE('',#1408,#203);
#108=LINE('',#1410,#204);
#109=LINE('',#1412,#205);
#110=LINE('',#1413,#206);
#111=LINE('',#1415,#207);
#112=LINE('',#1417,#208);
#113=LINE('',#1418,#209);
#114=LINE('',#1420,#210);
#115=LINE('',#1422,#211);
#116=LINE('',#1423,#212);
#117=LINE('',#1425,#213);
#118=LINE('',#1427,#214);
#119=LINE('',#1428,#215);
#120=LINE('',#1430,#216);
#121=LINE('',#1432,#217);
#122=LINE('',#1434,#218);
#123=LINE('',#1437,#219);
#124=LINE('',#1439,#220);
#125=LINE('',#1443,#221);
#126=LINE('',#1445,#222);
#127=LINE('',#1447,#223);
#128=LINE('',#1451,#224);
#129=LINE('',#1453,#225);
#130=LINE('',#1455,#226);
#131=LINE('',#1459,#227);
#132=LINE('',#1461,#228);
#133=LINE('',#1463,#229);
#134=LINE('',#1467,#230);
#135=LINE('',#1469,#231);
#136=LINE('',#1471,#232);
#137=LINE('',#1475,#233);
#138=LINE('',#1477,#234);
#139=LINE('',#1479,#235);
#140=LINE('',#1482,#236);
#141=LINE('',#1484,#237);
#142=LINE('',#1486,#238);
#143=LINE('',#1487,#239);
#144=LINE('',#1489,#240);
#145=LINE('',#1491,#241);
#146=LINE('',#1492,#242);
#147=LINE('',#1494,#243);
#148=LINE('',#1496,#244);
#149=LINE('',#1497,#245);
#150=LINE('',#1499,#246);
#151=LINE('',#1501,#247);
#152=LINE('',#1502,#248);
#153=LINE('',#1504,#249);
#154=LINE('',#1506,#250);
#155=LINE('',#1507,#251);
#156=LINE('',#1509,#252);
#157=LINE('',#1511,#253);
#158=LINE('',#1513,#254);
#159=LINE('',#1515,#255);
#160=LINE('',#1518,#256);
#161=LINE('',#1520,#257);
#162=LINE('',#1523,#258);
#163=LINE('',#1525,#259);
#164=LINE('',#1528,#260);
#165=LINE('',#1530,#261);
#166=LINE('',#1533,#262);
#167=LINE('',#1535,#263);
#168=LINE('',#1538,#264);
#169=LINE('',#1540,#265);
#170=VECTOR('',#1071,1.);
#171=VECTOR('',#1074,1.);
#172=VECTOR('',#1077,1.);
#173=VECTOR('',#1080,1.);
#174=VECTOR('',#1085,1.);
#175=VECTOR('',#1088,1.);
#176=VECTOR('',#1093,1.);
#177=VECTOR('',#1096,1.);
#178=VECTOR('',#1101,1.);
#179=VECTOR('',#1104,1.);
#180=VECTOR('',#1109,1.);
#181=VECTOR('',#1112,1.);
#182=VECTOR('',#1117,1.);
#183=VECTOR('',#1118,1.);
#184=VECTOR('',#1121,1.);
#185=VECTOR('',#1122,1.);
#186=VECTOR('',#1123,1.);
#187=VECTOR('',#1126,1.);
#188=VECTOR('',#1127,1.);
#189=VECTOR('',#1128,1.);
#190=VECTOR('',#1131,1.);
#191=VECTOR('',#1132,1.);
#192=VECTOR('',#1133,1.);
#193=VECTOR('',#1136,1.);
#194=VECTOR('',#1137,1.);
#195=VECTOR('',#1138,1.);
#196=VECTOR('',#1141,1.);
#197=VECTOR('',#1142,1.);
#198=VECTOR('',#1143,1.);
#199=VECTOR('',#1146,1.);
#200=VECTOR('',#1147,1.);
#201=VECTOR('',#1148,1.);
#202=VECTOR('',#1149,1.);
#203=VECTOR('',#1150,1.);
#204=VECTOR('',#1151,1.);
#205=VECTOR('',#1152,1.);
#206=VECTOR('',#1153,1.);
#207=VECTOR('',#1154,1.);
#208=VECTOR('',#1155,1.);
#209=VECTOR('',#1156,1.);
#210=VECTOR('',#1157,1.);
#211=VECTOR('',#1158,1.);
#212=VECTOR('',#1159,1.);
#213=VECTOR('',#1160,1.);
#214=VECTOR('',#1161,1.);
#215=VECTOR('',#1162,1.);
#216=VECTOR('',#1163,1.);
#217=VECTOR('',#1164,1.);
#218=VECTOR('',#1167,1.);
#219=VECTOR('',#1168,1.);
#220=VECTOR('',#1169,1.);
#221=VECTOR('',#1172,1.);
#222=VECTOR('',#1173,1.);
#223=VECTOR('',#1174,1.);
#224=VECTOR('',#1177,1.);
#225=VECTOR('',#1178,1.);
#226=VECTOR('',#1179,1.);
#227=VECTOR('',#1182,1.);
#228=VECTOR('',#1183,1.);
#229=VECTOR('',#1184,1.);
#230=VECTOR('',#1187,1.);
#231=VECTOR('',#1188,1.);
#232=VECTOR('',#1189,1.);
#233=VECTOR('',#1192,1.);
#234=VECTOR('',#1193,1.);
#235=VECTOR('',#1194,1.);
#236=VECTOR('',#1197,1.);
#237=VECTOR('',#1198,1.);
#238=VECTOR('',#1199,1.);
#239=VECTOR('',#1200,1.);
#240=VECTOR('',#1201,1.);
#241=VECTOR('',#1202,1.);
#242=VECTOR('',#1203,1.);
#243=VECTOR('',#1204,1.);
#244=VECTOR('',#1205,1.);
#245=VECTOR('',#1206,1.);
#246=VECTOR('',#1207,1.);
#247=VECTOR('',#1208,1.);
#248=VECTOR('',#1209,1.);
#249=VECTOR('',#1210,1.);
#250=VECTOR('',#1211,1.);
#251=VECTOR('',#1212,1.);
#252=VECTOR('',#1213,1.);
#253=VECTOR('',#1214,1.);
#254=VECTOR('',#1217,1.);
#255=VECTOR('',#1220,1.);
#256=VECTOR('',#1225,1.);
#257=VECTOR('',#1228,1.);
#258=VECTOR('',#1233,1.);
#259=VECTOR('',#1236,1.);
#260=VECTOR('',#1241,1.);
#261=VECTOR('',#1244,1.);
#262=VECTOR('',#1249,1.);
#263=VECTOR('',#1252,1.);
#264=VECTOR('',#1257,1.);
#265=VECTOR('',#1260,1.);
#266=ORIENTED_EDGE('',*,*,#554,.T.);
#267=ORIENTED_EDGE('',*,*,#555,.T.);
#268=ORIENTED_EDGE('',*,*,#556,.F.);
#269=ORIENTED_EDGE('',*,*,#557,.F.);
#270=ORIENTED_EDGE('',*,*,#558,.F.);
#271=ORIENTED_EDGE('',*,*,#559,.T.);
#272=ORIENTED_EDGE('',*,*,#560,.T.);
#273=ORIENTED_EDGE('',*,*,#561,.F.);
#274=ORIENTED_EDGE('',*,*,#562,.F.);
#275=ORIENTED_EDGE('',*,*,#563,.T.);
#276=ORIENTED_EDGE('',*,*,#564,.T.);
#277=ORIENTED_EDGE('',*,*,#565,.F.);
#278=ORIENTED_EDGE('',*,*,#566,.F.);
#279=ORIENTED_EDGE('',*,*,#567,.T.);
#280=ORIENTED_EDGE('',*,*,#568,.T.);
#281=ORIENTED_EDGE('',*,*,#569,.F.);
#282=ORIENTED_EDGE('',*,*,#570,.F.);
#283=ORIENTED_EDGE('',*,*,#571,.T.);
#284=ORIENTED_EDGE('',*,*,#572,.T.);
#285=ORIENTED_EDGE('',*,*,#573,.F.);
#286=ORIENTED_EDGE('',*,*,#574,.F.);
#287=ORIENTED_EDGE('',*,*,#575,.T.);
#288=ORIENTED_EDGE('',*,*,#576,.T.);
#289=ORIENTED_EDGE('',*,*,#577,.F.);
#290=ORIENTED_EDGE('',*,*,#578,.F.);
#291=ORIENTED_EDGE('',*,*,#579,.T.);
#292=ORIENTED_EDGE('',*,*,#580,.T.);
#293=ORIENTED_EDGE('',*,*,#581,.F.);
#294=ORIENTED_EDGE('',*,*,#582,.F.);
#295=ORIENTED_EDGE('',*,*,#583,.T.);
#296=ORIENTED_EDGE('',*,*,#584,.T.);
#297=ORIENTED_EDGE('',*,*,#585,.F.);
#298=ORIENTED_EDGE('',*,*,#586,.F.);
#299=ORIENTED_EDGE('',*,*,#587,.T.);
#300=ORIENTED_EDGE('',*,*,#588,.T.);
#301=ORIENTED_EDGE('',*,*,#589,.F.);
#302=ORIENTED_EDGE('',*,*,#590,.F.);
#303=ORIENTED_EDGE('',*,*,#591,.T.);
#304=ORIENTED_EDGE('',*,*,#592,.T.);
#305=ORIENTED_EDGE('',*,*,#593,.F.);
#306=ORIENTED_EDGE('',*,*,#594,.F.);
#307=ORIENTED_EDGE('',*,*,#595,.T.);
#308=ORIENTED_EDGE('',*,*,#596,.T.);
#309=ORIENTED_EDGE('',*,*,#597,.F.);
#310=ORIENTED_EDGE('',*,*,#598,.F.);
#311=ORIENTED_EDGE('',*,*,#599,.T.);
#312=ORIENTED_EDGE('',*,*,#600,.T.);
#313=ORIENTED_EDGE('',*,*,#601,.F.);
#314=ORIENTED_EDGE('',*,*,#567,.F.);
#315=ORIENTED_EDGE('',*,*,#602,.T.);
#316=ORIENTED_EDGE('',*,*,#603,.T.);
#317=ORIENTED_EDGE('',*,*,#604,.T.);
#318=ORIENTED_EDGE('',*,*,#563,.F.);
#319=ORIENTED_EDGE('',*,*,#605,.T.);
#320=ORIENTED_EDGE('',*,*,#606,.T.);
#321=ORIENTED_EDGE('',*,*,#607,.T.);
#322=ORIENTED_EDGE('',*,*,#559,.F.);
#323=ORIENTED_EDGE('',*,*,#608,.T.);
#324=ORIENTED_EDGE('',*,*,#609,.T.);
#325=ORIENTED_EDGE('',*,*,#610,.T.);
#326=ORIENTED_EDGE('',*,*,#554,.F.);
#327=ORIENTED_EDGE('',*,*,#611,.T.);
#328=ORIENTED_EDGE('',*,*,#612,.T.);
#329=ORIENTED_EDGE('',*,*,#613,.T.);
#330=ORIENTED_EDGE('',*,*,#575,.F.);
#331=ORIENTED_EDGE('',*,*,#614,.T.);
#332=ORIENTED_EDGE('',*,*,#615,.T.);
#333=ORIENTED_EDGE('',*,*,#616,.T.);
#334=ORIENTED_EDGE('',*,*,#571,.F.);
#335=ORIENTED_EDGE('',*,*,#617,.T.);
#336=ORIENTED_EDGE('',*,*,#618,.T.);
#337=ORIENTED_EDGE('',*,*,#619,.T.);
#338=ORIENTED_EDGE('',*,*,#620,.F.);
#339=ORIENTED_EDGE('',*,*,#621,.T.);
#340=ORIENTED_EDGE('',*,*,#622,.T.);
#341=ORIENTED_EDGE('',*,*,#623,.F.);
#342=ORIENTED_EDGE('',*,*,#624,.F.);
#343=ORIENTED_EDGE('',*,*,#625,.T.);
#344=ORIENTED_EDGE('',*,*,#626,.T.);
#345=ORIENTED_EDGE('',*,*,#627,.F.);
#346=ORIENTED_EDGE('',*,*,#628,.F.);
#347=ORIENTED_EDGE('',*,*,#629,.T.);
#348=ORIENTED_EDGE('',*,*,#630,.T.);
#349=ORIENTED_EDGE('',*,*,#631,.F.);
#350=ORIENTED_EDGE('',*,*,#632,.F.);
#351=ORIENTED_EDGE('',*,*,#633,.T.);
#352=ORIENTED_EDGE('',*,*,#634,.T.);
#353=ORIENTED_EDGE('',*,*,#635,.F.);
#354=ORIENTED_EDGE('',*,*,#636,.F.);
#355=ORIENTED_EDGE('',*,*,#637,.T.);
#356=ORIENTED_EDGE('',*,*,#638,.T.);
#357=ORIENTED_EDGE('',*,*,#639,.F.);
#358=ORIENTED_EDGE('',*,*,#640,.F.);
#359=ORIENTED_EDGE('',*,*,#641,.T.);
#360=ORIENTED_EDGE('',*,*,#642,.T.);
#361=ORIENTED_EDGE('',*,*,#643,.F.);
#362=ORIENTED_EDGE('',*,*,#569,.T.);
#363=ORIENTED_EDGE('',*,*,#644,.F.);
#364=ORIENTED_EDGE('',*,*,#645,.F.);
#365=ORIENTED_EDGE('',*,*,#646,.F.);
#366=ORIENTED_EDGE('',*,*,#573,.T.);
#367=ORIENTED_EDGE('',*,*,#647,.F.);
#368=ORIENTED_EDGE('',*,*,#648,.F.);
#369=ORIENTED_EDGE('',*,*,#649,.F.);
#370=ORIENTED_EDGE('',*,*,#577,.T.);
#371=ORIENTED_EDGE('',*,*,#650,.F.);
#372=ORIENTED_EDGE('',*,*,#651,.F.);
#373=ORIENTED_EDGE('',*,*,#652,.F.);
#374=ORIENTED_EDGE('',*,*,#556,.T.);
#375=ORIENTED_EDGE('',*,*,#653,.F.);
#376=ORIENTED_EDGE('',*,*,#654,.F.);
#377=ORIENTED_EDGE('',*,*,#655,.F.);
#378=ORIENTED_EDGE('',*,*,#561,.T.);
#379=ORIENTED_EDGE('',*,*,#656,.F.);
#380=ORIENTED_EDGE('',*,*,#657,.F.);
#381=ORIENTED_EDGE('',*,*,#658,.F.);
#382=ORIENTED_EDGE('',*,*,#565,.T.);
#383=ORIENTED_EDGE('',*,*,#659,.F.);
#384=ORIENTED_EDGE('',*,*,#660,.F.);
#385=ORIENTED_EDGE('',*,*,#661,.F.);
#386=ORIENTED_EDGE('',*,*,#652,.T.);
#387=ORIENTED_EDGE('',*,*,#662,.F.);
#388=ORIENTED_EDGE('',*,*,#611,.F.);
#389=ORIENTED_EDGE('',*,*,#557,.T.);
#390=ORIENTED_EDGE('',*,*,#651,.T.);
#391=ORIENTED_EDGE('',*,*,#663,.F.);
#392=ORIENTED_EDGE('',*,*,#612,.F.);
#393=ORIENTED_EDGE('',*,*,#662,.T.);
#394=ORIENTED_EDGE('',*,*,#650,.T.);
#395=ORIENTED_EDGE('',*,*,#576,.F.);
#396=ORIENTED_EDGE('',*,*,#613,.F.);
#397=ORIENTED_EDGE('',*,*,#663,.T.);
#398=ORIENTED_EDGE('',*,*,#649,.T.);
#399=ORIENTED_EDGE('',*,*,#664,.F.);
#400=ORIENTED_EDGE('',*,*,#614,.F.);
#401=ORIENTED_EDGE('',*,*,#574,.T.);
#402=ORIENTED_EDGE('',*,*,#648,.T.);
#403=ORIENTED_EDGE('',*,*,#665,.F.);
#404=ORIENTED_EDGE('',*,*,#615,.F.);
#405=ORIENTED_EDGE('',*,*,#664,.T.);
#406=ORIENTED_EDGE('',*,*,#647,.T.);
#407=ORIENTED_EDGE('',*,*,#572,.F.);
#408=ORIENTED_EDGE('',*,*,#616,.F.);
#409=ORIENTED_EDGE('',*,*,#665,.T.);
#410=ORIENTED_EDGE('',*,*,#646,.T.);
#411=ORIENTED_EDGE('',*,*,#666,.F.);
#412=ORIENTED_EDGE('',*,*,#617,.F.);
#413=ORIENTED_EDGE('',*,*,#570,.T.);
#414=ORIENTED_EDGE('',*,*,#645,.T.);
#415=ORIENTED_EDGE('',*,*,#667,.F.);
#416=ORIENTED_EDGE('',*,*,#618,.F.);
#417=ORIENTED_EDGE('',*,*,#666,.T.);
#418=ORIENTED_EDGE('',*,*,#644,.T.);
#419=ORIENTED_EDGE('',*,*,#568,.F.);
#420=ORIENTED_EDGE('',*,*,#619,.F.);
#421=ORIENTED_EDGE('',*,*,#667,.T.);
#422=ORIENTED_EDGE('',*,*,#661,.T.);
#423=ORIENTED_EDGE('',*,*,#668,.F.);
#424=ORIENTED_EDGE('',*,*,#602,.F.);
#425=ORIENTED_EDGE('',*,*,#566,.T.);
#426=ORIENTED_EDGE('',*,*,#660,.T.);
#427=ORIENTED_EDGE('',*,*,#669,.F.);
#428=ORIENTED_EDGE('',*,*,#603,.F.);
#429=ORIENTED_EDGE('',*,*,#668,.T.);
#430=ORIENTED_EDGE('',*,*,#659,.T.);
#431=ORIENTED_EDGE('',*,*,#564,.F.);
#432=ORIENTED_EDGE('',*,*,#604,.F.);
#433=ORIENTED_EDGE('',*,*,#669,.T.);
#434=ORIENTED_EDGE('',*,*,#658,.T.);
#435=ORIENTED_EDGE('',*,*,#670,.F.);
#436=ORIENTED_EDGE('',*,*,#605,.F.);
#437=ORIENTED_EDGE('',*,*,#562,.T.);
#438=ORIENTED_EDGE('',*,*,#657,.T.);
#439=ORIENTED_EDGE('',*,*,#671,.F.);
#440=ORIENTED_EDGE('',*,*,#606,.F.);
#441=ORIENTED_EDGE('',*,*,#670,.T.);
#442=ORIENTED_EDGE('',*,*,#656,.T.);
#443=ORIENTED_EDGE('',*,*,#560,.F.);
#444=ORIENTED_EDGE('',*,*,#607,.F.);
#445=ORIENTED_EDGE('',*,*,#671,.T.);
#446=ORIENTED_EDGE('',*,*,#655,.T.);
#447=ORIENTED_EDGE('',*,*,#672,.F.);
#448=ORIENTED_EDGE('',*,*,#608,.F.);
#449=ORIENTED_EDGE('',*,*,#558,.T.);
#450=ORIENTED_EDGE('',*,*,#654,.T.);
#451=ORIENTED_EDGE('',*,*,#673,.F.);
#452=ORIENTED_EDGE('',*,*,#609,.F.);
#453=ORIENTED_EDGE('',*,*,#672,.T.);
#454=ORIENTED_EDGE('',*,*,#653,.T.);
#455=ORIENTED_EDGE('',*,*,#555,.F.);
#456=ORIENTED_EDGE('',*,*,#610,.F.);
#457=ORIENTED_EDGE('',*,*,#673,.T.);
#458=ORIENTED_EDGE('',*,*,#674,.T.);
#459=ORIENTED_EDGE('',*,*,#635,.T.);
#460=ORIENTED_EDGE('',*,*,#675,.F.);
#461=ORIENTED_EDGE('',*,*,#588,.F.);
#462=ORIENTED_EDGE('',*,*,#676,.T.);
#463=ORIENTED_EDGE('',*,*,#631,.T.);
#464=ORIENTED_EDGE('',*,*,#677,.F.);
#465=ORIENTED_EDGE('',*,*,#592,.F.);
#466=ORIENTED_EDGE('',*,*,#678,.T.);
#467=ORIENTED_EDGE('',*,*,#627,.T.);
#468=ORIENTED_EDGE('',*,*,#679,.F.);
#469=ORIENTED_EDGE('',*,*,#596,.F.);
#470=ORIENTED_EDGE('',*,*,#680,.T.);
#471=ORIENTED_EDGE('',*,*,#623,.T.);
#472=ORIENTED_EDGE('',*,*,#681,.F.);
#473=ORIENTED_EDGE('',*,*,#600,.F.);
#474=ORIENTED_EDGE('',*,*,#682,.T.);
#475=ORIENTED_EDGE('',*,*,#643,.T.);
#476=ORIENTED_EDGE('',*,*,#683,.F.);
#477=ORIENTED_EDGE('',*,*,#580,.F.);
#478=ORIENTED_EDGE('',*,*,#684,.T.);
#479=ORIENTED_EDGE('',*,*,#639,.T.);
#480=ORIENTED_EDGE('',*,*,#685,.F.);
#481=ORIENTED_EDGE('',*,*,#584,.F.);
#482=ORIENTED_EDGE('',*,*,#585,.T.);
#483=ORIENTED_EDGE('',*,*,#685,.T.);
#484=ORIENTED_EDGE('',*,*,#638,.F.);
#485=ORIENTED_EDGE('',*,*,#686,.T.);
#486=ORIENTED_EDGE('',*,*,#687,.F.);
#487=ORIENTED_EDGE('',*,*,#636,.T.);
#488=ORIENTED_EDGE('',*,*,#674,.F.);
#489=ORIENTED_EDGE('',*,*,#587,.F.);
#490=ORIENTED_EDGE('',*,*,#586,.T.);
#491=ORIENTED_EDGE('',*,*,#686,.F.);
#492=ORIENTED_EDGE('',*,*,#637,.F.);
#493=ORIENTED_EDGE('',*,*,#687,.T.);
#494=ORIENTED_EDGE('',*,*,#581,.T.);
#495=ORIENTED_EDGE('',*,*,#683,.T.);
#496=ORIENTED_EDGE('',*,*,#642,.F.);
#497=ORIENTED_EDGE('',*,*,#688,.T.);
#498=ORIENTED_EDGE('',*,*,#689,.F.);
#499=ORIENTED_EDGE('',*,*,#640,.T.);
#500=ORIENTED_EDGE('',*,*,#684,.F.);
#501=ORIENTED_EDGE('',*,*,#583,.F.);
#502=ORIENTED_EDGE('',*,*,#582,.T.);
#503=ORIENTED_EDGE('',*,*,#688,.F.);
#504=ORIENTED_EDGE('',*,*,#641,.F.);
#505=ORIENTED_EDGE('',*,*,#689,.T.);
#506=ORIENTED_EDGE('',*,*,#601,.T.);
#507=ORIENTED_EDGE('',*,*,#681,.T.);
#508=ORIENTED_EDGE('',*,*,#622,.F.);
#509=ORIENTED_EDGE('',*,*,#690,.T.);
#510=ORIENTED_EDGE('',*,*,#691,.F.);
#511=ORIENTED_EDGE('',*,*,#620,.T.);
#512=ORIENTED_EDGE('',*,*,#682,.F.);
#513=ORIENTED_EDGE('',*,*,#579,.F.);
#514=ORIENTED_EDGE('',*,*,#578,.T.);
#515=ORIENTED_EDGE('',*,*,#690,.F.);
#516=ORIENTED_EDGE('',*,*,#621,.F.);
#517=ORIENTED_EDGE('',*,*,#691,.T.);
#518=ORIENTED_EDGE('',*,*,#597,.T.);
#519=ORIENTED_EDGE('',*,*,#679,.T.);
#520=ORIENTED_EDGE('',*,*,#626,.F.);
#521=ORIENTED_EDGE('',*,*,#692,.T.);
#522=ORIENTED_EDGE('',*,*,#693,.F.);
#523=ORIENTED_EDGE('',*,*,#624,.T.);
#524=ORIENTED_EDGE('',*,*,#680,.F.);
#525=ORIENTED_EDGE('',*,*,#599,.F.);
#526=ORIENTED_EDGE('',*,*,#598,.T.);
#527=ORIENTED_EDGE('',*,*,#692,.F.);
#528=ORIENTED_EDGE('',*,*,#625,.F.);
#529=ORIENTED_EDGE('',*,*,#693,.T.);
#530=ORIENTED_EDGE('',*,*,#593,.T.);
#531=ORIENTED_EDGE('',*,*,#677,.T.);
#532=ORIENTED_EDGE('',*,*,#630,.F.);
#533=ORIENTED_EDGE('',*,*,#694,.T.);
#534=ORIENTED_EDGE('',*,*,#695,.F.);
#535=ORIENTED_EDGE('',*,*,#628,.T.);
#536=ORIENTED_EDGE('',*,*,#678,.F.);
#537=ORIENTED_EDGE('',*,*,#595,.F.);
#538=ORIENTED_EDGE('',*,*,#594,.T.);
#539=ORIENTED_EDGE('',*,*,#694,.F.);
#540=ORIENTED_EDGE('',*,*,#629,.F.);
#541=ORIENTED_EDGE('',*,*,#695,.T.);
#542=ORIENTED_EDGE('',*,*,#589,.T.);
#543=ORIENTED_EDGE('',*,*,#675,.T.);
#544=ORIENTED_EDGE('',*,*,#634,.F.);
#545=ORIENTED_EDGE('',*,*,#696,.T.);
#546=ORIENTED_EDGE('',*,*,#697,.F.);
#547=ORIENTED_EDGE('',*,*,#632,.T.);
#548=ORIENTED_EDGE('',*,*,#676,.F.);
#549=ORIENTED_EDGE('',*,*,#591,.F.);
#550=ORIENTED_EDGE('',*,*,#590,.T.);
#551=ORIENTED_EDGE('',*,*,#696,.F.);
#552=ORIENTED_EDGE('',*,*,#633,.F.);
#553=ORIENTED_EDGE('',*,*,#697,.T.);
#554=EDGE_CURVE('',#698,#699,#794,.T.);
#555=EDGE_CURVE('',#699,#700,#74,.T.);
#556=EDGE_CURVE('',#701,#700,#795,.T.);
#557=EDGE_CURVE('',#698,#701,#75,.T.);
#558=EDGE_CURVE('',#702,#703,#76,.T.);
#559=EDGE_CURVE('',#702,#704,#796,.T.);
#560=EDGE_CURVE('',#704,#705,#77,.T.);
#561=EDGE_CURVE('',#703,#705,#797,.T.);
#562=EDGE_CURVE('',#706,#707,#78,.T.);
#563=EDGE_CURVE('',#706,#708,#798,.T.);
#564=EDGE_CURVE('',#708,#709,#79,.T.);
#565=EDGE_CURVE('',#707,#709,#799,.T.);
#566=EDGE_CURVE('',#710,#711,#80,.T.);
#567=EDGE_CURVE('',#710,#712,#800,.T.);
#568=EDGE_CURVE('',#712,#713,#81,.T.);
#569=EDGE_CURVE('',#711,#713,#801,.T.);
#570=EDGE_CURVE('',#714,#715,#82,.T.);
#571=EDGE_CURVE('',#714,#716,#802,.T.);
#572=EDGE_CURVE('',#716,#717,#83,.T.);
#573=EDGE_CURVE('',#715,#717,#803,.T.);
#574=EDGE_CURVE('',#718,#719,#84,.T.);
#575=EDGE_CURVE('',#718,#720,#804,.T.);
#576=EDGE_CURVE('',#720,#721,#85,.T.);
#577=EDGE_CURVE('',#719,#721,#805,.T.);
#578=EDGE_CURVE('',#722,#723,#86,.F.);
#579=EDGE_CURVE('',#722,#724,#87,.T.);
#580=EDGE_CURVE('',#724,#725,#806,.F.);
#581=EDGE_CURVE('',#726,#725,#88,.T.);
#582=EDGE_CURVE('',#727,#726,#89,.F.);
#583=EDGE_CURVE('',#727,#728,#90,.T.);
#584=EDGE_CURVE('',#728,#729,#807,.F.);
#585=EDGE_CURVE('',#730,#729,#91,.T.);
#586=EDGE_CURVE('',#731,#730,#92,.F.);
#587=EDGE_CURVE('',#731,#732,#93,.T.);
#588=EDGE_CURVE('',#732,#733,#808,.F.);
#589=EDGE_CURVE('',#734,#733,#94,.T.);
#590=EDGE_CURVE('',#735,#734,#95,.F.);
#591=EDGE_CURVE('',#735,#736,#96,.T.);
#592=EDGE_CURVE('',#736,#737,#809,.F.);
#593=EDGE_CURVE('',#738,#737,#97,.T.);
#594=EDGE_CURVE('',#739,#738,#98,.F.);
#595=EDGE_CURVE('',#739,#740,#99,.T.);
#596=EDGE_CURVE('',#740,#741,#810,.F.);
#597=EDGE_CURVE('',#742,#741,#100,.T.);
#598=EDGE_CURVE('',#743,#742,#101,.F.);
#599=EDGE_CURVE('',#743,#744,#102,.T.);
#600=EDGE_CURVE('',#744,#745,#811,.F.);
#601=EDGE_CURVE('',#723,#745,#103,.T.);
#602=EDGE_CURVE('',#710,#746,#104,.T.);
#603=EDGE_CURVE('',#746,#747,#105,.T.);
#604=EDGE_CURVE('',#747,#708,#106,.T.);
#605=EDGE_CURVE('',#706,#748,#107,.T.);
#606=EDGE_CURVE('',#748,#749,#108,.T.);
#607=EDGE_CURVE('',#749,#704,#109,.T.);
#608=EDGE_CURVE('',#702,#750,#110,.T.);
#609=EDGE_CURVE('',#750,#751,#111,.T.);
#610=EDGE_CURVE('',#751,#699,#112,.T.);
#611=EDGE_CURVE('',#698,#752,#113,.T.);
#612=EDGE_CURVE('',#752,#753,#114,.T.);
#613=EDGE_CURVE('',#753,#720,#115,.T.);
#614=EDGE_CURVE('',#718,#754,#116,.T.);
#615=EDGE_CURVE('',#754,#755,#117,.T.);
#616=EDGE_CURVE('',#755,#716,#118,.T.);
#617=EDGE_CURVE('',#714,#756,#119,.T.);
#618=EDGE_CURVE('',#756,#757,#120,.T.);
#619=EDGE_CURVE('',#757,#712,#121,.T.);
#620=EDGE_CURVE('',#758,#759,#122,.T.);
#621=EDGE_CURVE('',#758,#760,#123,.F.);
#622=EDGE_CURVE('',#760,#761,#124,.T.);
#623=EDGE_CURVE('',#762,#761,#812,.F.);
#624=EDGE_CURVE('',#763,#762,#125,.T.);
#625=EDGE_CURVE('',#763,#764,#126,.F.);
#626=EDGE_CURVE('',#764,#765,#127,.T.);
#627=EDGE_CURVE('',#766,#765,#813,.F.);
#628=EDGE_CURVE('',#767,#766,#128,.T.);
#629=EDGE_CURVE('',#767,#768,#129,.F.);
#630=EDGE_CURVE('',#768,#769,#130,.T.);
#631=EDGE_CURVE('',#770,#769,#814,.F.);
#632=EDGE_CURVE('',#771,#770,#131,.T.);
#633=EDGE_CURVE('',#771,#772,#132,.F.);
#634=EDGE_CURVE('',#772,#773,#133,.T.);
#635=EDGE_CURVE('',#774,#773,#815,.F.);
#636=EDGE_CURVE('',#775,#774,#134,.T.);
#637=EDGE_CURVE('',#775,#776,#135,.F.);
#638=EDGE_CURVE('',#776,#777,#136,.T.);
#639=EDGE_CURVE('',#778,#777,#816,.F.);
#640=EDGE_CURVE('',#779,#778,#137,.T.);
#641=EDGE_CURVE('',#779,#780,#138,.F.);
#642=EDGE_CURVE('',#780,#781,#139,.T.);
#643=EDGE_CURVE('',#759,#781,#817,.F.);
#644=EDGE_CURVE('',#782,#713,#140,.T.);
#645=EDGE_CURVE('',#783,#782,#141,.T.);
#646=EDGE_CURVE('',#715,#783,#142,.T.);
#647=EDGE_CURVE('',#784,#717,#143,.T.);
#648=EDGE_CURVE('',#785,#784,#144,.T.);
#649=EDGE_CURVE('',#719,#785,#145,.T.);
#650=EDGE_CURVE('',#786,#721,#146,.T.);
#651=EDGE_CURVE('',#787,#786,#147,.T.);
#652=EDGE_CURVE('',#701,#787,#148,.T.);
#653=EDGE_CURVE('',#788,#700,#149,.T.);
#654=EDGE_CURVE('',#789,#788,#150,.T.);
#655=EDGE_CURVE('',#703,#789,#151,.T.);
#656=EDGE_CURVE('',#790,#705,#152,.T.);
#657=EDGE_CURVE('',#791,#790,#153,.T.);
#658=EDGE_CURVE('',#707,#791,#154,.T.);
#659=EDGE_CURVE('',#792,#709,#155,.T.);
#660=EDGE_CURVE('',#793,#792,#156,.T.);
#661=EDGE_CURVE('',#711,#793,#157,.T.);
#662=EDGE_CURVE('',#752,#787,#158,.T.);
#663=EDGE_CURVE('',#753,#786,#159,.T.);
#664=EDGE_CURVE('',#754,#785,#160,.T.);
#665=EDGE_CURVE('',#755,#784,#161,.T.);
#666=EDGE_CURVE('',#756,#783,#162,.T.);
#667=EDGE_CURVE('',#757,#782,#163,.T.);
#668=EDGE_CURVE('',#746,#793,#164,.T.);
#669=EDGE_CURVE('',#747,#792,#165,.T.);
#670=EDGE_CURVE('',#748,#791,#166,.T.);
#671=EDGE_CURVE('',#749,#790,#167,.T.);
#672=EDGE_CURVE('',#750,#789,#168,.T.);
#673=EDGE_CURVE('',#751,#788,#169,.T.);
#674=EDGE_CURVE('',#732,#774,#12,.T.);
#675=EDGE_CURVE('',#733,#773,#13,.T.);
#676=EDGE_CURVE('',#736,#770,#14,.T.);
#677=EDGE_CURVE('',#737,#769,#15,.T.);
#678=EDGE_CURVE('',#740,#766,#16,.T.);
#679=EDGE_CURVE('',#741,#765,#17,.T.);
#680=EDGE_CURVE('',#744,#762,#18,.T.);
#681=EDGE_CURVE('',#745,#761,#19,.T.);
#682=EDGE_CURVE('',#724,#759,#20,.T.);
#683=EDGE_CURVE('',#725,#781,#21,.T.);
#684=EDGE_CURVE('',#728,#778,#22,.T.);
#685=EDGE_CURVE('',#729,#777,#23,.T.);
#686=EDGE_CURVE('',#776,#730,#24,.T.);
#687=EDGE_CURVE('',#775,#731,#25,.T.);
#688=EDGE_CURVE('',#780,#726,#26,.T.);
#689=EDGE_CURVE('',#779,#727,#27,.T.);
#690=EDGE_CURVE('',#760,#723,#28,.T.);
#691=EDGE_CURVE('',#758,#722,#29,.T.);
#692=EDGE_CURVE('',#764,#742,#30,.T.);
#693=EDGE_CURVE('',#763,#743,#31,.T.);
#694=EDGE_CURVE('',#768,#738,#32,.T.);
#695=EDGE_CURVE('',#767,#739,#33,.T.);
#696=EDGE_CURVE('',#772,#734,#34,.T.);
#697=EDGE_CURVE('',#771,#735,#35,.T.);
#698=VERTEX_POINT('',#1302);
#699=VERTEX_POINT('',#1303);
#700=VERTEX_POINT('',#1305);
#701=VERTEX_POINT('',#1307);
#702=VERTEX_POINT('',#1311);
#703=VERTEX_POINT('',#1312);
#704=VERTEX_POINT('',#1314);
#705=VERTEX_POINT('',#1316);
#706=VERTEX_POINT('',#1320);
#707=VERTEX_POINT('',#1321);
#708=VERTEX_POINT('',#1323);
#709=VERTEX_POINT('',#1325);
#710=VERTEX_POINT('',#1329);
#711=VERTEX_POINT('',#1330);
#712=VERTEX_POINT('',#1332);
#713=VERTEX_POINT('',#1334);
#714=VERTEX_POINT('',#1338);
#715=VERTEX_POINT('',#1339);
#716=VERTEX_POINT('',#1341);
#717=VERTEX_POINT('',#1343);
#718=VERTEX_POINT('',#1347);
#719=VERTEX_POINT('',#1348);
#720=VERTEX_POINT('',#1350);
#721=VERTEX_POINT('',#1352);
#722=VERTEX_POINT('',#1356);
#723=VERTEX_POINT('',#1357);
#724=VERTEX_POINT('',#1359);
#725=VERTEX_POINT('',#1361);
#726=VERTEX_POINT('',#1363);
#727=VERTEX_POINT('',#1365);
#728=VERTEX_POINT('',#1367);
#729=VERTEX_POINT('',#1369);
#730=VERTEX_POINT('',#1371);
#731=VERTEX_POINT('',#1373);
#732=VERTEX_POINT('',#1375);
#733=VERTEX_POINT('',#1377);
#734=VERTEX_POINT('',#1379);
#735=VERTEX_POINT('',#1381);
#736=VERTEX_POINT('',#1383);
#737=VERTEX_POINT('',#1385);
#738=VERTEX_POINT('',#1387);
#739=VERTEX_POINT('',#1389);
#740=VERTEX_POINT('',#1391);
#741=VERTEX_POINT('',#1393);
#742=VERTEX_POINT('',#1395);
#743=VERTEX_POINT('',#1397);
#744=VERTEX_POINT('',#1399);
#745=VERTEX_POINT('',#1401);
#746=VERTEX_POINT('',#1404);
#747=VERTEX_POINT('',#1406);
#748=VERTEX_POINT('',#1409);
#749=VERTEX_POINT('',#1411);
#750=VERTEX_POINT('',#1414);
#751=VERTEX_POINT('',#1416);
#752=VERTEX_POINT('',#1419);
#753=VERTEX_POINT('',#1421);
#754=VERTEX_POINT('',#1424);
#755=VERTEX_POINT('',#1426);
#756=VERTEX_POINT('',#1429);
#757=VERTEX_POINT('',#1431);
#758=VERTEX_POINT('',#1435);
#759=VERTEX_POINT('',#1436);
#760=VERTEX_POINT('',#1438);
#761=VERTEX_POINT('',#1440);
#762=VERTEX_POINT('',#1442);
#763=VERTEX_POINT('',#1444);
#764=VERTEX_POINT('',#1446);
#765=VERTEX_POINT('',#1448);
#766=VERTEX_POINT('',#1450);
#767=VERTEX_POINT('',#1452);
#768=VERTEX_POINT('',#1454);
#769=VERTEX_POINT('',#1456);
#770=VERTEX_POINT('',#1458);
#771=VERTEX_POINT('',#1460);
#772=VERTEX_POINT('',#1462);
#773=VERTEX_POINT('',#1464);
#774=VERTEX_POINT('',#1466);
#775=VERTEX_POINT('',#1468);
#776=VERTEX_POINT('',#1470);
#777=VERTEX_POINT('',#1472);
#778=VERTEX_POINT('',#1474);
#779=VERTEX_POINT('',#1476);
#780=VERTEX_POINT('',#1478);
#781=VERTEX_POINT('',#1480);
#782=VERTEX_POINT('',#1483);
#783=VERTEX_POINT('',#1485);
#784=VERTEX_POINT('',#1488);
#785=VERTEX_POINT('',#1490);
#786=VERTEX_POINT('',#1493);
#787=VERTEX_POINT('',#1495);
#788=VERTEX_POINT('',#1498);
#789=VERTEX_POINT('',#1500);
#790=VERTEX_POINT('',#1503);
#791=VERTEX_POINT('',#1505);
#792=VERTEX_POINT('',#1508);
#793=VERTEX_POINT('',#1510);
#794=CIRCLE('',#998,0.0381);
#795=CIRCLE('',#999,0.0381);
#796=CIRCLE('',#1001,0.0381);
#797=CIRCLE('',#1002,0.0381);
#798=CIRCLE('',#1004,0.0381);
#799=CIRCLE('',#1005,0.0381);
#800=CIRCLE('',#1007,0.0381);
#801=CIRCLE('',#1008,0.0381);
#802=CIRCLE('',#1010,0.0381);
#803=CIRCLE('',#1011,0.0381);
#804=CIRCLE('',#1013,0.0381);
#805=CIRCLE('',#1014,0.0381);
#806=CIRCLE('',#1016,0.0399448496410144);
#807=CIRCLE('',#1017,0.0399448496410144);
#808=CIRCLE('',#1018,0.0399448496410144);
#809=CIRCLE('',#1019,0.0399448496410144);
#810=CIRCLE('',#1020,0.0399448496410144);
#811=CIRCLE('',#1021,0.0399448496410144);
#812=CIRCLE('',#1023,0.0408437837440109);
#813=CIRCLE('',#1024,0.0408437837440109);
#814=CIRCLE('',#1025,0.0408437837440109);
#815=CIRCLE('',#1026,0.0408437837440109);
#816=CIRCLE('',#1027,0.0408437837440109);
#817=CIRCLE('',#1028,0.0408437837440109);
#818=EDGE_LOOP('',(#266,#267,#268,#269));
#819=EDGE_LOOP('',(#270,#271,#272,#273));
#820=EDGE_LOOP('',(#274,#275,#276,#277));
#821=EDGE_LOOP('',(#278,#279,#280,#281));
#822=EDGE_LOOP('',(#282,#283,#284,#285));
#823=EDGE_LOOP('',(#286,#287,#288,#289));
#824=EDGE_LOOP('',(#290,#291,#292,#293,#294,#295,#296,#297,#298,#299,#300,
#301,#302,#303,#304,#305,#306,#307,#308,#309,#310,#311,#312,#313));
#825=EDGE_LOOP('',(#314,#315,#316,#317,#318,#319,#320,#321,#322,#323,#324,
#325,#326,#327,#328,#329,#330,#331,#332,#333,#334,#335,#336,#337));
#826=EDGE_LOOP('',(#338,#339,#340,#341,#342,#343,#344,#345,#346,#347,#348,
#349,#350,#351,#352,#353,#354,#355,#356,#357,#358,#359,#360,#361));
#827=EDGE_LOOP('',(#362,#363,#364,#365,#366,#367,#368,#369,#370,#371,#372,
#373,#374,#375,#376,#377,#378,#379,#380,#381,#382,#383,#384,#385));
#828=EDGE_LOOP('',(#386,#387,#388,#389));
#829=EDGE_LOOP('',(#390,#391,#392,#393));
#830=EDGE_LOOP('',(#394,#395,#396,#397));
#831=EDGE_LOOP('',(#398,#399,#400,#401));
#832=EDGE_LOOP('',(#402,#403,#404,#405));
#833=EDGE_LOOP('',(#406,#407,#408,#409));
#834=EDGE_LOOP('',(#410,#411,#412,#413));
#835=EDGE_LOOP('',(#414,#415,#416,#417));
#836=EDGE_LOOP('',(#418,#419,#420,#421));
#837=EDGE_LOOP('',(#422,#423,#424,#425));
#838=EDGE_LOOP('',(#426,#427,#428,#429));
#839=EDGE_LOOP('',(#430,#431,#432,#433));
#840=EDGE_LOOP('',(#434,#435,#436,#437));
#841=EDGE_LOOP('',(#438,#439,#440,#441));
#842=EDGE_LOOP('',(#442,#443,#444,#445));
#843=EDGE_LOOP('',(#446,#447,#448,#449));
#844=EDGE_LOOP('',(#450,#451,#452,#453));
#845=EDGE_LOOP('',(#454,#455,#456,#457));
#846=EDGE_LOOP('',(#458,#459,#460,#461));
#847=EDGE_LOOP('',(#462,#463,#464,#465));
#848=EDGE_LOOP('',(#466,#467,#468,#469));
#849=EDGE_LOOP('',(#470,#471,#472,#473));
#850=EDGE_LOOP('',(#474,#475,#476,#477));
#851=EDGE_LOOP('',(#478,#479,#480,#481));
#852=EDGE_LOOP('',(#482,#483,#484,#485));
#853=EDGE_LOOP('',(#486,#487,#488,#489));
#854=EDGE_LOOP('',(#490,#491,#492,#493));
#855=EDGE_LOOP('',(#494,#495,#496,#497));
#856=EDGE_LOOP('',(#498,#499,#500,#501));
#857=EDGE_LOOP('',(#502,#503,#504,#505));
#858=EDGE_LOOP('',(#506,#507,#508,#509));
#859=EDGE_LOOP('',(#510,#511,#512,#513));
#860=EDGE_LOOP('',(#514,#515,#516,#517));
#861=EDGE_LOOP('',(#518,#519,#520,#521));
#862=EDGE_LOOP('',(#522,#523,#524,#525));
#863=EDGE_LOOP('',(#526,#527,#528,#529));
#864=EDGE_LOOP('',(#530,#531,#532,#533));
#865=EDGE_LOOP('',(#534,#535,#536,#537));
#866=EDGE_LOOP('',(#538,#539,#540,#541));
#867=EDGE_LOOP('',(#542,#543,#544,#545));
#868=EDGE_LOOP('',(#546,#547,#548,#549));
#869=EDGE_LOOP('',(#550,#551,#552,#553));
#870=FACE_BOUND('',#818,.T.);
#871=FACE_BOUND('',#819,.T.);
#872=FACE_BOUND('',#820,.T.);
#873=FACE_BOUND('',#821,.T.);
#874=FACE_BOUND('',#822,.T.);
#875=FACE_BOUND('',#823,.T.);
#876=FACE_BOUND('',#824,.T.);
#877=FACE_BOUND('',#825,.T.);
#878=FACE_BOUND('',#826,.T.);
#879=FACE_BOUND('',#827,.T.);
#880=FACE_BOUND('',#828,.T.);
#881=FACE_BOUND('',#829,.T.);
#882=FACE_BOUND('',#830,.T.);
#883=FACE_BOUND('',#831,.T.);
#884=FACE_BOUND('',#832,.T.);
#885=FACE_BOUND('',#833,.T.);
#886=FACE_BOUND('',#834,.T.);
#887=FACE_BOUND('',#835,.T.);
#888=FACE_BOUND('',#836,.T.);
#889=FACE_BOUND('',#837,.T.);
#890=FACE_BOUND('',#838,.T.);
#891=FACE_BOUND('',#839,.T.);
#892=FACE_BOUND('',#840,.T.);
#893=FACE_BOUND('',#841,.T.);
#894=FACE_BOUND('',#842,.T.);
#895=FACE_BOUND('',#843,.T.);
#896=FACE_BOUND('',#844,.T.);
#897=FACE_BOUND('',#845,.T.);
#898=FACE_BOUND('',#846,.T.);
#899=FACE_BOUND('',#847,.T.);
#900=FACE_BOUND('',#848,.T.);
#901=FACE_BOUND('',#849,.T.);
#902=FACE_BOUND('',#850,.T.);
#903=FACE_BOUND('',#851,.T.);
#904=FACE_BOUND('',#852,.T.);
#905=FACE_BOUND('',#853,.T.);
#906=FACE_BOUND('',#854,.T.);
#907=FACE_BOUND('',#855,.T.);
#908=FACE_BOUND('',#856,.T.);
#909=FACE_BOUND('',#857,.T.);
#910=FACE_BOUND('',#858,.T.);
#911=FACE_BOUND('',#859,.T.);
#912=FACE_BOUND('',#860,.T.);
#913=FACE_BOUND('',#861,.T.);
#914=FACE_BOUND('',#862,.T.);
#915=FACE_BOUND('',#863,.T.);
#916=FACE_BOUND('',#864,.T.);
#917=FACE_BOUND('',#865,.T.);
#918=FACE_BOUND('',#866,.T.);
#919=FACE_BOUND('',#867,.T.);
#920=FACE_BOUND('',#868,.T.);
#921=FACE_BOUND('',#869,.T.);
#922=CYLINDRICAL_SURFACE('',#997,0.0381);
#923=CYLINDRICAL_SURFACE('',#1000,0.0381);
#924=CYLINDRICAL_SURFACE('',#1003,0.0381);
#925=CYLINDRICAL_SURFACE('',#1006,0.0381);
#926=CYLINDRICAL_SURFACE('',#1009,0.0381);
#927=CYLINDRICAL_SURFACE('',#1012,0.0381);
#928=CYLINDRICAL_SURFACE('',#1049,0.508291794521452);
#929=CYLINDRICAL_SURFACE('',#1052,0.508291794521464);
#930=CYLINDRICAL_SURFACE('',#1055,0.508291794521452);
#931=CYLINDRICAL_SURFACE('',#1058,0.508291794521482);
#932=CYLINDRICAL_SURFACE('',#1061,0.508291794521457);
#933=CYLINDRICAL_SURFACE('',#1064,0.508291794521482);
#934=ADVANCED_FACE('',(#870),#922,.F.);
#935=ADVANCED_FACE('',(#871),#923,.F.);
#936=ADVANCED_FACE('',(#872),#924,.F.);
#937=ADVANCED_FACE('',(#873),#925,.F.);
#938=ADVANCED_FACE('',(#874),#926,.F.);
#939=ADVANCED_FACE('',(#875),#927,.F.);
#940=ADVANCED_FACE('',(#876,#877),#42,.T.);
#941=ADVANCED_FACE('',(#878,#879),#43,.F.);
#942=ADVANCED_FACE('',(#880),#44,.F.);
#943=ADVANCED_FACE('',(#881),#45,.F.);
#944=ADVANCED_FACE('',(#882),#46,.F.);
#945=ADVANCED_FACE('',(#883),#47,.F.);
#946=ADVANCED_FACE('',(#884),#48,.F.);
#947=ADVANCED_FACE('',(#885),#49,.F.);
#948=ADVANCED_FACE('',(#886),#50,.F.);
#949=ADVANCED_FACE('',(#887),#51,.F.);
#950=ADVANCED_FACE('',(#888),#52,.F.);
#951=ADVANCED_FACE('',(#889),#53,.F.);
#952=ADVANCED_FACE('',(#890),#54,.F.);
#953=ADVANCED_FACE('',(#891),#55,.F.);
#954=ADVANCED_FACE('',(#892),#56,.F.);
#955=ADVANCED_FACE('',(#893),#57,.F.);
#956=ADVANCED_FACE('',(#894),#58,.F.);
#957=ADVANCED_FACE('',(#895),#59,.F.);
#958=ADVANCED_FACE('',(#896),#60,.F.);
#959=ADVANCED_FACE('',(#897),#61,.F.);
#960=ADVANCED_FACE('',(#898),#36,.T.);
#961=ADVANCED_FACE('',(#899),#37,.T.);
#962=ADVANCED_FACE('',(#900),#38,.T.);
#963=ADVANCED_FACE('',(#901),#39,.T.);
#964=ADVANCED_FACE('',(#902),#40,.T.);
#965=ADVANCED_FACE('',(#903),#41,.T.);
#966=ADVANCED_FACE('',(#904),#62,.F.);
#967=ADVANCED_FACE('',(#905),#63,.T.);
#968=ADVANCED_FACE('',(#906),#928,.T.);
#969=ADVANCED_FACE('',(#907),#64,.F.);
#970=ADVANCED_FACE('',(#908),#65,.T.);
#971=ADVANCED_FACE('',(#909),#929,.T.);
#972=ADVANCED_FACE('',(#910),#66,.F.);
#973=ADVANCED_FACE('',(#911),#67,.T.);
#974=ADVANCED_FACE('',(#912),#930,.T.);
#975=ADVANCED_FACE('',(#913),#68,.F.);
#976=ADVANCED_FACE('',(#914),#69,.T.);
#977=ADVANCED_FACE('',(#915),#931,.T.);
#978=ADVANCED_FACE('',(#916),#70,.F.);
#979=ADVANCED_FACE('',(#917),#71,.T.);
#980=ADVANCED_FACE('',(#918),#932,.T.);
#981=ADVANCED_FACE('',(#919),#72,.F.);
#982=ADVANCED_FACE('',(#920),#73,.T.);
#983=ADVANCED_FACE('',(#921),#933,.T.);
#984=CLOSED_SHELL('',(#934,#935,#936,#937,#938,#939,#940,#941,#942,#943,
#944,#945,#946,#947,#948,#949,#950,#951,#952,#953,#954,#955,#956,#957,#958,
#959,#960,#961,#962,#963,#964,#965,#966,#967,#968,#969,#970,#971,#972,#973,
#974,#975,#976,#977,#978,#979,#980,#981,#982,#983));
#985=STYLED_ITEM('',(#986),#993);
#986=PRESENTATION_STYLE_ASSIGNMENT((#987));
#987=SURFACE_STYLE_USAGE(.BOTH.,#988);
#988=SURFACE_SIDE_STYLE('',(#989));
#989=SURFACE_STYLE_FILL_AREA(#990);
#990=FILL_AREA_STYLE('',(#991));
#991=FILL_AREA_STYLE_COLOUR('',#992);
#992=COLOUR_RGB('',0.701960784313725,0.701960784313725,0.701960784313725);
#993=MANIFOLD_SOLID_BREP('Nose Ring',#984);
#994=SHAPE_DEFINITION_REPRESENTATION(#1758,#995);
#995=SHAPE_REPRESENTATION('Nose Ring',(#996),#1753);
#996=AXIS2_PLACEMENT_3D('',#1299,#1065,#1066);
#997=AXIS2_PLACEMENT_3D('',#1300,#1067,#1068);
#998=AXIS2_PLACEMENT_3D('',#1301,#1069,#1070);
#999=AXIS2_PLACEMENT_3D('',#1306,#1072,#1073);
#1000=AXIS2_PLACEMENT_3D('',#1309,#1075,#1076);
#1001=AXIS2_PLACEMENT_3D('',#1313,#1078,#1079);
#1002=AXIS2_PLACEMENT_3D('',#1317,#1081,#1082);
#1003=AXIS2_PLACEMENT_3D('',#1318,#1083,#1084);
#1004=AXIS2_PLACEMENT_3D('',#1322,#1086,#1087);
#1005=AXIS2_PLACEMENT_3D('',#1326,#1089,#1090);
#1006=AXIS2_PLACEMENT_3D('',#1327,#1091,#1092);
#1007=AXIS2_PLACEMENT_3D('',#1331,#1094,#1095);
#1008=AXIS2_PLACEMENT_3D('',#1335,#1097,#1098);
#1009=AXIS2_PLACEMENT_3D('',#1336,#1099,#1100);
#1010=AXIS2_PLACEMENT_3D('',#1340,#1102,#1103);
#1011=AXIS2_PLACEMENT_3D('',#1344,#1105,#1106);
#1012=AXIS2_PLACEMENT_3D('',#1345,#1107,#1108);
#1013=AXIS2_PLACEMENT_3D('',#1349,#1110,#1111);
#1014=AXIS2_PLACEMENT_3D('',#1353,#1113,#1114);
#1015=AXIS2_PLACEMENT_3D('',#1354,#1115,#1116);
#1016=AXIS2_PLACEMENT_3D('',#1360,#1119,#1120);
#1017=AXIS2_PLACEMENT_3D('',#1368,#1124,#1125);
#1018=AXIS2_PLACEMENT_3D('',#1376,#1129,#1130);
#1019=AXIS2_PLACEMENT_3D('',#1384,#1134,#1135);
#1020=AXIS2_PLACEMENT_3D('',#1392,#1139,#1140);
#1021=AXIS2_PLACEMENT_3D('',#1400,#1144,#1145);
#1022=AXIS2_PLACEMENT_3D('',#1433,#1165,#1166);
#1023=AXIS2_PLACEMENT_3D('',#1441,#1170,#1171);
#1024=AXIS2_PLACEMENT_3D('',#1449,#1175,#1176);
#1025=AXIS2_PLACEMENT_3D('',#1457,#1180,#1181);
#1026=AXIS2_PLACEMENT_3D('',#1465,#1185,#1186);
#1027=AXIS2_PLACEMENT_3D('',#1473,#1190,#1191);
#1028=AXIS2_PLACEMENT_3D('',#1481,#1195,#1196);
#1029=AXIS2_PLACEMENT_3D('',#1512,#1215,#1216);
#1030=AXIS2_PLACEMENT_3D('',#1514,#1218,#1219);
#1031=AXIS2_PLACEMENT_3D('',#1516,#1221,#1222);
#1032=AXIS2_PLACEMENT_3D('',#1517,#1223,#1224);
#1033=AXIS2_PLACEMENT_3D('',#1519,#1226,#1227);
#1034=AXIS2_PLACEMENT_3D('',#1521,#1229,#1230);
#1035=AXIS2_PLACEMENT_3D('',#1522,#1231,#1232);
#1036=AXIS2_PLACEMENT_3D('',#1524,#1234,#1235);
#1037=AXIS2_PLACEMENT_3D('',#1526,#1237,#1238);
#1038=AXIS2_PLACEMENT_3D('',#1527,#1239,#1240);
#1039=AXIS2_PLACEMENT_3D('',#1529,#1242,#1243);
#1040=AXIS2_PLACEMENT_3D('',#1531,#1245,#1246);
#1041=AXIS2_PLACEMENT_3D('',#1532,#1247,#1248);
#1042=AXIS2_PLACEMENT_3D('',#1534,#1250,#1251);
#1043=AXIS2_PLACEMENT_3D('',#1536,#1253,#1254);
#1044=AXIS2_PLACEMENT_3D('',#1537,#1255,#1256);
#1045=AXIS2_PLACEMENT_3D('',#1539,#1258,#1259);
#1046=AXIS2_PLACEMENT_3D('',#1541,#1261,#1262);
#1047=AXIS2_PLACEMENT_3D('',#1686,#1263,#1264);
#1048=AXIS2_PLACEMENT_3D('',#1691,#1265,#1266);
#1049=AXIS2_PLACEMENT_3D('',#1696,#1267,#1268);
#1050=AXIS2_PLACEMENT_3D('',#1697,#1269,#1270);
#1051=AXIS2_PLACEMENT_3D('',#1702,#1271,#1272);
#1052=AXIS2_PLACEMENT_3D('',#1707,#1273,#1274);
#1053=AXIS2_PLACEMENT_3D('',#1708,#1275,#1276);
#1054=AXIS2_PLACEMENT_3D('',#1713,#1277,#1278);
#1055=AXIS2_PLACEMENT_3D('',#1718,#1279,#1280);
#1056=AXIS2_PLACEMENT_3D('',#1719,#1281,#1282);
#1057=AXIS2_PLACEMENT_3D('',#1724,#1283,#1284);
#1058=AXIS2_PLACEMENT_3D('',#1729,#1285,#1286);
#1059=AXIS2_PLACEMENT_3D('',#1730,#1287,#1288);
#1060=AXIS2_PLACEMENT_3D('',#1735,#1289,#1290);
#1061=AXIS2_PLACEMENT_3D('',#1740,#1291,#1292);
#1062=AXIS2_PLACEMENT_3D('',#1741,#1293,#1294);
#1063=AXIS2_PLACEMENT_3D('',#1746,#1295,#1296);
#1064=AXIS2_PLACEMENT_3D('',#1751,#1297,#1298);
#1065=DIRECTION('',(0.,0.,1.));
#1066=DIRECTION('',(1.,0.,0.));
#1067=DIRECTION('',(0.,1.,0.));
#1068=DIRECTION('',(0.,0.,1.));
#1069=DIRECTION('',(0.,-1.,0.));
#1070=DIRECTION('',(0.,0.,-1.));
#1071=DIRECTION('',(0.,1.,0.));
#1072=DIRECTION('',(0.,-1.,0.));
#1073=DIRECTION('',(0.,0.,-1.));
#1074=DIRECTION('',(0.,1.,0.));
#1075=DIRECTION('',(0.,1.,0.));
#1076=DIRECTION('',(0.,0.,1.));
#1077=DIRECTION('',(0.,1.,0.));
#1078=DIRECTION('',(0.,-1.,0.));
#1079=DIRECTION('',(0.,0.,-1.));
#1080=DIRECTION('',(0.,1.,0.));
#1081=DIRECTION('',(0.,-1.,0.));
#1082=DIRECTION('',(0.,0.,-1.));
#1083=DIRECTION('',(0.,1.,0.));
#1084=DIRECTION('',(0.,0.,1.));
#1085=DIRECTION('',(0.,1.,0.));
#1086=DIRECTION('',(0.,-1.,0.));
#1087=DIRECTION('',(0.,0.,-1.));
#1088=DIRECTION('',(0.,1.,0.));
#1089=DIRECTION('',(0.,-1.,0.));
#1090=DIRECTION('',(0.,0.,-1.));
#1091=DIRECTION('',(0.,1.,0.));
#1092=DIRECTION('',(0.,0.,1.));
#1093=DIRECTION('',(0.,1.,0.));
#1094=DIRECTION('',(0.,-1.,0.));
#1095=DIRECTION('',(0.,0.,-1.));
#1096=DIRECTION('',(0.,1.,0.));
#1097=DIRECTION('',(0.,-1.,0.));
#1098=DIRECTION('',(0.,0.,-1.));
#1099=DIRECTION('',(0.,1.,0.));
#1100=DIRECTION('',(0.,0.,1.));
#1101=DIRECTION('',(0.,1.,0.));
#1102=DIRECTION('',(0.,-1.,0.));
#1103=DIRECTION('',(0.,0.,-1.));
#1104=DIRECTION('',(0.,1.,0.));
#1105=DIRECTION('',(0.,-1.,0.));
#1106=DIRECTION('',(0.,0.,-1.));
#1107=DIRECTION('',(0.,1.,0.));
#1108=DIRECTION('',(0.,0.,1.));
#1109=DIRECTION('',(0.,1.,0.));
#1110=DIRECTION('',(0.,-1.,0.));
#1111=DIRECTION('',(0.,0.,-1.));
#1112=DIRECTION('',(0.,1.,0.));
#1113=DIRECTION('',(0.,-1.,0.));
#1114=DIRECTION('',(0.,0.,-1.));
#1115=DIRECTION('',(0.,-1.,0.));
#1116=DIRECTION('',(1.,0.,0.));
#1117=DIRECTION('',(0.5,0.,0.866025403784438));
#1118=DIRECTION('',(0.866025403784438,0.,-0.5));
#1119=DIRECTION('',(0.,1.,0.));
#1120=DIRECTION('',(0.,0.,1.));
#1121=DIRECTION('',(0.866025403784439,0.,0.5));
#1122=DIRECTION('',(-0.5,0.,0.866025403784439));
#1123=DIRECTION('',(0.866025403784439,0.,0.5));
#1124=DIRECTION('',(0.,1.,0.));
#1125=DIRECTION('',(0.,0.,1.));
#1126=DIRECTION('',(0.,0.,1.));
#1127=DIRECTION('',(-1.,0.,0.));
#1128=DIRECTION('',(0.,0.,1.));
#1129=DIRECTION('',(0.,1.,0.));
#1130=DIRECTION('',(0.,0.,1.));
#1131=DIRECTION('',(-0.866025403784439,0.,0.5));
#1132=DIRECTION('',(-0.5,0.,-0.866025403784439));
#1133=DIRECTION('',(-0.866025403784439,0.,0.5));
#1134=DIRECTION('',(0.,1.,0.));
#1135=DIRECTION('',(0.,0.,1.));
#1136=DIRECTION('',(-0.866025403784439,0.,-0.5));
#1137=DIRECTION('',(0.5,0.,-0.866025403784439));
#1138=DIRECTION('',(-0.866025403784439,0.,-0.5));
#1139=DIRECTION('',(0.,1.,0.));
#1140=DIRECTION('',(0.,0.,1.));
#1141=DIRECTION('',(-1.22464679914735E-16,0.,-1.));
#1142=DIRECTION('',(1.,0.,-1.22464679914735E-16));
#1143=DIRECTION('',(-1.22464679914735E-16,0.,-1.));
#1144=DIRECTION('',(0.,1.,0.));
#1145=DIRECTION('',(0.,0.,1.));
#1146=DIRECTION('',(0.866025403784438,0.,-0.5));
#1147=DIRECTION('',(-0.653956398774257,0.,0.756532238904731));
#1148=DIRECTION('',(-1.,0.,1.22464679914735E-16));
#1149=DIRECTION('',(-0.653956398774257,0.,-0.756532238904731));
#1150=DIRECTION('',(0.328197938286287,0.,0.944608973758259));
#1151=DIRECTION('',(-0.5,0.,0.866025403784439));
#1152=DIRECTION('',(-0.982154337060543,0.,0.188076734853528));
#1153=DIRECTION('',(0.982154337060543,0.,0.188076734853527));
#1154=DIRECTION('',(0.5,0.,0.866025403784439));
#1155=DIRECTION('',(-0.328197938286287,0.,0.944608973758259));
#1156=DIRECTION('',(0.653956398774257,0.,-0.756532238904731));
#1157=DIRECTION('',(1.,0.,0.));
#1158=DIRECTION('',(0.653956398774257,0.,0.756532238904731));
#1159=DIRECTION('',(-0.328197938286288,0.,-0.944608973758258));
#1160=DIRECTION('',(0.5,0.,-0.866025403784439));
#1161=DIRECTION('',(0.982154337060543,0.,-0.188076734853528));
#1162=DIRECTION('',(-0.982154337060544,0.,-0.188076734853527));
#1163=DIRECTION('',(-0.5,0.,-0.866025403784438));
#1164=DIRECTION('',(0.328197938286287,0.,-0.944608973758259));
#1165=DIRECTION('',(0.,-1.,0.));
#1166=DIRECTION('',(1.,0.,0.));
#1167=DIRECTION('',(0.866025403784438,0.,-0.5));
#1168=DIRECTION('',(0.5,0.,0.866025403784438));
#1169=DIRECTION('',(0.866025403784438,0.,-0.5));
#1170=DIRECTION('',(0.,1.,0.));
#1171=DIRECTION('',(0.,0.,1.));
#1172=DIRECTION('',(-1.22464679914735E-16,0.,-1.));
#1173=DIRECTION('',(1.,0.,-1.22464679914735E-16));
#1174=DIRECTION('',(-1.22464679914735E-16,0.,-1.));
#1175=DIRECTION('',(0.,1.,0.));
#1176=DIRECTION('',(0.,0.,1.));
#1177=DIRECTION('',(-0.866025403784439,0.,-0.5));
#1178=DIRECTION('',(0.5,0.,-0.866025403784439));
#1179=DIRECTION('',(-0.866025403784439,0.,-0.5));
#1180=DIRECTION('',(0.,1.,0.));
#1181=DIRECTION('',(0.,0.,1.));
#1182=DIRECTION('',(-0.866025403784439,0.,0.5));
#1183=DIRECTION('',(-0.5,0.,-0.866025403784439));
#1184=DIRECTION('',(-0.866025403784439,0.,0.5));
#1185=DIRECTION('',(0.,1.,0.));
#1186=DIRECTION('',(0.,0.,1.));
#1187=DIRECTION('',(0.,0.,1.));
#1188=DIRECTION('',(-1.,0.,0.));
#1189=DIRECTION('',(0.,0.,1.));
#1190=DIRECTION('',(0.,1.,0.));
#1191=DIRECTION('',(0.,0.,1.));
#1192=DIRECTION('',(0.866025403784439,0.,0.5));
#1193=DIRECTION('',(-0.5,0.,0.866025403784439));
#1194=DIRECTION('',(0.866025403784439,0.,0.5));
#1195=DIRECTION('',(0.,1.,0.));
#1196=DIRECTION('',(0.,0.,1.));
#1197=DIRECTION('',(0.328197938286287,0.,-0.944608973758259));
#1198=DIRECTION('',(-0.5,0.,-0.866025403784438));
#1199=DIRECTION('',(-0.982154337060544,0.,-0.188076734853527));
#1200=DIRECTION('',(0.982154337060543,0.,-0.188076734853528));
#1201=DIRECTION('',(0.5,0.,-0.866025403784439));
#1202=DIRECTION('',(-0.328197938286288,0.,-0.944608973758258));
#1203=DIRECTION('',(0.653956398774257,0.,0.756532238904731));
#1204=DIRECTION('',(1.,0.,0.));
#1205=DIRECTION('',(0.653956398774257,0.,-0.756532238904731));
#1206=DIRECTION('',(-0.328197938286287,0.,0.944608973758259));
#1207=DIRECTION('',(0.5,0.,0.866025403784439));
#1208=DIRECTION('',(0.982154337060543,0.,0.188076734853527));
#1209=DIRECTION('',(-0.982154337060543,0.,0.188076734853528));
#1210=DIRECTION('',(-0.5,0.,0.866025403784439));
#1211=DIRECTION('',(0.328197938286287,0.,0.944608973758259));
#1212=DIRECTION('',(-0.653956398774257,0.,-0.756532238904731));
#1213=DIRECTION('',(-1.,0.,1.22464679914735E-16));
#1214=DIRECTION('',(-0.653956398774257,0.,0.756532238904731));
#1215=DIRECTION('',(0.756532238904731,0.,0.653956398774257));
#1216=DIRECTION('',(0.653956398774257,0.,-0.756532238904731));
#1217=DIRECTION('',(0.,1.,0.));
#1218=DIRECTION('',(0.,0.,1.));
#1219=DIRECTION('',(1.,0.,0.));
#1220=DIRECTION('',(0.,1.,0.));
#1221=DIRECTION('',(-0.756532238904731,0.,0.653956398774257));
#1222=DIRECTION('',(0.653956398774257,0.,0.756532238904731));
#1223=DIRECTION('',(0.944608973758258,0.,-0.328197938286288));
#1224=DIRECTION('',(-0.328197938286288,0.,-0.944608973758259));
#1225=DIRECTION('',(0.,1.,0.));
#1226=DIRECTION('',(0.866025403784439,0.,0.5));
#1227=DIRECTION('',(0.5,0.,-0.866025403784439));
#1228=DIRECTION('',(0.,1.,0.));
#1229=DIRECTION('',(0.188076734853528,0.,0.982154337060543));
#1230=DIRECTION('',(0.982154337060543,0.,-0.188076734853528));
#1231=DIRECTION('',(0.188076734853527,0.,-0.982154337060544));
#1232=DIRECTION('',(-0.982154337060544,0.,-0.188076734853527));
#1233=DIRECTION('',(0.,1.,0.));
#1234=DIRECTION('',(0.866025403784438,0.,-0.5));
#1235=DIRECTION('',(-0.5,0.,-0.866025403784438));
#1236=DIRECTION('',(0.,1.,0.));
#1237=DIRECTION('',(0.944608973758259,0.,0.328197938286287));
#1238=DIRECTION('',(0.328197938286287,0.,-0.944608973758259));
#1239=DIRECTION('',(-0.756532238904731,0.,-0.653956398774257));
#1240=DIRECTION('',(-0.653956398774257,0.,0.756532238904731));
#1241=DIRECTION('',(0.,1.,0.));
#1242=DIRECTION('',(-1.22464679914735E-16,0.,-1.));
#1243=DIRECTION('',(-1.,0.,1.22464679914735E-16));
#1244=DIRECTION('',(0.,1.,0.));
#1245=DIRECTION('',(0.756532238904731,0.,-0.653956398774257));
#1246=DIRECTION('',(-0.653956398774257,0.,-0.756532238904731));
#1247=DIRECTION('',(-0.944608973758259,0.,0.328197938286287));
#1248=DIRECTION('',(0.328197938286287,0.,0.944608973758259));
#1249=DIRECTION('',(0.,1.,0.));
#1250=DIRECTION('',(-0.866025403784439,0.,-0.5));
#1251=DIRECTION('',(-0.5,0.,0.866025403784439));
#1252=DIRECTION('',(0.,1.,0.));
#1253=DIRECTION('',(-0.188076734853528,0.,-0.982154337060543));
#1254=DIRECTION('',(-0.982154337060543,0.,0.188076734853528));
#1255=DIRECTION('',(-0.188076734853527,0.,0.982154337060543));
#1256=DIRECTION('',(0.982154337060544,0.,0.188076734853527));
#1257=DIRECTION('',(0.,1.,0.));
#1258=DIRECTION('',(-0.866025403784439,0.,0.5));
#1259=DIRECTION('',(0.5,0.,0.866025403784439));
#1260=DIRECTION('',(0.,1.,0.));
#1261=DIRECTION('',(-0.944608973758259,0.,-0.328197938286287));
#1262=DIRECTION('',(-0.328197938286287,0.,0.944608973758259));
#1263=DIRECTION('',(1.,0.,0.));
#1264=DIRECTION('',(0.,1.,0.));
#1265=DIRECTION('',(1.,0.,0.));
#1266=DIRECTION('',(0.,1.,0.));
#1267=DIRECTION('',(1.,0.,0.));
#1268=DIRECTION('',(0.,0.,-1.));
#1269=DIRECTION('',(0.5,0.,-0.866025403784439));
#1270=DIRECTION('',(0.,1.,0.));
#1271=DIRECTION('',(0.5,0.,-0.866025403784439));
#1272=DIRECTION('',(0.,1.,0.));
#1273=DIRECTION('',(0.500000000000002,3.29993411888459E-14,-0.866025403784437));
#1274=DIRECTION('',(-0.866025403784437,0.,-0.500000000000002));
#1275=DIRECTION('',(-0.5,0.,-0.866025403784438));
#1276=DIRECTION('',(0.,1.,0.));
#1277=DIRECTION('',(-0.5,0.,-0.866025403784438));
#1278=DIRECTION('',(0.,1.,0.));
#1279=DIRECTION('',(-0.5,0.,-0.866025403784439));
#1280=DIRECTION('',(-0.866025403784439,0.,0.5));
#1281=DIRECTION('',(-1.,0.,1.22464679914735E-16));
#1282=DIRECTION('',(0.,1.,0.));
#1283=DIRECTION('',(-1.,0.,1.22464679914735E-16));
#1284=DIRECTION('',(0.,1.,0.));
#1285=DIRECTION('',(-1.,0.,1.22464679914735E-16));
#1286=DIRECTION('',(1.22464679914735E-16,0.,1.));
#1287=DIRECTION('',(-0.5,0.,0.866025403784439));
#1288=DIRECTION('',(0.,1.,0.));
#1289=DIRECTION('',(-0.5,0.,0.866025403784439));
#1290=DIRECTION('',(0.,1.,0.));
#1291=DIRECTION('',(-0.500000000000003,3.29993411888454E-14,0.866025403784437));
#1292=DIRECTION('',(0.866025403784437,0.,0.500000000000003));
#1293=DIRECTION('',(0.5,0.,0.866025403784439));
#1294=DIRECTION('',(0.,1.,0.));
#1295=DIRECTION('',(0.5,0.,0.866025403784439));
#1296=DIRECTION('',(0.,1.,0.));
#1297=DIRECTION('',(0.500000000000002,-3.29993411888445E-14,0.866025403784438));
#1298=DIRECTION('',(0.866025403784438,0.,-0.500000000000002));
#1299=CARTESIAN_POINT('',(0.,0.,0.));
#1300=CARTESIAN_POINT('',(1.21430643318376E-17,-0.08255,6.93889390390723E-18));
#1301=CARTESIAN_POINT('',(1.21430643318376E-17,-0.08255,6.93889390390723E-18));
#1302=CARTESIAN_POINT('',(-0.0127,-0.08255,0.0359210244842766));
#1303=CARTESIAN_POINT('',(-0.0247585197333463,-0.08255,0.0289590348702007));
#1304=CARTESIAN_POINT('',(-0.0247585197333463,-0.08255,0.0289590348702007));
#1305=CARTESIAN_POINT('',(-0.0247585197333463,-0.0762,0.0289590348702007));
#1306=CARTESIAN_POINT('',(1.21430643318376E-17,-0.0762,6.93889390390723E-18));
#1307=CARTESIAN_POINT('',(-0.0127,-0.0762,0.0359210244842766));
#1308=CARTESIAN_POINT('',(-0.0127,-0.08255,0.0359210244842766));
#1309=CARTESIAN_POINT('',(1.21430643318376E-17,-0.08255,6.93889390390723E-18));
#1310=CARTESIAN_POINT('',(-0.0374585197333464,-0.08255,0.00696198961407594));
#1311=CARTESIAN_POINT('',(-0.0374585197333464,-0.08255,0.00696198961407594));
#1312=CARTESIAN_POINT('',(-0.0374585197333464,-0.0762,0.00696198961407594));
#1313=CARTESIAN_POINT('',(1.21430643318376E-17,-0.08255,6.93889390390723E-18));
#1314=CARTESIAN_POINT('',(-0.0374585197333464,-0.08255,-0.00696198961407593));
#1315=CARTESIAN_POINT('',(-0.0374585197333464,-0.08255,-0.00696198961407593));
#1316=CARTESIAN_POINT('',(-0.0374585197333464,-0.0762,-0.00696198961407593));
#1317=CARTESIAN_POINT('',(1.21430643318376E-17,-0.0762,6.93889390390723E-18));
#1318=CARTESIAN_POINT('',(1.21430643318376E-17,-0.08255,6.93889390390723E-18));
#1319=CARTESIAN_POINT('',(-0.0247585197333463,-0.08255,-0.0289590348702007));
#1320=CARTESIAN_POINT('',(-0.0247585197333463,-0.08255,-0.0289590348702007));
#1321=CARTESIAN_POINT('',(-0.0247585197333463,-0.0762,-0.0289590348702007));
#1322=CARTESIAN_POINT('',(1.21430643318376E-17,-0.08255,6.93889390390723E-18));
#1323=CARTESIAN_POINT('',(-0.0127,-0.08255,-0.0359210244842766));
#1324=CARTESIAN_POINT('',(-0.0127,-0.08255,-0.0359210244842766));
#1325=CARTESIAN_POINT('',(-0.0127,-0.0762,-0.0359210244842766));
#1326=CARTESIAN_POINT('',(1.21430643318376E-17,-0.0762,6.93889390390723E-18));
#1327=CARTESIAN_POINT('',(1.21430643318376E-17,-0.08255,6.93889390390723E-18));
#1328=CARTESIAN_POINT('',(0.0127,-0.08255,-0.0359210244842766));
#1329=CARTESIAN_POINT('',(0.0127,-0.08255,-0.0359210244842766));
#1330=CARTESIAN_POINT('',(0.0127,-0.0762,-0.0359210244842766));
#1331=CARTESIAN_POINT('',(1.21430643318376E-17,-0.08255,6.93889390390723E-18));
#1332=CARTESIAN_POINT('',(0.0247585197333463,-0.08255,-0.0289590348702007));
#1333=CARTESIAN_POINT('',(0.0247585197333463,-0.08255,-0.0289590348702007));
#1334=CARTESIAN_POINT('',(0.0247585197333463,-0.0762,-0.0289590348702007));
#1335=CARTESIAN_POINT('',(1.21430643318376E-17,-0.0762,6.93889390390723E-18));
#1336=CARTESIAN_POINT('',(1.21430643318376E-17,-0.08255,6.93889390390723E-18));
#1337=CARTESIAN_POINT('',(0.0374585197333464,-0.08255,-0.00696198961407596));
#1338=CARTESIAN_POINT('',(0.0374585197333464,-0.08255,-0.00696198961407596));
#1339=CARTESIAN_POINT('',(0.0374585197333464,-0.0762,-0.00696198961407596));
#1340=CARTESIAN_POINT('',(1.21430643318376E-17,-0.08255,6.93889390390723E-18));
#1341=CARTESIAN_POINT('',(0.0374585197333464,-0.08255,0.00696198961407591));
#1342=CARTESIAN_POINT('',(0.0374585197333464,-0.08255,0.00696198961407591));
#1343=CARTESIAN_POINT('',(0.0374585197333464,-0.0762,0.0069619896140759));
#1344=CARTESIAN_POINT('',(1.21430643318376E-17,-0.0762,6.93889390390723E-18));
#1345=CARTESIAN_POINT('',(1.21430643318376E-17,-0.08255,6.93889390390723E-18));
#1346=CARTESIAN_POINT('',(0.0247585197333464,-0.08255,0.0289590348702006));
#1347=CARTESIAN_POINT('',(0.0247585197333464,-0.08255,0.0289590348702006));
#1348=CARTESIAN_POINT('',(0.0247585197333464,-0.0762,0.0289590348702006));
#1349=CARTESIAN_POINT('',(1.21430643318376E-17,-0.08255,6.93889390390723E-18));
#1350=CARTESIAN_POINT('',(0.0127,-0.08255,0.0359210244842766));
#1351=CARTESIAN_POINT('',(0.0127,-0.08255,0.0359210244842766));
#1352=CARTESIAN_POINT('',(0.0127,-0.0762,0.0359210244842766));
#1353=CARTESIAN_POINT('',(1.21430643318376E-17,-0.0762,6.93889390390723E-18));
#1354=CARTESIAN_POINT('',(0.,-0.08255,0.));
#1355=CARTESIAN_POINT('',(0.0240947169827163,-0.08255,-0.0173751929511568));
#1356=CARTESIAN_POINT('',(0.0270947169827162,-0.08255,-0.0121790405284502));
#1357=CARTESIAN_POINT('',(0.0240947169827163,-0.08255,-0.0173751929511568));
#1358=CARTESIAN_POINT('',(0.0015,-0.08255,0.00259807621135332));
#1359=CARTESIAN_POINT('',(0.0359955542009766,-0.0825499999999916,-0.0173179412924259));
#1360=CARTESIAN_POINT('',(0.,-0.08255,0.));
#1361=CARTESIAN_POINT('',(0.0359955542009767,-0.0825499999999915,0.0173179412924259));
#1362=CARTESIAN_POINT('',(0.0015,-0.08255,-0.00259807621135332));
#1363=CARTESIAN_POINT('',(0.0270947169827162,-0.08255,0.0121790405284502));
#1364=CARTESIAN_POINT('',(0.0270947169827162,-0.08255,0.0121790405284502));
#1365=CARTESIAN_POINT('',(0.0240947169827163,-0.08255,0.0173751929511568));
#1366=CARTESIAN_POINT('',(-0.0015,-0.08255,0.00259807621135332));
#1367=CARTESIAN_POINT('',(0.0329955542009766,-0.0825499999999916,0.0225140937151325));
#1368=CARTESIAN_POINT('',(0.,-0.08255,0.));
#1369=CARTESIAN_POINT('',(0.003,-0.0825499999999916,0.0398320350075583));
#1370=CARTESIAN_POINT('',(0.003,-0.08255,0.));
#1371=CARTESIAN_POINT('',(0.003,-0.08255,0.0295542334796071));
#1372=CARTESIAN_POINT('',(0.003,-0.08255,0.0295542334796071));
#1373=CARTESIAN_POINT('',(-0.003,-0.08255,0.0295542334796071));
#1374=CARTESIAN_POINT('',(-0.003,-0.08255,0.));
#1375=CARTESIAN_POINT('',(-0.003,-0.0825499999999916,0.0398320350075584));
#1376=CARTESIAN_POINT('',(0.,-0.08255,0.));
#1377=CARTESIAN_POINT('',(-0.0329955542009766,-0.0825499999999916,0.0225140937151325));
#1378=CARTESIAN_POINT('',(0.0015,-0.08255,0.00259807621135332));
#1379=CARTESIAN_POINT('',(-0.0240947169827163,-0.08255,0.0173751929511568));
#1380=CARTESIAN_POINT('',(-0.0240947169827163,-0.08255,0.0173751929511568));
#1381=CARTESIAN_POINT('',(-0.0270947169827162,-0.08255,0.0121790405284502));
#1382=CARTESIAN_POINT('',(-0.0015,-0.08255,-0.00259807621135332));
#1383=CARTESIAN_POINT('',(-0.0359955542009744,-0.0825500000000085,0.0173179412924246));
#1384=CARTESIAN_POINT('',(0.,-0.08255,0.));
#1385=CARTESIAN_POINT('',(-0.0359955542009745,-0.0825500000000085,-0.0173179412924245));
#1386=CARTESIAN_POINT('',(-0.0015,-0.08255,0.00259807621135332));
#1387=CARTESIAN_POINT('',(-0.0270947169827162,-0.08255,-0.0121790405284502));
#1388=CARTESIAN_POINT('',(-0.0270947169827162,-0.08255,-0.0121790405284502));
#1389=CARTESIAN_POINT('',(-0.0240947169827163,-0.08255,-0.0173751929511568));
#1390=CARTESIAN_POINT('',(0.0015,-0.08255,-0.00259807621135332));
#1391=CARTESIAN_POINT('',(-0.0329955542009744,-0.0825500000000085,-0.0225140937151312));
#1392=CARTESIAN_POINT('',(0.,-0.08255,0.));
#1393=CARTESIAN_POINT('',(-0.003,-0.0825499999999915,-0.0398320350075584));
#1394=CARTESIAN_POINT('',(-0.003,-0.08255,3.67394039744206E-19));
#1395=CARTESIAN_POINT('',(-0.003,-0.08255,-0.0295542334796071));
#1396=CARTESIAN_POINT('',(-0.003,-0.08255,-0.0295542334796071));
#1397=CARTESIAN_POINT('',(0.003,-0.08255,-0.0295542334796071));
#1398=CARTESIAN_POINT('',(0.003,-0.08255,-3.67394039744206E-19));
#1399=CARTESIAN_POINT('',(0.003,-0.0825499999999915,-0.0398320350075584));
#1400=CARTESIAN_POINT('',(0.,-0.08255,0.));
#1401=CARTESIAN_POINT('',(0.0329955542009766,-0.0825499999999916,-0.0225140937151325));
#1402=CARTESIAN_POINT('',(-0.0015,-0.08255,-0.00259807621135332));
#1403=CARTESIAN_POINT('',(0.009525,-0.08255,-0.0322480122421383));
#1404=CARTESIAN_POINT('',(0.00635,-0.08255,-0.028575));
#1405=CARTESIAN_POINT('',(-3.49942822856356E-18,-0.08255,-0.028575));
#1406=CARTESIAN_POINT('',(-0.00635,-0.08255,-0.028575));
#1407=CARTESIAN_POINT('',(-0.009525,-0.08255,-0.0322480122421383));
#1408=CARTESIAN_POINT('',(-0.0231650978232434,-0.08255,-0.024372898092116));
#1409=CARTESIAN_POINT('',(-0.0215716759131404,-0.08255,-0.0197867613140312));
#1410=CARTESIAN_POINT('',(-0.0247466759131404,-0.08255,-0.0142875));
#1411=CARTESIAN_POINT('',(-0.0279216759131404,-0.08255,-0.00878823868596881));
#1412=CARTESIAN_POINT('',(-0.0326900978232433,-0.08255,-0.00787511415002237));
#1413=CARTESIAN_POINT('',(-0.0326900978232433,-0.08255,0.00787511415002238));
#1414=CARTESIAN_POINT('',(-0.0279216759131404,-0.08255,0.00878823868596882));
#1415=CARTESIAN_POINT('',(-0.0247466759131404,-0.08255,0.0142875));
#1416=CARTESIAN_POINT('',(-0.0215716759131404,-0.08255,0.0197867613140312));
#1417=CARTESIAN_POINT('',(-0.0231650978232434,-0.08255,0.024372898092116));
#1418=CARTESIAN_POINT('',(-0.009525,-0.08255,0.0322480122421383));
#1419=CARTESIAN_POINT('',(-0.00635,-0.08255,0.028575));
#1420=CARTESIAN_POINT('',(0.,-0.08255,0.028575));
#1421=CARTESIAN_POINT('',(0.00635,-0.08255,0.028575));
#1422=CARTESIAN_POINT('',(0.009525,-0.08255,0.0322480122421383));
#1423=CARTESIAN_POINT('',(0.0231650978232434,-0.08255,0.0243728980921159));
#1424=CARTESIAN_POINT('',(0.0215716759131404,-0.08255,0.0197867613140312));
#1425=CARTESIAN_POINT('',(0.0247466759131404,-0.08255,0.0142875));
#1426=CARTESIAN_POINT('',(0.0279216759131404,-0.08255,0.0087882386859688));
#1427=CARTESIAN_POINT('',(0.0326900978232433,-0.08255,0.00787511415002235));
#1428=CARTESIAN_POINT('',(0.0326900978232433,-0.08255,-0.00787511415002239));
#1429=CARTESIAN_POINT('',(0.0279216759131404,-0.08255,-0.00878823868596883));
#1430=CARTESIAN_POINT('',(0.0247466759131404,-0.08255,-0.0142875));
#1431=CARTESIAN_POINT('',(0.0215716759131404,-0.08255,-0.0197867613140312));
#1432=CARTESIAN_POINT('',(0.0231650978232434,-0.08255,-0.024372898092116));
#1433=CARTESIAN_POINT('',(0.,-0.0762,0.));
#1434=CARTESIAN_POINT('',(0.0015,-0.0762,0.00259807621135332));
#1435=CARTESIAN_POINT('',(0.0278752194792857,-0.0762,-0.0126296638549478));
#1436=CARTESIAN_POINT('',(0.0367762101549422,-0.0762,-0.0177686532175924));
#1437=CARTESIAN_POINT('',(0.0248752194792858,-0.0762,-0.0178258162776544));
#1438=CARTESIAN_POINT('',(0.0248752194792857,-0.0762,-0.0178258162776544));
#1439=CARTESIAN_POINT('',(-0.0015,-0.0762,-0.00259807621135332));
#1440=CARTESIAN_POINT('',(0.0337762101549422,-0.0762,-0.022964805640299));
#1441=CARTESIAN_POINT('',(0.,-0.0762,0.));
#1442=CARTESIAN_POINT('',(0.003,-0.0762,-0.0407334588578914));
#1443=CARTESIAN_POINT('',(0.003,-0.0762,-3.67394039744206E-19));
#1444=CARTESIAN_POINT('',(0.003,-0.0762,-0.0304554801326022));
#1445=CARTESIAN_POINT('',(-0.003,-0.0762,-0.0304554801326022));
#1446=CARTESIAN_POINT('',(-0.003,-0.0762,-0.0304554801326022));
#1447=CARTESIAN_POINT('',(-0.003,-0.0762,3.67394039744206E-19));
#1448=CARTESIAN_POINT('',(-0.003,-0.0762,-0.0407334588578914));
#1449=CARTESIAN_POINT('',(0.,-0.0762,0.));
#1450=CARTESIAN_POINT('',(-0.0337762101549423,-0.0762,-0.022964805640299));
#1451=CARTESIAN_POINT('',(0.0015,-0.0762,-0.00259807621135332));
#1452=CARTESIAN_POINT('',(-0.0248752194792857,-0.0762,-0.0178258162776543));
#1453=CARTESIAN_POINT('',(-0.0278752194792858,-0.0762,-0.0126296638549478));
#1454=CARTESIAN_POINT('',(-0.0278752194792857,-0.0762,-0.0126296638549477));
#1455=CARTESIAN_POINT('',(-0.0015,-0.0762,0.00259807621135332));
#1456=CARTESIAN_POINT('',(-0.0367762101549423,-0.0762,-0.0177686532175924));
#1457=CARTESIAN_POINT('',(0.,-0.0762,0.));
#1458=CARTESIAN_POINT('',(-0.0367762101549423,-0.0762,0.0177686532175924));
#1459=CARTESIAN_POINT('',(-0.0015,-0.0762,-0.00259807621135332));
#1460=CARTESIAN_POINT('',(-0.0278752194792857,-0.0762,0.0126296638549477));
#1461=CARTESIAN_POINT('',(-0.0248752194792858,-0.0762,0.0178258162776544));
#1462=CARTESIAN_POINT('',(-0.0248752194792858,-0.0762,0.0178258162776544));
#1463=CARTESIAN_POINT('',(0.0015,-0.0762,0.00259807621135332));
#1464=CARTESIAN_POINT('',(-0.0337762101549423,-0.0762,0.022964805640299));
#1465=CARTESIAN_POINT('',(0.,-0.0762,0.));
#1466=CARTESIAN_POINT('',(-0.003,-0.0762,0.0407334588578914));
#1467=CARTESIAN_POINT('',(-0.003,-0.0762,0.));
#1468=CARTESIAN_POINT('',(-0.003,-0.0762,0.0304554801326022));
#1469=CARTESIAN_POINT('',(0.003,-0.0762,0.0304554801326022));
#1470=CARTESIAN_POINT('',(0.003,-0.0762,0.0304554801326022));
#1471=CARTESIAN_POINT('',(0.003,-0.0762,0.));
#1472=CARTESIAN_POINT('',(0.003,-0.0762,0.0407334588578914));
#1473=CARTESIAN_POINT('',(0.,-0.0762,0.));
#1474=CARTESIAN_POINT('',(0.0337762101549423,-0.0762,0.022964805640299));
#1475=CARTESIAN_POINT('',(-0.0015,-0.0762,0.00259807621135332));
#1476=CARTESIAN_POINT('',(0.0248752194792857,-0.0762,0.0178258162776543));
#1477=CARTESIAN_POINT('',(0.0278752194792858,-0.0762,0.0126296638549477));
#1478=CARTESIAN_POINT('',(0.0278752194792857,-0.0762,0.0126296638549477));
#1479=CARTESIAN_POINT('',(0.0015,-0.0762,-0.00259807621135332));
#1480=CARTESIAN_POINT('',(0.0367762101549423,-0.0762,0.0177686532175924));
#1481=CARTESIAN_POINT('',(0.,-0.0762,0.));
#1482=CARTESIAN_POINT('',(0.0231650978232434,-0.0762,-0.024372898092116));
#1483=CARTESIAN_POINT('',(0.0215716759131404,-0.0762,-0.0197867613140312));
#1484=CARTESIAN_POINT('',(0.0247466759131404,-0.0762,-0.0142875));
#1485=CARTESIAN_POINT('',(0.0279216759131404,-0.0762,-0.00878823868596883));
#1486=CARTESIAN_POINT('',(0.0326900978232433,-0.0762,-0.00787511415002239));
#1487=CARTESIAN_POINT('',(0.0326900978232433,-0.0762,0.00787511415002235));
#1488=CARTESIAN_POINT('',(0.0279216759131404,-0.0762,0.0087882386859688));
#1489=CARTESIAN_POINT('',(0.0247466759131404,-0.0762,0.0142875));
#1490=CARTESIAN_POINT('',(0.0215716759131404,-0.0762,0.0197867613140312));
#1491=CARTESIAN_POINT('',(0.0231650978232434,-0.0762,0.0243728980921159));
#1492=CARTESIAN_POINT('',(0.009525,-0.0762,0.0322480122421383));
#1493=CARTESIAN_POINT('',(0.00635,-0.0762,0.028575));
#1494=CARTESIAN_POINT('',(0.,-0.0762,0.028575));
#1495=CARTESIAN_POINT('',(-0.00635,-0.0762,0.028575));
#1496=CARTESIAN_POINT('',(-0.009525,-0.0762,0.0322480122421383));
#1497=CARTESIAN_POINT('',(-0.0231650978232434,-0.0762,0.024372898092116));
#1498=CARTESIAN_POINT('',(-0.0215716759131404,-0.0762,0.0197867613140312));
#1499=CARTESIAN_POINT('',(-0.0247466759131404,-0.0762,0.0142875));
#1500=CARTESIAN_POINT('',(-0.0279216759131404,-0.0762,0.00878823868596882));
#1501=CARTESIAN_POINT('',(-0.0326900978232433,-0.0762,0.00787511415002238));
#1502=CARTESIAN_POINT('',(-0.0326900978232433,-0.0762,-0.00787511415002237));
#1503=CARTESIAN_POINT('',(-0.0279216759131404,-0.0762,-0.00878823868596881));
#1504=CARTESIAN_POINT('',(-0.0247466759131404,-0.0762,-0.0142875));
#1505=CARTESIAN_POINT('',(-0.0215716759131404,-0.0762,-0.0197867613140312));
#1506=CARTESIAN_POINT('',(-0.0231650978232434,-0.0762,-0.024372898092116));
#1507=CARTESIAN_POINT('',(-0.009525,-0.0762,-0.0322480122421383));
#1508=CARTESIAN_POINT('',(-0.00635,-0.0762,-0.028575));
#1509=CARTESIAN_POINT('',(-3.49942822856356E-18,-0.0762,-0.028575));
#1510=CARTESIAN_POINT('',(0.00635,-0.0762,-0.028575));
#1511=CARTESIAN_POINT('',(0.009525,-0.0762,-0.0322480122421383));
#1512=CARTESIAN_POINT('',(-0.009525,-0.08255,0.0322480122421383));
#1513=CARTESIAN_POINT('',(-0.00635,-0.08255,0.028575));
#1514=CARTESIAN_POINT('',(0.,-0.08255,0.028575));
#1515=CARTESIAN_POINT('',(0.00635,-0.08255,0.028575));
#1516=CARTESIAN_POINT('',(0.009525,-0.08255,0.0322480122421383));
#1517=CARTESIAN_POINT('',(0.0231650978232434,-0.08255,0.0243728980921159));
#1518=CARTESIAN_POINT('',(0.0215716759131404,-0.08255,0.0197867613140312));
#1519=CARTESIAN_POINT('',(0.0247466759131404,-0.08255,0.0142875));
#1520=CARTESIAN_POINT('',(0.0279216759131404,-0.08255,0.0087882386859688));
#1521=CARTESIAN_POINT('',(0.0326900978232433,-0.08255,0.00787511415002235));
#1522=CARTESIAN_POINT('',(0.0326900978232433,-0.08255,-0.00787511415002239));
#1523=CARTESIAN_POINT('',(0.0279216759131404,-0.08255,-0.00878823868596883));
#1524=CARTESIAN_POINT('',(0.0247466759131404,-0.08255,-0.0142875));
#1525=CARTESIAN_POINT('',(0.0215716759131404,-0.08255,-0.0197867613140312));
#1526=CARTESIAN_POINT('',(0.0231650978232434,-0.08255,-0.024372898092116));
#1527=CARTESIAN_POINT('',(0.009525,-0.08255,-0.0322480122421383));
#1528=CARTESIAN_POINT('',(0.00635,-0.08255,-0.028575));
#1529=CARTESIAN_POINT('',(-3.49942822856356E-18,-0.08255,-0.028575));
#1530=CARTESIAN_POINT('',(-0.00635,-0.08255,-0.028575));
#1531=CARTESIAN_POINT('',(-0.009525,-0.08255,-0.0322480122421383));
#1532=CARTESIAN_POINT('',(-0.0231650978232434,-0.08255,-0.024372898092116));
#1533=CARTESIAN_POINT('',(-0.0215716759131404,-0.08255,-0.0197867613140312));
#1534=CARTESIAN_POINT('',(-0.0247466759131404,-0.08255,-0.0142875));
#1535=CARTESIAN_POINT('',(-0.0279216759131404,-0.08255,-0.00878823868596881));
#1536=CARTESIAN_POINT('',(-0.0326900978232433,-0.08255,-0.00787511415002237));
#1537=CARTESIAN_POINT('',(-0.0326900978232433,-0.08255,0.00787511415002238));
#1538=CARTESIAN_POINT('',(-0.0279216759131404,-0.08255,0.00878823868596882));
#1539=CARTESIAN_POINT('',(-0.0247466759131404,-0.08255,0.0142875));
#1540=CARTESIAN_POINT('',(-0.0215716759131404,-0.08255,0.0197867613140312));
#1541=CARTESIAN_POINT('',(-0.0231650978232434,-0.08255,0.024372898092116));
#1542=CARTESIAN_POINT('',(-0.0338997494590919,-0.0762,0.0227820468162615));
#1543=CARTESIAN_POINT('',(-0.0267313772203333,-0.0762,0.0334486047811048));
#1544=CARTESIAN_POINT('',(-0.0156016528514158,-0.0762,0.0398743541415057));
#1545=CARTESIAN_POINT('',(-0.00277995656354294,-0.0762,0.0407490676216321));
#1546=CARTESIAN_POINT('',(-0.03366383662196,-0.0783275989580772,0.022623503541286));
#1547=CARTESIAN_POINT('',(-0.0265453500330793,-0.0783275989580772,0.0332158315194164));
#1548=CARTESIAN_POINT('',(-0.0154930788870989,-0.0783275989580772,0.0395968632407049));
#1549=CARTESIAN_POINT('',(-0.00276061047838087,-0.0783275989580772,0.0404654894741093));
#1550=CARTESIAN_POINT('',(-0.0334149630652625,-0.0804451316965183,0.0224562501217037));
#1551=CARTESIAN_POINT('',(-0.0263491027737219,-0.0804451316965183,0.0329702700220227));
#1552=CARTESIAN_POINT('',(-0.0153785400218433,-0.0804451316965183,0.0393041273799815));
#1553=CARTESIAN_POINT('',(-0.00274020154650164,-0.0804451316965183,0.0401663319418879));
#1554=CARTESIAN_POINT('',(-0.0331536471620382,-0.0825499999999916,0.0222806349258371));
#1555=CARTESIAN_POINT('',(-0.026143044201189,-0.0825499999999916,0.0327124317633502));
#1556=CARTESIAN_POINT('',(-0.0152582748260318,-0.0825499999999916,0.0389967562921643));
#1557=CARTESIAN_POINT('',(-0.00271877227720266,-0.0825499999999916,0.0398522181333494));
#1558=CARTESIAN_POINT('',(-0.00299999999999998,-0.0825499999999916,0.0398320350075583));
#1559=CARTESIAN_POINT('',(-0.00299999999999998,-0.080436417938802,0.0401490777399574));
#1560=CARTESIAN_POINT('',(-0.003,-0.0783186062861776,0.0404496563563033));
#1561=CARTESIAN_POINT('',(-0.003,-0.0762,0.0407334588578914));
#1562=CARTESIAN_POINT('',(-0.0329955542009766,-0.0825499999999916,0.0225140937151324));
#1563=CARTESIAN_POINT('',(-0.0332701212613194,-0.080436417938802,0.022672615081332));
#1564=CARTESIAN_POINT('',(-0.0335304299789094,-0.0783186062861776,0.022822904389505));
#1565=CARTESIAN_POINT('',(-0.0337762101549422,-0.0762,0.022964805640299));
#1566=CARTESIAN_POINT('',(-0.0366797060226348,-0.0762,-0.0179670208053706));
#1567=CARTESIAN_POINT('',(-0.042333030071749,-0.0762,-0.00642574936040084));
#1568=CARTESIAN_POINT('',(-0.042333030071749,-0.0762,0.00642574936040083));
#1569=CARTESIAN_POINT('',(-0.0366797060226348,-0.0762,0.0179670208053706));
#1570=CARTESIAN_POINT('',(-0.0364244471003402,-0.0783275989580829,-0.017841985932823));
#1571=CARTESIAN_POINT('',(-0.0420384289201773,-0.0783275989580829,-0.00638103172128838));
#1572=CARTESIAN_POINT('',(-0.0420384289201773,-0.0783275989580829,0.00638103172128837));
#1573=CARTESIAN_POINT('',(-0.0364244471003402,-0.0783275989580829,0.017841985932823));
#1574=CARTESIAN_POINT('',(-0.0361551646117626,-0.0804451316965297,-0.0177100818201834));
#1575=CARTESIAN_POINT('',(-0.0417276427955635,-0.0804451316965297,-0.00633385735795851));
#1576=CARTESIAN_POINT('',(-0.0417276427955635,-0.0804451316965297,0.00633385735795849));
#1577=CARTESIAN_POINT('',(-0.0361551646117626,-0.0804451316965297,0.0177100818201834));
#1578=CARTESIAN_POINT('',(-0.0358724194392385,-0.0825500000000085,-0.0175715832075112));
#1579=CARTESIAN_POINT('',(-0.0414013190272182,-0.0825500000000085,-0.00628432452881365));
#1580=CARTESIAN_POINT('',(-0.0414013190272182,-0.0825500000000085,0.00628432452881363));
#1581=CARTESIAN_POINT('',(-0.0358724194392386,-0.0825500000000085,0.0175715832075112));
#1582=CARTESIAN_POINT('',(-0.0359955542009744,-0.0825500000000085,0.0173179412924246));
#1583=CARTESIAN_POINT('',(-0.036270121261318,-0.0804364179388133,0.0174764626586246));
#1584=CARTESIAN_POINT('',(-0.0365304299789087,-0.0783186062861832,0.0176267519667979));
#1585=CARTESIAN_POINT('',(-0.0367762101549422,-0.0762,0.0177686532175924));
#1586=CARTESIAN_POINT('',(-0.0359955542009744,-0.0825500000000085,-0.0173179412924246));
#1587=CARTESIAN_POINT('',(-0.036270121261318,-0.0804364179388133,-0.0174764626586245));
#1588=CARTESIAN_POINT('',(-0.0365304299789087,-0.0783186062861832,-0.017626751966798));
#1589=CARTESIAN_POINT('',(-0.0367762101549422,-0.0762,-0.0177686532175924));
#1590=CARTESIAN_POINT('',(-0.00277995656354293,-0.0762,-0.0407490676216321));
#1591=CARTESIAN_POINT('',(-0.0156016528514158,-0.0762,-0.0398743541415057));
#1592=CARTESIAN_POINT('',(-0.0267313772203332,-0.0762,-0.0334486047811048));
#1593=CARTESIAN_POINT('',(-0.0338997494590919,-0.0762,-0.0227820468162615));
#1594=CARTESIAN_POINT('',(-0.0027606104783808,-0.0783275989580829,-0.0404654894741085));
#1595=CARTESIAN_POINT('',(-0.0154930788870986,-0.0783275989580829,-0.0395968632407042));
#1596=CARTESIAN_POINT('',(-0.0265453500330787,-0.0783275989580829,-0.0332158315194158));
#1597=CARTESIAN_POINT('',(-0.0336638366219594,-0.0783275989580829,-0.0226235035412856));
#1598=CARTESIAN_POINT('',(-0.00274020154650151,-0.0804451316965297,-0.0401663319418863));
#1599=CARTESIAN_POINT('',(-0.0153785400218427,-0.0804451316965297,-0.0393041273799799));
#1600=CARTESIAN_POINT('',(-0.0263491027737208,-0.0804451316965297,-0.0329702700220214));
#1601=CARTESIAN_POINT('',(-0.0334149630652611,-0.0804451316965297,-0.0224562501217029));
#1602=CARTESIAN_POINT('',(-0.00271877227720248,-0.0825500000000085,-0.0398522181333469));
#1603=CARTESIAN_POINT('',(-0.0152582748260308,-0.0825500000000085,-0.0389967562921618));
#1604=CARTESIAN_POINT('',(-0.0261430442011874,-0.0825500000000085,-0.0327124317633482));
#1605=CARTESIAN_POINT('',(-0.033153647162036,-0.0825500000000085,-0.0222806349258357));
#1606=CARTESIAN_POINT('',(-0.0329955542009744,-0.0825500000000085,-0.0225140937151312));
#1607=CARTESIAN_POINT('',(-0.033270121261318,-0.0804364179388133,-0.0226726150813312));
#1608=CARTESIAN_POINT('',(-0.0335304299789087,-0.0783186062861832,-0.0228229043895046));
#1609=CARTESIAN_POINT('',(-0.0337762101549423,-0.0762,-0.022964805640299));
#1610=CARTESIAN_POINT('',(-0.00300000000000001,-0.0825499999999915,-0.0398320350075583));
#1611=CARTESIAN_POINT('',(-0.00300000000000001,-0.080436417938802,-0.0401490777399573));
#1612=CARTESIAN_POINT('',(-0.003,-0.0783186062861776,-0.0404496563563033));
#1613=CARTESIAN_POINT('',(-0.003,-0.0762000000000001,-0.0407334588578914));
#1614=CARTESIAN_POINT('',(0.0338997494590919,-0.0762,-0.0227820468162616));
#1615=CARTESIAN_POINT('',(0.0267313772203332,-0.0762,-0.0334486047811048));
#1616=CARTESIAN_POINT('',(0.0156016528514158,-0.0762,-0.0398743541415057));
#1617=CARTESIAN_POINT('',(0.00277995656354295,-0.0762,-0.0407490676216321));
#1618=CARTESIAN_POINT('',(0.03366383662196,-0.0783275989580772,-0.022623503541286));
#1619=CARTESIAN_POINT('',(0.0265453500330792,-0.0783275989580772,-0.0332158315194164));
#1620=CARTESIAN_POINT('',(0.0154930788870989,-0.0783275989580772,-0.0395968632407049));
#1621=CARTESIAN_POINT('',(0.00276061047838087,-0.0783275989580772,-0.0404654894741093));
#1622=CARTESIAN_POINT('',(0.0334149630652624,-0.0804451316965183,-0.0224562501217038));
#1623=CARTESIAN_POINT('',(0.0263491027737218,-0.0804451316965183,-0.0329702700220228));
#1624=CARTESIAN_POINT('',(0.0153785400218433,-0.0804451316965183,-0.0393041273799815));
#1625=CARTESIAN_POINT('',(0.00274020154650163,-0.0804451316965183,-0.0401663319418879));
#1626=CARTESIAN_POINT('',(0.0331536471620381,-0.0825499999999916,-0.0222806349258371));
#1627=CARTESIAN_POINT('',(0.026143044201189,-0.0825499999999916,-0.0327124317633502));
#1628=CARTESIAN_POINT('',(0.0152582748260317,-0.0825499999999916,-0.0389967562921643));
#1629=CARTESIAN_POINT('',(0.00271877227720266,-0.0825499999999916,-0.0398522181333494));
#1630=CARTESIAN_POINT('',(0.003,-0.0825499999999915,-0.0398320350075583));
#1631=CARTESIAN_POINT('',(0.003,-0.0804364179388019,-0.0401490777399574));
#1632=CARTESIAN_POINT('',(0.00299999999999999,-0.0783186062861776,-0.0404496563563033));
#1633=CARTESIAN_POINT('',(0.00299999999999999,-0.0762,-0.0407334588578914));
#1634=CARTESIAN_POINT('',(0.0329955542009766,-0.0825499999999916,-0.0225140937151325));
#1635=CARTESIAN_POINT('',(0.0332701212613194,-0.080436417938802,-0.022672615081332));
#1636=CARTESIAN_POINT('',(0.0335304299789094,-0.0783186062861776,-0.022822904389505));
#1637=CARTESIAN_POINT('',(0.0337762101549422,-0.0762,-0.022964805640299));
#1638=CARTESIAN_POINT('',(0.0366797060226348,-0.0762,0.0179670208053706));
#1639=CARTESIAN_POINT('',(0.042333030071749,-0.0762,0.00642574936040083));
#1640=CARTESIAN_POINT('',(0.042333030071749,-0.0762,-0.00642574936040085));
#1641=CARTESIAN_POINT('',(0.0366797060226348,-0.0762,-0.0179670208053706));
#1642=CARTESIAN_POINT('',(0.0364244471003409,-0.0783275989580772,0.0178419859328233));
#1643=CARTESIAN_POINT('',(0.0420384289201781,-0.0783275989580772,0.00638103172128849));
#1644=CARTESIAN_POINT('',(0.0420384289201781,-0.0783275989580772,-0.00638103172128851));
#1645=CARTESIAN_POINT('',(0.0364244471003409,-0.0783275989580772,-0.0178419859328233));
#1646=CARTESIAN_POINT('',(0.0361551646117641,-0.0804451316965183,0.0177100818201841));
#1647=CARTESIAN_POINT('',(0.0417276427955651,-0.0804451316965183,0.00633385735795875));
#1648=CARTESIAN_POINT('',(0.0417276427955651,-0.0804451316965183,-0.00633385735795878));
#1649=CARTESIAN_POINT('',(0.0361551646117641,-0.0804451316965183,-0.0177100818201841));
#1650=CARTESIAN_POINT('',(0.0358724194392408,-0.0825499999999916,0.0175715832075123));
#1651=CARTESIAN_POINT('',(0.0414013190272208,-0.0825499999999916,0.00628432452881403));
#1652=CARTESIAN_POINT('',(0.0414013190272208,-0.0825499999999916,-0.00628432452881406));
#1653=CARTESIAN_POINT('',(0.0358724194392408,-0.0825499999999916,-0.0175715832075124));
#1654=CARTESIAN_POINT('',(0.0359955542009766,-0.0825499999999916,-0.0173179412924259));
#1655=CARTESIAN_POINT('',(0.0362701212613194,-0.080436417938802,-0.0174764626586254));
#1656=CARTESIAN_POINT('',(0.0365304299789094,-0.0783186062861776,-0.0176267519667984));
#1657=CARTESIAN_POINT('',(0.0367762101549422,-0.0762,-0.0177686532175924));
#1658=CARTESIAN_POINT('',(0.0359955542009766,-0.0825499999999915,0.0173179412924258));
#1659=CARTESIAN_POINT('',(0.0362701212613194,-0.080436417938802,0.0174764626586254));
#1660=CARTESIAN_POINT('',(0.0365304299789094,-0.0783186062861776,0.0176267519667983));
#1661=CARTESIAN_POINT('',(0.0367762101549422,-0.0762,0.0177686532175924));
#1662=CARTESIAN_POINT('',(0.00277995656354295,-0.0762,0.0407490676216321));
#1663=CARTESIAN_POINT('',(0.0156016528514158,-0.0762,0.0398743541415057));
#1664=CARTESIAN_POINT('',(0.0267313772203333,-0.0762,0.0334486047811048));
#1665=CARTESIAN_POINT('',(0.0338997494590919,-0.0762,0.0227820468162615));
#1666=CARTESIAN_POINT('',(0.00276061047838087,-0.0783275989580772,0.0404654894741093));
#1667=CARTESIAN_POINT('',(0.0154930788870989,-0.0783275989580772,0.0395968632407049));
#1668=CARTESIAN_POINT('',(0.0265453500330793,-0.0783275989580772,0.0332158315194164));
#1669=CARTESIAN_POINT('',(0.03366383662196,-0.0783275989580772,0.022623503541286));
#1670=CARTESIAN_POINT('',(0.00274020154650163,-0.0804451316965183,0.0401663319418879));
#1671=CARTESIAN_POINT('',(0.0153785400218433,-0.0804451316965183,0.0393041273799815));
#1672=CARTESIAN_POINT('',(0.0263491027737219,-0.0804451316965183,0.0329702700220227));
#1673=CARTESIAN_POINT('',(0.0334149630652625,-0.0804451316965183,0.0224562501217037));
#1674=CARTESIAN_POINT('',(0.00271877227720266,-0.0825499999999916,0.0398522181333494));
#1675=CARTESIAN_POINT('',(0.0152582748260318,-0.0825499999999916,0.0389967562921643));
#1676=CARTESIAN_POINT('',(0.026143044201189,-0.0825499999999916,0.0327124317633502));
#1677=CARTESIAN_POINT('',(0.0331536471620382,-0.0825499999999916,0.0222806349258371));
#1678=CARTESIAN_POINT('',(0.0329955542009766,-0.0825499999999916,0.0225140937151325));
#1679=CARTESIAN_POINT('',(0.0332701212613194,-0.080436417938802,0.022672615081332));
#1680=CARTESIAN_POINT('',(0.0335304299789094,-0.0783186062861776,0.022822904389505));
#1681=CARTESIAN_POINT('',(0.0337762101549422,-0.0762,0.022964805640299));
#1682=CARTESIAN_POINT('',(0.003,-0.0825499999999916,0.0398320350075583));
#1683=CARTESIAN_POINT('',(0.003,-0.080436417938802,0.0401490777399574));
#1684=CARTESIAN_POINT('',(0.003,-0.0783186062861776,0.0404496563563033));
#1685=CARTESIAN_POINT('',(0.003,-0.0762,0.0407334588578914));
#1686=CARTESIAN_POINT('',(0.003,-0.0889,0.));
#1687=CARTESIAN_POINT('',(0.003,-0.0254,0.0343486471045059));
#1688=CARTESIAN_POINT('',(0.003,-0.0611945776330988,0.0343486471045059));
#1689=CARTESIAN_POINT('',(0.003,-0.116500385761716,0.0258218348572162));
#1690=CARTESIAN_POINT('',(0.003,-0.146050000000005,0.0147763529403626));
#1691=CARTESIAN_POINT('',(-0.003,-0.0889,0.));
#1692=CARTESIAN_POINT('',(-0.003,-0.0254,0.0343486471045059));
#1693=CARTESIAN_POINT('',(-0.003,-0.0611945776330988,0.0343486471045059));
#1694=CARTESIAN_POINT('',(-0.003,-0.116500385761716,0.0258218348572162));
#1695=CARTESIAN_POINT('',(-0.003,-0.146050000000005,0.0147763529403626));
#1696=CARTESIAN_POINT('',(0.0018,-0.00795070383696406,-0.47323349141838));
#1697=CARTESIAN_POINT('',(0.0015,-0.0889,-0.00259807621135332));
#1698=CARTESIAN_POINT('',(0.031246800978129,-0.0254,0.0145762473408996));
#1699=CARTESIAN_POINT('',(0.031246800978129,-0.0611945776330988,0.0145762473408996));
#1700=CARTESIAN_POINT('',(0.0238623649586758,-0.116500385761716,0.0103128412172548));
#1701=CARTESIAN_POINT('',(0.0142966970216389,-0.146050000000005,0.00479010025882798));
#1702=CARTESIAN_POINT('',(-0.0015,-0.0889,0.00259807621135332));
#1703=CARTESIAN_POINT('',(0.028246800978129,-0.0254,0.0197723997636063));
#1704=CARTESIAN_POINT('',(0.028246800978129,-0.0611945776330988,0.0197723997636063));
#1705=CARTESIAN_POINT('',(0.0208623649586758,-0.116500385761716,0.0155089936399614));
#1706=CARTESIAN_POINT('',(0.0112966970216389,-0.146050000000005,0.00998625268153461));
#1707=CARTESIAN_POINT('',(-0.408932225489932,-0.00795070383696224,-0.238175591436008));
#1708=CARTESIAN_POINT('',(-0.0015,-0.0889,-0.00259807621135332));
#1709=CARTESIAN_POINT('',(0.0282468009781289,-0.0254,-0.0197723997636063));
#1710=CARTESIAN_POINT('',(0.0282468009781289,-0.0611945776330988,-0.0197723997636063));
#1711=CARTESIAN_POINT('',(0.0208623649586758,-0.116500385761716,-0.0155089936399615));
#1712=CARTESIAN_POINT('',(0.0112966970216389,-0.146050000000005,-0.00998625268153463));
#1713=CARTESIAN_POINT('',(0.0015,-0.0889,0.00259807621135332));
#1714=CARTESIAN_POINT('',(0.0312468009781289,-0.0254,-0.0145762473408997));
#1715=CARTESIAN_POINT('',(0.0312468009781289,-0.0611945776330988,-0.0145762473408997));
#1716=CARTESIAN_POINT('',(0.0238623649586757,-0.116500385761716,-0.0103128412172548));
#1717=CARTESIAN_POINT('',(0.0142966970216389,-0.146050000000005,-0.004790100258828));
#1718=CARTESIAN_POINT('',(-0.410732225489922,-0.00795070383696399,0.235057899982378));
#1719=CARTESIAN_POINT('',(-0.003,-0.0889,3.67394039744206E-19));
#1720=CARTESIAN_POINT('',(-0.003,-0.0254,-0.0343486471045059));
#1721=CARTESIAN_POINT('',(-0.003,-0.0611945776330988,-0.0343486471045059));
#1722=CARTESIAN_POINT('',(-0.003,-0.116500385761716,-0.0258218348572162));
#1723=CARTESIAN_POINT('',(-0.003,-0.146050000000005,-0.0147763529403626));
#1724=CARTESIAN_POINT('',(0.003,-0.0889,-3.67394039744206E-19));
#1725=CARTESIAN_POINT('',(0.003,-0.0254,-0.0343486471045059));
#1726=CARTESIAN_POINT('',(0.003,-0.0611945776330988,-0.0343486471045059));
#1727=CARTESIAN_POINT('',(0.003,-0.116500385761716,-0.0258218348572162));
#1728=CARTESIAN_POINT('',(0.003,-0.146050000000005,-0.0147763529403626));
#1729=CARTESIAN_POINT('',(-0.00179999999999994,-0.00795070383695998,0.473233491418409));
#1730=CARTESIAN_POINT('',(-0.0015,-0.0889,0.00259807621135332));
#1731=CARTESIAN_POINT('',(-0.031246800978129,-0.0254,-0.0145762473408996));
#1732=CARTESIAN_POINT('',(-0.031246800978129,-0.0611945776330988,-0.0145762473408996));
#1733=CARTESIAN_POINT('',(-0.0238623649586758,-0.116500385761716,-0.0103128412172548));
#1734=CARTESIAN_POINT('',(-0.0142966970216389,-0.146050000000005,-0.00479010025882798));
#1735=CARTESIAN_POINT('',(0.0015,-0.0889,-0.00259807621135332));
#1736=CARTESIAN_POINT('',(-0.028246800978129,-0.0254,-0.0197723997636063));
#1737=CARTESIAN_POINT('',(-0.028246800978129,-0.0611945776330988,-0.0197723997636063));
#1738=CARTESIAN_POINT('',(-0.0208623649586758,-0.116500385761716,-0.0155089936399615));
#1739=CARTESIAN_POINT('',(-0.0112966970216389,-0.146050000000005,-0.00998625268153462));
#1740=CARTESIAN_POINT('',(0.408932225489926,-0.00795070383696331,0.238175591436004));
#1741=CARTESIAN_POINT('',(0.0015,-0.0889,0.00259807621135332));
#1742=CARTESIAN_POINT('',(-0.0282468009781289,-0.0254,0.0197723997636063));
#1743=CARTESIAN_POINT('',(-0.0282468009781289,-0.0611945776330988,0.0197723997636063));
#1744=CARTESIAN_POINT('',(-0.0208623649586758,-0.116500385761716,0.0155089936399615));
#1745=CARTESIAN_POINT('',(-0.0112966970216389,-0.146050000000005,0.00998625268153462));
#1746=CARTESIAN_POINT('',(-0.0015,-0.0889,-0.00259807621135332));
#1747=CARTESIAN_POINT('',(-0.031246800978129,-0.0254,0.0145762473408996));
#1748=CARTESIAN_POINT('',(-0.031246800978129,-0.0611945776330988,0.0145762473408996));
#1749=CARTESIAN_POINT('',(-0.0238623649586758,-0.116500385761716,0.0103128412172548));
#1750=CARTESIAN_POINT('',(-0.0142966970216389,-0.146050000000005,0.00479010025882799));
#1751=CARTESIAN_POINT('',(0.410732225489947,-0.00795070383695996,-0.235057899982392));
#1752=MECHANICAL_DESIGN_GEOMETRIC_PRESENTATION_REPRESENTATION('',(#985),
#1753);
#1753=(
GEOMETRIC_REPRESENTATION_CONTEXT(3)
GLOBAL_UNCERTAINTY_ASSIGNED_CONTEXT((#1754))
GLOBAL_UNIT_ASSIGNED_CONTEXT((#1757,#1756,#1755))
REPRESENTATION_CONTEXT('Nose Ring','TOP_LEVEL_ASSEMBLY_PART')
);
#1754=UNCERTAINTY_MEASURE_WITH_UNIT(LENGTH_MEASURE(2.E-5),#1757,
'DISTANCE_ACCURACY_VALUE','Maximum Tolerance applied to model');
#1755=(
NAMED_UNIT(*)
SI_UNIT($,.STERADIAN.)
SOLID_ANGLE_UNIT()
);
#1756=(
NAMED_UNIT(*)
PLANE_ANGLE_UNIT()
SI_UNIT($,.RADIAN.)
);
#1757=(
LENGTH_UNIT()
NAMED_UNIT(*)
SI_UNIT($,.METRE.)
);
#1758=PRODUCT_DEFINITION_SHAPE('','',#1759);
#1759=PRODUCT_DEFINITION('','',#1761,#1760);
#1760=PRODUCT_DEFINITION_CONTEXT('',#1767,'design');
#1761=PRODUCT_DEFINITION_FORMATION_WITH_SPECIFIED_SOURCE('','',#1763,
 .NOT_KNOWN.);
#1762=PRODUCT_RELATED_PRODUCT_CATEGORY('','',(#1763));
#1763=PRODUCT('Nose Ring','Nose Ring','Nose Ring',(#1765));
#1764=PRODUCT_CATEGORY('','');
#1765=PRODUCT_CONTEXT('',#1767,'mechanical');
#1766=APPLICATION_PROTOCOL_DEFINITION('international standard',
'ap242_managed_model_based_3d_engineering',2020,#1767);
#1767=APPLICATION_CONTEXT('managed model based 3d engineering');
ENDSEC;
END-ISO-10303-21;
