ISO-10303-21;
HEADER;
/* Generated by software containing ST-Developer
 * from STEP Tools, Inc. (www.steptools.com) 
 */
/* OPTION: using custom renumber hook */

FILE_DESCRIPTION(
/* description */ ('STEP AP242 Edition 2',
'CAx-IF Rec.Pracs.---Representation and Presentation of Product Manufa
cturing Information (PMI)---4.0---2014-10-13',
'CAx-IF Rec.Pracs.---3D Tessellated Geometry---0.4---2014-09-14','2;1',
'CAx-IF Rec.Pracs.---User Defined Attributes---1.5---2016-08-15'),
/* implementation_level */ '2;1');

FILE_NAME(
/* name */ 'Front Hull and Nose - Hull Connector',
/* time_stamp */ '2026-08-24T02:47:21Z',
/* author */ (''),
/* organization */ (''),
/* preprocessor_version */ 'ST-DEVELOPER v20',
/* originating_system */ 'ONSHAPE BY PTC INC, 1.219',
/* authorisation */ '  ');

FILE_SCHEMA (('AP242_MANAGED_MODEL_BASED_3D_ENGINEERING_MIM_LF { 1 0 10303 442 3 1 4 }'));
ENDSEC;

DATA;
#10=SHAPE_REPRESENTATION_RELATIONSHIP('','',#214,#11);
#11=ADVANCED_BREP_SHAPE_REPRESENTATION('',(#212),#348);
#12=CIRCLE('',#218,0.04445);
#13=CIRCLE('',#219,0.04445);
#14=CIRCLE('',#224,0.04445);
#15=CIRCLE('',#225,0.04445);
#16=CIRCLE('',#228,0.03175);
#17=CIRCLE('',#229,0.03175);
#18=CYLINDRICAL_SURFACE('',#217,0.04445);
#19=CYLINDRICAL_SURFACE('',#223,0.04445);
#20=CYLINDRICAL_SURFACE('',#227,0.03175);
#21=ORIENTED_EDGE('',*,*,#75,.F.);
#22=ORIENTED_EDGE('',*,*,#76,.F.);
#23=ORIENTED_EDGE('',*,*,#77,.T.);
#24=ORIENTED_EDGE('',*,*,#78,.T.);
#25=ORIENTED_EDGE('',*,*,#79,.T.);
#26=ORIENTED_EDGE('',*,*,#80,.F.);
#27=ORIENTED_EDGE('',*,*,#81,.F.);
#28=ORIENTED_EDGE('',*,*,#76,.T.);
#29=ORIENTED_EDGE('',*,*,#82,.T.);
#30=ORIENTED_EDGE('',*,*,#83,.F.);
#31=ORIENTED_EDGE('',*,*,#84,.F.);
#32=ORIENTED_EDGE('',*,*,#80,.T.);
#33=ORIENTED_EDGE('',*,*,#85,.T.);
#34=ORIENTED_EDGE('',*,*,#86,.F.);
#35=ORIENTED_EDGE('',*,*,#87,.F.);
#36=ORIENTED_EDGE('',*,*,#83,.T.);
#37=ORIENTED_EDGE('',*,*,#88,.T.);
#38=ORIENTED_EDGE('',*,*,#89,.F.);
#39=ORIENTED_EDGE('',*,*,#90,.F.);
#40=ORIENTED_EDGE('',*,*,#86,.T.);
#41=ORIENTED_EDGE('',*,*,#91,.T.);
#42=ORIENTED_EDGE('',*,*,#92,.F.);
#43=ORIENTED_EDGE('',*,*,#93,.F.);
#44=ORIENTED_EDGE('',*,*,#89,.T.);
#45=ORIENTED_EDGE('',*,*,#94,.F.);
#46=ORIENTED_EDGE('',*,*,#95,.F.);
#47=ORIENTED_EDGE('',*,*,#96,.T.);
#48=ORIENTED_EDGE('',*,*,#92,.T.);
#49=ORIENTED_EDGE('',*,*,#97,.F.);
#50=ORIENTED_EDGE('',*,*,#98,.F.);
#51=ORIENTED_EDGE('',*,*,#99,.T.);
#52=ORIENTED_EDGE('',*,*,#95,.T.);
#53=ORIENTED_EDGE('',*,*,#100,.F.);
#54=ORIENTED_EDGE('',*,*,#78,.F.);
#55=ORIENTED_EDGE('',*,*,#101,.T.);
#56=ORIENTED_EDGE('',*,*,#98,.T.);
#57=ORIENTED_EDGE('',*,*,#77,.F.);
#58=ORIENTED_EDGE('',*,*,#81,.T.);
#59=ORIENTED_EDGE('',*,*,#84,.T.);
#60=ORIENTED_EDGE('',*,*,#87,.T.);
#61=ORIENTED_EDGE('',*,*,#90,.T.);
#62=ORIENTED_EDGE('',*,*,#93,.T.);
#63=ORIENTED_EDGE('',*,*,#96,.F.);
#64=ORIENTED_EDGE('',*,*,#99,.F.);
#65=ORIENTED_EDGE('',*,*,#101,.F.);
#66=ORIENTED_EDGE('',*,*,#75,.T.);
#67=ORIENTED_EDGE('',*,*,#100,.T.);
#68=ORIENTED_EDGE('',*,*,#97,.T.);
#69=ORIENTED_EDGE('',*,*,#94,.T.);
#70=ORIENTED_EDGE('',*,*,#91,.F.);
#71=ORIENTED_EDGE('',*,*,#88,.F.);
#72=ORIENTED_EDGE('',*,*,#85,.F.);
#73=ORIENTED_EDGE('',*,*,#82,.F.);
#74=ORIENTED_EDGE('',*,*,#79,.F.);
#75=EDGE_CURVE('',#102,#103,#120,.T.);
#76=EDGE_CURVE('',#104,#102,#121,.T.);
#77=EDGE_CURVE('',#104,#105,#122,.T.);
#78=EDGE_CURVE('',#105,#103,#123,.T.);
#79=EDGE_CURVE('',#102,#106,#12,.T.);
#80=EDGE_CURVE('',#107,#106,#124,.T.);
#81=EDGE_CURVE('',#104,#107,#13,.T.);
#82=EDGE_CURVE('',#106,#108,#125,.T.);
#83=EDGE_CURVE('',#109,#108,#126,.T.);
#84=EDGE_CURVE('',#107,#109,#127,.T.);
#85=EDGE_CURVE('',#108,#110,#128,.T.);
#86=EDGE_CURVE('',#111,#110,#129,.T.);
#87=EDGE_CURVE('',#109,#111,#130,.T.);
#88=EDGE_CURVE('',#110,#112,#131,.T.);
#89=EDGE_CURVE('',#113,#112,#132,.T.);
#90=EDGE_CURVE('',#111,#113,#133,.T.);
#91=EDGE_CURVE('',#112,#114,#14,.T.);
#92=EDGE_CURVE('',#115,#114,#134,.T.);
#93=EDGE_CURVE('',#113,#115,#15,.T.);
#94=EDGE_CURVE('',#116,#114,#135,.T.);
#95=EDGE_CURVE('',#117,#116,#136,.T.);
#96=EDGE_CURVE('',#117,#115,#137,.T.);
#97=EDGE_CURVE('',#118,#116,#16,.T.);
#98=EDGE_CURVE('',#119,#118,#138,.T.);
#99=EDGE_CURVE('',#119,#117,#17,.T.);
#100=EDGE_CURVE('',#103,#118,#139,.T.);
#101=EDGE_CURVE('',#105,#119,#140,.T.);
#102=VERTEX_POINT('',#293);
#103=VERTEX_POINT('',#294);
#104=VERTEX_POINT('',#296);
#105=VERTEX_POINT('',#298);
#106=VERTEX_POINT('',#302);
#107=VERTEX_POINT('',#304);
#108=VERTEX_POINT('',#308);
#109=VERTEX_POINT('',#310);
#110=VERTEX_POINT('',#314);
#111=VERTEX_POINT('',#316);
#112=VERTEX_POINT('',#320);
#113=VERTEX_POINT('',#322);
#114=VERTEX_POINT('',#326);
#115=VERTEX_POINT('',#328);
#116=VERTEX_POINT('',#332);
#117=VERTEX_POINT('',#334);
#118=VERTEX_POINT('',#338);
#119=VERTEX_POINT('',#340);
#120=LINE('',#292,#141);
#121=LINE('',#295,#142);
#122=LINE('',#297,#143);
#123=LINE('',#299,#144);
#124=LINE('',#303,#145);
#125=LINE('',#307,#146);
#126=LINE('',#309,#147);
#127=LINE('',#311,#148);
#128=LINE('',#313,#149);
#129=LINE('',#315,#150);
#130=LINE('',#317,#151);
#131=LINE('',#319,#152);
#132=LINE('',#321,#153);
#133=LINE('',#323,#154);
#134=LINE('',#327,#155);
#135=LINE('',#331,#156);
#136=LINE('',#333,#157);
#137=LINE('',#335,#158);
#138=LINE('',#339,#159);
#139=LINE('',#343,#160);
#140=LINE('',#344,#161);
#141=VECTOR('',#237,1.);
#142=VECTOR('',#238,1.);
#143=VECTOR('',#239,1.);
#144=VECTOR('',#240,1.);
#145=VECTOR('',#245,1.);
#146=VECTOR('',#250,1.);
#147=VECTOR('',#251,1.);
#148=VECTOR('',#252,1.);
#149=VECTOR('',#255,1.);
#150=VECTOR('',#256,1.);
#151=VECTOR('',#257,1.);
#152=VECTOR('',#260,1.);
#153=VECTOR('',#261,1.);
#154=VECTOR('',#262,1.);
#155=VECTOR('',#267,1.);
#156=VECTOR('',#272,1.);
#157=VECTOR('',#273,1.);
#158=VECTOR('',#274,1.);
#159=VECTOR('',#279,1.);
#160=VECTOR('',#284,1.);
#161=VECTOR('',#285,1.);
#162=EDGE_LOOP('',(#21,#22,#23,#24));
#163=EDGE_LOOP('',(#25,#26,#27,#28));
#164=EDGE_LOOP('',(#29,#30,#31,#32));
#165=EDGE_LOOP('',(#33,#34,#35,#36));
#166=EDGE_LOOP('',(#37,#38,#39,#40));
#167=EDGE_LOOP('',(#41,#42,#43,#44));
#168=EDGE_LOOP('',(#45,#46,#47,#48));
#169=EDGE_LOOP('',(#49,#50,#51,#52));
#170=EDGE_LOOP('',(#53,#54,#55,#56));
#171=EDGE_LOOP('',(#57,#58,#59,#60,#61,#62,#63,#64,#65));
#172=EDGE_LOOP('',(#66,#67,#68,#69,#70,#71,#72,#73,#74));
#173=FACE_BOUND('',#162,.T.);
#174=FACE_BOUND('',#163,.T.);
#175=FACE_BOUND('',#164,.T.);
#176=FACE_BOUND('',#165,.T.);
#177=FACE_BOUND('',#166,.T.);
#178=FACE_BOUND('',#167,.T.);
#179=FACE_BOUND('',#168,.T.);
#180=FACE_BOUND('',#169,.T.);
#181=FACE_BOUND('',#170,.T.);
#182=FACE_BOUND('',#171,.T.);
#183=FACE_BOUND('',#172,.T.);
#184=PLANE('',#216);
#185=PLANE('',#220);
#186=PLANE('',#221);
#187=PLANE('',#222);
#188=PLANE('',#226);
#189=PLANE('',#230);
#190=PLANE('',#231);
#191=PLANE('',#232);
#192=ADVANCED_FACE('',(#173),#184,.T.);
#193=ADVANCED_FACE('',(#174),#18,.T.);
#194=ADVANCED_FACE('',(#175),#185,.F.);
#195=ADVANCED_FACE('',(#176),#186,.F.);
#196=ADVANCED_FACE('',(#177),#187,.F.);
#197=ADVANCED_FACE('',(#178),#19,.T.);
#198=ADVANCED_FACE('',(#179),#188,.T.);
#199=ADVANCED_FACE('',(#180),#20,.F.);
#200=ADVANCED_FACE('',(#181),#189,.T.);
#201=ADVANCED_FACE('',(#182),#190,.T.);
#202=ADVANCED_FACE('',(#183),#191,.F.);
#203=CLOSED_SHELL('',(#192,#193,#194,#195,#196,#197,#198,#199,#200,#201,
#202));
#204=STYLED_ITEM('',(#205),#212);
#205=PRESENTATION_STYLE_ASSIGNMENT((#206));
#206=SURFACE_STYLE_USAGE(.BOTH.,#207);
#207=SURFACE_SIDE_STYLE('',(#208));
#208=SURFACE_STYLE_FILL_AREA(#209);
#209=FILL_AREA_STYLE('',(#210));
#210=FILL_AREA_STYLE_COLOUR('',#211);
#211=COLOUR_RGB('',0.701960784313725,0.701960784313725,0.701960784313725);
#212=MANIFOLD_SOLID_BREP('Hull Connector',#203);
#213=SHAPE_DEFINITION_REPRESENTATION(#353,#214);
#214=SHAPE_REPRESENTATION('Hull Connector',(#215),#348);
#215=AXIS2_PLACEMENT_3D('',#290,#233,#234);
#216=AXIS2_PLACEMENT_3D('',#291,#235,#236);
#217=AXIS2_PLACEMENT_3D('',#300,#241,#242);
#218=AXIS2_PLACEMENT_3D('',#301,#243,#244);
#219=AXIS2_PLACEMENT_3D('',#305,#246,#247);
#220=AXIS2_PLACEMENT_3D('',#306,#248,#249);
#221=AXIS2_PLACEMENT_3D('',#312,#253,#254);
#222=AXIS2_PLACEMENT_3D('',#318,#258,#259);
#223=AXIS2_PLACEMENT_3D('',#324,#263,#264);
#224=AXIS2_PLACEMENT_3D('',#325,#265,#266);
#225=AXIS2_PLACEMENT_3D('',#329,#268,#269);
#226=AXIS2_PLACEMENT_3D('',#330,#270,#271);
#227=AXIS2_PLACEMENT_3D('',#336,#275,#276);
#228=AXIS2_PLACEMENT_3D('',#337,#277,#278);
#229=AXIS2_PLACEMENT_3D('',#341,#280,#281);
#230=AXIS2_PLACEMENT_3D('',#342,#282,#283);
#231=AXIS2_PLACEMENT_3D('',#345,#286,#287);
#232=AXIS2_PLACEMENT_3D('',#346,#288,#289);
#233=DIRECTION('',(0.,0.,1.));
#234=DIRECTION('',(1.,0.,0.));
#235=DIRECTION('',(0.460566157133322,0.,0.887625379821602));
#236=DIRECTION('',(0.887625379821603,0.,-0.460566157133322));
#237=DIRECTION('',(0.887625379821602,0.,-0.460566157133322));
#238=DIRECTION('',(0.,1.,0.));
#239=DIRECTION('',(0.887625379821602,0.,-0.460566157133322));
#240=DIRECTION('',(0.,1.,0.));
#241=DIRECTION('',(0.,1.,0.));
#242=DIRECTION('',(0.,0.,1.));
#243=DIRECTION('',(0.,-1.,0.));
#244=DIRECTION('',(0.,0.,-1.));
#245=DIRECTION('',(0.,1.,0.));
#246=DIRECTION('',(0.,-1.,0.));
#247=DIRECTION('',(0.,0.,-1.));
#248=DIRECTION('',(1.,0.,8.67361737988404E-17));
#249=DIRECTION('',(8.67361737988404E-17,0.,-1.));
#250=DIRECTION('',(8.67361737988404E-17,0.,-1.));
#251=DIRECTION('',(0.,1.,0.));
#252=DIRECTION('',(8.67361737988404E-17,0.,-1.));
#253=DIRECTION('',(0.,0.,-1.));
#254=DIRECTION('',(-1.,0.,0.));
#255=DIRECTION('',(-1.,0.,0.));
#256=DIRECTION('',(0.,1.,0.));
#257=DIRECTION('',(-1.,0.,0.));
#258=DIRECTION('',(-1.,0.,-1.3010426069826E-16));
#259=DIRECTION('',(-1.3010426069826E-16,0.,1.));
#260=DIRECTION('',(-1.3010426069826E-16,0.,1.));
#261=DIRECTION('',(0.,1.,0.));
#262=DIRECTION('',(-1.3010426069826E-16,0.,1.));
#263=DIRECTION('',(0.,1.,0.));
#264=DIRECTION('',(0.,0.,1.));
#265=DIRECTION('',(0.,-1.,0.));
#266=DIRECTION('',(0.,0.,-1.));
#267=DIRECTION('',(0.,1.,0.));
#268=DIRECTION('',(0.,-1.,0.));
#269=DIRECTION('',(0.,0.,-1.));
#270=DIRECTION('',(-0.552164284512639,0.,-0.833735331450363));
#271=DIRECTION('',(-0.833735331450363,0.,0.552164284512639));
#272=DIRECTION('',(-0.833735331450363,0.,0.552164284512639));
#273=DIRECTION('',(0.,1.,0.));
#274=DIRECTION('',(-0.833735331450363,0.,0.552164284512639));
#275=DIRECTION('',(0.,1.,0.));
#276=DIRECTION('',(0.,0.,1.));
#277=DIRECTION('',(0.,-1.,0.));
#278=DIRECTION('',(0.,0.,-1.));
#279=DIRECTION('',(0.,1.,0.));
#280=DIRECTION('',(0.,-1.,0.));
#281=DIRECTION('',(0.,0.,-1.));
#282=DIRECTION('',(0.552164284512637,0.,-0.833735331450363));
#283=DIRECTION('',(-0.833735331450364,0.,-0.552164284512637));
#284=DIRECTION('',(-0.833735331450364,0.,-0.552164284512637));
#285=DIRECTION('',(-0.833735331450364,0.,-0.552164284512637));
#286=DIRECTION('',(0.,-1.,0.));
#287=DIRECTION('',(1.,0.,0.));
#288=DIRECTION('',(0.,-1.,0.));
#289=DIRECTION('',(1.,0.,0.));
#290=CARTESIAN_POINT('',(0.,0.,0.));
#291=CARTESIAN_POINT('',(0.0204591052904668,-0.0508,0.0394297775096893));
#292=CARTESIAN_POINT('',(0.0204591052904668,0.,0.0394297775096893));
#293=CARTESIAN_POINT('',(0.0190500000000003,0.,0.0401609262841383));
#294=CARTESIAN_POINT('',(0.0218682105809336,0.,0.0386986287352401));
#295=CARTESIAN_POINT('',(0.0190500000000003,-0.0508,0.0401609262841383));
#296=CARTESIAN_POINT('',(0.0190500000000003,-0.0508,0.0401609262841383));
#297=CARTESIAN_POINT('',(0.0204591052904668,-0.0508,0.0394297775096893));
#298=CARTESIAN_POINT('',(0.0218682105809336,-0.0508,0.0386986287352401));
#299=CARTESIAN_POINT('',(0.0218682105809336,-0.0508,0.0386986287352401));
#300=CARTESIAN_POINT('',(2.55871712706579E-17,-0.0508,1.11022302462516E-16));
#301=CARTESIAN_POINT('',(2.55871712706579E-17,0.,1.11022302462516E-16));
#302=CARTESIAN_POINT('',(0.003,0.,0.0443486471045059));
#303=CARTESIAN_POINT('',(0.003,-0.0508,0.0443486471045059));
#304=CARTESIAN_POINT('',(0.003,-0.0508,0.0443486471045059));
#305=CARTESIAN_POINT('',(2.55871712706579E-17,-0.0508,1.11022302462516E-16));
#306=CARTESIAN_POINT('',(0.003,-0.0508,0.0393486471045059));
#307=CARTESIAN_POINT('',(0.003,0.,0.0393486471045059));
#308=CARTESIAN_POINT('',(0.003,0.,0.0343486471045059));
#309=CARTESIAN_POINT('',(0.003,-0.0508,0.0343486471045059));
#310=CARTESIAN_POINT('',(0.003,-0.0508,0.0343486471045059));
#311=CARTESIAN_POINT('',(0.003,-0.0508,0.0393486471045059));
#312=CARTESIAN_POINT('',(4.33680868994202E-19,-0.0508,0.0343486471045059));
#313=CARTESIAN_POINT('',(4.33680868994202E-19,0.,0.0343486471045059));
#314=CARTESIAN_POINT('',(-0.003,0.,0.0343486471045059));
#315=CARTESIAN_POINT('',(-0.003,-0.0508,0.0343486471045059));
#316=CARTESIAN_POINT('',(-0.003,-0.0508,0.0343486471045059));
#317=CARTESIAN_POINT('',(4.33680868994202E-19,-0.0508,0.0343486471045059));
#318=CARTESIAN_POINT('',(-0.003,-0.0508,0.0393486471045059));
#319=CARTESIAN_POINT('',(-0.003,0.,0.0393486471045059));
#320=CARTESIAN_POINT('',(-0.003,0.,0.0443486471045059));
#321=CARTESIAN_POINT('',(-0.003,-0.0508,0.0443486471045059));
#322=CARTESIAN_POINT('',(-0.003,-0.0508,0.0443486471045059));
#323=CARTESIAN_POINT('',(-0.003,-0.0508,0.0393486471045059));
#324=CARTESIAN_POINT('',(2.53703308361608E-17,-0.0508,-3.46944695195361E-17));
#325=CARTESIAN_POINT('',(2.53703308361608E-17,0.,-3.46944695195361E-17));
#326=CARTESIAN_POINT('',(-0.0218682105809336,0.,0.03869862873524));
#327=CARTESIAN_POINT('',(-0.0218682105809336,-0.0508,0.03869862873524));
#328=CARTESIAN_POINT('',(-0.0218682105809336,-0.0508,0.03869862873524));
#329=CARTESIAN_POINT('',(2.53703308361608E-17,-0.0508,-3.46944695195361E-17));
#330=CARTESIAN_POINT('',(-0.0155750321638635,-0.0508,0.0345307972581608));
#331=CARTESIAN_POINT('',(-0.0155750321638635,0.,0.0345307972581608));
#332=CARTESIAN_POINT('',(-0.00928185374679344,0.,0.0303629657810817));
#333=CARTESIAN_POINT('',(-0.00928185374679344,-0.0508,0.0303629657810817));
#334=CARTESIAN_POINT('',(-0.00928185374679344,-0.0508,0.0303629657810817));
#335=CARTESIAN_POINT('',(-0.0155750321638635,-0.0508,0.0345307972581608));
#336=CARTESIAN_POINT('',(3.46944695195361E-18,-0.0508,-2.94902990916057E-17));
#337=CARTESIAN_POINT('',(3.46944695195361E-18,0.,-2.94902990916057E-17));
#338=CARTESIAN_POINT('',(0.00928185374679338,0.,0.0303629657810817));
#339=CARTESIAN_POINT('',(0.00928185374679338,-0.0508,0.0303629657810817));
#340=CARTESIAN_POINT('',(0.00928185374679338,-0.0508,0.0303629657810817));
#341=CARTESIAN_POINT('',(3.46944695195361E-18,-0.0508,-2.94902990916057E-17));
#342=CARTESIAN_POINT('',(0.0155750321638635,-0.0508,0.0345307972581609));
#343=CARTESIAN_POINT('',(0.0155750321638635,0.,0.0345307972581609));
#344=CARTESIAN_POINT('',(0.0155750321638635,-0.0508,0.0345307972581609));
#345=CARTESIAN_POINT('',(0.,-0.0508,0.));
#346=CARTESIAN_POINT('',(0.,0.,0.));
#347=MECHANICAL_DESIGN_GEOMETRIC_PRESENTATION_REPRESENTATION('',(#204),
#348);
#348=(
GEOMETRIC_REPRESENTATION_CONTEXT(3)
GLOBAL_UNCERTAINTY_ASSIGNED_CONTEXT((#349))
GLOBAL_UNIT_ASSIGNED_CONTEXT((#352,#351,#350))
REPRESENTATION_CONTEXT('Hull Connector','TOP_LEVEL_ASSEMBLY_PART')
);
#349=UNCERTAINTY_MEASURE_WITH_UNIT(LENGTH_MEASURE(1.E-8),#352,
'DISTANCE_ACCURACY_VALUE','Maximum Tolerance applied to model');
#350=(
NAMED_UNIT(*)
SI_UNIT($,.STERADIAN.)
SOLID_ANGLE_UNIT()
);
#351=(
NAMED_UNIT(*)
PLANE_ANGLE_UNIT()
SI_UNIT($,.RADIAN.)
);
#352=(
LENGTH_UNIT()
NAMED_UNIT(*)
SI_UNIT($,.METRE.)
);
#353=PRODUCT_DEFINITION_SHAPE('','',#354);
#354=PRODUCT_DEFINITION('','',#356,#355);
#355=PRODUCT_DEFINITION_CONTEXT('',#362,'design');
#356=PRODUCT_DEFINITION_FORMATION_WITH_SPECIFIED_SOURCE('','',#358,
 .NOT_KNOWN.);
#357=PRODUCT_RELATED_PRODUCT_CATEGORY('','',(#358));
#358=PRODUCT('Hull Connector','Hull Connector','Hull Connector',(#360));
#359=PRODUCT_CATEGORY('','');
#360=PRODUCT_CONTEXT('',#362,'mechanical');
#361=APPLICATION_PROTOCOL_DEFINITION('international standard',
'ap242_managed_model_based_3d_engineering',2020,#362);
#362=APPLICATION_CONTEXT('managed model based 3d engineering');
ENDSEC;
END-ISO-10303-21;
