ISO-10303-21;
HEADER;
/* Generated by software containing ST-Developer
 * from STEP Tools, Inc. (www.steptools.com) 
 */
/* OPTION: using custom renumber hook */

FILE_DESCRIPTION(
/* description */ ('STEP AP242 Edition 2',
'CAx-IF Rec.Pracs.---Representation and Presentation of Product Manufa
cturing Information (PMI)---4.0---2014-10-13',
'CAx-IF Rec.Pracs.---3D Tessellated Geometry---0.4---2014-09-14','2;1',
'CAx-IF Rec.Pracs.---User Defined Attributes---1.5---2016-08-15'),
/* implementation_level */ '2;1');

FILE_NAME(
/* name */ 'Front Hull and Nose - Hull1',
/* time_stamp */ '2026-08-24T02:46:45Z',
/* author */ (''),
/* organization */ (''),
/* preprocessor_version */ 'ST-DEVELOPER v20',
/* originating_system */ 'ONSHAPE BY PTC INC, 1.219',
/* authorisation */ '  ');

FILE_SCHEMA (('AP242_MANAGED_MODEL_BASED_3D_ENGINEERING_MIM_LF { 1 0 10303 442 3 1 4 }'));
ENDSEC;

DATA;
#10=SHAPE_REPRESENTATION_RELATIONSHIP('','',#651,#11);
#11=ADVANCED_BREP_SHAPE_REPRESENTATION('',(#649),#1069);
#12=CYLINDRICAL_SURFACE('',#662,0.0444500000000008);
#13=CYLINDRICAL_SURFACE('',#665,0.0444500000000008);
#14=CYLINDRICAL_SURFACE('',#667,0.0444500000000008);
#15=CYLINDRICAL_SURFACE('',#669,0.0444500000000008);
#16=CYLINDRICAL_SURFACE('',#671,0.0444500000000008);
#17=CYLINDRICAL_SURFACE('',#673,0.0444500000000008);
#18=CYLINDRICAL_SURFACE('',#676,0.04585);
#19=CYLINDRICAL_SURFACE('',#700,0.00635);
#20=LINE('',#891,#90);
#21=LINE('',#895,#91);
#22=LINE('',#897,#92);
#23=LINE('',#899,#93);
#24=LINE('',#903,#94);
#25=LINE('',#905,#95);
#26=LINE('',#907,#96);
#27=LINE('',#911,#97);
#28=LINE('',#913,#98);
#29=LINE('',#915,#99);
#30=LINE('',#919,#100);
#31=LINE('',#921,#101);
#32=LINE('',#923,#102);
#33=LINE('',#927,#103);
#34=LINE('',#929,#104);
#35=LINE('',#931,#105);
#36=LINE('',#935,#106);
#37=LINE('',#940,#107);
#38=LINE('',#941,#108);
#39=LINE('',#945,#109);
#40=LINE('',#950,#110);
#41=LINE('',#951,#111);
#42=LINE('',#956,#112);
#43=LINE('',#957,#113);
#44=LINE('',#962,#114);
#45=LINE('',#963,#115);
#46=LINE('',#968,#116);
#47=LINE('',#969,#117);
#48=LINE('',#971,#118);
#49=LINE('',#975,#119);
#50=LINE('',#979,#120);
#51=LINE('',#984,#121);
#52=LINE('',#986,#122);
#53=LINE('',#988,#123);
#54=LINE('',#989,#124);
#55=LINE('',#991,#125);
#56=LINE('',#993,#126);
#57=LINE('',#994,#127);
#58=LINE('',#996,#128);
#59=LINE('',#998,#129);
#60=LINE('',#999,#130);
#61=LINE('',#1001,#131);
#62=LINE('',#1003,#132);
#63=LINE('',#1004,#133);
#64=LINE('',#1006,#134);
#65=LINE('',#1008,#135);
#66=LINE('',#1009,#136);
#67=LINE('',#1011,#137);
#68=LINE('',#1013,#138);
#69=LINE('',#1015,#139);
#70=LINE('',#1017,#140);
#71=LINE('',#1020,#141);
#72=LINE('',#1022,#142);
#73=LINE('',#1025,#143);
#74=LINE('',#1027,#144);
#75=LINE('',#1030,#145);
#76=LINE('',#1032,#146);
#77=LINE('',#1035,#147);
#78=LINE('',#1037,#148);
#79=LINE('',#1040,#149);
#80=LINE('',#1042,#150);
#81=LINE('',#1044,#151);
#82=LINE('',#1046,#152);
#83=LINE('',#1048,#153);
#84=LINE('',#1050,#154);
#85=LINE('',#1052,#155);
#86=LINE('',#1056,#156);
#87=LINE('',#1058,#157);
#88=LINE('',#1060,#158);
#89=LINE('',#1065,#159);
#90=VECTOR('',#714,1.);
#91=VECTOR('',#717,1.);
#92=VECTOR('',#718,1.);
#93=VECTOR('',#719,1.);
#94=VECTOR('',#722,1.);
#95=VECTOR('',#723,1.);
#96=VECTOR('',#724,1.);
#97=VECTOR('',#727,1.);
#98=VECTOR('',#728,1.);
#99=VECTOR('',#729,1.);
#100=VECTOR('',#732,1.);
#101=VECTOR('',#733,1.);
#102=VECTOR('',#734,1.);
#103=VECTOR('',#737,1.);
#104=VECTOR('',#738,1.);
#105=VECTOR('',#739,1.);
#106=VECTOR('',#742,1.);
#107=VECTOR('',#747,1.);
#108=VECTOR('',#748,1.);
#109=VECTOR('',#751,1.);
#110=VECTOR('',#756,1.);
#111=VECTOR('',#757,1.);
#112=VECTOR('',#762,1.);
#113=VECTOR('',#763,1.);
#114=VECTOR('',#768,1.);
#115=VECTOR('',#769,1.);
#116=VECTOR('',#774,1.);
#117=VECTOR('',#775,1.);
#118=VECTOR('',#778,1.);
#119=VECTOR('',#781,1.);
#120=VECTOR('',#784,1.);
#121=VECTOR('',#791,1.);
#122=VECTOR('',#792,1.);
#123=VECTOR('',#793,1.);
#124=VECTOR('',#794,1.);
#125=VECTOR('',#795,1.);
#126=VECTOR('',#796,1.);
#127=VECTOR('',#797,1.);
#128=VECTOR('',#798,1.);
#129=VECTOR('',#799,1.);
#130=VECTOR('',#800,1.);
#131=VECTOR('',#801,1.);
#132=VECTOR('',#802,1.);
#133=VECTOR('',#803,1.);
#134=VECTOR('',#804,1.);
#135=VECTOR('',#805,1.);
#136=VECTOR('',#806,1.);
#137=VECTOR('',#807,1.);
#138=VECTOR('',#808,1.);
#139=VECTOR('',#811,1.);
#140=VECTOR('',#814,1.);
#141=VECTOR('',#819,1.);
#142=VECTOR('',#822,1.);
#143=VECTOR('',#827,1.);
#144=VECTOR('',#830,1.);
#145=VECTOR('',#835,1.);
#146=VECTOR('',#838,1.);
#147=VECTOR('',#843,1.);
#148=VECTOR('',#846,1.);
#149=VECTOR('',#851,1.);
#150=VECTOR('',#852,1.);
#151=VECTOR('',#853,1.);
#152=VECTOR('',#856,1.);
#153=VECTOR('',#857,1.);
#154=VECTOR('',#860,1.);
#155=VECTOR('',#861,1.);
#156=VECTOR('',#866,1.);
#157=VECTOR('',#869,1.);
#158=VECTOR('',#872,1.);
#159=VECTOR('',#879,1.);
#160=ORIENTED_EDGE('',*,*,#340,.F.);
#161=ORIENTED_EDGE('',*,*,#341,.T.);
#162=ORIENTED_EDGE('',*,*,#342,.F.);
#163=ORIENTED_EDGE('',*,*,#343,.T.);
#164=ORIENTED_EDGE('',*,*,#344,.F.);
#165=ORIENTED_EDGE('',*,*,#345,.F.);
#166=ORIENTED_EDGE('',*,*,#346,.F.);
#167=ORIENTED_EDGE('',*,*,#347,.T.);
#168=ORIENTED_EDGE('',*,*,#348,.F.);
#169=ORIENTED_EDGE('',*,*,#349,.F.);
#170=ORIENTED_EDGE('',*,*,#350,.F.);
#171=ORIENTED_EDGE('',*,*,#351,.T.);
#172=ORIENTED_EDGE('',*,*,#352,.F.);
#173=ORIENTED_EDGE('',*,*,#353,.F.);
#174=ORIENTED_EDGE('',*,*,#354,.F.);
#175=ORIENTED_EDGE('',*,*,#355,.T.);
#176=ORIENTED_EDGE('',*,*,#356,.F.);
#177=ORIENTED_EDGE('',*,*,#357,.F.);
#178=ORIENTED_EDGE('',*,*,#358,.F.);
#179=ORIENTED_EDGE('',*,*,#359,.T.);
#180=ORIENTED_EDGE('',*,*,#360,.F.);
#181=ORIENTED_EDGE('',*,*,#361,.F.);
#182=ORIENTED_EDGE('',*,*,#362,.F.);
#183=ORIENTED_EDGE('',*,*,#363,.T.);
#184=ORIENTED_EDGE('',*,*,#364,.T.);
#185=ORIENTED_EDGE('',*,*,#365,.F.);
#186=ORIENTED_EDGE('',*,*,#366,.T.);
#187=ORIENTED_EDGE('',*,*,#363,.F.);
#188=ORIENTED_EDGE('',*,*,#367,.F.);
#189=ORIENTED_EDGE('',*,*,#368,.T.);
#190=ORIENTED_EDGE('',*,*,#369,.T.);
#191=ORIENTED_EDGE('',*,*,#370,.T.);
#192=ORIENTED_EDGE('',*,*,#371,.T.);
#193=ORIENTED_EDGE('',*,*,#359,.F.);
#194=ORIENTED_EDGE('',*,*,#372,.F.);
#195=ORIENTED_EDGE('',*,*,#373,.T.);
#196=ORIENTED_EDGE('',*,*,#374,.T.);
#197=ORIENTED_EDGE('',*,*,#355,.F.);
#198=ORIENTED_EDGE('',*,*,#375,.F.);
#199=ORIENTED_EDGE('',*,*,#376,.T.);
#200=ORIENTED_EDGE('',*,*,#377,.T.);
#201=ORIENTED_EDGE('',*,*,#351,.F.);
#202=ORIENTED_EDGE('',*,*,#378,.F.);
#203=ORIENTED_EDGE('',*,*,#379,.T.);
#204=ORIENTED_EDGE('',*,*,#380,.T.);
#205=ORIENTED_EDGE('',*,*,#347,.F.);
#206=ORIENTED_EDGE('',*,*,#381,.F.);
#207=ORIENTED_EDGE('',*,*,#382,.F.);
#208=ORIENTED_EDGE('',*,*,#383,.F.);
#209=ORIENTED_EDGE('',*,*,#384,.F.);
#210=ORIENTED_EDGE('',*,*,#385,.T.);
#211=ORIENTED_EDGE('',*,*,#386,.T.);
#212=ORIENTED_EDGE('',*,*,#343,.F.);
#213=ORIENTED_EDGE('',*,*,#387,.F.);
#214=ORIENTED_EDGE('',*,*,#340,.T.);
#215=ORIENTED_EDGE('',*,*,#373,.F.);
#216=ORIENTED_EDGE('',*,*,#388,.T.);
#217=ORIENTED_EDGE('',*,*,#389,.T.);
#218=ORIENTED_EDGE('',*,*,#390,.T.);
#219=ORIENTED_EDGE('',*,*,#376,.F.);
#220=ORIENTED_EDGE('',*,*,#391,.T.);
#221=ORIENTED_EDGE('',*,*,#392,.T.);
#222=ORIENTED_EDGE('',*,*,#393,.T.);
#223=ORIENTED_EDGE('',*,*,#379,.F.);
#224=ORIENTED_EDGE('',*,*,#394,.T.);
#225=ORIENTED_EDGE('',*,*,#395,.T.);
#226=ORIENTED_EDGE('',*,*,#396,.T.);
#227=ORIENTED_EDGE('',*,*,#385,.F.);
#228=ORIENTED_EDGE('',*,*,#397,.T.);
#229=ORIENTED_EDGE('',*,*,#398,.T.);
#230=ORIENTED_EDGE('',*,*,#399,.T.);
#231=ORIENTED_EDGE('',*,*,#368,.F.);
#232=ORIENTED_EDGE('',*,*,#400,.T.);
#233=ORIENTED_EDGE('',*,*,#401,.T.);
#234=ORIENTED_EDGE('',*,*,#402,.T.);
#235=ORIENTED_EDGE('',*,*,#370,.F.);
#236=ORIENTED_EDGE('',*,*,#403,.T.);
#237=ORIENTED_EDGE('',*,*,#404,.T.);
#238=ORIENTED_EDGE('',*,*,#405,.T.);
#239=ORIENTED_EDGE('',*,*,#387,.T.);
#240=ORIENTED_EDGE('',*,*,#346,.T.);
#241=ORIENTED_EDGE('',*,*,#406,.F.);
#242=ORIENTED_EDGE('',*,*,#394,.F.);
#243=ORIENTED_EDGE('',*,*,#381,.T.);
#244=ORIENTED_EDGE('',*,*,#345,.T.);
#245=ORIENTED_EDGE('',*,*,#407,.F.);
#246=ORIENTED_EDGE('',*,*,#395,.F.);
#247=ORIENTED_EDGE('',*,*,#406,.T.);
#248=ORIENTED_EDGE('',*,*,#344,.T.);
#249=ORIENTED_EDGE('',*,*,#386,.F.);
#250=ORIENTED_EDGE('',*,*,#396,.F.);
#251=ORIENTED_EDGE('',*,*,#407,.T.);
#252=ORIENTED_EDGE('',*,*,#350,.T.);
#253=ORIENTED_EDGE('',*,*,#408,.F.);
#254=ORIENTED_EDGE('',*,*,#391,.F.);
#255=ORIENTED_EDGE('',*,*,#378,.T.);
#256=ORIENTED_EDGE('',*,*,#349,.T.);
#257=ORIENTED_EDGE('',*,*,#409,.F.);
#258=ORIENTED_EDGE('',*,*,#392,.F.);
#259=ORIENTED_EDGE('',*,*,#408,.T.);
#260=ORIENTED_EDGE('',*,*,#348,.T.);
#261=ORIENTED_EDGE('',*,*,#380,.F.);
#262=ORIENTED_EDGE('',*,*,#393,.F.);
#263=ORIENTED_EDGE('',*,*,#409,.T.);
#264=ORIENTED_EDGE('',*,*,#354,.T.);
#265=ORIENTED_EDGE('',*,*,#410,.F.);
#266=ORIENTED_EDGE('',*,*,#388,.F.);
#267=ORIENTED_EDGE('',*,*,#375,.T.);
#268=ORIENTED_EDGE('',*,*,#353,.T.);
#269=ORIENTED_EDGE('',*,*,#411,.F.);
#270=ORIENTED_EDGE('',*,*,#389,.F.);
#271=ORIENTED_EDGE('',*,*,#410,.T.);
#272=ORIENTED_EDGE('',*,*,#352,.T.);
#273=ORIENTED_EDGE('',*,*,#377,.F.);
#274=ORIENTED_EDGE('',*,*,#390,.F.);
#275=ORIENTED_EDGE('',*,*,#411,.T.);
#276=ORIENTED_EDGE('',*,*,#358,.T.);
#277=ORIENTED_EDGE('',*,*,#412,.F.);
#278=ORIENTED_EDGE('',*,*,#403,.F.);
#279=ORIENTED_EDGE('',*,*,#372,.T.);
#280=ORIENTED_EDGE('',*,*,#357,.T.);
#281=ORIENTED_EDGE('',*,*,#413,.F.);
#282=ORIENTED_EDGE('',*,*,#404,.F.);
#283=ORIENTED_EDGE('',*,*,#412,.T.);
#284=ORIENTED_EDGE('',*,*,#356,.T.);
#285=ORIENTED_EDGE('',*,*,#374,.F.);
#286=ORIENTED_EDGE('',*,*,#405,.F.);
#287=ORIENTED_EDGE('',*,*,#413,.T.);
#288=ORIENTED_EDGE('',*,*,#362,.T.);
#289=ORIENTED_EDGE('',*,*,#414,.F.);
#290=ORIENTED_EDGE('',*,*,#400,.F.);
#291=ORIENTED_EDGE('',*,*,#367,.T.);
#292=ORIENTED_EDGE('',*,*,#361,.T.);
#293=ORIENTED_EDGE('',*,*,#415,.F.);
#294=ORIENTED_EDGE('',*,*,#401,.F.);
#295=ORIENTED_EDGE('',*,*,#414,.T.);
#296=ORIENTED_EDGE('',*,*,#360,.T.);
#297=ORIENTED_EDGE('',*,*,#371,.F.);
#298=ORIENTED_EDGE('',*,*,#402,.F.);
#299=ORIENTED_EDGE('',*,*,#415,.T.);
#300=ORIENTED_EDGE('',*,*,#416,.T.);
#301=ORIENTED_EDGE('',*,*,#417,.T.);
#302=ORIENTED_EDGE('',*,*,#418,.F.);
#303=ORIENTED_EDGE('',*,*,#397,.F.);
#304=ORIENTED_EDGE('',*,*,#384,.T.);
#305=ORIENTED_EDGE('',*,*,#418,.T.);
#306=ORIENTED_EDGE('',*,*,#419,.T.);
#307=ORIENTED_EDGE('',*,*,#420,.F.);
#308=ORIENTED_EDGE('',*,*,#398,.F.);
#309=ORIENTED_EDGE('',*,*,#420,.T.);
#310=ORIENTED_EDGE('',*,*,#421,.T.);
#311=ORIENTED_EDGE('',*,*,#422,.T.);
#312=ORIENTED_EDGE('',*,*,#369,.F.);
#313=ORIENTED_EDGE('',*,*,#399,.F.);
#314=ORIENTED_EDGE('',*,*,#422,.F.);
#315=ORIENTED_EDGE('',*,*,#423,.F.);
#316=ORIENTED_EDGE('',*,*,#424,.F.);
#317=ORIENTED_EDGE('',*,*,#365,.T.);
#318=ORIENTED_EDGE('',*,*,#364,.F.);
#319=ORIENTED_EDGE('',*,*,#366,.F.);
#320=ORIENTED_EDGE('',*,*,#424,.T.);
#321=ORIENTED_EDGE('',*,*,#425,.T.);
#322=ORIENTED_EDGE('',*,*,#426,.T.);
#323=ORIENTED_EDGE('',*,*,#341,.F.);
#324=ORIENTED_EDGE('',*,*,#425,.F.);
#325=ORIENTED_EDGE('',*,*,#423,.T.);
#326=ORIENTED_EDGE('',*,*,#427,.T.);
#327=ORIENTED_EDGE('',*,*,#428,.T.);
#328=ORIENTED_EDGE('',*,*,#416,.F.);
#329=ORIENTED_EDGE('',*,*,#383,.T.);
#330=ORIENTED_EDGE('',*,*,#429,.T.);
#331=ORIENTED_EDGE('',*,*,#428,.F.);
#332=ORIENTED_EDGE('',*,*,#342,.T.);
#333=ORIENTED_EDGE('',*,*,#426,.F.);
#334=ORIENTED_EDGE('',*,*,#429,.F.);
#335=ORIENTED_EDGE('',*,*,#382,.T.);
#336=ORIENTED_EDGE('',*,*,#427,.F.);
#337=ORIENTED_EDGE('',*,*,#421,.F.);
#338=ORIENTED_EDGE('',*,*,#419,.F.);
#339=ORIENTED_EDGE('',*,*,#417,.F.);
#340=EDGE_CURVE('',#430,#430,#490,.T.);
#341=EDGE_CURVE('',#431,#432,#491,.T.);
#342=EDGE_CURVE('',#433,#432,#20,.T.);
#343=EDGE_CURVE('',#433,#434,#492,.T.);
#344=EDGE_CURVE('',#435,#434,#21,.T.);
#345=EDGE_CURVE('',#436,#435,#22,.T.);
#346=EDGE_CURVE('',#437,#436,#23,.T.);
#347=EDGE_CURVE('',#437,#438,#493,.T.);
#348=EDGE_CURVE('',#439,#438,#24,.T.);
#349=EDGE_CURVE('',#440,#439,#25,.T.);
#350=EDGE_CURVE('',#441,#440,#26,.T.);
#351=EDGE_CURVE('',#441,#442,#494,.T.);
#352=EDGE_CURVE('',#443,#442,#27,.T.);
#353=EDGE_CURVE('',#444,#443,#28,.T.);
#354=EDGE_CURVE('',#445,#444,#29,.T.);
#355=EDGE_CURVE('',#445,#446,#495,.T.);
#356=EDGE_CURVE('',#447,#446,#30,.T.);
#357=EDGE_CURVE('',#448,#447,#31,.T.);
#358=EDGE_CURVE('',#449,#448,#32,.T.);
#359=EDGE_CURVE('',#449,#450,#496,.T.);
#360=EDGE_CURVE('',#451,#450,#33,.T.);
#361=EDGE_CURVE('',#452,#451,#34,.T.);
#362=EDGE_CURVE('',#453,#452,#35,.T.);
#363=EDGE_CURVE('',#453,#454,#497,.T.);
#364=EDGE_CURVE('',#454,#431,#36,.T.);
#365=EDGE_CURVE('',#455,#456,#498,.T.);
#366=EDGE_CURVE('',#455,#454,#37,.T.);
#367=EDGE_CURVE('',#457,#453,#38,.T.);
#368=EDGE_CURVE('',#457,#458,#499,.T.);
#369=EDGE_CURVE('',#458,#456,#39,.T.);
#370=EDGE_CURVE('',#459,#460,#500,.T.);
#371=EDGE_CURVE('',#460,#450,#40,.T.);
#372=EDGE_CURVE('',#459,#449,#41,.T.);
#373=EDGE_CURVE('',#461,#462,#501,.T.);
#374=EDGE_CURVE('',#462,#446,#42,.T.);
#375=EDGE_CURVE('',#461,#445,#43,.T.);
#376=EDGE_CURVE('',#463,#464,#502,.T.);
#377=EDGE_CURVE('',#464,#442,#44,.T.);
#378=EDGE_CURVE('',#463,#441,#45,.T.);
#379=EDGE_CURVE('',#465,#466,#503,.T.);
#380=EDGE_CURVE('',#466,#438,#46,.T.);
#381=EDGE_CURVE('',#465,#437,#47,.T.);
#382=EDGE_CURVE('',#467,#433,#48,.T.);
#383=EDGE_CURVE('',#468,#467,#504,.T.);
#384=EDGE_CURVE('',#469,#468,#49,.T.);
#385=EDGE_CURVE('',#469,#470,#505,.T.);
#386=EDGE_CURVE('',#470,#434,#50,.T.);
#387=EDGE_CURVE('',#471,#471,#506,.T.);
#388=EDGE_CURVE('',#461,#472,#51,.T.);
#389=EDGE_CURVE('',#472,#473,#52,.T.);
#390=EDGE_CURVE('',#473,#464,#53,.T.);
#391=EDGE_CURVE('',#463,#474,#54,.T.);
#392=EDGE_CURVE('',#474,#475,#55,.T.);
#393=EDGE_CURVE('',#475,#466,#56,.T.);
#394=EDGE_CURVE('',#465,#476,#57,.T.);
#395=EDGE_CURVE('',#476,#477,#58,.T.);
#396=EDGE_CURVE('',#477,#470,#59,.T.);
#397=EDGE_CURVE('',#469,#478,#60,.T.);
#398=EDGE_CURVE('',#478,#479,#61,.T.);
#399=EDGE_CURVE('',#479,#458,#62,.T.);
#400=EDGE_CURVE('',#457,#480,#63,.T.);
#401=EDGE_CURVE('',#480,#481,#64,.T.);
#402=EDGE_CURVE('',#481,#460,#65,.T.);
#403=EDGE_CURVE('',#459,#482,#66,.T.);
#404=EDGE_CURVE('',#482,#483,#67,.T.);
#405=EDGE_CURVE('',#483,#462,#68,.T.);
#406=EDGE_CURVE('',#476,#436,#69,.T.);
#407=EDGE_CURVE('',#477,#435,#70,.T.);
#408=EDGE_CURVE('',#474,#440,#71,.T.);
#409=EDGE_CURVE('',#475,#439,#72,.T.);
#410=EDGE_CURVE('',#472,#444,#73,.T.);
#411=EDGE_CURVE('',#473,#443,#74,.T.);
#412=EDGE_CURVE('',#482,#448,#75,.T.);
#413=EDGE_CURVE('',#483,#447,#76,.T.);
#414=EDGE_CURVE('',#480,#452,#77,.T.);
#415=EDGE_CURVE('',#481,#451,#78,.T.);
#416=EDGE_CURVE('',#468,#484,#79,.T.);
#417=EDGE_CURVE('',#484,#485,#80,.T.);
#418=EDGE_CURVE('',#478,#485,#81,.T.);
#419=EDGE_CURVE('',#485,#486,#82,.T.);
#420=EDGE_CURVE('',#479,#486,#83,.T.);
#421=EDGE_CURVE('',#486,#487,#84,.T.);
#422=EDGE_CURVE('',#487,#456,#85,.T.);
#423=EDGE_CURVE('',#488,#487,#507,.T.);
#424=EDGE_CURVE('',#455,#488,#86,.T.);
#425=EDGE_CURVE('',#488,#431,#87,.T.);
#426=EDGE_CURVE('',#489,#432,#88,.T.);
#427=EDGE_CURVE('',#487,#484,#508,.T.);
#428=EDGE_CURVE('',#484,#489,#509,.T.);
#429=EDGE_CURVE('',#467,#489,#89,.T.);
#430=VERTEX_POINT('',#887);
#431=VERTEX_POINT('',#889);
#432=VERTEX_POINT('',#890);
#433=VERTEX_POINT('',#892);
#434=VERTEX_POINT('',#894);
#435=VERTEX_POINT('',#896);
#436=VERTEX_POINT('',#898);
#437=VERTEX_POINT('',#900);
#438=VERTEX_POINT('',#902);
#439=VERTEX_POINT('',#904);
#440=VERTEX_POINT('',#906);
#441=VERTEX_POINT('',#908);
#442=VERTEX_POINT('',#910);
#443=VERTEX_POINT('',#912);
#444=VERTEX_POINT('',#914);
#445=VERTEX_POINT('',#916);
#446=VERTEX_POINT('',#918);
#447=VERTEX_POINT('',#920);
#448=VERTEX_POINT('',#922);
#449=VERTEX_POINT('',#924);
#450=VERTEX_POINT('',#926);
#451=VERTEX_POINT('',#928);
#452=VERTEX_POINT('',#930);
#453=VERTEX_POINT('',#932);
#454=VERTEX_POINT('',#934);
#455=VERTEX_POINT('',#938);
#456=VERTEX_POINT('',#939);
#457=VERTEX_POINT('',#942);
#458=VERTEX_POINT('',#944);
#459=VERTEX_POINT('',#948);
#460=VERTEX_POINT('',#949);
#461=VERTEX_POINT('',#954);
#462=VERTEX_POINT('',#955);
#463=VERTEX_POINT('',#960);
#464=VERTEX_POINT('',#961);
#465=VERTEX_POINT('',#966);
#466=VERTEX_POINT('',#967);
#467=VERTEX_POINT('',#972);
#468=VERTEX_POINT('',#974);
#469=VERTEX_POINT('',#976);
#470=VERTEX_POINT('',#978);
#471=VERTEX_POINT('',#982);
#472=VERTEX_POINT('',#985);
#473=VERTEX_POINT('',#987);
#474=VERTEX_POINT('',#990);
#475=VERTEX_POINT('',#992);
#476=VERTEX_POINT('',#995);
#477=VERTEX_POINT('',#997);
#478=VERTEX_POINT('',#1000);
#479=VERTEX_POINT('',#1002);
#480=VERTEX_POINT('',#1005);
#481=VERTEX_POINT('',#1007);
#482=VERTEX_POINT('',#1010);
#483=VERTEX_POINT('',#1012);
#484=VERTEX_POINT('',#1041);
#485=VERTEX_POINT('',#1043);
#486=VERTEX_POINT('',#1047);
#487=VERTEX_POINT('',#1051);
#488=VERTEX_POINT('',#1055);
#489=VERTEX_POINT('',#1061);
#490=CIRCLE('',#654,0.04585);
#491=CIRCLE('',#655,0.00635);
#492=CIRCLE('',#656,0.0444500000000008);
#493=CIRCLE('',#657,0.0444500000000008);
#494=CIRCLE('',#658,0.0444500000000008);
#495=CIRCLE('',#659,0.0444500000000008);
#496=CIRCLE('',#660,0.0444500000000008);
#497=CIRCLE('',#661,0.0444500000000008);
#498=CIRCLE('',#663,0.04445);
#499=CIRCLE('',#664,0.0444500000000008);
#500=CIRCLE('',#666,0.0444500000000008);
#501=CIRCLE('',#668,0.0444500000000008);
#502=CIRCLE('',#670,0.0444500000000008);
#503=CIRCLE('',#672,0.0444500000000008);
#504=CIRCLE('',#674,0.04445);
#505=CIRCLE('',#675,0.0444500000000008);
#506=CIRCLE('',#677,0.04585);
#507=CIRCLE('',#698,0.00635);
#508=CIRCLE('',#701,0.00635);
#509=CIRCLE('',#702,0.00635);
#510=EDGE_LOOP('',(#160));
#511=EDGE_LOOP('',(#161,#162,#163,#164,#165,#166,#167,#168,#169,#170,#171,
#172,#173,#174,#175,#176,#177,#178,#179,#180,#181,#182,#183,#184));
#512=EDGE_LOOP('',(#185,#186,#187,#188,#189,#190));
#513=EDGE_LOOP('',(#191,#192,#193,#194));
#514=EDGE_LOOP('',(#195,#196,#197,#198));
#515=EDGE_LOOP('',(#199,#200,#201,#202));
#516=EDGE_LOOP('',(#203,#204,#205,#206));
#517=EDGE_LOOP('',(#207,#208,#209,#210,#211,#212));
#518=EDGE_LOOP('',(#213));
#519=EDGE_LOOP('',(#214));
#520=EDGE_LOOP('',(#215,#216,#217,#218,#219,#220,#221,#222,#223,#224,#225,
#226,#227,#228,#229,#230,#231,#232,#233,#234,#235,#236,#237,#238));
#521=EDGE_LOOP('',(#239));
#522=EDGE_LOOP('',(#240,#241,#242,#243));
#523=EDGE_LOOP('',(#244,#245,#246,#247));
#524=EDGE_LOOP('',(#248,#249,#250,#251));
#525=EDGE_LOOP('',(#252,#253,#254,#255));
#526=EDGE_LOOP('',(#256,#257,#258,#259));
#527=EDGE_LOOP('',(#260,#261,#262,#263));
#528=EDGE_LOOP('',(#264,#265,#266,#267));
#529=EDGE_LOOP('',(#268,#269,#270,#271));
#530=EDGE_LOOP('',(#272,#273,#274,#275));
#531=EDGE_LOOP('',(#276,#277,#278,#279));
#532=EDGE_LOOP('',(#280,#281,#282,#283));
#533=EDGE_LOOP('',(#284,#285,#286,#287));
#534=EDGE_LOOP('',(#288,#289,#290,#291));
#535=EDGE_LOOP('',(#292,#293,#294,#295));
#536=EDGE_LOOP('',(#296,#297,#298,#299));
#537=EDGE_LOOP('',(#300,#301,#302,#303,#304));
#538=EDGE_LOOP('',(#305,#306,#307,#308));
#539=EDGE_LOOP('',(#309,#310,#311,#312,#313));
#540=EDGE_LOOP('',(#314,#315,#316,#317));
#541=EDGE_LOOP('',(#318,#319,#320,#321));
#542=EDGE_LOOP('',(#322,#323,#324,#325,#326,#327));
#543=EDGE_LOOP('',(#328,#329,#330,#331));
#544=EDGE_LOOP('',(#332,#333,#334,#335));
#545=EDGE_LOOP('',(#336,#337,#338,#339));
#546=FACE_BOUND('',#510,.T.);
#547=FACE_BOUND('',#511,.T.);
#548=FACE_BOUND('',#512,.T.);
#549=FACE_BOUND('',#513,.T.);
#550=FACE_BOUND('',#514,.T.);
#551=FACE_BOUND('',#515,.T.);
#552=FACE_BOUND('',#516,.T.);
#553=FACE_BOUND('',#517,.T.);
#554=FACE_BOUND('',#518,.T.);
#555=FACE_BOUND('',#519,.T.);
#556=FACE_BOUND('',#520,.T.);
#557=FACE_BOUND('',#521,.T.);
#558=FACE_BOUND('',#522,.T.);
#559=FACE_BOUND('',#523,.T.);
#560=FACE_BOUND('',#524,.T.);
#561=FACE_BOUND('',#525,.T.);
#562=FACE_BOUND('',#526,.T.);
#563=FACE_BOUND('',#527,.T.);
#564=FACE_BOUND('',#528,.T.);
#565=FACE_BOUND('',#529,.T.);
#566=FACE_BOUND('',#530,.T.);
#567=FACE_BOUND('',#531,.T.);
#568=FACE_BOUND('',#532,.T.);
#569=FACE_BOUND('',#533,.T.);
#570=FACE_BOUND('',#534,.T.);
#571=FACE_BOUND('',#535,.T.);
#572=FACE_BOUND('',#536,.T.);
#573=FACE_BOUND('',#537,.T.);
#574=FACE_BOUND('',#538,.T.);
#575=FACE_BOUND('',#539,.T.);
#576=FACE_BOUND('',#540,.T.);
#577=FACE_BOUND('',#541,.T.);
#578=FACE_BOUND('',#542,.T.);
#579=FACE_BOUND('',#543,.T.);
#580=FACE_BOUND('',#544,.T.);
#581=FACE_BOUND('',#545,.T.);
#582=PLANE('',#653);
#583=PLANE('',#678);
#584=PLANE('',#679);
#585=PLANE('',#680);
#586=PLANE('',#681);
#587=PLANE('',#682);
#588=PLANE('',#683);
#589=PLANE('',#684);
#590=PLANE('',#685);
#591=PLANE('',#686);
#592=PLANE('',#687);
#593=PLANE('',#688);
#594=PLANE('',#689);
#595=PLANE('',#690);
#596=PLANE('',#691);
#597=PLANE('',#692);
#598=PLANE('',#693);
#599=PLANE('',#694);
#600=PLANE('',#695);
#601=PLANE('',#696);
#602=PLANE('',#697);
#603=PLANE('',#699);
#604=PLANE('',#703);
#605=PLANE('',#704);
#606=PLANE('',#705);
#607=ADVANCED_FACE('',(#546,#547),#582,.F.);
#608=ADVANCED_FACE('',(#548),#12,.F.);
#609=ADVANCED_FACE('',(#549),#13,.F.);
#610=ADVANCED_FACE('',(#550),#14,.F.);
#611=ADVANCED_FACE('',(#551),#15,.F.);
#612=ADVANCED_FACE('',(#552),#16,.F.);
#613=ADVANCED_FACE('',(#553),#17,.F.);
#614=ADVANCED_FACE('',(#554,#555),#18,.T.);
#615=ADVANCED_FACE('',(#556,#557),#583,.T.);
#616=ADVANCED_FACE('',(#558),#584,.F.);
#617=ADVANCED_FACE('',(#559),#585,.F.);
#618=ADVANCED_FACE('',(#560),#586,.F.);
#619=ADVANCED_FACE('',(#561),#587,.F.);
#620=ADVANCED_FACE('',(#562),#588,.F.);
#621=ADVANCED_FACE('',(#563),#589,.F.);
#622=ADVANCED_FACE('',(#564),#590,.F.);
#623=ADVANCED_FACE('',(#565),#591,.F.);
#624=ADVANCED_FACE('',(#566),#592,.F.);
#625=ADVANCED_FACE('',(#567),#593,.F.);
#626=ADVANCED_FACE('',(#568),#594,.F.);
#627=ADVANCED_FACE('',(#569),#595,.F.);
#628=ADVANCED_FACE('',(#570),#596,.F.);
#629=ADVANCED_FACE('',(#571),#597,.F.);
#630=ADVANCED_FACE('',(#572),#598,.F.);
#631=ADVANCED_FACE('',(#573),#599,.F.);
#632=ADVANCED_FACE('',(#574),#600,.F.);
#633=ADVANCED_FACE('',(#575),#601,.F.);
#634=ADVANCED_FACE('',(#576),#602,.T.);
#635=ADVANCED_FACE('',(#577),#603,.T.);
#636=ADVANCED_FACE('',(#578),#19,.F.);
#637=ADVANCED_FACE('',(#579),#604,.T.);
#638=ADVANCED_FACE('',(#580),#605,.F.);
#639=ADVANCED_FACE('',(#581),#606,.F.);
#640=CLOSED_SHELL('',(#607,#608,#609,#610,#611,#612,#613,#614,#615,#616,
#617,#618,#619,#620,#621,#622,#623,#624,#625,#626,#627,#628,#629,#630,#631,
#632,#633,#634,#635,#636,#637,#638,#639));
#641=STYLED_ITEM('',(#642),#649);
#642=PRESENTATION_STYLE_ASSIGNMENT((#643));
#643=SURFACE_STYLE_USAGE(.BOTH.,#644);
#644=SURFACE_SIDE_STYLE('',(#645));
#645=SURFACE_STYLE_FILL_AREA(#646);
#646=FILL_AREA_STYLE('',(#647));
#647=FILL_AREA_STYLE_COLOUR('',#648);
#648=COLOUR_RGB('',0.701960784313725,0.701960784313725,0.701960784313725);
#649=MANIFOLD_SOLID_BREP('Hull1',#640);
#650=SHAPE_DEFINITION_REPRESENTATION(#1074,#651);
#651=SHAPE_REPRESENTATION('Hull1',(#652),#1069);
#652=AXIS2_PLACEMENT_3D('',#884,#706,#707);
#653=AXIS2_PLACEMENT_3D('',#885,#708,#709);
#654=AXIS2_PLACEMENT_3D('',#886,#710,#711);
#655=AXIS2_PLACEMENT_3D('',#888,#712,#713);
#656=AXIS2_PLACEMENT_3D('',#893,#715,#716);
#657=AXIS2_PLACEMENT_3D('',#901,#720,#721);
#658=AXIS2_PLACEMENT_3D('',#909,#725,#726);
#659=AXIS2_PLACEMENT_3D('',#917,#730,#731);
#660=AXIS2_PLACEMENT_3D('',#925,#735,#736);
#661=AXIS2_PLACEMENT_3D('',#933,#740,#741);
#662=AXIS2_PLACEMENT_3D('',#936,#743,#744);
#663=AXIS2_PLACEMENT_3D('',#937,#745,#746);
#664=AXIS2_PLACEMENT_3D('',#943,#749,#750);
#665=AXIS2_PLACEMENT_3D('',#946,#752,#753);
#666=AXIS2_PLACEMENT_3D('',#947,#754,#755);
#667=AXIS2_PLACEMENT_3D('',#952,#758,#759);
#668=AXIS2_PLACEMENT_3D('',#953,#760,#761);
#669=AXIS2_PLACEMENT_3D('',#958,#764,#765);
#670=AXIS2_PLACEMENT_3D('',#959,#766,#767);
#671=AXIS2_PLACEMENT_3D('',#964,#770,#771);
#672=AXIS2_PLACEMENT_3D('',#965,#772,#773);
#673=AXIS2_PLACEMENT_3D('',#970,#776,#777);
#674=AXIS2_PLACEMENT_3D('',#973,#779,#780);
#675=AXIS2_PLACEMENT_3D('',#977,#782,#783);
#676=AXIS2_PLACEMENT_3D('',#980,#785,#786);
#677=AXIS2_PLACEMENT_3D('',#981,#787,#788);
#678=AXIS2_PLACEMENT_3D('',#983,#789,#790);
#679=AXIS2_PLACEMENT_3D('',#1014,#809,#810);
#680=AXIS2_PLACEMENT_3D('',#1016,#812,#813);
#681=AXIS2_PLACEMENT_3D('',#1018,#815,#816);
#682=AXIS2_PLACEMENT_3D('',#1019,#817,#818);
#683=AXIS2_PLACEMENT_3D('',#1021,#820,#821);
#684=AXIS2_PLACEMENT_3D('',#1023,#823,#824);
#685=AXIS2_PLACEMENT_3D('',#1024,#825,#826);
#686=AXIS2_PLACEMENT_3D('',#1026,#828,#829);
#687=AXIS2_PLACEMENT_3D('',#1028,#831,#832);
#688=AXIS2_PLACEMENT_3D('',#1029,#833,#834);
#689=AXIS2_PLACEMENT_3D('',#1031,#836,#837);
#690=AXIS2_PLACEMENT_3D('',#1033,#839,#840);
#691=AXIS2_PLACEMENT_3D('',#1034,#841,#842);
#692=AXIS2_PLACEMENT_3D('',#1036,#844,#845);
#693=AXIS2_PLACEMENT_3D('',#1038,#847,#848);
#694=AXIS2_PLACEMENT_3D('',#1039,#849,#850);
#695=AXIS2_PLACEMENT_3D('',#1045,#854,#855);
#696=AXIS2_PLACEMENT_3D('',#1049,#858,#859);
#697=AXIS2_PLACEMENT_3D('',#1053,#862,#863);
#698=AXIS2_PLACEMENT_3D('',#1054,#864,#865);
#699=AXIS2_PLACEMENT_3D('',#1057,#867,#868);
#700=AXIS2_PLACEMENT_3D('',#1059,#870,#871);
#701=AXIS2_PLACEMENT_3D('',#1062,#873,#874);
#702=AXIS2_PLACEMENT_3D('',#1063,#875,#876);
#703=AXIS2_PLACEMENT_3D('',#1064,#877,#878);
#704=AXIS2_PLACEMENT_3D('',#1066,#880,#881);
#705=AXIS2_PLACEMENT_3D('',#1067,#882,#883);
#706=DIRECTION('',(0.,0.,1.));
#707=DIRECTION('',(1.,0.,0.));
#708=DIRECTION('',(0.,-1.,0.));
#709=DIRECTION('',(1.,0.,0.));
#710=DIRECTION('',(0.,-1.,0.));
#711=DIRECTION('',(0.,0.,-1.));
#712=DIRECTION('',(0.,-1.,0.));
#713=DIRECTION('',(0.,0.,-1.));
#714=DIRECTION('',(0.833735331450363,0.,-0.552164284512639));
#715=DIRECTION('',(0.,-1.,0.));
#716=DIRECTION('',(0.,0.,-1.));
#717=DIRECTION('',(-0.866025403784439,0.,0.5));
#718=DIRECTION('',(0.5,0.,0.866025403784439));
#719=DIRECTION('',(0.866025403784439,0.,-0.5));
#720=DIRECTION('',(0.,-1.,0.));
#721=DIRECTION('',(0.,0.,-1.));
#722=DIRECTION('',(-0.866025403784439,0.,-0.5));
#723=DIRECTION('',(-0.5,0.,0.866025403784439));
#724=DIRECTION('',(0.866025403784439,0.,0.5));
#725=DIRECTION('',(0.,-1.,0.));
#726=DIRECTION('',(0.,0.,-1.));
#727=DIRECTION('',(-1.22464679914735E-16,0.,-1.));
#728=DIRECTION('',(-1.,0.,1.22464679914735E-16));
#729=DIRECTION('',(-7.63958078352519E-18,0.,1.));
#730=DIRECTION('',(0.,-1.,0.));
#731=DIRECTION('',(0.,0.,-1.));
#732=DIRECTION('',(0.866025403784438,0.,-0.5));
#733=DIRECTION('',(-0.5,0.,-0.866025403784438));
#734=DIRECTION('',(-0.866025403784439,0.,0.5));
#735=DIRECTION('',(0.,-1.,0.));
#736=DIRECTION('',(0.,0.,-1.));
#737=DIRECTION('',(0.866025403784439,0.,0.5));
#738=DIRECTION('',(0.5,0.,-0.866025403784439));
#739=DIRECTION('',(-0.866025403784439,0.,-0.5));
#740=DIRECTION('',(0.,-1.,0.));
#741=DIRECTION('',(0.,0.,-1.));
#742=DIRECTION('',(-0.833735331450363,0.,-0.552164284512637));
#743=DIRECTION('',(0.,1.,0.));
#744=DIRECTION('',(0.,0.,1.));
#745=DIRECTION('',(0.,-1.,0.));
#746=DIRECTION('',(0.,0.,-1.));
#747=DIRECTION('',(0.,1.,0.));
#748=DIRECTION('',(0.,1.,0.));
#749=DIRECTION('',(0.,-1.,0.));
#750=DIRECTION('',(0.,0.,-1.));
#751=DIRECTION('',(0.,1.,0.));
#752=DIRECTION('',(0.,1.,0.));
#753=DIRECTION('',(0.,0.,1.));
#754=DIRECTION('',(0.,-1.,0.));
#755=DIRECTION('',(0.,0.,-1.));
#756=DIRECTION('',(0.,1.,0.));
#757=DIRECTION('',(0.,1.,0.));
#758=DIRECTION('',(0.,1.,0.));
#759=DIRECTION('',(0.,0.,1.));
#760=DIRECTION('',(0.,-1.,0.));
#761=DIRECTION('',(0.,0.,-1.));
#762=DIRECTION('',(0.,1.,0.));
#763=DIRECTION('',(0.,1.,0.));
#764=DIRECTION('',(0.,1.,0.));
#765=DIRECTION('',(0.,0.,1.));
#766=DIRECTION('',(0.,-1.,0.));
#767=DIRECTION('',(0.,0.,-1.));
#768=DIRECTION('',(0.,1.,0.));
#769=DIRECTION('',(0.,1.,0.));
#770=DIRECTION('',(0.,1.,0.));
#771=DIRECTION('',(0.,0.,1.));
#772=DIRECTION('',(0.,-1.,0.));
#773=DIRECTION('',(0.,0.,-1.));
#774=DIRECTION('',(0.,1.,0.));
#775=DIRECTION('',(0.,1.,0.));
#776=DIRECTION('',(0.,1.,0.));
#777=DIRECTION('',(0.,0.,1.));
#778=DIRECTION('',(0.,1.,0.));
#779=DIRECTION('',(0.,-1.,0.));
#780=DIRECTION('',(0.,0.,-1.));
#781=DIRECTION('',(0.,1.,0.));
#782=DIRECTION('',(0.,-1.,0.));
#783=DIRECTION('',(0.,0.,-1.));
#784=DIRECTION('',(0.,1.,0.));
#785=DIRECTION('',(0.,1.,0.));
#786=DIRECTION('',(0.,0.,1.));
#787=DIRECTION('',(0.,-1.,0.));
#788=DIRECTION('',(0.,0.,-1.));
#789=DIRECTION('',(0.,-1.,0.));
#790=DIRECTION('',(1.,0.,0.));
#791=DIRECTION('',(-7.63958078352519E-18,0.,1.));
#792=DIRECTION('',(-1.,0.,1.22464679914735E-16));
#793=DIRECTION('',(-1.22464679914735E-16,0.,-1.));
#794=DIRECTION('',(0.866025403784439,0.,0.5));
#795=DIRECTION('',(-0.5,0.,0.866025403784439));
#796=DIRECTION('',(-0.866025403784439,0.,-0.5));
#797=DIRECTION('',(0.866025403784439,0.,-0.5));
#798=DIRECTION('',(0.5,0.,0.866025403784439));
#799=DIRECTION('',(-0.866025403784439,0.,0.5));
#800=DIRECTION('',(1.3010426069826E-16,0.,-1.));
#801=DIRECTION('',(1.,0.,0.));
#802=DIRECTION('',(0.,0.,1.));
#803=DIRECTION('',(-0.866025403784439,0.,-0.5));
#804=DIRECTION('',(0.5,0.,-0.866025403784439));
#805=DIRECTION('',(0.866025403784439,0.,0.5));
#806=DIRECTION('',(-0.866025403784439,0.,0.5));
#807=DIRECTION('',(-0.5,0.,-0.866025403784438));
#808=DIRECTION('',(0.866025403784438,0.,-0.5));
#809=DIRECTION('',(0.5,0.,0.866025403784439));
#810=DIRECTION('',(0.866025403784439,0.,-0.5));
#811=DIRECTION('',(0.,1.,0.));
#812=DIRECTION('',(-0.866025403784439,0.,0.5));
#813=DIRECTION('',(0.5,0.,0.866025403784439));
#814=DIRECTION('',(0.,1.,0.));
#815=DIRECTION('',(-0.5,0.,-0.866025403784439));
#816=DIRECTION('',(-0.866025403784439,0.,0.5));
#817=DIRECTION('',(-0.5,0.,0.866025403784439));
#818=DIRECTION('',(0.866025403784439,0.,0.5));
#819=DIRECTION('',(0.,1.,0.));
#820=DIRECTION('',(-0.866025403784439,0.,-0.5));
#821=DIRECTION('',(-0.5,0.,0.866025403784439));
#822=DIRECTION('',(0.,1.,0.));
#823=DIRECTION('',(0.5,0.,-0.866025403784439));
#824=DIRECTION('',(-0.866025403784439,0.,-0.5));
#825=DIRECTION('',(-1.,0.,-7.63958078352519E-18));
#826=DIRECTION('',(-7.63958078352519E-18,0.,1.));
#827=DIRECTION('',(0.,1.,0.));
#828=DIRECTION('',(-1.22464679914735E-16,0.,-1.));
#829=DIRECTION('',(-1.,0.,1.22464679914735E-16));
#830=DIRECTION('',(0.,1.,0.));
#831=DIRECTION('',(1.,0.,-1.22464679914735E-16));
#832=DIRECTION('',(-1.22464679914735E-16,0.,-1.));
#833=DIRECTION('',(-0.5,0.,-0.866025403784438));
#834=DIRECTION('',(-0.866025403784439,0.,0.5));
#835=DIRECTION('',(0.,1.,0.));
#836=DIRECTION('',(0.866025403784438,0.,-0.5));
#837=DIRECTION('',(-0.5,0.,-0.866025403784438));
#838=DIRECTION('',(0.,1.,0.));
#839=DIRECTION('',(0.5,0.,0.866025403784438));
#840=DIRECTION('',(0.866025403784438,0.,-0.5));
#841=DIRECTION('',(0.5,0.,-0.866025403784439));
#842=DIRECTION('',(-0.866025403784439,0.,-0.5));
#843=DIRECTION('',(0.,1.,0.));
#844=DIRECTION('',(0.866025403784439,0.,0.5));
#845=DIRECTION('',(0.5,0.,-0.866025403784439));
#846=DIRECTION('',(0.,1.,0.));
#847=DIRECTION('',(-0.5,0.,0.866025403784439));
#848=DIRECTION('',(0.866025403784439,0.,0.5));
#849=DIRECTION('',(1.,0.,1.3010426069826E-16));
#850=DIRECTION('',(1.3010426069826E-16,0.,-1.));
#851=DIRECTION('',(1.3010426069826E-16,0.,-1.));
#852=DIRECTION('',(1.3010426069826E-16,0.,-1.));
#853=DIRECTION('',(0.,1.,0.));
#854=DIRECTION('',(0.,0.,1.));
#855=DIRECTION('',(1.,0.,0.));
#856=DIRECTION('',(1.,0.,0.));
#857=DIRECTION('',(0.,1.,0.));
#858=DIRECTION('',(-1.,0.,0.));
#859=DIRECTION('',(0.,0.,1.));
#860=DIRECTION('',(0.,0.,1.));
#861=DIRECTION('',(0.,0.,1.));
#862=DIRECTION('',(0.,-1.,0.));
#863=DIRECTION('',(1.,0.,0.));
#864=DIRECTION('',(0.,-1.,0.));
#865=DIRECTION('',(0.,0.,-1.));
#866=DIRECTION('',(-0.833735331450363,0.,-0.552164284512637));
#867=DIRECTION('',(0.552164284512637,0.,-0.833735331450363));
#868=DIRECTION('',(-0.833735331450363,0.,-0.552164284512637));
#869=DIRECTION('',(0.,1.,0.));
#870=DIRECTION('',(0.,1.,0.));
#871=DIRECTION('',(0.,0.,1.));
#872=DIRECTION('',(0.,1.,0.));
#873=DIRECTION('',(0.,-1.,0.));
#874=DIRECTION('',(0.,0.,-1.));
#875=DIRECTION('',(0.,-1.,0.));
#876=DIRECTION('',(0.,0.,-1.));
#877=DIRECTION('',(0.,-1.,0.));
#878=DIRECTION('',(1.,0.,0.));
#879=DIRECTION('',(0.833735331450363,0.,-0.552164284512639));
#880=DIRECTION('',(0.552164284512639,0.,0.833735331450363));
#881=DIRECTION('',(0.833735331450363,0.,-0.552164284512639));
#882=DIRECTION('',(0.,-1.,0.));
#883=DIRECTION('',(1.,0.,0.));
#884=CARTESIAN_POINT('',(0.,0.,0.));
#885=CARTESIAN_POINT('',(0.,0.,0.));
#886=CARTESIAN_POINT('',(0.,0.,2.8075027870453E-18));
#887=CARTESIAN_POINT('',(0.,0.,-0.04585));
#888=CARTESIAN_POINT('',(0.,0.,0.03175));
#889=CARTESIAN_POINT('',(0.0063499999999999,0.,0.03175));
#890=CARTESIAN_POINT('',(-0.00634999999999989,0.,0.03175));
#891=CARTESIAN_POINT('',(-0.0141848652636782,0.,0.0369388562345634));
#892=CARTESIAN_POINT('',(-0.01905,0.,0.0401609262841385));
#893=CARTESIAN_POINT('',(-1.21430643318376E-17,0.,-8.2572837456496E-16));
#894=CARTESIAN_POINT('',(-0.0369070550159737,0.,0.0247723997636064));
#895=CARTESIAN_POINT('',(-0.0325769279970511,0.,0.0222723997636063));
#896=CARTESIAN_POINT('',(-0.0282468009781289,0.,0.0197723997636063));
#897=CARTESIAN_POINT('',(-0.0297468009781289,0.,0.0171743235522529));
#898=CARTESIAN_POINT('',(-0.031246800978129,0.,0.0145762473408996));
#899=CARTESIAN_POINT('',(-0.0355769279970511,0.,0.0170762473408996));
#900=CARTESIAN_POINT('',(-0.0399070550159733,0.,0.0195762473408996));
#901=CARTESIAN_POINT('',(-1.21430643318376E-17,0.,-8.2572837456496E-16));
#902=CARTESIAN_POINT('',(-0.0399070550159743,0.,-0.0195762473409002));
#903=CARTESIAN_POINT('',(-0.0355769279970512,0.,-0.0170762473408996));
#904=CARTESIAN_POINT('',(-0.031246800978129,0.,-0.0145762473408996));
#905=CARTESIAN_POINT('',(-0.0297468009781289,0.,-0.0171743235522529));
#906=CARTESIAN_POINT('',(-0.028246800978129,0.,-0.0197723997636063));
#907=CARTESIAN_POINT('',(-0.0325769279970511,0.,-0.0222723997636062));
#908=CARTESIAN_POINT('',(-0.0369070550159733,0.,-0.0247723997636063));
#909=CARTESIAN_POINT('',(-1.21430643318376E-17,0.,-8.2572837456496E-16));
#910=CARTESIAN_POINT('',(-0.003,0.,-0.0443486471045075));
#911=CARTESIAN_POINT('',(-0.003,0.,-0.0393486471045059));
#912=CARTESIAN_POINT('',(-0.003,0.,-0.0343486471045059));
#913=CARTESIAN_POINT('',(-4.64017694215172E-18,0.,-0.0343486471045059));
#914=CARTESIAN_POINT('',(0.003,0.,-0.0343486471045059));
#915=CARTESIAN_POINT('',(0.003,0.,-0.0393486471045059));
#916=CARTESIAN_POINT('',(0.003,0.,-0.0443486471045059));
#917=CARTESIAN_POINT('',(-1.21430643318376E-17,0.,-8.2572837456496E-16));
#918=CARTESIAN_POINT('',(0.0369070550159744,0.,-0.0247723997636069));
#919=CARTESIAN_POINT('',(0.0325769279970511,0.,-0.0222723997636063));
#920=CARTESIAN_POINT('',(0.0282468009781289,0.,-0.0197723997636063));
#921=CARTESIAN_POINT('',(0.0297468009781289,0.,-0.0171743235522529));
#922=CARTESIAN_POINT('',(0.0312468009781289,0.,-0.0145762473408997));
#923=CARTESIAN_POINT('',(0.0355769279970511,0.,-0.0170762473408996));
#924=CARTESIAN_POINT('',(0.0399070550159733,0.,-0.0195762473408996));
#925=CARTESIAN_POINT('',(-1.21430643318376E-17,0.,-8.2572837456496E-16));
#926=CARTESIAN_POINT('',(0.0399070550159737,0.,0.0195762473408998));
#927=CARTESIAN_POINT('',(0.0355769279970512,0.,0.0170762473408996));
#928=CARTESIAN_POINT('',(0.031246800978129,0.,0.0145762473408996));
#929=CARTESIAN_POINT('',(0.0297468009781289,0.,0.0171743235522529));
#930=CARTESIAN_POINT('',(0.028246800978129,0.,0.0197723997636063));
#931=CARTESIAN_POINT('',(0.0325769279970511,0.,0.0222723997636062));
#932=CARTESIAN_POINT('',(0.0369070550159733,0.,0.0247723997636062));
#933=CARTESIAN_POINT('',(-1.21430643318376E-17,0.,-8.2572837456496E-16));
#934=CARTESIAN_POINT('',(0.01905,0.,0.0401609262841384));
#935=CARTESIAN_POINT('',(0.0141848652636782,0.,0.0369388562345634));
#936=CARTESIAN_POINT('',(-1.21430643318376E-17,-0.1524,-8.2572837456496E-16));
#937=CARTESIAN_POINT('',(-3.46944695195361E-18,-0.0762,5.55111512312578E-17));
#938=CARTESIAN_POINT('',(0.01905,-0.0762,0.0401609262841384));
#939=CARTESIAN_POINT('',(0.003,-0.0762,0.0443486471045059));
#940=CARTESIAN_POINT('',(0.01905,-0.0762,0.0401609262841384));
#941=CARTESIAN_POINT('',(0.0369070550159733,-0.1524,0.0247723997636062));
#942=CARTESIAN_POINT('',(0.0369070550159733,-0.1524,0.0247723997636062));
#943=CARTESIAN_POINT('',(-1.21430643318376E-17,-0.1524,-8.2572837456496E-16));
#944=CARTESIAN_POINT('',(0.003,-0.1524,0.0443486471045059));
#945=CARTESIAN_POINT('',(0.003,-0.1524,0.0443486471045059));
#946=CARTESIAN_POINT('',(-1.21430643318376E-17,-0.1524,-8.2572837456496E-16));
#947=CARTESIAN_POINT('',(-1.21430643318376E-17,-0.1524,-8.2572837456496E-16));
#948=CARTESIAN_POINT('',(0.0399070550159733,-0.1524,-0.0195762473408996));
#949=CARTESIAN_POINT('',(0.0399070550159733,-0.1524,0.0195762473408996));
#950=CARTESIAN_POINT('',(0.0399070550159733,-0.1524,0.0195762473408996));
#951=CARTESIAN_POINT('',(0.0399070550159733,-0.1524,-0.0195762473408996));
#952=CARTESIAN_POINT('',(-1.21430643318376E-17,-0.1524,-8.2572837456496E-16));
#953=CARTESIAN_POINT('',(-1.21430643318376E-17,-0.1524,-8.2572837456496E-16));
#954=CARTESIAN_POINT('',(0.003,-0.1524,-0.0443486471045059));
#955=CARTESIAN_POINT('',(0.0369070550159733,-0.1524,-0.0247723997636063));
#956=CARTESIAN_POINT('',(0.0369070550159733,-0.1524,-0.0247723997636063));
#957=CARTESIAN_POINT('',(0.003,-0.1524,-0.0443486471045059));
#958=CARTESIAN_POINT('',(-1.21430643318376E-17,-0.1524,-8.2572837456496E-16));
#959=CARTESIAN_POINT('',(-1.21430643318376E-17,-0.1524,-8.2572837456496E-16));
#960=CARTESIAN_POINT('',(-0.0369070550159733,-0.1524,-0.0247723997636063));
#961=CARTESIAN_POINT('',(-0.003,-0.1524,-0.0443486471045059));
#962=CARTESIAN_POINT('',(-0.003,-0.1524,-0.0443486471045059));
#963=CARTESIAN_POINT('',(-0.0369070550159733,-0.1524,-0.0247723997636063));
#964=CARTESIAN_POINT('',(-1.21430643318376E-17,-0.1524,-8.2572837456496E-16));
#965=CARTESIAN_POINT('',(-1.21430643318376E-17,-0.1524,-8.2572837456496E-16));
#966=CARTESIAN_POINT('',(-0.0399070550159733,-0.1524,0.0195762473408996));
#967=CARTESIAN_POINT('',(-0.0399070550159733,-0.1524,-0.0195762473408996));
#968=CARTESIAN_POINT('',(-0.0399070550159733,-0.1524,-0.0195762473408996));
#969=CARTESIAN_POINT('',(-0.0399070550159733,-0.1524,0.0195762473408996));
#970=CARTESIAN_POINT('',(-1.21430643318376E-17,-0.1524,-8.2572837456496E-16));
#971=CARTESIAN_POINT('',(-0.01905,-0.0762,0.0401609262841385));
#972=CARTESIAN_POINT('',(-0.01905,-0.0762,0.0401609262841385));
#973=CARTESIAN_POINT('',(-3.46944695195361E-18,-0.0762,5.55111512312578E-17));
#974=CARTESIAN_POINT('',(-0.003,-0.0762,0.044348647104506));
#975=CARTESIAN_POINT('',(-0.003,-0.1524,0.0443486471045059));
#976=CARTESIAN_POINT('',(-0.003,-0.1524,0.0443486471045059));
#977=CARTESIAN_POINT('',(-1.21430643318376E-17,-0.1524,-8.2572837456496E-16));
#978=CARTESIAN_POINT('',(-0.0369070550159733,-0.1524,0.0247723997636062));
#979=CARTESIAN_POINT('',(-0.0369070550159733,-0.1524,0.0247723997636062));
#980=CARTESIAN_POINT('',(0.,-0.1524,2.8075027870453E-18));
#981=CARTESIAN_POINT('',(0.,-0.1524,2.8075027870453E-18));
#982=CARTESIAN_POINT('',(0.,-0.1524,-0.04585));
#983=CARTESIAN_POINT('',(0.,-0.1524,0.));
#984=CARTESIAN_POINT('',(0.003,-0.1524,-0.0393486471045059));
#985=CARTESIAN_POINT('',(0.003,-0.1524,-0.0343486471045059));
#986=CARTESIAN_POINT('',(-4.64017694215172E-18,-0.1524,-0.0343486471045059));
#987=CARTESIAN_POINT('',(-0.003,-0.1524,-0.0343486471045059));
#988=CARTESIAN_POINT('',(-0.003,-0.1524,-0.0393486471045059));
#989=CARTESIAN_POINT('',(-0.0325769279970511,-0.1524,-0.0222723997636062));
#990=CARTESIAN_POINT('',(-0.028246800978129,-0.1524,-0.0197723997636063));
#991=CARTESIAN_POINT('',(-0.0297468009781289,-0.1524,-0.0171743235522529));
#992=CARTESIAN_POINT('',(-0.031246800978129,-0.1524,-0.0145762473408996));
#993=CARTESIAN_POINT('',(-0.0355769279970512,-0.1524,-0.0170762473408996));
#994=CARTESIAN_POINT('',(-0.0355769279970511,-0.1524,0.0170762473408996));
#995=CARTESIAN_POINT('',(-0.031246800978129,-0.1524,0.0145762473408996));
#996=CARTESIAN_POINT('',(-0.0297468009781289,-0.1524,0.0171743235522529));
#997=CARTESIAN_POINT('',(-0.0282468009781289,-0.1524,0.0197723997636063));
#998=CARTESIAN_POINT('',(-0.0325769279970511,-0.1524,0.0222723997636063));
#999=CARTESIAN_POINT('',(-0.003,-0.1524,0.0393486471045059));
#1000=CARTESIAN_POINT('',(-0.003,-0.1524,0.0343486471045059));
#1001=CARTESIAN_POINT('',(4.33680868994202E-19,-0.1524,0.0343486471045059));
#1002=CARTESIAN_POINT('',(0.003,-0.1524,0.0343486471045059));
#1003=CARTESIAN_POINT('',(0.003,-0.1524,0.0393486471045059));
#1004=CARTESIAN_POINT('',(0.0325769279970511,-0.1524,0.0222723997636062));
#1005=CARTESIAN_POINT('',(0.028246800978129,-0.1524,0.0197723997636063));
#1006=CARTESIAN_POINT('',(0.0297468009781289,-0.1524,0.0171743235522529));
#1007=CARTESIAN_POINT('',(0.031246800978129,-0.1524,0.0145762473408996));
#1008=CARTESIAN_POINT('',(0.0355769279970512,-0.1524,0.0170762473408996));
#1009=CARTESIAN_POINT('',(0.0355769279970511,-0.1524,-0.0170762473408996));
#1010=CARTESIAN_POINT('',(0.0312468009781289,-0.1524,-0.0145762473408997));
#1011=CARTESIAN_POINT('',(0.0297468009781289,-0.1524,-0.0171743235522529));
#1012=CARTESIAN_POINT('',(0.0282468009781289,-0.1524,-0.0197723997636063));
#1013=CARTESIAN_POINT('',(0.0325769279970511,-0.1524,-0.0222723997636063));
#1014=CARTESIAN_POINT('',(-0.0355769279970511,-0.1524,0.0170762473408996));
#1015=CARTESIAN_POINT('',(-0.031246800978129,-0.1524,0.0145762473408996));
#1016=CARTESIAN_POINT('',(-0.0297468009781289,-0.1524,0.0171743235522529));
#1017=CARTESIAN_POINT('',(-0.0282468009781289,-0.1524,0.0197723997636063));
#1018=CARTESIAN_POINT('',(-0.0325769279970511,-0.1524,0.0222723997636063));
#1019=CARTESIAN_POINT('',(-0.0325769279970511,-0.1524,-0.0222723997636062));
#1020=CARTESIAN_POINT('',(-0.028246800978129,-0.1524,-0.0197723997636063));
#1021=CARTESIAN_POINT('',(-0.0297468009781289,-0.1524,-0.0171743235522529));
#1022=CARTESIAN_POINT('',(-0.031246800978129,-0.1524,-0.0145762473408996));
#1023=CARTESIAN_POINT('',(-0.0355769279970512,-0.1524,-0.0170762473408996));
#1024=CARTESIAN_POINT('',(0.003,-0.1524,-0.0393486471045059));
#1025=CARTESIAN_POINT('',(0.003,-0.1524,-0.0343486471045059));
#1026=CARTESIAN_POINT('',(-4.64017694215172E-18,-0.1524,-0.0343486471045059));
#1027=CARTESIAN_POINT('',(-0.003,-0.1524,-0.0343486471045059));
#1028=CARTESIAN_POINT('',(-0.003,-0.1524,-0.0393486471045059));
#1029=CARTESIAN_POINT('',(0.0355769279970511,-0.1524,-0.0170762473408996));
#1030=CARTESIAN_POINT('',(0.0312468009781289,-0.1524,-0.0145762473408997));
#1031=CARTESIAN_POINT('',(0.0297468009781289,-0.1524,-0.0171743235522529));
#1032=CARTESIAN_POINT('',(0.0282468009781289,-0.1524,-0.0197723997636063));
#1033=CARTESIAN_POINT('',(0.0325769279970511,-0.1524,-0.0222723997636063));
#1034=CARTESIAN_POINT('',(0.0325769279970511,-0.1524,0.0222723997636062));
#1035=CARTESIAN_POINT('',(0.028246800978129,-0.1524,0.0197723997636063));
#1036=CARTESIAN_POINT('',(0.0297468009781289,-0.1524,0.0171743235522529));
#1037=CARTESIAN_POINT('',(0.031246800978129,-0.1524,0.0145762473408996));
#1038=CARTESIAN_POINT('',(0.0355769279970512,-0.1524,0.0170762473408996));
#1039=CARTESIAN_POINT('',(-0.003,-0.1524,0.0393486471045059));
#1040=CARTESIAN_POINT('',(-0.003,-0.0762,0.0393486471045059));
#1041=CARTESIAN_POINT('',(-0.003,-0.0762,0.0373466507841745));
#1042=CARTESIAN_POINT('',(-0.003,-0.0762,0.0393486471045059));
#1043=CARTESIAN_POINT('',(-0.003,-0.0762,0.0343486471045059));
#1044=CARTESIAN_POINT('',(-0.003,-0.1524,0.0343486471045059));
#1045=CARTESIAN_POINT('',(4.33680868994202E-19,-0.1524,0.0343486471045059));
#1046=CARTESIAN_POINT('',(4.33680868994202E-19,-0.0762,0.0343486471045059));
#1047=CARTESIAN_POINT('',(0.003,-0.0762,0.0343486471045059));
#1048=CARTESIAN_POINT('',(0.003,-0.1524,0.0343486471045059));
#1049=CARTESIAN_POINT('',(0.003,-0.1524,0.0393486471045059));
#1050=CARTESIAN_POINT('',(0.003,-0.0762,0.0393486471045059));
#1051=CARTESIAN_POINT('',(0.003,-0.0762,0.0373466507841745));
#1052=CARTESIAN_POINT('',(0.003,-0.0762,0.0393486471045059));
#1053=CARTESIAN_POINT('',(0.,-0.0762,0.));
#1054=CARTESIAN_POINT('',(0.,-0.0762,0.03175));
#1055=CARTESIAN_POINT('',(0.0063499999999999,-0.0762,0.03175));
#1056=CARTESIAN_POINT('',(0.0141848652636782,-0.0762,0.0369388562345634));
#1057=CARTESIAN_POINT('',(0.0141848652636782,-0.0762,0.0369388562345634));
#1058=CARTESIAN_POINT('',(0.0063499999999999,-0.0762,0.03175));
#1059=CARTESIAN_POINT('',(0.,-0.0762,0.03175));
#1060=CARTESIAN_POINT('',(-0.00634999999999989,-0.0762,0.03175));
#1061=CARTESIAN_POINT('',(-0.00634999999999989,-0.0762,0.03175));
#1062=CARTESIAN_POINT('',(0.,-0.0762,0.03175));
#1063=CARTESIAN_POINT('',(0.,-0.0762,0.03175));
#1064=CARTESIAN_POINT('',(0.,-0.0762,0.));
#1065=CARTESIAN_POINT('',(-0.0141848652636782,-0.0762,0.0369388562345634));
#1066=CARTESIAN_POINT('',(-0.0141848652636782,-0.0762,0.0369388562345634));
#1067=CARTESIAN_POINT('',(0.,-0.0762,0.));
#1068=MECHANICAL_DESIGN_GEOMETRIC_PRESENTATION_REPRESENTATION('',(#641),
#1069);
#1069=(
GEOMETRIC_REPRESENTATION_CONTEXT(3)
GLOBAL_UNCERTAINTY_ASSIGNED_CONTEXT((#1070))
GLOBAL_UNIT_ASSIGNED_CONTEXT((#1073,#1072,#1071))
REPRESENTATION_CONTEXT('Hull1','TOP_LEVEL_ASSEMBLY_PART')
);
#1070=UNCERTAINTY_MEASURE_WITH_UNIT(LENGTH_MEASURE(1.E-8),#1073,
'DISTANCE_ACCURACY_VALUE','Maximum Tolerance applied to model');
#1071=(
NAMED_UNIT(*)
SI_UNIT($,.STERADIAN.)
SOLID_ANGLE_UNIT()
);
#1072=(
NAMED_UNIT(*)
PLANE_ANGLE_UNIT()
SI_UNIT($,.RADIAN.)
);
#1073=(
LENGTH_UNIT()
NAMED_UNIT(*)
SI_UNIT($,.METRE.)
);
#1074=PRODUCT_DEFINITION_SHAPE('','',#1075);
#1075=PRODUCT_DEFINITION('','',#1077,#1076);
#1076=PRODUCT_DEFINITION_CONTEXT('',#1083,'design');
#1077=PRODUCT_DEFINITION_FORMATION_WITH_SPECIFIED_SOURCE('','',#1079,
 .NOT_KNOWN.);
#1078=PRODUCT_RELATED_PRODUCT_CATEGORY('','',(#1079));
#1079=PRODUCT('Hull1','Hull1','Hull1',(#1081));
#1080=PRODUCT_CATEGORY('','');
#1081=PRODUCT_CONTEXT('',#1083,'mechanical');
#1082=APPLICATION_PROTOCOL_DEFINITION('international standard',
'ap242_managed_model_based_3d_engineering',2020,#1083);
#1083=APPLICATION_CONTEXT('managed model based 3d engineering');
ENDSEC;
END-ISO-10303-21;
