ISO-10303-21;
HEADER;
/* Generated by software containing ST-Developer
 * from STEP Tools, Inc. (www.steptools.com) 
 */
/* OPTION: using custom renumber hook */

FILE_DESCRIPTION(
/* description */ ('STEP AP242 Edition 2',
'CAx-IF Rec.Pracs.---Representation and Presentation of Product Manufa
cturing Information (PMI)---4.0---2014-10-13',
'CAx-IF Rec.Pracs.---3D Tessellated Geometry---0.4---2014-09-14','2;1',
'CAx-IF Rec.Pracs.---User Defined Attributes---1.5---2016-08-15'),
/* implementation_level */ '2;1');

FILE_NAME(
/* name */ 'Front Hull and Nose - Full Ring',
/* time_stamp */ '2026-08-24T02:47:08Z',
/* author */ (''),
/* organization */ (''),
/* preprocessor_version */ 'ST-DEVELOPER v20',
/* originating_system */ 'ONSHAPE BY PTC INC, 1.219',
/* authorisation */ '  ');

FILE_SCHEMA (('AP242_MANAGED_MODEL_BASED_3D_ENGINEERING_MIM_LF { 1 0 10303 442 3 1 4 }'));
ENDSEC;

DATA;
#10=SHAPE_REPRESENTATION_RELATIONSHIP('','',#1351,#11);
#11=ADVANCED_BREP_SHAPE_REPRESENTATION('',(#1349),#2175);
#12=PLANE('',#1371);
#13=PLANE('',#1386);
#14=PLANE('',#1401);
#15=PLANE('',#1405);
#16=PLANE('',#1406);
#17=PLANE('',#1407);
#18=PLANE('',#1409);
#19=PLANE('',#1410);
#20=PLANE('',#1411);
#21=PLANE('',#1412);
#22=PLANE('',#1414);
#23=PLANE('',#1415);
#24=PLANE('',#1416);
#25=PLANE('',#1417);
#26=PLANE('',#1421);
#27=PLANE('',#1422);
#28=PLANE('',#1423);
#29=PLANE('',#1424);
#30=PLANE('',#1426);
#31=PLANE('',#1427);
#32=PLANE('',#1428);
#33=PLANE('',#1429);
#34=PLANE('',#1430);
#35=PLANE('',#1431);
#36=PLANE('',#1432);
#37=PLANE('',#1433);
#38=PLANE('',#1434);
#39=PLANE('',#1436);
#40=PLANE('',#1437);
#41=PLANE('',#1438);
#42=PLANE('',#1439);
#43=PLANE('',#1441);
#44=PLANE('',#1442);
#45=PLANE('',#1443);
#46=PLANE('',#1444);
#47=PLANE('',#1446);
#48=PLANE('',#1447);
#49=PLANE('',#1448);
#50=PLANE('',#1449);
#51=PLANE('',#1450);
#52=PLANE('',#1451);
#53=PLANE('',#1454);
#54=PLANE('',#1455);
#55=PLANE('',#1456);
#56=PLANE('',#1457);
#57=CIRCLE('',#1354,0.04445);
#58=CIRCLE('',#1355,0.04445);
#59=CIRCLE('',#1357,0.04445);
#60=CIRCLE('',#1358,0.04445);
#61=CIRCLE('',#1360,0.04445);
#62=CIRCLE('',#1361,0.04445);
#63=CIRCLE('',#1363,0.04445);
#64=CIRCLE('',#1364,0.04445);
#65=CIRCLE('',#1366,0.04445);
#66=CIRCLE('',#1367,0.04445);
#67=CIRCLE('',#1369,0.04445);
#68=CIRCLE('',#1370,0.04445);
#69=CIRCLE('',#1372,0.04445);
#70=CIRCLE('',#1373,0.00238125);
#71=CIRCLE('',#1374,0.00238125);
#72=CIRCLE('',#1375,0.00238125);
#73=CIRCLE('',#1376,0.00238125);
#74=CIRCLE('',#1377,0.03175);
#75=CIRCLE('',#1378,0.00238125);
#76=CIRCLE('',#1379,0.00238125);
#77=CIRCLE('',#1380,0.00238125);
#78=CIRCLE('',#1381,0.00238125);
#79=CIRCLE('',#1382,0.00238125);
#80=CIRCLE('',#1383,0.00238125);
#81=CIRCLE('',#1384,0.00238125);
#82=CIRCLE('',#1385,0.00238125);
#83=CIRCLE('',#1387,0.04445);
#84=CIRCLE('',#1388,0.00238125);
#85=CIRCLE('',#1389,0.00238125);
#86=CIRCLE('',#1390,0.00238125);
#87=CIRCLE('',#1391,0.00238125);
#88=CIRCLE('',#1392,0.00238125);
#89=CIRCLE('',#1393,0.00238125);
#90=CIRCLE('',#1394,0.00238125);
#91=CIRCLE('',#1395,0.00238125);
#92=CIRCLE('',#1396,0.00238125);
#93=CIRCLE('',#1397,0.00238125);
#94=CIRCLE('',#1398,0.00238125);
#95=CIRCLE('',#1399,0.00238125);
#96=CIRCLE('',#1400,0.03175);
#97=ORIENTED_EDGE('',*,*,#449,.F.);
#98=ORIENTED_EDGE('',*,*,#450,.F.);
#99=ORIENTED_EDGE('',*,*,#451,.T.);
#100=ORIENTED_EDGE('',*,*,#452,.T.);
#101=ORIENTED_EDGE('',*,*,#453,.F.);
#102=ORIENTED_EDGE('',*,*,#454,.T.);
#103=ORIENTED_EDGE('',*,*,#455,.T.);
#104=ORIENTED_EDGE('',*,*,#456,.F.);
#105=ORIENTED_EDGE('',*,*,#457,.F.);
#106=ORIENTED_EDGE('',*,*,#458,.F.);
#107=ORIENTED_EDGE('',*,*,#459,.T.);
#108=ORIENTED_EDGE('',*,*,#460,.T.);
#109=ORIENTED_EDGE('',*,*,#461,.F.);
#110=ORIENTED_EDGE('',*,*,#462,.T.);
#111=ORIENTED_EDGE('',*,*,#463,.T.);
#112=ORIENTED_EDGE('',*,*,#464,.F.);
#113=ORIENTED_EDGE('',*,*,#465,.F.);
#114=ORIENTED_EDGE('',*,*,#466,.T.);
#115=ORIENTED_EDGE('',*,*,#467,.T.);
#116=ORIENTED_EDGE('',*,*,#468,.F.);
#117=ORIENTED_EDGE('',*,*,#469,.F.);
#118=ORIENTED_EDGE('',*,*,#470,.T.);
#119=ORIENTED_EDGE('',*,*,#471,.T.);
#120=ORIENTED_EDGE('',*,*,#472,.F.);
#121=ORIENTED_EDGE('',*,*,#473,.F.);
#122=ORIENTED_EDGE('',*,*,#474,.F.);
#123=ORIENTED_EDGE('',*,*,#475,.F.);
#124=ORIENTED_EDGE('',*,*,#453,.T.);
#125=ORIENTED_EDGE('',*,*,#476,.F.);
#126=ORIENTED_EDGE('',*,*,#477,.F.);
#127=ORIENTED_EDGE('',*,*,#478,.F.);
#128=ORIENTED_EDGE('',*,*,#469,.T.);
#129=ORIENTED_EDGE('',*,*,#479,.F.);
#130=ORIENTED_EDGE('',*,*,#480,.F.);
#131=ORIENTED_EDGE('',*,*,#481,.F.);
#132=ORIENTED_EDGE('',*,*,#482,.T.);
#133=ORIENTED_EDGE('',*,*,#483,.F.);
#134=ORIENTED_EDGE('',*,*,#458,.T.);
#135=ORIENTED_EDGE('',*,*,#484,.F.);
#136=ORIENTED_EDGE('',*,*,#485,.F.);
#137=ORIENTED_EDGE('',*,*,#486,.F.);
#138=ORIENTED_EDGE('',*,*,#461,.T.);
#139=ORIENTED_EDGE('',*,*,#487,.F.);
#140=ORIENTED_EDGE('',*,*,#488,.F.);
#141=ORIENTED_EDGE('',*,*,#489,.F.);
#142=ORIENTED_EDGE('',*,*,#465,.T.);
#143=ORIENTED_EDGE('',*,*,#490,.F.);
#144=ORIENTED_EDGE('',*,*,#491,.F.);
#145=ORIENTED_EDGE('',*,*,#492,.F.);
#146=ORIENTED_EDGE('',*,*,#450,.T.);
#147=ORIENTED_EDGE('',*,*,#493,.F.);
#148=ORIENTED_EDGE('',*,*,#494,.F.);
#149=ORIENTED_EDGE('',*,*,#495,.F.);
#150=ORIENTED_EDGE('',*,*,#496,.F.);
#151=ORIENTED_EDGE('',*,*,#497,.T.);
#152=ORIENTED_EDGE('',*,*,#498,.T.);
#153=ORIENTED_EDGE('',*,*,#499,.F.);
#154=ORIENTED_EDGE('',*,*,#500,.F.);
#155=ORIENTED_EDGE('',*,*,#501,.F.);
#156=ORIENTED_EDGE('',*,*,#502,.F.);
#157=ORIENTED_EDGE('',*,*,#503,.T.);
#158=ORIENTED_EDGE('',*,*,#504,.T.);
#159=ORIENTED_EDGE('',*,*,#505,.F.);
#160=ORIENTED_EDGE('',*,*,#506,.T.);
#161=ORIENTED_EDGE('',*,*,#507,.F.);
#162=ORIENTED_EDGE('',*,*,#508,.F.);
#163=ORIENTED_EDGE('',*,*,#509,.F.);
#164=ORIENTED_EDGE('',*,*,#510,.F.);
#165=ORIENTED_EDGE('',*,*,#511,.T.);
#166=ORIENTED_EDGE('',*,*,#512,.T.);
#167=ORIENTED_EDGE('',*,*,#513,.T.);
#168=ORIENTED_EDGE('',*,*,#514,.F.);
#169=ORIENTED_EDGE('',*,*,#515,.F.);
#170=ORIENTED_EDGE('',*,*,#516,.F.);
#171=ORIENTED_EDGE('',*,*,#517,.F.);
#172=ORIENTED_EDGE('',*,*,#518,.T.);
#173=ORIENTED_EDGE('',*,*,#519,.F.);
#174=ORIENTED_EDGE('',*,*,#520,.F.);
#175=ORIENTED_EDGE('',*,*,#521,.F.);
#176=ORIENTED_EDGE('',*,*,#522,.F.);
#177=ORIENTED_EDGE('',*,*,#523,.T.);
#178=ORIENTED_EDGE('',*,*,#524,.T.);
#179=ORIENTED_EDGE('',*,*,#525,.T.);
#180=ORIENTED_EDGE('',*,*,#526,.F.);
#181=ORIENTED_EDGE('',*,*,#527,.F.);
#182=ORIENTED_EDGE('',*,*,#528,.F.);
#183=ORIENTED_EDGE('',*,*,#529,.F.);
#184=ORIENTED_EDGE('',*,*,#530,.F.);
#185=ORIENTED_EDGE('',*,*,#452,.F.);
#186=ORIENTED_EDGE('',*,*,#531,.F.);
#187=ORIENTED_EDGE('',*,*,#532,.F.);
#188=ORIENTED_EDGE('',*,*,#533,.F.);
#189=ORIENTED_EDGE('',*,*,#467,.F.);
#190=ORIENTED_EDGE('',*,*,#534,.F.);
#191=ORIENTED_EDGE('',*,*,#535,.F.);
#192=ORIENTED_EDGE('',*,*,#536,.F.);
#193=ORIENTED_EDGE('',*,*,#463,.F.);
#194=ORIENTED_EDGE('',*,*,#537,.F.);
#195=ORIENTED_EDGE('',*,*,#538,.F.);
#196=ORIENTED_EDGE('',*,*,#539,.F.);
#197=ORIENTED_EDGE('',*,*,#460,.F.);
#198=ORIENTED_EDGE('',*,*,#540,.T.);
#199=ORIENTED_EDGE('',*,*,#541,.F.);
#200=ORIENTED_EDGE('',*,*,#542,.F.);
#201=ORIENTED_EDGE('',*,*,#543,.F.);
#202=ORIENTED_EDGE('',*,*,#544,.F.);
#203=ORIENTED_EDGE('',*,*,#471,.F.);
#204=ORIENTED_EDGE('',*,*,#545,.F.);
#205=ORIENTED_EDGE('',*,*,#546,.F.);
#206=ORIENTED_EDGE('',*,*,#547,.F.);
#207=ORIENTED_EDGE('',*,*,#455,.F.);
#208=ORIENTED_EDGE('',*,*,#548,.F.);
#209=ORIENTED_EDGE('',*,*,#549,.F.);
#210=ORIENTED_EDGE('',*,*,#550,.T.);
#211=ORIENTED_EDGE('',*,*,#551,.T.);
#212=ORIENTED_EDGE('',*,*,#552,.T.);
#213=ORIENTED_EDGE('',*,*,#553,.T.);
#214=ORIENTED_EDGE('',*,*,#554,.T.);
#215=ORIENTED_EDGE('',*,*,#555,.T.);
#216=ORIENTED_EDGE('',*,*,#556,.T.);
#217=ORIENTED_EDGE('',*,*,#557,.T.);
#218=ORIENTED_EDGE('',*,*,#558,.T.);
#219=ORIENTED_EDGE('',*,*,#559,.T.);
#220=ORIENTED_EDGE('',*,*,#560,.T.);
#221=ORIENTED_EDGE('',*,*,#561,.T.);
#222=ORIENTED_EDGE('',*,*,#562,.T.);
#223=ORIENTED_EDGE('',*,*,#563,.F.);
#224=ORIENTED_EDGE('',*,*,#564,.F.);
#225=ORIENTED_EDGE('',*,*,#565,.F.);
#226=ORIENTED_EDGE('',*,*,#566,.F.);
#227=ORIENTED_EDGE('',*,*,#567,.F.);
#228=ORIENTED_EDGE('',*,*,#568,.F.);
#229=ORIENTED_EDGE('',*,*,#569,.F.);
#230=ORIENTED_EDGE('',*,*,#570,.F.);
#231=ORIENTED_EDGE('',*,*,#571,.F.);
#232=ORIENTED_EDGE('',*,*,#572,.F.);
#233=ORIENTED_EDGE('',*,*,#573,.F.);
#234=ORIENTED_EDGE('',*,*,#574,.F.);
#235=ORIENTED_EDGE('',*,*,#575,.F.);
#236=ORIENTED_EDGE('',*,*,#576,.F.);
#237=ORIENTED_EDGE('',*,*,#577,.F.);
#238=ORIENTED_EDGE('',*,*,#578,.F.);
#239=ORIENTED_EDGE('',*,*,#579,.F.);
#240=ORIENTED_EDGE('',*,*,#580,.F.);
#241=ORIENTED_EDGE('',*,*,#581,.F.);
#242=ORIENTED_EDGE('',*,*,#582,.F.);
#243=ORIENTED_EDGE('',*,*,#583,.F.);
#244=ORIENTED_EDGE('',*,*,#584,.F.);
#245=ORIENTED_EDGE('',*,*,#585,.F.);
#246=ORIENTED_EDGE('',*,*,#586,.F.);
#247=ORIENTED_EDGE('',*,*,#540,.F.);
#248=ORIENTED_EDGE('',*,*,#459,.F.);
#249=ORIENTED_EDGE('',*,*,#483,.T.);
#250=ORIENTED_EDGE('',*,*,#587,.T.);
#251=ORIENTED_EDGE('',*,*,#482,.F.);
#252=ORIENTED_EDGE('',*,*,#588,.T.);
#253=ORIENTED_EDGE('',*,*,#541,.T.);
#254=ORIENTED_EDGE('',*,*,#587,.F.);
#255=ORIENTED_EDGE('',*,*,#505,.T.);
#256=ORIENTED_EDGE('',*,*,#562,.F.);
#257=ORIENTED_EDGE('',*,*,#504,.F.);
#258=ORIENTED_EDGE('',*,*,#561,.F.);
#259=ORIENTED_EDGE('',*,*,#479,.T.);
#260=ORIENTED_EDGE('',*,*,#472,.T.);
#261=ORIENTED_EDGE('',*,*,#544,.T.);
#262=ORIENTED_EDGE('',*,*,#589,.F.);
#263=ORIENTED_EDGE('',*,*,#481,.T.);
#264=ORIENTED_EDGE('',*,*,#590,.T.);
#265=ORIENTED_EDGE('',*,*,#542,.T.);
#266=ORIENTED_EDGE('',*,*,#588,.F.);
#267=ORIENTED_EDGE('',*,*,#480,.T.);
#268=ORIENTED_EDGE('',*,*,#589,.T.);
#269=ORIENTED_EDGE('',*,*,#543,.T.);
#270=ORIENTED_EDGE('',*,*,#590,.F.);
#271=ORIENTED_EDGE('',*,*,#506,.F.);
#272=ORIENTED_EDGE('',*,*,#560,.F.);
#273=ORIENTED_EDGE('',*,*,#507,.T.);
#274=ORIENTED_EDGE('',*,*,#591,.T.);
#275=ORIENTED_EDGE('',*,*,#564,.T.);
#276=ORIENTED_EDGE('',*,*,#592,.F.);
#277=ORIENTED_EDGE('',*,*,#510,.T.);
#278=ORIENTED_EDGE('',*,*,#593,.T.);
#279=ORIENTED_EDGE('',*,*,#565,.T.);
#280=ORIENTED_EDGE('',*,*,#591,.F.);
#281=ORIENTED_EDGE('',*,*,#509,.T.);
#282=ORIENTED_EDGE('',*,*,#594,.T.);
#283=ORIENTED_EDGE('',*,*,#566,.T.);
#284=ORIENTED_EDGE('',*,*,#593,.F.);
#285=ORIENTED_EDGE('',*,*,#508,.T.);
#286=ORIENTED_EDGE('',*,*,#592,.T.);
#287=ORIENTED_EDGE('',*,*,#563,.T.);
#288=ORIENTED_EDGE('',*,*,#594,.F.);
#289=ORIENTED_EDGE('',*,*,#503,.F.);
#290=ORIENTED_EDGE('',*,*,#559,.F.);
#291=ORIENTED_EDGE('',*,*,#499,.T.);
#292=ORIENTED_EDGE('',*,*,#595,.T.);
#293=ORIENTED_EDGE('',*,*,#568,.T.);
#294=ORIENTED_EDGE('',*,*,#596,.F.);
#295=ORIENTED_EDGE('',*,*,#502,.T.);
#296=ORIENTED_EDGE('',*,*,#597,.T.);
#297=ORIENTED_EDGE('',*,*,#569,.T.);
#298=ORIENTED_EDGE('',*,*,#595,.F.);
#299=ORIENTED_EDGE('',*,*,#501,.T.);
#300=ORIENTED_EDGE('',*,*,#598,.T.);
#301=ORIENTED_EDGE('',*,*,#570,.T.);
#302=ORIENTED_EDGE('',*,*,#597,.F.);
#303=ORIENTED_EDGE('',*,*,#500,.T.);
#304=ORIENTED_EDGE('',*,*,#596,.T.);
#305=ORIENTED_EDGE('',*,*,#567,.T.);
#306=ORIENTED_EDGE('',*,*,#598,.F.);
#307=ORIENTED_EDGE('',*,*,#511,.F.);
#308=ORIENTED_EDGE('',*,*,#558,.F.);
#309=ORIENTED_EDGE('',*,*,#512,.F.);
#310=ORIENTED_EDGE('',*,*,#557,.F.);
#311=ORIENTED_EDGE('',*,*,#513,.F.);
#312=ORIENTED_EDGE('',*,*,#556,.F.);
#313=ORIENTED_EDGE('',*,*,#514,.T.);
#314=ORIENTED_EDGE('',*,*,#599,.T.);
#315=ORIENTED_EDGE('',*,*,#572,.T.);
#316=ORIENTED_EDGE('',*,*,#600,.F.);
#317=ORIENTED_EDGE('',*,*,#517,.T.);
#318=ORIENTED_EDGE('',*,*,#601,.T.);
#319=ORIENTED_EDGE('',*,*,#573,.T.);
#320=ORIENTED_EDGE('',*,*,#599,.F.);
#321=ORIENTED_EDGE('',*,*,#516,.T.);
#322=ORIENTED_EDGE('',*,*,#602,.T.);
#323=ORIENTED_EDGE('',*,*,#574,.T.);
#324=ORIENTED_EDGE('',*,*,#601,.F.);
#325=ORIENTED_EDGE('',*,*,#515,.T.);
#326=ORIENTED_EDGE('',*,*,#600,.T.);
#327=ORIENTED_EDGE('',*,*,#571,.T.);
#328=ORIENTED_EDGE('',*,*,#602,.F.);
#329=ORIENTED_EDGE('',*,*,#498,.F.);
#330=ORIENTED_EDGE('',*,*,#555,.F.);
#331=ORIENTED_EDGE('',*,*,#490,.T.);
#332=ORIENTED_EDGE('',*,*,#468,.T.);
#333=ORIENTED_EDGE('',*,*,#533,.T.);
#334=ORIENTED_EDGE('',*,*,#603,.F.);
#335=ORIENTED_EDGE('',*,*,#492,.T.);
#336=ORIENTED_EDGE('',*,*,#604,.T.);
#337=ORIENTED_EDGE('',*,*,#531,.T.);
#338=ORIENTED_EDGE('',*,*,#451,.F.);
#339=ORIENTED_EDGE('',*,*,#491,.T.);
#340=ORIENTED_EDGE('',*,*,#603,.T.);
#341=ORIENTED_EDGE('',*,*,#532,.T.);
#342=ORIENTED_EDGE('',*,*,#604,.F.);
#343=ORIENTED_EDGE('',*,*,#487,.T.);
#344=ORIENTED_EDGE('',*,*,#464,.T.);
#345=ORIENTED_EDGE('',*,*,#536,.T.);
#346=ORIENTED_EDGE('',*,*,#605,.F.);
#347=ORIENTED_EDGE('',*,*,#489,.T.);
#348=ORIENTED_EDGE('',*,*,#606,.T.);
#349=ORIENTED_EDGE('',*,*,#534,.T.);
#350=ORIENTED_EDGE('',*,*,#466,.F.);
#351=ORIENTED_EDGE('',*,*,#488,.T.);
#352=ORIENTED_EDGE('',*,*,#605,.T.);
#353=ORIENTED_EDGE('',*,*,#535,.T.);
#354=ORIENTED_EDGE('',*,*,#606,.F.);
#355=ORIENTED_EDGE('',*,*,#484,.T.);
#356=ORIENTED_EDGE('',*,*,#457,.T.);
#357=ORIENTED_EDGE('',*,*,#539,.T.);
#358=ORIENTED_EDGE('',*,*,#607,.F.);
#359=ORIENTED_EDGE('',*,*,#486,.T.);
#360=ORIENTED_EDGE('',*,*,#608,.T.);
#361=ORIENTED_EDGE('',*,*,#537,.T.);
#362=ORIENTED_EDGE('',*,*,#462,.F.);
#363=ORIENTED_EDGE('',*,*,#485,.T.);
#364=ORIENTED_EDGE('',*,*,#607,.T.);
#365=ORIENTED_EDGE('',*,*,#538,.T.);
#366=ORIENTED_EDGE('',*,*,#608,.F.);
#367=ORIENTED_EDGE('',*,*,#518,.F.);
#368=ORIENTED_EDGE('',*,*,#554,.F.);
#369=ORIENTED_EDGE('',*,*,#519,.T.);
#370=ORIENTED_EDGE('',*,*,#609,.T.);
#371=ORIENTED_EDGE('',*,*,#576,.T.);
#372=ORIENTED_EDGE('',*,*,#610,.F.);
#373=ORIENTED_EDGE('',*,*,#522,.T.);
#374=ORIENTED_EDGE('',*,*,#611,.T.);
#375=ORIENTED_EDGE('',*,*,#577,.T.);
#376=ORIENTED_EDGE('',*,*,#609,.F.);
#377=ORIENTED_EDGE('',*,*,#521,.T.);
#378=ORIENTED_EDGE('',*,*,#612,.T.);
#379=ORIENTED_EDGE('',*,*,#578,.T.);
#380=ORIENTED_EDGE('',*,*,#611,.F.);
#381=ORIENTED_EDGE('',*,*,#520,.T.);
#382=ORIENTED_EDGE('',*,*,#610,.T.);
#383=ORIENTED_EDGE('',*,*,#575,.T.);
#384=ORIENTED_EDGE('',*,*,#612,.F.);
#385=ORIENTED_EDGE('',*,*,#497,.F.);
#386=ORIENTED_EDGE('',*,*,#553,.F.);
#387=ORIENTED_EDGE('',*,*,#493,.T.);
#388=ORIENTED_EDGE('',*,*,#613,.T.);
#389=ORIENTED_EDGE('',*,*,#580,.T.);
#390=ORIENTED_EDGE('',*,*,#614,.F.);
#391=ORIENTED_EDGE('',*,*,#496,.T.);
#392=ORIENTED_EDGE('',*,*,#615,.T.);
#393=ORIENTED_EDGE('',*,*,#581,.T.);
#394=ORIENTED_EDGE('',*,*,#613,.F.);
#395=ORIENTED_EDGE('',*,*,#495,.T.);
#396=ORIENTED_EDGE('',*,*,#616,.T.);
#397=ORIENTED_EDGE('',*,*,#582,.T.);
#398=ORIENTED_EDGE('',*,*,#615,.F.);
#399=ORIENTED_EDGE('',*,*,#494,.T.);
#400=ORIENTED_EDGE('',*,*,#614,.T.);
#401=ORIENTED_EDGE('',*,*,#579,.T.);
#402=ORIENTED_EDGE('',*,*,#616,.F.);
#403=ORIENTED_EDGE('',*,*,#523,.F.);
#404=ORIENTED_EDGE('',*,*,#552,.F.);
#405=ORIENTED_EDGE('',*,*,#476,.T.);
#406=ORIENTED_EDGE('',*,*,#456,.T.);
#407=ORIENTED_EDGE('',*,*,#547,.T.);
#408=ORIENTED_EDGE('',*,*,#617,.F.);
#409=ORIENTED_EDGE('',*,*,#478,.T.);
#410=ORIENTED_EDGE('',*,*,#618,.T.);
#411=ORIENTED_EDGE('',*,*,#545,.T.);
#412=ORIENTED_EDGE('',*,*,#470,.F.);
#413=ORIENTED_EDGE('',*,*,#477,.T.);
#414=ORIENTED_EDGE('',*,*,#617,.T.);
#415=ORIENTED_EDGE('',*,*,#546,.T.);
#416=ORIENTED_EDGE('',*,*,#618,.F.);
#417=ORIENTED_EDGE('',*,*,#473,.T.);
#418=ORIENTED_EDGE('',*,*,#449,.T.);
#419=ORIENTED_EDGE('',*,*,#530,.T.);
#420=ORIENTED_EDGE('',*,*,#619,.F.);
#421=ORIENTED_EDGE('',*,*,#475,.T.);
#422=ORIENTED_EDGE('',*,*,#620,.T.);
#423=ORIENTED_EDGE('',*,*,#548,.T.);
#424=ORIENTED_EDGE('',*,*,#454,.F.);
#425=ORIENTED_EDGE('',*,*,#474,.T.);
#426=ORIENTED_EDGE('',*,*,#619,.T.);
#427=ORIENTED_EDGE('',*,*,#549,.T.);
#428=ORIENTED_EDGE('',*,*,#620,.F.);
#429=ORIENTED_EDGE('',*,*,#524,.F.);
#430=ORIENTED_EDGE('',*,*,#551,.F.);
#431=ORIENTED_EDGE('',*,*,#525,.F.);
#432=ORIENTED_EDGE('',*,*,#550,.F.);
#433=ORIENTED_EDGE('',*,*,#526,.T.);
#434=ORIENTED_EDGE('',*,*,#621,.T.);
#435=ORIENTED_EDGE('',*,*,#584,.T.);
#436=ORIENTED_EDGE('',*,*,#622,.F.);
#437=ORIENTED_EDGE('',*,*,#529,.T.);
#438=ORIENTED_EDGE('',*,*,#623,.T.);
#439=ORIENTED_EDGE('',*,*,#585,.T.);
#440=ORIENTED_EDGE('',*,*,#621,.F.);
#441=ORIENTED_EDGE('',*,*,#528,.T.);
#442=ORIENTED_EDGE('',*,*,#624,.T.);
#443=ORIENTED_EDGE('',*,*,#586,.T.);
#444=ORIENTED_EDGE('',*,*,#623,.F.);
#445=ORIENTED_EDGE('',*,*,#527,.T.);
#446=ORIENTED_EDGE('',*,*,#622,.T.);
#447=ORIENTED_EDGE('',*,*,#583,.T.);
#448=ORIENTED_EDGE('',*,*,#624,.F.);
#449=EDGE_CURVE('',#625,#626,#751,.T.);
#450=EDGE_CURVE('',#627,#625,#57,.T.);
#451=EDGE_CURVE('',#627,#628,#752,.T.);
#452=EDGE_CURVE('',#628,#626,#58,.T.);
#453=EDGE_CURVE('',#629,#630,#59,.T.);
#454=EDGE_CURVE('',#629,#631,#753,.T.);
#455=EDGE_CURVE('',#631,#632,#60,.T.);
#456=EDGE_CURVE('',#630,#632,#754,.T.);
#457=EDGE_CURVE('',#633,#634,#755,.T.);
#458=EDGE_CURVE('',#635,#633,#61,.T.);
#459=EDGE_CURVE('',#635,#636,#756,.T.);
#460=EDGE_CURVE('',#636,#634,#62,.T.);
#461=EDGE_CURVE('',#637,#638,#63,.T.);
#462=EDGE_CURVE('',#637,#639,#757,.T.);
#463=EDGE_CURVE('',#639,#640,#64,.T.);
#464=EDGE_CURVE('',#638,#640,#758,.T.);
#465=EDGE_CURVE('',#641,#642,#65,.T.);
#466=EDGE_CURVE('',#641,#643,#759,.T.);
#467=EDGE_CURVE('',#643,#644,#66,.T.);
#468=EDGE_CURVE('',#642,#644,#760,.T.);
#469=EDGE_CURVE('',#645,#646,#67,.T.);
#470=EDGE_CURVE('',#645,#647,#761,.T.);
#471=EDGE_CURVE('',#647,#648,#68,.T.);
#472=EDGE_CURVE('',#646,#648,#762,.T.);
#473=EDGE_CURVE('',#649,#625,#763,.T.);
#474=EDGE_CURVE('',#650,#649,#764,.T.);
#475=EDGE_CURVE('',#629,#650,#765,.T.);
#476=EDGE_CURVE('',#651,#630,#766,.T.);
#477=EDGE_CURVE('',#652,#651,#767,.T.);
#478=EDGE_CURVE('',#645,#652,#768,.T.);
#479=EDGE_CURVE('',#653,#646,#769,.T.);
#480=EDGE_CURVE('',#654,#653,#770,.T.);
#481=EDGE_CURVE('',#655,#654,#771,.T.);
#482=EDGE_CURVE('',#655,#656,#69,.T.);
#483=EDGE_CURVE('',#635,#656,#772,.T.);
#484=EDGE_CURVE('',#657,#633,#773,.T.);
#485=EDGE_CURVE('',#658,#657,#774,.T.);
#486=EDGE_CURVE('',#637,#658,#775,.T.);
#487=EDGE_CURVE('',#659,#638,#776,.T.);
#488=EDGE_CURVE('',#660,#659,#777,.T.);
#489=EDGE_CURVE('',#641,#660,#778,.T.);
#490=EDGE_CURVE('',#661,#642,#779,.T.);
#491=EDGE_CURVE('',#662,#661,#780,.T.);
#492=EDGE_CURVE('',#627,#662,#781,.T.);
#493=EDGE_CURVE('',#663,#664,#782,.T.);
#494=EDGE_CURVE('',#665,#663,#783,.T.);
#495=EDGE_CURVE('',#666,#665,#784,.T.);
#496=EDGE_CURVE('',#664,#666,#785,.T.);
#497=EDGE_CURVE('',#667,#667,#70,.F.);
#498=EDGE_CURVE('',#668,#668,#71,.F.);
#499=EDGE_CURVE('',#669,#670,#786,.T.);
#500=EDGE_CURVE('',#671,#669,#787,.T.);
#501=EDGE_CURVE('',#672,#671,#788,.T.);
#502=EDGE_CURVE('',#670,#672,#789,.T.);
#503=EDGE_CURVE('',#673,#673,#72,.F.);
#504=EDGE_CURVE('',#674,#674,#73,.F.);
#505=EDGE_CURVE('',#675,#675,#74,.T.);
#506=EDGE_CURVE('',#676,#676,#75,.F.);
#507=EDGE_CURVE('',#677,#678,#790,.T.);
#508=EDGE_CURVE('',#679,#677,#791,.T.);
#509=EDGE_CURVE('',#680,#679,#792,.T.);
#510=EDGE_CURVE('',#678,#680,#793,.T.);
#511=EDGE_CURVE('',#681,#681,#76,.F.);
#512=EDGE_CURVE('',#682,#682,#77,.F.);
#513=EDGE_CURVE('',#683,#683,#78,.F.);
#514=EDGE_CURVE('',#684,#685,#794,.T.);
#515=EDGE_CURVE('',#686,#684,#795,.T.);
#516=EDGE_CURVE('',#687,#686,#796,.T.);
#517=EDGE_CURVE('',#685,#687,#797,.T.);
#518=EDGE_CURVE('',#688,#688,#79,.F.);
#519=EDGE_CURVE('',#689,#690,#798,.T.);
#520=EDGE_CURVE('',#691,#689,#799,.T.);
#521=EDGE_CURVE('',#692,#691,#800,.T.);
#522=EDGE_CURVE('',#690,#692,#801,.T.);
#523=EDGE_CURVE('',#693,#693,#80,.F.);
#524=EDGE_CURVE('',#694,#694,#81,.F.);
#525=EDGE_CURVE('',#695,#695,#82,.F.);
#526=EDGE_CURVE('',#696,#697,#802,.T.);
#527=EDGE_CURVE('',#698,#696,#803,.T.);
#528=EDGE_CURVE('',#699,#698,#804,.T.);
#529=EDGE_CURVE('',#697,#699,#805,.T.);
#530=EDGE_CURVE('',#626,#700,#806,.T.);
#531=EDGE_CURVE('',#701,#628,#807,.T.);
#532=EDGE_CURVE('',#702,#701,#808,.T.);
#533=EDGE_CURVE('',#644,#702,#809,.T.);
#534=EDGE_CURVE('',#703,#643,#810,.T.);
#535=EDGE_CURVE('',#704,#703,#811,.T.);
#536=EDGE_CURVE('',#640,#704,#812,.T.);
#537=EDGE_CURVE('',#705,#639,#813,.T.);
#538=EDGE_CURVE('',#706,#705,#814,.T.);
#539=EDGE_CURVE('',#634,#706,#815,.T.);
#540=EDGE_CURVE('',#636,#707,#816,.T.);
#541=EDGE_CURVE('',#708,#707,#83,.T.);
#542=EDGE_CURVE('',#709,#708,#817,.T.);
#543=EDGE_CURVE('',#710,#709,#818,.T.);
#544=EDGE_CURVE('',#648,#710,#819,.T.);
#545=EDGE_CURVE('',#711,#647,#820,.T.);
#546=EDGE_CURVE('',#712,#711,#821,.T.);
#547=EDGE_CURVE('',#632,#712,#822,.T.);
#548=EDGE_CURVE('',#713,#631,#823,.T.);
#549=EDGE_CURVE('',#700,#713,#824,.T.);
#550=EDGE_CURVE('',#714,#714,#84,.T.);
#551=EDGE_CURVE('',#715,#715,#85,.T.);
#552=EDGE_CURVE('',#716,#716,#86,.T.);
#553=EDGE_CURVE('',#717,#717,#87,.T.);
#554=EDGE_CURVE('',#718,#718,#88,.T.);
#555=EDGE_CURVE('',#719,#719,#89,.T.);
#556=EDGE_CURVE('',#720,#720,#90,.T.);
#557=EDGE_CURVE('',#721,#721,#91,.T.);
#558=EDGE_CURVE('',#722,#722,#92,.T.);
#559=EDGE_CURVE('',#723,#723,#93,.T.);
#560=EDGE_CURVE('',#724,#724,#94,.T.);
#561=EDGE_CURVE('',#725,#725,#95,.T.);
#562=EDGE_CURVE('',#726,#726,#96,.T.);
#563=EDGE_CURVE('',#727,#728,#825,.T.);
#564=EDGE_CURVE('',#729,#727,#826,.T.);
#565=EDGE_CURVE('',#730,#729,#827,.T.);
#566=EDGE_CURVE('',#728,#730,#828,.T.);
#567=EDGE_CURVE('',#731,#732,#829,.T.);
#568=EDGE_CURVE('',#733,#731,#830,.T.);
#569=EDGE_CURVE('',#734,#733,#831,.T.);
#570=EDGE_CURVE('',#732,#734,#832,.T.);
#571=EDGE_CURVE('',#735,#736,#833,.T.);
#572=EDGE_CURVE('',#737,#735,#834,.T.);
#573=EDGE_CURVE('',#738,#737,#835,.T.);
#574=EDGE_CURVE('',#736,#738,#836,.T.);
#575=EDGE_CURVE('',#739,#740,#837,.T.);
#576=EDGE_CURVE('',#741,#739,#838,.T.);
#577=EDGE_CURVE('',#742,#741,#839,.T.);
#578=EDGE_CURVE('',#740,#742,#840,.T.);
#579=EDGE_CURVE('',#743,#744,#841,.T.);
#580=EDGE_CURVE('',#745,#743,#842,.T.);
#581=EDGE_CURVE('',#746,#745,#843,.T.);
#582=EDGE_CURVE('',#744,#746,#844,.T.);
#583=EDGE_CURVE('',#747,#748,#845,.T.);
#584=EDGE_CURVE('',#749,#747,#846,.T.);
#585=EDGE_CURVE('',#750,#749,#847,.T.);
#586=EDGE_CURVE('',#748,#750,#848,.T.);
#587=EDGE_CURVE('',#656,#707,#849,.T.);
#588=EDGE_CURVE('',#655,#708,#850,.T.);
#589=EDGE_CURVE('',#653,#710,#851,.T.);
#590=EDGE_CURVE('',#654,#709,#852,.T.);
#591=EDGE_CURVE('',#678,#729,#853,.T.);
#592=EDGE_CURVE('',#677,#727,#854,.T.);
#593=EDGE_CURVE('',#680,#730,#855,.T.);
#594=EDGE_CURVE('',#679,#728,#856,.T.);
#595=EDGE_CURVE('',#670,#733,#857,.T.);
#596=EDGE_CURVE('',#669,#731,#858,.T.);
#597=EDGE_CURVE('',#672,#734,#859,.T.);
#598=EDGE_CURVE('',#671,#732,#860,.T.);
#599=EDGE_CURVE('',#685,#737,#861,.T.);
#600=EDGE_CURVE('',#684,#735,#862,.T.);
#601=EDGE_CURVE('',#687,#738,#863,.T.);
#602=EDGE_CURVE('',#686,#736,#864,.T.);
#603=EDGE_CURVE('',#661,#702,#865,.T.);
#604=EDGE_CURVE('',#662,#701,#866,.T.);
#605=EDGE_CURVE('',#659,#704,#867,.T.);
#606=EDGE_CURVE('',#660,#703,#868,.T.);
#607=EDGE_CURVE('',#657,#706,#869,.T.);
#608=EDGE_CURVE('',#658,#705,#870,.T.);
#609=EDGE_CURVE('',#690,#741,#871,.T.);
#610=EDGE_CURVE('',#689,#739,#872,.T.);
#611=EDGE_CURVE('',#692,#742,#873,.T.);
#612=EDGE_CURVE('',#691,#740,#874,.T.);
#613=EDGE_CURVE('',#664,#745,#875,.T.);
#614=EDGE_CURVE('',#663,#743,#876,.T.);
#615=EDGE_CURVE('',#666,#746,#877,.T.);
#616=EDGE_CURVE('',#665,#744,#878,.T.);
#617=EDGE_CURVE('',#651,#712,#879,.T.);
#618=EDGE_CURVE('',#652,#711,#880,.T.);
#619=EDGE_CURVE('',#649,#700,#881,.T.);
#620=EDGE_CURVE('',#650,#713,#882,.T.);
#621=EDGE_CURVE('',#697,#749,#883,.T.);
#622=EDGE_CURVE('',#696,#747,#884,.T.);
#623=EDGE_CURVE('',#699,#750,#885,.T.);
#624=EDGE_CURVE('',#698,#748,#886,.T.);
#625=VERTEX_POINT('',#1809);
#626=VERTEX_POINT('',#1810);
#627=VERTEX_POINT('',#1812);
#628=VERTEX_POINT('',#1814);
#629=VERTEX_POINT('',#1818);
#630=VERTEX_POINT('',#1819);
#631=VERTEX_POINT('',#1821);
#632=VERTEX_POINT('',#1823);
#633=VERTEX_POINT('',#1827);
#634=VERTEX_POINT('',#1828);
#635=VERTEX_POINT('',#1830);
#636=VERTEX_POINT('',#1832);
#637=VERTEX_POINT('',#1836);
#638=VERTEX_POINT('',#1837);
#639=VERTEX_POINT('',#1839);
#640=VERTEX_POINT('',#1841);
#641=VERTEX_POINT('',#1845);
#642=VERTEX_POINT('',#1846);
#643=VERTEX_POINT('',#1848);
#644=VERTEX_POINT('',#1850);
#645=VERTEX_POINT('',#1854);
#646=VERTEX_POINT('',#1855);
#647=VERTEX_POINT('',#1857);
#648=VERTEX_POINT('',#1859);
#649=VERTEX_POINT('',#1863);
#650=VERTEX_POINT('',#1865);
#651=VERTEX_POINT('',#1868);
#652=VERTEX_POINT('',#1870);
#653=VERTEX_POINT('',#1873);
#654=VERTEX_POINT('',#1875);
#655=VERTEX_POINT('',#1877);
#656=VERTEX_POINT('',#1879);
#657=VERTEX_POINT('',#1882);
#658=VERTEX_POINT('',#1884);
#659=VERTEX_POINT('',#1887);
#660=VERTEX_POINT('',#1889);
#661=VERTEX_POINT('',#1892);
#662=VERTEX_POINT('',#1894);
#663=VERTEX_POINT('',#1897);
#664=VERTEX_POINT('',#1898);
#665=VERTEX_POINT('',#1900);
#666=VERTEX_POINT('',#1902);
#667=VERTEX_POINT('',#1905);
#668=VERTEX_POINT('',#1907);
#669=VERTEX_POINT('',#1909);
#670=VERTEX_POINT('',#1910);
#671=VERTEX_POINT('',#1912);
#672=VERTEX_POINT('',#1914);
#673=VERTEX_POINT('',#1917);
#674=VERTEX_POINT('',#1919);
#675=VERTEX_POINT('',#1921);
#676=VERTEX_POINT('',#1923);
#677=VERTEX_POINT('',#1925);
#678=VERTEX_POINT('',#1926);
#679=VERTEX_POINT('',#1928);
#680=VERTEX_POINT('',#1930);
#681=VERTEX_POINT('',#1933);
#682=VERTEX_POINT('',#1935);
#683=VERTEX_POINT('',#1937);
#684=VERTEX_POINT('',#1939);
#685=VERTEX_POINT('',#1940);
#686=VERTEX_POINT('',#1942);
#687=VERTEX_POINT('',#1944);
#688=VERTEX_POINT('',#1947);
#689=VERTEX_POINT('',#1949);
#690=VERTEX_POINT('',#1950);
#691=VERTEX_POINT('',#1952);
#692=VERTEX_POINT('',#1954);
#693=VERTEX_POINT('',#1957);
#694=VERTEX_POINT('',#1959);
#695=VERTEX_POINT('',#1961);
#696=VERTEX_POINT('',#1963);
#697=VERTEX_POINT('',#1964);
#698=VERTEX_POINT('',#1966);
#699=VERTEX_POINT('',#1968);
#700=VERTEX_POINT('',#1972);
#701=VERTEX_POINT('',#1974);
#702=VERTEX_POINT('',#1976);
#703=VERTEX_POINT('',#1979);
#704=VERTEX_POINT('',#1981);
#705=VERTEX_POINT('',#1984);
#706=VERTEX_POINT('',#1986);
#707=VERTEX_POINT('',#1989);
#708=VERTEX_POINT('',#1991);
#709=VERTEX_POINT('',#1993);
#710=VERTEX_POINT('',#1995);
#711=VERTEX_POINT('',#1998);
#712=VERTEX_POINT('',#2000);
#713=VERTEX_POINT('',#2003);
#714=VERTEX_POINT('',#2006);
#715=VERTEX_POINT('',#2008);
#716=VERTEX_POINT('',#2010);
#717=VERTEX_POINT('',#2012);
#718=VERTEX_POINT('',#2014);
#719=VERTEX_POINT('',#2016);
#720=VERTEX_POINT('',#2018);
#721=VERTEX_POINT('',#2020);
#722=VERTEX_POINT('',#2022);
#723=VERTEX_POINT('',#2024);
#724=VERTEX_POINT('',#2026);
#725=VERTEX_POINT('',#2028);
#726=VERTEX_POINT('',#2030);
#727=VERTEX_POINT('',#2032);
#728=VERTEX_POINT('',#2033);
#729=VERTEX_POINT('',#2035);
#730=VERTEX_POINT('',#2037);
#731=VERTEX_POINT('',#2040);
#732=VERTEX_POINT('',#2041);
#733=VERTEX_POINT('',#2043);
#734=VERTEX_POINT('',#2045);
#735=VERTEX_POINT('',#2048);
#736=VERTEX_POINT('',#2049);
#737=VERTEX_POINT('',#2051);
#738=VERTEX_POINT('',#2053);
#739=VERTEX_POINT('',#2056);
#740=VERTEX_POINT('',#2057);
#741=VERTEX_POINT('',#2059);
#742=VERTEX_POINT('',#2061);
#743=VERTEX_POINT('',#2064);
#744=VERTEX_POINT('',#2065);
#745=VERTEX_POINT('',#2067);
#746=VERTEX_POINT('',#2069);
#747=VERTEX_POINT('',#2072);
#748=VERTEX_POINT('',#2073);
#749=VERTEX_POINT('',#2075);
#750=VERTEX_POINT('',#2077);
#751=LINE('',#1808,#887);
#752=LINE('',#1813,#888);
#753=LINE('',#1820,#889);
#754=LINE('',#1824,#890);
#755=LINE('',#1826,#891);
#756=LINE('',#1831,#892);
#757=LINE('',#1838,#893);
#758=LINE('',#1842,#894);
#759=LINE('',#1847,#895);
#760=LINE('',#1851,#896);
#761=LINE('',#1856,#897);
#762=LINE('',#1860,#898);
#763=LINE('',#1862,#899);
#764=LINE('',#1864,#900);
#765=LINE('',#1866,#901);
#766=LINE('',#1867,#902);
#767=LINE('',#1869,#903);
#768=LINE('',#1871,#904);
#769=LINE('',#1872,#905);
#770=LINE('',#1874,#906);
#771=LINE('',#1876,#907);
#772=LINE('',#1880,#908);
#773=LINE('',#1881,#909);
#774=LINE('',#1883,#910);
#775=LINE('',#1885,#911);
#776=LINE('',#1886,#912);
#777=LINE('',#1888,#913);
#778=LINE('',#1890,#914);
#779=LINE('',#1891,#915);
#780=LINE('',#1893,#916);
#781=LINE('',#1895,#917);
#782=LINE('',#1896,#918);
#783=LINE('',#1899,#919);
#784=LINE('',#1901,#920);
#785=LINE('',#1903,#921);
#786=LINE('',#1908,#922);
#787=LINE('',#1911,#923);
#788=LINE('',#1913,#924);
#789=LINE('',#1915,#925);
#790=LINE('',#1924,#926);
#791=LINE('',#1927,#927);
#792=LINE('',#1929,#928);
#793=LINE('',#1931,#929);
#794=LINE('',#1938,#930);
#795=LINE('',#1941,#931);
#796=LINE('',#1943,#932);
#797=LINE('',#1945,#933);
#798=LINE('',#1948,#934);
#799=LINE('',#1951,#935);
#800=LINE('',#1953,#936);
#801=LINE('',#1955,#937);
#802=LINE('',#1962,#938);
#803=LINE('',#1965,#939);
#804=LINE('',#1967,#940);
#805=LINE('',#1969,#941);
#806=LINE('',#1971,#942);
#807=LINE('',#1973,#943);
#808=LINE('',#1975,#944);
#809=LINE('',#1977,#945);
#810=LINE('',#1978,#946);
#811=LINE('',#1980,#947);
#812=LINE('',#1982,#948);
#813=LINE('',#1983,#949);
#814=LINE('',#1985,#950);
#815=LINE('',#1987,#951);
#816=LINE('',#1988,#952);
#817=LINE('',#1992,#953);
#818=LINE('',#1994,#954);
#819=LINE('',#1996,#955);
#820=LINE('',#1997,#956);
#821=LINE('',#1999,#957);
#822=LINE('',#2001,#958);
#823=LINE('',#2002,#959);
#824=LINE('',#2004,#960);
#825=LINE('',#2031,#961);
#826=LINE('',#2034,#962);
#827=LINE('',#2036,#963);
#828=LINE('',#2038,#964);
#829=LINE('',#2039,#965);
#830=LINE('',#2042,#966);
#831=LINE('',#2044,#967);
#832=LINE('',#2046,#968);
#833=LINE('',#2047,#969);
#834=LINE('',#2050,#970);
#835=LINE('',#2052,#971);
#836=LINE('',#2054,#972);
#837=LINE('',#2055,#973);
#838=LINE('',#2058,#974);
#839=LINE('',#2060,#975);
#840=LINE('',#2062,#976);
#841=LINE('',#2063,#977);
#842=LINE('',#2066,#978);
#843=LINE('',#2068,#979);
#844=LINE('',#2070,#980);
#845=LINE('',#2071,#981);
#846=LINE('',#2074,#982);
#847=LINE('',#2076,#983);
#848=LINE('',#2078,#984);
#849=LINE('',#2080,#985);
#850=LINE('',#2082,#986);
#851=LINE('',#2086,#987);
#852=LINE('',#2088,#988);
#853=LINE('',#2092,#989);
#854=LINE('',#2093,#990);
#855=LINE('',#2095,#991);
#856=LINE('',#2097,#992);
#857=LINE('',#2101,#993);
#858=LINE('',#2102,#994);
#859=LINE('',#2104,#995);
#860=LINE('',#2106,#996);
#861=LINE('',#2112,#997);
#862=LINE('',#2113,#998);
#863=LINE('',#2115,#999);
#864=LINE('',#2117,#1000);
#865=LINE('',#2121,#1001);
#866=LINE('',#2123,#1002);
#867=LINE('',#2126,#1003);
#868=LINE('',#2128,#1004);
#869=LINE('',#2131,#1005);
#870=LINE('',#2133,#1006);
#871=LINE('',#2137,#1007);
#872=LINE('',#2138,#1008);
#873=LINE('',#2140,#1009);
#874=LINE('',#2142,#1010);
#875=LINE('',#2146,#1011);
#876=LINE('',#2147,#1012);
#877=LINE('',#2149,#1013);
#878=LINE('',#2151,#1014);
#879=LINE('',#2155,#1015);
#880=LINE('',#2157,#1016);
#881=LINE('',#2160,#1017);
#882=LINE('',#2162,#1018);
#883=LINE('',#2167,#1019);
#884=LINE('',#2168,#1020);
#885=LINE('',#2170,#1021);
#886=LINE('',#2172,#1022);
#887=VECTOR('',#1462,1.);
#888=VECTOR('',#1465,1.);
#889=VECTOR('',#1472,1.);
#890=VECTOR('',#1475,1.);
#891=VECTOR('',#1478,1.);
#892=VECTOR('',#1481,1.);
#893=VECTOR('',#1488,1.);
#894=VECTOR('',#1491,1.);
#895=VECTOR('',#1496,1.);
#896=VECTOR('',#1499,1.);
#897=VECTOR('',#1504,1.);
#898=VECTOR('',#1507,1.);
#899=VECTOR('',#1510,1.);
#900=VECTOR('',#1511,1.);
#901=VECTOR('',#1512,1.);
#902=VECTOR('',#1513,1.);
#903=VECTOR('',#1514,1.);
#904=VECTOR('',#1515,1.);
#905=VECTOR('',#1516,1.);
#906=VECTOR('',#1517,1.);
#907=VECTOR('',#1518,1.);
#908=VECTOR('',#1521,1.);
#909=VECTOR('',#1522,1.);
#910=VECTOR('',#1523,1.);
#911=VECTOR('',#1524,1.);
#912=VECTOR('',#1525,1.);
#913=VECTOR('',#1526,1.);
#914=VECTOR('',#1527,1.);
#915=VECTOR('',#1528,1.);
#916=VECTOR('',#1529,1.);
#917=VECTOR('',#1530,1.);
#918=VECTOR('',#1531,1.);
#919=VECTOR('',#1532,1.);
#920=VECTOR('',#1533,1.);
#921=VECTOR('',#1534,1.);
#922=VECTOR('',#1539,1.);
#923=VECTOR('',#1540,1.);
#924=VECTOR('',#1541,1.);
#925=VECTOR('',#1542,1.);
#926=VECTOR('',#1551,1.);
#927=VECTOR('',#1552,1.);
#928=VECTOR('',#1553,1.);
#929=VECTOR('',#1554,1.);
#930=VECTOR('',#1561,1.);
#931=VECTOR('',#1562,1.);
#932=VECTOR('',#1563,1.);
#933=VECTOR('',#1564,1.);
#934=VECTOR('',#1567,1.);
#935=VECTOR('',#1568,1.);
#936=VECTOR('',#1569,1.);
#937=VECTOR('',#1570,1.);
#938=VECTOR('',#1577,1.);
#939=VECTOR('',#1578,1.);
#940=VECTOR('',#1579,1.);
#941=VECTOR('',#1580,1.);
#942=VECTOR('',#1583,1.);
#943=VECTOR('',#1584,1.);
#944=VECTOR('',#1585,1.);
#945=VECTOR('',#1586,1.);
#946=VECTOR('',#1587,1.);
#947=VECTOR('',#1588,1.);
#948=VECTOR('',#1589,1.);
#949=VECTOR('',#1590,1.);
#950=VECTOR('',#1591,1.);
#951=VECTOR('',#1592,1.);
#952=VECTOR('',#1593,1.);
#953=VECTOR('',#1596,1.);
#954=VECTOR('',#1597,1.);
#955=VECTOR('',#1598,1.);
#956=VECTOR('',#1599,1.);
#957=VECTOR('',#1600,1.);
#958=VECTOR('',#1601,1.);
#959=VECTOR('',#1602,1.);
#960=VECTOR('',#1603,1.);
#961=VECTOR('',#1630,1.);
#962=VECTOR('',#1631,1.);
#963=VECTOR('',#1632,1.);
#964=VECTOR('',#1633,1.);
#965=VECTOR('',#1634,1.);
#966=VECTOR('',#1635,1.);
#967=VECTOR('',#1636,1.);
#968=VECTOR('',#1637,1.);
#969=VECTOR('',#1638,1.);
#970=VECTOR('',#1639,1.);
#971=VECTOR('',#1640,1.);
#972=VECTOR('',#1641,1.);
#973=VECTOR('',#1642,1.);
#974=VECTOR('',#1643,1.);
#975=VECTOR('',#1644,1.);
#976=VECTOR('',#1645,1.);
#977=VECTOR('',#1646,1.);
#978=VECTOR('',#1647,1.);
#979=VECTOR('',#1648,1.);
#980=VECTOR('',#1649,1.);
#981=VECTOR('',#1650,1.);
#982=VECTOR('',#1651,1.);
#983=VECTOR('',#1652,1.);
#984=VECTOR('',#1653,1.);
#985=VECTOR('',#1656,1.);
#986=VECTOR('',#1659,1.);
#987=VECTOR('',#1666,1.);
#988=VECTOR('',#1669,1.);
#989=VECTOR('',#1676,1.);
#990=VECTOR('',#1677,1.);
#991=VECTOR('',#1680,1.);
#992=VECTOR('',#1683,1.);
#993=VECTOR('',#1690,1.);
#994=VECTOR('',#1691,1.);
#995=VECTOR('',#1694,1.);
#996=VECTOR('',#1697,1.);
#997=VECTOR('',#1708,1.);
#998=VECTOR('',#1709,1.);
#999=VECTOR('',#1712,1.);
#1000=VECTOR('',#1715,1.);
#1001=VECTOR('',#1722,1.);
#1002=VECTOR('',#1725,1.);
#1003=VECTOR('',#1730,1.);
#1004=VECTOR('',#1733,1.);
#1005=VECTOR('',#1738,1.);
#1006=VECTOR('',#1741,1.);
#1007=VECTOR('',#1748,1.);
#1008=VECTOR('',#1749,1.);
#1009=VECTOR('',#1752,1.);
#1010=VECTOR('',#1755,1.);
#1011=VECTOR('',#1762,1.);
#1012=VECTOR('',#1763,1.);
#1013=VECTOR('',#1766,1.);
#1014=VECTOR('',#1769,1.);
#1015=VECTOR('',#1776,1.);
#1016=VECTOR('',#1779,1.);
#1017=VECTOR('',#1784,1.);
#1018=VECTOR('',#1787,1.);
#1019=VECTOR('',#1796,1.);
#1020=VECTOR('',#1797,1.);
#1021=VECTOR('',#1800,1.);
#1022=VECTOR('',#1803,1.);
#1023=EDGE_LOOP('',(#97,#98,#99,#100));
#1024=EDGE_LOOP('',(#101,#102,#103,#104));
#1025=EDGE_LOOP('',(#105,#106,#107,#108));
#1026=EDGE_LOOP('',(#109,#110,#111,#112));
#1027=EDGE_LOOP('',(#113,#114,#115,#116));
#1028=EDGE_LOOP('',(#117,#118,#119,#120));
#1029=EDGE_LOOP('',(#121,#122,#123,#124,#125,#126,#127,#128,#129,#130,#131,
#132,#133,#134,#135,#136,#137,#138,#139,#140,#141,#142,#143,#144,#145,#146));
#1030=EDGE_LOOP('',(#147,#148,#149,#150));
#1031=EDGE_LOOP('',(#151));
#1032=EDGE_LOOP('',(#152));
#1033=EDGE_LOOP('',(#153,#154,#155,#156));
#1034=EDGE_LOOP('',(#157));
#1035=EDGE_LOOP('',(#158));
#1036=EDGE_LOOP('',(#159));
#1037=EDGE_LOOP('',(#160));
#1038=EDGE_LOOP('',(#161,#162,#163,#164));
#1039=EDGE_LOOP('',(#165));
#1040=EDGE_LOOP('',(#166));
#1041=EDGE_LOOP('',(#167));
#1042=EDGE_LOOP('',(#168,#169,#170,#171));
#1043=EDGE_LOOP('',(#172));
#1044=EDGE_LOOP('',(#173,#174,#175,#176));
#1045=EDGE_LOOP('',(#177));
#1046=EDGE_LOOP('',(#178));
#1047=EDGE_LOOP('',(#179));
#1048=EDGE_LOOP('',(#180,#181,#182,#183));
#1049=EDGE_LOOP('',(#184,#185,#186,#187,#188,#189,#190,#191,#192,#193,#194,
#195,#196,#197,#198,#199,#200,#201,#202,#203,#204,#205,#206,#207,#208,#209));
#1050=EDGE_LOOP('',(#210));
#1051=EDGE_LOOP('',(#211));
#1052=EDGE_LOOP('',(#212));
#1053=EDGE_LOOP('',(#213));
#1054=EDGE_LOOP('',(#214));
#1055=EDGE_LOOP('',(#215));
#1056=EDGE_LOOP('',(#216));
#1057=EDGE_LOOP('',(#217));
#1058=EDGE_LOOP('',(#218));
#1059=EDGE_LOOP('',(#219));
#1060=EDGE_LOOP('',(#220));
#1061=EDGE_LOOP('',(#221));
#1062=EDGE_LOOP('',(#222));
#1063=EDGE_LOOP('',(#223,#224,#225,#226));
#1064=EDGE_LOOP('',(#227,#228,#229,#230));
#1065=EDGE_LOOP('',(#231,#232,#233,#234));
#1066=EDGE_LOOP('',(#235,#236,#237,#238));
#1067=EDGE_LOOP('',(#239,#240,#241,#242));
#1068=EDGE_LOOP('',(#243,#244,#245,#246));
#1069=EDGE_LOOP('',(#247,#248,#249,#250));
#1070=EDGE_LOOP('',(#251,#252,#253,#254));
#1071=EDGE_LOOP('',(#255));
#1072=EDGE_LOOP('',(#256));
#1073=EDGE_LOOP('',(#257));
#1074=EDGE_LOOP('',(#258));
#1075=EDGE_LOOP('',(#259,#260,#261,#262));
#1076=EDGE_LOOP('',(#263,#264,#265,#266));
#1077=EDGE_LOOP('',(#267,#268,#269,#270));
#1078=EDGE_LOOP('',(#271));
#1079=EDGE_LOOP('',(#272));
#1080=EDGE_LOOP('',(#273,#274,#275,#276));
#1081=EDGE_LOOP('',(#277,#278,#279,#280));
#1082=EDGE_LOOP('',(#281,#282,#283,#284));
#1083=EDGE_LOOP('',(#285,#286,#287,#288));
#1084=EDGE_LOOP('',(#289));
#1085=EDGE_LOOP('',(#290));
#1086=EDGE_LOOP('',(#291,#292,#293,#294));
#1087=EDGE_LOOP('',(#295,#296,#297,#298));
#1088=EDGE_LOOP('',(#299,#300,#301,#302));
#1089=EDGE_LOOP('',(#303,#304,#305,#306));
#1090=EDGE_LOOP('',(#307));
#1091=EDGE_LOOP('',(#308));
#1092=EDGE_LOOP('',(#309));
#1093=EDGE_LOOP('',(#310));
#1094=EDGE_LOOP('',(#311));
#1095=EDGE_LOOP('',(#312));
#1096=EDGE_LOOP('',(#313,#314,#315,#316));
#1097=EDGE_LOOP('',(#317,#318,#319,#320));
#1098=EDGE_LOOP('',(#321,#322,#323,#324));
#1099=EDGE_LOOP('',(#325,#326,#327,#328));
#1100=EDGE_LOOP('',(#329));
#1101=EDGE_LOOP('',(#330));
#1102=EDGE_LOOP('',(#331,#332,#333,#334));
#1103=EDGE_LOOP('',(#335,#336,#337,#338));
#1104=EDGE_LOOP('',(#339,#340,#341,#342));
#1105=EDGE_LOOP('',(#343,#344,#345,#346));
#1106=EDGE_LOOP('',(#347,#348,#349,#350));
#1107=EDGE_LOOP('',(#351,#352,#353,#354));
#1108=EDGE_LOOP('',(#355,#356,#357,#358));
#1109=EDGE_LOOP('',(#359,#360,#361,#362));
#1110=EDGE_LOOP('',(#363,#364,#365,#366));
#1111=EDGE_LOOP('',(#367));
#1112=EDGE_LOOP('',(#368));
#1113=EDGE_LOOP('',(#369,#370,#371,#372));
#1114=EDGE_LOOP('',(#373,#374,#375,#376));
#1115=EDGE_LOOP('',(#377,#378,#379,#380));
#1116=EDGE_LOOP('',(#381,#382,#383,#384));
#1117=EDGE_LOOP('',(#385));
#1118=EDGE_LOOP('',(#386));
#1119=EDGE_LOOP('',(#387,#388,#389,#390));
#1120=EDGE_LOOP('',(#391,#392,#393,#394));
#1121=EDGE_LOOP('',(#395,#396,#397,#398));
#1122=EDGE_LOOP('',(#399,#400,#401,#402));
#1123=EDGE_LOOP('',(#403));
#1124=EDGE_LOOP('',(#404));
#1125=EDGE_LOOP('',(#405,#406,#407,#408));
#1126=EDGE_LOOP('',(#409,#410,#411,#412));
#1127=EDGE_LOOP('',(#413,#414,#415,#416));
#1128=EDGE_LOOP('',(#417,#418,#419,#420));
#1129=EDGE_LOOP('',(#421,#422,#423,#424));
#1130=EDGE_LOOP('',(#425,#426,#427,#428));
#1131=EDGE_LOOP('',(#429));
#1132=EDGE_LOOP('',(#430));
#1133=EDGE_LOOP('',(#431));
#1134=EDGE_LOOP('',(#432));
#1135=EDGE_LOOP('',(#433,#434,#435,#436));
#1136=EDGE_LOOP('',(#437,#438,#439,#440));
#1137=EDGE_LOOP('',(#441,#442,#443,#444));
#1138=EDGE_LOOP('',(#445,#446,#447,#448));
#1139=FACE_BOUND('',#1023,.T.);
#1140=FACE_BOUND('',#1024,.T.);
#1141=FACE_BOUND('',#1025,.T.);
#1142=FACE_BOUND('',#1026,.T.);
#1143=FACE_BOUND('',#1027,.T.);
#1144=FACE_BOUND('',#1028,.T.);
#1145=FACE_BOUND('',#1029,.T.);
#1146=FACE_BOUND('',#1030,.T.);
#1147=FACE_BOUND('',#1031,.T.);
#1148=FACE_BOUND('',#1032,.T.);
#1149=FACE_BOUND('',#1033,.T.);
#1150=FACE_BOUND('',#1034,.T.);
#1151=FACE_BOUND('',#1035,.T.);
#1152=FACE_BOUND('',#1036,.T.);
#1153=FACE_BOUND('',#1037,.T.);
#1154=FACE_BOUND('',#1038,.T.);
#1155=FACE_BOUND('',#1039,.T.);
#1156=FACE_BOUND('',#1040,.T.);
#1157=FACE_BOUND('',#1041,.T.);
#1158=FACE_BOUND('',#1042,.T.);
#1159=FACE_BOUND('',#1043,.T.);
#1160=FACE_BOUND('',#1044,.T.);
#1161=FACE_BOUND('',#1045,.T.);
#1162=FACE_BOUND('',#1046,.T.);
#1163=FACE_BOUND('',#1047,.T.);
#1164=FACE_BOUND('',#1048,.T.);
#1165=FACE_BOUND('',#1049,.T.);
#1166=FACE_BOUND('',#1050,.T.);
#1167=FACE_BOUND('',#1051,.T.);
#1168=FACE_BOUND('',#1052,.T.);
#1169=FACE_BOUND('',#1053,.T.);
#1170=FACE_BOUND('',#1054,.T.);
#1171=FACE_BOUND('',#1055,.T.);
#1172=FACE_BOUND('',#1056,.T.);
#1173=FACE_BOUND('',#1057,.T.);
#1174=FACE_BOUND('',#1058,.T.);
#1175=FACE_BOUND('',#1059,.T.);
#1176=FACE_BOUND('',#1060,.T.);
#1177=FACE_BOUND('',#1061,.T.);
#1178=FACE_BOUND('',#1062,.T.);
#1179=FACE_BOUND('',#1063,.T.);
#1180=FACE_BOUND('',#1064,.T.);
#1181=FACE_BOUND('',#1065,.T.);
#1182=FACE_BOUND('',#1066,.T.);
#1183=FACE_BOUND('',#1067,.T.);
#1184=FACE_BOUND('',#1068,.T.);
#1185=FACE_BOUND('',#1069,.T.);
#1186=FACE_BOUND('',#1070,.T.);
#1187=FACE_BOUND('',#1071,.T.);
#1188=FACE_BOUND('',#1072,.T.);
#1189=FACE_BOUND('',#1073,.T.);
#1190=FACE_BOUND('',#1074,.T.);
#1191=FACE_BOUND('',#1075,.T.);
#1192=FACE_BOUND('',#1076,.T.);
#1193=FACE_BOUND('',#1077,.T.);
#1194=FACE_BOUND('',#1078,.T.);
#1195=FACE_BOUND('',#1079,.T.);
#1196=FACE_BOUND('',#1080,.T.);
#1197=FACE_BOUND('',#1081,.T.);
#1198=FACE_BOUND('',#1082,.T.);
#1199=FACE_BOUND('',#1083,.T.);
#1200=FACE_BOUND('',#1084,.T.);
#1201=FACE_BOUND('',#1085,.T.);
#1202=FACE_BOUND('',#1086,.T.);
#1203=FACE_BOUND('',#1087,.T.);
#1204=FACE_BOUND('',#1088,.T.);
#1205=FACE_BOUND('',#1089,.T.);
#1206=FACE_BOUND('',#1090,.T.);
#1207=FACE_BOUND('',#1091,.T.);
#1208=FACE_BOUND('',#1092,.T.);
#1209=FACE_BOUND('',#1093,.T.);
#1210=FACE_BOUND('',#1094,.T.);
#1211=FACE_BOUND('',#1095,.T.);
#1212=FACE_BOUND('',#1096,.T.);
#1213=FACE_BOUND('',#1097,.T.);
#1214=FACE_BOUND('',#1098,.T.);
#1215=FACE_BOUND('',#1099,.T.);
#1216=FACE_BOUND('',#1100,.T.);
#1217=FACE_BOUND('',#1101,.T.);
#1218=FACE_BOUND('',#1102,.T.);
#1219=FACE_BOUND('',#1103,.T.);
#1220=FACE_BOUND('',#1104,.T.);
#1221=FACE_BOUND('',#1105,.T.);
#1222=FACE_BOUND('',#1106,.T.);
#1223=FACE_BOUND('',#1107,.T.);
#1224=FACE_BOUND('',#1108,.T.);
#1225=FACE_BOUND('',#1109,.T.);
#1226=FACE_BOUND('',#1110,.T.);
#1227=FACE_BOUND('',#1111,.T.);
#1228=FACE_BOUND('',#1112,.T.);
#1229=FACE_BOUND('',#1113,.T.);
#1230=FACE_BOUND('',#1114,.T.);
#1231=FACE_BOUND('',#1115,.T.);
#1232=FACE_BOUND('',#1116,.T.);
#1233=FACE_BOUND('',#1117,.T.);
#1234=FACE_BOUND('',#1118,.T.);
#1235=FACE_BOUND('',#1119,.T.);
#1236=FACE_BOUND('',#1120,.T.);
#1237=FACE_BOUND('',#1121,.T.);
#1238=FACE_BOUND('',#1122,.T.);
#1239=FACE_BOUND('',#1123,.T.);
#1240=FACE_BOUND('',#1124,.T.);
#1241=FACE_BOUND('',#1125,.T.);
#1242=FACE_BOUND('',#1126,.T.);
#1243=FACE_BOUND('',#1127,.T.);
#1244=FACE_BOUND('',#1128,.T.);
#1245=FACE_BOUND('',#1129,.T.);
#1246=FACE_BOUND('',#1130,.T.);
#1247=FACE_BOUND('',#1131,.T.);
#1248=FACE_BOUND('',#1132,.T.);
#1249=FACE_BOUND('',#1133,.T.);
#1250=FACE_BOUND('',#1134,.T.);
#1251=FACE_BOUND('',#1135,.T.);
#1252=FACE_BOUND('',#1136,.T.);
#1253=FACE_BOUND('',#1137,.T.);
#1254=FACE_BOUND('',#1138,.T.);
#1255=CYLINDRICAL_SURFACE('',#1353,0.04445);
#1256=CYLINDRICAL_SURFACE('',#1356,0.04445);
#1257=CYLINDRICAL_SURFACE('',#1359,0.04445);
#1258=CYLINDRICAL_SURFACE('',#1362,0.04445);
#1259=CYLINDRICAL_SURFACE('',#1365,0.04445);
#1260=CYLINDRICAL_SURFACE('',#1368,0.04445);
#1261=CYLINDRICAL_SURFACE('',#1402,0.04445);
#1262=CYLINDRICAL_SURFACE('',#1403,0.03175);
#1263=CYLINDRICAL_SURFACE('',#1404,0.00238125);
#1264=CYLINDRICAL_SURFACE('',#1408,0.00238125);
#1265=CYLINDRICAL_SURFACE('',#1413,0.00238125);
#1266=CYLINDRICAL_SURFACE('',#1418,0.00238125);
#1267=CYLINDRICAL_SURFACE('',#1419,0.00238125);
#1268=CYLINDRICAL_SURFACE('',#1420,0.00238125);
#1269=CYLINDRICAL_SURFACE('',#1425,0.00238125);
#1270=CYLINDRICAL_SURFACE('',#1435,0.00238125);
#1271=CYLINDRICAL_SURFACE('',#1440,0.00238125);
#1272=CYLINDRICAL_SURFACE('',#1445,0.00238125);
#1273=CYLINDRICAL_SURFACE('',#1452,0.00238125);
#1274=CYLINDRICAL_SURFACE('',#1453,0.00238125);
#1275=ADVANCED_FACE('',(#1139),#1255,.T.);
#1276=ADVANCED_FACE('',(#1140),#1256,.T.);
#1277=ADVANCED_FACE('',(#1141),#1257,.T.);
#1278=ADVANCED_FACE('',(#1142),#1258,.T.);
#1279=ADVANCED_FACE('',(#1143),#1259,.T.);
#1280=ADVANCED_FACE('',(#1144),#1260,.T.);
#1281=ADVANCED_FACE('',(#1145,#1146,#1147,#1148,#1149,#1150,#1151,#1152,
#1153,#1154,#1155,#1156,#1157,#1158,#1159,#1160,#1161,#1162,#1163,#1164),
#12,.T.);
#1282=ADVANCED_FACE('',(#1165,#1166,#1167,#1168,#1169,#1170,#1171,#1172,
#1173,#1174,#1175,#1176,#1177,#1178,#1179,#1180,#1181,#1182,#1183,#1184),
#13,.F.);
#1283=ADVANCED_FACE('',(#1185),#14,.T.);
#1284=ADVANCED_FACE('',(#1186),#1261,.T.);
#1285=ADVANCED_FACE('',(#1187,#1188),#1262,.F.);
#1286=ADVANCED_FACE('',(#1189,#1190),#1263,.F.);
#1287=ADVANCED_FACE('',(#1191),#15,.F.);
#1288=ADVANCED_FACE('',(#1192),#16,.F.);
#1289=ADVANCED_FACE('',(#1193),#17,.F.);
#1290=ADVANCED_FACE('',(#1194,#1195),#1264,.F.);
#1291=ADVANCED_FACE('',(#1196),#18,.F.);
#1292=ADVANCED_FACE('',(#1197),#19,.F.);
#1293=ADVANCED_FACE('',(#1198),#20,.F.);
#1294=ADVANCED_FACE('',(#1199),#21,.F.);
#1295=ADVANCED_FACE('',(#1200,#1201),#1265,.F.);
#1296=ADVANCED_FACE('',(#1202),#22,.F.);
#1297=ADVANCED_FACE('',(#1203),#23,.F.);
#1298=ADVANCED_FACE('',(#1204),#24,.F.);
#1299=ADVANCED_FACE('',(#1205),#25,.F.);
#1300=ADVANCED_FACE('',(#1206,#1207),#1266,.F.);
#1301=ADVANCED_FACE('',(#1208,#1209),#1267,.F.);
#1302=ADVANCED_FACE('',(#1210,#1211),#1268,.F.);
#1303=ADVANCED_FACE('',(#1212),#26,.F.);
#1304=ADVANCED_FACE('',(#1213),#27,.F.);
#1305=ADVANCED_FACE('',(#1214),#28,.F.);
#1306=ADVANCED_FACE('',(#1215),#29,.F.);
#1307=ADVANCED_FACE('',(#1216,#1217),#1269,.F.);
#1308=ADVANCED_FACE('',(#1218),#30,.F.);
#1309=ADVANCED_FACE('',(#1219),#31,.F.);
#1310=ADVANCED_FACE('',(#1220),#32,.F.);
#1311=ADVANCED_FACE('',(#1221),#33,.F.);
#1312=ADVANCED_FACE('',(#1222),#34,.F.);
#1313=ADVANCED_FACE('',(#1223),#35,.F.);
#1314=ADVANCED_FACE('',(#1224),#36,.F.);
#1315=ADVANCED_FACE('',(#1225),#37,.F.);
#1316=ADVANCED_FACE('',(#1226),#38,.F.);
#1317=ADVANCED_FACE('',(#1227,#1228),#1270,.F.);
#1318=ADVANCED_FACE('',(#1229),#39,.F.);
#1319=ADVANCED_FACE('',(#1230),#40,.F.);
#1320=ADVANCED_FACE('',(#1231),#41,.F.);
#1321=ADVANCED_FACE('',(#1232),#42,.F.);
#1322=ADVANCED_FACE('',(#1233,#1234),#1271,.F.);
#1323=ADVANCED_FACE('',(#1235),#43,.F.);
#1324=ADVANCED_FACE('',(#1236),#44,.F.);
#1325=ADVANCED_FACE('',(#1237),#45,.F.);
#1326=ADVANCED_FACE('',(#1238),#46,.F.);
#1327=ADVANCED_FACE('',(#1239,#1240),#1272,.F.);
#1328=ADVANCED_FACE('',(#1241),#47,.F.);
#1329=ADVANCED_FACE('',(#1242),#48,.F.);
#1330=ADVANCED_FACE('',(#1243),#49,.F.);
#1331=ADVANCED_FACE('',(#1244),#50,.F.);
#1332=ADVANCED_FACE('',(#1245),#51,.F.);
#1333=ADVANCED_FACE('',(#1246),#52,.F.);
#1334=ADVANCED_FACE('',(#1247,#1248),#1273,.F.);
#1335=ADVANCED_FACE('',(#1249,#1250),#1274,.F.);
#1336=ADVANCED_FACE('',(#1251),#53,.F.);
#1337=ADVANCED_FACE('',(#1252),#54,.F.);
#1338=ADVANCED_FACE('',(#1253),#55,.F.);
#1339=ADVANCED_FACE('',(#1254),#56,.F.);
#1340=CLOSED_SHELL('',(#1275,#1276,#1277,#1278,#1279,#1280,#1281,#1282,
#1283,#1284,#1285,#1286,#1287,#1288,#1289,#1290,#1291,#1292,#1293,#1294,
#1295,#1296,#1297,#1298,#1299,#1300,#1301,#1302,#1303,#1304,#1305,#1306,
#1307,#1308,#1309,#1310,#1311,#1312,#1313,#1314,#1315,#1316,#1317,#1318,
#1319,#1320,#1321,#1322,#1323,#1324,#1325,#1326,#1327,#1328,#1329,#1330,
#1331,#1332,#1333,#1334,#1335,#1336,#1337,#1338,#1339));
#1341=STYLED_ITEM('',(#1342),#1349);
#1342=PRESENTATION_STYLE_ASSIGNMENT((#1343));
#1343=SURFACE_STYLE_USAGE(.BOTH.,#1344);
#1344=SURFACE_SIDE_STYLE('',(#1345));
#1345=SURFACE_STYLE_FILL_AREA(#1346);
#1346=FILL_AREA_STYLE('',(#1347));
#1347=FILL_AREA_STYLE_COLOUR('',#1348);
#1348=COLOUR_RGB('',0.701960784313725,0.701960784313725,0.701960784313725);
#1349=MANIFOLD_SOLID_BREP('Full Ring',#1340);
#1350=SHAPE_DEFINITION_REPRESENTATION(#2180,#1351);
#1351=SHAPE_REPRESENTATION('Full Ring',(#1352),#2175);
#1352=AXIS2_PLACEMENT_3D('',#1806,#1458,#1459);
#1353=AXIS2_PLACEMENT_3D('',#1807,#1460,#1461);
#1354=AXIS2_PLACEMENT_3D('',#1811,#1463,#1464);
#1355=AXIS2_PLACEMENT_3D('',#1815,#1466,#1467);
#1356=AXIS2_PLACEMENT_3D('',#1816,#1468,#1469);
#1357=AXIS2_PLACEMENT_3D('',#1817,#1470,#1471);
#1358=AXIS2_PLACEMENT_3D('',#1822,#1473,#1474);
#1359=AXIS2_PLACEMENT_3D('',#1825,#1476,#1477);
#1360=AXIS2_PLACEMENT_3D('',#1829,#1479,#1480);
#1361=AXIS2_PLACEMENT_3D('',#1833,#1482,#1483);
#1362=AXIS2_PLACEMENT_3D('',#1834,#1484,#1485);
#1363=AXIS2_PLACEMENT_3D('',#1835,#1486,#1487);
#1364=AXIS2_PLACEMENT_3D('',#1840,#1489,#1490);
#1365=AXIS2_PLACEMENT_3D('',#1843,#1492,#1493);
#1366=AXIS2_PLACEMENT_3D('',#1844,#1494,#1495);
#1367=AXIS2_PLACEMENT_3D('',#1849,#1497,#1498);
#1368=AXIS2_PLACEMENT_3D('',#1852,#1500,#1501);
#1369=AXIS2_PLACEMENT_3D('',#1853,#1502,#1503);
#1370=AXIS2_PLACEMENT_3D('',#1858,#1505,#1506);
#1371=AXIS2_PLACEMENT_3D('',#1861,#1508,#1509);
#1372=AXIS2_PLACEMENT_3D('',#1878,#1519,#1520);
#1373=AXIS2_PLACEMENT_3D('',#1904,#1535,#1536);
#1374=AXIS2_PLACEMENT_3D('',#1906,#1537,#1538);
#1375=AXIS2_PLACEMENT_3D('',#1916,#1543,#1544);
#1376=AXIS2_PLACEMENT_3D('',#1918,#1545,#1546);
#1377=AXIS2_PLACEMENT_3D('',#1920,#1547,#1548);
#1378=AXIS2_PLACEMENT_3D('',#1922,#1549,#1550);
#1379=AXIS2_PLACEMENT_3D('',#1932,#1555,#1556);
#1380=AXIS2_PLACEMENT_3D('',#1934,#1557,#1558);
#1381=AXIS2_PLACEMENT_3D('',#1936,#1559,#1560);
#1382=AXIS2_PLACEMENT_3D('',#1946,#1565,#1566);
#1383=AXIS2_PLACEMENT_3D('',#1956,#1571,#1572);
#1384=AXIS2_PLACEMENT_3D('',#1958,#1573,#1574);
#1385=AXIS2_PLACEMENT_3D('',#1960,#1575,#1576);
#1386=AXIS2_PLACEMENT_3D('',#1970,#1581,#1582);
#1387=AXIS2_PLACEMENT_3D('',#1990,#1594,#1595);
#1388=AXIS2_PLACEMENT_3D('',#2005,#1604,#1605);
#1389=AXIS2_PLACEMENT_3D('',#2007,#1606,#1607);
#1390=AXIS2_PLACEMENT_3D('',#2009,#1608,#1609);
#1391=AXIS2_PLACEMENT_3D('',#2011,#1610,#1611);
#1392=AXIS2_PLACEMENT_3D('',#2013,#1612,#1613);
#1393=AXIS2_PLACEMENT_3D('',#2015,#1614,#1615);
#1394=AXIS2_PLACEMENT_3D('',#2017,#1616,#1617);
#1395=AXIS2_PLACEMENT_3D('',#2019,#1618,#1619);
#1396=AXIS2_PLACEMENT_3D('',#2021,#1620,#1621);
#1397=AXIS2_PLACEMENT_3D('',#2023,#1622,#1623);
#1398=AXIS2_PLACEMENT_3D('',#2025,#1624,#1625);
#1399=AXIS2_PLACEMENT_3D('',#2027,#1626,#1627);
#1400=AXIS2_PLACEMENT_3D('',#2029,#1628,#1629);
#1401=AXIS2_PLACEMENT_3D('',#2079,#1654,#1655);
#1402=AXIS2_PLACEMENT_3D('',#2081,#1657,#1658);
#1403=AXIS2_PLACEMENT_3D('',#2083,#1660,#1661);
#1404=AXIS2_PLACEMENT_3D('',#2084,#1662,#1663);
#1405=AXIS2_PLACEMENT_3D('',#2085,#1664,#1665);
#1406=AXIS2_PLACEMENT_3D('',#2087,#1667,#1668);
#1407=AXIS2_PLACEMENT_3D('',#2089,#1670,#1671);
#1408=AXIS2_PLACEMENT_3D('',#2090,#1672,#1673);
#1409=AXIS2_PLACEMENT_3D('',#2091,#1674,#1675);
#1410=AXIS2_PLACEMENT_3D('',#2094,#1678,#1679);
#1411=AXIS2_PLACEMENT_3D('',#2096,#1681,#1682);
#1412=AXIS2_PLACEMENT_3D('',#2098,#1684,#1685);
#1413=AXIS2_PLACEMENT_3D('',#2099,#1686,#1687);
#1414=AXIS2_PLACEMENT_3D('',#2100,#1688,#1689);
#1415=AXIS2_PLACEMENT_3D('',#2103,#1692,#1693);
#1416=AXIS2_PLACEMENT_3D('',#2105,#1695,#1696);
#1417=AXIS2_PLACEMENT_3D('',#2107,#1698,#1699);
#1418=AXIS2_PLACEMENT_3D('',#2108,#1700,#1701);
#1419=AXIS2_PLACEMENT_3D('',#2109,#1702,#1703);
#1420=AXIS2_PLACEMENT_3D('',#2110,#1704,#1705);
#1421=AXIS2_PLACEMENT_3D('',#2111,#1706,#1707);
#1422=AXIS2_PLACEMENT_3D('',#2114,#1710,#1711);
#1423=AXIS2_PLACEMENT_3D('',#2116,#1713,#1714);
#1424=AXIS2_PLACEMENT_3D('',#2118,#1716,#1717);
#1425=AXIS2_PLACEMENT_3D('',#2119,#1718,#1719);
#1426=AXIS2_PLACEMENT_3D('',#2120,#1720,#1721);
#1427=AXIS2_PLACEMENT_3D('',#2122,#1723,#1724);
#1428=AXIS2_PLACEMENT_3D('',#2124,#1726,#1727);
#1429=AXIS2_PLACEMENT_3D('',#2125,#1728,#1729);
#1430=AXIS2_PLACEMENT_3D('',#2127,#1731,#1732);
#1431=AXIS2_PLACEMENT_3D('',#2129,#1734,#1735);
#1432=AXIS2_PLACEMENT_3D('',#2130,#1736,#1737);
#1433=AXIS2_PLACEMENT_3D('',#2132,#1739,#1740);
#1434=AXIS2_PLACEMENT_3D('',#2134,#1742,#1743);
#1435=AXIS2_PLACEMENT_3D('',#2135,#1744,#1745);
#1436=AXIS2_PLACEMENT_3D('',#2136,#1746,#1747);
#1437=AXIS2_PLACEMENT_3D('',#2139,#1750,#1751);
#1438=AXIS2_PLACEMENT_3D('',#2141,#1753,#1754);
#1439=AXIS2_PLACEMENT_3D('',#2143,#1756,#1757);
#1440=AXIS2_PLACEMENT_3D('',#2144,#1758,#1759);
#1441=AXIS2_PLACEMENT_3D('',#2145,#1760,#1761);
#1442=AXIS2_PLACEMENT_3D('',#2148,#1764,#1765);
#1443=AXIS2_PLACEMENT_3D('',#2150,#1767,#1768);
#1444=AXIS2_PLACEMENT_3D('',#2152,#1770,#1771);
#1445=AXIS2_PLACEMENT_3D('',#2153,#1772,#1773);
#1446=AXIS2_PLACEMENT_3D('',#2154,#1774,#1775);
#1447=AXIS2_PLACEMENT_3D('',#2156,#1777,#1778);
#1448=AXIS2_PLACEMENT_3D('',#2158,#1780,#1781);
#1449=AXIS2_PLACEMENT_3D('',#2159,#1782,#1783);
#1450=AXIS2_PLACEMENT_3D('',#2161,#1785,#1786);
#1451=AXIS2_PLACEMENT_3D('',#2163,#1788,#1789);
#1452=AXIS2_PLACEMENT_3D('',#2164,#1790,#1791);
#1453=AXIS2_PLACEMENT_3D('',#2165,#1792,#1793);
#1454=AXIS2_PLACEMENT_3D('',#2166,#1794,#1795);
#1455=AXIS2_PLACEMENT_3D('',#2169,#1798,#1799);
#1456=AXIS2_PLACEMENT_3D('',#2171,#1801,#1802);
#1457=AXIS2_PLACEMENT_3D('',#2173,#1804,#1805);
#1458=DIRECTION('',(0.,0.,1.));
#1459=DIRECTION('',(1.,0.,0.));
#1460=DIRECTION('',(0.,1.,0.));
#1461=DIRECTION('',(0.,0.,1.));
#1462=DIRECTION('',(0.,1.,0.));
#1463=DIRECTION('',(0.,-1.,0.));
#1464=DIRECTION('',(0.,0.,-1.));
#1465=DIRECTION('',(0.,1.,0.));
#1466=DIRECTION('',(0.,-1.,0.));
#1467=DIRECTION('',(0.,0.,-1.));
#1468=DIRECTION('',(0.,1.,0.));
#1469=DIRECTION('',(0.,0.,1.));
#1470=DIRECTION('',(0.,-1.,0.));
#1471=DIRECTION('',(0.,0.,-1.));
#1472=DIRECTION('',(0.,1.,0.));
#1473=DIRECTION('',(0.,-1.,0.));
#1474=DIRECTION('',(0.,0.,-1.));
#1475=DIRECTION('',(0.,1.,0.));
#1476=DIRECTION('',(0.,1.,0.));
#1477=DIRECTION('',(0.,0.,1.));
#1478=DIRECTION('',(0.,1.,0.));
#1479=DIRECTION('',(0.,-1.,0.));
#1480=DIRECTION('',(0.,0.,-1.));
#1481=DIRECTION('',(0.,1.,0.));
#1482=DIRECTION('',(0.,-1.,0.));
#1483=DIRECTION('',(0.,0.,-1.));
#1484=DIRECTION('',(0.,1.,0.));
#1485=DIRECTION('',(0.,0.,1.));
#1486=DIRECTION('',(0.,-1.,0.));
#1487=DIRECTION('',(0.,0.,-1.));
#1488=DIRECTION('',(0.,1.,0.));
#1489=DIRECTION('',(0.,-1.,0.));
#1490=DIRECTION('',(0.,0.,-1.));
#1491=DIRECTION('',(0.,1.,0.));
#1492=DIRECTION('',(0.,1.,0.));
#1493=DIRECTION('',(0.,0.,1.));
#1494=DIRECTION('',(0.,-1.,0.));
#1495=DIRECTION('',(0.,0.,-1.));
#1496=DIRECTION('',(0.,1.,0.));
#1497=DIRECTION('',(0.,-1.,0.));
#1498=DIRECTION('',(0.,0.,-1.));
#1499=DIRECTION('',(0.,1.,0.));
#1500=DIRECTION('',(0.,1.,0.));
#1501=DIRECTION('',(0.,0.,1.));
#1502=DIRECTION('',(0.,-1.,0.));
#1503=DIRECTION('',(0.,0.,-1.));
#1504=DIRECTION('',(0.,1.,0.));
#1505=DIRECTION('',(0.,-1.,0.));
#1506=DIRECTION('',(0.,0.,-1.));
#1507=DIRECTION('',(0.,1.,0.));
#1508=DIRECTION('',(0.,-1.,0.));
#1509=DIRECTION('',(1.,0.,0.));
#1510=DIRECTION('',(-3.57285061158949E-17,0.,-1.));
#1511=DIRECTION('',(-1.,0.,1.22464679914735E-16));
#1512=DIRECTION('',(-7.63958078352521E-18,0.,1.));
#1513=DIRECTION('',(0.866025403784439,0.,-0.5));
#1514=DIRECTION('',(-0.5,0.,-0.866025403784439));
#1515=DIRECTION('',(-0.866025403784439,0.,0.5));
#1516=DIRECTION('',(0.866025403784439,0.,0.5));
#1517=DIRECTION('',(0.5,0.,-0.866025403784439));
#1518=DIRECTION('',(-0.866025403784439,0.,-0.5));
#1519=DIRECTION('',(0.,-1.,0.));
#1520=DIRECTION('',(0.,0.,-1.));
#1521=DIRECTION('',(0.887625379821602,0.,-0.460566157133322));
#1522=DIRECTION('',(-8.67361737988404E-17,0.,1.));
#1523=DIRECTION('',(1.,0.,0.));
#1524=DIRECTION('',(1.3010426069826E-16,0.,-1.));
#1525=DIRECTION('',(-0.866025403784439,0.,0.5));
#1526=DIRECTION('',(0.5,0.,0.866025403784439));
#1527=DIRECTION('',(0.866025403784439,0.,-0.5));
#1528=DIRECTION('',(-0.866025403784439,0.,-0.5));
#1529=DIRECTION('',(-0.5,0.,0.866025403784439));
#1530=DIRECTION('',(0.866025403784439,0.,0.5));
#1531=DIRECTION('',(-1.22464679914735E-16,0.,-1.));
#1532=DIRECTION('',(-0.832050294337844,0.,0.554700196225229));
#1533=DIRECTION('',(1.22464679914735E-16,0.,1.));
#1534=DIRECTION('',(0.832050294337844,0.,0.554700196225229));
#1535=DIRECTION('',(0.,-1.,0.));
#1536=DIRECTION('',(0.,0.,-1.));
#1537=DIRECTION('',(0.,-1.,0.));
#1538=DIRECTION('',(0.,0.,-1.));
#1539=DIRECTION('',(0.866025403784439,0.,0.5));
#1540=DIRECTION('',(-0.0643593142463399,0.,-0.997926790235507));
#1541=DIRECTION('',(-0.866025403784439,0.,-0.5));
#1542=DIRECTION('',(-0.896409608584183,0.,0.443226594010278));
#1543=DIRECTION('',(0.,-1.,0.));
#1544=DIRECTION('',(0.,0.,-1.));
#1545=DIRECTION('',(0.,-1.,0.));
#1546=DIRECTION('',(0.,0.,-1.));
#1547=DIRECTION('',(0.,-1.,0.));
#1548=DIRECTION('',(0.,0.,-1.));
#1549=DIRECTION('',(0.,-1.,0.));
#1550=DIRECTION('',(0.,0.,-1.));
#1551=DIRECTION('',(0.866025403784439,0.,-0.5));
#1552=DIRECTION('',(-0.896409608584183,0.,-0.443226594010277));
#1553=DIRECTION('',(-0.866025403784439,0.,0.5));
#1554=DIRECTION('',(-0.064359314246339,0.,0.997926790235507));
#1555=DIRECTION('',(0.,-1.,0.));
#1556=DIRECTION('',(0.,0.,-1.));
#1557=DIRECTION('',(0.,-1.,0.));
#1558=DIRECTION('',(0.,0.,-1.));
#1559=DIRECTION('',(0.,-1.,0.));
#1560=DIRECTION('',(0.,0.,-1.));
#1561=DIRECTION('',(-0.866025403784439,0.,0.5));
#1562=DIRECTION('',(0.896409608584183,0.,0.443226594010278));
#1563=DIRECTION('',(0.866025403784439,0.,-0.5));
#1564=DIRECTION('',(0.0643593142463393,0.,-0.997926790235507));
#1565=DIRECTION('',(0.,-1.,0.));
#1566=DIRECTION('',(0.,0.,-1.));
#1567=DIRECTION('',(0.,0.,1.));
#1568=DIRECTION('',(0.832050294337844,0.,-0.554700196225229));
#1569=DIRECTION('',(0.,0.,-1.));
#1570=DIRECTION('',(-0.832050294337844,0.,-0.554700196225229));
#1571=DIRECTION('',(0.,-1.,0.));
#1572=DIRECTION('',(0.,0.,-1.));
#1573=DIRECTION('',(0.,-1.,0.));
#1574=DIRECTION('',(0.,0.,-1.));
#1575=DIRECTION('',(0.,-1.,0.));
#1576=DIRECTION('',(0.,0.,-1.));
#1577=DIRECTION('',(-0.866025403784439,0.,-0.5));
#1578=DIRECTION('',(0.0643593142463394,0.,0.997926790235507));
#1579=DIRECTION('',(0.866025403784439,0.,0.5));
#1580=DIRECTION('',(0.896409608584183,0.,-0.443226594010278));
#1581=DIRECTION('',(0.,-1.,0.));
#1582=DIRECTION('',(1.,0.,0.));
#1583=DIRECTION('',(3.5728506115895E-17,0.,1.));
#1584=DIRECTION('',(-0.866025403784439,0.,-0.5));
#1585=DIRECTION('',(0.5,0.,-0.866025403784439));
#1586=DIRECTION('',(0.866025403784439,0.,0.5));
#1587=DIRECTION('',(-0.866025403784439,0.,0.5));
#1588=DIRECTION('',(-0.5,0.,-0.866025403784439));
#1589=DIRECTION('',(0.866025403784439,0.,-0.5));
#1590=DIRECTION('',(-1.3010426069826E-16,0.,1.));
#1591=DIRECTION('',(-1.,0.,0.));
#1592=DIRECTION('',(8.67361737988404E-17,0.,-1.));
#1593=DIRECTION('',(0.887625379821602,0.,-0.460566157133322));
#1594=DIRECTION('',(0.,-1.,0.));
#1595=DIRECTION('',(0.,0.,-1.));
#1596=DIRECTION('',(0.866025403784439,0.,0.5));
#1597=DIRECTION('',(-0.5,0.,0.866025403784439));
#1598=DIRECTION('',(-0.866025403784439,0.,-0.5));
#1599=DIRECTION('',(0.866025403784439,0.,-0.5));
#1600=DIRECTION('',(0.5,0.,0.866025403784438));
#1601=DIRECTION('',(-0.866025403784438,0.,0.5));
#1602=DIRECTION('',(7.63958078352519E-18,0.,-1.));
#1603=DIRECTION('',(1.,0.,-1.22464679914735E-16));
#1604=DIRECTION('',(0.,-1.,0.));
#1605=DIRECTION('',(0.866025403784439,0.,0.5));
#1606=DIRECTION('',(0.,-1.,0.));
#1607=DIRECTION('',(0.866025403784439,0.,0.5));
#1608=DIRECTION('',(0.,-1.,0.));
#1609=DIRECTION('',(1.22464679914735E-16,0.,1.));
#1610=DIRECTION('',(0.,-1.,0.));
#1611=DIRECTION('',(1.22464679914735E-16,0.,1.));
#1612=DIRECTION('',(0.,-1.,0.));
#1613=DIRECTION('',(0.,0.,-1.));
#1614=DIRECTION('',(0.,-1.,0.));
#1615=DIRECTION('',(0.866025403784439,0.,-0.5));
#1616=DIRECTION('',(0.,-1.,0.));
#1617=DIRECTION('',(0.866025403784439,0.,-0.5));
#1618=DIRECTION('',(0.,-1.,0.));
#1619=DIRECTION('',(-0.866025403784439,0.,-0.5));
#1620=DIRECTION('',(0.,-1.,0.));
#1621=DIRECTION('',(-0.866025403784439,0.,-0.5));
#1622=DIRECTION('',(0.,-1.,0.));
#1623=DIRECTION('',(-0.866025403784438,0.,0.5));
#1624=DIRECTION('',(0.,-1.,0.));
#1625=DIRECTION('',(-0.866025403784438,0.,0.5));
#1626=DIRECTION('',(0.,-1.,0.));
#1627=DIRECTION('',(0.,0.,-1.));
#1628=DIRECTION('',(0.,-1.,0.));
#1629=DIRECTION('',(0.,0.,-1.));
#1630=DIRECTION('',(0.896409608584183,0.,0.443226594010277));
#1631=DIRECTION('',(-0.866025403784438,0.,0.5));
#1632=DIRECTION('',(0.0643593142463389,0.,-0.997926790235507));
#1633=DIRECTION('',(0.866025403784438,0.,-0.5));
#1634=DIRECTION('',(0.06435931424634,0.,0.997926790235507));
#1635=DIRECTION('',(-0.866025403784439,0.,-0.5));
#1636=DIRECTION('',(0.896409608584183,0.,-0.443226594010278));
#1637=DIRECTION('',(0.866025403784439,0.,0.5));
#1638=DIRECTION('',(-0.896409608584183,0.,-0.443226594010278));
#1639=DIRECTION('',(0.866025403784439,0.,-0.5));
#1640=DIRECTION('',(-0.0643593142463393,0.,0.997926790235507));
#1641=DIRECTION('',(-0.866025403784439,0.,0.5));
#1642=DIRECTION('',(-0.832050294337844,0.,0.554700196225229));
#1643=DIRECTION('',(0.,0.,-1.));
#1644=DIRECTION('',(0.832050294337844,0.,0.554700196225229));
#1645=DIRECTION('',(0.,0.,1.));
#1646=DIRECTION('',(0.832050294337844,0.,-0.554700196225229));
#1647=DIRECTION('',(1.22464679914735E-16,0.,1.));
#1648=DIRECTION('',(-0.832050294337844,0.,-0.554700196225229));
#1649=DIRECTION('',(-1.22464679914735E-16,0.,-1.));
#1650=DIRECTION('',(-0.0643593142463393,0.,-0.997926790235507));
#1651=DIRECTION('',(0.866025403784439,0.,0.5));
#1652=DIRECTION('',(-0.896409608584183,0.,0.443226594010278));
#1653=DIRECTION('',(-0.866025403784439,0.,-0.5));
#1654=DIRECTION('',(0.460566157133322,0.,0.887625379821602));
#1655=DIRECTION('',(0.887625379821603,0.,-0.460566157133322));
#1656=DIRECTION('',(0.,1.,0.));
#1657=DIRECTION('',(0.,1.,0.));
#1658=DIRECTION('',(0.,0.,1.));
#1659=DIRECTION('',(0.,1.,0.));
#1660=DIRECTION('',(0.,1.,0.));
#1661=DIRECTION('',(0.,0.,1.));
#1662=DIRECTION('',(0.,1.,0.));
#1663=DIRECTION('',(0.,0.,1.));
#1664=DIRECTION('',(0.5,0.,-0.866025403784439));
#1665=DIRECTION('',(-0.866025403784439,0.,-0.5));
#1666=DIRECTION('',(0.,1.,0.));
#1667=DIRECTION('',(-0.5,0.,0.866025403784439));
#1668=DIRECTION('',(0.866025403784439,0.,0.5));
#1669=DIRECTION('',(0.,1.,0.));
#1670=DIRECTION('',(-0.866025403784439,0.,-0.5));
#1671=DIRECTION('',(-0.5,0.,0.866025403784439));
#1672=DIRECTION('',(0.,1.,0.));
#1673=DIRECTION('',(0.866025403784438,0.,-0.5));
#1674=DIRECTION('',(-0.5,0.,-0.866025403784438));
#1675=DIRECTION('',(-0.866025403784438,0.,0.5));
#1676=DIRECTION('',(0.,1.,0.));
#1677=DIRECTION('',(0.,1.,0.));
#1678=DIRECTION('',(0.997926790235507,0.,0.064359314246339));
#1679=DIRECTION('',(0.064359314246339,0.,-0.997926790235507));
#1680=DIRECTION('',(0.,1.,0.));
#1681=DIRECTION('',(0.5,0.,0.866025403784438));
#1682=DIRECTION('',(0.866025403784438,0.,-0.5));
#1683=DIRECTION('',(0.,1.,0.));
#1684=DIRECTION('',(-0.443226594010277,0.,0.896409608584183));
#1685=DIRECTION('',(0.896409608584183,0.,0.443226594010277));
#1686=DIRECTION('',(0.,1.,0.));
#1687=DIRECTION('',(0.866025403784438,0.,-0.5));
#1688=DIRECTION('',(0.5,0.,-0.866025403784439));
#1689=DIRECTION('',(-0.866025403784439,0.,-0.5));
#1690=DIRECTION('',(0.,1.,0.));
#1691=DIRECTION('',(0.,1.,0.));
#1692=DIRECTION('',(0.443226594010278,0.,0.896409608584183));
#1693=DIRECTION('',(0.896409608584183,0.,-0.443226594010278));
#1694=DIRECTION('',(0.,1.,0.));
#1695=DIRECTION('',(-0.5,0.,0.866025403784439));
#1696=DIRECTION('',(0.866025403784439,0.,0.5));
#1697=DIRECTION('',(0.,1.,0.));
#1698=DIRECTION('',(-0.997926790235506,0.,0.0643593142463399));
#1699=DIRECTION('',(0.0643593142463399,0.,0.997926790235507));
#1700=DIRECTION('',(0.,1.,0.));
#1701=DIRECTION('',(0.866025403784439,0.,0.5));
#1702=DIRECTION('',(0.,1.,0.));
#1703=DIRECTION('',(0.866025403784439,0.,0.5));
#1704=DIRECTION('',(0.,1.,0.));
#1705=DIRECTION('',(-0.866025403784439,0.,0.5));
#1706=DIRECTION('',(0.5,0.,0.866025403784439));
#1707=DIRECTION('',(0.866025403784439,0.,-0.5));
#1708=DIRECTION('',(0.,1.,0.));
#1709=DIRECTION('',(0.,1.,0.));
#1710=DIRECTION('',(-0.997926790235507,0.,-0.0643593142463393));
#1711=DIRECTION('',(-0.0643593142463393,0.,0.997926790235507));
#1712=DIRECTION('',(0.,1.,0.));
#1713=DIRECTION('',(-0.5,0.,-0.866025403784439));
#1714=DIRECTION('',(-0.866025403784439,0.,0.5));
#1715=DIRECTION('',(0.,1.,0.));
#1716=DIRECTION('',(0.443226594010278,0.,-0.896409608584183));
#1717=DIRECTION('',(-0.896409608584183,0.,-0.443226594010278));
#1718=DIRECTION('',(0.,1.,0.));
#1719=DIRECTION('',(-0.866025403784439,0.,0.5));
#1720=DIRECTION('',(-0.5,0.,0.866025403784439));
#1721=DIRECTION('',(0.866025403784439,0.,0.5));
#1722=DIRECTION('',(0.,1.,0.));
#1723=DIRECTION('',(0.5,0.,-0.866025403784439));
#1724=DIRECTION('',(-0.866025403784439,0.,-0.5));
#1725=DIRECTION('',(0.,1.,0.));
#1726=DIRECTION('',(0.866025403784439,0.,0.5));
#1727=DIRECTION('',(0.5,0.,-0.866025403784439));
#1728=DIRECTION('',(0.5,0.,0.866025403784439));
#1729=DIRECTION('',(0.866025403784439,0.,-0.5));
#1730=DIRECTION('',(0.,1.,0.));
#1731=DIRECTION('',(-0.5,0.,-0.866025403784439));
#1732=DIRECTION('',(-0.866025403784439,0.,0.5));
#1733=DIRECTION('',(0.,1.,0.));
#1734=DIRECTION('',(0.866025403784439,0.,-0.5));
#1735=DIRECTION('',(-0.5,0.,-0.866025403784439));
#1736=DIRECTION('',(1.,0.,8.67361737988404E-17));
#1737=DIRECTION('',(8.67361737988404E-17,0.,-1.));
#1738=DIRECTION('',(0.,1.,0.));
#1739=DIRECTION('',(-1.,0.,-1.3010426069826E-16));
#1740=DIRECTION('',(-1.3010426069826E-16,0.,1.));
#1741=DIRECTION('',(0.,1.,0.));
#1742=DIRECTION('',(0.,0.,-1.));
#1743=DIRECTION('',(-1.,0.,0.));
#1744=DIRECTION('',(0.,1.,0.));
#1745=DIRECTION('',(0.,0.,1.));
#1746=DIRECTION('',(1.,0.,0.));
#1747=DIRECTION('',(0.,0.,-1.));
#1748=DIRECTION('',(0.,1.,0.));
#1749=DIRECTION('',(0.,1.,0.));
#1750=DIRECTION('',(-0.554700196225229,0.,0.832050294337844));
#1751=DIRECTION('',(0.832050294337844,0.,0.554700196225229));
#1752=DIRECTION('',(0.,1.,0.));
#1753=DIRECTION('',(-1.,0.,0.));
#1754=DIRECTION('',(0.,0.,1.));
#1755=DIRECTION('',(0.,1.,0.));
#1756=DIRECTION('',(-0.554700196225229,0.,-0.832050294337844));
#1757=DIRECTION('',(-0.832050294337844,0.,0.554700196225229));
#1758=DIRECTION('',(0.,1.,0.));
#1759=DIRECTION('',(-1.22464679914735E-16,0.,-1.));
#1760=DIRECTION('',(-1.,0.,1.22464679914735E-16));
#1761=DIRECTION('',(1.22464679914735E-16,0.,1.));
#1762=DIRECTION('',(0.,1.,0.));
#1763=DIRECTION('',(0.,1.,0.));
#1764=DIRECTION('',(0.554700196225229,0.,-0.832050294337844));
#1765=DIRECTION('',(-0.832050294337844,0.,-0.554700196225229));
#1766=DIRECTION('',(0.,1.,0.));
#1767=DIRECTION('',(1.,0.,-1.22464679914735E-16));
#1768=DIRECTION('',(-1.22464679914735E-16,0.,-1.));
#1769=DIRECTION('',(0.,1.,0.));
#1770=DIRECTION('',(0.554700196225229,0.,0.832050294337844));
#1771=DIRECTION('',(0.832050294337844,0.,-0.554700196225229));
#1772=DIRECTION('',(0.,1.,0.));
#1773=DIRECTION('',(-1.22464679914735E-16,0.,-1.));
#1774=DIRECTION('',(-0.5,0.,-0.866025403784438));
#1775=DIRECTION('',(-0.866025403784438,0.,0.5));
#1776=DIRECTION('',(0.,1.,0.));
#1777=DIRECTION('',(0.5,0.,0.866025403784438));
#1778=DIRECTION('',(0.866025403784439,0.,-0.5));
#1779=DIRECTION('',(0.,1.,0.));
#1780=DIRECTION('',(-0.866025403784438,0.,0.5));
#1781=DIRECTION('',(0.5,0.,0.866025403784438));
#1782=DIRECTION('',(-1.,0.,3.57285061158949E-17));
#1783=DIRECTION('',(3.57285061158949E-17,0.,1.));
#1784=DIRECTION('',(0.,1.,0.));
#1785=DIRECTION('',(1.,0.,7.63958078352521E-18));
#1786=DIRECTION('',(7.63958078352521E-18,0.,-1.));
#1787=DIRECTION('',(0.,1.,0.));
#1788=DIRECTION('',(1.22464679914735E-16,0.,1.));
#1789=DIRECTION('',(1.,0.,-1.22464679914735E-16));
#1790=DIRECTION('',(0.,1.,0.));
#1791=DIRECTION('',(-0.866025403784439,0.,-0.5));
#1792=DIRECTION('',(0.,1.,0.));
#1793=DIRECTION('',(-0.866025403784439,0.,-0.5));
#1794=DIRECTION('',(-0.5,0.,0.866025403784439));
#1795=DIRECTION('',(0.866025403784439,0.,0.5));
#1796=DIRECTION('',(0.,1.,0.));
#1797=DIRECTION('',(0.,1.,0.));
#1798=DIRECTION('',(-0.443226594010278,0.,-0.896409608584183));
#1799=DIRECTION('',(-0.896409608584183,0.,0.443226594010278));
#1800=DIRECTION('',(0.,1.,0.));
#1801=DIRECTION('',(0.5,0.,-0.866025403784439));
#1802=DIRECTION('',(-0.866025403784439,0.,-0.5));
#1803=DIRECTION('',(0.,1.,0.));
#1804=DIRECTION('',(0.997926790235507,0.,-0.0643593142463393));
#1805=DIRECTION('',(-0.0643593142463393,0.,-0.997926790235507));
#1806=CARTESIAN_POINT('',(0.,0.,0.));
#1807=CARTESIAN_POINT('',(7.17343650810834E-18,-0.00635,-1.38777878078145E-17));
#1808=CARTESIAN_POINT('',(-0.003,-0.0254,-0.0443486471045059));
#1809=CARTESIAN_POINT('',(-0.003,-0.00635,-0.0443486471045059));
#1810=CARTESIAN_POINT('',(-0.003,0.,-0.0443486471045059));
#1811=CARTESIAN_POINT('',(7.17343650810834E-18,-0.00635,-1.38777878078145E-17));
#1812=CARTESIAN_POINT('',(-0.0369070550159733,-0.00635,-0.0247723997636063));
#1813=CARTESIAN_POINT('',(-0.0369070550159733,-0.0254,-0.0247723997636063));
#1814=CARTESIAN_POINT('',(-0.0369070550159733,0.,-0.0247723997636063));
#1815=CARTESIAN_POINT('',(7.17343650810834E-18,0.,-1.38777878078145E-17));
#1816=CARTESIAN_POINT('',(7.17343650810834E-18,-0.00635,-1.38777878078145E-17));
#1817=CARTESIAN_POINT('',(7.17343650810834E-18,-0.00635,-1.38777878078145E-17));
#1818=CARTESIAN_POINT('',(0.003,-0.00635,-0.0443486471045059));
#1819=CARTESIAN_POINT('',(0.0369070550159733,-0.00635,-0.0247723997636063));
#1820=CARTESIAN_POINT('',(0.003,-0.0254,-0.0443486471045059));
#1821=CARTESIAN_POINT('',(0.003,0.,-0.0443486471045059));
#1822=CARTESIAN_POINT('',(7.17343650810834E-18,0.,-1.38777878078145E-17));
#1823=CARTESIAN_POINT('',(0.0369070550159733,0.,-0.0247723997636063));
#1824=CARTESIAN_POINT('',(0.0369070550159733,-0.0254,-0.0247723997636063));
#1825=CARTESIAN_POINT('',(7.17343650810834E-18,-0.00635,-1.38777878078145E-17));
#1826=CARTESIAN_POINT('',(0.003,-0.0254,0.0443486471045059));
#1827=CARTESIAN_POINT('',(0.003,-0.00635,0.0443486471045059));
#1828=CARTESIAN_POINT('',(0.003,0.,0.0443486471045059));
#1829=CARTESIAN_POINT('',(7.17343650810834E-18,-0.00635,-1.38777878078145E-17));
#1830=CARTESIAN_POINT('',(0.0190500000000003,-0.00635,0.0401609262841383));
#1831=CARTESIAN_POINT('',(0.0190500000000003,-0.00635,0.0401609262841383));
#1832=CARTESIAN_POINT('',(0.0190500000000003,0.,0.0401609262841383));
#1833=CARTESIAN_POINT('',(7.17343650810834E-18,0.,-1.38777878078145E-17));
#1834=CARTESIAN_POINT('',(7.17343650810834E-18,-0.00635,-1.38777878078145E-17));
#1835=CARTESIAN_POINT('',(7.17343650810834E-18,-0.00635,-1.38777878078145E-17));
#1836=CARTESIAN_POINT('',(-0.003,-0.00635,0.0443486471045059));
#1837=CARTESIAN_POINT('',(-0.0369070550159733,-0.00635,0.0247723997636063));
#1838=CARTESIAN_POINT('',(-0.003,-0.0254,0.0443486471045059));
#1839=CARTESIAN_POINT('',(-0.003,0.,0.0443486471045059));
#1840=CARTESIAN_POINT('',(7.17343650810834E-18,0.,-1.38777878078145E-17));
#1841=CARTESIAN_POINT('',(-0.0369070550159733,0.,0.0247723997636063));
#1842=CARTESIAN_POINT('',(-0.0369070550159733,-0.0254,0.0247723997636063));
#1843=CARTESIAN_POINT('',(7.17343650810834E-18,-0.00635,-1.38777878078145E-17));
#1844=CARTESIAN_POINT('',(7.17343650810834E-18,-0.00635,-1.38777878078145E-17));
#1845=CARTESIAN_POINT('',(-0.0399070550159733,-0.00635,0.0195762473408996));
#1846=CARTESIAN_POINT('',(-0.0399070550159733,-0.00635,-0.0195762473408996));
#1847=CARTESIAN_POINT('',(-0.0399070550159733,-0.0254,0.0195762473408996));
#1848=CARTESIAN_POINT('',(-0.0399070550159733,0.,0.0195762473408996));
#1849=CARTESIAN_POINT('',(7.17343650810834E-18,0.,-1.38777878078145E-17));
#1850=CARTESIAN_POINT('',(-0.0399070550159733,0.,-0.0195762473408996));
#1851=CARTESIAN_POINT('',(-0.0399070550159733,-0.0254,-0.0195762473408996));
#1852=CARTESIAN_POINT('',(7.17343650810834E-18,-0.00635,-1.38777878078145E-17));
#1853=CARTESIAN_POINT('',(7.17343650810834E-18,-0.00635,-1.38777878078145E-17));
#1854=CARTESIAN_POINT('',(0.0399070550159733,-0.00635,-0.0195762473408996));
#1855=CARTESIAN_POINT('',(0.0399070550159733,-0.00635,0.0195762473408996));
#1856=CARTESIAN_POINT('',(0.0399070550159733,-0.0254,-0.0195762473408996));
#1857=CARTESIAN_POINT('',(0.0399070550159733,0.,-0.0195762473408996));
#1858=CARTESIAN_POINT('',(7.17343650810834E-18,0.,-1.38777878078145E-17));
#1859=CARTESIAN_POINT('',(0.0399070550159733,0.,0.0195762473408996));
#1860=CARTESIAN_POINT('',(0.0399070550159733,-0.0254,0.0195762473408996));
#1861=CARTESIAN_POINT('',(0.,-0.00635,0.));
#1862=CARTESIAN_POINT('',(-0.003,-0.00635,1.07185518347685E-19));
#1863=CARTESIAN_POINT('',(-0.003,-0.00635,-0.0343486471045059));
#1864=CARTESIAN_POINT('',(-4.20649607315751E-18,-0.00635,-0.0343486471045059));
#1865=CARTESIAN_POINT('',(0.003,-0.00635,-0.0343486471045059));
#1866=CARTESIAN_POINT('',(0.003,-0.00635,2.29187423505756E-20));
#1867=CARTESIAN_POINT('',(-0.0015,-0.00635,-0.00259807621135332));
#1868=CARTESIAN_POINT('',(0.0282468009781289,-0.00635,-0.0197723997636063));
#1869=CARTESIAN_POINT('',(0.0297468009781289,-0.00635,-0.0171743235522529));
#1870=CARTESIAN_POINT('',(0.0312468009781289,-0.00635,-0.0145762473408997));
#1871=CARTESIAN_POINT('',(0.0015,-0.00635,0.00259807621135331));
#1872=CARTESIAN_POINT('',(0.0015,-0.00635,-0.00259807621135332));
#1873=CARTESIAN_POINT('',(0.031246800978129,-0.00635,0.0145762473408996));
#1874=CARTESIAN_POINT('',(0.0297468009781289,-0.00635,0.0171743235522529));
#1875=CARTESIAN_POINT('',(0.028246800978129,-0.00635,0.0197723997636063));
#1876=CARTESIAN_POINT('',(-0.0015,-0.00635,0.00259807621135332));
#1877=CARTESIAN_POINT('',(0.0369070550159733,-0.00635,0.0247723997636062));
#1878=CARTESIAN_POINT('',(7.17343650810834E-18,-0.00635,-1.38777878078145E-17));
#1879=CARTESIAN_POINT('',(0.0218682105809336,-0.00635,0.0386986287352401));
#1880=CARTESIAN_POINT('',(0.0204591052904668,-0.00635,0.0394297775096893));
#1881=CARTESIAN_POINT('',(0.003,-0.00635,2.60208521396521E-19));
#1882=CARTESIAN_POINT('',(0.003,-0.00635,0.0343486471045059));
#1883=CARTESIAN_POINT('',(0.,-0.00635,0.0343486471045059));
#1884=CARTESIAN_POINT('',(-0.003,-0.00635,0.0343486471045059));
#1885=CARTESIAN_POINT('',(-0.003,-0.00635,-3.90312782094781E-19));
#1886=CARTESIAN_POINT('',(0.0015,-0.00635,0.00259807621135332));
#1887=CARTESIAN_POINT('',(-0.0282468009781289,-0.00635,0.0197723997636063));
#1888=CARTESIAN_POINT('',(-0.0297468009781289,-0.00635,0.0171743235522529));
#1889=CARTESIAN_POINT('',(-0.031246800978129,-0.00635,0.0145762473408996));
#1890=CARTESIAN_POINT('',(-0.0015,-0.00635,-0.00259807621135331));
#1891=CARTESIAN_POINT('',(-0.0015,-0.00635,0.00259807621135332));
#1892=CARTESIAN_POINT('',(-0.031246800978129,-0.00635,-0.0145762473408996));
#1893=CARTESIAN_POINT('',(-0.0297468009781289,-0.00635,-0.0171743235522529));
#1894=CARTESIAN_POINT('',(-0.028246800978129,-0.00635,-0.0197723997636063));
#1895=CARTESIAN_POINT('',(0.0015,-0.00635,-0.00259807621135332));
#1896=CARTESIAN_POINT('',(-0.0396875,-0.00635,4.86031698411606E-18));
#1897=CARTESIAN_POINT('',(-0.0396875,-0.00635,0.009525));
#1898=CARTESIAN_POINT('',(-0.0396875,-0.00635,-0.009525));
#1899=CARTESIAN_POINT('',(-0.0078153846153846,-0.00635,-0.0117230769230769));
#1900=CARTESIAN_POINT('',(-0.034925,-0.00635,0.00635));
#1901=CARTESIAN_POINT('',(-0.034925,-0.00635,4.27707894602213E-18));
#1902=CARTESIAN_POINT('',(-0.034925,-0.00635,-0.00635));
#1903=CARTESIAN_POINT('',(-0.00781538461538461,-0.00635,0.0117230769230769));
#1904=CARTESIAN_POINT('',(-0.0365125,-0.00635,-0.0127));
#1905=CARTESIAN_POINT('',(-0.0365125,-0.00635,-0.01508125));
#1906=CARTESIAN_POINT('',(0.0292547726280624,-0.00635,0.0252707525556793));
#1907=CARTESIAN_POINT('',(0.0292547726280624,-0.00635,0.0228895025556793));
#1908=CARTESIAN_POINT('',(0.01984375,-0.00635,-0.0343703832126949));
#1909=CARTESIAN_POINT('',(0.0115948580289532,-0.00635,-0.039132883212695));
#1910=CARTESIAN_POINT('',(0.0280926419710467,-0.00635,-0.0296078832126949));
#1911=CARTESIAN_POINT('',(0.014060174733596,-0.00635,-0.000906783155730694));
#1912=CARTESIAN_POINT('',(0.0119632386859688,-0.00635,-0.0334209372271716));
#1913=CARTESIAN_POINT('',(0.0174625,-0.00635,-0.0302459372271715));
#1914=CARTESIAN_POINT('',(0.0229617613140312,-0.00635,-0.0270709372271715));
#1915=CARTESIAN_POINT('',(-0.00624479011821143,-0.00635,-0.0126298600788076));
#1916=CARTESIAN_POINT('',(-0.00725772737193765,-0.00635,-0.0379707525556793));
#1917=CARTESIAN_POINT('',(-0.00725772737193765,-0.00635,-0.0403520025556793));
#1918=CARTESIAN_POINT('',(0.0365125,-0.00635,-0.0127));
#1919=CARTESIAN_POINT('',(0.0365125,-0.00635,-0.01508125));
#1920=CARTESIAN_POINT('',(-3.64801673760933E-18,-0.00635,2.08166817117217E-17));
#1921=CARTESIAN_POINT('',(-3.64801673760933E-18,-0.00635,-0.03175));
#1922=CARTESIAN_POINT('',(-0.0292547726280624,-0.00635,-0.0252707525556793));
#1923=CARTESIAN_POINT('',(-0.0292547726280624,-0.00635,-0.0276520025556793));
#1924=CARTESIAN_POINT('',(-0.01984375,-0.00635,-0.0343703832126949));
#1925=CARTESIAN_POINT('',(-0.0280926419710468,-0.00635,-0.0296078832126949));
#1926=CARTESIAN_POINT('',(-0.0115948580289532,-0.00635,-0.0391328832126949));
#1927=CARTESIAN_POINT('',(0.00624479011821141,-0.00635,-0.0126298600788076));
#1928=CARTESIAN_POINT('',(-0.0229617613140312,-0.00635,-0.0270709372271715));
#1929=CARTESIAN_POINT('',(-0.0174625,-0.00635,-0.0302459372271715));
#1930=CARTESIAN_POINT('',(-0.0119632386859688,-0.00635,-0.0334209372271715));
#1931=CARTESIAN_POINT('',(-0.014060174733596,-0.00635,-0.000906783155730681));
#1932=CARTESIAN_POINT('',(0.0292547726280624,-0.00635,-0.0252707525556794));
#1933=CARTESIAN_POINT('',(0.0292547726280624,-0.00635,-0.0276520025556794));
#1934=CARTESIAN_POINT('',(0.0072577273719376,-0.00635,-0.0379707525556794));
#1935=CARTESIAN_POINT('',(0.0072577273719376,-0.00635,-0.0403520025556794));
#1936=CARTESIAN_POINT('',(0.00725772737193763,-0.00635,0.0379707525556793));
#1937=CARTESIAN_POINT('',(0.00725772737193763,-0.00635,0.0355895025556793));
#1938=CARTESIAN_POINT('',(0.01984375,-0.00635,0.0343703832126949));
#1939=CARTESIAN_POINT('',(0.0280926419710468,-0.00635,0.0296078832126949));
#1940=CARTESIAN_POINT('',(0.0115948580289532,-0.00635,0.0391328832126949));
#1941=CARTESIAN_POINT('',(-0.00624479011821142,-0.00635,0.0126298600788076));
#1942=CARTESIAN_POINT('',(0.0229617613140312,-0.00635,0.0270709372271715));
#1943=CARTESIAN_POINT('',(0.0174625,-0.00635,0.0302459372271715));
#1944=CARTESIAN_POINT('',(0.0119632386859688,-0.00635,0.0334209372271715));
#1945=CARTESIAN_POINT('',(0.014060174733596,-0.00635,0.000906783155730687));
#1946=CARTESIAN_POINT('',(0.0365125,-0.00635,0.0127));
#1947=CARTESIAN_POINT('',(0.0365125,-0.00635,0.01031875));
#1948=CARTESIAN_POINT('',(0.0396875,-0.00635,0.));
#1949=CARTESIAN_POINT('',(0.0396875,-0.00635,-0.009525));
#1950=CARTESIAN_POINT('',(0.0396875,-0.00635,0.009525));
#1951=CARTESIAN_POINT('',(0.0078153846153846,-0.00635,0.0117230769230769));
#1952=CARTESIAN_POINT('',(0.034925,-0.00635,-0.00635));
#1953=CARTESIAN_POINT('',(0.034925,-0.00635,0.));
#1954=CARTESIAN_POINT('',(0.034925,-0.00635,0.00635));
#1955=CARTESIAN_POINT('',(0.00781538461538462,-0.00635,-0.0117230769230769));
#1956=CARTESIAN_POINT('',(-0.0365125,-0.00635,0.0127));
#1957=CARTESIAN_POINT('',(-0.0365125,-0.00635,0.01031875));
#1958=CARTESIAN_POINT('',(-0.00725772737193762,-0.00635,0.0379707525556793));
#1959=CARTESIAN_POINT('',(-0.00725772737193762,-0.00635,0.0355895025556793));
#1960=CARTESIAN_POINT('',(-0.0292547726280624,-0.00635,0.0252707525556794));
#1961=CARTESIAN_POINT('',(-0.0292547726280624,-0.00635,0.0228895025556793));
#1962=CARTESIAN_POINT('',(-0.01984375,-0.00635,0.0343703832126949));
#1963=CARTESIAN_POINT('',(-0.0115948580289532,-0.00635,0.0391328832126949));
#1964=CARTESIAN_POINT('',(-0.0280926419710467,-0.00635,0.0296078832126949));
#1965=CARTESIAN_POINT('',(-0.014060174733596,-0.00635,0.000906783155730686));
#1966=CARTESIAN_POINT('',(-0.0119632386859688,-0.00635,0.0334209372271715));
#1967=CARTESIAN_POINT('',(-0.0174625,-0.00635,0.0302459372271715));
#1968=CARTESIAN_POINT('',(-0.0229617613140312,-0.00635,0.0270709372271715));
#1969=CARTESIAN_POINT('',(0.00624479011821142,-0.00635,0.0126298600788076));
#1970=CARTESIAN_POINT('',(0.,0.,0.));
#1971=CARTESIAN_POINT('',(-0.003,0.,-0.0393486471045059));
#1972=CARTESIAN_POINT('',(-0.003,0.,-0.0343486471045059));
#1973=CARTESIAN_POINT('',(-0.0325769279970511,0.,-0.0222723997636062));
#1974=CARTESIAN_POINT('',(-0.028246800978129,0.,-0.0197723997636063));
#1975=CARTESIAN_POINT('',(-0.0297468009781289,0.,-0.0171743235522529));
#1976=CARTESIAN_POINT('',(-0.031246800978129,0.,-0.0145762473408996));
#1977=CARTESIAN_POINT('',(-0.0355769279970512,0.,-0.0170762473408996));
#1978=CARTESIAN_POINT('',(-0.0355769279970511,0.,0.0170762473408996));
#1979=CARTESIAN_POINT('',(-0.031246800978129,0.,0.0145762473408996));
#1980=CARTESIAN_POINT('',(-0.0297468009781289,0.,0.0171743235522529));
#1981=CARTESIAN_POINT('',(-0.0282468009781289,0.,0.0197723997636063));
#1982=CARTESIAN_POINT('',(-0.0325769279970511,0.,0.0222723997636063));
#1983=CARTESIAN_POINT('',(-0.003,0.,0.0393486471045059));
#1984=CARTESIAN_POINT('',(-0.003,0.,0.0343486471045059));
#1985=CARTESIAN_POINT('',(4.33680868994202E-19,0.,0.0343486471045059));
#1986=CARTESIAN_POINT('',(0.003,0.,0.0343486471045059));
#1987=CARTESIAN_POINT('',(0.003,0.,0.0393486471045059));
#1988=CARTESIAN_POINT('',(0.0204591052904668,0.,0.0394297775096893));
#1989=CARTESIAN_POINT('',(0.0218682105809336,0.,0.0386986287352401));
#1990=CARTESIAN_POINT('',(7.17343650810834E-18,0.,-1.38777878078145E-17));
#1991=CARTESIAN_POINT('',(0.0369070550159733,0.,0.0247723997636062));
#1992=CARTESIAN_POINT('',(0.0325769279970511,0.,0.0222723997636062));
#1993=CARTESIAN_POINT('',(0.028246800978129,0.,0.0197723997636063));
#1994=CARTESIAN_POINT('',(0.0297468009781289,0.,0.0171743235522529));
#1995=CARTESIAN_POINT('',(0.031246800978129,0.,0.0145762473408996));
#1996=CARTESIAN_POINT('',(0.0355769279970512,0.,0.0170762473408996));
#1997=CARTESIAN_POINT('',(0.0355769279970511,0.,-0.0170762473408996));
#1998=CARTESIAN_POINT('',(0.0312468009781289,0.,-0.0145762473408997));
#1999=CARTESIAN_POINT('',(0.0297468009781289,0.,-0.0171743235522529));
#2000=CARTESIAN_POINT('',(0.0282468009781289,0.,-0.0197723997636063));
#2001=CARTESIAN_POINT('',(0.0325769279970511,0.,-0.0222723997636063));
#2002=CARTESIAN_POINT('',(0.003,0.,-0.0393486471045059));
#2003=CARTESIAN_POINT('',(0.003,0.,-0.0343486471045059));
#2004=CARTESIAN_POINT('',(-4.64017694215172E-18,0.,-0.0343486471045059));
#2005=CARTESIAN_POINT('',(-0.0292547726280624,0.,0.0252707525556794));
#2006=CARTESIAN_POINT('',(-0.0271925496353007,0.,0.0264613775556794));
#2007=CARTESIAN_POINT('',(-0.00725772737193762,0.,0.0379707525556793));
#2008=CARTESIAN_POINT('',(-0.00519550437917593,0.,0.0391613775556793));
#2009=CARTESIAN_POINT('',(-0.0365125,0.,0.0127));
#2010=CARTESIAN_POINT('',(-0.0365125,0.,0.01508125));
#2011=CARTESIAN_POINT('',(-0.0365125,0.,-0.0127));
#2012=CARTESIAN_POINT('',(-0.0365125,0.,-0.01031875));
#2013=CARTESIAN_POINT('',(0.0365125,0.,0.0127));
#2014=CARTESIAN_POINT('',(0.0365125,0.,0.01031875));
#2015=CARTESIAN_POINT('',(0.0292547726280624,0.,0.0252707525556793));
#2016=CARTESIAN_POINT('',(0.0313169956208241,0.,0.0240801275556793));
#2017=CARTESIAN_POINT('',(0.00725772737193763,0.,0.0379707525556793));
#2018=CARTESIAN_POINT('',(0.00931995036469933,0.,0.0367801275556793));
#2019=CARTESIAN_POINT('',(0.0072577273719376,0.,-0.0379707525556794));
#2020=CARTESIAN_POINT('',(0.0051955043791759,0.,-0.0391613775556794));
#2021=CARTESIAN_POINT('',(0.0292547726280624,0.,-0.0252707525556794));
#2022=CARTESIAN_POINT('',(0.0271925496353007,0.,-0.0264613775556794));
#2023=CARTESIAN_POINT('',(-0.00725772737193765,0.,-0.0379707525556793));
#2024=CARTESIAN_POINT('',(-0.00931995036469934,0.,-0.0367801275556793));
#2025=CARTESIAN_POINT('',(-0.0292547726280624,0.,-0.0252707525556793));
#2026=CARTESIAN_POINT('',(-0.0313169956208241,0.,-0.0240801275556793));
#2027=CARTESIAN_POINT('',(0.0365125,0.,-0.0127));
#2028=CARTESIAN_POINT('',(0.0365125,0.,-0.01508125));
#2029=CARTESIAN_POINT('',(-3.64801673760933E-18,0.,2.08166817117217E-17));
#2030=CARTESIAN_POINT('',(-3.64801673760933E-18,0.,-0.03175));
#2031=CARTESIAN_POINT('',(-0.025527201642539,0.,-0.0283394102199332));
#2032=CARTESIAN_POINT('',(-0.0280926419710468,0.,-0.0296078832126949));
#2033=CARTESIAN_POINT('',(-0.0229617613140312,0.,-0.0270709372271715));
#2034=CARTESIAN_POINT('',(-0.01984375,0.,-0.0343703832126949));
#2035=CARTESIAN_POINT('',(-0.0115948580289532,0.,-0.0391328832126949));
#2036=CARTESIAN_POINT('',(-0.011779048357461,0.,-0.0362769102199332));
#2037=CARTESIAN_POINT('',(-0.0119632386859688,0.,-0.0334209372271715));
#2038=CARTESIAN_POINT('',(-0.0174625,0.,-0.0302459372271715));
#2039=CARTESIAN_POINT('',(0.011779048357461,0.,-0.0362769102199332));
#2040=CARTESIAN_POINT('',(0.0115948580289532,0.,-0.039132883212695));
#2041=CARTESIAN_POINT('',(0.0119632386859688,0.,-0.0334209372271716));
#2042=CARTESIAN_POINT('',(0.01984375,0.,-0.0343703832126949));
#2043=CARTESIAN_POINT('',(0.0280926419710467,0.,-0.0296078832126949));
#2044=CARTESIAN_POINT('',(0.025527201642539,0.,-0.0283394102199333));
#2045=CARTESIAN_POINT('',(0.0229617613140312,0.,-0.0270709372271715));
#2046=CARTESIAN_POINT('',(0.0174625,0.,-0.0302459372271715));
#2047=CARTESIAN_POINT('',(0.025527201642539,0.,0.0283394102199332));
#2048=CARTESIAN_POINT('',(0.0280926419710468,0.,0.0296078832126949));
#2049=CARTESIAN_POINT('',(0.0229617613140312,0.,0.0270709372271715));
#2050=CARTESIAN_POINT('',(0.01984375,0.,0.0343703832126949));
#2051=CARTESIAN_POINT('',(0.0115948580289532,0.,0.0391328832126949));
#2052=CARTESIAN_POINT('',(0.011779048357461,0.,0.0362769102199332));
#2053=CARTESIAN_POINT('',(0.0119632386859688,0.,0.0334209372271715));
#2054=CARTESIAN_POINT('',(0.0174625,0.,0.0302459372271715));
#2055=CARTESIAN_POINT('',(0.03730625,0.,-0.0079375));
#2056=CARTESIAN_POINT('',(0.0396875,0.,-0.009525));
#2057=CARTESIAN_POINT('',(0.034925,0.,-0.00635));
#2058=CARTESIAN_POINT('',(0.0396875,0.,0.));
#2059=CARTESIAN_POINT('',(0.0396875,0.,0.009525));
#2060=CARTESIAN_POINT('',(0.03730625,0.,0.0079375));
#2061=CARTESIAN_POINT('',(0.034925,0.,0.00635));
#2062=CARTESIAN_POINT('',(0.034925,0.,-8.67361737988404E-19));
#2063=CARTESIAN_POINT('',(-0.03730625,0.,0.0079375));
#2064=CARTESIAN_POINT('',(-0.0396875,0.,0.009525));
#2065=CARTESIAN_POINT('',(-0.034925,0.,0.00635));
#2066=CARTESIAN_POINT('',(-0.0396875,0.,4.86031698411606E-18));
#2067=CARTESIAN_POINT('',(-0.0396875,0.,-0.009525));
#2068=CARTESIAN_POINT('',(-0.03730625,0.,-0.0079375));
#2069=CARTESIAN_POINT('',(-0.034925,0.,-0.00635));
#2070=CARTESIAN_POINT('',(-0.034925,0.,5.14444068401054E-18));
#2071=CARTESIAN_POINT('',(-0.011779048357461,0.,0.0362769102199332));
#2072=CARTESIAN_POINT('',(-0.0115948580289532,0.,0.0391328832126949));
#2073=CARTESIAN_POINT('',(-0.0119632386859688,0.,0.0334209372271715));
#2074=CARTESIAN_POINT('',(-0.01984375,0.,0.0343703832126949));
#2075=CARTESIAN_POINT('',(-0.0280926419710467,0.,0.0296078832126949));
#2076=CARTESIAN_POINT('',(-0.025527201642539,0.,0.0283394102199332));
#2077=CARTESIAN_POINT('',(-0.0229617613140312,0.,0.0270709372271715));
#2078=CARTESIAN_POINT('',(-0.0174625,0.,0.0302459372271715));
#2079=CARTESIAN_POINT('',(0.0204591052904668,-0.00635,0.0394297775096893));
#2080=CARTESIAN_POINT('',(0.0218682105809336,-0.00635,0.0386986287352401));
#2081=CARTESIAN_POINT('',(7.17343650810834E-18,-0.00635,-1.38777878078145E-17));
#2082=CARTESIAN_POINT('',(0.0369070550159733,-0.0254,0.0247723997636062));
#2083=CARTESIAN_POINT('',(-3.64801673760933E-18,-0.00635,2.08166817117217E-17));
#2084=CARTESIAN_POINT('',(0.0365125,-0.0254,-0.0127));
#2085=CARTESIAN_POINT('',(0.0355769279970512,-0.0254,0.0170762473408996));
#2086=CARTESIAN_POINT('',(0.031246800978129,-0.0254,0.0145762473408996));
#2087=CARTESIAN_POINT('',(0.0325769279970511,-0.0254,0.0222723997636062));
#2088=CARTESIAN_POINT('',(0.028246800978129,-0.0254,0.0197723997636063));
#2089=CARTESIAN_POINT('',(0.0297468009781289,-0.0254,0.0171743235522529));
#2090=CARTESIAN_POINT('',(-0.0292547726280624,-0.0254,-0.0252707525556793));
#2091=CARTESIAN_POINT('',(-0.01984375,-0.0254,-0.0343703832126949));
#2092=CARTESIAN_POINT('',(-0.0115948580289532,-0.0254,-0.0391328832126949));
#2093=CARTESIAN_POINT('',(-0.0280926419710468,-0.0254,-0.0296078832126949));
#2094=CARTESIAN_POINT('',(-0.011779048357461,-0.0254,-0.0362769102199332));
#2095=CARTESIAN_POINT('',(-0.0119632386859688,-0.0254,-0.0334209372271715));
#2096=CARTESIAN_POINT('',(-0.0174625,-0.0254,-0.0302459372271715));
#2097=CARTESIAN_POINT('',(-0.0229617613140312,-0.0254,-0.0270709372271715));
#2098=CARTESIAN_POINT('',(-0.025527201642539,-0.0254,-0.0283394102199332));
#2099=CARTESIAN_POINT('',(-0.00725772737193765,-0.0254,-0.0379707525556793));
#2100=CARTESIAN_POINT('',(0.01984375,-0.0254,-0.0343703832126949));
#2101=CARTESIAN_POINT('',(0.0280926419710467,-0.0254,-0.0296078832126949));
#2102=CARTESIAN_POINT('',(0.0115948580289532,-0.0254,-0.039132883212695));
#2103=CARTESIAN_POINT('',(0.025527201642539,-0.0254,-0.0283394102199333));
#2104=CARTESIAN_POINT('',(0.0229617613140312,-0.0254,-0.0270709372271715));
#2105=CARTESIAN_POINT('',(0.0174625,-0.0254,-0.0302459372271715));
#2106=CARTESIAN_POINT('',(0.0119632386859688,-0.0254,-0.0334209372271716));
#2107=CARTESIAN_POINT('',(0.011779048357461,-0.0254,-0.0362769102199332));
#2108=CARTESIAN_POINT('',(0.0292547726280624,-0.0254,-0.0252707525556794));
#2109=CARTESIAN_POINT('',(0.0072577273719376,-0.0254,-0.0379707525556794));
#2110=CARTESIAN_POINT('',(0.00725772737193763,-0.0254,0.0379707525556793));
#2111=CARTESIAN_POINT('',(0.01984375,-0.0254,0.0343703832126949));
#2112=CARTESIAN_POINT('',(0.0115948580289532,-0.0254,0.0391328832126949));
#2113=CARTESIAN_POINT('',(0.0280926419710468,-0.0254,0.0296078832126949));
#2114=CARTESIAN_POINT('',(0.011779048357461,-0.0254,0.0362769102199332));
#2115=CARTESIAN_POINT('',(0.0119632386859688,-0.0254,0.0334209372271715));
#2116=CARTESIAN_POINT('',(0.0174625,-0.0254,0.0302459372271715));
#2117=CARTESIAN_POINT('',(0.0229617613140312,-0.0254,0.0270709372271715));
#2118=CARTESIAN_POINT('',(0.025527201642539,-0.0254,0.0283394102199332));
#2119=CARTESIAN_POINT('',(0.0292547726280624,-0.0254,0.0252707525556793));
#2120=CARTESIAN_POINT('',(-0.0355769279970512,-0.0254,-0.0170762473408996));
#2121=CARTESIAN_POINT('',(-0.031246800978129,-0.0254,-0.0145762473408996));
#2122=CARTESIAN_POINT('',(-0.0325769279970511,-0.0254,-0.0222723997636062));
#2123=CARTESIAN_POINT('',(-0.028246800978129,-0.0254,-0.0197723997636063));
#2124=CARTESIAN_POINT('',(-0.0297468009781289,-0.0254,-0.0171743235522529));
#2125=CARTESIAN_POINT('',(-0.0325769279970511,-0.0254,0.0222723997636063));
#2126=CARTESIAN_POINT('',(-0.0282468009781289,-0.0254,0.0197723997636063));
#2127=CARTESIAN_POINT('',(-0.0355769279970511,-0.0254,0.0170762473408996));
#2128=CARTESIAN_POINT('',(-0.031246800978129,-0.0254,0.0145762473408996));
#2129=CARTESIAN_POINT('',(-0.0297468009781289,-0.0254,0.0171743235522529));
#2130=CARTESIAN_POINT('',(0.003,-0.0254,0.0393486471045059));
#2131=CARTESIAN_POINT('',(0.003,-0.0254,0.0343486471045059));
#2132=CARTESIAN_POINT('',(-0.003,-0.0254,0.0393486471045059));
#2133=CARTESIAN_POINT('',(-0.003,-0.0254,0.0343486471045059));
#2134=CARTESIAN_POINT('',(4.33680868994202E-19,-0.0254,0.0343486471045059));
#2135=CARTESIAN_POINT('',(0.0365125,-0.0254,0.0127));
#2136=CARTESIAN_POINT('',(0.0396875,-0.0254,0.));
#2137=CARTESIAN_POINT('',(0.0396875,-0.0254,0.009525));
#2138=CARTESIAN_POINT('',(0.0396875,-0.0254,-0.009525));
#2139=CARTESIAN_POINT('',(0.03730625,-0.0254,0.0079375));
#2140=CARTESIAN_POINT('',(0.034925,-0.0254,0.00635));
#2141=CARTESIAN_POINT('',(0.034925,-0.0254,-8.67361737988404E-19));
#2142=CARTESIAN_POINT('',(0.034925,-0.0254,-0.00635));
#2143=CARTESIAN_POINT('',(0.03730625,-0.0254,-0.0079375));
#2144=CARTESIAN_POINT('',(-0.0365125,-0.0254,-0.0127));
#2145=CARTESIAN_POINT('',(-0.0396875,-0.0254,4.86031698411606E-18));
#2146=CARTESIAN_POINT('',(-0.0396875,-0.0254,-0.009525));
#2147=CARTESIAN_POINT('',(-0.0396875,-0.0254,0.009525));
#2148=CARTESIAN_POINT('',(-0.03730625,-0.0254,-0.0079375));
#2149=CARTESIAN_POINT('',(-0.034925,-0.0254,-0.00635));
#2150=CARTESIAN_POINT('',(-0.034925,-0.0254,5.14444068401054E-18));
#2151=CARTESIAN_POINT('',(-0.034925,-0.0254,0.00635));
#2152=CARTESIAN_POINT('',(-0.03730625,-0.0254,0.0079375));
#2153=CARTESIAN_POINT('',(-0.0365125,-0.0254,0.0127));
#2154=CARTESIAN_POINT('',(0.0325769279970511,-0.0254,-0.0222723997636063));
#2155=CARTESIAN_POINT('',(0.0282468009781289,-0.0254,-0.0197723997636063));
#2156=CARTESIAN_POINT('',(0.0355769279970511,-0.0254,-0.0170762473408996));
#2157=CARTESIAN_POINT('',(0.0312468009781289,-0.0254,-0.0145762473408997));
#2158=CARTESIAN_POINT('',(0.0297468009781289,-0.0254,-0.0171743235522529));
#2159=CARTESIAN_POINT('',(-0.003,-0.0254,-0.0393486471045059));
#2160=CARTESIAN_POINT('',(-0.003,-0.0254,-0.0343486471045059));
#2161=CARTESIAN_POINT('',(0.003,-0.0254,-0.0393486471045059));
#2162=CARTESIAN_POINT('',(0.003,-0.0254,-0.0343486471045059));
#2163=CARTESIAN_POINT('',(-4.64017694215172E-18,-0.0254,-0.0343486471045059));
#2164=CARTESIAN_POINT('',(-0.00725772737193762,-0.0254,0.0379707525556793));
#2165=CARTESIAN_POINT('',(-0.0292547726280624,-0.0254,0.0252707525556794));
#2166=CARTESIAN_POINT('',(-0.01984375,-0.0254,0.0343703832126949));
#2167=CARTESIAN_POINT('',(-0.0280926419710467,-0.0254,0.0296078832126949));
#2168=CARTESIAN_POINT('',(-0.0115948580289532,-0.0254,0.0391328832126949));
#2169=CARTESIAN_POINT('',(-0.025527201642539,-0.0254,0.0283394102199332));
#2170=CARTESIAN_POINT('',(-0.0229617613140312,-0.0254,0.0270709372271715));
#2171=CARTESIAN_POINT('',(-0.0174625,-0.0254,0.0302459372271715));
#2172=CARTESIAN_POINT('',(-0.0119632386859688,-0.0254,0.0334209372271715));
#2173=CARTESIAN_POINT('',(-0.011779048357461,-0.0254,0.0362769102199332));
#2174=MECHANICAL_DESIGN_GEOMETRIC_PRESENTATION_REPRESENTATION('',(#1341),
#2175);
#2175=(
GEOMETRIC_REPRESENTATION_CONTEXT(3)
GLOBAL_UNCERTAINTY_ASSIGNED_CONTEXT((#2176))
GLOBAL_UNIT_ASSIGNED_CONTEXT((#2179,#2178,#2177))
REPRESENTATION_CONTEXT('Full Ring','TOP_LEVEL_ASSEMBLY_PART')
);
#2176=UNCERTAINTY_MEASURE_WITH_UNIT(LENGTH_MEASURE(1.E-8),#2179,
'DISTANCE_ACCURACY_VALUE','Maximum Tolerance applied to model');
#2177=(
NAMED_UNIT(*)
SI_UNIT($,.STERADIAN.)
SOLID_ANGLE_UNIT()
);
#2178=(
NAMED_UNIT(*)
PLANE_ANGLE_UNIT()
SI_UNIT($,.RADIAN.)
);
#2179=(
LENGTH_UNIT()
NAMED_UNIT(*)
SI_UNIT($,.METRE.)
);
#2180=PRODUCT_DEFINITION_SHAPE('','',#2181);
#2181=PRODUCT_DEFINITION('','',#2183,#2182);
#2182=PRODUCT_DEFINITION_CONTEXT('',#2189,'design');
#2183=PRODUCT_DEFINITION_FORMATION_WITH_SPECIFIED_SOURCE('','',#2185,
 .NOT_KNOWN.);
#2184=PRODUCT_RELATED_PRODUCT_CATEGORY('','',(#2185));
#2185=PRODUCT('Full Ring','Full Ring','Full Ring',(#2187));
#2186=PRODUCT_CATEGORY('','');
#2187=PRODUCT_CONTEXT('',#2189,'mechanical');
#2188=APPLICATION_PROTOCOL_DEFINITION('international standard',
'ap242_managed_model_based_3d_engineering',2020,#2189);
#2189=APPLICATION_CONTEXT('managed model based 3d engineering');
ENDSEC;
END-ISO-10303-21;
