ISO-10303-21;
HEADER;
/* Generated by software containing ST-Developer
 * from STEP Tools, Inc. (www.steptools.com) 
 */
/* OPTION: using custom renumber hook */

FILE_DESCRIPTION(
/* description */ ('STEP AP242 Edition 2',
'CAx-IF Rec.Pracs.---Representation and Presentation of Product Manufa
cturing Information (PMI)---4.0---2014-10-13',
'CAx-IF Rec.Pracs.---3D Tessellated Geometry---0.4---2014-09-14','2;1',
'CAx-IF Rec.Pracs.---User Defined Attributes---1.5---2016-08-15'),
/* implementation_level */ '2;1');

FILE_NAME(
/* name */ 'Front Hull and Nose - Hull3',
/* time_stamp */ '2026-08-24T02:47:04Z',
/* author */ (''),
/* organization */ (''),
/* preprocessor_version */ 'ST-DEVELOPER v20',
/* originating_system */ 'ONSHAPE BY PTC INC, 1.219',
/* authorisation */ '  ');

FILE_SCHEMA (('AP242_MANAGED_MODEL_BASED_3D_ENGINEERING_MIM_LF { 1 0 10303 442 3 1 4 }'));
ENDSEC;

DATA;
#10=SHAPE_REPRESENTATION_RELATIONSHIP('','',#610,#11);
#11=ADVANCED_BREP_SHAPE_REPRESENTATION('',(#608),#1001);
#12=PLANE('',#632);
#13=PLANE('',#636);
#14=PLANE('',#641);
#15=PLANE('',#642);
#16=PLANE('',#643);
#17=PLANE('',#644);
#18=PLANE('',#645);
#19=PLANE('',#646);
#20=PLANE('',#647);
#21=PLANE('',#648);
#22=PLANE('',#649);
#23=PLANE('',#650);
#24=PLANE('',#651);
#25=PLANE('',#652);
#26=PLANE('',#653);
#27=PLANE('',#654);
#28=PLANE('',#655);
#29=PLANE('',#656);
#30=PLANE('',#657);
#31=PLANE('',#658);
#32=PLANE('',#659);
#33=PLANE('',#660);
#34=CIRCLE('',#614,0.04445);
#35=CIRCLE('',#617,0.04445);
#36=CIRCLE('',#620,0.04445);
#37=CIRCLE('',#623,0.04445);
#38=CIRCLE('',#626,0.04445);
#39=CIRCLE('',#627,0.04445);
#40=CIRCLE('',#630,0.04445);
#41=CIRCLE('',#631,0.04445);
#42=CIRCLE('',#634,0.009525);
#43=CIRCLE('',#635,0.009525);
#44=CIRCLE('',#639,0.04585);
#45=CIRCLE('',#640,0.04585);
#46=LINE('',#832,#112);
#47=LINE('',#836,#113);
#48=LINE('',#841,#114);
#49=LINE('',#845,#115);
#50=LINE('',#850,#116);
#51=LINE('',#854,#117);
#52=LINE('',#859,#118);
#53=LINE('',#863,#119);
#54=LINE('',#868,#120);
#55=LINE('',#872,#121);
#56=LINE('',#876,#122);
#57=LINE('',#881,#123);
#58=LINE('',#885,#124);
#59=LINE('',#889,#125);
#60=LINE('',#891,#126);
#61=LINE('',#893,#127);
#62=LINE('',#895,#128);
#63=LINE('',#901,#129);
#64=LINE('',#903,#130);
#65=LINE('',#904,#131);
#66=LINE('',#906,#132);
#67=LINE('',#911,#133);
#68=LINE('',#917,#134);
#69=LINE('',#918,#135);
#70=LINE('',#920,#136);
#71=LINE('',#922,#137);
#72=LINE('',#924,#138);
#73=LINE('',#925,#139);
#74=LINE('',#927,#140);
#75=LINE('',#929,#141);
#76=LINE('',#930,#142);
#77=LINE('',#932,#143);
#78=LINE('',#934,#144);
#79=LINE('',#935,#145);
#80=LINE('',#937,#146);
#81=LINE('',#939,#147);
#82=LINE('',#940,#148);
#83=LINE('',#942,#149);
#84=LINE('',#944,#150);
#85=LINE('',#946,#151);
#86=LINE('',#948,#152);
#87=LINE('',#950,#153);
#88=LINE('',#952,#154);
#89=LINE('',#954,#155);
#90=LINE('',#956,#156);
#91=LINE('',#958,#157);
#92=LINE('',#960,#158);
#93=LINE('',#962,#159);
#94=LINE('',#964,#160);
#95=LINE('',#966,#161);
#96=LINE('',#968,#162);
#97=LINE('',#970,#163);
#98=LINE('',#972,#164);
#99=LINE('',#974,#165);
#100=LINE('',#976,#166);
#101=LINE('',#978,#167);
#102=LINE('',#980,#168);
#103=LINE('',#982,#169);
#104=LINE('',#984,#170);
#105=LINE('',#986,#171);
#106=LINE('',#988,#172);
#107=LINE('',#990,#173);
#108=LINE('',#992,#174);
#109=LINE('',#994,#175);
#110=LINE('',#996,#176);
#111=LINE('',#998,#177);
#112=VECTOR('',#667,1.);
#113=VECTOR('',#670,1.);
#114=VECTOR('',#675,1.);
#115=VECTOR('',#678,1.);
#116=VECTOR('',#683,1.);
#117=VECTOR('',#686,1.);
#118=VECTOR('',#691,1.);
#119=VECTOR('',#694,1.);
#120=VECTOR('',#699,1.);
#121=VECTOR('',#702,1.);
#122=VECTOR('',#705,1.);
#123=VECTOR('',#710,1.);
#124=VECTOR('',#713,1.);
#125=VECTOR('',#716,1.);
#126=VECTOR('',#719,1.);
#127=VECTOR('',#720,1.);
#128=VECTOR('',#721,1.);
#129=VECTOR('',#728,1.);
#130=VECTOR('',#731,1.);
#131=VECTOR('',#732,1.);
#132=VECTOR('',#735,1.);
#133=VECTOR('',#738,1.);
#134=VECTOR('',#745,1.);
#135=VECTOR('',#746,1.);
#136=VECTOR('',#749,1.);
#137=VECTOR('',#750,1.);
#138=VECTOR('',#751,1.);
#139=VECTOR('',#752,1.);
#140=VECTOR('',#753,1.);
#141=VECTOR('',#754,1.);
#142=VECTOR('',#755,1.);
#143=VECTOR('',#756,1.);
#144=VECTOR('',#757,1.);
#145=VECTOR('',#758,1.);
#146=VECTOR('',#759,1.);
#147=VECTOR('',#760,1.);
#148=VECTOR('',#761,1.);
#149=VECTOR('',#762,1.);
#150=VECTOR('',#763,1.);
#151=VECTOR('',#766,1.);
#152=VECTOR('',#767,1.);
#153=VECTOR('',#770,1.);
#154=VECTOR('',#771,1.);
#155=VECTOR('',#774,1.);
#156=VECTOR('',#777,1.);
#157=VECTOR('',#778,1.);
#158=VECTOR('',#781,1.);
#159=VECTOR('',#782,1.);
#160=VECTOR('',#785,1.);
#161=VECTOR('',#788,1.);
#162=VECTOR('',#789,1.);
#163=VECTOR('',#792,1.);
#164=VECTOR('',#793,1.);
#165=VECTOR('',#796,1.);
#166=VECTOR('',#799,1.);
#167=VECTOR('',#800,1.);
#168=VECTOR('',#803,1.);
#169=VECTOR('',#804,1.);
#170=VECTOR('',#807,1.);
#171=VECTOR('',#810,1.);
#172=VECTOR('',#811,1.);
#173=VECTOR('',#814,1.);
#174=VECTOR('',#815,1.);
#175=VECTOR('',#818,1.);
#176=VECTOR('',#821,1.);
#177=VECTOR('',#824,1.);
#178=ORIENTED_EDGE('',*,*,#348,.F.);
#179=ORIENTED_EDGE('',*,*,#349,.T.);
#180=ORIENTED_EDGE('',*,*,#350,.T.);
#181=ORIENTED_EDGE('',*,*,#351,.F.);
#182=ORIENTED_EDGE('',*,*,#352,.F.);
#183=ORIENTED_EDGE('',*,*,#353,.T.);
#184=ORIENTED_EDGE('',*,*,#354,.T.);
#185=ORIENTED_EDGE('',*,*,#355,.F.);
#186=ORIENTED_EDGE('',*,*,#356,.F.);
#187=ORIENTED_EDGE('',*,*,#357,.T.);
#188=ORIENTED_EDGE('',*,*,#358,.T.);
#189=ORIENTED_EDGE('',*,*,#359,.F.);
#190=ORIENTED_EDGE('',*,*,#360,.F.);
#191=ORIENTED_EDGE('',*,*,#361,.T.);
#192=ORIENTED_EDGE('',*,*,#362,.T.);
#193=ORIENTED_EDGE('',*,*,#363,.F.);
#194=ORIENTED_EDGE('',*,*,#364,.F.);
#195=ORIENTED_EDGE('',*,*,#365,.F.);
#196=ORIENTED_EDGE('',*,*,#366,.F.);
#197=ORIENTED_EDGE('',*,*,#367,.T.);
#198=ORIENTED_EDGE('',*,*,#368,.T.);
#199=ORIENTED_EDGE('',*,*,#369,.F.);
#200=ORIENTED_EDGE('',*,*,#370,.F.);
#201=ORIENTED_EDGE('',*,*,#371,.T.);
#202=ORIENTED_EDGE('',*,*,#372,.T.);
#203=ORIENTED_EDGE('',*,*,#373,.F.);
#204=ORIENTED_EDGE('',*,*,#374,.F.);
#205=ORIENTED_EDGE('',*,*,#375,.F.);
#206=ORIENTED_EDGE('',*,*,#376,.F.);
#207=ORIENTED_EDGE('',*,*,#367,.F.);
#208=ORIENTED_EDGE('',*,*,#377,.T.);
#209=ORIENTED_EDGE('',*,*,#378,.T.);
#210=ORIENTED_EDGE('',*,*,#379,.T.);
#211=ORIENTED_EDGE('',*,*,#378,.F.);
#212=ORIENTED_EDGE('',*,*,#380,.F.);
#213=ORIENTED_EDGE('',*,*,#381,.T.);
#214=ORIENTED_EDGE('',*,*,#382,.T.);
#215=ORIENTED_EDGE('',*,*,#381,.F.);
#216=ORIENTED_EDGE('',*,*,#383,.F.);
#217=ORIENTED_EDGE('',*,*,#373,.T.);
#218=ORIENTED_EDGE('',*,*,#384,.T.);
#219=ORIENTED_EDGE('',*,*,#385,.T.);
#220=ORIENTED_EDGE('',*,*,#386,.T.);
#221=ORIENTED_EDGE('',*,*,#387,.T.);
#222=ORIENTED_EDGE('',*,*,#388,.F.);
#223=ORIENTED_EDGE('',*,*,#389,.F.);
#224=ORIENTED_EDGE('',*,*,#387,.F.);
#225=ORIENTED_EDGE('',*,*,#390,.F.);
#226=ORIENTED_EDGE('',*,*,#374,.T.);
#227=ORIENTED_EDGE('',*,*,#383,.T.);
#228=ORIENTED_EDGE('',*,*,#380,.T.);
#229=ORIENTED_EDGE('',*,*,#377,.F.);
#230=ORIENTED_EDGE('',*,*,#366,.T.);
#231=ORIENTED_EDGE('',*,*,#376,.T.);
#232=ORIENTED_EDGE('',*,*,#379,.F.);
#233=ORIENTED_EDGE('',*,*,#382,.F.);
#234=ORIENTED_EDGE('',*,*,#372,.F.);
#235=ORIENTED_EDGE('',*,*,#391,.T.);
#236=ORIENTED_EDGE('',*,*,#392,.T.);
#237=ORIENTED_EDGE('',*,*,#393,.T.);
#238=ORIENTED_EDGE('',*,*,#350,.F.);
#239=ORIENTED_EDGE('',*,*,#394,.T.);
#240=ORIENTED_EDGE('',*,*,#395,.T.);
#241=ORIENTED_EDGE('',*,*,#396,.T.);
#242=ORIENTED_EDGE('',*,*,#354,.F.);
#243=ORIENTED_EDGE('',*,*,#397,.T.);
#244=ORIENTED_EDGE('',*,*,#398,.T.);
#245=ORIENTED_EDGE('',*,*,#399,.T.);
#246=ORIENTED_EDGE('',*,*,#358,.F.);
#247=ORIENTED_EDGE('',*,*,#400,.T.);
#248=ORIENTED_EDGE('',*,*,#401,.T.);
#249=ORIENTED_EDGE('',*,*,#402,.T.);
#250=ORIENTED_EDGE('',*,*,#362,.F.);
#251=ORIENTED_EDGE('',*,*,#403,.T.);
#252=ORIENTED_EDGE('',*,*,#404,.T.);
#253=ORIENTED_EDGE('',*,*,#405,.T.);
#254=ORIENTED_EDGE('',*,*,#368,.F.);
#255=ORIENTED_EDGE('',*,*,#388,.T.);
#256=ORIENTED_EDGE('',*,*,#361,.F.);
#257=ORIENTED_EDGE('',*,*,#406,.T.);
#258=ORIENTED_EDGE('',*,*,#407,.T.);
#259=ORIENTED_EDGE('',*,*,#403,.F.);
#260=ORIENTED_EDGE('',*,*,#407,.F.);
#261=ORIENTED_EDGE('',*,*,#408,.T.);
#262=ORIENTED_EDGE('',*,*,#409,.T.);
#263=ORIENTED_EDGE('',*,*,#404,.F.);
#264=ORIENTED_EDGE('',*,*,#409,.F.);
#265=ORIENTED_EDGE('',*,*,#410,.T.);
#266=ORIENTED_EDGE('',*,*,#369,.T.);
#267=ORIENTED_EDGE('',*,*,#405,.F.);
#268=ORIENTED_EDGE('',*,*,#357,.F.);
#269=ORIENTED_EDGE('',*,*,#411,.T.);
#270=ORIENTED_EDGE('',*,*,#412,.T.);
#271=ORIENTED_EDGE('',*,*,#400,.F.);
#272=ORIENTED_EDGE('',*,*,#412,.F.);
#273=ORIENTED_EDGE('',*,*,#413,.T.);
#274=ORIENTED_EDGE('',*,*,#414,.T.);
#275=ORIENTED_EDGE('',*,*,#401,.F.);
#276=ORIENTED_EDGE('',*,*,#414,.F.);
#277=ORIENTED_EDGE('',*,*,#415,.T.);
#278=ORIENTED_EDGE('',*,*,#363,.T.);
#279=ORIENTED_EDGE('',*,*,#402,.F.);
#280=ORIENTED_EDGE('',*,*,#353,.F.);
#281=ORIENTED_EDGE('',*,*,#416,.T.);
#282=ORIENTED_EDGE('',*,*,#417,.T.);
#283=ORIENTED_EDGE('',*,*,#397,.F.);
#284=ORIENTED_EDGE('',*,*,#417,.F.);
#285=ORIENTED_EDGE('',*,*,#418,.T.);
#286=ORIENTED_EDGE('',*,*,#419,.T.);
#287=ORIENTED_EDGE('',*,*,#398,.F.);
#288=ORIENTED_EDGE('',*,*,#419,.F.);
#289=ORIENTED_EDGE('',*,*,#420,.T.);
#290=ORIENTED_EDGE('',*,*,#359,.T.);
#291=ORIENTED_EDGE('',*,*,#399,.F.);
#292=ORIENTED_EDGE('',*,*,#349,.F.);
#293=ORIENTED_EDGE('',*,*,#421,.T.);
#294=ORIENTED_EDGE('',*,*,#422,.T.);
#295=ORIENTED_EDGE('',*,*,#394,.F.);
#296=ORIENTED_EDGE('',*,*,#422,.F.);
#297=ORIENTED_EDGE('',*,*,#423,.T.);
#298=ORIENTED_EDGE('',*,*,#424,.T.);
#299=ORIENTED_EDGE('',*,*,#395,.F.);
#300=ORIENTED_EDGE('',*,*,#424,.F.);
#301=ORIENTED_EDGE('',*,*,#425,.T.);
#302=ORIENTED_EDGE('',*,*,#355,.T.);
#303=ORIENTED_EDGE('',*,*,#396,.F.);
#304=ORIENTED_EDGE('',*,*,#371,.F.);
#305=ORIENTED_EDGE('',*,*,#426,.T.);
#306=ORIENTED_EDGE('',*,*,#427,.T.);
#307=ORIENTED_EDGE('',*,*,#391,.F.);
#308=ORIENTED_EDGE('',*,*,#427,.F.);
#309=ORIENTED_EDGE('',*,*,#428,.T.);
#310=ORIENTED_EDGE('',*,*,#429,.T.);
#311=ORIENTED_EDGE('',*,*,#392,.F.);
#312=ORIENTED_EDGE('',*,*,#429,.F.);
#313=ORIENTED_EDGE('',*,*,#430,.T.);
#314=ORIENTED_EDGE('',*,*,#351,.T.);
#315=ORIENTED_EDGE('',*,*,#393,.F.);
#316=ORIENTED_EDGE('',*,*,#389,.T.);
#317=ORIENTED_EDGE('',*,*,#365,.T.);
#318=ORIENTED_EDGE('',*,*,#431,.F.);
#319=ORIENTED_EDGE('',*,*,#384,.F.);
#320=ORIENTED_EDGE('',*,*,#432,.F.);
#321=ORIENTED_EDGE('',*,*,#375,.T.);
#322=ORIENTED_EDGE('',*,*,#390,.T.);
#323=ORIENTED_EDGE('',*,*,#386,.F.);
#324=ORIENTED_EDGE('',*,*,#385,.F.);
#325=ORIENTED_EDGE('',*,*,#431,.T.);
#326=ORIENTED_EDGE('',*,*,#364,.T.);
#327=ORIENTED_EDGE('',*,*,#410,.F.);
#328=ORIENTED_EDGE('',*,*,#408,.F.);
#329=ORIENTED_EDGE('',*,*,#406,.F.);
#330=ORIENTED_EDGE('',*,*,#360,.T.);
#331=ORIENTED_EDGE('',*,*,#415,.F.);
#332=ORIENTED_EDGE('',*,*,#413,.F.);
#333=ORIENTED_EDGE('',*,*,#411,.F.);
#334=ORIENTED_EDGE('',*,*,#356,.T.);
#335=ORIENTED_EDGE('',*,*,#420,.F.);
#336=ORIENTED_EDGE('',*,*,#418,.F.);
#337=ORIENTED_EDGE('',*,*,#416,.F.);
#338=ORIENTED_EDGE('',*,*,#352,.T.);
#339=ORIENTED_EDGE('',*,*,#425,.F.);
#340=ORIENTED_EDGE('',*,*,#423,.F.);
#341=ORIENTED_EDGE('',*,*,#421,.F.);
#342=ORIENTED_EDGE('',*,*,#348,.T.);
#343=ORIENTED_EDGE('',*,*,#430,.F.);
#344=ORIENTED_EDGE('',*,*,#428,.F.);
#345=ORIENTED_EDGE('',*,*,#426,.F.);
#346=ORIENTED_EDGE('',*,*,#370,.T.);
#347=ORIENTED_EDGE('',*,*,#432,.T.);
#348=EDGE_CURVE('',#433,#434,#490,.F.);
#349=EDGE_CURVE('',#433,#435,#46,.T.);
#350=EDGE_CURVE('',#435,#436,#34,.T.);
#351=EDGE_CURVE('',#434,#436,#47,.T.);
#352=EDGE_CURVE('',#437,#438,#491,.F.);
#353=EDGE_CURVE('',#437,#439,#48,.T.);
#354=EDGE_CURVE('',#439,#440,#35,.T.);
#355=EDGE_CURVE('',#438,#440,#49,.T.);
#356=EDGE_CURVE('',#441,#442,#492,.F.);
#357=EDGE_CURVE('',#441,#443,#50,.T.);
#358=EDGE_CURVE('',#443,#444,#36,.T.);
#359=EDGE_CURVE('',#442,#444,#51,.T.);
#360=EDGE_CURVE('',#445,#446,#493,.F.);
#361=EDGE_CURVE('',#445,#447,#52,.T.);
#362=EDGE_CURVE('',#447,#448,#37,.T.);
#363=EDGE_CURVE('',#446,#448,#53,.T.);
#364=EDGE_CURVE('',#449,#450,#494,.F.);
#365=EDGE_CURVE('',#451,#449,#54,.T.);
#366=EDGE_CURVE('',#452,#451,#38,.T.);
#367=EDGE_CURVE('',#452,#453,#55,.T.);
#368=EDGE_CURVE('',#453,#454,#39,.T.);
#369=EDGE_CURVE('',#450,#454,#56,.T.);
#370=EDGE_CURVE('',#455,#456,#495,.F.);
#371=EDGE_CURVE('',#455,#457,#57,.T.);
#372=EDGE_CURVE('',#457,#458,#40,.T.);
#373=EDGE_CURVE('',#459,#458,#58,.T.);
#374=EDGE_CURVE('',#460,#459,#41,.T.);
#375=EDGE_CURVE('',#456,#460,#59,.F.);
#376=EDGE_CURVE('',#453,#461,#60,.T.);
#377=EDGE_CURVE('',#452,#462,#61,.T.);
#378=EDGE_CURVE('',#462,#461,#62,.T.);
#379=EDGE_CURVE('',#463,#461,#42,.T.);
#380=EDGE_CURVE('',#464,#462,#43,.T.);
#381=EDGE_CURVE('',#464,#463,#63,.T.);
#382=EDGE_CURVE('',#458,#463,#64,.T.);
#383=EDGE_CURVE('',#459,#464,#65,.T.);
#384=EDGE_CURVE('',#465,#466,#66,.T.);
#385=EDGE_CURVE('',#466,#467,#496,.F.);
#386=EDGE_CURVE('',#467,#468,#67,.F.);
#387=EDGE_CURVE('',#468,#465,#44,.T.);
#388=EDGE_CURVE('',#469,#469,#45,.T.);
#389=EDGE_CURVE('',#465,#451,#68,.T.);
#390=EDGE_CURVE('',#460,#468,#69,.T.);
#391=EDGE_CURVE('',#457,#470,#70,.T.);
#392=EDGE_CURVE('',#470,#471,#71,.T.);
#393=EDGE_CURVE('',#471,#436,#72,.T.);
#394=EDGE_CURVE('',#435,#472,#73,.T.);
#395=EDGE_CURVE('',#472,#473,#74,.T.);
#396=EDGE_CURVE('',#473,#440,#75,.T.);
#397=EDGE_CURVE('',#439,#474,#76,.T.);
#398=EDGE_CURVE('',#474,#475,#77,.T.);
#399=EDGE_CURVE('',#475,#444,#78,.T.);
#400=EDGE_CURVE('',#443,#476,#79,.T.);
#401=EDGE_CURVE('',#476,#477,#80,.T.);
#402=EDGE_CURVE('',#477,#448,#81,.T.);
#403=EDGE_CURVE('',#447,#478,#82,.T.);
#404=EDGE_CURVE('',#478,#479,#83,.T.);
#405=EDGE_CURVE('',#479,#454,#84,.T.);
#406=EDGE_CURVE('',#445,#480,#85,.T.);
#407=EDGE_CURVE('',#480,#478,#86,.T.);
#408=EDGE_CURVE('',#480,#481,#87,.T.);
#409=EDGE_CURVE('',#481,#479,#88,.T.);
#410=EDGE_CURVE('',#481,#450,#89,.T.);
#411=EDGE_CURVE('',#441,#482,#90,.T.);
#412=EDGE_CURVE('',#482,#476,#91,.T.);
#413=EDGE_CURVE('',#482,#483,#92,.T.);
#414=EDGE_CURVE('',#483,#477,#93,.T.);
#415=EDGE_CURVE('',#483,#446,#94,.T.);
#416=EDGE_CURVE('',#437,#484,#95,.T.);
#417=EDGE_CURVE('',#484,#474,#96,.T.);
#418=EDGE_CURVE('',#484,#485,#97,.T.);
#419=EDGE_CURVE('',#485,#475,#98,.T.);
#420=EDGE_CURVE('',#485,#442,#99,.T.);
#421=EDGE_CURVE('',#433,#486,#100,.T.);
#422=EDGE_CURVE('',#486,#472,#101,.T.);
#423=EDGE_CURVE('',#486,#487,#102,.T.);
#424=EDGE_CURVE('',#487,#473,#103,.T.);
#425=EDGE_CURVE('',#487,#438,#104,.T.);
#426=EDGE_CURVE('',#455,#488,#105,.T.);
#427=EDGE_CURVE('',#488,#470,#106,.T.);
#428=EDGE_CURVE('',#488,#489,#107,.T.);
#429=EDGE_CURVE('',#489,#471,#108,.T.);
#430=EDGE_CURVE('',#489,#434,#109,.T.);
#431=EDGE_CURVE('',#466,#449,#110,.T.);
#432=EDGE_CURVE('',#456,#467,#111,.T.);
#433=VERTEX_POINT('',#830);
#434=VERTEX_POINT('',#831);
#435=VERTEX_POINT('',#833);
#436=VERTEX_POINT('',#835);
#437=VERTEX_POINT('',#839);
#438=VERTEX_POINT('',#840);
#439=VERTEX_POINT('',#842);
#440=VERTEX_POINT('',#844);
#441=VERTEX_POINT('',#848);
#442=VERTEX_POINT('',#849);
#443=VERTEX_POINT('',#851);
#444=VERTEX_POINT('',#853);
#445=VERTEX_POINT('',#857);
#446=VERTEX_POINT('',#858);
#447=VERTEX_POINT('',#860);
#448=VERTEX_POINT('',#862);
#449=VERTEX_POINT('',#866);
#450=VERTEX_POINT('',#867);
#451=VERTEX_POINT('',#869);
#452=VERTEX_POINT('',#871);
#453=VERTEX_POINT('',#873);
#454=VERTEX_POINT('',#875);
#455=VERTEX_POINT('',#879);
#456=VERTEX_POINT('',#880);
#457=VERTEX_POINT('',#882);
#458=VERTEX_POINT('',#884);
#459=VERTEX_POINT('',#886);
#460=VERTEX_POINT('',#888);
#461=VERTEX_POINT('',#892);
#462=VERTEX_POINT('',#894);
#463=VERTEX_POINT('',#898);
#464=VERTEX_POINT('',#900);
#465=VERTEX_POINT('',#907);
#466=VERTEX_POINT('',#908);
#467=VERTEX_POINT('',#910);
#468=VERTEX_POINT('',#912);
#469=VERTEX_POINT('',#915);
#470=VERTEX_POINT('',#921);
#471=VERTEX_POINT('',#923);
#472=VERTEX_POINT('',#926);
#473=VERTEX_POINT('',#928);
#474=VERTEX_POINT('',#931);
#475=VERTEX_POINT('',#933);
#476=VERTEX_POINT('',#936);
#477=VERTEX_POINT('',#938);
#478=VERTEX_POINT('',#941);
#479=VERTEX_POINT('',#943);
#480=VERTEX_POINT('',#947);
#481=VERTEX_POINT('',#951);
#482=VERTEX_POINT('',#957);
#483=VERTEX_POINT('',#961);
#484=VERTEX_POINT('',#967);
#485=VERTEX_POINT('',#971);
#486=VERTEX_POINT('',#977);
#487=VERTEX_POINT('',#981);
#488=VERTEX_POINT('',#987);
#489=VERTEX_POINT('',#991);
#490=ELLIPSE('',#613,0.052846878430634,0.04445);
#491=ELLIPSE('',#616,0.052846878430634,0.04445);
#492=ELLIPSE('',#619,0.052846878430634,0.04445);
#493=ELLIPSE('',#622,0.052846878430634,0.04445);
#494=ELLIPSE('',#625,0.052846878430634,0.04445);
#495=ELLIPSE('',#629,0.052846878430634,0.04445);
#496=ELLIPSE('',#638,0.0545113470426224,0.04585);
#497=EDGE_LOOP('',(#178,#179,#180,#181));
#498=EDGE_LOOP('',(#182,#183,#184,#185));
#499=EDGE_LOOP('',(#186,#187,#188,#189));
#500=EDGE_LOOP('',(#190,#191,#192,#193));
#501=EDGE_LOOP('',(#194,#195,#196,#197,#198,#199));
#502=EDGE_LOOP('',(#200,#201,#202,#203,#204,#205));
#503=EDGE_LOOP('',(#206,#207,#208,#209));
#504=EDGE_LOOP('',(#210,#211,#212,#213));
#505=EDGE_LOOP('',(#214,#215,#216,#217));
#506=EDGE_LOOP('',(#218,#219,#220,#221));
#507=EDGE_LOOP('',(#222));
#508=EDGE_LOOP('',(#223,#224,#225,#226,#227,#228,#229,#230));
#509=EDGE_LOOP('',(#231,#232,#233,#234,#235,#236,#237,#238,#239,#240,#241,
#242,#243,#244,#245,#246,#247,#248,#249,#250,#251,#252,#253,#254));
#510=EDGE_LOOP('',(#255));
#511=EDGE_LOOP('',(#256,#257,#258,#259));
#512=EDGE_LOOP('',(#260,#261,#262,#263));
#513=EDGE_LOOP('',(#264,#265,#266,#267));
#514=EDGE_LOOP('',(#268,#269,#270,#271));
#515=EDGE_LOOP('',(#272,#273,#274,#275));
#516=EDGE_LOOP('',(#276,#277,#278,#279));
#517=EDGE_LOOP('',(#280,#281,#282,#283));
#518=EDGE_LOOP('',(#284,#285,#286,#287));
#519=EDGE_LOOP('',(#288,#289,#290,#291));
#520=EDGE_LOOP('',(#292,#293,#294,#295));
#521=EDGE_LOOP('',(#296,#297,#298,#299));
#522=EDGE_LOOP('',(#300,#301,#302,#303));
#523=EDGE_LOOP('',(#304,#305,#306,#307));
#524=EDGE_LOOP('',(#308,#309,#310,#311));
#525=EDGE_LOOP('',(#312,#313,#314,#315));
#526=EDGE_LOOP('',(#316,#317,#318,#319));
#527=EDGE_LOOP('',(#320,#321,#322,#323));
#528=EDGE_LOOP('',(#324,#325,#326,#327,#328,#329,#330,#331,#332,#333,#334,
#335,#336,#337,#338,#339,#340,#341,#342,#343,#344,#345,#346,#347));
#529=FACE_BOUND('',#497,.T.);
#530=FACE_BOUND('',#498,.T.);
#531=FACE_BOUND('',#499,.T.);
#532=FACE_BOUND('',#500,.T.);
#533=FACE_BOUND('',#501,.T.);
#534=FACE_BOUND('',#502,.T.);
#535=FACE_BOUND('',#503,.T.);
#536=FACE_BOUND('',#504,.T.);
#537=FACE_BOUND('',#505,.T.);
#538=FACE_BOUND('',#506,.T.);
#539=FACE_BOUND('',#507,.T.);
#540=FACE_BOUND('',#508,.T.);
#541=FACE_BOUND('',#509,.T.);
#542=FACE_BOUND('',#510,.T.);
#543=FACE_BOUND('',#511,.T.);
#544=FACE_BOUND('',#512,.T.);
#545=FACE_BOUND('',#513,.T.);
#546=FACE_BOUND('',#514,.T.);
#547=FACE_BOUND('',#515,.T.);
#548=FACE_BOUND('',#516,.T.);
#549=FACE_BOUND('',#517,.T.);
#550=FACE_BOUND('',#518,.T.);
#551=FACE_BOUND('',#519,.T.);
#552=FACE_BOUND('',#520,.T.);
#553=FACE_BOUND('',#521,.T.);
#554=FACE_BOUND('',#522,.T.);
#555=FACE_BOUND('',#523,.T.);
#556=FACE_BOUND('',#524,.T.);
#557=FACE_BOUND('',#525,.T.);
#558=FACE_BOUND('',#526,.T.);
#559=FACE_BOUND('',#527,.T.);
#560=FACE_BOUND('',#528,.T.);
#561=CYLINDRICAL_SURFACE('',#612,0.04445);
#562=CYLINDRICAL_SURFACE('',#615,0.04445);
#563=CYLINDRICAL_SURFACE('',#618,0.04445);
#564=CYLINDRICAL_SURFACE('',#621,0.04445);
#565=CYLINDRICAL_SURFACE('',#624,0.04445);
#566=CYLINDRICAL_SURFACE('',#628,0.04445);
#567=CYLINDRICAL_SURFACE('',#633,0.009525);
#568=CYLINDRICAL_SURFACE('',#637,0.04585);
#569=ADVANCED_FACE('',(#529),#561,.F.);
#570=ADVANCED_FACE('',(#530),#562,.F.);
#571=ADVANCED_FACE('',(#531),#563,.F.);
#572=ADVANCED_FACE('',(#532),#564,.F.);
#573=ADVANCED_FACE('',(#533),#565,.F.);
#574=ADVANCED_FACE('',(#534),#566,.F.);
#575=ADVANCED_FACE('',(#535),#12,.T.);
#576=ADVANCED_FACE('',(#536),#567,.F.);
#577=ADVANCED_FACE('',(#537),#13,.F.);
#578=ADVANCED_FACE('',(#538,#539),#568,.T.);
#579=ADVANCED_FACE('',(#540),#14,.F.);
#580=ADVANCED_FACE('',(#541,#542),#15,.T.);
#581=ADVANCED_FACE('',(#543),#16,.T.);
#582=ADVANCED_FACE('',(#544),#17,.T.);
#583=ADVANCED_FACE('',(#545),#18,.T.);
#584=ADVANCED_FACE('',(#546),#19,.T.);
#585=ADVANCED_FACE('',(#547),#20,.T.);
#586=ADVANCED_FACE('',(#548),#21,.T.);
#587=ADVANCED_FACE('',(#549),#22,.T.);
#588=ADVANCED_FACE('',(#550),#23,.T.);
#589=ADVANCED_FACE('',(#551),#24,.T.);
#590=ADVANCED_FACE('',(#552),#25,.T.);
#591=ADVANCED_FACE('',(#553),#26,.T.);
#592=ADVANCED_FACE('',(#554),#27,.T.);
#593=ADVANCED_FACE('',(#555),#28,.T.);
#594=ADVANCED_FACE('',(#556),#29,.T.);
#595=ADVANCED_FACE('',(#557),#30,.T.);
#596=ADVANCED_FACE('',(#558),#31,.T.);
#597=ADVANCED_FACE('',(#559),#32,.T.);
#598=ADVANCED_FACE('',(#560),#33,.T.);
#599=CLOSED_SHELL('',(#569,#570,#571,#572,#573,#574,#575,#576,#577,#578,
#579,#580,#581,#582,#583,#584,#585,#586,#587,#588,#589,#590,#591,#592,#593,
#594,#595,#596,#597,#598));
#600=STYLED_ITEM('',(#601),#608);
#601=PRESENTATION_STYLE_ASSIGNMENT((#602));
#602=SURFACE_STYLE_USAGE(.BOTH.,#603);
#603=SURFACE_SIDE_STYLE('',(#604));
#604=SURFACE_STYLE_FILL_AREA(#605);
#605=FILL_AREA_STYLE('',(#606));
#606=FILL_AREA_STYLE_COLOUR('',#607);
#607=COLOUR_RGB('',0.701960784313725,0.701960784313725,0.701960784313725);
#608=MANIFOLD_SOLID_BREP('Hull3',#599);
#609=SHAPE_DEFINITION_REPRESENTATION(#1006,#610);
#610=SHAPE_REPRESENTATION('Hull3',(#611),#1001);
#611=AXIS2_PLACEMENT_3D('',#827,#661,#662);
#612=AXIS2_PLACEMENT_3D('',#828,#663,#664);
#613=AXIS2_PLACEMENT_3D('',#829,#665,#666);
#614=AXIS2_PLACEMENT_3D('',#834,#668,#669);
#615=AXIS2_PLACEMENT_3D('',#837,#671,#672);
#616=AXIS2_PLACEMENT_3D('',#838,#673,#674);
#617=AXIS2_PLACEMENT_3D('',#843,#676,#677);
#618=AXIS2_PLACEMENT_3D('',#846,#679,#680);
#619=AXIS2_PLACEMENT_3D('',#847,#681,#682);
#620=AXIS2_PLACEMENT_3D('',#852,#684,#685);
#621=AXIS2_PLACEMENT_3D('',#855,#687,#688);
#622=AXIS2_PLACEMENT_3D('',#856,#689,#690);
#623=AXIS2_PLACEMENT_3D('',#861,#692,#693);
#624=AXIS2_PLACEMENT_3D('',#864,#695,#696);
#625=AXIS2_PLACEMENT_3D('',#865,#697,#698);
#626=AXIS2_PLACEMENT_3D('',#870,#700,#701);
#627=AXIS2_PLACEMENT_3D('',#874,#703,#704);
#628=AXIS2_PLACEMENT_3D('',#877,#706,#707);
#629=AXIS2_PLACEMENT_3D('',#878,#708,#709);
#630=AXIS2_PLACEMENT_3D('',#883,#711,#712);
#631=AXIS2_PLACEMENT_3D('',#887,#714,#715);
#632=AXIS2_PLACEMENT_3D('',#890,#717,#718);
#633=AXIS2_PLACEMENT_3D('',#896,#722,#723);
#634=AXIS2_PLACEMENT_3D('',#897,#724,#725);
#635=AXIS2_PLACEMENT_3D('',#899,#726,#727);
#636=AXIS2_PLACEMENT_3D('',#902,#729,#730);
#637=AXIS2_PLACEMENT_3D('',#905,#733,#734);
#638=AXIS2_PLACEMENT_3D('',#909,#736,#737);
#639=AXIS2_PLACEMENT_3D('',#913,#739,#740);
#640=AXIS2_PLACEMENT_3D('',#914,#741,#742);
#641=AXIS2_PLACEMENT_3D('',#916,#743,#744);
#642=AXIS2_PLACEMENT_3D('',#919,#747,#748);
#643=AXIS2_PLACEMENT_3D('',#945,#764,#765);
#644=AXIS2_PLACEMENT_3D('',#949,#768,#769);
#645=AXIS2_PLACEMENT_3D('',#953,#772,#773);
#646=AXIS2_PLACEMENT_3D('',#955,#775,#776);
#647=AXIS2_PLACEMENT_3D('',#959,#779,#780);
#648=AXIS2_PLACEMENT_3D('',#963,#783,#784);
#649=AXIS2_PLACEMENT_3D('',#965,#786,#787);
#650=AXIS2_PLACEMENT_3D('',#969,#790,#791);
#651=AXIS2_PLACEMENT_3D('',#973,#794,#795);
#652=AXIS2_PLACEMENT_3D('',#975,#797,#798);
#653=AXIS2_PLACEMENT_3D('',#979,#801,#802);
#654=AXIS2_PLACEMENT_3D('',#983,#805,#806);
#655=AXIS2_PLACEMENT_3D('',#985,#808,#809);
#656=AXIS2_PLACEMENT_3D('',#989,#812,#813);
#657=AXIS2_PLACEMENT_3D('',#993,#816,#817);
#658=AXIS2_PLACEMENT_3D('',#995,#819,#820);
#659=AXIS2_PLACEMENT_3D('',#997,#822,#823);
#660=AXIS2_PLACEMENT_3D('',#999,#825,#826);
#661=DIRECTION('',(0.,0.,1.));
#662=DIRECTION('',(1.,0.,0.));
#663=DIRECTION('',(0.,-1.,0.));
#664=DIRECTION('',(0.,0.,-1.));
#665=DIRECTION('',(0.,0.841109282515985,-0.540865209516608));
#666=DIRECTION('',(0.,-0.540865209516608,-0.841109282515985));
#667=DIRECTION('',(0.,-1.,0.));
#668=DIRECTION('',(0.,-1.,0.));
#669=DIRECTION('',(0.,0.,-1.));
#670=DIRECTION('',(0.,-1.,0.));
#671=DIRECTION('',(0.,-1.,0.));
#672=DIRECTION('',(0.,0.,-1.));
#673=DIRECTION('',(0.,0.841109282515985,-0.540865209516608));
#674=DIRECTION('',(0.,-0.540865209516608,-0.841109282515985));
#675=DIRECTION('',(0.,-1.,0.));
#676=DIRECTION('',(0.,-1.,0.));
#677=DIRECTION('',(0.,0.,-1.));
#678=DIRECTION('',(0.,-1.,0.));
#679=DIRECTION('',(0.,-1.,0.));
#680=DIRECTION('',(0.,0.,-1.));
#681=DIRECTION('',(0.,0.841109282515985,-0.540865209516608));
#682=DIRECTION('',(0.,-0.540865209516608,-0.841109282515985));
#683=DIRECTION('',(0.,-1.,0.));
#684=DIRECTION('',(0.,-1.,0.));
#685=DIRECTION('',(0.,0.,-1.));
#686=DIRECTION('',(0.,-1.,0.));
#687=DIRECTION('',(0.,-1.,0.));
#688=DIRECTION('',(0.,0.,-1.));
#689=DIRECTION('',(0.,0.841109282515985,-0.540865209516608));
#690=DIRECTION('',(0.,-0.540865209516608,-0.841109282515985));
#691=DIRECTION('',(0.,-1.,0.));
#692=DIRECTION('',(0.,-1.,0.));
#693=DIRECTION('',(0.,0.,-1.));
#694=DIRECTION('',(0.,-1.,0.));
#695=DIRECTION('',(0.,-1.,0.));
#696=DIRECTION('',(0.,0.,-1.));
#697=DIRECTION('',(0.,0.841109282515985,-0.540865209516608));
#698=DIRECTION('',(0.,-0.540865209516608,-0.841109282515985));
#699=DIRECTION('',(0.,-1.,0.));
#700=DIRECTION('',(0.,-1.,0.));
#701=DIRECTION('',(0.,0.,-1.));
#702=DIRECTION('',(0.,-1.,0.));
#703=DIRECTION('',(0.,-1.,0.));
#704=DIRECTION('',(0.,0.,-1.));
#705=DIRECTION('',(0.,-1.,0.));
#706=DIRECTION('',(0.,-1.,0.));
#707=DIRECTION('',(0.,0.,-1.));
#708=DIRECTION('',(0.,0.841109282515985,-0.540865209516608));
#709=DIRECTION('',(0.,-0.540865209516608,-0.841109282515985));
#710=DIRECTION('',(0.,-1.,0.));
#711=DIRECTION('',(0.,-1.,0.));
#712=DIRECTION('',(0.,0.,-1.));
#713=DIRECTION('',(0.,-1.,0.));
#714=DIRECTION('',(0.,-1.,0.));
#715=DIRECTION('',(0.,0.,-1.));
#716=DIRECTION('',(0.,-1.,0.));
#717=DIRECTION('',(-0.552164284512639,0.,-0.833735331450363));
#718=DIRECTION('',(-0.833735331450363,0.,0.552164284512639));
#719=DIRECTION('',(0.833735331450363,0.,-0.552164284512639));
#720=DIRECTION('',(0.833735331450363,0.,-0.552164284512639));
#721=DIRECTION('',(0.,-1.,0.));
#722=DIRECTION('',(0.,-1.,0.));
#723=DIRECTION('',(0.,0.,-1.));
#724=DIRECTION('',(0.,-1.,0.));
#725=DIRECTION('',(0.,0.,-1.));
#726=DIRECTION('',(0.,-1.,0.));
#727=DIRECTION('',(0.,0.,-1.));
#728=DIRECTION('',(0.,-1.,0.));
#729=DIRECTION('',(-0.552164284512637,0.,0.833735331450363));
#730=DIRECTION('',(0.833735331450363,0.,0.552164284512637));
#731=DIRECTION('',(-0.833735331450363,0.,-0.552164284512637));
#732=DIRECTION('',(-0.833735331450363,0.,-0.552164284512637));
#733=DIRECTION('',(0.,-1.,0.));
#734=DIRECTION('',(0.,0.,-1.));
#735=DIRECTION('',(0.,-1.,0.));
#736=DIRECTION('',(0.,0.841109282515985,-0.540865209516608));
#737=DIRECTION('',(0.,-0.540865209516608,-0.841109282515985));
#738=DIRECTION('',(0.,-1.,0.));
#739=DIRECTION('',(0.,-1.,0.));
#740=DIRECTION('',(0.,0.,-1.));
#741=DIRECTION('',(0.,-1.,0.));
#742=DIRECTION('',(0.,0.,-1.));
#743=DIRECTION('',(0.,-1.,0.));
#744=DIRECTION('',(1.,0.,0.));
#745=DIRECTION('',(1.,0.,0.));
#746=DIRECTION('',(1.,0.,0.));
#747=DIRECTION('',(0.,-1.,0.));
#748=DIRECTION('',(1.,0.,0.));
#749=DIRECTION('',(-0.866025403784439,0.,-0.5));
#750=DIRECTION('',(0.5,0.,-0.866025403784439));
#751=DIRECTION('',(0.866025403784439,0.,0.5));
#752=DIRECTION('',(-0.866025403784439,0.,0.5));
#753=DIRECTION('',(-0.5,0.,-0.866025403784438));
#754=DIRECTION('',(0.866025403784438,0.,-0.5));
#755=DIRECTION('',(-7.63958078352519E-18,0.,1.));
#756=DIRECTION('',(-1.,0.,1.22464679914735E-16));
#757=DIRECTION('',(-1.22464679914735E-16,0.,-1.));
#758=DIRECTION('',(0.866025403784439,0.,0.5));
#759=DIRECTION('',(-0.5,0.,0.866025403784439));
#760=DIRECTION('',(-0.866025403784439,0.,-0.5));
#761=DIRECTION('',(0.866025403784439,0.,-0.5));
#762=DIRECTION('',(0.5,0.,0.866025403784439));
#763=DIRECTION('',(-0.866025403784439,0.,0.5));
#764=DIRECTION('',(-0.5,0.,-0.866025403784439));
#765=DIRECTION('',(-0.866025403784439,0.,0.5));
#766=DIRECTION('',(0.824459199500903,-0.306087195329109,-0.47600174076771));
#767=DIRECTION('',(0.,-1.,0.));
#768=DIRECTION('',(0.866025403784439,0.,-0.5));
#769=DIRECTION('',(-0.5,0.,-0.866025403784439));
#770=DIRECTION('',(0.436831458110722,0.486531714094203,0.756614279792166));
#771=DIRECTION('',(0.,-1.,0.));
#772=DIRECTION('',(0.5,0.,0.866025403784439));
#773=DIRECTION('',(0.866025403784439,0.,-0.5));
#774=DIRECTION('',(-0.824459199500903,0.306087195329109,0.47600174076771));
#775=DIRECTION('',(0.5,0.,-0.866025403784439));
#776=DIRECTION('',(-0.866025403784439,0.,-0.5));
#777=DIRECTION('',(0.824459199500903,0.306087195329109,0.47600174076771));
#778=DIRECTION('',(0.,-1.,0.));
#779=DIRECTION('',(0.866025403784439,0.,0.5));
#780=DIRECTION('',(0.5,0.,-0.866025403784439));
#781=DIRECTION('',(-0.436831458110721,0.486531714094203,0.756614279792166));
#782=DIRECTION('',(0.,-1.,0.));
#783=DIRECTION('',(-0.5,0.,0.866025403784439));
#784=DIRECTION('',(0.866025403784439,0.,0.5));
#785=DIRECTION('',(-0.824459199500903,-0.306087195329109,-0.47600174076771));
#786=DIRECTION('',(1.,0.,7.63958078352519E-18));
#787=DIRECTION('',(7.63958078352519E-18,0.,-1.));
#788=DIRECTION('',(-6.42572231155378E-18,0.540865209516608,0.841109282515986));
#789=DIRECTION('',(0.,-1.,0.));
#790=DIRECTION('',(1.22464679914735E-16,0.,1.));
#791=DIRECTION('',(1.,0.,-1.22464679914735E-16));
#792=DIRECTION('',(-1.,7.87494397426399E-17,1.22464679914735E-16));
#793=DIRECTION('',(0.,-1.,0.));
#794=DIRECTION('',(-1.,0.,1.22464679914735E-16));
#795=DIRECTION('',(1.22464679914735E-16,0.,1.));
#796=DIRECTION('',(-1.03006179056633E-16,-0.540865209516608,-0.841109282515986));
#797=DIRECTION('',(0.5,0.,0.866025403784438));
#798=DIRECTION('',(0.866025403784439,0.,-0.5));
#799=DIRECTION('',(-0.824459199500903,0.306087195329109,0.47600174076771));
#800=DIRECTION('',(0.,-1.,0.));
#801=DIRECTION('',(-0.866025403784438,0.,0.5));
#802=DIRECTION('',(0.5,0.,0.866025403784438));
#803=DIRECTION('',(-0.436831458110722,-0.486531714094203,-0.756614279792166));
#804=DIRECTION('',(0.,-1.,0.));
#805=DIRECTION('',(-0.5,0.,-0.866025403784438));
#806=DIRECTION('',(-0.866025403784438,0.,0.5));
#807=DIRECTION('',(0.824459199500903,-0.306087195329109,-0.47600174076771));
#808=DIRECTION('',(-0.5,0.,0.866025403784439));
#809=DIRECTION('',(0.866025403784439,0.,0.5));
#810=DIRECTION('',(-0.824459199500903,-0.306087195329109,-0.476001740767709));
#811=DIRECTION('',(0.,-1.,0.));
#812=DIRECTION('',(-0.866025403784439,0.,-0.5));
#813=DIRECTION('',(-0.5,0.,0.866025403784439));
#814=DIRECTION('',(0.436831458110721,-0.486531714094203,-0.756614279792166));
#815=DIRECTION('',(0.,-1.,0.));
#816=DIRECTION('',(0.5,0.,-0.866025403784439));
#817=DIRECTION('',(-0.866025403784439,0.,-0.5));
#818=DIRECTION('',(0.824459199500903,0.306087195329109,0.476001740767709));
#819=DIRECTION('',(0.,0.,-1.));
#820=DIRECTION('',(-1.,0.,0.));
#821=DIRECTION('',(1.,0.,0.));
#822=DIRECTION('',(0.,0.,-1.));
#823=DIRECTION('',(-1.,0.,0.));
#824=DIRECTION('',(1.,0.,0.));
#825=DIRECTION('',(0.,0.841109282515985,-0.540865209516608));
#826=DIRECTION('',(0.,0.540865209516608,0.841109282515985));
#827=CARTESIAN_POINT('',(0.,0.,0.));
#828=CARTESIAN_POINT('',(-4.99282536605411E-18,0.1524,1.38777878078145E-17));
#829=CARTESIAN_POINT('',(-4.99282536605411E-18,0.10568329113924,1.38777878078145E-17));
#830=CARTESIAN_POINT('',(0.0399070550159733,0.0930950206972443,-0.0195762473408996));
#831=CARTESIAN_POINT('',(0.0399070550159733,0.118271561581237,0.0195762473408996));
#832=CARTESIAN_POINT('',(0.0399070550159733,0.1524,-0.0195762473408996));
#833=CARTESIAN_POINT('',(0.0399070550159733,0.,-0.0195762473408996));
#834=CARTESIAN_POINT('',(-4.99282536605411E-18,0.,1.38777878078145E-17));
#835=CARTESIAN_POINT('',(0.0399070550159733,0.,0.0195762473408996));
#836=CARTESIAN_POINT('',(0.0399070550159733,0.1524,0.0195762473408996));
#837=CARTESIAN_POINT('',(-4.99282536605411E-18,0.1524,1.38777878078145E-17));
#838=CARTESIAN_POINT('',(-4.99282536605411E-18,0.10568329113924,1.38777878078145E-17));
#839=CARTESIAN_POINT('',(0.003,0.0771654269252038,-0.0443486471045059));
#840=CARTESIAN_POINT('',(0.0369070550159733,0.0897536973672,-0.0247723997636063));
#841=CARTESIAN_POINT('',(0.003,0.1524,-0.0443486471045059));
#842=CARTESIAN_POINT('',(0.003,0.,-0.0443486471045059));
#843=CARTESIAN_POINT('',(-4.99282536605411E-18,0.,1.38777878078145E-17));
#844=CARTESIAN_POINT('',(0.0369070550159733,0.,-0.0247723997636063));
#845=CARTESIAN_POINT('',(0.0369070550159733,0.1524,-0.0247723997636063));
#846=CARTESIAN_POINT('',(-4.99282536605411E-18,0.1524,1.38777878078145E-17));
#847=CARTESIAN_POINT('',(-4.99282536605411E-18,0.10568329113924,1.38777878078145E-17));
#848=CARTESIAN_POINT('',(-0.0369070550159733,0.0897536973672,-0.0247723997636063));
#849=CARTESIAN_POINT('',(-0.003,0.0771654269252038,-0.0443486471045059));
#850=CARTESIAN_POINT('',(-0.0369070550159733,0.1524,-0.0247723997636063));
#851=CARTESIAN_POINT('',(-0.0369070550159733,0.,-0.0247723997636062));
#852=CARTESIAN_POINT('',(-4.99282536605411E-18,0.,1.38777878078145E-17));
#853=CARTESIAN_POINT('',(-0.003,0.,-0.0443486471045059));
#854=CARTESIAN_POINT('',(-0.003,0.1524,-0.0443486471045059));
#855=CARTESIAN_POINT('',(-4.99282536605411E-18,0.1524,1.38777878078145E-17));
#856=CARTESIAN_POINT('',(-4.99282536605411E-18,0.10568329113924,1.38777878078145E-17));
#857=CARTESIAN_POINT('',(-0.0399070550159733,0.118271561581237,0.0195762473408996));
#858=CARTESIAN_POINT('',(-0.0399070550159733,0.0930950206972443,-0.0195762473408996));
#859=CARTESIAN_POINT('',(-0.0399070550159733,0.1524,0.0195762473408996));
#860=CARTESIAN_POINT('',(-0.0399070550159733,0.,0.0195762473408996));
#861=CARTESIAN_POINT('',(-4.99282536605411E-18,0.,1.38777878078145E-17));
#862=CARTESIAN_POINT('',(-0.0399070550159733,0.,-0.0195762473408996));
#863=CARTESIAN_POINT('',(-0.0399070550159733,0.1524,-0.0195762473408996));
#864=CARTESIAN_POINT('',(-4.99282536605411E-18,0.1524,1.38777878078145E-17));
#865=CARTESIAN_POINT('',(-4.99282536605411E-18,0.10568329113924,1.38777878078145E-17));
#866=CARTESIAN_POINT('',(-0.0296121596645703,0.127,0.03315));
#867=CARTESIAN_POINT('',(-0.0369070550159733,0.121612884911281,0.0247723997636063));
#868=CARTESIAN_POINT('',(-0.0296121596645702,0.1524,0.03315));
#869=CARTESIAN_POINT('',(-0.0296121596645703,0.1524,0.03315));
#870=CARTESIAN_POINT('',(-4.99282536605411E-18,0.1524,1.38777878078145E-17));
#871=CARTESIAN_POINT('',(-0.01905,0.1524,0.0401609262841385));
#872=CARTESIAN_POINT('',(-0.01905,0.1524,0.0401609262841385));
#873=CARTESIAN_POINT('',(-0.01905,0.,0.0401609262841385));
#874=CARTESIAN_POINT('',(-4.99282536605411E-18,0.,1.38777878078145E-17));
#875=CARTESIAN_POINT('',(-0.0369070550159733,0.,0.0247723997636062));
#876=CARTESIAN_POINT('',(-0.0369070550159733,0.1524,0.0247723997636062));
#877=CARTESIAN_POINT('',(-4.99282536605411E-18,0.1524,1.38777878078145E-17));
#878=CARTESIAN_POINT('',(-4.99282536605411E-18,0.10568329113924,1.38777878078145E-17));
#879=CARTESIAN_POINT('',(0.0369070550159733,0.121612884911281,0.0247723997636062));
#880=CARTESIAN_POINT('',(0.0296121596645702,0.127,0.03315));
#881=CARTESIAN_POINT('',(0.0369070550159733,0.1524,0.0247723997636062));
#882=CARTESIAN_POINT('',(0.0369070550159733,0.,0.0247723997636062));
#883=CARTESIAN_POINT('',(-4.99282536605411E-18,0.,1.38777878078145E-17));
#884=CARTESIAN_POINT('',(0.01905,0.,0.0401609262841384));
#885=CARTESIAN_POINT('',(0.01905,0.1524,0.0401609262841384));
#886=CARTESIAN_POINT('',(0.01905,0.1524,0.0401609262841384));
#887=CARTESIAN_POINT('',(-4.99282536605411E-18,0.1524,1.38777878078145E-17));
#888=CARTESIAN_POINT('',(0.0296121596645702,0.1524,0.03315));
#889=CARTESIAN_POINT('',(0.0296121596645702,0.1524,0.03315));
#890=CARTESIAN_POINT('',(-0.0141848652636782,0.1524,0.0369388562345634));
#891=CARTESIAN_POINT('',(-0.0141848652636782,0.,0.0369388562345634));
#892=CARTESIAN_POINT('',(-0.0093197305273564,0.,0.0337167861849884));
#893=CARTESIAN_POINT('',(-0.0141848652636782,0.1524,0.0369388562345634));
#894=CARTESIAN_POINT('',(-0.0093197305273564,0.1524,0.0337167861849884));
#895=CARTESIAN_POINT('',(-0.0093197305273564,0.1524,0.0337167861849884));
#896=CARTESIAN_POINT('',(-3.64291929955129E-17,0.1524,0.03175));
#897=CARTESIAN_POINT('',(-3.64291929955129E-17,0.,0.03175));
#898=CARTESIAN_POINT('',(0.00931973052735641,0.,0.0337167861849884));
#899=CARTESIAN_POINT('',(-3.64291929955129E-17,0.1524,0.03175));
#900=CARTESIAN_POINT('',(0.00931973052735641,0.1524,0.0337167861849884));
#901=CARTESIAN_POINT('',(0.00931973052735641,0.1524,0.0337167861849884));
#902=CARTESIAN_POINT('',(0.0141848652636782,0.1524,0.0369388562345634));
#903=CARTESIAN_POINT('',(0.0141848652636782,0.,0.0369388562345634));
#904=CARTESIAN_POINT('',(0.0141848652636782,0.1524,0.0369388562345634));
#905=CARTESIAN_POINT('',(0.,0.1524,2.8075027870453E-18));
#906=CARTESIAN_POINT('',(-0.0316749112074525,0.1524,0.03315));
#907=CARTESIAN_POINT('',(-0.0316749112074525,0.1524,0.03315));
#908=CARTESIAN_POINT('',(-0.0316749112074525,0.127,0.03315));
#909=CARTESIAN_POINT('',(0.,0.10568329113924,2.8075027870453E-18));
#910=CARTESIAN_POINT('',(0.0316749112074525,0.127,0.03315));
#911=CARTESIAN_POINT('',(0.0316749112074525,0.1524,0.03315));
#912=CARTESIAN_POINT('',(0.0316749112074525,0.1524,0.03315));
#913=CARTESIAN_POINT('',(0.,0.1524,2.8075027870453E-18));
#914=CARTESIAN_POINT('',(0.,0.,2.8075027870453E-18));
#915=CARTESIAN_POINT('',(0.,0.,-0.04585));
#916=CARTESIAN_POINT('',(0.,0.1524,0.));
#917=CARTESIAN_POINT('',(-0.1016,0.1524,0.03315));
#918=CARTESIAN_POINT('',(-0.1016,0.1524,0.03315));
#919=CARTESIAN_POINT('',(0.,0.,0.));
#920=CARTESIAN_POINT('',(0.0325769279970511,0.,0.0222723997636062));
#921=CARTESIAN_POINT('',(0.028246800978129,0.,0.0197723997636063));
#922=CARTESIAN_POINT('',(0.0297468009781289,0.,0.0171743235522529));
#923=CARTESIAN_POINT('',(0.031246800978129,0.,0.0145762473408996));
#924=CARTESIAN_POINT('',(0.0355769279970512,0.,0.0170762473408996));
#925=CARTESIAN_POINT('',(0.0355769279970511,0.,-0.0170762473408996));
#926=CARTESIAN_POINT('',(0.0312468009781289,0.,-0.0145762473408997));
#927=CARTESIAN_POINT('',(0.0297468009781289,0.,-0.0171743235522529));
#928=CARTESIAN_POINT('',(0.0282468009781289,0.,-0.0197723997636063));
#929=CARTESIAN_POINT('',(0.0325769279970511,0.,-0.0222723997636063));
#930=CARTESIAN_POINT('',(0.003,0.,-0.0393486471045059));
#931=CARTESIAN_POINT('',(0.003,0.,-0.0343486471045059));
#932=CARTESIAN_POINT('',(-4.64017694215172E-18,0.,-0.0343486471045059));
#933=CARTESIAN_POINT('',(-0.003,0.,-0.0343486471045059));
#934=CARTESIAN_POINT('',(-0.003,0.,-0.0393486471045059));
#935=CARTESIAN_POINT('',(-0.0325769279970511,0.,-0.0222723997636062));
#936=CARTESIAN_POINT('',(-0.028246800978129,0.,-0.0197723997636063));
#937=CARTESIAN_POINT('',(-0.0297468009781289,0.,-0.0171743235522529));
#938=CARTESIAN_POINT('',(-0.031246800978129,0.,-0.0145762473408996));
#939=CARTESIAN_POINT('',(-0.0355769279970512,0.,-0.0170762473408996));
#940=CARTESIAN_POINT('',(-0.0355769279970511,0.,0.0170762473408996));
#941=CARTESIAN_POINT('',(-0.031246800978129,0.,0.0145762473408996));
#942=CARTESIAN_POINT('',(-0.0297468009781289,0.,0.0171743235522529));
#943=CARTESIAN_POINT('',(-0.0282468009781289,0.,0.0197723997636063));
#944=CARTESIAN_POINT('',(-0.0325769279970511,0.,0.0222723997636063));
#945=CARTESIAN_POINT('',(-0.0355769279970511,0.1524,0.0170762473408996));
#946=CARTESIAN_POINT('',(-0.0445951448692384,0.120012053136799,0.0222829172796674));
#947=CARTESIAN_POINT('',(-0.031246800978129,0.115056371707819,0.0145762473408996));
#948=CARTESIAN_POINT('',(-0.031246800978129,0.1524,0.0145762473408996));
#949=CARTESIAN_POINT('',(-0.0297468009781289,0.1524,0.0171743235522529));
#950=CARTESIAN_POINT('',(-0.0221651412609757,0.125171292203968,0.0303061433880608));
#951=CARTESIAN_POINT('',(-0.028246800978129,0.118397695037863,0.0197723997636063));
#952=CARTESIAN_POINT('',(-0.0282468009781289,0.1524,0.0197723997636063));
#953=CARTESIAN_POINT('',(-0.0325769279970511,0.1524,0.0222723997636063));
#954=CARTESIAN_POINT('',(-0.0407519405289385,0.123040329985261,0.0269922454495201));
#955=CARTESIAN_POINT('',(-0.0325769279970511,0.1524,-0.0222723997636062));
#956=CARTESIAN_POINT('',(-0.0171734192157076,0.097079970443425,-0.0133791798222328));
#957=CARTESIAN_POINT('',(-0.028246800978129,0.0929688872406177,-0.0197723997636063));
#958=CARTESIAN_POINT('',(-0.028246800978129,0.1524,-0.0197723997636063));
#959=CARTESIAN_POINT('',(-0.0297468009781289,0.1524,-0.0171743235522529));
#960=CARTESIAN_POINT('',(-0.0420227658532596,0.108312204850999,0.00408827132340437));
#961=CARTESIAN_POINT('',(-0.031246800978129,0.096310210570662,-0.0145762473408996));
#962=CARTESIAN_POINT('',(-0.031246800978129,0.1524,-0.0145762473408996));
#963=CARTESIAN_POINT('',(-0.0355769279970512,0.1524,-0.0170762473408996));
#964=CARTESIAN_POINT('',(-0.0210166235560075,0.100108247291887,-0.00866985165238024));
#965=CARTESIAN_POINT('',(0.003,0.1524,-0.0393486471045059));
#966=CARTESIAN_POINT('',(0.003,0.101448819657138,-0.00658510328909608));
#967=CARTESIAN_POINT('',(0.003,0.0835958066720393,-0.0343486471045059));
#968=CARTESIAN_POINT('',(0.003,0.1524,-0.0343486471045059));
#969=CARTESIAN_POINT('',(-4.64017694215172E-18,0.1524,-0.0343486471045059));
#970=CARTESIAN_POINT('',(-1.00584686186729E-17,0.0835958066720393,-0.0343486471045059));
#971=CARTESIAN_POINT('',(-0.003,0.0835958066720393,-0.0343486471045059));
#972=CARTESIAN_POINT('',(-0.003,0.1524,-0.0343486471045059));
#973=CARTESIAN_POINT('',(-0.003,0.1524,-0.0393486471045059));
#974=CARTESIAN_POINT('',(-0.003,0.101448819657138,-0.00658510328909608));
#975=CARTESIAN_POINT('',(0.0355769279970511,0.1524,-0.0170762473408996));
#976=CARTESIAN_POINT('',(0.0210166235560075,0.100108247291887,-0.00866985165238025));
#977=CARTESIAN_POINT('',(0.0312468009781289,0.096310210570662,-0.0145762473408997));
#978=CARTESIAN_POINT('',(0.0312468009781289,0.1524,-0.0145762473408997));
#979=CARTESIAN_POINT('',(0.0297468009781289,0.1524,-0.0171743235522529));
#980=CARTESIAN_POINT('',(0.0420227658532596,0.108312204850999,0.00408827132340433));
#981=CARTESIAN_POINT('',(0.0282468009781289,0.0929688872406177,-0.0197723997636063));
#982=CARTESIAN_POINT('',(0.0282468009781289,0.1524,-0.0197723997636063));
#983=CARTESIAN_POINT('',(0.0325769279970511,0.1524,-0.0222723997636063));
#984=CARTESIAN_POINT('',(0.0171734192157075,0.097079970443425,-0.0133791798222328));
#985=CARTESIAN_POINT('',(0.0325769279970511,0.1524,0.0222723997636062));
#986=CARTESIAN_POINT('',(0.0407519405289385,0.123040329985261,0.02699224544952));
#987=CARTESIAN_POINT('',(0.028246800978129,0.118397695037863,0.0197723997636063));
#988=CARTESIAN_POINT('',(0.028246800978129,0.1524,0.0197723997636063));
#989=CARTESIAN_POINT('',(0.0297468009781289,0.1524,0.0171743235522529));
#990=CARTESIAN_POINT('',(0.0221651412609757,0.125171292203968,0.0303061433880607));
#991=CARTESIAN_POINT('',(0.031246800978129,0.115056371707819,0.0145762473408996));
#992=CARTESIAN_POINT('',(0.031246800978129,0.1524,0.0145762473408996));
#993=CARTESIAN_POINT('',(0.0355769279970512,0.1524,0.0170762473408996));
#994=CARTESIAN_POINT('',(0.0445951448692384,0.120012053136799,0.0222829172796674));
#995=CARTESIAN_POINT('',(-0.1016,0.1397,0.03315));
#996=CARTESIAN_POINT('',(-0.1016,0.127,0.03315));
#997=CARTESIAN_POINT('',(-0.1016,0.1397,0.03315));
#998=CARTESIAN_POINT('',(-0.1016,0.127,0.03315));
#999=CARTESIAN_POINT('',(-0.1016,0.1016,-0.00635));
#1000=MECHANICAL_DESIGN_GEOMETRIC_PRESENTATION_REPRESENTATION('',(#600),
#1001);
#1001=(
GEOMETRIC_REPRESENTATION_CONTEXT(3)
GLOBAL_UNCERTAINTY_ASSIGNED_CONTEXT((#1002))
GLOBAL_UNIT_ASSIGNED_CONTEXT((#1005,#1004,#1003))
REPRESENTATION_CONTEXT('Hull3','TOP_LEVEL_ASSEMBLY_PART')
);
#1002=UNCERTAINTY_MEASURE_WITH_UNIT(LENGTH_MEASURE(1.E-8),#1005,
'DISTANCE_ACCURACY_VALUE','Maximum Tolerance applied to model');
#1003=(
NAMED_UNIT(*)
SI_UNIT($,.STERADIAN.)
SOLID_ANGLE_UNIT()
);
#1004=(
NAMED_UNIT(*)
PLANE_ANGLE_UNIT()
SI_UNIT($,.RADIAN.)
);
#1005=(
LENGTH_UNIT()
NAMED_UNIT(*)
SI_UNIT($,.METRE.)
);
#1006=PRODUCT_DEFINITION_SHAPE('','',#1007);
#1007=PRODUCT_DEFINITION('','',#1009,#1008);
#1008=PRODUCT_DEFINITION_CONTEXT('',#1015,'design');
#1009=PRODUCT_DEFINITION_FORMATION_WITH_SPECIFIED_SOURCE('','',#1011,
 .NOT_KNOWN.);
#1010=PRODUCT_RELATED_PRODUCT_CATEGORY('','',(#1011));
#1011=PRODUCT('Hull3','Hull3','Hull3',(#1013));
#1012=PRODUCT_CATEGORY('','');
#1013=PRODUCT_CONTEXT('',#1015,'mechanical');
#1014=APPLICATION_PROTOCOL_DEFINITION('international standard',
'ap242_managed_model_based_3d_engineering',2020,#1015);
#1015=APPLICATION_CONTEXT('managed model based 3d engineering');
ENDSEC;
END-ISO-10303-21;
