ISO-10303-21;
HEADER;
/* Generated by software containing ST-Developer
 * from STEP Tools, Inc. (www.steptools.com) 
 */
/* OPTION: using custom renumber hook */

FILE_DESCRIPTION(
/* description */ ('STEP AP242 Edition 2',
'CAx-IF Rec.Pracs.---Representation and Presentation of Product Manufa
cturing Information (PMI)---4.0---2014-10-13',
'CAx-IF Rec.Pracs.---3D Tessellated Geometry---0.4---2014-09-14','2;1',
'CAx-IF Rec.Pracs.---User Defined Attributes---1.5---2016-08-15'),
/* implementation_level */ '2;1');

FILE_NAME(
/* name */ 'Front Hull and Nose - Hull2',
/* time_stamp */ '2026-08-24T02:46:57Z',
/* author */ (''),
/* organization */ (''),
/* preprocessor_version */ 'ST-DEVELOPER v20',
/* originating_system */ 'ONSHAPE BY PTC INC, 1.219',
/* authorisation */ '  ');

FILE_SCHEMA (('AP242_MANAGED_MODEL_BASED_3D_ENGINEERING_MIM_LF { 1 0 10303 442 3 1 4 }'));
ENDSEC;

DATA;
#10=SHAPE_REPRESENTATION_RELATIONSHIP('','',#581,#11);
#11=ADVANCED_BREP_SHAPE_REPRESENTATION('',(#579),#953);
#12=PLANE('',#604);
#13=PLANE('',#606);
#14=PLANE('',#608);
#15=PLANE('',#609);
#16=PLANE('',#610);
#17=PLANE('',#611);
#18=PLANE('',#612);
#19=PLANE('',#613);
#20=PLANE('',#614);
#21=PLANE('',#615);
#22=PLANE('',#616);
#23=PLANE('',#617);
#24=PLANE('',#618);
#25=PLANE('',#619);
#26=PLANE('',#620);
#27=PLANE('',#621);
#28=PLANE('',#622);
#29=PLANE('',#623);
#30=PLANE('',#626);
#31=PLANE('',#629);
#32=CIRCLE('',#584,0.04445);
#33=CIRCLE('',#585,0.04445);
#34=CIRCLE('',#587,0.04445);
#35=CIRCLE('',#588,0.04445);
#36=CIRCLE('',#590,0.04445);
#37=CIRCLE('',#591,0.04445);
#38=CIRCLE('',#593,0.04445);
#39=CIRCLE('',#594,0.04445);
#40=CIRCLE('',#596,0.04445);
#41=CIRCLE('',#597,0.04445);
#42=CIRCLE('',#599,0.04445);
#43=CIRCLE('',#600,0.04445);
#44=CIRCLE('',#602,0.04585);
#45=CIRCLE('',#603,0.04585);
#46=CIRCLE('',#605,0.009525);
#47=CIRCLE('',#607,0.00635);
#48=CIRCLE('',#625,0.00635);
#49=CIRCLE('',#628,0.009525);
#50=ORIENTED_EDGE('',*,*,#210,.F.);
#51=ORIENTED_EDGE('',*,*,#211,.F.);
#52=ORIENTED_EDGE('',*,*,#212,.T.);
#53=ORIENTED_EDGE('',*,*,#213,.T.);
#54=ORIENTED_EDGE('',*,*,#214,.F.);
#55=ORIENTED_EDGE('',*,*,#215,.F.);
#56=ORIENTED_EDGE('',*,*,#216,.T.);
#57=ORIENTED_EDGE('',*,*,#217,.T.);
#58=ORIENTED_EDGE('',*,*,#218,.F.);
#59=ORIENTED_EDGE('',*,*,#219,.F.);
#60=ORIENTED_EDGE('',*,*,#220,.T.);
#61=ORIENTED_EDGE('',*,*,#221,.T.);
#62=ORIENTED_EDGE('',*,*,#222,.F.);
#63=ORIENTED_EDGE('',*,*,#223,.F.);
#64=ORIENTED_EDGE('',*,*,#224,.T.);
#65=ORIENTED_EDGE('',*,*,#225,.T.);
#66=ORIENTED_EDGE('',*,*,#226,.F.);
#67=ORIENTED_EDGE('',*,*,#227,.F.);
#68=ORIENTED_EDGE('',*,*,#228,.T.);
#69=ORIENTED_EDGE('',*,*,#229,.T.);
#70=ORIENTED_EDGE('',*,*,#230,.F.);
#71=ORIENTED_EDGE('',*,*,#231,.T.);
#72=ORIENTED_EDGE('',*,*,#232,.T.);
#73=ORIENTED_EDGE('',*,*,#233,.F.);
#74=ORIENTED_EDGE('',*,*,#234,.T.);
#75=ORIENTED_EDGE('',*,*,#235,.F.);
#76=ORIENTED_EDGE('',*,*,#236,.T.);
#77=ORIENTED_EDGE('',*,*,#237,.T.);
#78=ORIENTED_EDGE('',*,*,#238,.F.);
#79=ORIENTED_EDGE('',*,*,#230,.T.);
#80=ORIENTED_EDGE('',*,*,#239,.F.);
#81=ORIENTED_EDGE('',*,*,#240,.F.);
#82=ORIENTED_EDGE('',*,*,#241,.F.);
#83=ORIENTED_EDGE('',*,*,#227,.T.);
#84=ORIENTED_EDGE('',*,*,#242,.F.);
#85=ORIENTED_EDGE('',*,*,#243,.F.);
#86=ORIENTED_EDGE('',*,*,#244,.F.);
#87=ORIENTED_EDGE('',*,*,#223,.T.);
#88=ORIENTED_EDGE('',*,*,#245,.F.);
#89=ORIENTED_EDGE('',*,*,#246,.F.);
#90=ORIENTED_EDGE('',*,*,#247,.F.);
#91=ORIENTED_EDGE('',*,*,#219,.T.);
#92=ORIENTED_EDGE('',*,*,#248,.F.);
#93=ORIENTED_EDGE('',*,*,#249,.F.);
#94=ORIENTED_EDGE('',*,*,#250,.F.);
#95=ORIENTED_EDGE('',*,*,#215,.T.);
#96=ORIENTED_EDGE('',*,*,#251,.F.);
#97=ORIENTED_EDGE('',*,*,#252,.F.);
#98=ORIENTED_EDGE('',*,*,#253,.F.);
#99=ORIENTED_EDGE('',*,*,#211,.T.);
#100=ORIENTED_EDGE('',*,*,#234,.F.);
#101=ORIENTED_EDGE('',*,*,#254,.F.);
#102=ORIENTED_EDGE('',*,*,#255,.F.);
#103=ORIENTED_EDGE('',*,*,#213,.F.);
#104=ORIENTED_EDGE('',*,*,#256,.T.);
#105=ORIENTED_EDGE('',*,*,#257,.T.);
#106=ORIENTED_EDGE('',*,*,#258,.T.);
#107=ORIENTED_EDGE('',*,*,#217,.F.);
#108=ORIENTED_EDGE('',*,*,#259,.T.);
#109=ORIENTED_EDGE('',*,*,#260,.T.);
#110=ORIENTED_EDGE('',*,*,#261,.T.);
#111=ORIENTED_EDGE('',*,*,#221,.F.);
#112=ORIENTED_EDGE('',*,*,#262,.T.);
#113=ORIENTED_EDGE('',*,*,#263,.T.);
#114=ORIENTED_EDGE('',*,*,#264,.T.);
#115=ORIENTED_EDGE('',*,*,#225,.F.);
#116=ORIENTED_EDGE('',*,*,#265,.T.);
#117=ORIENTED_EDGE('',*,*,#266,.T.);
#118=ORIENTED_EDGE('',*,*,#267,.T.);
#119=ORIENTED_EDGE('',*,*,#229,.F.);
#120=ORIENTED_EDGE('',*,*,#268,.T.);
#121=ORIENTED_EDGE('',*,*,#269,.T.);
#122=ORIENTED_EDGE('',*,*,#270,.T.);
#123=ORIENTED_EDGE('',*,*,#232,.F.);
#124=ORIENTED_EDGE('',*,*,#271,.T.);
#125=ORIENTED_EDGE('',*,*,#235,.T.);
#126=ORIENTED_EDGE('',*,*,#268,.F.);
#127=ORIENTED_EDGE('',*,*,#228,.F.);
#128=ORIENTED_EDGE('',*,*,#241,.T.);
#129=ORIENTED_EDGE('',*,*,#272,.T.);
#130=ORIENTED_EDGE('',*,*,#269,.F.);
#131=ORIENTED_EDGE('',*,*,#272,.F.);
#132=ORIENTED_EDGE('',*,*,#240,.T.);
#133=ORIENTED_EDGE('',*,*,#273,.T.);
#134=ORIENTED_EDGE('',*,*,#270,.F.);
#135=ORIENTED_EDGE('',*,*,#273,.F.);
#136=ORIENTED_EDGE('',*,*,#239,.T.);
#137=ORIENTED_EDGE('',*,*,#233,.T.);
#138=ORIENTED_EDGE('',*,*,#265,.F.);
#139=ORIENTED_EDGE('',*,*,#224,.F.);
#140=ORIENTED_EDGE('',*,*,#244,.T.);
#141=ORIENTED_EDGE('',*,*,#274,.T.);
#142=ORIENTED_EDGE('',*,*,#266,.F.);
#143=ORIENTED_EDGE('',*,*,#274,.F.);
#144=ORIENTED_EDGE('',*,*,#243,.T.);
#145=ORIENTED_EDGE('',*,*,#275,.T.);
#146=ORIENTED_EDGE('',*,*,#267,.F.);
#147=ORIENTED_EDGE('',*,*,#275,.F.);
#148=ORIENTED_EDGE('',*,*,#242,.T.);
#149=ORIENTED_EDGE('',*,*,#226,.T.);
#150=ORIENTED_EDGE('',*,*,#262,.F.);
#151=ORIENTED_EDGE('',*,*,#220,.F.);
#152=ORIENTED_EDGE('',*,*,#247,.T.);
#153=ORIENTED_EDGE('',*,*,#276,.T.);
#154=ORIENTED_EDGE('',*,*,#263,.F.);
#155=ORIENTED_EDGE('',*,*,#276,.F.);
#156=ORIENTED_EDGE('',*,*,#246,.T.);
#157=ORIENTED_EDGE('',*,*,#277,.T.);
#158=ORIENTED_EDGE('',*,*,#264,.F.);
#159=ORIENTED_EDGE('',*,*,#277,.F.);
#160=ORIENTED_EDGE('',*,*,#245,.T.);
#161=ORIENTED_EDGE('',*,*,#222,.T.);
#162=ORIENTED_EDGE('',*,*,#259,.F.);
#163=ORIENTED_EDGE('',*,*,#216,.F.);
#164=ORIENTED_EDGE('',*,*,#250,.T.);
#165=ORIENTED_EDGE('',*,*,#278,.T.);
#166=ORIENTED_EDGE('',*,*,#260,.F.);
#167=ORIENTED_EDGE('',*,*,#278,.F.);
#168=ORIENTED_EDGE('',*,*,#249,.T.);
#169=ORIENTED_EDGE('',*,*,#279,.T.);
#170=ORIENTED_EDGE('',*,*,#261,.F.);
#171=ORIENTED_EDGE('',*,*,#279,.F.);
#172=ORIENTED_EDGE('',*,*,#248,.T.);
#173=ORIENTED_EDGE('',*,*,#218,.T.);
#174=ORIENTED_EDGE('',*,*,#256,.F.);
#175=ORIENTED_EDGE('',*,*,#212,.F.);
#176=ORIENTED_EDGE('',*,*,#253,.T.);
#177=ORIENTED_EDGE('',*,*,#280,.T.);
#178=ORIENTED_EDGE('',*,*,#257,.F.);
#179=ORIENTED_EDGE('',*,*,#280,.F.);
#180=ORIENTED_EDGE('',*,*,#252,.T.);
#181=ORIENTED_EDGE('',*,*,#281,.T.);
#182=ORIENTED_EDGE('',*,*,#258,.F.);
#183=ORIENTED_EDGE('',*,*,#281,.F.);
#184=ORIENTED_EDGE('',*,*,#251,.T.);
#185=ORIENTED_EDGE('',*,*,#214,.T.);
#186=ORIENTED_EDGE('',*,*,#282,.T.);
#187=ORIENTED_EDGE('',*,*,#283,.T.);
#188=ORIENTED_EDGE('',*,*,#236,.F.);
#189=ORIENTED_EDGE('',*,*,#210,.T.);
#190=ORIENTED_EDGE('',*,*,#255,.T.);
#191=ORIENTED_EDGE('',*,*,#284,.F.);
#192=ORIENTED_EDGE('',*,*,#285,.F.);
#193=ORIENTED_EDGE('',*,*,#286,.T.);
#194=ORIENTED_EDGE('',*,*,#284,.T.);
#195=ORIENTED_EDGE('',*,*,#254,.T.);
#196=ORIENTED_EDGE('',*,*,#287,.F.);
#197=ORIENTED_EDGE('',*,*,#288,.F.);
#198=ORIENTED_EDGE('',*,*,#285,.T.);
#199=ORIENTED_EDGE('',*,*,#271,.F.);
#200=ORIENTED_EDGE('',*,*,#231,.F.);
#201=ORIENTED_EDGE('',*,*,#238,.T.);
#202=ORIENTED_EDGE('',*,*,#289,.T.);
#203=ORIENTED_EDGE('',*,*,#287,.T.);
#204=ORIENTED_EDGE('',*,*,#237,.F.);
#205=ORIENTED_EDGE('',*,*,#283,.F.);
#206=ORIENTED_EDGE('',*,*,#286,.F.);
#207=ORIENTED_EDGE('',*,*,#288,.T.);
#208=ORIENTED_EDGE('',*,*,#289,.F.);
#209=ORIENTED_EDGE('',*,*,#282,.F.);
#210=EDGE_CURVE('',#290,#291,#344,.T.);
#211=EDGE_CURVE('',#292,#290,#32,.T.);
#212=EDGE_CURVE('',#292,#293,#345,.T.);
#213=EDGE_CURVE('',#293,#291,#33,.T.);
#214=EDGE_CURVE('',#294,#295,#346,.T.);
#215=EDGE_CURVE('',#296,#294,#34,.T.);
#216=EDGE_CURVE('',#296,#297,#347,.T.);
#217=EDGE_CURVE('',#297,#295,#35,.T.);
#218=EDGE_CURVE('',#298,#299,#348,.T.);
#219=EDGE_CURVE('',#300,#298,#36,.T.);
#220=EDGE_CURVE('',#300,#301,#349,.T.);
#221=EDGE_CURVE('',#301,#299,#37,.T.);
#222=EDGE_CURVE('',#302,#303,#350,.T.);
#223=EDGE_CURVE('',#304,#302,#38,.T.);
#224=EDGE_CURVE('',#304,#305,#351,.T.);
#225=EDGE_CURVE('',#305,#303,#39,.T.);
#226=EDGE_CURVE('',#306,#307,#352,.T.);
#227=EDGE_CURVE('',#308,#306,#40,.T.);
#228=EDGE_CURVE('',#308,#309,#353,.T.);
#229=EDGE_CURVE('',#309,#307,#41,.T.);
#230=EDGE_CURVE('',#310,#311,#42,.T.);
#231=EDGE_CURVE('',#310,#312,#354,.T.);
#232=EDGE_CURVE('',#312,#313,#43,.T.);
#233=EDGE_CURVE('',#311,#313,#355,.T.);
#234=EDGE_CURVE('',#314,#314,#44,.T.);
#235=EDGE_CURVE('',#315,#315,#45,.T.);
#236=EDGE_CURVE('',#290,#316,#356,.T.);
#237=EDGE_CURVE('',#316,#317,#46,.T.);
#238=EDGE_CURVE('',#310,#317,#357,.T.);
#239=EDGE_CURVE('',#318,#311,#358,.T.);
#240=EDGE_CURVE('',#319,#318,#359,.T.);
#241=EDGE_CURVE('',#308,#319,#360,.T.);
#242=EDGE_CURVE('',#320,#306,#361,.T.);
#243=EDGE_CURVE('',#321,#320,#362,.T.);
#244=EDGE_CURVE('',#304,#321,#363,.T.);
#245=EDGE_CURVE('',#322,#302,#364,.T.);
#246=EDGE_CURVE('',#323,#322,#365,.T.);
#247=EDGE_CURVE('',#300,#323,#366,.T.);
#248=EDGE_CURVE('',#324,#298,#367,.T.);
#249=EDGE_CURVE('',#325,#324,#368,.T.);
#250=EDGE_CURVE('',#296,#325,#369,.T.);
#251=EDGE_CURVE('',#326,#294,#370,.T.);
#252=EDGE_CURVE('',#327,#326,#371,.T.);
#253=EDGE_CURVE('',#292,#327,#372,.T.);
#254=EDGE_CURVE('',#328,#329,#47,.T.);
#255=EDGE_CURVE('',#291,#328,#373,.T.);
#256=EDGE_CURVE('',#293,#330,#374,.T.);
#257=EDGE_CURVE('',#330,#331,#375,.T.);
#258=EDGE_CURVE('',#331,#295,#376,.T.);
#259=EDGE_CURVE('',#297,#332,#377,.T.);
#260=EDGE_CURVE('',#332,#333,#378,.T.);
#261=EDGE_CURVE('',#333,#299,#379,.T.);
#262=EDGE_CURVE('',#301,#334,#380,.T.);
#263=EDGE_CURVE('',#334,#335,#381,.T.);
#264=EDGE_CURVE('',#335,#303,#382,.T.);
#265=EDGE_CURVE('',#305,#336,#383,.T.);
#266=EDGE_CURVE('',#336,#337,#384,.T.);
#267=EDGE_CURVE('',#337,#307,#385,.T.);
#268=EDGE_CURVE('',#309,#338,#386,.T.);
#269=EDGE_CURVE('',#338,#339,#387,.T.);
#270=EDGE_CURVE('',#339,#313,#388,.T.);
#271=EDGE_CURVE('',#312,#329,#389,.T.);
#272=EDGE_CURVE('',#319,#338,#390,.T.);
#273=EDGE_CURVE('',#318,#339,#391,.T.);
#274=EDGE_CURVE('',#321,#336,#392,.T.);
#275=EDGE_CURVE('',#320,#337,#393,.T.);
#276=EDGE_CURVE('',#323,#334,#394,.T.);
#277=EDGE_CURVE('',#322,#335,#395,.T.);
#278=EDGE_CURVE('',#325,#332,#396,.T.);
#279=EDGE_CURVE('',#324,#333,#397,.T.);
#280=EDGE_CURVE('',#327,#330,#398,.T.);
#281=EDGE_CURVE('',#326,#331,#399,.T.);
#282=EDGE_CURVE('',#340,#341,#400,.T.);
#283=EDGE_CURVE('',#341,#316,#401,.F.);
#284=EDGE_CURVE('',#340,#328,#402,.T.);
#285=EDGE_CURVE('',#342,#329,#403,.T.);
#286=EDGE_CURVE('',#342,#340,#48,.F.);
#287=EDGE_CURVE('',#343,#317,#404,.F.);
#288=EDGE_CURVE('',#342,#343,#405,.T.);
#289=EDGE_CURVE('',#341,#343,#49,.T.);
#290=VERTEX_POINT('',#791);
#291=VERTEX_POINT('',#792);
#292=VERTEX_POINT('',#794);
#293=VERTEX_POINT('',#796);
#294=VERTEX_POINT('',#800);
#295=VERTEX_POINT('',#801);
#296=VERTEX_POINT('',#803);
#297=VERTEX_POINT('',#805);
#298=VERTEX_POINT('',#809);
#299=VERTEX_POINT('',#810);
#300=VERTEX_POINT('',#812);
#301=VERTEX_POINT('',#814);
#302=VERTEX_POINT('',#818);
#303=VERTEX_POINT('',#819);
#304=VERTEX_POINT('',#821);
#305=VERTEX_POINT('',#823);
#306=VERTEX_POINT('',#827);
#307=VERTEX_POINT('',#828);
#308=VERTEX_POINT('',#830);
#309=VERTEX_POINT('',#832);
#310=VERTEX_POINT('',#836);
#311=VERTEX_POINT('',#837);
#312=VERTEX_POINT('',#839);
#313=VERTEX_POINT('',#841);
#314=VERTEX_POINT('',#845);
#315=VERTEX_POINT('',#847);
#316=VERTEX_POINT('',#850);
#317=VERTEX_POINT('',#852);
#318=VERTEX_POINT('',#855);
#319=VERTEX_POINT('',#857);
#320=VERTEX_POINT('',#860);
#321=VERTEX_POINT('',#862);
#322=VERTEX_POINT('',#865);
#323=VERTEX_POINT('',#867);
#324=VERTEX_POINT('',#870);
#325=VERTEX_POINT('',#872);
#326=VERTEX_POINT('',#875);
#327=VERTEX_POINT('',#877);
#328=VERTEX_POINT('',#881);
#329=VERTEX_POINT('',#882);
#330=VERTEX_POINT('',#885);
#331=VERTEX_POINT('',#887);
#332=VERTEX_POINT('',#890);
#333=VERTEX_POINT('',#892);
#334=VERTEX_POINT('',#895);
#335=VERTEX_POINT('',#897);
#336=VERTEX_POINT('',#900);
#337=VERTEX_POINT('',#902);
#338=VERTEX_POINT('',#905);
#339=VERTEX_POINT('',#907);
#340=VERTEX_POINT('',#937);
#341=VERTEX_POINT('',#938);
#342=VERTEX_POINT('',#943);
#343=VERTEX_POINT('',#947);
#344=LINE('',#790,#406);
#345=LINE('',#795,#407);
#346=LINE('',#799,#408);
#347=LINE('',#804,#409);
#348=LINE('',#808,#410);
#349=LINE('',#813,#411);
#350=LINE('',#817,#412);
#351=LINE('',#822,#413);
#352=LINE('',#826,#414);
#353=LINE('',#831,#415);
#354=LINE('',#838,#416);
#355=LINE('',#842,#417);
#356=LINE('',#849,#418);
#357=LINE('',#853,#419);
#358=LINE('',#854,#420);
#359=LINE('',#856,#421);
#360=LINE('',#858,#422);
#361=LINE('',#859,#423);
#362=LINE('',#861,#424);
#363=LINE('',#863,#425);
#364=LINE('',#864,#426);
#365=LINE('',#866,#427);
#366=LINE('',#868,#428);
#367=LINE('',#869,#429);
#368=LINE('',#871,#430);
#369=LINE('',#873,#431);
#370=LINE('',#874,#432);
#371=LINE('',#876,#433);
#372=LINE('',#878,#434);
#373=LINE('',#883,#435);
#374=LINE('',#884,#436);
#375=LINE('',#886,#437);
#376=LINE('',#888,#438);
#377=LINE('',#889,#439);
#378=LINE('',#891,#440);
#379=LINE('',#893,#441);
#380=LINE('',#894,#442);
#381=LINE('',#896,#443);
#382=LINE('',#898,#444);
#383=LINE('',#899,#445);
#384=LINE('',#901,#446);
#385=LINE('',#903,#447);
#386=LINE('',#904,#448);
#387=LINE('',#906,#449);
#388=LINE('',#908,#450);
#389=LINE('',#909,#451);
#390=LINE('',#911,#452);
#391=LINE('',#913,#453);
#392=LINE('',#916,#454);
#393=LINE('',#918,#455);
#394=LINE('',#921,#456);
#395=LINE('',#923,#457);
#396=LINE('',#926,#458);
#397=LINE('',#928,#459);
#398=LINE('',#931,#460);
#399=LINE('',#933,#461);
#400=LINE('',#936,#462);
#401=LINE('',#939,#463);
#402=LINE('',#940,#464);
#403=LINE('',#942,#465);
#404=LINE('',#946,#466);
#405=LINE('',#948,#467);
#406=VECTOR('',#634,1.);
#407=VECTOR('',#637,1.);
#408=VECTOR('',#642,1.);
#409=VECTOR('',#645,1.);
#410=VECTOR('',#650,1.);
#411=VECTOR('',#653,1.);
#412=VECTOR('',#658,1.);
#413=VECTOR('',#661,1.);
#414=VECTOR('',#666,1.);
#415=VECTOR('',#669,1.);
#416=VECTOR('',#676,1.);
#417=VECTOR('',#679,1.);
#418=VECTOR('',#688,1.);
#419=VECTOR('',#691,1.);
#420=VECTOR('',#692,1.);
#421=VECTOR('',#693,1.);
#422=VECTOR('',#694,1.);
#423=VECTOR('',#695,1.);
#424=VECTOR('',#696,1.);
#425=VECTOR('',#697,1.);
#426=VECTOR('',#698,1.);
#427=VECTOR('',#699,1.);
#428=VECTOR('',#700,1.);
#429=VECTOR('',#701,1.);
#430=VECTOR('',#702,1.);
#431=VECTOR('',#703,1.);
#432=VECTOR('',#704,1.);
#433=VECTOR('',#705,1.);
#434=VECTOR('',#706,1.);
#435=VECTOR('',#711,1.);
#436=VECTOR('',#712,1.);
#437=VECTOR('',#713,1.);
#438=VECTOR('',#714,1.);
#439=VECTOR('',#715,1.);
#440=VECTOR('',#716,1.);
#441=VECTOR('',#717,1.);
#442=VECTOR('',#718,1.);
#443=VECTOR('',#719,1.);
#444=VECTOR('',#720,1.);
#445=VECTOR('',#721,1.);
#446=VECTOR('',#722,1.);
#447=VECTOR('',#723,1.);
#448=VECTOR('',#724,1.);
#449=VECTOR('',#725,1.);
#450=VECTOR('',#726,1.);
#451=VECTOR('',#727,1.);
#452=VECTOR('',#730,1.);
#453=VECTOR('',#733,1.);
#454=VECTOR('',#738,1.);
#455=VECTOR('',#741,1.);
#456=VECTOR('',#746,1.);
#457=VECTOR('',#749,1.);
#458=VECTOR('',#754,1.);
#459=VECTOR('',#757,1.);
#460=VECTOR('',#762,1.);
#461=VECTOR('',#765,1.);
#462=VECTOR('',#770,1.);
#463=VECTOR('',#771,1.);
#464=VECTOR('',#772,1.);
#465=VECTOR('',#775,1.);
#466=VECTOR('',#780,1.);
#467=VECTOR('',#781,1.);
#468=EDGE_LOOP('',(#50,#51,#52,#53));
#469=EDGE_LOOP('',(#54,#55,#56,#57));
#470=EDGE_LOOP('',(#58,#59,#60,#61));
#471=EDGE_LOOP('',(#62,#63,#64,#65));
#472=EDGE_LOOP('',(#66,#67,#68,#69));
#473=EDGE_LOOP('',(#70,#71,#72,#73));
#474=EDGE_LOOP('',(#74));
#475=EDGE_LOOP('',(#75));
#476=EDGE_LOOP('',(#76,#77,#78,#79,#80,#81,#82,#83,#84,#85,#86,#87,#88,
#89,#90,#91,#92,#93,#94,#95,#96,#97,#98,#99));
#477=EDGE_LOOP('',(#100));
#478=EDGE_LOOP('',(#101,#102,#103,#104,#105,#106,#107,#108,#109,#110,#111,
#112,#113,#114,#115,#116,#117,#118,#119,#120,#121,#122,#123,#124));
#479=EDGE_LOOP('',(#125));
#480=EDGE_LOOP('',(#126,#127,#128,#129));
#481=EDGE_LOOP('',(#130,#131,#132,#133));
#482=EDGE_LOOP('',(#134,#135,#136,#137));
#483=EDGE_LOOP('',(#138,#139,#140,#141));
#484=EDGE_LOOP('',(#142,#143,#144,#145));
#485=EDGE_LOOP('',(#146,#147,#148,#149));
#486=EDGE_LOOP('',(#150,#151,#152,#153));
#487=EDGE_LOOP('',(#154,#155,#156,#157));
#488=EDGE_LOOP('',(#158,#159,#160,#161));
#489=EDGE_LOOP('',(#162,#163,#164,#165));
#490=EDGE_LOOP('',(#166,#167,#168,#169));
#491=EDGE_LOOP('',(#170,#171,#172,#173));
#492=EDGE_LOOP('',(#174,#175,#176,#177));
#493=EDGE_LOOP('',(#178,#179,#180,#181));
#494=EDGE_LOOP('',(#182,#183,#184,#185));
#495=EDGE_LOOP('',(#186,#187,#188,#189,#190,#191));
#496=EDGE_LOOP('',(#192,#193,#194,#195));
#497=EDGE_LOOP('',(#196,#197,#198,#199,#200,#201));
#498=EDGE_LOOP('',(#202,#203,#204,#205));
#499=EDGE_LOOP('',(#206,#207,#208,#209));
#500=FACE_BOUND('',#468,.T.);
#501=FACE_BOUND('',#469,.T.);
#502=FACE_BOUND('',#470,.T.);
#503=FACE_BOUND('',#471,.T.);
#504=FACE_BOUND('',#472,.T.);
#505=FACE_BOUND('',#473,.T.);
#506=FACE_BOUND('',#474,.T.);
#507=FACE_BOUND('',#475,.T.);
#508=FACE_BOUND('',#476,.T.);
#509=FACE_BOUND('',#477,.T.);
#510=FACE_BOUND('',#478,.T.);
#511=FACE_BOUND('',#479,.T.);
#512=FACE_BOUND('',#480,.T.);
#513=FACE_BOUND('',#481,.T.);
#514=FACE_BOUND('',#482,.T.);
#515=FACE_BOUND('',#483,.T.);
#516=FACE_BOUND('',#484,.T.);
#517=FACE_BOUND('',#485,.T.);
#518=FACE_BOUND('',#486,.T.);
#519=FACE_BOUND('',#487,.T.);
#520=FACE_BOUND('',#488,.T.);
#521=FACE_BOUND('',#489,.T.);
#522=FACE_BOUND('',#490,.T.);
#523=FACE_BOUND('',#491,.T.);
#524=FACE_BOUND('',#492,.T.);
#525=FACE_BOUND('',#493,.T.);
#526=FACE_BOUND('',#494,.T.);
#527=FACE_BOUND('',#495,.T.);
#528=FACE_BOUND('',#496,.T.);
#529=FACE_BOUND('',#497,.T.);
#530=FACE_BOUND('',#498,.T.);
#531=FACE_BOUND('',#499,.T.);
#532=CYLINDRICAL_SURFACE('',#583,0.04445);
#533=CYLINDRICAL_SURFACE('',#586,0.04445);
#534=CYLINDRICAL_SURFACE('',#589,0.04445);
#535=CYLINDRICAL_SURFACE('',#592,0.04445);
#536=CYLINDRICAL_SURFACE('',#595,0.04445);
#537=CYLINDRICAL_SURFACE('',#598,0.04445);
#538=CYLINDRICAL_SURFACE('',#601,0.04585);
#539=CYLINDRICAL_SURFACE('',#624,0.00635);
#540=CYLINDRICAL_SURFACE('',#627,0.009525);
#541=ADVANCED_FACE('',(#500),#532,.F.);
#542=ADVANCED_FACE('',(#501),#533,.F.);
#543=ADVANCED_FACE('',(#502),#534,.F.);
#544=ADVANCED_FACE('',(#503),#535,.F.);
#545=ADVANCED_FACE('',(#504),#536,.F.);
#546=ADVANCED_FACE('',(#505),#537,.F.);
#547=ADVANCED_FACE('',(#506,#507),#538,.T.);
#548=ADVANCED_FACE('',(#508,#509),#12,.F.);
#549=ADVANCED_FACE('',(#510,#511),#13,.T.);
#550=ADVANCED_FACE('',(#512),#14,.T.);
#551=ADVANCED_FACE('',(#513),#15,.T.);
#552=ADVANCED_FACE('',(#514),#16,.T.);
#553=ADVANCED_FACE('',(#515),#17,.T.);
#554=ADVANCED_FACE('',(#516),#18,.T.);
#555=ADVANCED_FACE('',(#517),#19,.T.);
#556=ADVANCED_FACE('',(#518),#20,.T.);
#557=ADVANCED_FACE('',(#519),#21,.T.);
#558=ADVANCED_FACE('',(#520),#22,.T.);
#559=ADVANCED_FACE('',(#521),#23,.T.);
#560=ADVANCED_FACE('',(#522),#24,.T.);
#561=ADVANCED_FACE('',(#523),#25,.T.);
#562=ADVANCED_FACE('',(#524),#26,.T.);
#563=ADVANCED_FACE('',(#525),#27,.T.);
#564=ADVANCED_FACE('',(#526),#28,.T.);
#565=ADVANCED_FACE('',(#527),#29,.F.);
#566=ADVANCED_FACE('',(#528),#539,.F.);
#567=ADVANCED_FACE('',(#529),#30,.T.);
#568=ADVANCED_FACE('',(#530),#540,.F.);
#569=ADVANCED_FACE('',(#531),#31,.F.);
#570=CLOSED_SHELL('',(#541,#542,#543,#544,#545,#546,#547,#548,#549,#550,
#551,#552,#553,#554,#555,#556,#557,#558,#559,#560,#561,#562,#563,#564,#565,
#566,#567,#568,#569));
#571=STYLED_ITEM('',(#572),#579);
#572=PRESENTATION_STYLE_ASSIGNMENT((#573));
#573=SURFACE_STYLE_USAGE(.BOTH.,#574);
#574=SURFACE_SIDE_STYLE('',(#575));
#575=SURFACE_STYLE_FILL_AREA(#576);
#576=FILL_AREA_STYLE('',(#577));
#577=FILL_AREA_STYLE_COLOUR('',#578);
#578=COLOUR_RGB('',0.701960784313725,0.701960784313725,0.701960784313725);
#579=MANIFOLD_SOLID_BREP('Hull2',#570);
#580=SHAPE_DEFINITION_REPRESENTATION(#958,#581);
#581=SHAPE_REPRESENTATION('Hull2',(#582),#953);
#582=AXIS2_PLACEMENT_3D('',#788,#630,#631);
#583=AXIS2_PLACEMENT_3D('',#789,#632,#633);
#584=AXIS2_PLACEMENT_3D('',#793,#635,#636);
#585=AXIS2_PLACEMENT_3D('',#797,#638,#639);
#586=AXIS2_PLACEMENT_3D('',#798,#640,#641);
#587=AXIS2_PLACEMENT_3D('',#802,#643,#644);
#588=AXIS2_PLACEMENT_3D('',#806,#646,#647);
#589=AXIS2_PLACEMENT_3D('',#807,#648,#649);
#590=AXIS2_PLACEMENT_3D('',#811,#651,#652);
#591=AXIS2_PLACEMENT_3D('',#815,#654,#655);
#592=AXIS2_PLACEMENT_3D('',#816,#656,#657);
#593=AXIS2_PLACEMENT_3D('',#820,#659,#660);
#594=AXIS2_PLACEMENT_3D('',#824,#662,#663);
#595=AXIS2_PLACEMENT_3D('',#825,#664,#665);
#596=AXIS2_PLACEMENT_3D('',#829,#667,#668);
#597=AXIS2_PLACEMENT_3D('',#833,#670,#671);
#598=AXIS2_PLACEMENT_3D('',#834,#672,#673);
#599=AXIS2_PLACEMENT_3D('',#835,#674,#675);
#600=AXIS2_PLACEMENT_3D('',#840,#677,#678);
#601=AXIS2_PLACEMENT_3D('',#843,#680,#681);
#602=AXIS2_PLACEMENT_3D('',#844,#682,#683);
#603=AXIS2_PLACEMENT_3D('',#846,#684,#685);
#604=AXIS2_PLACEMENT_3D('',#848,#686,#687);
#605=AXIS2_PLACEMENT_3D('',#851,#689,#690);
#606=AXIS2_PLACEMENT_3D('',#879,#707,#708);
#607=AXIS2_PLACEMENT_3D('',#880,#709,#710);
#608=AXIS2_PLACEMENT_3D('',#910,#728,#729);
#609=AXIS2_PLACEMENT_3D('',#912,#731,#732);
#610=AXIS2_PLACEMENT_3D('',#914,#734,#735);
#611=AXIS2_PLACEMENT_3D('',#915,#736,#737);
#612=AXIS2_PLACEMENT_3D('',#917,#739,#740);
#613=AXIS2_PLACEMENT_3D('',#919,#742,#743);
#614=AXIS2_PLACEMENT_3D('',#920,#744,#745);
#615=AXIS2_PLACEMENT_3D('',#922,#747,#748);
#616=AXIS2_PLACEMENT_3D('',#924,#750,#751);
#617=AXIS2_PLACEMENT_3D('',#925,#752,#753);
#618=AXIS2_PLACEMENT_3D('',#927,#755,#756);
#619=AXIS2_PLACEMENT_3D('',#929,#758,#759);
#620=AXIS2_PLACEMENT_3D('',#930,#760,#761);
#621=AXIS2_PLACEMENT_3D('',#932,#763,#764);
#622=AXIS2_PLACEMENT_3D('',#934,#766,#767);
#623=AXIS2_PLACEMENT_3D('',#935,#768,#769);
#624=AXIS2_PLACEMENT_3D('',#941,#773,#774);
#625=AXIS2_PLACEMENT_3D('',#944,#776,#777);
#626=AXIS2_PLACEMENT_3D('',#945,#778,#779);
#627=AXIS2_PLACEMENT_3D('',#949,#782,#783);
#628=AXIS2_PLACEMENT_3D('',#950,#784,#785);
#629=AXIS2_PLACEMENT_3D('',#951,#786,#787);
#630=DIRECTION('',(0.,0.,1.));
#631=DIRECTION('',(1.,0.,0.));
#632=DIRECTION('',(0.,-1.,0.));
#633=DIRECTION('',(0.,0.,-1.));
#634=DIRECTION('',(0.,-1.,0.));
#635=DIRECTION('',(0.,-1.,0.));
#636=DIRECTION('',(0.,0.,-1.));
#637=DIRECTION('',(0.,-1.,0.));
#638=DIRECTION('',(0.,-1.,0.));
#639=DIRECTION('',(0.,0.,-1.));
#640=DIRECTION('',(0.,-1.,0.));
#641=DIRECTION('',(0.,0.,-1.));
#642=DIRECTION('',(0.,-1.,0.));
#643=DIRECTION('',(0.,-1.,0.));
#644=DIRECTION('',(0.,0.,-1.));
#645=DIRECTION('',(0.,-1.,0.));
#646=DIRECTION('',(0.,-1.,0.));
#647=DIRECTION('',(0.,0.,-1.));
#648=DIRECTION('',(0.,-1.,0.));
#649=DIRECTION('',(0.,0.,-1.));
#650=DIRECTION('',(0.,-1.,0.));
#651=DIRECTION('',(0.,-1.,0.));
#652=DIRECTION('',(0.,0.,-1.));
#653=DIRECTION('',(0.,-1.,0.));
#654=DIRECTION('',(0.,-1.,0.));
#655=DIRECTION('',(0.,0.,-1.));
#656=DIRECTION('',(0.,-1.,0.));
#657=DIRECTION('',(0.,0.,-1.));
#658=DIRECTION('',(0.,-1.,0.));
#659=DIRECTION('',(0.,-1.,0.));
#660=DIRECTION('',(0.,0.,-1.));
#661=DIRECTION('',(0.,-1.,0.));
#662=DIRECTION('',(0.,-1.,0.));
#663=DIRECTION('',(0.,0.,-1.));
#664=DIRECTION('',(0.,-1.,0.));
#665=DIRECTION('',(0.,0.,-1.));
#666=DIRECTION('',(0.,-1.,0.));
#667=DIRECTION('',(0.,-1.,0.));
#668=DIRECTION('',(0.,0.,-1.));
#669=DIRECTION('',(0.,-1.,0.));
#670=DIRECTION('',(0.,-1.,0.));
#671=DIRECTION('',(0.,0.,-1.));
#672=DIRECTION('',(0.,-1.,0.));
#673=DIRECTION('',(0.,0.,-1.));
#674=DIRECTION('',(0.,-1.,0.));
#675=DIRECTION('',(0.,0.,-1.));
#676=DIRECTION('',(0.,-1.,0.));
#677=DIRECTION('',(0.,-1.,0.));
#678=DIRECTION('',(0.,0.,-1.));
#679=DIRECTION('',(0.,-1.,0.));
#680=DIRECTION('',(0.,-1.,0.));
#681=DIRECTION('',(0.,0.,-1.));
#682=DIRECTION('',(0.,-1.,0.));
#683=DIRECTION('',(0.,0.,-1.));
#684=DIRECTION('',(0.,-1.,0.));
#685=DIRECTION('',(0.,0.,-1.));
#686=DIRECTION('',(0.,-1.,0.));
#687=DIRECTION('',(1.,0.,0.));
#688=DIRECTION('',(-0.833735331450363,0.,-0.552164284512637));
#689=DIRECTION('',(0.,-1.,0.));
#690=DIRECTION('',(0.,0.,-1.));
#691=DIRECTION('',(0.833735331450363,0.,-0.552164284512639));
#692=DIRECTION('',(-0.866025403784439,0.,0.5));
#693=DIRECTION('',(0.5,0.,0.866025403784439));
#694=DIRECTION('',(0.866025403784439,0.,-0.5));
#695=DIRECTION('',(-0.866025403784439,0.,-0.5));
#696=DIRECTION('',(-0.5,0.,0.866025403784439));
#697=DIRECTION('',(0.866025403784439,0.,0.5));
#698=DIRECTION('',(-1.22464679914735E-16,0.,-1.));
#699=DIRECTION('',(-1.,0.,1.22464679914735E-16));
#700=DIRECTION('',(-7.63958078352519E-18,0.,1.));
#701=DIRECTION('',(0.866025403784438,0.,-0.5));
#702=DIRECTION('',(-0.5,0.,-0.866025403784438));
#703=DIRECTION('',(-0.866025403784439,0.,0.5));
#704=DIRECTION('',(0.866025403784439,0.,0.5));
#705=DIRECTION('',(0.5,0.,-0.866025403784439));
#706=DIRECTION('',(-0.866025403784439,0.,-0.5));
#707=DIRECTION('',(0.,-1.,0.));
#708=DIRECTION('',(1.,0.,0.));
#709=DIRECTION('',(0.,-1.,0.));
#710=DIRECTION('',(0.,0.,-1.));
#711=DIRECTION('',(-0.833735331450363,0.,-0.552164284512637));
#712=DIRECTION('',(-0.866025403784439,0.,-0.5));
#713=DIRECTION('',(0.5,0.,-0.866025403784439));
#714=DIRECTION('',(0.866025403784439,0.,0.5));
#715=DIRECTION('',(-0.866025403784439,0.,0.5));
#716=DIRECTION('',(-0.5,0.,-0.866025403784438));
#717=DIRECTION('',(0.866025403784438,0.,-0.5));
#718=DIRECTION('',(-7.63958078352519E-18,0.,1.));
#719=DIRECTION('',(-1.,0.,1.22464679914735E-16));
#720=DIRECTION('',(-1.22464679914735E-16,0.,-1.));
#721=DIRECTION('',(0.866025403784439,0.,0.5));
#722=DIRECTION('',(-0.5,0.,0.866025403784439));
#723=DIRECTION('',(-0.866025403784439,0.,-0.5));
#724=DIRECTION('',(0.866025403784439,0.,-0.5));
#725=DIRECTION('',(0.5,0.,0.866025403784439));
#726=DIRECTION('',(-0.866025403784439,0.,0.5));
#727=DIRECTION('',(0.833735331450363,0.,-0.552164284512639));
#728=DIRECTION('',(-0.5,0.,-0.866025403784439));
#729=DIRECTION('',(-0.866025403784439,0.,0.5));
#730=DIRECTION('',(0.,-1.,0.));
#731=DIRECTION('',(0.866025403784439,0.,-0.5));
#732=DIRECTION('',(-0.5,0.,-0.866025403784439));
#733=DIRECTION('',(0.,-1.,0.));
#734=DIRECTION('',(0.5,0.,0.866025403784439));
#735=DIRECTION('',(0.866025403784439,0.,-0.5));
#736=DIRECTION('',(0.5,0.,-0.866025403784439));
#737=DIRECTION('',(-0.866025403784439,0.,-0.5));
#738=DIRECTION('',(0.,-1.,0.));
#739=DIRECTION('',(0.866025403784439,0.,0.5));
#740=DIRECTION('',(0.5,0.,-0.866025403784439));
#741=DIRECTION('',(0.,-1.,0.));
#742=DIRECTION('',(-0.5,0.,0.866025403784439));
#743=DIRECTION('',(0.866025403784439,0.,0.5));
#744=DIRECTION('',(1.,0.,7.63958078352519E-18));
#745=DIRECTION('',(7.63958078352519E-18,0.,-1.));
#746=DIRECTION('',(0.,-1.,0.));
#747=DIRECTION('',(1.22464679914735E-16,0.,1.));
#748=DIRECTION('',(1.,0.,-1.22464679914735E-16));
#749=DIRECTION('',(0.,-1.,0.));
#750=DIRECTION('',(-1.,0.,1.22464679914735E-16));
#751=DIRECTION('',(1.22464679914735E-16,0.,1.));
#752=DIRECTION('',(0.5,0.,0.866025403784438));
#753=DIRECTION('',(0.866025403784439,0.,-0.5));
#754=DIRECTION('',(0.,-1.,0.));
#755=DIRECTION('',(-0.866025403784438,0.,0.5));
#756=DIRECTION('',(0.5,0.,0.866025403784438));
#757=DIRECTION('',(0.,-1.,0.));
#758=DIRECTION('',(-0.5,0.,-0.866025403784438));
#759=DIRECTION('',(-0.866025403784438,0.,0.5));
#760=DIRECTION('',(-0.5,0.,0.866025403784439));
#761=DIRECTION('',(0.866025403784439,0.,0.5));
#762=DIRECTION('',(0.,-1.,0.));
#763=DIRECTION('',(-0.866025403784439,0.,-0.5));
#764=DIRECTION('',(-0.5,0.,0.866025403784439));
#765=DIRECTION('',(0.,-1.,0.));
#766=DIRECTION('',(0.5,0.,-0.866025403784439));
#767=DIRECTION('',(-0.866025403784439,0.,-0.5));
#768=DIRECTION('',(-0.552164284512637,0.,0.833735331450363));
#769=DIRECTION('',(0.833735331450363,0.,0.552164284512637));
#770=DIRECTION('',(0.833735331450363,0.,0.552164284512637));
#771=DIRECTION('',(0.,-1.,0.));
#772=DIRECTION('',(0.,-1.,0.));
#773=DIRECTION('',(0.,-1.,0.));
#774=DIRECTION('',(0.,0.,-1.));
#775=DIRECTION('',(0.,-1.,0.));
#776=DIRECTION('',(0.,-1.,0.));
#777=DIRECTION('',(0.,0.,-1.));
#778=DIRECTION('',(-0.552164284512639,0.,-0.833735331450363));
#779=DIRECTION('',(-0.833735331450363,0.,0.552164284512639));
#780=DIRECTION('',(0.,-1.,0.));
#781=DIRECTION('',(-0.833735331450363,0.,0.552164284512639));
#782=DIRECTION('',(0.,-1.,0.));
#783=DIRECTION('',(0.,0.,-1.));
#784=DIRECTION('',(0.,-1.,0.));
#785=DIRECTION('',(0.,0.,-1.));
#786=DIRECTION('',(0.,-1.,0.));
#787=DIRECTION('',(1.,0.,0.));
#788=CARTESIAN_POINT('',(0.,0.,0.));
#789=CARTESIAN_POINT('',(-3.46944695195361E-18,0.1524,5.55111512312578E-17));
#790=CARTESIAN_POINT('',(0.01905,0.1524,0.0401609262841384));
#791=CARTESIAN_POINT('',(0.01905,0.1524,0.0401609262841384));
#792=CARTESIAN_POINT('',(0.01905,0.,0.0401609262841384));
#793=CARTESIAN_POINT('',(-3.46944695195361E-18,0.1524,5.55111512312578E-17));
#794=CARTESIAN_POINT('',(0.0369070550159733,0.1524,0.0247723997636062));
#795=CARTESIAN_POINT('',(0.0369070550159733,0.1524,0.0247723997636062));
#796=CARTESIAN_POINT('',(0.0369070550159733,0.,0.0247723997636062));
#797=CARTESIAN_POINT('',(-3.46944695195361E-18,0.,5.55111512312578E-17));
#798=CARTESIAN_POINT('',(-3.46944695195361E-18,0.1524,5.55111512312578E-17));
#799=CARTESIAN_POINT('',(0.0399070550159733,0.1524,0.0195762473408996));
#800=CARTESIAN_POINT('',(0.0399070550159733,0.1524,0.0195762473408996));
#801=CARTESIAN_POINT('',(0.0399070550159733,0.,0.0195762473408996));
#802=CARTESIAN_POINT('',(-3.46944695195361E-18,0.1524,5.55111512312578E-17));
#803=CARTESIAN_POINT('',(0.0399070550159733,0.1524,-0.0195762473408996));
#804=CARTESIAN_POINT('',(0.0399070550159733,0.1524,-0.0195762473408996));
#805=CARTESIAN_POINT('',(0.0399070550159732,0.,-0.0195762473408996));
#806=CARTESIAN_POINT('',(-3.46944695195361E-18,0.,5.55111512312578E-17));
#807=CARTESIAN_POINT('',(-3.46944695195361E-18,0.1524,5.55111512312578E-17));
#808=CARTESIAN_POINT('',(0.0369070550159733,0.1524,-0.0247723997636063));
#809=CARTESIAN_POINT('',(0.0369070550159733,0.1524,-0.0247723997636063));
#810=CARTESIAN_POINT('',(0.0369070550159733,0.,-0.0247723997636063));
#811=CARTESIAN_POINT('',(-3.46944695195361E-18,0.1524,5.55111512312578E-17));
#812=CARTESIAN_POINT('',(0.003,0.1524,-0.0443486471045059));
#813=CARTESIAN_POINT('',(0.003,0.1524,-0.0443486471045059));
#814=CARTESIAN_POINT('',(0.003,0.,-0.0443486471045058));
#815=CARTESIAN_POINT('',(-3.46944695195361E-18,0.,5.55111512312578E-17));
#816=CARTESIAN_POINT('',(-3.46944695195361E-18,0.1524,5.55111512312578E-17));
#817=CARTESIAN_POINT('',(-0.003,0.1524,-0.0443486471045059));
#818=CARTESIAN_POINT('',(-0.003,0.1524,-0.0443486471045059));
#819=CARTESIAN_POINT('',(-0.003,0.,-0.0443486471045059));
#820=CARTESIAN_POINT('',(-3.46944695195361E-18,0.1524,5.55111512312578E-17));
#821=CARTESIAN_POINT('',(-0.0369070550159733,0.1524,-0.0247723997636063));
#822=CARTESIAN_POINT('',(-0.0369070550159733,0.1524,-0.0247723997636063));
#823=CARTESIAN_POINT('',(-0.0369070550159733,0.,-0.0247723997636062));
#824=CARTESIAN_POINT('',(-3.46944695195361E-18,0.,5.55111512312578E-17));
#825=CARTESIAN_POINT('',(-3.46944695195361E-18,0.1524,5.55111512312578E-17));
#826=CARTESIAN_POINT('',(-0.0399070550159733,0.1524,-0.0195762473408996));
#827=CARTESIAN_POINT('',(-0.0399070550159733,0.1524,-0.0195762473408996));
#828=CARTESIAN_POINT('',(-0.0399070550159733,0.,-0.0195762473408996));
#829=CARTESIAN_POINT('',(-3.46944695195361E-18,0.1524,5.55111512312578E-17));
#830=CARTESIAN_POINT('',(-0.0399070550159733,0.1524,0.0195762473408996));
#831=CARTESIAN_POINT('',(-0.0399070550159733,0.1524,0.0195762473408996));
#832=CARTESIAN_POINT('',(-0.0399070550159733,0.,0.0195762473408996));
#833=CARTESIAN_POINT('',(-3.46944695195361E-18,0.,5.55111512312578E-17));
#834=CARTESIAN_POINT('',(-3.46944695195361E-18,0.1524,5.55111512312578E-17));
#835=CARTESIAN_POINT('',(-3.46944695195361E-18,0.1524,5.55111512312578E-17));
#836=CARTESIAN_POINT('',(-0.01905,0.1524,0.0401609262841385));
#837=CARTESIAN_POINT('',(-0.0369070550159733,0.1524,0.0247723997636062));
#838=CARTESIAN_POINT('',(-0.01905,0.1524,0.0401609262841385));
#839=CARTESIAN_POINT('',(-0.01905,0.,0.0401609262841385));
#840=CARTESIAN_POINT('',(-3.46944695195361E-18,0.,5.55111512312578E-17));
#841=CARTESIAN_POINT('',(-0.0369070550159733,0.,0.0247723997636062));
#842=CARTESIAN_POINT('',(-0.0369070550159733,0.1524,0.0247723997636062));
#843=CARTESIAN_POINT('',(0.,0.1524,2.8075027870453E-18));
#844=CARTESIAN_POINT('',(0.,0.1524,2.8075027870453E-18));
#845=CARTESIAN_POINT('',(0.,0.1524,-0.04585));
#846=CARTESIAN_POINT('',(0.,0.,2.8075027870453E-18));
#847=CARTESIAN_POINT('',(0.,0.,-0.04585));
#848=CARTESIAN_POINT('',(0.,0.1524,0.));
#849=CARTESIAN_POINT('',(0.0141848652636782,0.1524,0.0369388562345634));
#850=CARTESIAN_POINT('',(0.00931973052735637,0.1524,0.0337167861849883));
#851=CARTESIAN_POINT('',(-3.64291929955129E-17,0.1524,0.03175));
#852=CARTESIAN_POINT('',(-0.00931973052735643,0.1524,0.0337167861849884));
#853=CARTESIAN_POINT('',(-0.0141848652636782,0.1524,0.0369388562345634));
#854=CARTESIAN_POINT('',(-0.0325769279970511,0.1524,0.0222723997636063));
#855=CARTESIAN_POINT('',(-0.0282468009781289,0.1524,0.0197723997636063));
#856=CARTESIAN_POINT('',(-0.0297468009781289,0.1524,0.0171743235522529));
#857=CARTESIAN_POINT('',(-0.031246800978129,0.1524,0.0145762473408996));
#858=CARTESIAN_POINT('',(-0.0355769279970511,0.1524,0.0170762473408996));
#859=CARTESIAN_POINT('',(-0.0355769279970512,0.1524,-0.0170762473408996));
#860=CARTESIAN_POINT('',(-0.031246800978129,0.1524,-0.0145762473408996));
#861=CARTESIAN_POINT('',(-0.0297468009781289,0.1524,-0.0171743235522529));
#862=CARTESIAN_POINT('',(-0.028246800978129,0.1524,-0.0197723997636063));
#863=CARTESIAN_POINT('',(-0.0325769279970511,0.1524,-0.0222723997636062));
#864=CARTESIAN_POINT('',(-0.003,0.1524,-0.0393486471045059));
#865=CARTESIAN_POINT('',(-0.003,0.1524,-0.0343486471045059));
#866=CARTESIAN_POINT('',(-4.64017694215172E-18,0.1524,-0.0343486471045059));
#867=CARTESIAN_POINT('',(0.003,0.1524,-0.0343486471045059));
#868=CARTESIAN_POINT('',(0.003,0.1524,-0.0393486471045059));
#869=CARTESIAN_POINT('',(0.0325769279970511,0.1524,-0.0222723997636063));
#870=CARTESIAN_POINT('',(0.0282468009781289,0.1524,-0.0197723997636063));
#871=CARTESIAN_POINT('',(0.0297468009781289,0.1524,-0.0171743235522529));
#872=CARTESIAN_POINT('',(0.0312468009781289,0.1524,-0.0145762473408997));
#873=CARTESIAN_POINT('',(0.0355769279970511,0.1524,-0.0170762473408996));
#874=CARTESIAN_POINT('',(0.0355769279970512,0.1524,0.0170762473408996));
#875=CARTESIAN_POINT('',(0.031246800978129,0.1524,0.0145762473408996));
#876=CARTESIAN_POINT('',(0.0297468009781289,0.1524,0.0171743235522529));
#877=CARTESIAN_POINT('',(0.028246800978129,0.1524,0.0197723997636063));
#878=CARTESIAN_POINT('',(0.0325769279970511,0.1524,0.0222723997636062));
#879=CARTESIAN_POINT('',(0.,0.,0.));
#880=CARTESIAN_POINT('',(0.,0.,0.03175));
#881=CARTESIAN_POINT('',(0.0063499999999999,0.,0.03175));
#882=CARTESIAN_POINT('',(-0.00634999999999989,0.,0.03175));
#883=CARTESIAN_POINT('',(0.0141848652636782,0.,0.0369388562345634));
#884=CARTESIAN_POINT('',(0.0325769279970511,0.,0.0222723997636062));
#885=CARTESIAN_POINT('',(0.028246800978129,0.,0.0197723997636063));
#886=CARTESIAN_POINT('',(0.0297468009781289,0.,0.0171743235522529));
#887=CARTESIAN_POINT('',(0.031246800978129,0.,0.0145762473408996));
#888=CARTESIAN_POINT('',(0.0355769279970512,0.,0.0170762473408996));
#889=CARTESIAN_POINT('',(0.0355769279970511,0.,-0.0170762473408996));
#890=CARTESIAN_POINT('',(0.0312468009781289,0.,-0.0145762473408997));
#891=CARTESIAN_POINT('',(0.0297468009781289,0.,-0.0171743235522529));
#892=CARTESIAN_POINT('',(0.0282468009781289,0.,-0.0197723997636063));
#893=CARTESIAN_POINT('',(0.0325769279970511,0.,-0.0222723997636063));
#894=CARTESIAN_POINT('',(0.003,0.,-0.0393486471045059));
#895=CARTESIAN_POINT('',(0.003,0.,-0.0343486471045059));
#896=CARTESIAN_POINT('',(-4.64017694215172E-18,0.,-0.0343486471045059));
#897=CARTESIAN_POINT('',(-0.003,0.,-0.0343486471045059));
#898=CARTESIAN_POINT('',(-0.003,0.,-0.0393486471045059));
#899=CARTESIAN_POINT('',(-0.0325769279970511,0.,-0.0222723997636062));
#900=CARTESIAN_POINT('',(-0.028246800978129,0.,-0.0197723997636063));
#901=CARTESIAN_POINT('',(-0.0297468009781289,0.,-0.0171743235522529));
#902=CARTESIAN_POINT('',(-0.031246800978129,0.,-0.0145762473408996));
#903=CARTESIAN_POINT('',(-0.0355769279970512,0.,-0.0170762473408996));
#904=CARTESIAN_POINT('',(-0.0355769279970511,0.,0.0170762473408996));
#905=CARTESIAN_POINT('',(-0.031246800978129,0.,0.0145762473408996));
#906=CARTESIAN_POINT('',(-0.0297468009781289,0.,0.0171743235522529));
#907=CARTESIAN_POINT('',(-0.0282468009781289,0.,0.0197723997636063));
#908=CARTESIAN_POINT('',(-0.0325769279970511,0.,0.0222723997636063));
#909=CARTESIAN_POINT('',(-0.0141848652636782,0.,0.0369388562345634));
#910=CARTESIAN_POINT('',(-0.0355769279970511,0.1524,0.0170762473408996));
#911=CARTESIAN_POINT('',(-0.031246800978129,0.1524,0.0145762473408996));
#912=CARTESIAN_POINT('',(-0.0297468009781289,0.1524,0.0171743235522529));
#913=CARTESIAN_POINT('',(-0.0282468009781289,0.1524,0.0197723997636063));
#914=CARTESIAN_POINT('',(-0.0325769279970511,0.1524,0.0222723997636063));
#915=CARTESIAN_POINT('',(-0.0325769279970511,0.1524,-0.0222723997636062));
#916=CARTESIAN_POINT('',(-0.028246800978129,0.1524,-0.0197723997636063));
#917=CARTESIAN_POINT('',(-0.0297468009781289,0.1524,-0.0171743235522529));
#918=CARTESIAN_POINT('',(-0.031246800978129,0.1524,-0.0145762473408996));
#919=CARTESIAN_POINT('',(-0.0355769279970512,0.1524,-0.0170762473408996));
#920=CARTESIAN_POINT('',(0.003,0.1524,-0.0393486471045059));
#921=CARTESIAN_POINT('',(0.003,0.1524,-0.0343486471045059));
#922=CARTESIAN_POINT('',(-4.64017694215172E-18,0.1524,-0.0343486471045059));
#923=CARTESIAN_POINT('',(-0.003,0.1524,-0.0343486471045059));
#924=CARTESIAN_POINT('',(-0.003,0.1524,-0.0393486471045059));
#925=CARTESIAN_POINT('',(0.0355769279970511,0.1524,-0.0170762473408996));
#926=CARTESIAN_POINT('',(0.0312468009781289,0.1524,-0.0145762473408997));
#927=CARTESIAN_POINT('',(0.0297468009781289,0.1524,-0.0171743235522529));
#928=CARTESIAN_POINT('',(0.0282468009781289,0.1524,-0.0197723997636063));
#929=CARTESIAN_POINT('',(0.0325769279970511,0.1524,-0.0222723997636063));
#930=CARTESIAN_POINT('',(0.0325769279970511,0.1524,0.0222723997636062));
#931=CARTESIAN_POINT('',(0.028246800978129,0.1524,0.0197723997636063));
#932=CARTESIAN_POINT('',(0.0297468009781289,0.1524,0.0171743235522529));
#933=CARTESIAN_POINT('',(0.031246800978129,0.1524,0.0145762473408996));
#934=CARTESIAN_POINT('',(0.0355769279970512,0.1524,0.0170762473408996));
#935=CARTESIAN_POINT('',(0.0141848652636782,0.1524,0.0369388562345634));
#936=CARTESIAN_POINT('',(0.0141848652636782,0.0381,0.0369388562345634));
#937=CARTESIAN_POINT('',(0.00635,0.0381,0.03175));
#938=CARTESIAN_POINT('',(0.00931973052735637,0.0381,0.0337167861849883));
#939=CARTESIAN_POINT('',(0.00931973052735637,0.1905,0.0337167861849883));
#940=CARTESIAN_POINT('',(0.0063499999999999,0.1524,0.03175));
#941=CARTESIAN_POINT('',(0.,0.1524,0.03175));
#942=CARTESIAN_POINT('',(-0.00634999999999989,0.1524,0.03175));
#943=CARTESIAN_POINT('',(-0.00634999999999989,0.0381,0.03175));
#944=CARTESIAN_POINT('',(0.,0.0381,0.03175));
#945=CARTESIAN_POINT('',(-0.0141848652636782,0.1524,0.0369388562345634));
#946=CARTESIAN_POINT('',(-0.00931973052735643,0.1905,0.0337167861849884));
#947=CARTESIAN_POINT('',(-0.00931973052735643,0.0381,0.0337167861849884));
#948=CARTESIAN_POINT('',(-0.0141848652636782,0.0381,0.0369388562345634));
#949=CARTESIAN_POINT('',(-3.64291929955129E-17,0.1905,0.03175));
#950=CARTESIAN_POINT('',(-3.64291929955129E-17,0.0381,0.03175));
#951=CARTESIAN_POINT('',(0.,0.0381,0.));
#952=MECHANICAL_DESIGN_GEOMETRIC_PRESENTATION_REPRESENTATION('',(#571),
#953);
#953=(
GEOMETRIC_REPRESENTATION_CONTEXT(3)
GLOBAL_UNCERTAINTY_ASSIGNED_CONTEXT((#954))
GLOBAL_UNIT_ASSIGNED_CONTEXT((#957,#956,#955))
REPRESENTATION_CONTEXT('Hull2','TOP_LEVEL_ASSEMBLY_PART')
);
#954=UNCERTAINTY_MEASURE_WITH_UNIT(LENGTH_MEASURE(1.E-8),#957,
'DISTANCE_ACCURACY_VALUE','Maximum Tolerance applied to model');
#955=(
NAMED_UNIT(*)
SI_UNIT($,.STERADIAN.)
SOLID_ANGLE_UNIT()
);
#956=(
NAMED_UNIT(*)
PLANE_ANGLE_UNIT()
SI_UNIT($,.RADIAN.)
);
#957=(
LENGTH_UNIT()
NAMED_UNIT(*)
SI_UNIT($,.METRE.)
);
#958=PRODUCT_DEFINITION_SHAPE('','',#959);
#959=PRODUCT_DEFINITION('','',#961,#960);
#960=PRODUCT_DEFINITION_CONTEXT('',#967,'design');
#961=PRODUCT_DEFINITION_FORMATION_WITH_SPECIFIED_SOURCE('','',#963,
 .NOT_KNOWN.);
#962=PRODUCT_RELATED_PRODUCT_CATEGORY('','',(#963));
#963=PRODUCT('Hull2','Hull2','Hull2',(#965));
#964=PRODUCT_CATEGORY('','');
#965=PRODUCT_CONTEXT('',#967,'mechanical');
#966=APPLICATION_PROTOCOL_DEFINITION('international standard',
'ap242_managed_model_based_3d_engineering',2020,#967);
#967=APPLICATION_CONTEXT('managed model based 3d engineering');
ENDSEC;
END-ISO-10303-21;
