ISO-10303-21;
HEADER;
/* Generated by software containing ST-Developer
 * from STEP Tools, Inc. (www.steptools.com) 
 */
/* OPTION: using custom renumber hook */

FILE_DESCRIPTION(
/* description */ ('STEP AP242 Edition 2',
'CAx-IF Rec.Pracs.---Representation and Presentation of Product Manufa
cturing Information (PMI)---4.0---2014-10-13',
'CAx-IF Rec.Pracs.---3D Tessellated Geometry---0.4---2014-09-14','2;1',
'CAx-IF Rec.Pracs.---User Defined Attributes---1.5---2016-08-15'),
/* implementation_level */ '2;1');

FILE_NAME(
/* name */ 'Front Hull and Nose - Dowel Ring',
/* time_stamp */ '2026-08-24T02:47:16Z',
/* author */ (''),
/* organization */ (''),
/* preprocessor_version */ 'ST-DEVELOPER v20',
/* originating_system */ 'ONSHAPE BY PTC INC, 1.219',
/* authorisation */ '  ');

FILE_SCHEMA (('AP242_MANAGED_MODEL_BASED_3D_ENGINEERING_MIM_LF { 1 0 10303 442 3 1 4 }'));
ENDSEC;

DATA;
#10=SHAPE_REPRESENTATION_RELATIONSHIP('','',#1073,#11);
#11=ADVANCED_BREP_SHAPE_REPRESENTATION('',(#1071),#1735);
#12=PLANE('',#1090);
#13=PLANE('',#1103);
#14=PLANE('',#1106);
#15=PLANE('',#1109);
#16=PLANE('',#1121);
#17=PLANE('',#1122);
#18=PLANE('',#1123);
#19=PLANE('',#1126);
#20=PLANE('',#1127);
#21=PLANE('',#1128);
#22=PLANE('',#1131);
#23=PLANE('',#1132);
#24=PLANE('',#1133);
#25=PLANE('',#1135);
#26=PLANE('',#1136);
#27=PLANE('',#1137);
#28=PLANE('',#1140);
#29=PLANE('',#1141);
#30=PLANE('',#1142);
#31=PLANE('',#1145);
#32=PLANE('',#1146);
#33=PLANE('',#1147);
#34=PLANE('',#1148);
#35=PLANE('',#1149);
#36=PLANE('',#1150);
#37=PLANE('',#1151);
#38=PLANE('',#1152);
#39=PLANE('',#1153);
#40=PLANE('',#1154);
#41=PLANE('',#1155);
#42=PLANE('',#1156);
#43=PLANE('',#1157);
#44=PLANE('',#1158);
#45=PLANE('',#1159);
#46=PLANE('',#1160);
#47=CIRCLE('',#1076,0.04445);
#48=CIRCLE('',#1077,0.04445);
#49=CIRCLE('',#1079,0.04445);
#50=CIRCLE('',#1080,0.04445);
#51=CIRCLE('',#1082,0.04445);
#52=CIRCLE('',#1083,0.04445);
#53=CIRCLE('',#1085,0.04445);
#54=CIRCLE('',#1086,0.04445);
#55=CIRCLE('',#1088,0.04445);
#56=CIRCLE('',#1089,0.04445);
#57=CIRCLE('',#1091,0.00238125);
#58=CIRCLE('',#1092,0.00238125);
#59=CIRCLE('',#1093,0.00238125);
#60=CIRCLE('',#1094,0.00238125);
#61=CIRCLE('',#1095,0.00238125);
#62=CIRCLE('',#1096,0.00238125);
#63=CIRCLE('',#1097,0.00238125);
#64=CIRCLE('',#1098,0.00238125);
#65=CIRCLE('',#1099,0.00238125);
#66=CIRCLE('',#1100,0.00238125);
#67=CIRCLE('',#1101,0.04445);
#68=CIRCLE('',#1102,0.03175);
#69=CIRCLE('',#1105,0.04445);
#70=CIRCLE('',#1108,0.03175);
#71=CIRCLE('',#1110,0.00238125);
#72=CIRCLE('',#1111,0.00238125);
#73=CIRCLE('',#1112,0.00238125);
#74=CIRCLE('',#1113,0.00238125);
#75=CIRCLE('',#1114,0.00238125);
#76=CIRCLE('',#1115,0.00238125);
#77=CIRCLE('',#1116,0.00238125);
#78=CIRCLE('',#1117,0.00238125);
#79=CIRCLE('',#1118,0.00238125);
#80=CIRCLE('',#1119,0.00238125);
#81=ORIENTED_EDGE('',*,*,#361,.F.);
#82=ORIENTED_EDGE('',*,*,#362,.F.);
#83=ORIENTED_EDGE('',*,*,#363,.T.);
#84=ORIENTED_EDGE('',*,*,#364,.T.);
#85=ORIENTED_EDGE('',*,*,#365,.F.);
#86=ORIENTED_EDGE('',*,*,#366,.F.);
#87=ORIENTED_EDGE('',*,*,#367,.T.);
#88=ORIENTED_EDGE('',*,*,#368,.T.);
#89=ORIENTED_EDGE('',*,*,#369,.F.);
#90=ORIENTED_EDGE('',*,*,#370,.T.);
#91=ORIENTED_EDGE('',*,*,#371,.T.);
#92=ORIENTED_EDGE('',*,*,#372,.F.);
#93=ORIENTED_EDGE('',*,*,#373,.F.);
#94=ORIENTED_EDGE('',*,*,#374,.T.);
#95=ORIENTED_EDGE('',*,*,#375,.T.);
#96=ORIENTED_EDGE('',*,*,#376,.F.);
#97=ORIENTED_EDGE('',*,*,#377,.F.);
#98=ORIENTED_EDGE('',*,*,#378,.T.);
#99=ORIENTED_EDGE('',*,*,#379,.T.);
#100=ORIENTED_EDGE('',*,*,#380,.F.);
#101=ORIENTED_EDGE('',*,*,#381,.F.);
#102=ORIENTED_EDGE('',*,*,#382,.F.);
#103=ORIENTED_EDGE('',*,*,#383,.F.);
#104=ORIENTED_EDGE('',*,*,#384,.F.);
#105=ORIENTED_EDGE('',*,*,#385,.F.);
#106=ORIENTED_EDGE('',*,*,#386,.F.);
#107=ORIENTED_EDGE('',*,*,#387,.F.);
#108=ORIENTED_EDGE('',*,*,#388,.F.);
#109=ORIENTED_EDGE('',*,*,#389,.F.);
#110=ORIENTED_EDGE('',*,*,#390,.F.);
#111=ORIENTED_EDGE('',*,*,#391,.F.);
#112=ORIENTED_EDGE('',*,*,#392,.F.);
#113=ORIENTED_EDGE('',*,*,#393,.F.);
#114=ORIENTED_EDGE('',*,*,#394,.F.);
#115=ORIENTED_EDGE('',*,*,#395,.F.);
#116=ORIENTED_EDGE('',*,*,#396,.F.);
#117=ORIENTED_EDGE('',*,*,#397,.T.);
#118=ORIENTED_EDGE('',*,*,#398,.T.);
#119=ORIENTED_EDGE('',*,*,#399,.T.);
#120=ORIENTED_EDGE('',*,*,#400,.T.);
#121=ORIENTED_EDGE('',*,*,#401,.T.);
#122=ORIENTED_EDGE('',*,*,#402,.T.);
#123=ORIENTED_EDGE('',*,*,#403,.T.);
#124=ORIENTED_EDGE('',*,*,#404,.T.);
#125=ORIENTED_EDGE('',*,*,#405,.T.);
#126=ORIENTED_EDGE('',*,*,#406,.T.);
#127=ORIENTED_EDGE('',*,*,#407,.F.);
#128=ORIENTED_EDGE('',*,*,#408,.F.);
#129=ORIENTED_EDGE('',*,*,#409,.F.);
#130=ORIENTED_EDGE('',*,*,#373,.T.);
#131=ORIENTED_EDGE('',*,*,#410,.F.);
#132=ORIENTED_EDGE('',*,*,#411,.F.);
#133=ORIENTED_EDGE('',*,*,#412,.F.);
#134=ORIENTED_EDGE('',*,*,#377,.T.);
#135=ORIENTED_EDGE('',*,*,#413,.F.);
#136=ORIENTED_EDGE('',*,*,#414,.F.);
#137=ORIENTED_EDGE('',*,*,#415,.F.);
#138=ORIENTED_EDGE('',*,*,#416,.T.);
#139=ORIENTED_EDGE('',*,*,#417,.T.);
#140=ORIENTED_EDGE('',*,*,#418,.F.);
#141=ORIENTED_EDGE('',*,*,#419,.T.);
#142=ORIENTED_EDGE('',*,*,#366,.T.);
#143=ORIENTED_EDGE('',*,*,#420,.F.);
#144=ORIENTED_EDGE('',*,*,#421,.F.);
#145=ORIENTED_EDGE('',*,*,#422,.F.);
#146=ORIENTED_EDGE('',*,*,#369,.T.);
#147=ORIENTED_EDGE('',*,*,#423,.F.);
#148=ORIENTED_EDGE('',*,*,#424,.F.);
#149=ORIENTED_EDGE('',*,*,#425,.F.);
#150=ORIENTED_EDGE('',*,*,#362,.T.);
#151=ORIENTED_EDGE('',*,*,#426,.T.);
#152=ORIENTED_EDGE('',*,*,#367,.F.);
#153=ORIENTED_EDGE('',*,*,#419,.F.);
#154=ORIENTED_EDGE('',*,*,#427,.T.);
#155=ORIENTED_EDGE('',*,*,#416,.F.);
#156=ORIENTED_EDGE('',*,*,#428,.T.);
#157=ORIENTED_EDGE('',*,*,#429,.T.);
#158=ORIENTED_EDGE('',*,*,#430,.F.);
#159=ORIENTED_EDGE('',*,*,#431,.T.);
#160=ORIENTED_EDGE('',*,*,#432,.F.);
#161=ORIENTED_EDGE('',*,*,#417,.F.);
#162=ORIENTED_EDGE('',*,*,#430,.T.);
#163=ORIENTED_EDGE('',*,*,#433,.F.);
#164=ORIENTED_EDGE('',*,*,#427,.F.);
#165=ORIENTED_EDGE('',*,*,#418,.T.);
#166=ORIENTED_EDGE('',*,*,#432,.T.);
#167=ORIENTED_EDGE('',*,*,#434,.F.);
#168=ORIENTED_EDGE('',*,*,#435,.F.);
#169=ORIENTED_EDGE('',*,*,#436,.F.);
#170=ORIENTED_EDGE('',*,*,#437,.F.);
#171=ORIENTED_EDGE('',*,*,#438,.F.);
#172=ORIENTED_EDGE('',*,*,#439,.F.);
#173=ORIENTED_EDGE('',*,*,#440,.F.);
#174=ORIENTED_EDGE('',*,*,#441,.F.);
#175=ORIENTED_EDGE('',*,*,#442,.F.);
#176=ORIENTED_EDGE('',*,*,#443,.F.);
#177=ORIENTED_EDGE('',*,*,#444,.F.);
#178=ORIENTED_EDGE('',*,*,#445,.F.);
#179=ORIENTED_EDGE('',*,*,#446,.F.);
#180=ORIENTED_EDGE('',*,*,#447,.F.);
#181=ORIENTED_EDGE('',*,*,#448,.F.);
#182=ORIENTED_EDGE('',*,*,#449,.F.);
#183=ORIENTED_EDGE('',*,*,#450,.F.);
#184=ORIENTED_EDGE('',*,*,#364,.F.);
#185=ORIENTED_EDGE('',*,*,#451,.F.);
#186=ORIENTED_EDGE('',*,*,#452,.F.);
#187=ORIENTED_EDGE('',*,*,#453,.F.);
#188=ORIENTED_EDGE('',*,*,#371,.F.);
#189=ORIENTED_EDGE('',*,*,#454,.F.);
#190=ORIENTED_EDGE('',*,*,#455,.F.);
#191=ORIENTED_EDGE('',*,*,#456,.F.);
#192=ORIENTED_EDGE('',*,*,#368,.F.);
#193=ORIENTED_EDGE('',*,*,#426,.F.);
#194=ORIENTED_EDGE('',*,*,#433,.T.);
#195=ORIENTED_EDGE('',*,*,#431,.F.);
#196=ORIENTED_EDGE('',*,*,#429,.F.);
#197=ORIENTED_EDGE('',*,*,#457,.F.);
#198=ORIENTED_EDGE('',*,*,#458,.F.);
#199=ORIENTED_EDGE('',*,*,#459,.F.);
#200=ORIENTED_EDGE('',*,*,#379,.F.);
#201=ORIENTED_EDGE('',*,*,#460,.F.);
#202=ORIENTED_EDGE('',*,*,#461,.F.);
#203=ORIENTED_EDGE('',*,*,#462,.F.);
#204=ORIENTED_EDGE('',*,*,#375,.F.);
#205=ORIENTED_EDGE('',*,*,#463,.F.);
#206=ORIENTED_EDGE('',*,*,#464,.F.);
#207=ORIENTED_EDGE('',*,*,#465,.T.);
#208=ORIENTED_EDGE('',*,*,#466,.T.);
#209=ORIENTED_EDGE('',*,*,#467,.T.);
#210=ORIENTED_EDGE('',*,*,#468,.T.);
#211=ORIENTED_EDGE('',*,*,#469,.T.);
#212=ORIENTED_EDGE('',*,*,#470,.T.);
#213=ORIENTED_EDGE('',*,*,#471,.T.);
#214=ORIENTED_EDGE('',*,*,#472,.T.);
#215=ORIENTED_EDGE('',*,*,#473,.T.);
#216=ORIENTED_EDGE('',*,*,#474,.T.);
#217=ORIENTED_EDGE('',*,*,#402,.F.);
#218=ORIENTED_EDGE('',*,*,#474,.F.);
#219=ORIENTED_EDGE('',*,*,#413,.T.);
#220=ORIENTED_EDGE('',*,*,#380,.T.);
#221=ORIENTED_EDGE('',*,*,#459,.T.);
#222=ORIENTED_EDGE('',*,*,#475,.F.);
#223=ORIENTED_EDGE('',*,*,#415,.T.);
#224=ORIENTED_EDGE('',*,*,#476,.T.);
#225=ORIENTED_EDGE('',*,*,#457,.T.);
#226=ORIENTED_EDGE('',*,*,#428,.F.);
#227=ORIENTED_EDGE('',*,*,#414,.T.);
#228=ORIENTED_EDGE('',*,*,#475,.T.);
#229=ORIENTED_EDGE('',*,*,#458,.T.);
#230=ORIENTED_EDGE('',*,*,#476,.F.);
#231=ORIENTED_EDGE('',*,*,#401,.F.);
#232=ORIENTED_EDGE('',*,*,#473,.F.);
#233=ORIENTED_EDGE('',*,*,#400,.F.);
#234=ORIENTED_EDGE('',*,*,#472,.F.);
#235=ORIENTED_EDGE('',*,*,#410,.T.);
#236=ORIENTED_EDGE('',*,*,#376,.T.);
#237=ORIENTED_EDGE('',*,*,#462,.T.);
#238=ORIENTED_EDGE('',*,*,#477,.F.);
#239=ORIENTED_EDGE('',*,*,#412,.T.);
#240=ORIENTED_EDGE('',*,*,#478,.T.);
#241=ORIENTED_EDGE('',*,*,#460,.T.);
#242=ORIENTED_EDGE('',*,*,#378,.F.);
#243=ORIENTED_EDGE('',*,*,#411,.T.);
#244=ORIENTED_EDGE('',*,*,#477,.T.);
#245=ORIENTED_EDGE('',*,*,#461,.T.);
#246=ORIENTED_EDGE('',*,*,#478,.F.);
#247=ORIENTED_EDGE('',*,*,#403,.F.);
#248=ORIENTED_EDGE('',*,*,#471,.F.);
#249=ORIENTED_EDGE('',*,*,#404,.F.);
#250=ORIENTED_EDGE('',*,*,#470,.F.);
#251=ORIENTED_EDGE('',*,*,#423,.T.);
#252=ORIENTED_EDGE('',*,*,#372,.T.);
#253=ORIENTED_EDGE('',*,*,#453,.T.);
#254=ORIENTED_EDGE('',*,*,#479,.F.);
#255=ORIENTED_EDGE('',*,*,#425,.T.);
#256=ORIENTED_EDGE('',*,*,#480,.T.);
#257=ORIENTED_EDGE('',*,*,#451,.T.);
#258=ORIENTED_EDGE('',*,*,#363,.F.);
#259=ORIENTED_EDGE('',*,*,#424,.T.);
#260=ORIENTED_EDGE('',*,*,#479,.T.);
#261=ORIENTED_EDGE('',*,*,#452,.T.);
#262=ORIENTED_EDGE('',*,*,#480,.F.);
#263=ORIENTED_EDGE('',*,*,#399,.F.);
#264=ORIENTED_EDGE('',*,*,#469,.F.);
#265=ORIENTED_EDGE('',*,*,#420,.T.);
#266=ORIENTED_EDGE('',*,*,#365,.T.);
#267=ORIENTED_EDGE('',*,*,#456,.T.);
#268=ORIENTED_EDGE('',*,*,#481,.F.);
#269=ORIENTED_EDGE('',*,*,#422,.T.);
#270=ORIENTED_EDGE('',*,*,#482,.T.);
#271=ORIENTED_EDGE('',*,*,#454,.T.);
#272=ORIENTED_EDGE('',*,*,#370,.F.);
#273=ORIENTED_EDGE('',*,*,#421,.T.);
#274=ORIENTED_EDGE('',*,*,#481,.T.);
#275=ORIENTED_EDGE('',*,*,#455,.T.);
#276=ORIENTED_EDGE('',*,*,#482,.F.);
#277=ORIENTED_EDGE('',*,*,#405,.F.);
#278=ORIENTED_EDGE('',*,*,#468,.F.);
#279=ORIENTED_EDGE('',*,*,#406,.F.);
#280=ORIENTED_EDGE('',*,*,#467,.F.);
#281=ORIENTED_EDGE('',*,*,#407,.T.);
#282=ORIENTED_EDGE('',*,*,#361,.T.);
#283=ORIENTED_EDGE('',*,*,#450,.T.);
#284=ORIENTED_EDGE('',*,*,#483,.F.);
#285=ORIENTED_EDGE('',*,*,#409,.T.);
#286=ORIENTED_EDGE('',*,*,#484,.T.);
#287=ORIENTED_EDGE('',*,*,#463,.T.);
#288=ORIENTED_EDGE('',*,*,#374,.F.);
#289=ORIENTED_EDGE('',*,*,#408,.T.);
#290=ORIENTED_EDGE('',*,*,#483,.T.);
#291=ORIENTED_EDGE('',*,*,#464,.T.);
#292=ORIENTED_EDGE('',*,*,#484,.F.);
#293=ORIENTED_EDGE('',*,*,#398,.F.);
#294=ORIENTED_EDGE('',*,*,#466,.F.);
#295=ORIENTED_EDGE('',*,*,#397,.F.);
#296=ORIENTED_EDGE('',*,*,#465,.F.);
#297=ORIENTED_EDGE('',*,*,#393,.T.);
#298=ORIENTED_EDGE('',*,*,#485,.T.);
#299=ORIENTED_EDGE('',*,*,#447,.T.);
#300=ORIENTED_EDGE('',*,*,#486,.F.);
#301=ORIENTED_EDGE('',*,*,#396,.T.);
#302=ORIENTED_EDGE('',*,*,#487,.T.);
#303=ORIENTED_EDGE('',*,*,#448,.T.);
#304=ORIENTED_EDGE('',*,*,#485,.F.);
#305=ORIENTED_EDGE('',*,*,#395,.T.);
#306=ORIENTED_EDGE('',*,*,#488,.T.);
#307=ORIENTED_EDGE('',*,*,#449,.T.);
#308=ORIENTED_EDGE('',*,*,#487,.F.);
#309=ORIENTED_EDGE('',*,*,#394,.T.);
#310=ORIENTED_EDGE('',*,*,#486,.T.);
#311=ORIENTED_EDGE('',*,*,#446,.T.);
#312=ORIENTED_EDGE('',*,*,#488,.F.);
#313=ORIENTED_EDGE('',*,*,#389,.T.);
#314=ORIENTED_EDGE('',*,*,#489,.T.);
#315=ORIENTED_EDGE('',*,*,#443,.T.);
#316=ORIENTED_EDGE('',*,*,#490,.F.);
#317=ORIENTED_EDGE('',*,*,#392,.T.);
#318=ORIENTED_EDGE('',*,*,#491,.T.);
#319=ORIENTED_EDGE('',*,*,#444,.T.);
#320=ORIENTED_EDGE('',*,*,#489,.F.);
#321=ORIENTED_EDGE('',*,*,#391,.T.);
#322=ORIENTED_EDGE('',*,*,#492,.T.);
#323=ORIENTED_EDGE('',*,*,#445,.T.);
#324=ORIENTED_EDGE('',*,*,#491,.F.);
#325=ORIENTED_EDGE('',*,*,#390,.T.);
#326=ORIENTED_EDGE('',*,*,#490,.T.);
#327=ORIENTED_EDGE('',*,*,#442,.T.);
#328=ORIENTED_EDGE('',*,*,#492,.F.);
#329=ORIENTED_EDGE('',*,*,#385,.T.);
#330=ORIENTED_EDGE('',*,*,#493,.T.);
#331=ORIENTED_EDGE('',*,*,#439,.T.);
#332=ORIENTED_EDGE('',*,*,#494,.F.);
#333=ORIENTED_EDGE('',*,*,#388,.T.);
#334=ORIENTED_EDGE('',*,*,#495,.T.);
#335=ORIENTED_EDGE('',*,*,#440,.T.);
#336=ORIENTED_EDGE('',*,*,#493,.F.);
#337=ORIENTED_EDGE('',*,*,#387,.T.);
#338=ORIENTED_EDGE('',*,*,#496,.T.);
#339=ORIENTED_EDGE('',*,*,#441,.T.);
#340=ORIENTED_EDGE('',*,*,#495,.F.);
#341=ORIENTED_EDGE('',*,*,#386,.T.);
#342=ORIENTED_EDGE('',*,*,#494,.T.);
#343=ORIENTED_EDGE('',*,*,#438,.T.);
#344=ORIENTED_EDGE('',*,*,#496,.F.);
#345=ORIENTED_EDGE('',*,*,#381,.T.);
#346=ORIENTED_EDGE('',*,*,#497,.T.);
#347=ORIENTED_EDGE('',*,*,#435,.T.);
#348=ORIENTED_EDGE('',*,*,#498,.F.);
#349=ORIENTED_EDGE('',*,*,#384,.T.);
#350=ORIENTED_EDGE('',*,*,#499,.T.);
#351=ORIENTED_EDGE('',*,*,#436,.T.);
#352=ORIENTED_EDGE('',*,*,#497,.F.);
#353=ORIENTED_EDGE('',*,*,#383,.T.);
#354=ORIENTED_EDGE('',*,*,#500,.T.);
#355=ORIENTED_EDGE('',*,*,#437,.T.);
#356=ORIENTED_EDGE('',*,*,#499,.F.);
#357=ORIENTED_EDGE('',*,*,#382,.T.);
#358=ORIENTED_EDGE('',*,*,#498,.T.);
#359=ORIENTED_EDGE('',*,*,#434,.T.);
#360=ORIENTED_EDGE('',*,*,#500,.F.);
#361=EDGE_CURVE('',#501,#502,#601,.T.);
#362=EDGE_CURVE('',#503,#501,#47,.T.);
#363=EDGE_CURVE('',#503,#504,#602,.T.);
#364=EDGE_CURVE('',#504,#502,#48,.T.);
#365=EDGE_CURVE('',#505,#506,#603,.T.);
#366=EDGE_CURVE('',#507,#505,#49,.T.);
#367=EDGE_CURVE('',#507,#508,#604,.T.);
#368=EDGE_CURVE('',#508,#506,#50,.T.);
#369=EDGE_CURVE('',#509,#510,#51,.T.);
#370=EDGE_CURVE('',#509,#511,#605,.T.);
#371=EDGE_CURVE('',#511,#512,#52,.T.);
#372=EDGE_CURVE('',#510,#512,#606,.T.);
#373=EDGE_CURVE('',#513,#514,#53,.T.);
#374=EDGE_CURVE('',#513,#515,#607,.T.);
#375=EDGE_CURVE('',#515,#516,#54,.T.);
#376=EDGE_CURVE('',#514,#516,#608,.T.);
#377=EDGE_CURVE('',#517,#518,#55,.T.);
#378=EDGE_CURVE('',#517,#519,#609,.T.);
#379=EDGE_CURVE('',#519,#520,#56,.T.);
#380=EDGE_CURVE('',#518,#520,#610,.T.);
#381=EDGE_CURVE('',#521,#522,#611,.T.);
#382=EDGE_CURVE('',#523,#521,#612,.T.);
#383=EDGE_CURVE('',#524,#523,#613,.T.);
#384=EDGE_CURVE('',#522,#524,#614,.T.);
#385=EDGE_CURVE('',#525,#526,#615,.T.);
#386=EDGE_CURVE('',#527,#525,#616,.T.);
#387=EDGE_CURVE('',#528,#527,#617,.T.);
#388=EDGE_CURVE('',#526,#528,#618,.T.);
#389=EDGE_CURVE('',#529,#530,#619,.T.);
#390=EDGE_CURVE('',#531,#529,#620,.T.);
#391=EDGE_CURVE('',#532,#531,#621,.T.);
#392=EDGE_CURVE('',#530,#532,#622,.T.);
#393=EDGE_CURVE('',#533,#534,#623,.T.);
#394=EDGE_CURVE('',#535,#533,#624,.T.);
#395=EDGE_CURVE('',#536,#535,#625,.T.);
#396=EDGE_CURVE('',#534,#536,#626,.T.);
#397=EDGE_CURVE('',#537,#537,#57,.F.);
#398=EDGE_CURVE('',#538,#538,#58,.F.);
#399=EDGE_CURVE('',#539,#539,#59,.F.);
#400=EDGE_CURVE('',#540,#540,#60,.F.);
#401=EDGE_CURVE('',#541,#541,#61,.F.);
#402=EDGE_CURVE('',#542,#542,#62,.F.);
#403=EDGE_CURVE('',#543,#543,#63,.F.);
#404=EDGE_CURVE('',#544,#544,#64,.F.);
#405=EDGE_CURVE('',#545,#545,#65,.F.);
#406=EDGE_CURVE('',#546,#546,#66,.F.);
#407=EDGE_CURVE('',#547,#501,#627,.T.);
#408=EDGE_CURVE('',#548,#547,#628,.T.);
#409=EDGE_CURVE('',#513,#548,#629,.T.);
#410=EDGE_CURVE('',#549,#514,#630,.T.);
#411=EDGE_CURVE('',#550,#549,#631,.T.);
#412=EDGE_CURVE('',#517,#550,#632,.T.);
#413=EDGE_CURVE('',#551,#518,#633,.T.);
#414=EDGE_CURVE('',#552,#551,#634,.T.);
#415=EDGE_CURVE('',#553,#552,#635,.T.);
#416=EDGE_CURVE('',#553,#554,#67,.T.);
#417=EDGE_CURVE('',#554,#555,#636,.T.);
#418=EDGE_CURVE('',#556,#555,#68,.T.);
#419=EDGE_CURVE('',#556,#507,#637,.T.);
#420=EDGE_CURVE('',#557,#505,#638,.T.);
#421=EDGE_CURVE('',#558,#557,#639,.T.);
#422=EDGE_CURVE('',#509,#558,#640,.T.);
#423=EDGE_CURVE('',#559,#510,#641,.T.);
#424=EDGE_CURVE('',#560,#559,#642,.T.);
#425=EDGE_CURVE('',#503,#560,#643,.T.);
#426=EDGE_CURVE('',#561,#508,#644,.T.);
#427=EDGE_CURVE('',#556,#561,#645,.T.);
#428=EDGE_CURVE('',#553,#562,#646,.T.);
#429=EDGE_CURVE('',#562,#563,#69,.T.);
#430=EDGE_CURVE('',#554,#563,#647,.T.);
#431=EDGE_CURVE('',#563,#564,#648,.T.);
#432=EDGE_CURVE('',#555,#564,#649,.T.);
#433=EDGE_CURVE('',#561,#564,#70,.T.);
#434=EDGE_CURVE('',#565,#566,#650,.T.);
#435=EDGE_CURVE('',#567,#565,#651,.T.);
#436=EDGE_CURVE('',#568,#567,#652,.T.);
#437=EDGE_CURVE('',#566,#568,#653,.T.);
#438=EDGE_CURVE('',#569,#570,#654,.T.);
#439=EDGE_CURVE('',#571,#569,#655,.T.);
#440=EDGE_CURVE('',#572,#571,#656,.T.);
#441=EDGE_CURVE('',#570,#572,#657,.T.);
#442=EDGE_CURVE('',#573,#574,#658,.T.);
#443=EDGE_CURVE('',#575,#573,#659,.T.);
#444=EDGE_CURVE('',#576,#575,#660,.T.);
#445=EDGE_CURVE('',#574,#576,#661,.T.);
#446=EDGE_CURVE('',#577,#578,#662,.T.);
#447=EDGE_CURVE('',#579,#577,#663,.T.);
#448=EDGE_CURVE('',#580,#579,#664,.T.);
#449=EDGE_CURVE('',#578,#580,#665,.T.);
#450=EDGE_CURVE('',#502,#581,#666,.T.);
#451=EDGE_CURVE('',#582,#504,#667,.T.);
#452=EDGE_CURVE('',#583,#582,#668,.T.);
#453=EDGE_CURVE('',#512,#583,#669,.T.);
#454=EDGE_CURVE('',#584,#511,#670,.T.);
#455=EDGE_CURVE('',#585,#584,#671,.T.);
#456=EDGE_CURVE('',#506,#585,#672,.T.);
#457=EDGE_CURVE('',#586,#562,#673,.T.);
#458=EDGE_CURVE('',#587,#586,#674,.T.);
#459=EDGE_CURVE('',#520,#587,#675,.T.);
#460=EDGE_CURVE('',#588,#519,#676,.T.);
#461=EDGE_CURVE('',#589,#588,#677,.T.);
#462=EDGE_CURVE('',#516,#589,#678,.T.);
#463=EDGE_CURVE('',#590,#515,#679,.T.);
#464=EDGE_CURVE('',#581,#590,#680,.T.);
#465=EDGE_CURVE('',#591,#591,#71,.T.);
#466=EDGE_CURVE('',#592,#592,#72,.T.);
#467=EDGE_CURVE('',#593,#593,#73,.T.);
#468=EDGE_CURVE('',#594,#594,#74,.T.);
#469=EDGE_CURVE('',#595,#595,#75,.T.);
#470=EDGE_CURVE('',#596,#596,#76,.T.);
#471=EDGE_CURVE('',#597,#597,#77,.T.);
#472=EDGE_CURVE('',#598,#598,#78,.T.);
#473=EDGE_CURVE('',#599,#599,#79,.T.);
#474=EDGE_CURVE('',#600,#600,#80,.T.);
#475=EDGE_CURVE('',#551,#587,#681,.T.);
#476=EDGE_CURVE('',#552,#586,#682,.T.);
#477=EDGE_CURVE('',#549,#589,#683,.T.);
#478=EDGE_CURVE('',#550,#588,#684,.T.);
#479=EDGE_CURVE('',#559,#583,#685,.T.);
#480=EDGE_CURVE('',#560,#582,#686,.T.);
#481=EDGE_CURVE('',#557,#585,#687,.T.);
#482=EDGE_CURVE('',#558,#584,#688,.T.);
#483=EDGE_CURVE('',#547,#581,#689,.T.);
#484=EDGE_CURVE('',#548,#590,#690,.T.);
#485=EDGE_CURVE('',#534,#579,#691,.T.);
#486=EDGE_CURVE('',#533,#577,#692,.T.);
#487=EDGE_CURVE('',#536,#580,#693,.T.);
#488=EDGE_CURVE('',#535,#578,#694,.T.);
#489=EDGE_CURVE('',#530,#575,#695,.T.);
#490=EDGE_CURVE('',#529,#573,#696,.T.);
#491=EDGE_CURVE('',#532,#576,#697,.T.);
#492=EDGE_CURVE('',#531,#574,#698,.T.);
#493=EDGE_CURVE('',#526,#571,#699,.T.);
#494=EDGE_CURVE('',#525,#569,#700,.T.);
#495=EDGE_CURVE('',#528,#572,#701,.T.);
#496=EDGE_CURVE('',#527,#570,#702,.T.);
#497=EDGE_CURVE('',#522,#567,#703,.T.);
#498=EDGE_CURVE('',#521,#565,#704,.T.);
#499=EDGE_CURVE('',#524,#568,#705,.T.);
#500=EDGE_CURVE('',#523,#566,#706,.T.);
#501=VERTEX_POINT('',#1444);
#502=VERTEX_POINT('',#1445);
#503=VERTEX_POINT('',#1447);
#504=VERTEX_POINT('',#1449);
#505=VERTEX_POINT('',#1453);
#506=VERTEX_POINT('',#1454);
#507=VERTEX_POINT('',#1456);
#508=VERTEX_POINT('',#1458);
#509=VERTEX_POINT('',#1462);
#510=VERTEX_POINT('',#1463);
#511=VERTEX_POINT('',#1465);
#512=VERTEX_POINT('',#1467);
#513=VERTEX_POINT('',#1471);
#514=VERTEX_POINT('',#1472);
#515=VERTEX_POINT('',#1474);
#516=VERTEX_POINT('',#1476);
#517=VERTEX_POINT('',#1480);
#518=VERTEX_POINT('',#1481);
#519=VERTEX_POINT('',#1483);
#520=VERTEX_POINT('',#1485);
#521=VERTEX_POINT('',#1489);
#522=VERTEX_POINT('',#1490);
#523=VERTEX_POINT('',#1492);
#524=VERTEX_POINT('',#1494);
#525=VERTEX_POINT('',#1497);
#526=VERTEX_POINT('',#1498);
#527=VERTEX_POINT('',#1500);
#528=VERTEX_POINT('',#1502);
#529=VERTEX_POINT('',#1505);
#530=VERTEX_POINT('',#1506);
#531=VERTEX_POINT('',#1508);
#532=VERTEX_POINT('',#1510);
#533=VERTEX_POINT('',#1513);
#534=VERTEX_POINT('',#1514);
#535=VERTEX_POINT('',#1516);
#536=VERTEX_POINT('',#1518);
#537=VERTEX_POINT('',#1521);
#538=VERTEX_POINT('',#1523);
#539=VERTEX_POINT('',#1525);
#540=VERTEX_POINT('',#1527);
#541=VERTEX_POINT('',#1529);
#542=VERTEX_POINT('',#1531);
#543=VERTEX_POINT('',#1533);
#544=VERTEX_POINT('',#1535);
#545=VERTEX_POINT('',#1537);
#546=VERTEX_POINT('',#1539);
#547=VERTEX_POINT('',#1541);
#548=VERTEX_POINT('',#1543);
#549=VERTEX_POINT('',#1546);
#550=VERTEX_POINT('',#1548);
#551=VERTEX_POINT('',#1551);
#552=VERTEX_POINT('',#1553);
#553=VERTEX_POINT('',#1555);
#554=VERTEX_POINT('',#1557);
#555=VERTEX_POINT('',#1559);
#556=VERTEX_POINT('',#1561);
#557=VERTEX_POINT('',#1564);
#558=VERTEX_POINT('',#1566);
#559=VERTEX_POINT('',#1569);
#560=VERTEX_POINT('',#1571);
#561=VERTEX_POINT('',#1575);
#562=VERTEX_POINT('',#1579);
#563=VERTEX_POINT('',#1581);
#564=VERTEX_POINT('',#1585);
#565=VERTEX_POINT('',#1591);
#566=VERTEX_POINT('',#1592);
#567=VERTEX_POINT('',#1594);
#568=VERTEX_POINT('',#1596);
#569=VERTEX_POINT('',#1599);
#570=VERTEX_POINT('',#1600);
#571=VERTEX_POINT('',#1602);
#572=VERTEX_POINT('',#1604);
#573=VERTEX_POINT('',#1607);
#574=VERTEX_POINT('',#1608);
#575=VERTEX_POINT('',#1610);
#576=VERTEX_POINT('',#1612);
#577=VERTEX_POINT('',#1615);
#578=VERTEX_POINT('',#1616);
#579=VERTEX_POINT('',#1618);
#580=VERTEX_POINT('',#1620);
#581=VERTEX_POINT('',#1623);
#582=VERTEX_POINT('',#1625);
#583=VERTEX_POINT('',#1627);
#584=VERTEX_POINT('',#1630);
#585=VERTEX_POINT('',#1632);
#586=VERTEX_POINT('',#1635);
#587=VERTEX_POINT('',#1637);
#588=VERTEX_POINT('',#1640);
#589=VERTEX_POINT('',#1642);
#590=VERTEX_POINT('',#1645);
#591=VERTEX_POINT('',#1648);
#592=VERTEX_POINT('',#1650);
#593=VERTEX_POINT('',#1652);
#594=VERTEX_POINT('',#1654);
#595=VERTEX_POINT('',#1656);
#596=VERTEX_POINT('',#1658);
#597=VERTEX_POINT('',#1660);
#598=VERTEX_POINT('',#1662);
#599=VERTEX_POINT('',#1664);
#600=VERTEX_POINT('',#1666);
#601=LINE('',#1443,#707);
#602=LINE('',#1448,#708);
#603=LINE('',#1452,#709);
#604=LINE('',#1457,#710);
#605=LINE('',#1464,#711);
#606=LINE('',#1468,#712);
#607=LINE('',#1473,#713);
#608=LINE('',#1477,#714);
#609=LINE('',#1482,#715);
#610=LINE('',#1486,#716);
#611=LINE('',#1488,#717);
#612=LINE('',#1491,#718);
#613=LINE('',#1493,#719);
#614=LINE('',#1495,#720);
#615=LINE('',#1496,#721);
#616=LINE('',#1499,#722);
#617=LINE('',#1501,#723);
#618=LINE('',#1503,#724);
#619=LINE('',#1504,#725);
#620=LINE('',#1507,#726);
#621=LINE('',#1509,#727);
#622=LINE('',#1511,#728);
#623=LINE('',#1512,#729);
#624=LINE('',#1515,#730);
#625=LINE('',#1517,#731);
#626=LINE('',#1519,#732);
#627=LINE('',#1540,#733);
#628=LINE('',#1542,#734);
#629=LINE('',#1544,#735);
#630=LINE('',#1545,#736);
#631=LINE('',#1547,#737);
#632=LINE('',#1549,#738);
#633=LINE('',#1550,#739);
#634=LINE('',#1552,#740);
#635=LINE('',#1554,#741);
#636=LINE('',#1558,#742);
#637=LINE('',#1562,#743);
#638=LINE('',#1563,#744);
#639=LINE('',#1565,#745);
#640=LINE('',#1567,#746);
#641=LINE('',#1568,#747);
#642=LINE('',#1570,#748);
#643=LINE('',#1572,#749);
#644=LINE('',#1574,#750);
#645=LINE('',#1576,#751);
#646=LINE('',#1578,#752);
#647=LINE('',#1582,#753);
#648=LINE('',#1584,#754);
#649=LINE('',#1586,#755);
#650=LINE('',#1590,#756);
#651=LINE('',#1593,#757);
#652=LINE('',#1595,#758);
#653=LINE('',#1597,#759);
#654=LINE('',#1598,#760);
#655=LINE('',#1601,#761);
#656=LINE('',#1603,#762);
#657=LINE('',#1605,#763);
#658=LINE('',#1606,#764);
#659=LINE('',#1609,#765);
#660=LINE('',#1611,#766);
#661=LINE('',#1613,#767);
#662=LINE('',#1614,#768);
#663=LINE('',#1617,#769);
#664=LINE('',#1619,#770);
#665=LINE('',#1621,#771);
#666=LINE('',#1622,#772);
#667=LINE('',#1624,#773);
#668=LINE('',#1626,#774);
#669=LINE('',#1628,#775);
#670=LINE('',#1629,#776);
#671=LINE('',#1631,#777);
#672=LINE('',#1633,#778);
#673=LINE('',#1634,#779);
#674=LINE('',#1636,#780);
#675=LINE('',#1638,#781);
#676=LINE('',#1639,#782);
#677=LINE('',#1641,#783);
#678=LINE('',#1643,#784);
#679=LINE('',#1644,#785);
#680=LINE('',#1646,#786);
#681=LINE('',#1669,#787);
#682=LINE('',#1671,#788);
#683=LINE('',#1676,#789);
#684=LINE('',#1678,#790);
#685=LINE('',#1683,#791);
#686=LINE('',#1685,#792);
#687=LINE('',#1689,#793);
#688=LINE('',#1691,#794);
#689=LINE('',#1696,#795);
#690=LINE('',#1698,#796);
#691=LINE('',#1703,#797);
#692=LINE('',#1704,#798);
#693=LINE('',#1706,#799);
#694=LINE('',#1708,#800);
#695=LINE('',#1711,#801);
#696=LINE('',#1712,#802);
#697=LINE('',#1714,#803);
#698=LINE('',#1716,#804);
#699=LINE('',#1719,#805);
#700=LINE('',#1720,#806);
#701=LINE('',#1722,#807);
#702=LINE('',#1724,#808);
#703=LINE('',#1727,#809);
#704=LINE('',#1728,#810);
#705=LINE('',#1730,#811);
#706=LINE('',#1732,#812);
#707=VECTOR('',#1165,1.);
#708=VECTOR('',#1168,1.);
#709=VECTOR('',#1173,1.);
#710=VECTOR('',#1176,1.);
#711=VECTOR('',#1183,1.);
#712=VECTOR('',#1186,1.);
#713=VECTOR('',#1191,1.);
#714=VECTOR('',#1194,1.);
#715=VECTOR('',#1199,1.);
#716=VECTOR('',#1202,1.);
#717=VECTOR('',#1205,1.);
#718=VECTOR('',#1206,1.);
#719=VECTOR('',#1207,1.);
#720=VECTOR('',#1208,1.);
#721=VECTOR('',#1209,1.);
#722=VECTOR('',#1210,1.);
#723=VECTOR('',#1211,1.);
#724=VECTOR('',#1212,1.);
#725=VECTOR('',#1213,1.);
#726=VECTOR('',#1214,1.);
#727=VECTOR('',#1215,1.);
#728=VECTOR('',#1216,1.);
#729=VECTOR('',#1217,1.);
#730=VECTOR('',#1218,1.);
#731=VECTOR('',#1219,1.);
#732=VECTOR('',#1220,1.);
#733=VECTOR('',#1241,1.);
#734=VECTOR('',#1242,1.);
#735=VECTOR('',#1243,1.);
#736=VECTOR('',#1244,1.);
#737=VECTOR('',#1245,1.);
#738=VECTOR('',#1246,1.);
#739=VECTOR('',#1247,1.);
#740=VECTOR('',#1248,1.);
#741=VECTOR('',#1249,1.);
#742=VECTOR('',#1252,1.);
#743=VECTOR('',#1255,1.);
#744=VECTOR('',#1256,1.);
#745=VECTOR('',#1257,1.);
#746=VECTOR('',#1258,1.);
#747=VECTOR('',#1259,1.);
#748=VECTOR('',#1260,1.);
#749=VECTOR('',#1261,1.);
#750=VECTOR('',#1264,1.);
#751=VECTOR('',#1265,1.);
#752=VECTOR('',#1268,1.);
#753=VECTOR('',#1271,1.);
#754=VECTOR('',#1274,1.);
#755=VECTOR('',#1275,1.);
#756=VECTOR('',#1282,1.);
#757=VECTOR('',#1283,1.);
#758=VECTOR('',#1284,1.);
#759=VECTOR('',#1285,1.);
#760=VECTOR('',#1286,1.);
#761=VECTOR('',#1287,1.);
#762=VECTOR('',#1288,1.);
#763=VECTOR('',#1289,1.);
#764=VECTOR('',#1290,1.);
#765=VECTOR('',#1291,1.);
#766=VECTOR('',#1292,1.);
#767=VECTOR('',#1293,1.);
#768=VECTOR('',#1294,1.);
#769=VECTOR('',#1295,1.);
#770=VECTOR('',#1296,1.);
#771=VECTOR('',#1297,1.);
#772=VECTOR('',#1298,1.);
#773=VECTOR('',#1299,1.);
#774=VECTOR('',#1300,1.);
#775=VECTOR('',#1301,1.);
#776=VECTOR('',#1302,1.);
#777=VECTOR('',#1303,1.);
#778=VECTOR('',#1304,1.);
#779=VECTOR('',#1305,1.);
#780=VECTOR('',#1306,1.);
#781=VECTOR('',#1307,1.);
#782=VECTOR('',#1308,1.);
#783=VECTOR('',#1309,1.);
#784=VECTOR('',#1310,1.);
#785=VECTOR('',#1311,1.);
#786=VECTOR('',#1312,1.);
#787=VECTOR('',#1337,1.);
#788=VECTOR('',#1340,1.);
#789=VECTOR('',#1349,1.);
#790=VECTOR('',#1352,1.);
#791=VECTOR('',#1361,1.);
#792=VECTOR('',#1364,1.);
#793=VECTOR('',#1371,1.);
#794=VECTOR('',#1374,1.);
#795=VECTOR('',#1383,1.);
#796=VECTOR('',#1386,1.);
#797=VECTOR('',#1395,1.);
#798=VECTOR('',#1396,1.);
#799=VECTOR('',#1399,1.);
#800=VECTOR('',#1402,1.);
#801=VECTOR('',#1407,1.);
#802=VECTOR('',#1408,1.);
#803=VECTOR('',#1411,1.);
#804=VECTOR('',#1414,1.);
#805=VECTOR('',#1419,1.);
#806=VECTOR('',#1420,1.);
#807=VECTOR('',#1423,1.);
#808=VECTOR('',#1426,1.);
#809=VECTOR('',#1431,1.);
#810=VECTOR('',#1432,1.);
#811=VECTOR('',#1435,1.);
#812=VECTOR('',#1438,1.);
#813=EDGE_LOOP('',(#81,#82,#83,#84));
#814=EDGE_LOOP('',(#85,#86,#87,#88));
#815=EDGE_LOOP('',(#89,#90,#91,#92));
#816=EDGE_LOOP('',(#93,#94,#95,#96));
#817=EDGE_LOOP('',(#97,#98,#99,#100));
#818=EDGE_LOOP('',(#101,#102,#103,#104));
#819=EDGE_LOOP('',(#105,#106,#107,#108));
#820=EDGE_LOOP('',(#109,#110,#111,#112));
#821=EDGE_LOOP('',(#113,#114,#115,#116));
#822=EDGE_LOOP('',(#117));
#823=EDGE_LOOP('',(#118));
#824=EDGE_LOOP('',(#119));
#825=EDGE_LOOP('',(#120));
#826=EDGE_LOOP('',(#121));
#827=EDGE_LOOP('',(#122));
#828=EDGE_LOOP('',(#123));
#829=EDGE_LOOP('',(#124));
#830=EDGE_LOOP('',(#125));
#831=EDGE_LOOP('',(#126));
#832=EDGE_LOOP('',(#127,#128,#129,#130,#131,#132,#133,#134,#135,#136,#137,
#138,#139,#140,#141,#142,#143,#144,#145,#146,#147,#148,#149,#150));
#833=EDGE_LOOP('',(#151,#152,#153,#154));
#834=EDGE_LOOP('',(#155,#156,#157,#158));
#835=EDGE_LOOP('',(#159,#160,#161,#162));
#836=EDGE_LOOP('',(#163,#164,#165,#166));
#837=EDGE_LOOP('',(#167,#168,#169,#170));
#838=EDGE_LOOP('',(#171,#172,#173,#174));
#839=EDGE_LOOP('',(#175,#176,#177,#178));
#840=EDGE_LOOP('',(#179,#180,#181,#182));
#841=EDGE_LOOP('',(#183,#184,#185,#186,#187,#188,#189,#190,#191,#192,#193,
#194,#195,#196,#197,#198,#199,#200,#201,#202,#203,#204,#205,#206));
#842=EDGE_LOOP('',(#207));
#843=EDGE_LOOP('',(#208));
#844=EDGE_LOOP('',(#209));
#845=EDGE_LOOP('',(#210));
#846=EDGE_LOOP('',(#211));
#847=EDGE_LOOP('',(#212));
#848=EDGE_LOOP('',(#213));
#849=EDGE_LOOP('',(#214));
#850=EDGE_LOOP('',(#215));
#851=EDGE_LOOP('',(#216));
#852=EDGE_LOOP('',(#217));
#853=EDGE_LOOP('',(#218));
#854=EDGE_LOOP('',(#219,#220,#221,#222));
#855=EDGE_LOOP('',(#223,#224,#225,#226));
#856=EDGE_LOOP('',(#227,#228,#229,#230));
#857=EDGE_LOOP('',(#231));
#858=EDGE_LOOP('',(#232));
#859=EDGE_LOOP('',(#233));
#860=EDGE_LOOP('',(#234));
#861=EDGE_LOOP('',(#235,#236,#237,#238));
#862=EDGE_LOOP('',(#239,#240,#241,#242));
#863=EDGE_LOOP('',(#243,#244,#245,#246));
#864=EDGE_LOOP('',(#247));
#865=EDGE_LOOP('',(#248));
#866=EDGE_LOOP('',(#249));
#867=EDGE_LOOP('',(#250));
#868=EDGE_LOOP('',(#251,#252,#253,#254));
#869=EDGE_LOOP('',(#255,#256,#257,#258));
#870=EDGE_LOOP('',(#259,#260,#261,#262));
#871=EDGE_LOOP('',(#263));
#872=EDGE_LOOP('',(#264));
#873=EDGE_LOOP('',(#265,#266,#267,#268));
#874=EDGE_LOOP('',(#269,#270,#271,#272));
#875=EDGE_LOOP('',(#273,#274,#275,#276));
#876=EDGE_LOOP('',(#277));
#877=EDGE_LOOP('',(#278));
#878=EDGE_LOOP('',(#279));
#879=EDGE_LOOP('',(#280));
#880=EDGE_LOOP('',(#281,#282,#283,#284));
#881=EDGE_LOOP('',(#285,#286,#287,#288));
#882=EDGE_LOOP('',(#289,#290,#291,#292));
#883=EDGE_LOOP('',(#293));
#884=EDGE_LOOP('',(#294));
#885=EDGE_LOOP('',(#295));
#886=EDGE_LOOP('',(#296));
#887=EDGE_LOOP('',(#297,#298,#299,#300));
#888=EDGE_LOOP('',(#301,#302,#303,#304));
#889=EDGE_LOOP('',(#305,#306,#307,#308));
#890=EDGE_LOOP('',(#309,#310,#311,#312));
#891=EDGE_LOOP('',(#313,#314,#315,#316));
#892=EDGE_LOOP('',(#317,#318,#319,#320));
#893=EDGE_LOOP('',(#321,#322,#323,#324));
#894=EDGE_LOOP('',(#325,#326,#327,#328));
#895=EDGE_LOOP('',(#329,#330,#331,#332));
#896=EDGE_LOOP('',(#333,#334,#335,#336));
#897=EDGE_LOOP('',(#337,#338,#339,#340));
#898=EDGE_LOOP('',(#341,#342,#343,#344));
#899=EDGE_LOOP('',(#345,#346,#347,#348));
#900=EDGE_LOOP('',(#349,#350,#351,#352));
#901=EDGE_LOOP('',(#353,#354,#355,#356));
#902=EDGE_LOOP('',(#357,#358,#359,#360));
#903=FACE_BOUND('',#813,.T.);
#904=FACE_BOUND('',#814,.T.);
#905=FACE_BOUND('',#815,.T.);
#906=FACE_BOUND('',#816,.T.);
#907=FACE_BOUND('',#817,.T.);
#908=FACE_BOUND('',#818,.T.);
#909=FACE_BOUND('',#819,.T.);
#910=FACE_BOUND('',#820,.T.);
#911=FACE_BOUND('',#821,.T.);
#912=FACE_BOUND('',#822,.T.);
#913=FACE_BOUND('',#823,.T.);
#914=FACE_BOUND('',#824,.T.);
#915=FACE_BOUND('',#825,.T.);
#916=FACE_BOUND('',#826,.T.);
#917=FACE_BOUND('',#827,.T.);
#918=FACE_BOUND('',#828,.T.);
#919=FACE_BOUND('',#829,.T.);
#920=FACE_BOUND('',#830,.T.);
#921=FACE_BOUND('',#831,.T.);
#922=FACE_BOUND('',#832,.T.);
#923=FACE_BOUND('',#833,.T.);
#924=FACE_BOUND('',#834,.T.);
#925=FACE_BOUND('',#835,.T.);
#926=FACE_BOUND('',#836,.T.);
#927=FACE_BOUND('',#837,.T.);
#928=FACE_BOUND('',#838,.T.);
#929=FACE_BOUND('',#839,.T.);
#930=FACE_BOUND('',#840,.T.);
#931=FACE_BOUND('',#841,.T.);
#932=FACE_BOUND('',#842,.T.);
#933=FACE_BOUND('',#843,.T.);
#934=FACE_BOUND('',#844,.T.);
#935=FACE_BOUND('',#845,.T.);
#936=FACE_BOUND('',#846,.T.);
#937=FACE_BOUND('',#847,.T.);
#938=FACE_BOUND('',#848,.T.);
#939=FACE_BOUND('',#849,.T.);
#940=FACE_BOUND('',#850,.T.);
#941=FACE_BOUND('',#851,.T.);
#942=FACE_BOUND('',#852,.T.);
#943=FACE_BOUND('',#853,.T.);
#944=FACE_BOUND('',#854,.T.);
#945=FACE_BOUND('',#855,.T.);
#946=FACE_BOUND('',#856,.T.);
#947=FACE_BOUND('',#857,.T.);
#948=FACE_BOUND('',#858,.T.);
#949=FACE_BOUND('',#859,.T.);
#950=FACE_BOUND('',#860,.T.);
#951=FACE_BOUND('',#861,.T.);
#952=FACE_BOUND('',#862,.T.);
#953=FACE_BOUND('',#863,.T.);
#954=FACE_BOUND('',#864,.T.);
#955=FACE_BOUND('',#865,.T.);
#956=FACE_BOUND('',#866,.T.);
#957=FACE_BOUND('',#867,.T.);
#958=FACE_BOUND('',#868,.T.);
#959=FACE_BOUND('',#869,.T.);
#960=FACE_BOUND('',#870,.T.);
#961=FACE_BOUND('',#871,.T.);
#962=FACE_BOUND('',#872,.T.);
#963=FACE_BOUND('',#873,.T.);
#964=FACE_BOUND('',#874,.T.);
#965=FACE_BOUND('',#875,.T.);
#966=FACE_BOUND('',#876,.T.);
#967=FACE_BOUND('',#877,.T.);
#968=FACE_BOUND('',#878,.T.);
#969=FACE_BOUND('',#879,.T.);
#970=FACE_BOUND('',#880,.T.);
#971=FACE_BOUND('',#881,.T.);
#972=FACE_BOUND('',#882,.T.);
#973=FACE_BOUND('',#883,.T.);
#974=FACE_BOUND('',#884,.T.);
#975=FACE_BOUND('',#885,.T.);
#976=FACE_BOUND('',#886,.T.);
#977=FACE_BOUND('',#887,.T.);
#978=FACE_BOUND('',#888,.T.);
#979=FACE_BOUND('',#889,.T.);
#980=FACE_BOUND('',#890,.T.);
#981=FACE_BOUND('',#891,.T.);
#982=FACE_BOUND('',#892,.T.);
#983=FACE_BOUND('',#893,.T.);
#984=FACE_BOUND('',#894,.T.);
#985=FACE_BOUND('',#895,.T.);
#986=FACE_BOUND('',#896,.T.);
#987=FACE_BOUND('',#897,.T.);
#988=FACE_BOUND('',#898,.T.);
#989=FACE_BOUND('',#899,.T.);
#990=FACE_BOUND('',#900,.T.);
#991=FACE_BOUND('',#901,.T.);
#992=FACE_BOUND('',#902,.T.);
#993=CYLINDRICAL_SURFACE('',#1075,0.04445);
#994=CYLINDRICAL_SURFACE('',#1078,0.04445);
#995=CYLINDRICAL_SURFACE('',#1081,0.04445);
#996=CYLINDRICAL_SURFACE('',#1084,0.04445);
#997=CYLINDRICAL_SURFACE('',#1087,0.04445);
#998=CYLINDRICAL_SURFACE('',#1104,0.04445);
#999=CYLINDRICAL_SURFACE('',#1107,0.03175);
#1000=CYLINDRICAL_SURFACE('',#1120,0.00238125);
#1001=CYLINDRICAL_SURFACE('',#1124,0.00238125);
#1002=CYLINDRICAL_SURFACE('',#1125,0.00238125);
#1003=CYLINDRICAL_SURFACE('',#1129,0.00238125);
#1004=CYLINDRICAL_SURFACE('',#1130,0.00238125);
#1005=CYLINDRICAL_SURFACE('',#1134,0.00238125);
#1006=CYLINDRICAL_SURFACE('',#1138,0.00238125);
#1007=CYLINDRICAL_SURFACE('',#1139,0.00238125);
#1008=CYLINDRICAL_SURFACE('',#1143,0.00238125);
#1009=CYLINDRICAL_SURFACE('',#1144,0.00238125);
#1010=ADVANCED_FACE('',(#903),#993,.T.);
#1011=ADVANCED_FACE('',(#904),#994,.T.);
#1012=ADVANCED_FACE('',(#905),#995,.T.);
#1013=ADVANCED_FACE('',(#906),#996,.T.);
#1014=ADVANCED_FACE('',(#907),#997,.T.);
#1015=ADVANCED_FACE('',(#908,#909,#910,#911,#912,#913,#914,#915,#916,#917,
#918,#919,#920,#921,#922),#12,.T.);
#1016=ADVANCED_FACE('',(#923),#13,.F.);
#1017=ADVANCED_FACE('',(#924),#998,.T.);
#1018=ADVANCED_FACE('',(#925),#14,.F.);
#1019=ADVANCED_FACE('',(#926),#999,.F.);
#1020=ADVANCED_FACE('',(#927,#928,#929,#930,#931,#932,#933,#934,#935,#936,
#937,#938,#939,#940,#941),#15,.F.);
#1021=ADVANCED_FACE('',(#942,#943),#1000,.F.);
#1022=ADVANCED_FACE('',(#944),#16,.F.);
#1023=ADVANCED_FACE('',(#945),#17,.F.);
#1024=ADVANCED_FACE('',(#946),#18,.F.);
#1025=ADVANCED_FACE('',(#947,#948),#1001,.F.);
#1026=ADVANCED_FACE('',(#949,#950),#1002,.F.);
#1027=ADVANCED_FACE('',(#951),#19,.F.);
#1028=ADVANCED_FACE('',(#952),#20,.F.);
#1029=ADVANCED_FACE('',(#953),#21,.F.);
#1030=ADVANCED_FACE('',(#954,#955),#1003,.F.);
#1031=ADVANCED_FACE('',(#956,#957),#1004,.F.);
#1032=ADVANCED_FACE('',(#958),#22,.F.);
#1033=ADVANCED_FACE('',(#959),#23,.F.);
#1034=ADVANCED_FACE('',(#960),#24,.F.);
#1035=ADVANCED_FACE('',(#961,#962),#1005,.F.);
#1036=ADVANCED_FACE('',(#963),#25,.F.);
#1037=ADVANCED_FACE('',(#964),#26,.F.);
#1038=ADVANCED_FACE('',(#965),#27,.F.);
#1039=ADVANCED_FACE('',(#966,#967),#1006,.F.);
#1040=ADVANCED_FACE('',(#968,#969),#1007,.F.);
#1041=ADVANCED_FACE('',(#970),#28,.F.);
#1042=ADVANCED_FACE('',(#971),#29,.F.);
#1043=ADVANCED_FACE('',(#972),#30,.F.);
#1044=ADVANCED_FACE('',(#973,#974),#1008,.F.);
#1045=ADVANCED_FACE('',(#975,#976),#1009,.F.);
#1046=ADVANCED_FACE('',(#977),#31,.F.);
#1047=ADVANCED_FACE('',(#978),#32,.F.);
#1048=ADVANCED_FACE('',(#979),#33,.F.);
#1049=ADVANCED_FACE('',(#980),#34,.F.);
#1050=ADVANCED_FACE('',(#981),#35,.F.);
#1051=ADVANCED_FACE('',(#982),#36,.F.);
#1052=ADVANCED_FACE('',(#983),#37,.F.);
#1053=ADVANCED_FACE('',(#984),#38,.F.);
#1054=ADVANCED_FACE('',(#985),#39,.F.);
#1055=ADVANCED_FACE('',(#986),#40,.F.);
#1056=ADVANCED_FACE('',(#987),#41,.F.);
#1057=ADVANCED_FACE('',(#988),#42,.F.);
#1058=ADVANCED_FACE('',(#989),#43,.F.);
#1059=ADVANCED_FACE('',(#990),#44,.F.);
#1060=ADVANCED_FACE('',(#991),#45,.F.);
#1061=ADVANCED_FACE('',(#992),#46,.F.);
#1062=CLOSED_SHELL('',(#1010,#1011,#1012,#1013,#1014,#1015,#1016,#1017,
#1018,#1019,#1020,#1021,#1022,#1023,#1024,#1025,#1026,#1027,#1028,#1029,
#1030,#1031,#1032,#1033,#1034,#1035,#1036,#1037,#1038,#1039,#1040,#1041,
#1042,#1043,#1044,#1045,#1046,#1047,#1048,#1049,#1050,#1051,#1052,#1053,
#1054,#1055,#1056,#1057,#1058,#1059,#1060,#1061));
#1063=STYLED_ITEM('',(#1064),#1071);
#1064=PRESENTATION_STYLE_ASSIGNMENT((#1065));
#1065=SURFACE_STYLE_USAGE(.BOTH.,#1066);
#1066=SURFACE_SIDE_STYLE('',(#1067));
#1067=SURFACE_STYLE_FILL_AREA(#1068);
#1068=FILL_AREA_STYLE('',(#1069));
#1069=FILL_AREA_STYLE_COLOUR('',#1070);
#1070=COLOUR_RGB('',0.701960784313725,0.701960784313725,0.701960784313725);
#1071=MANIFOLD_SOLID_BREP('Dowel Ring',#1062);
#1072=SHAPE_DEFINITION_REPRESENTATION(#1740,#1073);
#1073=SHAPE_REPRESENTATION('Dowel Ring',(#1074),#1735);
#1074=AXIS2_PLACEMENT_3D('',#1441,#1161,#1162);
#1075=AXIS2_PLACEMENT_3D('',#1442,#1163,#1164);
#1076=AXIS2_PLACEMENT_3D('',#1446,#1166,#1167);
#1077=AXIS2_PLACEMENT_3D('',#1450,#1169,#1170);
#1078=AXIS2_PLACEMENT_3D('',#1451,#1171,#1172);
#1079=AXIS2_PLACEMENT_3D('',#1455,#1174,#1175);
#1080=AXIS2_PLACEMENT_3D('',#1459,#1177,#1178);
#1081=AXIS2_PLACEMENT_3D('',#1460,#1179,#1180);
#1082=AXIS2_PLACEMENT_3D('',#1461,#1181,#1182);
#1083=AXIS2_PLACEMENT_3D('',#1466,#1184,#1185);
#1084=AXIS2_PLACEMENT_3D('',#1469,#1187,#1188);
#1085=AXIS2_PLACEMENT_3D('',#1470,#1189,#1190);
#1086=AXIS2_PLACEMENT_3D('',#1475,#1192,#1193);
#1087=AXIS2_PLACEMENT_3D('',#1478,#1195,#1196);
#1088=AXIS2_PLACEMENT_3D('',#1479,#1197,#1198);
#1089=AXIS2_PLACEMENT_3D('',#1484,#1200,#1201);
#1090=AXIS2_PLACEMENT_3D('',#1487,#1203,#1204);
#1091=AXIS2_PLACEMENT_3D('',#1520,#1221,#1222);
#1092=AXIS2_PLACEMENT_3D('',#1522,#1223,#1224);
#1093=AXIS2_PLACEMENT_3D('',#1524,#1225,#1226);
#1094=AXIS2_PLACEMENT_3D('',#1526,#1227,#1228);
#1095=AXIS2_PLACEMENT_3D('',#1528,#1229,#1230);
#1096=AXIS2_PLACEMENT_3D('',#1530,#1231,#1232);
#1097=AXIS2_PLACEMENT_3D('',#1532,#1233,#1234);
#1098=AXIS2_PLACEMENT_3D('',#1534,#1235,#1236);
#1099=AXIS2_PLACEMENT_3D('',#1536,#1237,#1238);
#1100=AXIS2_PLACEMENT_3D('',#1538,#1239,#1240);
#1101=AXIS2_PLACEMENT_3D('',#1556,#1250,#1251);
#1102=AXIS2_PLACEMENT_3D('',#1560,#1253,#1254);
#1103=AXIS2_PLACEMENT_3D('',#1573,#1262,#1263);
#1104=AXIS2_PLACEMENT_3D('',#1577,#1266,#1267);
#1105=AXIS2_PLACEMENT_3D('',#1580,#1269,#1270);
#1106=AXIS2_PLACEMENT_3D('',#1583,#1272,#1273);
#1107=AXIS2_PLACEMENT_3D('',#1587,#1276,#1277);
#1108=AXIS2_PLACEMENT_3D('',#1588,#1278,#1279);
#1109=AXIS2_PLACEMENT_3D('',#1589,#1280,#1281);
#1110=AXIS2_PLACEMENT_3D('',#1647,#1313,#1314);
#1111=AXIS2_PLACEMENT_3D('',#1649,#1315,#1316);
#1112=AXIS2_PLACEMENT_3D('',#1651,#1317,#1318);
#1113=AXIS2_PLACEMENT_3D('',#1653,#1319,#1320);
#1114=AXIS2_PLACEMENT_3D('',#1655,#1321,#1322);
#1115=AXIS2_PLACEMENT_3D('',#1657,#1323,#1324);
#1116=AXIS2_PLACEMENT_3D('',#1659,#1325,#1326);
#1117=AXIS2_PLACEMENT_3D('',#1661,#1327,#1328);
#1118=AXIS2_PLACEMENT_3D('',#1663,#1329,#1330);
#1119=AXIS2_PLACEMENT_3D('',#1665,#1331,#1332);
#1120=AXIS2_PLACEMENT_3D('',#1667,#1333,#1334);
#1121=AXIS2_PLACEMENT_3D('',#1668,#1335,#1336);
#1122=AXIS2_PLACEMENT_3D('',#1670,#1338,#1339);
#1123=AXIS2_PLACEMENT_3D('',#1672,#1341,#1342);
#1124=AXIS2_PLACEMENT_3D('',#1673,#1343,#1344);
#1125=AXIS2_PLACEMENT_3D('',#1674,#1345,#1346);
#1126=AXIS2_PLACEMENT_3D('',#1675,#1347,#1348);
#1127=AXIS2_PLACEMENT_3D('',#1677,#1350,#1351);
#1128=AXIS2_PLACEMENT_3D('',#1679,#1353,#1354);
#1129=AXIS2_PLACEMENT_3D('',#1680,#1355,#1356);
#1130=AXIS2_PLACEMENT_3D('',#1681,#1357,#1358);
#1131=AXIS2_PLACEMENT_3D('',#1682,#1359,#1360);
#1132=AXIS2_PLACEMENT_3D('',#1684,#1362,#1363);
#1133=AXIS2_PLACEMENT_3D('',#1686,#1365,#1366);
#1134=AXIS2_PLACEMENT_3D('',#1687,#1367,#1368);
#1135=AXIS2_PLACEMENT_3D('',#1688,#1369,#1370);
#1136=AXIS2_PLACEMENT_3D('',#1690,#1372,#1373);
#1137=AXIS2_PLACEMENT_3D('',#1692,#1375,#1376);
#1138=AXIS2_PLACEMENT_3D('',#1693,#1377,#1378);
#1139=AXIS2_PLACEMENT_3D('',#1694,#1379,#1380);
#1140=AXIS2_PLACEMENT_3D('',#1695,#1381,#1382);
#1141=AXIS2_PLACEMENT_3D('',#1697,#1384,#1385);
#1142=AXIS2_PLACEMENT_3D('',#1699,#1387,#1388);
#1143=AXIS2_PLACEMENT_3D('',#1700,#1389,#1390);
#1144=AXIS2_PLACEMENT_3D('',#1701,#1391,#1392);
#1145=AXIS2_PLACEMENT_3D('',#1702,#1393,#1394);
#1146=AXIS2_PLACEMENT_3D('',#1705,#1397,#1398);
#1147=AXIS2_PLACEMENT_3D('',#1707,#1400,#1401);
#1148=AXIS2_PLACEMENT_3D('',#1709,#1403,#1404);
#1149=AXIS2_PLACEMENT_3D('',#1710,#1405,#1406);
#1150=AXIS2_PLACEMENT_3D('',#1713,#1409,#1410);
#1151=AXIS2_PLACEMENT_3D('',#1715,#1412,#1413);
#1152=AXIS2_PLACEMENT_3D('',#1717,#1415,#1416);
#1153=AXIS2_PLACEMENT_3D('',#1718,#1417,#1418);
#1154=AXIS2_PLACEMENT_3D('',#1721,#1421,#1422);
#1155=AXIS2_PLACEMENT_3D('',#1723,#1424,#1425);
#1156=AXIS2_PLACEMENT_3D('',#1725,#1427,#1428);
#1157=AXIS2_PLACEMENT_3D('',#1726,#1429,#1430);
#1158=AXIS2_PLACEMENT_3D('',#1729,#1433,#1434);
#1159=AXIS2_PLACEMENT_3D('',#1731,#1436,#1437);
#1160=AXIS2_PLACEMENT_3D('',#1733,#1439,#1440);
#1161=DIRECTION('',(0.,0.,1.));
#1162=DIRECTION('',(1.,0.,0.));
#1163=DIRECTION('',(0.,1.,0.));
#1164=DIRECTION('',(0.,0.,1.));
#1165=DIRECTION('',(0.,1.,0.));
#1166=DIRECTION('',(0.,-1.,0.));
#1167=DIRECTION('',(0.,0.,-1.));
#1168=DIRECTION('',(0.,1.,0.));
#1169=DIRECTION('',(0.,-1.,0.));
#1170=DIRECTION('',(0.,0.,-1.));
#1171=DIRECTION('',(0.,1.,0.));
#1172=DIRECTION('',(0.,0.,1.));
#1173=DIRECTION('',(0.,1.,0.));
#1174=DIRECTION('',(0.,-1.,0.));
#1175=DIRECTION('',(0.,0.,-1.));
#1176=DIRECTION('',(0.,1.,0.));
#1177=DIRECTION('',(0.,-1.,0.));
#1178=DIRECTION('',(0.,0.,-1.));
#1179=DIRECTION('',(0.,1.,0.));
#1180=DIRECTION('',(0.,0.,1.));
#1181=DIRECTION('',(0.,-1.,0.));
#1182=DIRECTION('',(0.,0.,-1.));
#1183=DIRECTION('',(0.,1.,0.));
#1184=DIRECTION('',(0.,-1.,0.));
#1185=DIRECTION('',(0.,0.,-1.));
#1186=DIRECTION('',(0.,1.,0.));
#1187=DIRECTION('',(0.,1.,0.));
#1188=DIRECTION('',(0.,0.,1.));
#1189=DIRECTION('',(0.,-1.,0.));
#1190=DIRECTION('',(0.,0.,-1.));
#1191=DIRECTION('',(0.,1.,0.));
#1192=DIRECTION('',(0.,-1.,0.));
#1193=DIRECTION('',(0.,0.,-1.));
#1194=DIRECTION('',(0.,1.,0.));
#1195=DIRECTION('',(0.,1.,0.));
#1196=DIRECTION('',(0.,0.,1.));
#1197=DIRECTION('',(0.,-1.,0.));
#1198=DIRECTION('',(0.,0.,-1.));
#1199=DIRECTION('',(0.,1.,0.));
#1200=DIRECTION('',(0.,-1.,0.));
#1201=DIRECTION('',(0.,0.,-1.));
#1202=DIRECTION('',(0.,1.,0.));
#1203=DIRECTION('',(0.,-1.,0.));
#1204=DIRECTION('',(1.,0.,0.));
#1205=DIRECTION('',(0.,0.,1.));
#1206=DIRECTION('',(0.832050294337844,0.,-0.554700196225229));
#1207=DIRECTION('',(0.,0.,-1.));
#1208=DIRECTION('',(-0.832050294337844,0.,-0.554700196225229));
#1209=DIRECTION('',(-1.22464679914735E-16,0.,-1.));
#1210=DIRECTION('',(-0.832050294337844,0.,0.554700196225229));
#1211=DIRECTION('',(1.22464679914735E-16,0.,1.));
#1212=DIRECTION('',(0.832050294337844,0.,0.554700196225229));
#1213=DIRECTION('',(0.866025403784439,0.,-0.5));
#1214=DIRECTION('',(-0.896409608584183,0.,-0.443226594010277));
#1215=DIRECTION('',(-0.866025403784439,0.,0.5));
#1216=DIRECTION('',(-0.064359314246339,0.,0.997926790235507));
#1217=DIRECTION('',(0.866025403784439,0.,0.5));
#1218=DIRECTION('',(-0.0643593142463399,0.,-0.997926790235507));
#1219=DIRECTION('',(-0.866025403784439,0.,-0.5));
#1220=DIRECTION('',(-0.896409608584183,0.,0.443226594010278));
#1221=DIRECTION('',(0.,-1.,0.));
#1222=DIRECTION('',(0.,0.,-1.));
#1223=DIRECTION('',(0.,-1.,0.));
#1224=DIRECTION('',(0.,0.,-1.));
#1225=DIRECTION('',(0.,-1.,0.));
#1226=DIRECTION('',(0.,0.,-1.));
#1227=DIRECTION('',(0.,-1.,0.));
#1228=DIRECTION('',(0.,0.,-1.));
#1229=DIRECTION('',(0.,-1.,0.));
#1230=DIRECTION('',(0.,0.,-1.));
#1231=DIRECTION('',(0.,-1.,0.));
#1232=DIRECTION('',(0.,0.,-1.));
#1233=DIRECTION('',(0.,-1.,0.));
#1234=DIRECTION('',(0.,0.,-1.));
#1235=DIRECTION('',(0.,-1.,0.));
#1236=DIRECTION('',(0.,0.,-1.));
#1237=DIRECTION('',(0.,-1.,0.));
#1238=DIRECTION('',(0.,0.,-1.));
#1239=DIRECTION('',(0.,-1.,0.));
#1240=DIRECTION('',(0.,0.,-1.));
#1241=DIRECTION('',(-3.57285061158949E-17,0.,-1.));
#1242=DIRECTION('',(-1.,0.,1.22464679914735E-16));
#1243=DIRECTION('',(-7.63958078352521E-18,0.,1.));
#1244=DIRECTION('',(0.866025403784439,0.,-0.5));
#1245=DIRECTION('',(-0.5,0.,-0.866025403784439));
#1246=DIRECTION('',(-0.866025403784439,0.,0.5));
#1247=DIRECTION('',(0.866025403784439,0.,0.5));
#1248=DIRECTION('',(0.5,0.,-0.866025403784439));
#1249=DIRECTION('',(-0.866025403784439,0.,-0.5));
#1250=DIRECTION('',(0.,-1.,0.));
#1251=DIRECTION('',(0.,0.,-1.));
#1252=DIRECTION('',(-0.833735331450364,0.,-0.552164284512637));
#1253=DIRECTION('',(0.,-1.,0.));
#1254=DIRECTION('',(0.,0.,-1.));
#1255=DIRECTION('',(-0.833735331450363,0.,0.552164284512639));
#1256=DIRECTION('',(-0.866025403784439,0.,0.5));
#1257=DIRECTION('',(0.5,0.,0.866025403784439));
#1258=DIRECTION('',(0.866025403784439,0.,-0.5));
#1259=DIRECTION('',(-0.866025403784439,0.,-0.5));
#1260=DIRECTION('',(-0.5,0.,0.866025403784439));
#1261=DIRECTION('',(0.866025403784439,0.,0.5));
#1262=DIRECTION('',(-0.552164284512639,0.,-0.833735331450363));
#1263=DIRECTION('',(-0.833735331450363,0.,0.552164284512639));
#1264=DIRECTION('',(-0.833735331450363,0.,0.552164284512639));
#1265=DIRECTION('',(0.,1.,0.));
#1266=DIRECTION('',(0.,1.,0.));
#1267=DIRECTION('',(0.,0.,1.));
#1268=DIRECTION('',(0.,1.,0.));
#1269=DIRECTION('',(0.,-1.,0.));
#1270=DIRECTION('',(0.,0.,-1.));
#1271=DIRECTION('',(0.,1.,0.));
#1272=DIRECTION('',(0.552164284512637,0.,-0.833735331450363));
#1273=DIRECTION('',(-0.833735331450364,0.,-0.552164284512637));
#1274=DIRECTION('',(-0.833735331450364,0.,-0.552164284512637));
#1275=DIRECTION('',(0.,1.,0.));
#1276=DIRECTION('',(0.,1.,0.));
#1277=DIRECTION('',(0.,0.,1.));
#1278=DIRECTION('',(0.,-1.,0.));
#1279=DIRECTION('',(0.,0.,-1.));
#1280=DIRECTION('',(0.,-1.,0.));
#1281=DIRECTION('',(1.,0.,0.));
#1282=DIRECTION('',(-0.832050294337844,0.,0.554700196225229));
#1283=DIRECTION('',(0.,0.,-1.));
#1284=DIRECTION('',(0.832050294337844,0.,0.554700196225229));
#1285=DIRECTION('',(0.,0.,1.));
#1286=DIRECTION('',(0.832050294337844,0.,-0.554700196225229));
#1287=DIRECTION('',(1.22464679914735E-16,0.,1.));
#1288=DIRECTION('',(-0.832050294337844,0.,-0.554700196225229));
#1289=DIRECTION('',(-1.22464679914735E-16,0.,-1.));
#1290=DIRECTION('',(0.896409608584183,0.,0.443226594010277));
#1291=DIRECTION('',(-0.866025403784438,0.,0.5));
#1292=DIRECTION('',(0.0643593142463389,0.,-0.997926790235507));
#1293=DIRECTION('',(0.866025403784438,0.,-0.5));
#1294=DIRECTION('',(0.06435931424634,0.,0.997926790235507));
#1295=DIRECTION('',(-0.866025403784439,0.,-0.5));
#1296=DIRECTION('',(0.896409608584183,0.,-0.443226594010278));
#1297=DIRECTION('',(0.866025403784439,0.,0.5));
#1298=DIRECTION('',(3.5728506115895E-17,0.,1.));
#1299=DIRECTION('',(-0.866025403784439,0.,-0.5));
#1300=DIRECTION('',(0.5,0.,-0.866025403784439));
#1301=DIRECTION('',(0.866025403784439,0.,0.5));
#1302=DIRECTION('',(-0.866025403784439,0.,0.5));
#1303=DIRECTION('',(-0.5,0.,-0.866025403784439));
#1304=DIRECTION('',(0.866025403784439,0.,-0.5));
#1305=DIRECTION('',(0.866025403784439,0.,0.5));
#1306=DIRECTION('',(-0.5,0.,0.866025403784439));
#1307=DIRECTION('',(-0.866025403784439,0.,-0.5));
#1308=DIRECTION('',(0.866025403784439,0.,-0.5));
#1309=DIRECTION('',(0.5,0.,0.866025403784438));
#1310=DIRECTION('',(-0.866025403784438,0.,0.5));
#1311=DIRECTION('',(7.63958078352519E-18,0.,-1.));
#1312=DIRECTION('',(1.,0.,-1.22464679914735E-16));
#1313=DIRECTION('',(0.,-1.,0.));
#1314=DIRECTION('',(1.22464679914735E-16,0.,1.));
#1315=DIRECTION('',(0.,-1.,0.));
#1316=DIRECTION('',(1.22464679914735E-16,0.,1.));
#1317=DIRECTION('',(0.,-1.,0.));
#1318=DIRECTION('',(0.866025403784439,0.,0.5));
#1319=DIRECTION('',(0.,-1.,0.));
#1320=DIRECTION('',(0.,0.,-1.));
#1321=DIRECTION('',(0.,-1.,0.));
#1322=DIRECTION('',(0.866025403784439,0.,-0.5));
#1323=DIRECTION('',(0.,-1.,0.));
#1324=DIRECTION('',(-0.866025403784439,0.,-0.5));
#1325=DIRECTION('',(0.,-1.,0.));
#1326=DIRECTION('',(-0.866025403784439,0.,-0.5));
#1327=DIRECTION('',(0.,-1.,0.));
#1328=DIRECTION('',(-0.866025403784438,0.,0.5));
#1329=DIRECTION('',(0.,-1.,0.));
#1330=DIRECTION('',(-0.866025403784438,0.,0.5));
#1331=DIRECTION('',(0.,-1.,0.));
#1332=DIRECTION('',(0.,0.,-1.));
#1333=DIRECTION('',(0.,1.,0.));
#1334=DIRECTION('',(0.,0.,1.));
#1335=DIRECTION('',(0.5,0.,-0.866025403784439));
#1336=DIRECTION('',(-0.866025403784439,0.,-0.5));
#1337=DIRECTION('',(0.,1.,0.));
#1338=DIRECTION('',(-0.5,0.,0.866025403784439));
#1339=DIRECTION('',(0.866025403784439,0.,0.5));
#1340=DIRECTION('',(0.,1.,0.));
#1341=DIRECTION('',(-0.866025403784439,0.,-0.5));
#1342=DIRECTION('',(-0.5,0.,0.866025403784439));
#1343=DIRECTION('',(0.,1.,0.));
#1344=DIRECTION('',(0.866025403784438,0.,-0.5));
#1345=DIRECTION('',(0.,1.,0.));
#1346=DIRECTION('',(0.866025403784438,0.,-0.5));
#1347=DIRECTION('',(-0.5,0.,-0.866025403784438));
#1348=DIRECTION('',(-0.866025403784438,0.,0.5));
#1349=DIRECTION('',(0.,1.,0.));
#1350=DIRECTION('',(0.5,0.,0.866025403784438));
#1351=DIRECTION('',(0.866025403784439,0.,-0.5));
#1352=DIRECTION('',(0.,1.,0.));
#1353=DIRECTION('',(-0.866025403784438,0.,0.5));
#1354=DIRECTION('',(0.5,0.,0.866025403784438));
#1355=DIRECTION('',(0.,1.,0.));
#1356=DIRECTION('',(0.866025403784439,0.,0.5));
#1357=DIRECTION('',(0.,1.,0.));
#1358=DIRECTION('',(0.866025403784439,0.,0.5));
#1359=DIRECTION('',(-0.5,0.,0.866025403784439));
#1360=DIRECTION('',(0.866025403784439,0.,0.5));
#1361=DIRECTION('',(0.,1.,0.));
#1362=DIRECTION('',(0.5,0.,-0.866025403784439));
#1363=DIRECTION('',(-0.866025403784439,0.,-0.5));
#1364=DIRECTION('',(0.,1.,0.));
#1365=DIRECTION('',(0.866025403784439,0.,0.5));
#1366=DIRECTION('',(0.5,0.,-0.866025403784439));
#1367=DIRECTION('',(0.,1.,0.));
#1368=DIRECTION('',(-0.866025403784439,0.,0.5));
#1369=DIRECTION('',(0.5,0.,0.866025403784439));
#1370=DIRECTION('',(0.866025403784439,0.,-0.5));
#1371=DIRECTION('',(0.,1.,0.));
#1372=DIRECTION('',(-0.5,0.,-0.866025403784439));
#1373=DIRECTION('',(-0.866025403784439,0.,0.5));
#1374=DIRECTION('',(0.,1.,0.));
#1375=DIRECTION('',(0.866025403784439,0.,-0.5));
#1376=DIRECTION('',(-0.5,0.,-0.866025403784439));
#1377=DIRECTION('',(0.,1.,0.));
#1378=DIRECTION('',(0.,0.,1.));
#1379=DIRECTION('',(0.,1.,0.));
#1380=DIRECTION('',(-0.866025403784439,0.,-0.5));
#1381=DIRECTION('',(-1.,0.,3.57285061158949E-17));
#1382=DIRECTION('',(3.57285061158949E-17,0.,1.));
#1383=DIRECTION('',(0.,1.,0.));
#1384=DIRECTION('',(1.,0.,7.63958078352521E-18));
#1385=DIRECTION('',(7.63958078352521E-18,0.,-1.));
#1386=DIRECTION('',(0.,1.,0.));
#1387=DIRECTION('',(1.22464679914735E-16,0.,1.));
#1388=DIRECTION('',(1.,0.,-1.22464679914735E-16));
#1389=DIRECTION('',(0.,1.,0.));
#1390=DIRECTION('',(-1.22464679914735E-16,0.,-1.));
#1391=DIRECTION('',(0.,1.,0.));
#1392=DIRECTION('',(-1.22464679914735E-16,0.,-1.));
#1393=DIRECTION('',(0.5,0.,-0.866025403784439));
#1394=DIRECTION('',(-0.866025403784439,0.,-0.5));
#1395=DIRECTION('',(0.,1.,0.));
#1396=DIRECTION('',(0.,1.,0.));
#1397=DIRECTION('',(0.443226594010278,0.,0.896409608584183));
#1398=DIRECTION('',(0.896409608584183,0.,-0.443226594010278));
#1399=DIRECTION('',(0.,1.,0.));
#1400=DIRECTION('',(-0.5,0.,0.866025403784439));
#1401=DIRECTION('',(0.866025403784439,0.,0.5));
#1402=DIRECTION('',(0.,1.,0.));
#1403=DIRECTION('',(-0.997926790235506,0.,0.0643593142463399));
#1404=DIRECTION('',(0.0643593142463399,0.,0.997926790235507));
#1405=DIRECTION('',(-0.5,0.,-0.866025403784438));
#1406=DIRECTION('',(-0.866025403784438,0.,0.5));
#1407=DIRECTION('',(0.,1.,0.));
#1408=DIRECTION('',(0.,1.,0.));
#1409=DIRECTION('',(0.997926790235507,0.,0.064359314246339));
#1410=DIRECTION('',(0.064359314246339,0.,-0.997926790235507));
#1411=DIRECTION('',(0.,1.,0.));
#1412=DIRECTION('',(0.5,0.,0.866025403784438));
#1413=DIRECTION('',(0.866025403784438,0.,-0.5));
#1414=DIRECTION('',(0.,1.,0.));
#1415=DIRECTION('',(-0.443226594010277,0.,0.896409608584183));
#1416=DIRECTION('',(0.896409608584183,0.,0.443226594010277));
#1417=DIRECTION('',(-1.,0.,1.22464679914735E-16));
#1418=DIRECTION('',(1.22464679914735E-16,0.,1.));
#1419=DIRECTION('',(0.,1.,0.));
#1420=DIRECTION('',(0.,1.,0.));
#1421=DIRECTION('',(0.554700196225229,0.,-0.832050294337844));
#1422=DIRECTION('',(-0.832050294337844,0.,-0.554700196225229));
#1423=DIRECTION('',(0.,1.,0.));
#1424=DIRECTION('',(1.,0.,-1.22464679914735E-16));
#1425=DIRECTION('',(-1.22464679914735E-16,0.,-1.));
#1426=DIRECTION('',(0.,1.,0.));
#1427=DIRECTION('',(0.554700196225229,0.,0.832050294337844));
#1428=DIRECTION('',(0.832050294337844,0.,-0.554700196225229));
#1429=DIRECTION('',(1.,0.,0.));
#1430=DIRECTION('',(0.,0.,-1.));
#1431=DIRECTION('',(0.,1.,0.));
#1432=DIRECTION('',(0.,1.,0.));
#1433=DIRECTION('',(-0.554700196225229,0.,0.832050294337844));
#1434=DIRECTION('',(0.832050294337844,0.,0.554700196225229));
#1435=DIRECTION('',(0.,1.,0.));
#1436=DIRECTION('',(-1.,0.,0.));
#1437=DIRECTION('',(0.,0.,1.));
#1438=DIRECTION('',(0.,1.,0.));
#1439=DIRECTION('',(-0.554700196225229,0.,-0.832050294337844));
#1440=DIRECTION('',(-0.832050294337844,0.,0.554700196225229));
#1441=CARTESIAN_POINT('',(0.,0.,0.));
#1442=CARTESIAN_POINT('',(7.17343650810834E-18,-0.00635,-1.38777878078145E-17));
#1443=CARTESIAN_POINT('',(-0.003,-0.0254,-0.0443486471045059));
#1444=CARTESIAN_POINT('',(-0.003,-0.00635,-0.0443486471045059));
#1445=CARTESIAN_POINT('',(-0.003,0.,-0.0443486471045059));
#1446=CARTESIAN_POINT('',(7.17343650810834E-18,-0.00635,-1.38777878078145E-17));
#1447=CARTESIAN_POINT('',(-0.0369070550159733,-0.00635,-0.0247723997636063));
#1448=CARTESIAN_POINT('',(-0.0369070550159733,-0.0254,-0.0247723997636063));
#1449=CARTESIAN_POINT('',(-0.0369070550159733,0.,-0.0247723997636063));
#1450=CARTESIAN_POINT('',(7.17343650810834E-18,0.,-1.38777878078145E-17));
#1451=CARTESIAN_POINT('',(7.17343650810834E-18,-0.00635,-1.38777878078145E-17));
#1452=CARTESIAN_POINT('',(-0.0369070550159733,-0.0254,0.0247723997636063));
#1453=CARTESIAN_POINT('',(-0.0369070550159733,-0.00635,0.0247723997636063));
#1454=CARTESIAN_POINT('',(-0.0369070550159733,0.,0.0247723997636063));
#1455=CARTESIAN_POINT('',(7.17343650810834E-18,-0.00635,-1.38777878078145E-17));
#1456=CARTESIAN_POINT('',(-0.0218682105809336,-0.00635,0.03869862873524));
#1457=CARTESIAN_POINT('',(-0.0218682105809336,-0.00635,0.03869862873524));
#1458=CARTESIAN_POINT('',(-0.0218682105809336,0.,0.03869862873524));
#1459=CARTESIAN_POINT('',(7.17343650810834E-18,0.,-1.38777878078145E-17));
#1460=CARTESIAN_POINT('',(7.17343650810834E-18,-0.00635,-1.38777878078145E-17));
#1461=CARTESIAN_POINT('',(7.17343650810834E-18,-0.00635,-1.38777878078145E-17));
#1462=CARTESIAN_POINT('',(-0.0399070550159733,-0.00635,0.0195762473408996));
#1463=CARTESIAN_POINT('',(-0.0399070550159733,-0.00635,-0.0195762473408996));
#1464=CARTESIAN_POINT('',(-0.0399070550159733,-0.0254,0.0195762473408996));
#1465=CARTESIAN_POINT('',(-0.0399070550159733,0.,0.0195762473408996));
#1466=CARTESIAN_POINT('',(7.17343650810834E-18,0.,-1.38777878078145E-17));
#1467=CARTESIAN_POINT('',(-0.0399070550159733,0.,-0.0195762473408996));
#1468=CARTESIAN_POINT('',(-0.0399070550159733,-0.0254,-0.0195762473408996));
#1469=CARTESIAN_POINT('',(7.17343650810834E-18,-0.00635,-1.38777878078145E-17));
#1470=CARTESIAN_POINT('',(7.17343650810834E-18,-0.00635,-1.38777878078145E-17));
#1471=CARTESIAN_POINT('',(0.003,-0.00635,-0.0443486471045059));
#1472=CARTESIAN_POINT('',(0.0369070550159733,-0.00635,-0.0247723997636063));
#1473=CARTESIAN_POINT('',(0.003,-0.0254,-0.0443486471045059));
#1474=CARTESIAN_POINT('',(0.003,0.,-0.0443486471045059));
#1475=CARTESIAN_POINT('',(7.17343650810834E-18,0.,-1.38777878078145E-17));
#1476=CARTESIAN_POINT('',(0.0369070550159733,0.,-0.0247723997636063));
#1477=CARTESIAN_POINT('',(0.0369070550159733,-0.0254,-0.0247723997636063));
#1478=CARTESIAN_POINT('',(7.17343650810834E-18,-0.00635,-1.38777878078145E-17));
#1479=CARTESIAN_POINT('',(7.17343650810834E-18,-0.00635,-1.38777878078145E-17));
#1480=CARTESIAN_POINT('',(0.0399070550159733,-0.00635,-0.0195762473408996));
#1481=CARTESIAN_POINT('',(0.0399070550159733,-0.00635,0.0195762473408996));
#1482=CARTESIAN_POINT('',(0.0399070550159733,-0.0254,-0.0195762473408996));
#1483=CARTESIAN_POINT('',(0.0399070550159733,0.,-0.0195762473408996));
#1484=CARTESIAN_POINT('',(7.17343650810834E-18,0.,-1.38777878078145E-17));
#1485=CARTESIAN_POINT('',(0.0399070550159733,0.,0.0195762473408996));
#1486=CARTESIAN_POINT('',(0.0399070550159733,-0.0254,0.0195762473408996));
#1487=CARTESIAN_POINT('',(0.,-0.00635,0.));
#1488=CARTESIAN_POINT('',(0.0396875,-0.00635,0.));
#1489=CARTESIAN_POINT('',(0.0396875,-0.00635,-0.009525));
#1490=CARTESIAN_POINT('',(0.0396875,-0.00635,0.009525));
#1491=CARTESIAN_POINT('',(0.0078153846153846,-0.00635,0.0117230769230769));
#1492=CARTESIAN_POINT('',(0.034925,-0.00635,-0.00635));
#1493=CARTESIAN_POINT('',(0.034925,-0.00635,0.));
#1494=CARTESIAN_POINT('',(0.034925,-0.00635,0.00635));
#1495=CARTESIAN_POINT('',(0.00781538461538462,-0.00635,-0.0117230769230769));
#1496=CARTESIAN_POINT('',(-0.0396875,-0.00635,4.86031698411606E-18));
#1497=CARTESIAN_POINT('',(-0.0396875,-0.00635,0.009525));
#1498=CARTESIAN_POINT('',(-0.0396875,-0.00635,-0.009525));
#1499=CARTESIAN_POINT('',(-0.0078153846153846,-0.00635,-0.0117230769230769));
#1500=CARTESIAN_POINT('',(-0.034925,-0.00635,0.00635));
#1501=CARTESIAN_POINT('',(-0.034925,-0.00635,4.27707894602213E-18));
#1502=CARTESIAN_POINT('',(-0.034925,-0.00635,-0.00635));
#1503=CARTESIAN_POINT('',(-0.00781538461538461,-0.00635,0.0117230769230769));
#1504=CARTESIAN_POINT('',(-0.01984375,-0.00635,-0.0343703832126949));
#1505=CARTESIAN_POINT('',(-0.0280926419710468,-0.00635,-0.0296078832126949));
#1506=CARTESIAN_POINT('',(-0.0115948580289532,-0.00635,-0.0391328832126949));
#1507=CARTESIAN_POINT('',(0.00624479011821141,-0.00635,-0.0126298600788076));
#1508=CARTESIAN_POINT('',(-0.0229617613140312,-0.00635,-0.0270709372271715));
#1509=CARTESIAN_POINT('',(-0.0174625,-0.00635,-0.0302459372271715));
#1510=CARTESIAN_POINT('',(-0.0119632386859688,-0.00635,-0.0334209372271715));
#1511=CARTESIAN_POINT('',(-0.014060174733596,-0.00635,-0.000906783155730681));
#1512=CARTESIAN_POINT('',(0.01984375,-0.00635,-0.0343703832126949));
#1513=CARTESIAN_POINT('',(0.0115948580289532,-0.00635,-0.039132883212695));
#1514=CARTESIAN_POINT('',(0.0280926419710467,-0.00635,-0.0296078832126949));
#1515=CARTESIAN_POINT('',(0.014060174733596,-0.00635,-0.000906783155730694));
#1516=CARTESIAN_POINT('',(0.0119632386859688,-0.00635,-0.0334209372271716));
#1517=CARTESIAN_POINT('',(0.0174625,-0.00635,-0.0302459372271715));
#1518=CARTESIAN_POINT('',(0.0229617613140312,-0.00635,-0.0270709372271715));
#1519=CARTESIAN_POINT('',(-0.00624479011821143,-0.00635,-0.0126298600788076));
#1520=CARTESIAN_POINT('',(-0.0365125,-0.00635,0.0127));
#1521=CARTESIAN_POINT('',(-0.0365125,-0.00635,0.01031875));
#1522=CARTESIAN_POINT('',(-0.0365125,-0.00635,-0.0127));
#1523=CARTESIAN_POINT('',(-0.0365125,-0.00635,-0.01508125));
#1524=CARTESIAN_POINT('',(0.0292547726280624,-0.00635,0.0252707525556793));
#1525=CARTESIAN_POINT('',(0.0292547726280624,-0.00635,0.0228895025556793));
#1526=CARTESIAN_POINT('',(-0.00725772737193765,-0.00635,-0.0379707525556793));
#1527=CARTESIAN_POINT('',(-0.00725772737193765,-0.00635,-0.0403520025556793));
#1528=CARTESIAN_POINT('',(-0.0292547726280624,-0.00635,-0.0252707525556793));
#1529=CARTESIAN_POINT('',(-0.0292547726280624,-0.00635,-0.0276520025556793));
#1530=CARTESIAN_POINT('',(0.0365125,-0.00635,0.0127));
#1531=CARTESIAN_POINT('',(0.0365125,-0.00635,0.01031875));
#1532=CARTESIAN_POINT('',(0.0292547726280624,-0.00635,-0.0252707525556794));
#1533=CARTESIAN_POINT('',(0.0292547726280624,-0.00635,-0.0276520025556794));
#1534=CARTESIAN_POINT('',(0.0072577273719376,-0.00635,-0.0379707525556794));
#1535=CARTESIAN_POINT('',(0.0072577273719376,-0.00635,-0.0403520025556794));
#1536=CARTESIAN_POINT('',(0.0365125,-0.00635,-0.0127));
#1537=CARTESIAN_POINT('',(0.0365125,-0.00635,-0.01508125));
#1538=CARTESIAN_POINT('',(-0.0292547726280624,-0.00635,0.0252707525556794));
#1539=CARTESIAN_POINT('',(-0.0292547726280624,-0.00635,0.0228895025556793));
#1540=CARTESIAN_POINT('',(-0.003,-0.00635,1.07185518347685E-19));
#1541=CARTESIAN_POINT('',(-0.003,-0.00635,-0.0343486471045059));
#1542=CARTESIAN_POINT('',(-4.20649607315751E-18,-0.00635,-0.0343486471045059));
#1543=CARTESIAN_POINT('',(0.003,-0.00635,-0.0343486471045059));
#1544=CARTESIAN_POINT('',(0.003,-0.00635,2.29187423505756E-20));
#1545=CARTESIAN_POINT('',(-0.0015,-0.00635,-0.00259807621135332));
#1546=CARTESIAN_POINT('',(0.0282468009781289,-0.00635,-0.0197723997636063));
#1547=CARTESIAN_POINT('',(0.0297468009781289,-0.00635,-0.0171743235522529));
#1548=CARTESIAN_POINT('',(0.0312468009781289,-0.00635,-0.0145762473408997));
#1549=CARTESIAN_POINT('',(0.0015,-0.00635,0.00259807621135331));
#1550=CARTESIAN_POINT('',(0.0015,-0.00635,-0.00259807621135332));
#1551=CARTESIAN_POINT('',(0.031246800978129,-0.00635,0.0145762473408996));
#1552=CARTESIAN_POINT('',(0.0297468009781289,-0.00635,0.0171743235522529));
#1553=CARTESIAN_POINT('',(0.028246800978129,-0.00635,0.0197723997636063));
#1554=CARTESIAN_POINT('',(-0.0015,-0.00635,0.00259807621135332));
#1555=CARTESIAN_POINT('',(0.0369070550159733,-0.00635,0.0247723997636062));
#1556=CARTESIAN_POINT('',(7.17343650810834E-18,-0.00635,-1.38777878078145E-17));
#1557=CARTESIAN_POINT('',(0.0218682105809336,-0.00635,0.0386986287352401));
#1558=CARTESIAN_POINT('',(0.0155750321638635,-0.00635,0.0345307972581609));
#1559=CARTESIAN_POINT('',(0.00928185374679338,-0.00635,0.0303629657810817));
#1560=CARTESIAN_POINT('',(-3.64801673760933E-18,-0.00635,2.08166817117217E-17));
#1561=CARTESIAN_POINT('',(-0.00928185374679344,-0.00635,0.0303629657810817));
#1562=CARTESIAN_POINT('',(-0.0155750321638635,-0.00635,0.0345307972581608));
#1563=CARTESIAN_POINT('',(0.0015,-0.00635,0.00259807621135332));
#1564=CARTESIAN_POINT('',(-0.0282468009781289,-0.00635,0.0197723997636063));
#1565=CARTESIAN_POINT('',(-0.0297468009781289,-0.00635,0.0171743235522529));
#1566=CARTESIAN_POINT('',(-0.031246800978129,-0.00635,0.0145762473408996));
#1567=CARTESIAN_POINT('',(-0.0015,-0.00635,-0.00259807621135331));
#1568=CARTESIAN_POINT('',(-0.0015,-0.00635,0.00259807621135332));
#1569=CARTESIAN_POINT('',(-0.031246800978129,-0.00635,-0.0145762473408996));
#1570=CARTESIAN_POINT('',(-0.0297468009781289,-0.00635,-0.0171743235522529));
#1571=CARTESIAN_POINT('',(-0.028246800978129,-0.00635,-0.0197723997636063));
#1572=CARTESIAN_POINT('',(0.0015,-0.00635,-0.00259807621135332));
#1573=CARTESIAN_POINT('',(-0.0155750321638635,-0.00635,0.0345307972581608));
#1574=CARTESIAN_POINT('',(-0.0155750321638635,0.,0.0345307972581608));
#1575=CARTESIAN_POINT('',(-0.00928185374679344,0.,0.0303629657810817));
#1576=CARTESIAN_POINT('',(-0.00928185374679344,-0.00635,0.0303629657810817));
#1577=CARTESIAN_POINT('',(7.17343650810834E-18,-0.00635,-1.38777878078145E-17));
#1578=CARTESIAN_POINT('',(0.0369070550159733,-0.0254,0.0247723997636062));
#1579=CARTESIAN_POINT('',(0.0369070550159733,0.,0.0247723997636062));
#1580=CARTESIAN_POINT('',(7.17343650810834E-18,0.,-1.38777878078145E-17));
#1581=CARTESIAN_POINT('',(0.0218682105809336,0.,0.0386986287352401));
#1582=CARTESIAN_POINT('',(0.0218682105809336,-0.00635,0.0386986287352401));
#1583=CARTESIAN_POINT('',(0.0155750321638635,-0.00635,0.0345307972581609));
#1584=CARTESIAN_POINT('',(0.0155750321638635,0.,0.0345307972581609));
#1585=CARTESIAN_POINT('',(0.00928185374679338,0.,0.0303629657810817));
#1586=CARTESIAN_POINT('',(0.00928185374679338,-0.00635,0.0303629657810817));
#1587=CARTESIAN_POINT('',(-3.64801673760933E-18,-0.00635,2.08166817117217E-17));
#1588=CARTESIAN_POINT('',(-3.64801673760933E-18,0.,2.08166817117217E-17));
#1589=CARTESIAN_POINT('',(0.,0.,0.));
#1590=CARTESIAN_POINT('',(0.03730625,0.,-0.0079375));
#1591=CARTESIAN_POINT('',(0.0396875,0.,-0.009525));
#1592=CARTESIAN_POINT('',(0.034925,0.,-0.00635));
#1593=CARTESIAN_POINT('',(0.0396875,0.,0.));
#1594=CARTESIAN_POINT('',(0.0396875,0.,0.009525));
#1595=CARTESIAN_POINT('',(0.03730625,0.,0.0079375));
#1596=CARTESIAN_POINT('',(0.034925,0.,0.00635));
#1597=CARTESIAN_POINT('',(0.034925,0.,-8.67361737988404E-19));
#1598=CARTESIAN_POINT('',(-0.03730625,0.,0.0079375));
#1599=CARTESIAN_POINT('',(-0.0396875,0.,0.009525));
#1600=CARTESIAN_POINT('',(-0.034925,0.,0.00635));
#1601=CARTESIAN_POINT('',(-0.0396875,0.,4.86031698411606E-18));
#1602=CARTESIAN_POINT('',(-0.0396875,0.,-0.009525));
#1603=CARTESIAN_POINT('',(-0.03730625,0.,-0.0079375));
#1604=CARTESIAN_POINT('',(-0.034925,0.,-0.00635));
#1605=CARTESIAN_POINT('',(-0.034925,0.,5.14444068401054E-18));
#1606=CARTESIAN_POINT('',(-0.025527201642539,0.,-0.0283394102199332));
#1607=CARTESIAN_POINT('',(-0.0280926419710468,0.,-0.0296078832126949));
#1608=CARTESIAN_POINT('',(-0.0229617613140312,0.,-0.0270709372271715));
#1609=CARTESIAN_POINT('',(-0.01984375,0.,-0.0343703832126949));
#1610=CARTESIAN_POINT('',(-0.0115948580289532,0.,-0.0391328832126949));
#1611=CARTESIAN_POINT('',(-0.011779048357461,0.,-0.0362769102199332));
#1612=CARTESIAN_POINT('',(-0.0119632386859688,0.,-0.0334209372271715));
#1613=CARTESIAN_POINT('',(-0.0174625,0.,-0.0302459372271715));
#1614=CARTESIAN_POINT('',(0.011779048357461,0.,-0.0362769102199332));
#1615=CARTESIAN_POINT('',(0.0115948580289532,0.,-0.039132883212695));
#1616=CARTESIAN_POINT('',(0.0119632386859688,0.,-0.0334209372271716));
#1617=CARTESIAN_POINT('',(0.01984375,0.,-0.0343703832126949));
#1618=CARTESIAN_POINT('',(0.0280926419710467,0.,-0.0296078832126949));
#1619=CARTESIAN_POINT('',(0.025527201642539,0.,-0.0283394102199333));
#1620=CARTESIAN_POINT('',(0.0229617613140312,0.,-0.0270709372271715));
#1621=CARTESIAN_POINT('',(0.0174625,0.,-0.0302459372271715));
#1622=CARTESIAN_POINT('',(-0.003,0.,-0.0393486471045059));
#1623=CARTESIAN_POINT('',(-0.003,0.,-0.0343486471045059));
#1624=CARTESIAN_POINT('',(-0.0325769279970511,0.,-0.0222723997636062));
#1625=CARTESIAN_POINT('',(-0.028246800978129,0.,-0.0197723997636063));
#1626=CARTESIAN_POINT('',(-0.0297468009781289,0.,-0.0171743235522529));
#1627=CARTESIAN_POINT('',(-0.031246800978129,0.,-0.0145762473408996));
#1628=CARTESIAN_POINT('',(-0.0355769279970512,0.,-0.0170762473408996));
#1629=CARTESIAN_POINT('',(-0.0355769279970511,0.,0.0170762473408996));
#1630=CARTESIAN_POINT('',(-0.031246800978129,0.,0.0145762473408996));
#1631=CARTESIAN_POINT('',(-0.0297468009781289,0.,0.0171743235522529));
#1632=CARTESIAN_POINT('',(-0.0282468009781289,0.,0.0197723997636063));
#1633=CARTESIAN_POINT('',(-0.0325769279970511,0.,0.0222723997636063));
#1634=CARTESIAN_POINT('',(0.0325769279970511,0.,0.0222723997636062));
#1635=CARTESIAN_POINT('',(0.028246800978129,0.,0.0197723997636063));
#1636=CARTESIAN_POINT('',(0.0297468009781289,0.,0.0171743235522529));
#1637=CARTESIAN_POINT('',(0.031246800978129,0.,0.0145762473408996));
#1638=CARTESIAN_POINT('',(0.0355769279970512,0.,0.0170762473408996));
#1639=CARTESIAN_POINT('',(0.0355769279970511,0.,-0.0170762473408996));
#1640=CARTESIAN_POINT('',(0.0312468009781289,0.,-0.0145762473408997));
#1641=CARTESIAN_POINT('',(0.0297468009781289,0.,-0.0171743235522529));
#1642=CARTESIAN_POINT('',(0.0282468009781289,0.,-0.0197723997636063));
#1643=CARTESIAN_POINT('',(0.0325769279970511,0.,-0.0222723997636063));
#1644=CARTESIAN_POINT('',(0.003,0.,-0.0393486471045059));
#1645=CARTESIAN_POINT('',(0.003,0.,-0.0343486471045059));
#1646=CARTESIAN_POINT('',(-4.64017694215172E-18,0.,-0.0343486471045059));
#1647=CARTESIAN_POINT('',(-0.0365125,0.,0.0127));
#1648=CARTESIAN_POINT('',(-0.0365125,0.,0.01508125));
#1649=CARTESIAN_POINT('',(-0.0365125,0.,-0.0127));
#1650=CARTESIAN_POINT('',(-0.0365125,0.,-0.01031875));
#1651=CARTESIAN_POINT('',(-0.0292547726280624,0.,0.0252707525556794));
#1652=CARTESIAN_POINT('',(-0.0271925496353007,0.,0.0264613775556794));
#1653=CARTESIAN_POINT('',(0.0365125,0.,-0.0127));
#1654=CARTESIAN_POINT('',(0.0365125,0.,-0.01508125));
#1655=CARTESIAN_POINT('',(0.0292547726280624,0.,0.0252707525556793));
#1656=CARTESIAN_POINT('',(0.0313169956208241,0.,0.0240801275556793));
#1657=CARTESIAN_POINT('',(0.0072577273719376,0.,-0.0379707525556794));
#1658=CARTESIAN_POINT('',(0.0051955043791759,0.,-0.0391613775556794));
#1659=CARTESIAN_POINT('',(0.0292547726280624,0.,-0.0252707525556794));
#1660=CARTESIAN_POINT('',(0.0271925496353007,0.,-0.0264613775556794));
#1661=CARTESIAN_POINT('',(-0.00725772737193765,0.,-0.0379707525556793));
#1662=CARTESIAN_POINT('',(-0.00931995036469934,0.,-0.0367801275556793));
#1663=CARTESIAN_POINT('',(-0.0292547726280624,0.,-0.0252707525556793));
#1664=CARTESIAN_POINT('',(-0.0313169956208241,0.,-0.0240801275556793));
#1665=CARTESIAN_POINT('',(0.0365125,0.,0.0127));
#1666=CARTESIAN_POINT('',(0.0365125,0.,0.01031875));
#1667=CARTESIAN_POINT('',(0.0365125,-0.0254,0.0127));
#1668=CARTESIAN_POINT('',(0.0355769279970512,-0.0254,0.0170762473408996));
#1669=CARTESIAN_POINT('',(0.031246800978129,-0.0254,0.0145762473408996));
#1670=CARTESIAN_POINT('',(0.0325769279970511,-0.0254,0.0222723997636062));
#1671=CARTESIAN_POINT('',(0.028246800978129,-0.0254,0.0197723997636063));
#1672=CARTESIAN_POINT('',(0.0297468009781289,-0.0254,0.0171743235522529));
#1673=CARTESIAN_POINT('',(-0.0292547726280624,-0.0254,-0.0252707525556793));
#1674=CARTESIAN_POINT('',(-0.00725772737193765,-0.0254,-0.0379707525556793));
#1675=CARTESIAN_POINT('',(0.0325769279970511,-0.0254,-0.0222723997636063));
#1676=CARTESIAN_POINT('',(0.0282468009781289,-0.0254,-0.0197723997636063));
#1677=CARTESIAN_POINT('',(0.0355769279970511,-0.0254,-0.0170762473408996));
#1678=CARTESIAN_POINT('',(0.0312468009781289,-0.0254,-0.0145762473408997));
#1679=CARTESIAN_POINT('',(0.0297468009781289,-0.0254,-0.0171743235522529));
#1680=CARTESIAN_POINT('',(0.0292547726280624,-0.0254,-0.0252707525556794));
#1681=CARTESIAN_POINT('',(0.0072577273719376,-0.0254,-0.0379707525556794));
#1682=CARTESIAN_POINT('',(-0.0355769279970512,-0.0254,-0.0170762473408996));
#1683=CARTESIAN_POINT('',(-0.031246800978129,-0.0254,-0.0145762473408996));
#1684=CARTESIAN_POINT('',(-0.0325769279970511,-0.0254,-0.0222723997636062));
#1685=CARTESIAN_POINT('',(-0.028246800978129,-0.0254,-0.0197723997636063));
#1686=CARTESIAN_POINT('',(-0.0297468009781289,-0.0254,-0.0171743235522529));
#1687=CARTESIAN_POINT('',(0.0292547726280624,-0.0254,0.0252707525556793));
#1688=CARTESIAN_POINT('',(-0.0325769279970511,-0.0254,0.0222723997636063));
#1689=CARTESIAN_POINT('',(-0.0282468009781289,-0.0254,0.0197723997636063));
#1690=CARTESIAN_POINT('',(-0.0355769279970511,-0.0254,0.0170762473408996));
#1691=CARTESIAN_POINT('',(-0.031246800978129,-0.0254,0.0145762473408996));
#1692=CARTESIAN_POINT('',(-0.0297468009781289,-0.0254,0.0171743235522529));
#1693=CARTESIAN_POINT('',(0.0365125,-0.0254,-0.0127));
#1694=CARTESIAN_POINT('',(-0.0292547726280624,-0.0254,0.0252707525556794));
#1695=CARTESIAN_POINT('',(-0.003,-0.0254,-0.0393486471045059));
#1696=CARTESIAN_POINT('',(-0.003,-0.0254,-0.0343486471045059));
#1697=CARTESIAN_POINT('',(0.003,-0.0254,-0.0393486471045059));
#1698=CARTESIAN_POINT('',(0.003,-0.0254,-0.0343486471045059));
#1699=CARTESIAN_POINT('',(-4.64017694215172E-18,-0.0254,-0.0343486471045059));
#1700=CARTESIAN_POINT('',(-0.0365125,-0.0254,-0.0127));
#1701=CARTESIAN_POINT('',(-0.0365125,-0.0254,0.0127));
#1702=CARTESIAN_POINT('',(0.01984375,-0.0254,-0.0343703832126949));
#1703=CARTESIAN_POINT('',(0.0280926419710467,-0.0254,-0.0296078832126949));
#1704=CARTESIAN_POINT('',(0.0115948580289532,-0.0254,-0.039132883212695));
#1705=CARTESIAN_POINT('',(0.025527201642539,-0.0254,-0.0283394102199333));
#1706=CARTESIAN_POINT('',(0.0229617613140312,-0.0254,-0.0270709372271715));
#1707=CARTESIAN_POINT('',(0.0174625,-0.0254,-0.0302459372271715));
#1708=CARTESIAN_POINT('',(0.0119632386859688,-0.0254,-0.0334209372271716));
#1709=CARTESIAN_POINT('',(0.011779048357461,-0.0254,-0.0362769102199332));
#1710=CARTESIAN_POINT('',(-0.01984375,-0.0254,-0.0343703832126949));
#1711=CARTESIAN_POINT('',(-0.0115948580289532,-0.0254,-0.0391328832126949));
#1712=CARTESIAN_POINT('',(-0.0280926419710468,-0.0254,-0.0296078832126949));
#1713=CARTESIAN_POINT('',(-0.011779048357461,-0.0254,-0.0362769102199332));
#1714=CARTESIAN_POINT('',(-0.0119632386859688,-0.0254,-0.0334209372271715));
#1715=CARTESIAN_POINT('',(-0.0174625,-0.0254,-0.0302459372271715));
#1716=CARTESIAN_POINT('',(-0.0229617613140312,-0.0254,-0.0270709372271715));
#1717=CARTESIAN_POINT('',(-0.025527201642539,-0.0254,-0.0283394102199332));
#1718=CARTESIAN_POINT('',(-0.0396875,-0.0254,4.86031698411606E-18));
#1719=CARTESIAN_POINT('',(-0.0396875,-0.0254,-0.009525));
#1720=CARTESIAN_POINT('',(-0.0396875,-0.0254,0.009525));
#1721=CARTESIAN_POINT('',(-0.03730625,-0.0254,-0.0079375));
#1722=CARTESIAN_POINT('',(-0.034925,-0.0254,-0.00635));
#1723=CARTESIAN_POINT('',(-0.034925,-0.0254,5.14444068401054E-18));
#1724=CARTESIAN_POINT('',(-0.034925,-0.0254,0.00635));
#1725=CARTESIAN_POINT('',(-0.03730625,-0.0254,0.0079375));
#1726=CARTESIAN_POINT('',(0.0396875,-0.0254,0.));
#1727=CARTESIAN_POINT('',(0.0396875,-0.0254,0.009525));
#1728=CARTESIAN_POINT('',(0.0396875,-0.0254,-0.009525));
#1729=CARTESIAN_POINT('',(0.03730625,-0.0254,0.0079375));
#1730=CARTESIAN_POINT('',(0.034925,-0.0254,0.00635));
#1731=CARTESIAN_POINT('',(0.034925,-0.0254,-8.67361737988404E-19));
#1732=CARTESIAN_POINT('',(0.034925,-0.0254,-0.00635));
#1733=CARTESIAN_POINT('',(0.03730625,-0.0254,-0.0079375));
#1734=MECHANICAL_DESIGN_GEOMETRIC_PRESENTATION_REPRESENTATION('',(#1063),
#1735);
#1735=(
GEOMETRIC_REPRESENTATION_CONTEXT(3)
GLOBAL_UNCERTAINTY_ASSIGNED_CONTEXT((#1736))
GLOBAL_UNIT_ASSIGNED_CONTEXT((#1739,#1738,#1737))
REPRESENTATION_CONTEXT('Dowel Ring','TOP_LEVEL_ASSEMBLY_PART')
);
#1736=UNCERTAINTY_MEASURE_WITH_UNIT(LENGTH_MEASURE(1.E-8),#1739,
'DISTANCE_ACCURACY_VALUE','Maximum Tolerance applied to model');
#1737=(
NAMED_UNIT(*)
SI_UNIT($,.STERADIAN.)
SOLID_ANGLE_UNIT()
);
#1738=(
NAMED_UNIT(*)
PLANE_ANGLE_UNIT()
SI_UNIT($,.RADIAN.)
);
#1739=(
LENGTH_UNIT()
NAMED_UNIT(*)
SI_UNIT($,.METRE.)
);
#1740=PRODUCT_DEFINITION_SHAPE('','',#1741);
#1741=PRODUCT_DEFINITION('','',#1743,#1742);
#1742=PRODUCT_DEFINITION_CONTEXT('',#1749,'design');
#1743=PRODUCT_DEFINITION_FORMATION_WITH_SPECIFIED_SOURCE('','',#1745,
 .NOT_KNOWN.);
#1744=PRODUCT_RELATED_PRODUCT_CATEGORY('','',(#1745));
#1745=PRODUCT('Dowel Ring','Dowel Ring','Dowel Ring',(#1747));
#1746=PRODUCT_CATEGORY('','');
#1747=PRODUCT_CONTEXT('',#1749,'mechanical');
#1748=APPLICATION_PROTOCOL_DEFINITION('international standard',
'ap242_managed_model_based_3d_engineering',2020,#1749);
#1749=APPLICATION_CONTEXT('managed model based 3d engineering');
ENDSEC;
END-ISO-10303-21;
