ISO-10303-21;
HEADER;
/* Generated by software containing ST-Developer
 * from STEP Tools, Inc. (www.steptools.com) 
 */
/* OPTION: using custom renumber hook */

FILE_DESCRIPTION(
/* description */ ('STEP AP242 Edition 2',
'CAx-IF Rec.Pracs.---Representation and Presentation of Product Manufa
cturing Information (PMI)---4.0---2014-10-13',
'CAx-IF Rec.Pracs.---3D Tessellated Geometry---0.4---2014-09-14','2;1',
'CAx-IF Rec.Pracs.---User Defined Attributes---1.5---2016-08-15'),
/* implementation_level */ '2;1');

FILE_NAME(
/* name */ 'Front Hull and Nose - Motor Mount',
/* time_stamp */ '2026-08-24T02:46:52Z',
/* author */ (''),
/* organization */ (''),
/* preprocessor_version */ 'ST-DEVELOPER v20',
/* originating_system */ 'ONSHAPE BY PTC INC, 1.219',
/* authorisation */ '  ');

FILE_SCHEMA (('AP242_MANAGED_MODEL_BASED_3D_ENGINEERING_MIM_LF { 1 0 10303 442 3 1 4 }'));
ENDSEC;

DATA;
#10=SHAPE_REPRESENTATION_RELATIONSHIP('','',#755,#11);
#11=ADVANCED_BREP_SHAPE_REPRESENTATION('',(#753),#1443);
#12=(
BOUNDED_SURFACE()
B_SPLINE_SURFACE(3,3,((#1244,#1245,#1246,#1247),(#1248,#1249,#1250,#1251),
(#1252,#1253,#1254,#1255),(#1256,#1257,#1258,#1259)),
 .SURF_OF_REVOLUTION.,.F.,.F.,.F.)
B_SPLINE_SURFACE_WITH_KNOTS((4,4),(4,4),(0.298117847782674,0.309309863585214),
(0.,1.),.PIECEWISE_BEZIER_KNOTS.)
GEOMETRIC_REPRESENTATION_ITEM()
RATIONAL_B_SPLINE_SURFACE(((1.,0.944727351980223,0.944727351980223,1.),
(1.,0.944727351980223,0.944727351980223,1.),(1.,0.944727351980223,0.944727351980223,
1.),(1.,0.944727351980223,0.944727351980223,1.)))
REPRESENTATION_ITEM('')
SURFACE()
);
#13=(
BOUNDED_SURFACE()
B_SPLINE_SURFACE(3,3,((#1260,#1261,#1262,#1263),(#1264,#1265,#1266,#1267),
(#1268,#1269,#1270,#1271),(#1272,#1273,#1274,#1275)),
 .SURF_OF_REVOLUTION.,.F.,.F.,.F.)
B_SPLINE_SURFACE_WITH_KNOTS((4,4),(4,4),(0.298117847782674,0.309309863585214),
(0.,1.),.PIECEWISE_BEZIER_KNOTS.)
GEOMETRIC_REPRESENTATION_ITEM()
RATIONAL_B_SPLINE_SURFACE(((1.,0.944727351980223,0.944727351980223,1.),
(1.,0.944727351980223,0.944727351980223,1.),(1.,0.944727351980223,0.944727351980223,
1.),(1.,0.944727351980223,0.944727351980223,1.)))
REPRESENTATION_ITEM('')
SURFACE()
);
#14=(
BOUNDED_SURFACE()
B_SPLINE_SURFACE(3,3,((#1276,#1277,#1278,#1279),(#1280,#1281,#1282,#1283),
(#1284,#1285,#1286,#1287),(#1288,#1289,#1290,#1291)),
 .SURF_OF_REVOLUTION.,.F.,.F.,.F.)
B_SPLINE_SURFACE_WITH_KNOTS((4,4),(4,4),(0.298117847782674,0.309309863585214),
(0.,1.),.PIECEWISE_BEZIER_KNOTS.)
GEOMETRIC_REPRESENTATION_ITEM()
RATIONAL_B_SPLINE_SURFACE(((1.,0.944727351980223,0.944727351980223,1.),
(1.,0.944727351980223,0.944727351980223,1.),(1.,0.944727351980223,0.944727351980223,
1.),(1.,0.944727351980223,0.944727351980223,1.)))
REPRESENTATION_ITEM('')
SURFACE()
);
#15=(
BOUNDED_SURFACE()
B_SPLINE_SURFACE(3,3,((#1364,#1365,#1366,#1367),(#1368,#1369,#1370,#1371),
(#1372,#1373,#1374,#1375),(#1376,#1377,#1378,#1379)),
 .SURF_OF_REVOLUTION.,.F.,.F.,.F.)
B_SPLINE_SURFACE_WITH_KNOTS((4,4),(4,4),(0.298117847782674,0.309309863585214),
(0.,1.),.PIECEWISE_BEZIER_KNOTS.)
GEOMETRIC_REPRESENTATION_ITEM()
RATIONAL_B_SPLINE_SURFACE(((1.,0.944727351980223,0.944727351980223,1.),
(1.,0.944727351980223,0.944727351980223,1.),(1.,0.944727351980223,0.944727351980223,
1.),(1.,0.944727351980223,0.944727351980223,1.)))
REPRESENTATION_ITEM('')
SURFACE()
);
#16=(
BOUNDED_SURFACE()
B_SPLINE_SURFACE(3,3,((#1388,#1389,#1390,#1391),(#1392,#1393,#1394,#1395),
(#1396,#1397,#1398,#1399),(#1400,#1401,#1402,#1403)),
 .SURF_OF_REVOLUTION.,.F.,.F.,.F.)
B_SPLINE_SURFACE_WITH_KNOTS((4,4),(4,4),(0.298117847782674,0.309309863585214),
(0.,1.),.PIECEWISE_BEZIER_KNOTS.)
GEOMETRIC_REPRESENTATION_ITEM()
RATIONAL_B_SPLINE_SURFACE(((1.,0.944727351980223,0.944727351980223,1.),
(1.,0.944727351980223,0.944727351980223,1.),(1.,0.944727351980223,0.944727351980223,
1.),(1.,0.944727351980223,0.944727351980223,1.)))
REPRESENTATION_ITEM('')
SURFACE()
);
#17=(
BOUNDED_SURFACE()
B_SPLINE_SURFACE(3,3,((#1412,#1413,#1414,#1415),(#1416,#1417,#1418,#1419),
(#1420,#1421,#1422,#1423),(#1424,#1425,#1426,#1427)),
 .SURF_OF_REVOLUTION.,.F.,.F.,.F.)
B_SPLINE_SURFACE_WITH_KNOTS((4,4),(4,4),(0.298117847782675,0.309309863585214),
(0.,1.),.PIECEWISE_BEZIER_KNOTS.)
GEOMETRIC_REPRESENTATION_ITEM()
RATIONAL_B_SPLINE_SURFACE(((1.,0.944727351980223,0.944727351980223,1.),
(1.,0.944727351980223,0.944727351980223,1.),(1.,0.944727351980223,0.944727351980223,
1.),(1.,0.944727351980223,0.944727351980223,1.)))
REPRESENTATION_ITEM('')
SURFACE()
);
#18=B_SPLINE_SURFACE_WITH_KNOTS('',3,1,((#1183,#1184),(#1185,#1186),(#1187,
#1188),(#1189,#1190)),.SURF_OF_LINEAR_EXTRUSION.,.F.,.F.,.F.,(4,4),(2,2),
(0.328427569935226,0.352308834971444),(0.,1.),.PIECEWISE_BEZIER_KNOTS.);
#19=B_SPLINE_SURFACE_WITH_KNOTS('',3,1,((#1209,#1210),(#1211,#1212),(#1213,
#1214),(#1215,#1216)),.SURF_OF_LINEAR_EXTRUSION.,.F.,.F.,.F.,(4,4),(2,2),
(0.328427569935226,0.352308834971444),(0.,1.),.PIECEWISE_BEZIER_KNOTS.);
#20=B_SPLINE_SURFACE_WITH_KNOTS('',3,1,((#1292,#1293),(#1294,#1295),(#1296,
#1297),(#1298,#1299)),.SURF_OF_LINEAR_EXTRUSION.,.F.,.F.,.F.,(4,4),(2,2),
(0.328427569932321,0.352308834971444),(0.,1.),.PIECEWISE_BEZIER_KNOTS.);
#21=B_SPLINE_SURFACE_WITH_KNOTS('',3,1,((#1300,#1301),(#1302,#1303),(#1304,
#1305),(#1306,#1307)),.SURF_OF_LINEAR_EXTRUSION.,.F.,.F.,.F.,(4,4),(2,2),
(0.328427569932321,0.352308834971444),(0.,1.),.PIECEWISE_BEZIER_KNOTS.);
#22=B_SPLINE_SURFACE_WITH_KNOTS('',3,1,((#1308,#1309),(#1310,#1311),(#1312,
#1313),(#1314,#1315)),.SURF_OF_LINEAR_EXTRUSION.,.F.,.F.,.F.,(4,4),(2,2),
(0.328427569932321,0.352308834971444),(0.,1.),.PIECEWISE_BEZIER_KNOTS.);
#23=B_SPLINE_SURFACE_WITH_KNOTS('',3,1,((#1320,#1321),(#1322,#1323),(#1324,
#1325),(#1326,#1327)),.SURF_OF_LINEAR_EXTRUSION.,.F.,.F.,.F.,(4,4),(2,2),
(0.328427569935226,0.352308834971444),(0.,1.),.PIECEWISE_BEZIER_KNOTS.);
#24=B_SPLINE_SURFACE_WITH_KNOTS('',3,1,((#1336,#1337),(#1338,#1339),(#1340,
#1341),(#1342,#1343)),.SURF_OF_LINEAR_EXTRUSION.,.F.,.F.,.F.,(4,4),(2,2),
(0.328427569935226,0.352308834971444),(0.,1.),.PIECEWISE_BEZIER_KNOTS.);
#25=B_SPLINE_SURFACE_WITH_KNOTS('',3,1,((#1352,#1353),(#1354,#1355),(#1356,
#1357),(#1358,#1359)),.SURF_OF_LINEAR_EXTRUSION.,.F.,.F.,.F.,(4,4),(2,2),
(0.328427569932321,0.352308834971444),(0.,1.),.PIECEWISE_BEZIER_KNOTS.);
#26=B_SPLINE_CURVE_WITH_KNOTS('',3,(#1128,#1129,#1130,#1131,#1132,#1133,
#1134,#1135,#1136),.UNSPECIFIED.,.F.,.F.,(4,1,1,1,1,1,4),(0.,0.00175324391511177,
0.00350648783022354,0.00438310978777943,0.00525973174533531,0.0061363537028912,
0.00701297566044708),.UNSPECIFIED.);
#27=B_SPLINE_CURVE_WITH_KNOTS('',3,(#1137,#1138,#1139,#1140,#1141,#1142,
#1143,#1144,#1145),.UNSPECIFIED.,.F.,.F.,(4,1,1,1,1,1,4),(9.30661671678773E-15,
0.000885569975456195,0.00177113995090308,0.00265670992634997,0.00354227990179686,
0.00531341985269064,0.00708455980358441),.UNSPECIFIED.);
#28=B_SPLINE_CURVE_WITH_KNOTS('',3,(#1148,#1149,#1150,#1151,#1152,#1153,
#1154,#1155,#1156),.UNSPECIFIED.,.F.,.F.,(4,1,1,1,1,1,4),(0.,0.00175324391511176,
0.00350648783022351,0.00438310978777939,0.00525973174533527,0.00613635370289115,
0.00701297566044703),.UNSPECIFIED.);
#29=B_SPLINE_CURVE_WITH_KNOTS('',3,(#1157,#1158,#1159,#1160,#1161,#1162,
#1163,#1164,#1165),.UNSPECIFIED.,.F.,.F.,(4,1,1,1,1,1,4),(9.30707194507232E-15,
0.000885569975456181,0.00177113995090306,0.00265670992634993,0.0035422799017968,
0.00531341985269055,0.0070845598035843),.UNSPECIFIED.);
#30=B_SPLINE_CURVE_WITH_KNOTS('',3,(#1175,#1176,#1177,#1178),
 .UNSPECIFIED.,.F.,.F.,(4,4),(0.0188290813900522,0.0223799975068871),
 .UNSPECIFIED.);
#31=B_SPLINE_CURVE_WITH_KNOTS('',3,(#1179,#1180,#1181,#1182),
 .UNSPECIFIED.,.F.,.F.,(4,4),(0.,0.352308834971444),
 .PIECEWISE_BEZIER_KNOTS.);
#32=B_SPLINE_CURVE_WITH_KNOTS('',3,(#1191,#1192,#1193,#1194),
 .UNSPECIFIED.,.F.,.F.,(4,4),(0.,0.352308834971444),
 .PIECEWISE_BEZIER_KNOTS.);
#33=B_SPLINE_CURVE_WITH_KNOTS('',3,(#1195,#1196,#1197,#1198),
 .UNSPECIFIED.,.F.,.F.,(4,4),(0.,0.352308834971444),
 .PIECEWISE_BEZIER_KNOTS.);
#34=B_SPLINE_CURVE_WITH_KNOTS('',3,(#1200,#1201,#1202,#1203),
 .UNSPECIFIED.,.F.,.F.,(4,4),(0.0188290813900522,0.0223799975068871),
 .UNSPECIFIED.);
#35=B_SPLINE_CURVE_WITH_KNOTS('',3,(#1205,#1206,#1207,#1208),
 .UNSPECIFIED.,.F.,.F.,(4,4),(0.0188290813900522,0.0223799975068871),
 .UNSPECIFIED.);
#36=B_SPLINE_CURVE_WITH_KNOTS('',3,(#1217,#1218,#1219,#1220),
 .UNSPECIFIED.,.F.,.F.,(4,4),(0.,0.352308834971444),
 .PIECEWISE_BEZIER_KNOTS.);
#37=B_SPLINE_CURVE_WITH_KNOTS('',3,(#1221,#1222,#1223,#1224),
 .UNSPECIFIED.,.F.,.F.,(4,4),(0.,0.352308834971444),
 .PIECEWISE_BEZIER_KNOTS.);
#38=B_SPLINE_CURVE_WITH_KNOTS('',3,(#1226,#1227,#1228,#1229),
 .UNSPECIFIED.,.F.,.F.,(4,4),(0.0188290813900522,0.0223799975068871),
 .UNSPECIFIED.);
#39=B_SPLINE_CURVE_WITH_KNOTS('',3,(#1231,#1232,#1233,#1234),
 .UNSPECIFIED.,.F.,.F.,(4,4),(0.0188290813900522,0.0223799975068869),
 .UNSPECIFIED.);
#40=B_SPLINE_CURVE_WITH_KNOTS('',3,(#1236,#1237,#1238,#1239),
 .UNSPECIFIED.,.F.,.F.,(4,4),(0.,0.352308834971444),
 .PIECEWISE_BEZIER_KNOTS.);
#41=B_SPLINE_CURVE_WITH_KNOTS('',3,(#1240,#1241,#1242,#1243),
 .UNSPECIFIED.,.F.,.F.,(4,4),(0.0188290813900522,0.0223799975068871),
 .UNSPECIFIED.);
#42=B_SPLINE_CURVE_WITH_KNOTS('',3,(#1316,#1317,#1318,#1319),
 .UNSPECIFIED.,.F.,.F.,(4,4),(0.,0.352308834971444),
 .PIECEWISE_BEZIER_KNOTS.);
#43=B_SPLINE_CURVE_WITH_KNOTS('',3,(#1328,#1329,#1330,#1331),
 .UNSPECIFIED.,.F.,.F.,(4,4),(0.,0.352308834971444),
 .PIECEWISE_BEZIER_KNOTS.);
#44=B_SPLINE_CURVE_WITH_KNOTS('',3,(#1332,#1333,#1334,#1335),
 .UNSPECIFIED.,.F.,.F.,(4,4),(0.,0.352308834971444),
 .PIECEWISE_BEZIER_KNOTS.);
#45=B_SPLINE_CURVE_WITH_KNOTS('',3,(#1344,#1345,#1346,#1347),
 .UNSPECIFIED.,.F.,.F.,(4,4),(0.,0.352308834971444),
 .PIECEWISE_BEZIER_KNOTS.);
#46=B_SPLINE_CURVE_WITH_KNOTS('',3,(#1348,#1349,#1350,#1351),
 .UNSPECIFIED.,.F.,.F.,(4,4),(0.,0.352308834971444),
 .PIECEWISE_BEZIER_KNOTS.);
#47=B_SPLINE_CURVE_WITH_KNOTS('',3,(#1360,#1361,#1362,#1363),
 .UNSPECIFIED.,.F.,.F.,(4,4),(0.,0.352308834971444),
 .PIECEWISE_BEZIER_KNOTS.);
#48=B_SPLINE_CURVE_WITH_KNOTS('',3,(#1380,#1381,#1382,#1383),
 .UNSPECIFIED.,.F.,.F.,(4,4),(0.0188290813900521,0.0223799975068871),
 .UNSPECIFIED.);
#49=B_SPLINE_CURVE_WITH_KNOTS('',3,(#1384,#1385,#1386,#1387),
 .UNSPECIFIED.,.F.,.F.,(4,4),(0.0188290813900521,0.0223799975068869),
 .UNSPECIFIED.);
#50=B_SPLINE_CURVE_WITH_KNOTS('',3,(#1404,#1405,#1406,#1407),
 .UNSPECIFIED.,.F.,.F.,(4,4),(0.0188290813900522,0.0223799975068871),
 .UNSPECIFIED.);
#51=B_SPLINE_CURVE_WITH_KNOTS('',3,(#1408,#1409,#1410,#1411),
 .UNSPECIFIED.,.F.,.F.,(4,4),(0.0188290813900521,0.0223799975068871),
 .UNSPECIFIED.);
#52=B_SPLINE_CURVE_WITH_KNOTS('',3,(#1428,#1429,#1430,#1431),
 .UNSPECIFIED.,.F.,.F.,(4,4),(0.0188290813900521,0.0223799975068869),
 .UNSPECIFIED.);
#53=B_SPLINE_CURVE_WITH_KNOTS('',3,(#1432,#1433,#1434,#1435),
 .UNSPECIFIED.,.F.,.F.,(4,4),(0.0188290813900521,0.0223799975068869),
 .UNSPECIFIED.);
#54=PLANE('',#772);
#55=PLANE('',#779);
#56=PLANE('',#798);
#57=PLANE('',#799);
#58=PLANE('',#800);
#59=PLANE('',#801);
#60=PLANE('',#802);
#61=PLANE('',#803);
#62=PLANE('',#804);
#63=PLANE('',#805);
#64=PLANE('',#806);
#65=PLANE('',#807);
#66=PLANE('',#808);
#67=PLANE('',#809);
#68=CIRCLE('',#758,0.0254);
#69=CIRCLE('',#759,0.0254);
#70=CIRCLE('',#761,0.0254);
#71=CIRCLE('',#762,0.0254);
#72=CIRCLE('',#764,0.0254);
#73=CIRCLE('',#765,0.0254);
#74=CIRCLE('',#767,0.0254);
#75=CIRCLE('',#768,0.0254);
#76=CIRCLE('',#770,0.0254);
#77=CIRCLE('',#771,0.0254);
#78=CIRCLE('',#773,0.003175);
#79=CIRCLE('',#774,0.0015);
#80=CIRCLE('',#775,0.0015);
#81=CIRCLE('',#776,0.0015);
#82=CIRCLE('',#777,0.0015);
#83=CIRCLE('',#778,0.0254);
#84=CIRCLE('',#780,0.0015);
#85=CIRCLE('',#781,0.0015);
#86=CIRCLE('',#782,0.003175);
#87=CIRCLE('',#783,0.0015);
#88=CIRCLE('',#784,0.0241404922122037);
#89=CIRCLE('',#785,0.0241404922122037);
#90=CIRCLE('',#786,0.0241404922122037);
#91=CIRCLE('',#787,0.0015);
#92=CIRCLE('',#788,0.0241404922122037);
#93=CIRCLE('',#789,0.0241404922122037);
#94=CIRCLE('',#790,0.0241404922122037);
#95=CIRCLE('',#797,0.0254);
#96=ORIENTED_EDGE('',*,*,#312,.F.);
#97=ORIENTED_EDGE('',*,*,#313,.T.);
#98=ORIENTED_EDGE('',*,*,#314,.T.);
#99=ORIENTED_EDGE('',*,*,#315,.T.);
#100=ORIENTED_EDGE('',*,*,#316,.F.);
#101=ORIENTED_EDGE('',*,*,#317,.T.);
#102=ORIENTED_EDGE('',*,*,#318,.T.);
#103=ORIENTED_EDGE('',*,*,#319,.T.);
#104=ORIENTED_EDGE('',*,*,#320,.F.);
#105=ORIENTED_EDGE('',*,*,#321,.T.);
#106=ORIENTED_EDGE('',*,*,#322,.T.);
#107=ORIENTED_EDGE('',*,*,#323,.T.);
#108=ORIENTED_EDGE('',*,*,#324,.T.);
#109=ORIENTED_EDGE('',*,*,#325,.T.);
#110=ORIENTED_EDGE('',*,*,#326,.T.);
#111=ORIENTED_EDGE('',*,*,#327,.F.);
#112=ORIENTED_EDGE('',*,*,#328,.F.);
#113=ORIENTED_EDGE('',*,*,#329,.T.);
#114=ORIENTED_EDGE('',*,*,#330,.T.);
#115=ORIENTED_EDGE('',*,*,#331,.T.);
#116=ORIENTED_EDGE('',*,*,#332,.T.);
#117=ORIENTED_EDGE('',*,*,#333,.T.);
#118=ORIENTED_EDGE('',*,*,#334,.T.);
#119=ORIENTED_EDGE('',*,*,#335,.F.);
#120=ORIENTED_EDGE('',*,*,#336,.T.);
#121=ORIENTED_EDGE('',*,*,#337,.T.);
#122=ORIENTED_EDGE('',*,*,#338,.T.);
#123=ORIENTED_EDGE('',*,*,#339,.T.);
#124=ORIENTED_EDGE('',*,*,#315,.F.);
#125=ORIENTED_EDGE('',*,*,#340,.F.);
#126=ORIENTED_EDGE('',*,*,#341,.T.);
#127=ORIENTED_EDGE('',*,*,#342,.T.);
#128=ORIENTED_EDGE('',*,*,#319,.F.);
#129=ORIENTED_EDGE('',*,*,#343,.F.);
#130=ORIENTED_EDGE('',*,*,#344,.T.);
#131=ORIENTED_EDGE('',*,*,#345,.T.);
#132=ORIENTED_EDGE('',*,*,#323,.F.);
#133=ORIENTED_EDGE('',*,*,#346,.F.);
#134=ORIENTED_EDGE('',*,*,#347,.T.);
#135=ORIENTED_EDGE('',*,*,#348,.T.);
#136=ORIENTED_EDGE('',*,*,#349,.T.);
#137=ORIENTED_EDGE('',*,*,#350,.T.);
#138=ORIENTED_EDGE('',*,*,#331,.F.);
#139=ORIENTED_EDGE('',*,*,#351,.F.);
#140=ORIENTED_EDGE('',*,*,#352,.T.);
#141=ORIENTED_EDGE('',*,*,#353,.T.);
#142=ORIENTED_EDGE('',*,*,#354,.F.);
#143=ORIENTED_EDGE('',*,*,#355,.F.);
#144=ORIENTED_EDGE('',*,*,#356,.T.);
#145=ORIENTED_EDGE('',*,*,#357,.T.);
#146=ORIENTED_EDGE('',*,*,#326,.F.);
#147=ORIENTED_EDGE('',*,*,#358,.F.);
#148=ORIENTED_EDGE('',*,*,#359,.F.);
#149=ORIENTED_EDGE('',*,*,#360,.F.);
#150=ORIENTED_EDGE('',*,*,#361,.F.);
#151=ORIENTED_EDGE('',*,*,#362,.T.);
#152=ORIENTED_EDGE('',*,*,#363,.F.);
#153=ORIENTED_EDGE('',*,*,#364,.T.);
#154=ORIENTED_EDGE('',*,*,#365,.T.);
#155=ORIENTED_EDGE('',*,*,#366,.T.);
#156=ORIENTED_EDGE('',*,*,#367,.F.);
#157=ORIENTED_EDGE('',*,*,#368,.T.);
#158=ORIENTED_EDGE('',*,*,#369,.T.);
#159=ORIENTED_EDGE('',*,*,#370,.T.);
#160=ORIENTED_EDGE('',*,*,#371,.F.);
#161=ORIENTED_EDGE('',*,*,#372,.T.);
#162=ORIENTED_EDGE('',*,*,#373,.T.);
#163=ORIENTED_EDGE('',*,*,#374,.T.);
#164=ORIENTED_EDGE('',*,*,#375,.F.);
#165=ORIENTED_EDGE('',*,*,#376,.T.);
#166=ORIENTED_EDGE('',*,*,#377,.F.);
#167=ORIENTED_EDGE('',*,*,#378,.T.);
#168=ORIENTED_EDGE('',*,*,#379,.T.);
#169=ORIENTED_EDGE('',*,*,#380,.T.);
#170=ORIENTED_EDGE('',*,*,#381,.F.);
#171=ORIENTED_EDGE('',*,*,#382,.T.);
#172=ORIENTED_EDGE('',*,*,#383,.T.);
#173=ORIENTED_EDGE('',*,*,#384,.T.);
#174=ORIENTED_EDGE('',*,*,#385,.F.);
#175=ORIENTED_EDGE('',*,*,#386,.T.);
#176=ORIENTED_EDGE('',*,*,#387,.T.);
#177=ORIENTED_EDGE('',*,*,#388,.T.);
#178=ORIENTED_EDGE('',*,*,#337,.F.);
#179=ORIENTED_EDGE('',*,*,#389,.T.);
#180=ORIENTED_EDGE('',*,*,#363,.T.);
#181=ORIENTED_EDGE('',*,*,#390,.T.);
#182=ORIENTED_EDGE('',*,*,#334,.F.);
#183=ORIENTED_EDGE('',*,*,#358,.T.);
#184=ORIENTED_EDGE('',*,*,#348,.F.);
#185=ORIENTED_EDGE('',*,*,#391,.T.);
#186=ORIENTED_EDGE('',*,*,#377,.T.);
#187=ORIENTED_EDGE('',*,*,#392,.T.);
#188=ORIENTED_EDGE('',*,*,#333,.F.);
#189=ORIENTED_EDGE('',*,*,#359,.T.);
#190=ORIENTED_EDGE('',*,*,#332,.F.);
#191=ORIENTED_EDGE('',*,*,#360,.T.);
#192=ORIENTED_EDGE('',*,*,#393,.F.);
#193=ORIENTED_EDGE('',*,*,#394,.T.);
#194=ORIENTED_EDGE('',*,*,#395,.T.);
#195=ORIENTED_EDGE('',*,*,#354,.T.);
#196=ORIENTED_EDGE('',*,*,#396,.F.);
#197=ORIENTED_EDGE('',*,*,#365,.F.);
#198=ORIENTED_EDGE('',*,*,#397,.F.);
#199=ORIENTED_EDGE('',*,*,#335,.T.);
#200=ORIENTED_EDGE('',*,*,#325,.F.);
#201=ORIENTED_EDGE('',*,*,#398,.T.);
#202=ORIENTED_EDGE('',*,*,#368,.F.);
#203=ORIENTED_EDGE('',*,*,#399,.F.);
#204=ORIENTED_EDGE('',*,*,#356,.F.);
#205=ORIENTED_EDGE('',*,*,#400,.F.);
#206=ORIENTED_EDGE('',*,*,#369,.F.);
#207=ORIENTED_EDGE('',*,*,#398,.F.);
#208=ORIENTED_EDGE('',*,*,#355,.T.);
#209=ORIENTED_EDGE('',*,*,#395,.F.);
#210=ORIENTED_EDGE('',*,*,#327,.T.);
#211=ORIENTED_EDGE('',*,*,#357,.F.);
#212=ORIENTED_EDGE('',*,*,#399,.T.);
#213=ORIENTED_EDGE('',*,*,#367,.T.);
#214=ORIENTED_EDGE('',*,*,#401,.T.);
#215=ORIENTED_EDGE('',*,*,#402,.T.);
#216=ORIENTED_EDGE('',*,*,#372,.F.);
#217=ORIENTED_EDGE('',*,*,#403,.F.);
#218=ORIENTED_EDGE('',*,*,#352,.F.);
#219=ORIENTED_EDGE('',*,*,#404,.F.);
#220=ORIENTED_EDGE('',*,*,#373,.F.);
#221=ORIENTED_EDGE('',*,*,#402,.F.);
#222=ORIENTED_EDGE('',*,*,#351,.T.);
#223=ORIENTED_EDGE('',*,*,#330,.F.);
#224=ORIENTED_EDGE('',*,*,#393,.T.);
#225=ORIENTED_EDGE('',*,*,#353,.F.);
#226=ORIENTED_EDGE('',*,*,#403,.T.);
#227=ORIENTED_EDGE('',*,*,#371,.T.);
#228=ORIENTED_EDGE('',*,*,#405,.T.);
#229=ORIENTED_EDGE('',*,*,#328,.T.);
#230=ORIENTED_EDGE('',*,*,#350,.F.);
#231=ORIENTED_EDGE('',*,*,#406,.T.);
#232=ORIENTED_EDGE('',*,*,#375,.T.);
#233=ORIENTED_EDGE('',*,*,#407,.T.);
#234=ORIENTED_EDGE('',*,*,#407,.F.);
#235=ORIENTED_EDGE('',*,*,#374,.F.);
#236=ORIENTED_EDGE('',*,*,#404,.T.);
#237=ORIENTED_EDGE('',*,*,#329,.F.);
#238=ORIENTED_EDGE('',*,*,#405,.F.);
#239=ORIENTED_EDGE('',*,*,#370,.F.);
#240=ORIENTED_EDGE('',*,*,#400,.T.);
#241=ORIENTED_EDGE('',*,*,#394,.F.);
#242=ORIENTED_EDGE('',*,*,#401,.F.);
#243=ORIENTED_EDGE('',*,*,#366,.F.);
#244=ORIENTED_EDGE('',*,*,#396,.T.);
#245=ORIENTED_EDGE('',*,*,#324,.F.);
#246=ORIENTED_EDGE('',*,*,#376,.F.);
#247=ORIENTED_EDGE('',*,*,#406,.F.);
#248=ORIENTED_EDGE('',*,*,#349,.F.);
#249=ORIENTED_EDGE('',*,*,#392,.F.);
#250=ORIENTED_EDGE('',*,*,#336,.F.);
#251=ORIENTED_EDGE('',*,*,#397,.T.);
#252=ORIENTED_EDGE('',*,*,#364,.F.);
#253=ORIENTED_EDGE('',*,*,#389,.F.);
#254=ORIENTED_EDGE('',*,*,#362,.F.);
#255=ORIENTED_EDGE('',*,*,#408,.F.);
#256=ORIENTED_EDGE('',*,*,#338,.F.);
#257=ORIENTED_EDGE('',*,*,#390,.F.);
#258=ORIENTED_EDGE('',*,*,#409,.T.);
#259=ORIENTED_EDGE('',*,*,#386,.F.);
#260=ORIENTED_EDGE('',*,*,#410,.F.);
#261=ORIENTED_EDGE('',*,*,#341,.F.);
#262=ORIENTED_EDGE('',*,*,#411,.T.);
#263=ORIENTED_EDGE('',*,*,#382,.F.);
#264=ORIENTED_EDGE('',*,*,#412,.F.);
#265=ORIENTED_EDGE('',*,*,#344,.F.);
#266=ORIENTED_EDGE('',*,*,#347,.F.);
#267=ORIENTED_EDGE('',*,*,#413,.T.);
#268=ORIENTED_EDGE('',*,*,#378,.F.);
#269=ORIENTED_EDGE('',*,*,#391,.F.);
#270=ORIENTED_EDGE('',*,*,#414,.F.);
#271=ORIENTED_EDGE('',*,*,#380,.F.);
#272=ORIENTED_EDGE('',*,*,#415,.T.);
#273=ORIENTED_EDGE('',*,*,#321,.F.);
#274=ORIENTED_EDGE('',*,*,#416,.F.);
#275=ORIENTED_EDGE('',*,*,#384,.F.);
#276=ORIENTED_EDGE('',*,*,#417,.T.);
#277=ORIENTED_EDGE('',*,*,#317,.F.);
#278=ORIENTED_EDGE('',*,*,#418,.F.);
#279=ORIENTED_EDGE('',*,*,#388,.F.);
#280=ORIENTED_EDGE('',*,*,#419,.T.);
#281=ORIENTED_EDGE('',*,*,#313,.F.);
#282=ORIENTED_EDGE('',*,*,#312,.T.);
#283=ORIENTED_EDGE('',*,*,#339,.F.);
#284=ORIENTED_EDGE('',*,*,#408,.T.);
#285=ORIENTED_EDGE('',*,*,#361,.T.);
#286=ORIENTED_EDGE('',*,*,#418,.T.);
#287=ORIENTED_EDGE('',*,*,#316,.T.);
#288=ORIENTED_EDGE('',*,*,#342,.F.);
#289=ORIENTED_EDGE('',*,*,#410,.T.);
#290=ORIENTED_EDGE('',*,*,#385,.T.);
#291=ORIENTED_EDGE('',*,*,#416,.T.);
#292=ORIENTED_EDGE('',*,*,#419,.F.);
#293=ORIENTED_EDGE('',*,*,#387,.F.);
#294=ORIENTED_EDGE('',*,*,#409,.F.);
#295=ORIENTED_EDGE('',*,*,#340,.T.);
#296=ORIENTED_EDGE('',*,*,#314,.F.);
#297=ORIENTED_EDGE('',*,*,#320,.T.);
#298=ORIENTED_EDGE('',*,*,#345,.F.);
#299=ORIENTED_EDGE('',*,*,#412,.T.);
#300=ORIENTED_EDGE('',*,*,#381,.T.);
#301=ORIENTED_EDGE('',*,*,#414,.T.);
#302=ORIENTED_EDGE('',*,*,#417,.F.);
#303=ORIENTED_EDGE('',*,*,#383,.F.);
#304=ORIENTED_EDGE('',*,*,#411,.F.);
#305=ORIENTED_EDGE('',*,*,#343,.T.);
#306=ORIENTED_EDGE('',*,*,#318,.F.);
#307=ORIENTED_EDGE('',*,*,#415,.F.);
#308=ORIENTED_EDGE('',*,*,#379,.F.);
#309=ORIENTED_EDGE('',*,*,#413,.F.);
#310=ORIENTED_EDGE('',*,*,#346,.T.);
#311=ORIENTED_EDGE('',*,*,#322,.F.);
#312=EDGE_CURVE('',#420,#421,#494,.F.);
#313=EDGE_CURVE('',#420,#422,#68,.T.);
#314=EDGE_CURVE('',#422,#423,#495,.F.);
#315=EDGE_CURVE('',#423,#421,#69,.T.);
#316=EDGE_CURVE('',#424,#425,#496,.F.);
#317=EDGE_CURVE('',#424,#426,#70,.T.);
#318=EDGE_CURVE('',#426,#427,#497,.F.);
#319=EDGE_CURVE('',#427,#425,#71,.T.);
#320=EDGE_CURVE('',#428,#429,#498,.F.);
#321=EDGE_CURVE('',#428,#430,#72,.T.);
#322=EDGE_CURVE('',#430,#431,#499,.F.);
#323=EDGE_CURVE('',#431,#429,#73,.T.);
#324=EDGE_CURVE('',#432,#433,#74,.T.);
#325=EDGE_CURVE('',#433,#434,#500,.F.);
#326=EDGE_CURVE('',#434,#435,#75,.T.);
#327=EDGE_CURVE('',#432,#435,#501,.F.);
#328=EDGE_CURVE('',#436,#437,#502,.F.);
#329=EDGE_CURVE('',#436,#438,#76,.T.);
#330=EDGE_CURVE('',#438,#439,#503,.F.);
#331=EDGE_CURVE('',#439,#437,#77,.T.);
#332=EDGE_CURVE('',#440,#440,#78,.T.);
#333=EDGE_CURVE('',#441,#441,#79,.T.);
#334=EDGE_CURVE('',#442,#442,#80,.T.);
#335=EDGE_CURVE('',#443,#434,#504,.T.);
#336=EDGE_CURVE('',#443,#444,#505,.F.);
#337=EDGE_CURVE('',#444,#445,#81,.T.);
#338=EDGE_CURVE('',#445,#446,#506,.F.);
#339=EDGE_CURVE('',#446,#421,#507,.T.);
#340=EDGE_CURVE('',#447,#423,#508,.T.);
#341=EDGE_CURVE('',#447,#448,#509,.F.);
#342=EDGE_CURVE('',#448,#425,#510,.T.);
#343=EDGE_CURVE('',#449,#427,#511,.T.);
#344=EDGE_CURVE('',#449,#450,#512,.F.);
#345=EDGE_CURVE('',#450,#429,#513,.T.);
#346=EDGE_CURVE('',#451,#431,#514,.T.);
#347=EDGE_CURVE('',#451,#452,#515,.F.);
#348=EDGE_CURVE('',#452,#453,#82,.T.);
#349=EDGE_CURVE('',#453,#454,#516,.F.);
#350=EDGE_CURVE('',#454,#437,#517,.T.);
#351=EDGE_CURVE('',#455,#439,#518,.T.);
#352=EDGE_CURVE('',#455,#456,#519,.F.);
#353=EDGE_CURVE('',#456,#457,#520,.T.);
#354=EDGE_CURVE('',#458,#457,#83,.T.);
#355=EDGE_CURVE('',#459,#458,#521,.T.);
#356=EDGE_CURVE('',#459,#460,#522,.F.);
#357=EDGE_CURVE('',#460,#435,#523,.T.);
#358=EDGE_CURVE('',#461,#461,#84,.T.);
#359=EDGE_CURVE('',#462,#462,#85,.T.);
#360=EDGE_CURVE('',#463,#463,#86,.T.);
#361=EDGE_CURVE('',#464,#465,#524,.T.);
#362=EDGE_CURVE('',#464,#466,#525,.T.);
#363=EDGE_CURVE('',#467,#466,#87,.T.);
#364=EDGE_CURVE('',#467,#468,#526,.T.);
#365=EDGE_CURVE('',#468,#469,#527,.T.);
#366=EDGE_CURVE('',#469,#470,#88,.F.);
#367=EDGE_CURVE('',#471,#470,#528,.T.);
#368=EDGE_CURVE('',#471,#472,#529,.T.);
#369=EDGE_CURVE('',#472,#473,#530,.T.);
#370=EDGE_CURVE('',#473,#474,#89,.F.);
#371=EDGE_CURVE('',#475,#474,#531,.T.);
#372=EDGE_CURVE('',#475,#476,#532,.T.);
#373=EDGE_CURVE('',#476,#477,#533,.T.);
#374=EDGE_CURVE('',#477,#478,#90,.F.);
#375=EDGE_CURVE('',#479,#478,#534,.T.);
#376=EDGE_CURVE('',#479,#480,#535,.T.);
#377=EDGE_CURVE('',#481,#480,#91,.T.);
#378=EDGE_CURVE('',#481,#482,#536,.T.);
#379=EDGE_CURVE('',#482,#483,#537,.T.);
#380=EDGE_CURVE('',#483,#484,#92,.F.);
#381=EDGE_CURVE('',#485,#484,#538,.T.);
#382=EDGE_CURVE('',#485,#486,#539,.T.);
#383=EDGE_CURVE('',#486,#487,#540,.T.);
#384=EDGE_CURVE('',#487,#488,#93,.F.);
#385=EDGE_CURVE('',#489,#488,#541,.T.);
#386=EDGE_CURVE('',#489,#490,#542,.T.);
#387=EDGE_CURVE('',#490,#491,#543,.T.);
#388=EDGE_CURVE('',#491,#465,#94,.F.);
#389=EDGE_CURVE('',#444,#467,#26,.T.);
#390=EDGE_CURVE('',#466,#445,#27,.T.);
#391=EDGE_CURVE('',#452,#481,#28,.T.);
#392=EDGE_CURVE('',#480,#453,#29,.T.);
#393=EDGE_CURVE('',#492,#457,#544,.F.);
#394=EDGE_CURVE('',#492,#493,#95,.T.);
#395=EDGE_CURVE('',#493,#458,#545,.F.);
#396=EDGE_CURVE('',#469,#433,#30,.T.);
#397=EDGE_CURVE('',#443,#468,#31,.T.);
#398=EDGE_CURVE('',#459,#472,#32,.T.);
#399=EDGE_CURVE('',#460,#471,#33,.T.);
#400=EDGE_CURVE('',#473,#493,#34,.T.);
#401=EDGE_CURVE('',#470,#432,#35,.T.);
#402=EDGE_CURVE('',#455,#476,#36,.T.);
#403=EDGE_CURVE('',#456,#475,#37,.T.);
#404=EDGE_CURVE('',#477,#438,#38,.T.);
#405=EDGE_CURVE('',#474,#492,#39,.T.);
#406=EDGE_CURVE('',#454,#479,#40,.T.);
#407=EDGE_CURVE('',#478,#436,#41,.T.);
#408=EDGE_CURVE('',#446,#464,#42,.T.);
#409=EDGE_CURVE('',#447,#490,#43,.T.);
#410=EDGE_CURVE('',#448,#489,#44,.T.);
#411=EDGE_CURVE('',#449,#486,#45,.T.);
#412=EDGE_CURVE('',#450,#485,#46,.T.);
#413=EDGE_CURVE('',#451,#482,#47,.T.);
#414=EDGE_CURVE('',#484,#428,#48,.T.);
#415=EDGE_CURVE('',#483,#430,#49,.T.);
#416=EDGE_CURVE('',#488,#424,#50,.T.);
#417=EDGE_CURVE('',#487,#426,#51,.T.);
#418=EDGE_CURVE('',#465,#420,#52,.T.);
#419=EDGE_CURVE('',#491,#422,#53,.T.);
#420=VERTEX_POINT('',#973);
#421=VERTEX_POINT('',#974);
#422=VERTEX_POINT('',#976);
#423=VERTEX_POINT('',#978);
#424=VERTEX_POINT('',#982);
#425=VERTEX_POINT('',#983);
#426=VERTEX_POINT('',#985);
#427=VERTEX_POINT('',#987);
#428=VERTEX_POINT('',#991);
#429=VERTEX_POINT('',#992);
#430=VERTEX_POINT('',#994);
#431=VERTEX_POINT('',#996);
#432=VERTEX_POINT('',#1000);
#433=VERTEX_POINT('',#1001);
#434=VERTEX_POINT('',#1003);
#435=VERTEX_POINT('',#1005);
#436=VERTEX_POINT('',#1009);
#437=VERTEX_POINT('',#1010);
#438=VERTEX_POINT('',#1012);
#439=VERTEX_POINT('',#1014);
#440=VERTEX_POINT('',#1018);
#441=VERTEX_POINT('',#1020);
#442=VERTEX_POINT('',#1022);
#443=VERTEX_POINT('',#1024);
#444=VERTEX_POINT('',#1026);
#445=VERTEX_POINT('',#1028);
#446=VERTEX_POINT('',#1030);
#447=VERTEX_POINT('',#1033);
#448=VERTEX_POINT('',#1035);
#449=VERTEX_POINT('',#1038);
#450=VERTEX_POINT('',#1040);
#451=VERTEX_POINT('',#1043);
#452=VERTEX_POINT('',#1045);
#453=VERTEX_POINT('',#1047);
#454=VERTEX_POINT('',#1049);
#455=VERTEX_POINT('',#1052);
#456=VERTEX_POINT('',#1054);
#457=VERTEX_POINT('',#1056);
#458=VERTEX_POINT('',#1058);
#459=VERTEX_POINT('',#1060);
#460=VERTEX_POINT('',#1062);
#461=VERTEX_POINT('',#1066);
#462=VERTEX_POINT('',#1068);
#463=VERTEX_POINT('',#1070);
#464=VERTEX_POINT('',#1072);
#465=VERTEX_POINT('',#1073);
#466=VERTEX_POINT('',#1075);
#467=VERTEX_POINT('',#1077);
#468=VERTEX_POINT('',#1079);
#469=VERTEX_POINT('',#1081);
#470=VERTEX_POINT('',#1083);
#471=VERTEX_POINT('',#1085);
#472=VERTEX_POINT('',#1087);
#473=VERTEX_POINT('',#1089);
#474=VERTEX_POINT('',#1091);
#475=VERTEX_POINT('',#1093);
#476=VERTEX_POINT('',#1095);
#477=VERTEX_POINT('',#1097);
#478=VERTEX_POINT('',#1099);
#479=VERTEX_POINT('',#1101);
#480=VERTEX_POINT('',#1103);
#481=VERTEX_POINT('',#1105);
#482=VERTEX_POINT('',#1107);
#483=VERTEX_POINT('',#1109);
#484=VERTEX_POINT('',#1111);
#485=VERTEX_POINT('',#1113);
#486=VERTEX_POINT('',#1115);
#487=VERTEX_POINT('',#1117);
#488=VERTEX_POINT('',#1119);
#489=VERTEX_POINT('',#1121);
#490=VERTEX_POINT('',#1123);
#491=VERTEX_POINT('',#1125);
#492=VERTEX_POINT('',#1170);
#493=VERTEX_POINT('',#1172);
#494=LINE('',#972,#546);
#495=LINE('',#977,#547);
#496=LINE('',#981,#548);
#497=LINE('',#986,#549);
#498=LINE('',#990,#550);
#499=LINE('',#995,#551);
#500=LINE('',#1002,#552);
#501=LINE('',#1006,#553);
#502=LINE('',#1008,#554);
#503=LINE('',#1013,#555);
#504=LINE('',#1023,#556);
#505=LINE('',#1025,#557);
#506=LINE('',#1029,#558);
#507=LINE('',#1031,#559);
#508=LINE('',#1032,#560);
#509=LINE('',#1034,#561);
#510=LINE('',#1036,#562);
#511=LINE('',#1037,#563);
#512=LINE('',#1039,#564);
#513=LINE('',#1041,#565);
#514=LINE('',#1042,#566);
#515=LINE('',#1044,#567);
#516=LINE('',#1048,#568);
#517=LINE('',#1050,#569);
#518=LINE('',#1051,#570);
#519=LINE('',#1053,#571);
#520=LINE('',#1055,#572);
#521=LINE('',#1059,#573);
#522=LINE('',#1061,#574);
#523=LINE('',#1063,#575);
#524=LINE('',#1071,#576);
#525=LINE('',#1074,#577);
#526=LINE('',#1078,#578);
#527=LINE('',#1080,#579);
#528=LINE('',#1084,#580);
#529=LINE('',#1086,#581);
#530=LINE('',#1088,#582);
#531=LINE('',#1092,#583);
#532=LINE('',#1094,#584);
#533=LINE('',#1096,#585);
#534=LINE('',#1100,#586);
#535=LINE('',#1102,#587);
#536=LINE('',#1106,#588);
#537=LINE('',#1108,#589);
#538=LINE('',#1112,#590);
#539=LINE('',#1114,#591);
#540=LINE('',#1116,#592);
#541=LINE('',#1120,#593);
#542=LINE('',#1122,#594);
#543=LINE('',#1124,#595);
#544=LINE('',#1169,#596);
#545=LINE('',#1173,#597);
#546=VECTOR('',#814,1.);
#547=VECTOR('',#817,1.);
#548=VECTOR('',#822,1.);
#549=VECTOR('',#825,1.);
#550=VECTOR('',#830,1.);
#551=VECTOR('',#833,1.);
#552=VECTOR('',#840,1.);
#553=VECTOR('',#843,1.);
#554=VECTOR('',#846,1.);
#555=VECTOR('',#849,1.);
#556=VECTOR('',#860,1.);
#557=VECTOR('',#861,1.);
#558=VECTOR('',#864,1.);
#559=VECTOR('',#865,1.);
#560=VECTOR('',#866,1.);
#561=VECTOR('',#867,1.);
#562=VECTOR('',#868,1.);
#563=VECTOR('',#869,1.);
#564=VECTOR('',#870,1.);
#565=VECTOR('',#871,1.);
#566=VECTOR('',#872,1.);
#567=VECTOR('',#873,1.);
#568=VECTOR('',#876,1.);
#569=VECTOR('',#877,1.);
#570=VECTOR('',#878,1.);
#571=VECTOR('',#879,1.);
#572=VECTOR('',#880,1.);
#573=VECTOR('',#883,1.);
#574=VECTOR('',#884,1.);
#575=VECTOR('',#885,1.);
#576=VECTOR('',#894,1.);
#577=VECTOR('',#895,1.);
#578=VECTOR('',#898,1.);
#579=VECTOR('',#899,1.);
#580=VECTOR('',#902,1.);
#581=VECTOR('',#903,1.);
#582=VECTOR('',#904,1.);
#583=VECTOR('',#907,1.);
#584=VECTOR('',#908,1.);
#585=VECTOR('',#909,1.);
#586=VECTOR('',#912,1.);
#587=VECTOR('',#913,1.);
#588=VECTOR('',#916,1.);
#589=VECTOR('',#917,1.);
#590=VECTOR('',#920,1.);
#591=VECTOR('',#921,1.);
#592=VECTOR('',#922,1.);
#593=VECTOR('',#925,1.);
#594=VECTOR('',#926,1.);
#595=VECTOR('',#927,1.);
#596=VECTOR('',#942,1.);
#597=VECTOR('',#945,1.);
#598=EDGE_LOOP('',(#96,#97,#98,#99));
#599=EDGE_LOOP('',(#100,#101,#102,#103));
#600=EDGE_LOOP('',(#104,#105,#106,#107));
#601=EDGE_LOOP('',(#108,#109,#110,#111));
#602=EDGE_LOOP('',(#112,#113,#114,#115));
#603=EDGE_LOOP('',(#116));
#604=EDGE_LOOP('',(#117));
#605=EDGE_LOOP('',(#118));
#606=EDGE_LOOP('',(#119,#120,#121,#122,#123,#124,#125,#126,#127,#128,#129,
#130,#131,#132,#133,#134,#135,#136,#137,#138,#139,#140,#141,#142,#143,#144,
#145,#146));
#607=EDGE_LOOP('',(#147));
#608=EDGE_LOOP('',(#148));
#609=EDGE_LOOP('',(#149));
#610=EDGE_LOOP('',(#150,#151,#152,#153,#154,#155,#156,#157,#158,#159,#160,
#161,#162,#163,#164,#165,#166,#167,#168,#169,#170,#171,#172,#173,#174,#175,
#176,#177));
#611=EDGE_LOOP('',(#178,#179,#180,#181));
#612=EDGE_LOOP('',(#182));
#613=EDGE_LOOP('',(#183));
#614=EDGE_LOOP('',(#184,#185,#186,#187));
#615=EDGE_LOOP('',(#188));
#616=EDGE_LOOP('',(#189));
#617=EDGE_LOOP('',(#190));
#618=EDGE_LOOP('',(#191));
#619=EDGE_LOOP('',(#192,#193,#194,#195));
#620=EDGE_LOOP('',(#196,#197,#198,#199,#200));
#621=EDGE_LOOP('',(#201,#202,#203,#204));
#622=EDGE_LOOP('',(#205,#206,#207,#208,#209));
#623=EDGE_LOOP('',(#210,#211,#212,#213,#214));
#624=EDGE_LOOP('',(#215,#216,#217,#218));
#625=EDGE_LOOP('',(#219,#220,#221,#222,#223));
#626=EDGE_LOOP('',(#224,#225,#226,#227,#228));
#627=EDGE_LOOP('',(#229,#230,#231,#232,#233));
#628=EDGE_LOOP('',(#234,#235,#236,#237));
#629=EDGE_LOOP('',(#238,#239,#240,#241));
#630=EDGE_LOOP('',(#242,#243,#244,#245));
#631=EDGE_LOOP('',(#246,#247,#248,#249));
#632=EDGE_LOOP('',(#250,#251,#252,#253));
#633=EDGE_LOOP('',(#254,#255,#256,#257));
#634=EDGE_LOOP('',(#258,#259,#260,#261));
#635=EDGE_LOOP('',(#262,#263,#264,#265));
#636=EDGE_LOOP('',(#266,#267,#268,#269));
#637=EDGE_LOOP('',(#270,#271,#272,#273));
#638=EDGE_LOOP('',(#274,#275,#276,#277));
#639=EDGE_LOOP('',(#278,#279,#280,#281));
#640=EDGE_LOOP('',(#282,#283,#284,#285,#286));
#641=EDGE_LOOP('',(#287,#288,#289,#290,#291));
#642=EDGE_LOOP('',(#292,#293,#294,#295,#296));
#643=EDGE_LOOP('',(#297,#298,#299,#300,#301));
#644=EDGE_LOOP('',(#302,#303,#304,#305,#306));
#645=EDGE_LOOP('',(#307,#308,#309,#310,#311));
#646=FACE_BOUND('',#598,.T.);
#647=FACE_BOUND('',#599,.T.);
#648=FACE_BOUND('',#600,.T.);
#649=FACE_BOUND('',#601,.T.);
#650=FACE_BOUND('',#602,.T.);
#651=FACE_BOUND('',#603,.T.);
#652=FACE_BOUND('',#604,.T.);
#653=FACE_BOUND('',#605,.T.);
#654=FACE_BOUND('',#606,.T.);
#655=FACE_BOUND('',#607,.T.);
#656=FACE_BOUND('',#608,.T.);
#657=FACE_BOUND('',#609,.T.);
#658=FACE_BOUND('',#610,.T.);
#659=FACE_BOUND('',#611,.T.);
#660=FACE_BOUND('',#612,.T.);
#661=FACE_BOUND('',#613,.T.);
#662=FACE_BOUND('',#614,.T.);
#663=FACE_BOUND('',#615,.T.);
#664=FACE_BOUND('',#616,.T.);
#665=FACE_BOUND('',#617,.T.);
#666=FACE_BOUND('',#618,.T.);
#667=FACE_BOUND('',#619,.T.);
#668=FACE_BOUND('',#620,.T.);
#669=FACE_BOUND('',#621,.T.);
#670=FACE_BOUND('',#622,.T.);
#671=FACE_BOUND('',#623,.T.);
#672=FACE_BOUND('',#624,.T.);
#673=FACE_BOUND('',#625,.T.);
#674=FACE_BOUND('',#626,.T.);
#675=FACE_BOUND('',#627,.T.);
#676=FACE_BOUND('',#628,.T.);
#677=FACE_BOUND('',#629,.T.);
#678=FACE_BOUND('',#630,.T.);
#679=FACE_BOUND('',#631,.T.);
#680=FACE_BOUND('',#632,.T.);
#681=FACE_BOUND('',#633,.T.);
#682=FACE_BOUND('',#634,.T.);
#683=FACE_BOUND('',#635,.T.);
#684=FACE_BOUND('',#636,.T.);
#685=FACE_BOUND('',#637,.T.);
#686=FACE_BOUND('',#638,.T.);
#687=FACE_BOUND('',#639,.T.);
#688=FACE_BOUND('',#640,.T.);
#689=FACE_BOUND('',#641,.T.);
#690=FACE_BOUND('',#642,.T.);
#691=FACE_BOUND('',#643,.T.);
#692=FACE_BOUND('',#644,.T.);
#693=FACE_BOUND('',#645,.T.);
#694=CYLINDRICAL_SURFACE('',#757,0.0254);
#695=CYLINDRICAL_SURFACE('',#760,0.0254);
#696=CYLINDRICAL_SURFACE('',#763,0.0254);
#697=CYLINDRICAL_SURFACE('',#766,0.0254);
#698=CYLINDRICAL_SURFACE('',#769,0.0254);
#699=CYLINDRICAL_SURFACE('',#791,0.0015);
#700=CYLINDRICAL_SURFACE('',#792,0.0015);
#701=CYLINDRICAL_SURFACE('',#793,0.0015);
#702=CYLINDRICAL_SURFACE('',#794,0.0015);
#703=CYLINDRICAL_SURFACE('',#795,0.003175);
#704=CYLINDRICAL_SURFACE('',#796,0.0254);
#705=ADVANCED_FACE('',(#646),#694,.T.);
#706=ADVANCED_FACE('',(#647),#695,.T.);
#707=ADVANCED_FACE('',(#648),#696,.T.);
#708=ADVANCED_FACE('',(#649),#697,.T.);
#709=ADVANCED_FACE('',(#650),#698,.T.);
#710=ADVANCED_FACE('',(#651,#652,#653,#654),#54,.F.);
#711=ADVANCED_FACE('',(#655,#656,#657,#658),#55,.T.);
#712=ADVANCED_FACE('',(#659),#699,.F.);
#713=ADVANCED_FACE('',(#660,#661),#700,.F.);
#714=ADVANCED_FACE('',(#662),#701,.F.);
#715=ADVANCED_FACE('',(#663,#664),#702,.F.);
#716=ADVANCED_FACE('',(#665,#666),#703,.F.);
#717=ADVANCED_FACE('',(#667),#704,.T.);
#718=ADVANCED_FACE('',(#668),#56,.T.);
#719=ADVANCED_FACE('',(#669),#18,.F.);
#720=ADVANCED_FACE('',(#670),#57,.T.);
#721=ADVANCED_FACE('',(#671),#58,.F.);
#722=ADVANCED_FACE('',(#672),#19,.F.);
#723=ADVANCED_FACE('',(#673),#59,.T.);
#724=ADVANCED_FACE('',(#674),#60,.F.);
#725=ADVANCED_FACE('',(#675),#61,.F.);
#726=ADVANCED_FACE('',(#676),#12,.T.);
#727=ADVANCED_FACE('',(#677),#13,.T.);
#728=ADVANCED_FACE('',(#678),#14,.T.);
#729=ADVANCED_FACE('',(#679),#20,.F.);
#730=ADVANCED_FACE('',(#680),#21,.F.);
#731=ADVANCED_FACE('',(#681),#22,.F.);
#732=ADVANCED_FACE('',(#682),#23,.F.);
#733=ADVANCED_FACE('',(#683),#24,.F.);
#734=ADVANCED_FACE('',(#684),#25,.F.);
#735=ADVANCED_FACE('',(#685),#15,.T.);
#736=ADVANCED_FACE('',(#686),#16,.T.);
#737=ADVANCED_FACE('',(#687),#17,.T.);
#738=ADVANCED_FACE('',(#688),#62,.F.);
#739=ADVANCED_FACE('',(#689),#63,.F.);
#740=ADVANCED_FACE('',(#690),#64,.T.);
#741=ADVANCED_FACE('',(#691),#65,.F.);
#742=ADVANCED_FACE('',(#692),#66,.T.);
#743=ADVANCED_FACE('',(#693),#67,.T.);
#744=CLOSED_SHELL('',(#705,#706,#707,#708,#709,#710,#711,#712,#713,#714,
#715,#716,#717,#718,#719,#720,#721,#722,#723,#724,#725,#726,#727,#728,#729,
#730,#731,#732,#733,#734,#735,#736,#737,#738,#739,#740,#741,#742,#743));
#745=STYLED_ITEM('',(#746),#753);
#746=PRESENTATION_STYLE_ASSIGNMENT((#747));
#747=SURFACE_STYLE_USAGE(.BOTH.,#748);
#748=SURFACE_SIDE_STYLE('',(#749));
#749=SURFACE_STYLE_FILL_AREA(#750);
#750=FILL_AREA_STYLE('',(#751));
#751=FILL_AREA_STYLE_COLOUR('',#752);
#752=COLOUR_RGB('',0.701960784313725,0.701960784313725,0.701960784313725);
#753=MANIFOLD_SOLID_BREP('Motor Mount',#744);
#754=SHAPE_DEFINITION_REPRESENTATION(#1448,#755);
#755=SHAPE_REPRESENTATION('Motor Mount',(#756),#1443);
#756=AXIS2_PLACEMENT_3D('',#970,#810,#811);
#757=AXIS2_PLACEMENT_3D('',#971,#812,#813);
#758=AXIS2_PLACEMENT_3D('',#975,#815,#816);
#759=AXIS2_PLACEMENT_3D('',#979,#818,#819);
#760=AXIS2_PLACEMENT_3D('',#980,#820,#821);
#761=AXIS2_PLACEMENT_3D('',#984,#823,#824);
#762=AXIS2_PLACEMENT_3D('',#988,#826,#827);
#763=AXIS2_PLACEMENT_3D('',#989,#828,#829);
#764=AXIS2_PLACEMENT_3D('',#993,#831,#832);
#765=AXIS2_PLACEMENT_3D('',#997,#834,#835);
#766=AXIS2_PLACEMENT_3D('',#998,#836,#837);
#767=AXIS2_PLACEMENT_3D('',#999,#838,#839);
#768=AXIS2_PLACEMENT_3D('',#1004,#841,#842);
#769=AXIS2_PLACEMENT_3D('',#1007,#844,#845);
#770=AXIS2_PLACEMENT_3D('',#1011,#847,#848);
#771=AXIS2_PLACEMENT_3D('',#1015,#850,#851);
#772=AXIS2_PLACEMENT_3D('',#1016,#852,#853);
#773=AXIS2_PLACEMENT_3D('',#1017,#854,#855);
#774=AXIS2_PLACEMENT_3D('',#1019,#856,#857);
#775=AXIS2_PLACEMENT_3D('',#1021,#858,#859);
#776=AXIS2_PLACEMENT_3D('',#1027,#862,#863);
#777=AXIS2_PLACEMENT_3D('',#1046,#874,#875);
#778=AXIS2_PLACEMENT_3D('',#1057,#881,#882);
#779=AXIS2_PLACEMENT_3D('',#1064,#886,#887);
#780=AXIS2_PLACEMENT_3D('',#1065,#888,#889);
#781=AXIS2_PLACEMENT_3D('',#1067,#890,#891);
#782=AXIS2_PLACEMENT_3D('',#1069,#892,#893);
#783=AXIS2_PLACEMENT_3D('',#1076,#896,#897);
#784=AXIS2_PLACEMENT_3D('',#1082,#900,#901);
#785=AXIS2_PLACEMENT_3D('',#1090,#905,#906);
#786=AXIS2_PLACEMENT_3D('',#1098,#910,#911);
#787=AXIS2_PLACEMENT_3D('',#1104,#914,#915);
#788=AXIS2_PLACEMENT_3D('',#1110,#918,#919);
#789=AXIS2_PLACEMENT_3D('',#1118,#923,#924);
#790=AXIS2_PLACEMENT_3D('',#1126,#928,#929);
#791=AXIS2_PLACEMENT_3D('',#1127,#930,#931);
#792=AXIS2_PLACEMENT_3D('',#1146,#932,#933);
#793=AXIS2_PLACEMENT_3D('',#1147,#934,#935);
#794=AXIS2_PLACEMENT_3D('',#1166,#936,#937);
#795=AXIS2_PLACEMENT_3D('',#1167,#938,#939);
#796=AXIS2_PLACEMENT_3D('',#1168,#940,#941);
#797=AXIS2_PLACEMENT_3D('',#1171,#943,#944);
#798=AXIS2_PLACEMENT_3D('',#1174,#946,#947);
#799=AXIS2_PLACEMENT_3D('',#1199,#948,#949);
#800=AXIS2_PLACEMENT_3D('',#1204,#950,#951);
#801=AXIS2_PLACEMENT_3D('',#1225,#952,#953);
#802=AXIS2_PLACEMENT_3D('',#1230,#954,#955);
#803=AXIS2_PLACEMENT_3D('',#1235,#956,#957);
#804=AXIS2_PLACEMENT_3D('',#1436,#958,#959);
#805=AXIS2_PLACEMENT_3D('',#1437,#960,#961);
#806=AXIS2_PLACEMENT_3D('',#1438,#962,#963);
#807=AXIS2_PLACEMENT_3D('',#1439,#964,#965);
#808=AXIS2_PLACEMENT_3D('',#1440,#966,#967);
#809=AXIS2_PLACEMENT_3D('',#1441,#968,#969);
#810=DIRECTION('',(0.,0.,1.));
#811=DIRECTION('',(1.,0.,0.));
#812=DIRECTION('',(0.,-1.,0.));
#813=DIRECTION('',(0.,0.,-1.));
#814=DIRECTION('',(0.,-1.,0.));
#815=DIRECTION('',(0.,1.,0.));
#816=DIRECTION('',(0.,0.,1.));
#817=DIRECTION('',(0.,-1.,0.));
#818=DIRECTION('',(0.,-1.,0.));
#819=DIRECTION('',(0.,0.,-1.));
#820=DIRECTION('',(0.,-1.,0.));
#821=DIRECTION('',(0.,0.,-1.));
#822=DIRECTION('',(0.,-1.,0.));
#823=DIRECTION('',(0.,1.,0.));
#824=DIRECTION('',(0.,0.,1.));
#825=DIRECTION('',(0.,-1.,0.));
#826=DIRECTION('',(0.,-1.,0.));
#827=DIRECTION('',(0.,0.,-1.));
#828=DIRECTION('',(0.,-1.,0.));
#829=DIRECTION('',(0.,0.,-1.));
#830=DIRECTION('',(0.,-1.,0.));
#831=DIRECTION('',(0.,1.,0.));
#832=DIRECTION('',(0.,0.,1.));
#833=DIRECTION('',(0.,-1.,0.));
#834=DIRECTION('',(0.,-1.,0.));
#835=DIRECTION('',(0.,0.,-1.));
#836=DIRECTION('',(0.,-1.,0.));
#837=DIRECTION('',(0.,0.,-1.));
#838=DIRECTION('',(0.,1.,0.));
#839=DIRECTION('',(0.,0.,1.));
#840=DIRECTION('',(0.,-1.,0.));
#841=DIRECTION('',(0.,-1.,0.));
#842=DIRECTION('',(0.,0.,-1.));
#843=DIRECTION('',(0.,-1.,0.));
#844=DIRECTION('',(0.,-1.,0.));
#845=DIRECTION('',(0.,0.,-1.));
#846=DIRECTION('',(0.,-1.,0.));
#847=DIRECTION('',(0.,1.,0.));
#848=DIRECTION('',(0.,0.,1.));
#849=DIRECTION('',(0.,-1.,0.));
#850=DIRECTION('',(0.,-1.,0.));
#851=DIRECTION('',(0.,0.,-1.));
#852=DIRECTION('',(0.,-1.,0.));
#853=DIRECTION('',(1.,0.,0.));
#854=DIRECTION('',(0.,-1.,0.));
#855=DIRECTION('',(0.,0.,-1.));
#856=DIRECTION('',(0.,-1.,0.));
#857=DIRECTION('',(0.,0.,-1.));
#858=DIRECTION('',(0.,-1.,0.));
#859=DIRECTION('',(0.,0.,-1.));
#860=DIRECTION('',(0.,0.,1.));
#861=DIRECTION('',(-1.,0.,0.));
#862=DIRECTION('',(0.,-1.,0.));
#863=DIRECTION('',(0.,0.,-1.));
#864=DIRECTION('',(-1.,0.,0.));
#865=DIRECTION('',(0.,0.,1.));
#866=DIRECTION('',(0.866025403784439,0.,0.5));
#867=DIRECTION('',(-0.5,0.,0.866025403784439));
#868=DIRECTION('',(0.866025403784439,0.,0.5));
#869=DIRECTION('',(0.866025403784438,0.,-0.5));
#870=DIRECTION('',(0.5,0.,0.866025403784438));
#871=DIRECTION('',(0.866025403784438,0.,-0.5));
#872=DIRECTION('',(-1.22464679914735E-16,0.,-1.));
#873=DIRECTION('',(1.,0.,-1.22464679914735E-16));
#874=DIRECTION('',(0.,-1.,0.));
#875=DIRECTION('',(0.,0.,-1.));
#876=DIRECTION('',(1.,0.,-1.22464679914735E-16));
#877=DIRECTION('',(-1.22464679914735E-16,0.,-1.));
#878=DIRECTION('',(-0.866025403784439,0.,-0.5));
#879=DIRECTION('',(0.5,0.,-0.866025403784439));
#880=DIRECTION('',(-0.866025403784439,0.,-0.5));
#881=DIRECTION('',(0.,-1.,0.));
#882=DIRECTION('',(0.,0.,-1.));
#883=DIRECTION('',(-0.866025403784439,0.,0.5));
#884=DIRECTION('',(-0.5,0.,-0.866025403784439));
#885=DIRECTION('',(-0.866025403784439,0.,0.5));
#886=DIRECTION('',(0.,-1.,0.));
#887=DIRECTION('',(1.,0.,0.));
#888=DIRECTION('',(0.,-1.,0.));
#889=DIRECTION('',(0.,0.,-1.));
#890=DIRECTION('',(0.,-1.,0.));
#891=DIRECTION('',(0.,0.,-1.));
#892=DIRECTION('',(0.,-1.,0.));
#893=DIRECTION('',(0.,0.,-1.));
#894=DIRECTION('',(0.,0.,1.));
#895=DIRECTION('',(-1.,0.,0.));
#896=DIRECTION('',(0.,-1.,0.));
#897=DIRECTION('',(0.,0.,-1.));
#898=DIRECTION('',(-1.,0.,0.));
#899=DIRECTION('',(0.,0.,1.));
#900=DIRECTION('',(0.,1.,0.));
#901=DIRECTION('',(0.,0.,1.));
#902=DIRECTION('',(-0.866025403784439,0.,0.5));
#903=DIRECTION('',(-0.5,0.,-0.866025403784439));
#904=DIRECTION('',(-0.866025403784439,0.,0.5));
#905=DIRECTION('',(0.,1.,0.));
#906=DIRECTION('',(0.,0.,1.));
#907=DIRECTION('',(-0.866025403784439,0.,-0.5));
#908=DIRECTION('',(0.5,0.,-0.866025403784439));
#909=DIRECTION('',(-0.866025403784439,0.,-0.5));
#910=DIRECTION('',(0.,1.,0.));
#911=DIRECTION('',(0.,0.,1.));
#912=DIRECTION('',(-1.22464679914735E-16,0.,-1.));
#913=DIRECTION('',(1.,0.,-1.22464679914735E-16));
#914=DIRECTION('',(0.,-1.,0.));
#915=DIRECTION('',(0.,0.,-1.));
#916=DIRECTION('',(1.,0.,-1.22464679914735E-16));
#917=DIRECTION('',(-1.22464679914735E-16,0.,-1.));
#918=DIRECTION('',(0.,1.,0.));
#919=DIRECTION('',(0.,0.,1.));
#920=DIRECTION('',(0.866025403784438,0.,-0.5));
#921=DIRECTION('',(0.5,0.,0.866025403784438));
#922=DIRECTION('',(0.866025403784438,0.,-0.5));
#923=DIRECTION('',(0.,1.,0.));
#924=DIRECTION('',(0.,0.,1.));
#925=DIRECTION('',(0.866025403784439,0.,0.5));
#926=DIRECTION('',(-0.5,0.,0.866025403784439));
#927=DIRECTION('',(0.866025403784439,0.,0.5));
#928=DIRECTION('',(0.,1.,0.));
#929=DIRECTION('',(0.,0.,1.));
#930=DIRECTION('',(0.,-1.,0.));
#931=DIRECTION('',(0.,0.,-1.));
#932=DIRECTION('',(0.,-1.,0.));
#933=DIRECTION('',(0.,0.,-1.));
#934=DIRECTION('',(0.,-1.,0.));
#935=DIRECTION('',(0.,0.,-1.));
#936=DIRECTION('',(0.,-1.,0.));
#937=DIRECTION('',(0.,0.,-1.));
#938=DIRECTION('',(0.,-1.,0.));
#939=DIRECTION('',(0.,0.,-1.));
#940=DIRECTION('',(0.,-1.,0.));
#941=DIRECTION('',(0.,0.,-1.));
#942=DIRECTION('',(0.,-1.,0.));
#943=DIRECTION('',(0.,1.,0.));
#944=DIRECTION('',(0.,0.,1.));
#945=DIRECTION('',(0.,-1.,0.));
#946=DIRECTION('',(1.,0.,0.));
#947=DIRECTION('',(0.,1.,0.));
#948=DIRECTION('',(0.5,0.,0.866025403784439));
#949=DIRECTION('',(0.,1.,0.));
#950=DIRECTION('',(0.5,0.,0.866025403784439));
#951=DIRECTION('',(0.,1.,0.));
#952=DIRECTION('',(-0.5,0.,0.866025403784439));
#953=DIRECTION('',(0.,1.,0.));
#954=DIRECTION('',(-0.5,0.,0.866025403784439));
#955=DIRECTION('',(0.,1.,0.));
#956=DIRECTION('',(-1.,0.,1.22464679914735E-16));
#957=DIRECTION('',(0.,1.,0.));
#958=DIRECTION('',(1.,0.,0.));
#959=DIRECTION('',(0.,1.,0.));
#960=DIRECTION('',(0.5,0.,-0.866025403784439));
#961=DIRECTION('',(0.,1.,0.));
#962=DIRECTION('',(0.5,0.,-0.866025403784439));
#963=DIRECTION('',(0.,1.,0.));
#964=DIRECTION('',(-0.5,0.,-0.866025403784438));
#965=DIRECTION('',(0.,1.,0.));
#966=DIRECTION('',(-0.5,0.,-0.866025403784438));
#967=DIRECTION('',(0.,1.,0.));
#968=DIRECTION('',(-1.,0.,1.22464679914735E-16));
#969=DIRECTION('',(0.,1.,0.));
#970=CARTESIAN_POINT('',(0.,0.,0.));
#971=CARTESIAN_POINT('',(0.,-0.1397,1.55530143491714E-18));
#972=CARTESIAN_POINT('',(0.003,-0.1397,0.0252222124326951));
#973=CARTESIAN_POINT('',(0.003,-0.142731709676054,0.0252222124326951));
#974=CARTESIAN_POINT('',(0.003,-0.1397,0.0252222124326951));
#975=CARTESIAN_POINT('',(0.,-0.142731709676053,0.));
#976=CARTESIAN_POINT('',(0.0203430767063617,-0.142731709676054,0.0152091824277009));
#977=CARTESIAN_POINT('',(0.0203430767063617,-0.1397,0.0152091824277009));
#978=CARTESIAN_POINT('',(0.0203430767063617,-0.1397,0.0152091824277009));
#979=CARTESIAN_POINT('',(0.,-0.1397,1.55530143491714E-18));
#980=CARTESIAN_POINT('',(0.,-0.1397,1.55530143491714E-18));
#981=CARTESIAN_POINT('',(0.0233430767063617,-0.1397,0.0100130300049942));
#982=CARTESIAN_POINT('',(0.0233430767063617,-0.142731709676053,0.0100130300049942));
#983=CARTESIAN_POINT('',(0.0233430767063617,-0.1397,0.0100130300049942));
#984=CARTESIAN_POINT('',(0.,-0.142731709676053,0.));
#985=CARTESIAN_POINT('',(0.0233430767063617,-0.142731709676053,-0.0100130300049943));
#986=CARTESIAN_POINT('',(0.0233430767063617,-0.1397,-0.0100130300049942));
#987=CARTESIAN_POINT('',(0.0233430767063617,-0.1397,-0.0100130300049942));
#988=CARTESIAN_POINT('',(0.,-0.1397,1.55530143491714E-18));
#989=CARTESIAN_POINT('',(0.,-0.1397,1.55530143491714E-18));
#990=CARTESIAN_POINT('',(0.0203430767063617,-0.1397,-0.0152091824277009));
#991=CARTESIAN_POINT('',(0.0203430767063617,-0.142731709676053,-0.0152091824277009));
#992=CARTESIAN_POINT('',(0.0203430767063617,-0.1397,-0.0152091824277009));
#993=CARTESIAN_POINT('',(0.,-0.142731709676053,0.));
#994=CARTESIAN_POINT('',(0.003,-0.142731709676054,-0.0252222124326951));
#995=CARTESIAN_POINT('',(0.003,-0.1397,-0.0252222124326951));
#996=CARTESIAN_POINT('',(0.003,-0.1397,-0.0252222124326951));
#997=CARTESIAN_POINT('',(0.,-0.1397,1.55530143491714E-18));
#998=CARTESIAN_POINT('',(0.,-0.1397,1.55530143491714E-18));
#999=CARTESIAN_POINT('',(0.,-0.142731709676053,0.));
#1000=CARTESIAN_POINT('',(-0.0203430767063617,-0.142731709676053,0.0152091824277009));
#1001=CARTESIAN_POINT('',(-0.003,-0.142731709676053,0.0252222124326951));
#1002=CARTESIAN_POINT('',(-0.003,-0.1397,0.0252222124326951));
#1003=CARTESIAN_POINT('',(-0.003,-0.1397,0.0252222124326951));
#1004=CARTESIAN_POINT('',(0.,-0.1397,1.55530143491714E-18));
#1005=CARTESIAN_POINT('',(-0.0203430767063617,-0.1397,0.0152091824277009));
#1006=CARTESIAN_POINT('',(-0.0203430767063617,-0.1397,0.0152091824277009));
#1007=CARTESIAN_POINT('',(0.,-0.1397,1.55530143491714E-18));
#1008=CARTESIAN_POINT('',(-0.003,-0.1397,-0.0252222124326951));
#1009=CARTESIAN_POINT('',(-0.003,-0.142731709676053,-0.0252222124326951));
#1010=CARTESIAN_POINT('',(-0.003,-0.1397,-0.0252222124326951));
#1011=CARTESIAN_POINT('',(0.,-0.142731709676053,0.));
#1012=CARTESIAN_POINT('',(-0.0203430767063617,-0.142731709676053,-0.0152091824277009));
#1013=CARTESIAN_POINT('',(-0.0203430767063617,-0.1397,-0.0152091824277009));
#1014=CARTESIAN_POINT('',(-0.0203430767063617,-0.1397,-0.0152091824277009));
#1015=CARTESIAN_POINT('',(0.,-0.1397,1.55530143491714E-18));
#1016=CARTESIAN_POINT('',(0.,-0.1397,0.));
#1017=CARTESIAN_POINT('',(0.,-0.1397,1.94412679364643E-19));
#1018=CARTESIAN_POINT('',(0.,-0.1397,-0.003175));
#1019=CARTESIAN_POINT('',(0.0162500056,-0.1397,9.18485099360515E-20));
#1020=CARTESIAN_POINT('',(0.0162500056,-0.1397,-0.0015));
#1021=CARTESIAN_POINT('',(-0.0162500056,-0.1397,9.18485099360515E-20));
#1022=CARTESIAN_POINT('',(-0.0162500056,-0.1397,-0.0015));
#1023=CARTESIAN_POINT('',(-0.003,-0.1397,0.));
#1024=CARTESIAN_POINT('',(-0.003,-0.139699999999998,0.016985918197796));
#1025=CARTESIAN_POINT('',(0.003,-0.1397,0.0169859181977954));
#1026=CARTESIAN_POINT('',(-0.00130707025381423,-0.1397,0.0169859181977954));
#1027=CARTESIAN_POINT('',(0.,-0.1397,0.0162500056));
#1028=CARTESIAN_POINT('',(0.00130707025381423,-0.1397,0.0169859181977954));
#1029=CARTESIAN_POINT('',(0.003,-0.1397,0.0169859181977954));
#1030=CARTESIAN_POINT('',(0.003,-0.139699999999998,0.016985918197796));
#1031=CARTESIAN_POINT('',(0.003,-0.1397,0.));
#1032=CARTESIAN_POINT('',(-0.0015,-0.1397,0.00259807621135332));
#1033=CARTESIAN_POINT('',(0.0132102366658957,-0.139699999999998,0.0110910353102513));
#1034=CARTESIAN_POINT('',(0.0162102366658952,-0.1397,0.00589488288754438));
#1035=CARTESIAN_POINT('',(0.0162102366658956,-0.139699999999998,0.00589488288754464));
#1036=CARTESIAN_POINT('',(0.0015,-0.1397,-0.00259807621135332));
#1037=CARTESIAN_POINT('',(0.0015,-0.1397,0.00259807621135332));
#1038=CARTESIAN_POINT('',(0.0162102366658956,-0.139699999999998,-0.00589488288754466));
#1039=CARTESIAN_POINT('',(0.0132102366658952,-0.1397,-0.011091035310251));
#1040=CARTESIAN_POINT('',(0.0132102366658957,-0.139699999999998,-0.0110910353102513));
#1041=CARTESIAN_POINT('',(-0.0015,-0.1397,-0.00259807621135332));
#1042=CARTESIAN_POINT('',(0.003,-0.1397,-3.67394039744206E-19));
#1043=CARTESIAN_POINT('',(0.003,-0.139699999999998,-0.016985918197796));
#1044=CARTESIAN_POINT('',(-0.003,-0.1397,-0.0169859181977954));
#1045=CARTESIAN_POINT('',(0.00130707025381423,-0.1397,-0.0169859181977954));
#1046=CARTESIAN_POINT('',(0.,-0.1397,-0.0162500056));
#1047=CARTESIAN_POINT('',(-0.00130707025381423,-0.1397,-0.0169859181977954));
#1048=CARTESIAN_POINT('',(-0.003,-0.1397,-0.0169859181977954));
#1049=CARTESIAN_POINT('',(-0.003,-0.139699999999998,-0.016985918197796));
#1050=CARTESIAN_POINT('',(-0.003,-0.1397,3.67394039744206E-19));
#1051=CARTESIAN_POINT('',(0.0015,-0.1397,-0.00259807621135332));
#1052=CARTESIAN_POINT('',(-0.0132102366658957,-0.139699999999998,-0.0110910353102513));
#1053=CARTESIAN_POINT('',(-0.0162102366658952,-0.1397,-0.00589488288754439));
#1054=CARTESIAN_POINT('',(-0.0162102366658956,-0.139699999999998,-0.00589488288754465));
#1055=CARTESIAN_POINT('',(-0.0015,-0.1397,0.00259807621135332));
#1056=CARTESIAN_POINT('',(-0.0233430767063617,-0.1397,-0.0100130300049942));
#1057=CARTESIAN_POINT('',(0.,-0.1397,1.55530143491714E-18));
#1058=CARTESIAN_POINT('',(-0.0233430767063617,-0.1397,0.0100130300049942));
#1059=CARTESIAN_POINT('',(-0.0015,-0.1397,-0.00259807621135332));
#1060=CARTESIAN_POINT('',(-0.0162102366658956,-0.139699999999998,0.00589488288754465));
#1061=CARTESIAN_POINT('',(-0.0132102366658952,-0.1397,0.011091035310251));
#1062=CARTESIAN_POINT('',(-0.0132102366658957,-0.139699999999998,0.0110910353102513));
#1063=CARTESIAN_POINT('',(0.0015,-0.1397,0.00259807621135332));
#1064=CARTESIAN_POINT('',(0.,-0.14605,0.));
#1065=CARTESIAN_POINT('',(-0.0162500056,-0.14605,9.18485099360515E-20));
#1066=CARTESIAN_POINT('',(-0.0162500056,-0.14605,-0.0015));
#1067=CARTESIAN_POINT('',(0.0162500056,-0.14605,9.18485099360515E-20));
#1068=CARTESIAN_POINT('',(0.0162500056,-0.14605,-0.0015));
#1069=CARTESIAN_POINT('',(0.,-0.14605,1.94412679364643E-19));
#1070=CARTESIAN_POINT('',(0.,-0.14605,-0.003175));
#1071=CARTESIAN_POINT('',(0.003,-0.14605,0.));
#1072=CARTESIAN_POINT('',(0.003,-0.146050000000005,0.0147763529403626));
#1073=CARTESIAN_POINT('',(0.003,-0.14605,0.0239533580995957));
#1074=CARTESIAN_POINT('',(0.003,-0.146050000000005,0.0147763529403626));
#1075=CARTESIAN_POINT('',(0.000279906839401318,-0.146050000000005,0.0147763529403626));
#1076=CARTESIAN_POINT('',(0.,-0.14605,0.0162500056));
#1077=CARTESIAN_POINT('',(-0.000279906839401318,-0.146050000000005,0.0147763529403626));
#1078=CARTESIAN_POINT('',(0.003,-0.146050000000005,0.0147763529403626));
#1079=CARTESIAN_POINT('',(-0.003,-0.146050000000005,0.0147763529403626));
#1080=CARTESIAN_POINT('',(-0.003,-0.14605,0.));
#1081=CARTESIAN_POINT('',(-0.003,-0.14605,0.0239533580995957));
#1082=CARTESIAN_POINT('',(0.,-0.14605,0.));
#1083=CARTESIAN_POINT('',(-0.0192442166201956,-0.14605,0.0145747552611512));
#1084=CARTESIAN_POINT('',(0.0015,-0.14605,0.00259807621135332));
#1085=CARTESIAN_POINT('',(-0.0112966970216389,-0.146050000000005,0.00998625268153462));
#1086=CARTESIAN_POINT('',(-0.0112966970216389,-0.146050000000005,0.00998625268153462));
#1087=CARTESIAN_POINT('',(-0.0142966970216389,-0.146050000000005,0.00479010025882799));
#1088=CARTESIAN_POINT('',(-0.0015,-0.14605,-0.00259807621135332));
#1089=CARTESIAN_POINT('',(-0.0222442166201956,-0.14605,0.00937860283844454));
#1090=CARTESIAN_POINT('',(0.,-0.14605,0.));
#1091=CARTESIAN_POINT('',(-0.0222442166201956,-0.14605,-0.00937860283844452));
#1092=CARTESIAN_POINT('',(-0.0015,-0.14605,0.00259807621135332));
#1093=CARTESIAN_POINT('',(-0.0142966970216389,-0.146050000000005,-0.00479010025882798));
#1094=CARTESIAN_POINT('',(-0.0142966970216389,-0.146050000000005,-0.00479010025882798));
#1095=CARTESIAN_POINT('',(-0.0112966970216389,-0.146050000000005,-0.00998625268153462));
#1096=CARTESIAN_POINT('',(0.0015,-0.14605,-0.00259807621135332));
#1097=CARTESIAN_POINT('',(-0.0192442166201956,-0.14605,-0.0145747552611512));
#1098=CARTESIAN_POINT('',(0.,-0.14605,0.));
#1099=CARTESIAN_POINT('',(-0.003,-0.14605,-0.0239533580995957));
#1100=CARTESIAN_POINT('',(-0.003,-0.14605,3.67394039744206E-19));
#1101=CARTESIAN_POINT('',(-0.003,-0.146050000000005,-0.0147763529403626));
#1102=CARTESIAN_POINT('',(-0.003,-0.146050000000005,-0.0147763529403626));
#1103=CARTESIAN_POINT('',(-0.00027990683940132,-0.146050000000005,-0.0147763529403626));
#1104=CARTESIAN_POINT('',(0.,-0.14605,-0.0162500056));
#1105=CARTESIAN_POINT('',(0.00027990683940132,-0.146050000000005,-0.0147763529403626));
#1106=CARTESIAN_POINT('',(-0.003,-0.146050000000005,-0.0147763529403626));
#1107=CARTESIAN_POINT('',(0.003,-0.146050000000005,-0.0147763529403626));
#1108=CARTESIAN_POINT('',(0.003,-0.14605,-3.67394039744206E-19));
#1109=CARTESIAN_POINT('',(0.003,-0.14605,-0.0239533580995957));
#1110=CARTESIAN_POINT('',(0.,-0.14605,0.));
#1111=CARTESIAN_POINT('',(0.0192442166201956,-0.14605,-0.0145747552611512));
#1112=CARTESIAN_POINT('',(-0.0015,-0.14605,-0.00259807621135332));
#1113=CARTESIAN_POINT('',(0.0112966970216389,-0.146050000000005,-0.00998625268153463));
#1114=CARTESIAN_POINT('',(0.0112966970216389,-0.146050000000005,-0.00998625268153463));
#1115=CARTESIAN_POINT('',(0.0142966970216389,-0.146050000000005,-0.004790100258828));
#1116=CARTESIAN_POINT('',(0.0015,-0.14605,0.00259807621135332));
#1117=CARTESIAN_POINT('',(0.0222442166201956,-0.14605,-0.00937860283844455));
#1118=CARTESIAN_POINT('',(0.,-0.14605,0.));
#1119=CARTESIAN_POINT('',(0.0222442166201956,-0.14605,0.00937860283844452));
#1120=CARTESIAN_POINT('',(0.0015,-0.14605,-0.00259807621135332));
#1121=CARTESIAN_POINT('',(0.0142966970216389,-0.146050000000005,0.00479010025882798));
#1122=CARTESIAN_POINT('',(0.0142966970216389,-0.146050000000005,0.00479010025882798));
#1123=CARTESIAN_POINT('',(0.0112966970216389,-0.146050000000005,0.00998625268153461));
#1124=CARTESIAN_POINT('',(-0.0015,-0.14605,0.00259807621135332));
#1125=CARTESIAN_POINT('',(0.0192442166201956,-0.14605,0.0145747552611511));
#1126=CARTESIAN_POINT('',(0.,-0.14605,0.));
#1127=CARTESIAN_POINT('',(0.,-0.1397,0.0162500056));
#1128=CARTESIAN_POINT('',(-0.00130707025381424,-0.1397,0.0169859181977954));
#1129=CARTESIAN_POINT('',(-0.00140796909560449,-0.140251123516825,0.0168067095864149));
#1130=CARTESIAN_POINT('',(-0.00152173090621452,-0.141354687900632,0.0164421121641084));
#1131=CARTESIAN_POINT('',(-0.00149616290048119,-0.142747825304308,0.0159656418007829));
#1132=CARTESIAN_POINT('',(-0.00135534045754855,-0.14383984373614,0.0155818141902673));
#1133=CARTESIAN_POINT('',(-0.00117556491553385,-0.14464288927073,0.0152942885194514));
#1134=CARTESIAN_POINT('',(-0.000882441893111596,-0.145420439497629,0.0150108108122192));
#1135=CARTESIAN_POINT('',(-0.000545387856994599,-0.145915097810504,0.0148267786306139));
#1136=CARTESIAN_POINT('',(-0.000279906839410745,-0.146050000000005,0.0147763529403609));
#1137=CARTESIAN_POINT('',(0.000279906839411148,-0.146050000000002,0.0147763529403635));
#1138=CARTESIAN_POINT('',(0.000544885220349905,-0.145915353221545,0.0148266831593849));
#1139=CARTESIAN_POINT('',(0.000877207699559434,-0.145429199478544,0.0150075700476914));
#1140=CARTESIAN_POINT('',(0.00117387489413776,-0.144650330432549,0.0152916100622343));
#1141=CARTESIAN_POINT('',(0.00135531731004644,-0.14384151299282,0.0155812452107377));
#1142=CARTESIAN_POINT('',(0.0014971901631671,-0.142736133327679,0.0159697099890973));
#1143=CARTESIAN_POINT('',(0.00152121059344654,-0.141357027906064,0.0164412703622011));
#1144=CARTESIAN_POINT('',(0.00140815684163025,-0.140252149011747,0.016806376126645));
#1145=CARTESIAN_POINT('',(0.00130707025381424,-0.1397,0.0169859181977954));
#1146=CARTESIAN_POINT('',(-0.0162500056,-0.1397,9.18485099360515E-20));
#1147=CARTESIAN_POINT('',(0.,-0.1397,-0.0162500056));
#1148=CARTESIAN_POINT('',(0.00130707025381424,-0.1397,-0.0169859181977954));
#1149=CARTESIAN_POINT('',(0.00140796909560449,-0.140251123516825,-0.0168067095864149));
#1150=CARTESIAN_POINT('',(0.00152173090621451,-0.141354687900632,-0.0164421121641085));
#1151=CARTESIAN_POINT('',(0.0014961629004812,-0.142747825304308,-0.0159656418007829));
#1152=CARTESIAN_POINT('',(0.00135534045754853,-0.14383984373614,-0.0155818141902673));
#1153=CARTESIAN_POINT('',(0.00117556491553386,-0.14464288927073,-0.0152942885194514));
#1154=CARTESIAN_POINT('',(0.000882441893111613,-0.145420439497629,-0.0150108108122192));
#1155=CARTESIAN_POINT('',(0.00054538785699463,-0.145915097810504,-0.0148267786306139));
#1156=CARTESIAN_POINT('',(0.00027990683941075,-0.146050000000005,-0.0147763529403609));
#1157=CARTESIAN_POINT('',(-0.000279906839411151,-0.146050000000002,-0.0147763529403635));
#1158=CARTESIAN_POINT('',(-0.000544885220349904,-0.145915353221545,-0.0148266831593849));
#1159=CARTESIAN_POINT('',(-0.000877207699559409,-0.145429199478544,-0.0150075700476914));
#1160=CARTESIAN_POINT('',(-0.00117387489413777,-0.144650330432549,-0.0152916100622343));
#1161=CARTESIAN_POINT('',(-0.00135531731004643,-0.14384151299282,-0.0155812452107377));
#1162=CARTESIAN_POINT('',(-0.00149719016316711,-0.142736133327679,-0.0159697099890973));
#1163=CARTESIAN_POINT('',(-0.00152121059344654,-0.141357027906064,-0.016441270362201));
#1164=CARTESIAN_POINT('',(-0.00140815684163025,-0.140252149011747,-0.016806376126645));
#1165=CARTESIAN_POINT('',(-0.00130707025381424,-0.1397,-0.0169859181977954));
#1166=CARTESIAN_POINT('',(0.0162500056,-0.1397,9.18485099360515E-20));
#1167=CARTESIAN_POINT('',(0.,-0.1397,1.94412679364643E-19));
#1168=CARTESIAN_POINT('',(0.,-0.1397,1.55530143491714E-18));
#1169=CARTESIAN_POINT('',(-0.0233430767063617,-0.1397,-0.0100130300049942));
#1170=CARTESIAN_POINT('',(-0.0233430767063617,-0.142731709676054,-0.0100130300049942));
#1171=CARTESIAN_POINT('',(0.,-0.142731709676053,0.));
#1172=CARTESIAN_POINT('',(-0.0233430767063617,-0.142731709676053,0.0100130300049942));
#1173=CARTESIAN_POINT('',(-0.0233430767063617,-0.1397,0.0100130300049942));
#1174=CARTESIAN_POINT('',(-0.003,-0.0889,0.));
#1175=CARTESIAN_POINT('',(-0.00300000000000001,-0.14605,0.0239533580995957));
#1176=CARTESIAN_POINT('',(-0.00300000000000001,-0.144948731386982,0.0243878540999058));
#1177=CARTESIAN_POINT('',(-0.00300000000000001,-0.143842461009471,0.0248103904446744));
#1178=CARTESIAN_POINT('',(-0.00300000000000001,-0.142731709676053,0.0252222124326952));
#1179=CARTESIAN_POINT('',(-0.003,-0.0254,0.0343486471045059));
#1180=CARTESIAN_POINT('',(-0.003,-0.0611945776330988,0.0343486471045059));
#1181=CARTESIAN_POINT('',(-0.003,-0.116500385761716,0.0258218348572162));
#1182=CARTESIAN_POINT('',(-0.003,-0.146050000000005,0.0147763529403626));
#1183=CARTESIAN_POINT('',(-0.0132102366656675,-0.139700000000809,0.0110910353101195));
#1184=CARTESIAN_POINT('',(-0.0162102366656675,-0.139700000000809,0.0058948828874129));
#1185=CARTESIAN_POINT('',(-0.0125834928556656,-0.141925612184263,0.010729184602702));
#1186=CARTESIAN_POINT('',(-0.0155834928556656,-0.141925612184263,0.00553303217999541));
#1187=CARTESIAN_POINT('',(-0.0119451061121216,-0.144046978504958,0.0103606118444698));
#1188=CARTESIAN_POINT('',(-0.0149451061121216,-0.144046978504958,0.00516445942176315));
#1189=CARTESIAN_POINT('',(-0.0112966970216389,-0.146050000000005,0.00998625268153462));
#1190=CARTESIAN_POINT('',(-0.0142966970216389,-0.146050000000005,0.00479010025882799));
#1191=CARTESIAN_POINT('',(-0.031246800978129,-0.0254,0.0145762473408996));
#1192=CARTESIAN_POINT('',(-0.031246800978129,-0.0611945776330988,0.0145762473408996));
#1193=CARTESIAN_POINT('',(-0.0238623649586758,-0.116500385761716,0.0103128412172548));
#1194=CARTESIAN_POINT('',(-0.0142966970216389,-0.146050000000005,0.00479010025882799));
#1195=CARTESIAN_POINT('',(-0.0282468009781289,-0.0254,0.0197723997636063));
#1196=CARTESIAN_POINT('',(-0.0282468009781289,-0.0611945776330988,0.0197723997636063));
#1197=CARTESIAN_POINT('',(-0.0208623649586758,-0.116500385761716,0.0155089936399615));
#1198=CARTESIAN_POINT('',(-0.0112966970216389,-0.146050000000005,0.00998625268153462));
#1199=CARTESIAN_POINT('',(-0.0015,-0.0889,-0.00259807621135332));
#1200=CARTESIAN_POINT('',(-0.0222442166201956,-0.14605,0.00937860283844454));
#1201=CARTESIAN_POINT('',(-0.0226205011943069,-0.144948731386982,0.00959585083859958));
#1202=CARTESIAN_POINT('',(-0.0229864284028987,-0.143842461009471,0.0098071190109839));
#1203=CARTESIAN_POINT('',(-0.0233430767063617,-0.142731709676053,0.0100130300049943));
#1204=CARTESIAN_POINT('',(0.0015,-0.0889,0.00259807621135332));
#1205=CARTESIAN_POINT('',(-0.0192442166201956,-0.14605,0.0145747552611512));
#1206=CARTESIAN_POINT('',(-0.0196205011943069,-0.144948731386982,0.0147920032613062));
#1207=CARTESIAN_POINT('',(-0.0199864284028987,-0.143842461009471,0.0150032714336905));
#1208=CARTESIAN_POINT('',(-0.0203430767063617,-0.142731709676053,0.0152091824277009));
#1209=CARTESIAN_POINT('',(-0.0162102366656675,-0.139700000000809,-0.00589488288741289));
#1210=CARTESIAN_POINT('',(-0.0132102366656675,-0.139700000000809,-0.0110910353101195));
#1211=CARTESIAN_POINT('',(-0.0155834928556656,-0.141925612184263,-0.0055330321799954));
#1212=CARTESIAN_POINT('',(-0.0125834928556656,-0.141925612184263,-0.010729184602702));
#1213=CARTESIAN_POINT('',(-0.0149451061121216,-0.144046978504958,-0.00516445942176314));
#1214=CARTESIAN_POINT('',(-0.0119451061121216,-0.144046978504958,-0.0103606118444698));
#1215=CARTESIAN_POINT('',(-0.0142966970216389,-0.146050000000005,-0.00479010025882798));
#1216=CARTESIAN_POINT('',(-0.0112966970216389,-0.146050000000005,-0.00998625268153462));
#1217=CARTESIAN_POINT('',(-0.028246800978129,-0.0254,-0.0197723997636063));
#1218=CARTESIAN_POINT('',(-0.028246800978129,-0.0611945776330988,-0.0197723997636063));
#1219=CARTESIAN_POINT('',(-0.0208623649586758,-0.116500385761716,-0.0155089936399615));
#1220=CARTESIAN_POINT('',(-0.0112966970216389,-0.146050000000005,-0.00998625268153462));
#1221=CARTESIAN_POINT('',(-0.031246800978129,-0.0254,-0.0145762473408996));
#1222=CARTESIAN_POINT('',(-0.031246800978129,-0.0611945776330988,-0.0145762473408996));
#1223=CARTESIAN_POINT('',(-0.0238623649586758,-0.116500385761716,-0.0103128412172548));
#1224=CARTESIAN_POINT('',(-0.0142966970216389,-0.146050000000005,-0.00479010025882798));
#1225=CARTESIAN_POINT('',(0.0015,-0.0889,-0.00259807621135332));
#1226=CARTESIAN_POINT('',(-0.0192442166201956,-0.14605,-0.0145747552611512));
#1227=CARTESIAN_POINT('',(-0.0196205011943069,-0.144948731386982,-0.0147920032613062));
#1228=CARTESIAN_POINT('',(-0.0199864284028987,-0.143842461009471,-0.0150032714336905));
#1229=CARTESIAN_POINT('',(-0.0203430767063617,-0.142731709676053,-0.0152091824277009));
#1230=CARTESIAN_POINT('',(-0.0015,-0.0889,0.00259807621135332));
#1231=CARTESIAN_POINT('',(-0.0222442166201956,-0.14605,-0.00937860283844453));
#1232=CARTESIAN_POINT('',(-0.0226205011943069,-0.144948731386982,-0.00959585083859956));
#1233=CARTESIAN_POINT('',(-0.0229864284028987,-0.143842461009471,-0.00980711901098386));
#1234=CARTESIAN_POINT('',(-0.0233430767063617,-0.142731709676054,-0.0100130300049942));
#1235=CARTESIAN_POINT('',(-0.003,-0.0889,3.67394039744206E-19));
#1236=CARTESIAN_POINT('',(-0.003,-0.0254,-0.0343486471045059));
#1237=CARTESIAN_POINT('',(-0.003,-0.0611945776330988,-0.0343486471045059));
#1238=CARTESIAN_POINT('',(-0.003,-0.116500385761716,-0.0258218348572162));
#1239=CARTESIAN_POINT('',(-0.003,-0.146050000000005,-0.0147763529403626));
#1240=CARTESIAN_POINT('',(-0.00300000000000001,-0.14605,-0.0239533580995957));
#1241=CARTESIAN_POINT('',(-0.00300000000000001,-0.144948731386982,-0.0243878540999058));
#1242=CARTESIAN_POINT('',(-0.00300000000000001,-0.143842461009471,-0.0248103904446744));
#1243=CARTESIAN_POINT('',(-0.00300000000000001,-0.142731709676053,-0.0252222124326952));
#1244=CARTESIAN_POINT('',(-0.00287732084032293,-0.142731709676053,-0.0252365018332939));
#1245=CARTESIAN_POINT('',(-0.00997724221034126,-0.142731709676053,-0.024427009620088));
#1246=CARTESIAN_POINT('',(-0.0161657897643125,-0.142731709676053,-0.0208540500239099));
#1247=CARTESIAN_POINT('',(-0.0204167912701236,-0.142731709676053,-0.015110083859205));
#1248=CARTESIAN_POINT('',(-0.00283026045997508,-0.143860098323467,-0.0248237430758135));
#1249=CARTESIAN_POINT('',(-0.00981405817932834,-0.143860098323467,-0.0240274906135968));
#1250=CARTESIAN_POINT('',(-0.0159013881709028,-0.143860098323467,-0.0205129690043152));
#1251=CARTESIAN_POINT('',(-0.020082861890685,-0.143860098323467,-0.0148629489955718));
#1252=CARTESIAN_POINT('',(-0.00278269190907205,-0.14496653996168,-0.0244065272390364));
#1253=CARTESIAN_POINT('',(-0.00964911204356784,-0.14496653996168,-0.0236236574941761));
#1254=CARTESIAN_POINT('',(-0.0156341314984752,-0.14496653996168,-0.0201682049007802));
#1255=CARTESIAN_POINT('',(-0.0197453266526264,-0.14496653996168,-0.01461314550368));
#1256=CARTESIAN_POINT('',(-0.00273464335975697,-0.14605,-0.0239851014161376));
#1257=CARTESIAN_POINT('',(-0.00948250149126033,-0.14605,-0.0232157494291794));
#1258=CARTESIAN_POINT('',(-0.0153641780279333,-0.14605,-0.019819961897445));
#1259=CARTESIAN_POINT('',(-0.0194043854588428,-0.14605,-0.0143608213279087));
#1260=CARTESIAN_POINT('',(-0.0232941121104465,-0.142731709676053,-0.0101264179740889));
#1261=CARTESIAN_POINT('',(-0.0261430319746537,-0.142731709676053,-0.00357295959617807));
#1262=CARTESIAN_POINT('',(-0.0261430319746537,-0.142731709676053,0.00357295959617805));
#1263=CARTESIAN_POINT('',(-0.0232941121104465,-0.142731709676053,0.0101264179740889));
#1264=CARTESIAN_POINT('',(-0.0229131223506601,-0.143860098323467,-0.00996079408024168));
#1265=CARTESIAN_POINT('',(-0.0257154463502312,-0.143860098323467,-0.00351452160928162));
#1266=CARTESIAN_POINT('',(-0.0257154463502312,-0.143860098323467,0.00351452160928161));
#1267=CARTESIAN_POINT('',(-0.0229131223506601,-0.143860098323467,0.00996079408024167));
#1268=CARTESIAN_POINT('',(-0.0225280185616985,-0.14496653996168,-0.00979338173535639));
#1269=CARTESIAN_POINT('',(-0.0252832435420431,-0.14496653996168,-0.00345545259339593));
#1270=CARTESIAN_POINT('',(-0.0252832435420431,-0.14496653996168,0.00345545259339593));
#1271=CARTESIAN_POINT('',(-0.0225280185616985,-0.14496653996168,0.00979338173535639));
#1272=CARTESIAN_POINT('',(-0.0221390288185997,-0.14605,-0.0096242800882288));
#1273=CARTESIAN_POINT('',(-0.0248466795191936,-0.14605,-0.00339578753173444));
#1274=CARTESIAN_POINT('',(-0.0248466795191936,-0.14605,0.00339578753173443));
#1275=CARTESIAN_POINT('',(-0.0221390288185997,-0.14605,0.00962428008822879));
#1276=CARTESIAN_POINT('',(-0.0204167912701236,-0.142731709676053,0.015110083859205));
#1277=CARTESIAN_POINT('',(-0.0161657897643125,-0.142731709676053,0.0208540500239099));
#1278=CARTESIAN_POINT('',(-0.00997724221034127,-0.142731709676053,0.024427009620088));
#1279=CARTESIAN_POINT('',(-0.00287732084032294,-0.142731709676053,0.0252365018332939));
#1280=CARTESIAN_POINT('',(-0.020082861890685,-0.143860098323467,0.0148629489955718));
#1281=CARTESIAN_POINT('',(-0.0159013881709029,-0.143860098323467,0.0205129690043152));
#1282=CARTESIAN_POINT('',(-0.00981405817932836,-0.143860098323467,0.0240274906135968));
#1283=CARTESIAN_POINT('',(-0.00283026045997508,-0.143860098323467,0.0248237430758135));
#1284=CARTESIAN_POINT('',(-0.0197453266526264,-0.14496653996168,0.01461314550368));
#1285=CARTESIAN_POINT('',(-0.0156341314984753,-0.14496653996168,0.0201682049007802));
#1286=CARTESIAN_POINT('',(-0.00964911204356786,-0.14496653996168,0.0236236574941761));
#1287=CARTESIAN_POINT('',(-0.00278269190907206,-0.14496653996168,0.0244065272390364));
#1288=CARTESIAN_POINT('',(-0.0194043854588428,-0.14605,0.0143608213279087));
#1289=CARTESIAN_POINT('',(-0.0153641780279333,-0.14605,0.019819961897445));
#1290=CARTESIAN_POINT('',(-0.00948250149126035,-0.14605,0.0232157494291794));
#1291=CARTESIAN_POINT('',(-0.00273464335975698,-0.14605,0.0239851014161375));
#1292=CARTESIAN_POINT('',(-0.003,-0.139699999999997,-0.0169859181977965));
#1293=CARTESIAN_POINT('',(-0.000263586280437727,-0.139699999999997,-0.0169859181977965));
#1294=CARTESIAN_POINT('',(-0.003,-0.141925612183747,-0.0162622167828768));
#1295=CARTESIAN_POINT('',(-0.000263586280437727,-0.141925612183747,-0.0162622167828768));
#1296=CARTESIAN_POINT('',(-0.003,-0.144046978504715,-0.015525071266324));
#1297=CARTESIAN_POINT('',(-0.000263586280437727,-0.144046978504715,-0.015525071266324));
#1298=CARTESIAN_POINT('',(-0.003,-0.146050000000005,-0.0147763529403626));
#1299=CARTESIAN_POINT('',(-0.000263586280437727,-0.146050000000005,-0.0147763529403626));
#1300=CARTESIAN_POINT('',(-0.000263586280437725,-0.139699999999997,0.0169859181977965));
#1301=CARTESIAN_POINT('',(-0.003,-0.139699999999997,0.0169859181977965));
#1302=CARTESIAN_POINT('',(-0.000263586280437725,-0.141925612183747,0.0162622167828768));
#1303=CARTESIAN_POINT('',(-0.003,-0.141925612183747,0.0162622167828768));
#1304=CARTESIAN_POINT('',(-0.000263586280437725,-0.144046978504715,0.015525071266324));
#1305=CARTESIAN_POINT('',(-0.003,-0.144046978504715,0.015525071266324));
#1306=CARTESIAN_POINT('',(-0.000263586280437725,-0.146050000000005,0.0147763529403626));
#1307=CARTESIAN_POINT('',(-0.003,-0.146050000000005,0.0147763529403626));
#1308=CARTESIAN_POINT('',(0.003,-0.139699999999997,0.0169859181977965));
#1309=CARTESIAN_POINT('',(0.000263586280437725,-0.139699999999997,0.0169859181977965));
#1310=CARTESIAN_POINT('',(0.003,-0.141925612183747,0.0162622167828768));
#1311=CARTESIAN_POINT('',(0.000263586280437725,-0.141925612183747,0.0162622167828768));
#1312=CARTESIAN_POINT('',(0.003,-0.144046978504715,0.015525071266324));
#1313=CARTESIAN_POINT('',(0.000263586280437725,-0.144046978504715,0.015525071266324));
#1314=CARTESIAN_POINT('',(0.003,-0.146050000000005,0.0147763529403626));
#1315=CARTESIAN_POINT('',(0.000263586280437725,-0.146050000000005,0.0147763529403626));
#1316=CARTESIAN_POINT('',(0.003,-0.0254,0.0343486471045059));
#1317=CARTESIAN_POINT('',(0.003,-0.0611945776330988,0.0343486471045059));
#1318=CARTESIAN_POINT('',(0.003,-0.116500385761716,0.0258218348572162));
#1319=CARTESIAN_POINT('',(0.003,-0.146050000000005,0.0147763529403626));
#1320=CARTESIAN_POINT('',(0.0162102366656675,-0.139700000000809,0.00589488288741289));
#1321=CARTESIAN_POINT('',(0.0132102366656675,-0.139700000000809,0.0110910353101195));
#1322=CARTESIAN_POINT('',(0.0155834928556656,-0.141925612184263,0.0055330321799954));
#1323=CARTESIAN_POINT('',(0.0125834928556656,-0.141925612184263,0.010729184602702));
#1324=CARTESIAN_POINT('',(0.0149451061121216,-0.144046978504958,0.00516445942176314));
#1325=CARTESIAN_POINT('',(0.0119451061121216,-0.144046978504958,0.0103606118444698));
#1326=CARTESIAN_POINT('',(0.0142966970216389,-0.146050000000005,0.00479010025882798));
#1327=CARTESIAN_POINT('',(0.0112966970216389,-0.146050000000005,0.00998625268153462));
#1328=CARTESIAN_POINT('',(0.028246800978129,-0.0254,0.0197723997636063));
#1329=CARTESIAN_POINT('',(0.028246800978129,-0.0611945776330988,0.0197723997636063));
#1330=CARTESIAN_POINT('',(0.0208623649586758,-0.116500385761716,0.0155089936399614));
#1331=CARTESIAN_POINT('',(0.0112966970216389,-0.146050000000005,0.00998625268153461));
#1332=CARTESIAN_POINT('',(0.031246800978129,-0.0254,0.0145762473408996));
#1333=CARTESIAN_POINT('',(0.031246800978129,-0.0611945776330988,0.0145762473408996));
#1334=CARTESIAN_POINT('',(0.0238623649586758,-0.116500385761716,0.0103128412172548));
#1335=CARTESIAN_POINT('',(0.0142966970216389,-0.146050000000005,0.00479010025882798));
#1336=CARTESIAN_POINT('',(0.0132102366656675,-0.139700000000809,-0.0110910353101195));
#1337=CARTESIAN_POINT('',(0.0162102366656675,-0.139700000000809,-0.00589488288741293));
#1338=CARTESIAN_POINT('',(0.0125834928556656,-0.141925612184263,-0.0107291846027021));
#1339=CARTESIAN_POINT('',(0.0155834928556656,-0.141925612184263,-0.00553303217999544));
#1340=CARTESIAN_POINT('',(0.0119451061121216,-0.144046978504958,-0.0103606118444698));
#1341=CARTESIAN_POINT('',(0.0149451061121216,-0.144046978504958,-0.00516445942176318));
#1342=CARTESIAN_POINT('',(0.0112966970216389,-0.146050000000005,-0.00998625268153463));
#1343=CARTESIAN_POINT('',(0.0142966970216389,-0.146050000000005,-0.00479010025882802));
#1344=CARTESIAN_POINT('',(0.0312468009781289,-0.0254,-0.0145762473408997));
#1345=CARTESIAN_POINT('',(0.0312468009781289,-0.0611945776330988,-0.0145762473408997));
#1346=CARTESIAN_POINT('',(0.0238623649586757,-0.116500385761716,-0.0103128412172548));
#1347=CARTESIAN_POINT('',(0.0142966970216389,-0.146050000000005,-0.004790100258828));
#1348=CARTESIAN_POINT('',(0.0282468009781289,-0.0254,-0.0197723997636063));
#1349=CARTESIAN_POINT('',(0.0282468009781289,-0.0611945776330988,-0.0197723997636063));
#1350=CARTESIAN_POINT('',(0.0208623649586758,-0.116500385761716,-0.0155089936399615));
#1351=CARTESIAN_POINT('',(0.0112966970216389,-0.146050000000005,-0.00998625268153463));
#1352=CARTESIAN_POINT('',(0.000263586280437728,-0.139699999999997,-0.0169859181977965));
#1353=CARTESIAN_POINT('',(0.003,-0.139699999999997,-0.0169859181977965));
#1354=CARTESIAN_POINT('',(0.000263586280437728,-0.141925612183747,-0.0162622167828768));
#1355=CARTESIAN_POINT('',(0.003,-0.141925612183747,-0.0162622167828768));
#1356=CARTESIAN_POINT('',(0.000263586280437728,-0.144046978504715,-0.015525071266324));
#1357=CARTESIAN_POINT('',(0.003,-0.144046978504715,-0.015525071266324));
#1358=CARTESIAN_POINT('',(0.000263586280437728,-0.146050000000005,-0.0147763529403626));
#1359=CARTESIAN_POINT('',(0.003,-0.146050000000005,-0.0147763529403626));
#1360=CARTESIAN_POINT('',(0.003,-0.0254,-0.0343486471045059));
#1361=CARTESIAN_POINT('',(0.003,-0.0611945776330988,-0.0343486471045059));
#1362=CARTESIAN_POINT('',(0.003,-0.116500385761716,-0.0258218348572162));
#1363=CARTESIAN_POINT('',(0.003,-0.146050000000005,-0.0147763529403626));
#1364=CARTESIAN_POINT('',(0.0204167912701236,-0.142731709676053,-0.015110083859205));
#1365=CARTESIAN_POINT('',(0.0161657897643124,-0.142731709676053,-0.0208540500239099));
#1366=CARTESIAN_POINT('',(0.00997724221034123,-0.142731709676053,-0.024427009620088));
#1367=CARTESIAN_POINT('',(0.00287732084032294,-0.142731709676053,-0.0252365018332939));
#1368=CARTESIAN_POINT('',(0.020082861890685,-0.143860098323467,-0.0148629489955718));
#1369=CARTESIAN_POINT('',(0.0159013881709028,-0.143860098323467,-0.0205129690043152));
#1370=CARTESIAN_POINT('',(0.00981405817932833,-0.143860098323467,-0.0240274906135968));
#1371=CARTESIAN_POINT('',(0.00283026045997508,-0.143860098323467,-0.0248237430758135));
#1372=CARTESIAN_POINT('',(0.0197453266526264,-0.14496653996168,-0.0146131455036801));
#1373=CARTESIAN_POINT('',(0.0156341314984752,-0.14496653996168,-0.0201682049007802));
#1374=CARTESIAN_POINT('',(0.00964911204356782,-0.14496653996168,-0.0236236574941761));
#1375=CARTESIAN_POINT('',(0.00278269190907205,-0.14496653996168,-0.0244065272390364));
#1376=CARTESIAN_POINT('',(0.0194043854588427,-0.14605,-0.0143608213279088));
#1377=CARTESIAN_POINT('',(0.0153641780279333,-0.14605,-0.019819961897445));
#1378=CARTESIAN_POINT('',(0.00948250149126031,-0.14605,-0.0232157494291794));
#1379=CARTESIAN_POINT('',(0.00273464335975697,-0.14605,-0.0239851014161375));
#1380=CARTESIAN_POINT('',(0.0192442166201956,-0.14605,-0.0145747552611512));
#1381=CARTESIAN_POINT('',(0.0196205011943069,-0.144948731386982,-0.0147920032613062));
#1382=CARTESIAN_POINT('',(0.0199864284028987,-0.143842461009471,-0.0150032714336905));
#1383=CARTESIAN_POINT('',(0.0203430767063617,-0.142731709676053,-0.0152091824277009));
#1384=CARTESIAN_POINT('',(0.00299999999999999,-0.14605,-0.0239533580995957));
#1385=CARTESIAN_POINT('',(0.00299999999999999,-0.144948731386982,-0.0243878540999058));
#1386=CARTESIAN_POINT('',(0.00299999999999999,-0.143842461009472,-0.0248103904446744));
#1387=CARTESIAN_POINT('',(0.00299999999999999,-0.142731709676054,-0.0252222124326951));
#1388=CARTESIAN_POINT('',(0.0232941121104465,-0.142731709676053,0.0101264179740889));
#1389=CARTESIAN_POINT('',(0.0261430319746537,-0.142731709676053,0.00357295959617805));
#1390=CARTESIAN_POINT('',(0.0261430319746537,-0.142731709676053,-0.00357295959617807));
#1391=CARTESIAN_POINT('',(0.0232941121104465,-0.142731709676053,-0.0101264179740889));
#1392=CARTESIAN_POINT('',(0.0229131223506601,-0.143860098323467,0.00996079408024167));
#1393=CARTESIAN_POINT('',(0.0257154463502312,-0.143860098323467,0.00351452160928161));
#1394=CARTESIAN_POINT('',(0.0257154463502312,-0.143860098323467,-0.00351452160928162));
#1395=CARTESIAN_POINT('',(0.0229131223506601,-0.143860098323467,-0.00996079408024169));
#1396=CARTESIAN_POINT('',(0.0225280185616985,-0.14496653996168,0.00979338173535639));
#1397=CARTESIAN_POINT('',(0.0252832435420431,-0.14496653996168,0.00345545259339592));
#1398=CARTESIAN_POINT('',(0.0252832435420431,-0.14496653996168,-0.00345545259339594));
#1399=CARTESIAN_POINT('',(0.0225280185616985,-0.14496653996168,-0.0097933817353564));
#1400=CARTESIAN_POINT('',(0.0221390288185997,-0.14605,0.00962428008822879));
#1401=CARTESIAN_POINT('',(0.0248466795191936,-0.14605,0.00339578753173443));
#1402=CARTESIAN_POINT('',(0.0248466795191936,-0.14605,-0.00339578753173445));
#1403=CARTESIAN_POINT('',(0.0221390288185997,-0.14605,-0.00962428008822881));
#1404=CARTESIAN_POINT('',(0.0222442166201956,-0.14605,0.00937860283844454));
#1405=CARTESIAN_POINT('',(0.0226205011943069,-0.144948731386982,0.00959585083859958));
#1406=CARTESIAN_POINT('',(0.0229864284028987,-0.143842461009471,0.00980711901098389));
#1407=CARTESIAN_POINT('',(0.0233430767063617,-0.142731709676053,0.0100130300049943));
#1408=CARTESIAN_POINT('',(0.0222442166201956,-0.14605,-0.00937860283844455));
#1409=CARTESIAN_POINT('',(0.0226205011943069,-0.144948731386982,-0.0095958508385996));
#1410=CARTESIAN_POINT('',(0.0229864284028987,-0.143842461009471,-0.0098071190109839));
#1411=CARTESIAN_POINT('',(0.0233430767063617,-0.142731709676053,-0.0100130300049943));
#1412=CARTESIAN_POINT('',(0.00287732084032293,-0.142731709676054,0.0252365018332938));
#1413=CARTESIAN_POINT('',(0.00997724221034124,-0.142731709676054,0.0244270096200879));
#1414=CARTESIAN_POINT('',(0.0161657897643124,-0.142731709676054,0.0208540500239099));
#1415=CARTESIAN_POINT('',(0.0204167912701236,-0.142731709676054,0.0151100838592049));
#1416=CARTESIAN_POINT('',(0.00283026045997508,-0.143860098323467,0.0248237430758134));
#1417=CARTESIAN_POINT('',(0.00981405817932834,-0.143860098323467,0.0240274906135968));
#1418=CARTESIAN_POINT('',(0.0159013881709028,-0.143860098323467,0.0205129690043152));
#1419=CARTESIAN_POINT('',(0.020082861890685,-0.143860098323467,0.0148629489955717));
#1420=CARTESIAN_POINT('',(0.00278269190907205,-0.14496653996168,0.0244065272390364));
#1421=CARTESIAN_POINT('',(0.00964911204356784,-0.14496653996168,0.0236236574941761));
#1422=CARTESIAN_POINT('',(0.0156341314984752,-0.14496653996168,0.0201682049007801));
#1423=CARTESIAN_POINT('',(0.0197453266526264,-0.14496653996168,0.01461314550368));
#1424=CARTESIAN_POINT('',(0.00273464335975697,-0.14605,0.0239851014161375));
#1425=CARTESIAN_POINT('',(0.00948250149126033,-0.14605,0.0232157494291794));
#1426=CARTESIAN_POINT('',(0.0153641780279333,-0.14605,0.0198199618974449));
#1427=CARTESIAN_POINT('',(0.0194043854588428,-0.14605,0.0143608213279087));
#1428=CARTESIAN_POINT('',(0.003,-0.14605,0.0239533580995957));
#1429=CARTESIAN_POINT('',(0.003,-0.144948731386982,0.0243878540999058));
#1430=CARTESIAN_POINT('',(0.003,-0.143842461009471,0.0248103904446744));
#1431=CARTESIAN_POINT('',(0.003,-0.142731709676054,0.0252222124326951));
#1432=CARTESIAN_POINT('',(0.0192442166201956,-0.14605,0.0145747552611512));
#1433=CARTESIAN_POINT('',(0.0196205011943069,-0.144948731386982,0.0147920032613062));
#1434=CARTESIAN_POINT('',(0.0199864284028987,-0.143842461009471,0.0150032714336905));
#1435=CARTESIAN_POINT('',(0.0203430767063617,-0.142731709676054,0.0152091824277009));
#1436=CARTESIAN_POINT('',(0.003,-0.0889,0.));
#1437=CARTESIAN_POINT('',(0.0015,-0.0889,-0.00259807621135332));
#1438=CARTESIAN_POINT('',(-0.0015,-0.0889,0.00259807621135332));
#1439=CARTESIAN_POINT('',(-0.0015,-0.0889,-0.00259807621135332));
#1440=CARTESIAN_POINT('',(0.0015,-0.0889,0.00259807621135332));
#1441=CARTESIAN_POINT('',(0.003,-0.0889,-3.67394039744206E-19));
#1442=MECHANICAL_DESIGN_GEOMETRIC_PRESENTATION_REPRESENTATION('',(#745),
#1443);
#1443=(
GEOMETRIC_REPRESENTATION_CONTEXT(3)
GLOBAL_UNCERTAINTY_ASSIGNED_CONTEXT((#1444))
GLOBAL_UNIT_ASSIGNED_CONTEXT((#1447,#1446,#1445))
REPRESENTATION_CONTEXT('Motor Mount','TOP_LEVEL_ASSEMBLY_PART')
);
#1444=UNCERTAINTY_MEASURE_WITH_UNIT(LENGTH_MEASURE(2.E-5),#1447,
'DISTANCE_ACCURACY_VALUE','Maximum Tolerance applied to model');
#1445=(
NAMED_UNIT(*)
SI_UNIT($,.STERADIAN.)
SOLID_ANGLE_UNIT()
);
#1446=(
NAMED_UNIT(*)
PLANE_ANGLE_UNIT()
SI_UNIT($,.RADIAN.)
);
#1447=(
LENGTH_UNIT()
NAMED_UNIT(*)
SI_UNIT($,.METRE.)
);
#1448=PRODUCT_DEFINITION_SHAPE('','',#1449);
#1449=PRODUCT_DEFINITION('','',#1451,#1450);
#1450=PRODUCT_DEFINITION_CONTEXT('',#1457,'design');
#1451=PRODUCT_DEFINITION_FORMATION_WITH_SPECIFIED_SOURCE('','',#1453,
 .NOT_KNOWN.);
#1452=PRODUCT_RELATED_PRODUCT_CATEGORY('','',(#1453));
#1453=PRODUCT('Motor Mount','Motor Mount','Motor Mount',(#1455));
#1454=PRODUCT_CATEGORY('','');
#1455=PRODUCT_CONTEXT('',#1457,'mechanical');
#1456=APPLICATION_PROTOCOL_DEFINITION('international standard',
'ap242_managed_model_based_3d_engineering',2020,#1457);
#1457=APPLICATION_CONTEXT('managed model based 3d engineering');
ENDSEC;
END-ISO-10303-21;
