ISO-10303-21;
HEADER;
/* Generated by software containing ST-Developer
 * from STEP Tools, Inc. (www.steptools.com) 
 */
/* OPTION: using custom renumber hook */

FILE_DESCRIPTION(
/* description */ ('STEP AP242 Edition 2',
'CAx-IF Rec.Pracs.---Representation and Presentation of Product Manufa
cturing Information (PMI)---4.0---2014-10-13',
'CAx-IF Rec.Pracs.---3D Tessellated Geometry---0.4---2014-09-14','2;1',
'CAx-IF Rec.Pracs.---User Defined Attributes---1.5---2016-08-15'),
/* implementation_level */ '2;1');

FILE_NAME(
/* name */ 'Hinge Bars - Hinge Bar Notched',
/* time_stamp */ '2026-08-24T02:48:44Z',
/* author */ (''),
/* organization */ (''),
/* preprocessor_version */ 'ST-DEVELOPER v20',
/* originating_system */ 'ONSHAPE BY PTC INC, 1.219',
/* authorisation */ '  ');

FILE_SCHEMA (('AP242_MANAGED_MODEL_BASED_3D_ENGINEERING_MIM_LF { 1 0 10303 442 3 1 4 }'));
ENDSEC;

DATA;
#10=SHAPE_REPRESENTATION_RELATIONSHIP('','',#319,#11);
#11=ADVANCED_BREP_SHAPE_REPRESENTATION('',(#317),#513);
#12=CIRCLE('',#324,0.00635);
#13=CIRCLE('',#325,0.00635);
#14=CIRCLE('',#332,0.00635);
#15=CIRCLE('',#333,0.00635);
#16=CIRCLE('',#337,0.0015);
#17=CIRCLE('',#338,0.0015);
#18=CIRCLE('',#341,0.0015);
#19=CIRCLE('',#342,0.0015);
#20=CYLINDRICAL_SURFACE('',#323,0.00635);
#21=CYLINDRICAL_SURFACE('',#331,0.00635);
#22=CYLINDRICAL_SURFACE('',#336,0.0015);
#23=CYLINDRICAL_SURFACE('',#340,0.0015);
#24=ORIENTED_EDGE('',*,*,#104,.F.);
#25=ORIENTED_EDGE('',*,*,#105,.F.);
#26=ORIENTED_EDGE('',*,*,#106,.T.);
#27=ORIENTED_EDGE('',*,*,#107,.T.);
#28=ORIENTED_EDGE('',*,*,#108,.F.);
#29=ORIENTED_EDGE('',*,*,#109,.F.);
#30=ORIENTED_EDGE('',*,*,#110,.T.);
#31=ORIENTED_EDGE('',*,*,#105,.T.);
#32=ORIENTED_EDGE('',*,*,#111,.T.);
#33=ORIENTED_EDGE('',*,*,#112,.F.);
#34=ORIENTED_EDGE('',*,*,#113,.F.);
#35=ORIENTED_EDGE('',*,*,#109,.T.);
#36=ORIENTED_EDGE('',*,*,#114,.T.);
#37=ORIENTED_EDGE('',*,*,#115,.F.);
#38=ORIENTED_EDGE('',*,*,#116,.F.);
#39=ORIENTED_EDGE('',*,*,#112,.T.);
#40=ORIENTED_EDGE('',*,*,#117,.F.);
#41=ORIENTED_EDGE('',*,*,#118,.F.);
#42=ORIENTED_EDGE('',*,*,#119,.T.);
#43=ORIENTED_EDGE('',*,*,#115,.T.);
#44=ORIENTED_EDGE('',*,*,#120,.F.);
#45=ORIENTED_EDGE('',*,*,#121,.F.);
#46=ORIENTED_EDGE('',*,*,#122,.T.);
#47=ORIENTED_EDGE('',*,*,#118,.T.);
#48=ORIENTED_EDGE('',*,*,#123,.F.);
#49=ORIENTED_EDGE('',*,*,#124,.F.);
#50=ORIENTED_EDGE('',*,*,#125,.T.);
#51=ORIENTED_EDGE('',*,*,#121,.T.);
#52=ORIENTED_EDGE('',*,*,#126,.T.);
#53=ORIENTED_EDGE('',*,*,#127,.F.);
#54=ORIENTED_EDGE('',*,*,#128,.F.);
#55=ORIENTED_EDGE('',*,*,#124,.T.);
#56=ORIENTED_EDGE('',*,*,#129,.T.);
#57=ORIENTED_EDGE('',*,*,#130,.F.);
#58=ORIENTED_EDGE('',*,*,#131,.F.);
#59=ORIENTED_EDGE('',*,*,#127,.T.);
#60=ORIENTED_EDGE('',*,*,#132,.F.);
#61=ORIENTED_EDGE('',*,*,#133,.F.);
#62=ORIENTED_EDGE('',*,*,#134,.T.);
#63=ORIENTED_EDGE('',*,*,#130,.T.);
#64=ORIENTED_EDGE('',*,*,#135,.F.);
#65=ORIENTED_EDGE('',*,*,#136,.F.);
#66=ORIENTED_EDGE('',*,*,#137,.T.);
#67=ORIENTED_EDGE('',*,*,#133,.T.);
#68=ORIENTED_EDGE('',*,*,#138,.T.);
#69=ORIENTED_EDGE('',*,*,#139,.F.);
#70=ORIENTED_EDGE('',*,*,#140,.T.);
#71=ORIENTED_EDGE('',*,*,#107,.F.);
#72=ORIENTED_EDGE('',*,*,#141,.F.);
#73=ORIENTED_EDGE('',*,*,#136,.T.);
#74=ORIENTED_EDGE('',*,*,#142,.T.);
#75=ORIENTED_EDGE('',*,*,#143,.F.);
#76=ORIENTED_EDGE('',*,*,#106,.F.);
#77=ORIENTED_EDGE('',*,*,#110,.F.);
#78=ORIENTED_EDGE('',*,*,#113,.T.);
#79=ORIENTED_EDGE('',*,*,#116,.T.);
#80=ORIENTED_EDGE('',*,*,#119,.F.);
#81=ORIENTED_EDGE('',*,*,#122,.F.);
#82=ORIENTED_EDGE('',*,*,#125,.F.);
#83=ORIENTED_EDGE('',*,*,#128,.T.);
#84=ORIENTED_EDGE('',*,*,#131,.T.);
#85=ORIENTED_EDGE('',*,*,#134,.F.);
#86=ORIENTED_EDGE('',*,*,#137,.F.);
#87=ORIENTED_EDGE('',*,*,#141,.T.);
#88=ORIENTED_EDGE('',*,*,#138,.F.);
#89=ORIENTED_EDGE('',*,*,#142,.F.);
#90=ORIENTED_EDGE('',*,*,#104,.T.);
#91=ORIENTED_EDGE('',*,*,#140,.F.);
#92=ORIENTED_EDGE('',*,*,#135,.T.);
#93=ORIENTED_EDGE('',*,*,#132,.T.);
#94=ORIENTED_EDGE('',*,*,#129,.F.);
#95=ORIENTED_EDGE('',*,*,#126,.F.);
#96=ORIENTED_EDGE('',*,*,#123,.T.);
#97=ORIENTED_EDGE('',*,*,#120,.T.);
#98=ORIENTED_EDGE('',*,*,#117,.T.);
#99=ORIENTED_EDGE('',*,*,#114,.F.);
#100=ORIENTED_EDGE('',*,*,#111,.F.);
#101=ORIENTED_EDGE('',*,*,#108,.T.);
#102=ORIENTED_EDGE('',*,*,#139,.T.);
#103=ORIENTED_EDGE('',*,*,#143,.T.);
#104=EDGE_CURVE('',#144,#145,#172,.T.);
#105=EDGE_CURVE('',#146,#144,#173,.T.);
#106=EDGE_CURVE('',#146,#147,#174,.T.);
#107=EDGE_CURVE('',#147,#145,#175,.T.);
#108=EDGE_CURVE('',#148,#144,#176,.T.);
#109=EDGE_CURVE('',#149,#148,#177,.T.);
#110=EDGE_CURVE('',#149,#146,#178,.T.);
#111=EDGE_CURVE('',#148,#150,#12,.T.);
#112=EDGE_CURVE('',#151,#150,#179,.T.);
#113=EDGE_CURVE('',#149,#151,#13,.T.);
#114=EDGE_CURVE('',#150,#152,#180,.T.);
#115=EDGE_CURVE('',#153,#152,#181,.T.);
#116=EDGE_CURVE('',#151,#153,#182,.T.);
#117=EDGE_CURVE('',#154,#152,#183,.T.);
#118=EDGE_CURVE('',#155,#154,#184,.T.);
#119=EDGE_CURVE('',#155,#153,#185,.T.);
#120=EDGE_CURVE('',#156,#154,#186,.T.);
#121=EDGE_CURVE('',#157,#156,#187,.T.);
#122=EDGE_CURVE('',#157,#155,#188,.T.);
#123=EDGE_CURVE('',#158,#156,#189,.T.);
#124=EDGE_CURVE('',#159,#158,#190,.T.);
#125=EDGE_CURVE('',#159,#157,#191,.T.);
#126=EDGE_CURVE('',#158,#160,#192,.T.);
#127=EDGE_CURVE('',#161,#160,#193,.T.);
#128=EDGE_CURVE('',#159,#161,#194,.T.);
#129=EDGE_CURVE('',#160,#162,#14,.T.);
#130=EDGE_CURVE('',#163,#162,#195,.T.);
#131=EDGE_CURVE('',#161,#163,#15,.T.);
#132=EDGE_CURVE('',#164,#162,#196,.T.);
#133=EDGE_CURVE('',#165,#164,#197,.T.);
#134=EDGE_CURVE('',#165,#163,#198,.T.);
#135=EDGE_CURVE('',#166,#164,#199,.T.);
#136=EDGE_CURVE('',#167,#166,#200,.T.);
#137=EDGE_CURVE('',#167,#165,#201,.T.);
#138=EDGE_CURVE('',#168,#168,#16,.T.);
#139=EDGE_CURVE('',#169,#169,#17,.T.);
#140=EDGE_CURVE('',#166,#145,#202,.T.);
#141=EDGE_CURVE('',#167,#147,#203,.T.);
#142=EDGE_CURVE('',#170,#170,#18,.T.);
#143=EDGE_CURVE('',#171,#171,#19,.T.);
#144=VERTEX_POINT('',#430);
#145=VERTEX_POINT('',#431);
#146=VERTEX_POINT('',#433);
#147=VERTEX_POINT('',#435);
#148=VERTEX_POINT('',#439);
#149=VERTEX_POINT('',#441);
#150=VERTEX_POINT('',#445);
#151=VERTEX_POINT('',#447);
#152=VERTEX_POINT('',#451);
#153=VERTEX_POINT('',#453);
#154=VERTEX_POINT('',#457);
#155=VERTEX_POINT('',#459);
#156=VERTEX_POINT('',#463);
#157=VERTEX_POINT('',#465);
#158=VERTEX_POINT('',#469);
#159=VERTEX_POINT('',#471);
#160=VERTEX_POINT('',#475);
#161=VERTEX_POINT('',#477);
#162=VERTEX_POINT('',#481);
#163=VERTEX_POINT('',#483);
#164=VERTEX_POINT('',#487);
#165=VERTEX_POINT('',#489);
#166=VERTEX_POINT('',#493);
#167=VERTEX_POINT('',#495);
#168=VERTEX_POINT('',#499);
#169=VERTEX_POINT('',#501);
#170=VERTEX_POINT('',#507);
#171=VERTEX_POINT('',#509);
#172=LINE('',#429,#204);
#173=LINE('',#432,#205);
#174=LINE('',#434,#206);
#175=LINE('',#436,#207);
#176=LINE('',#438,#208);
#177=LINE('',#440,#209);
#178=LINE('',#442,#210);
#179=LINE('',#446,#211);
#180=LINE('',#450,#212);
#181=LINE('',#452,#213);
#182=LINE('',#454,#214);
#183=LINE('',#456,#215);
#184=LINE('',#458,#216);
#185=LINE('',#460,#217);
#186=LINE('',#462,#218);
#187=LINE('',#464,#219);
#188=LINE('',#466,#220);
#189=LINE('',#468,#221);
#190=LINE('',#470,#222);
#191=LINE('',#472,#223);
#192=LINE('',#474,#224);
#193=LINE('',#476,#225);
#194=LINE('',#478,#226);
#195=LINE('',#482,#227);
#196=LINE('',#486,#228);
#197=LINE('',#488,#229);
#198=LINE('',#490,#230);
#199=LINE('',#492,#231);
#200=LINE('',#494,#232);
#201=LINE('',#496,#233);
#202=LINE('',#503,#234);
#203=LINE('',#504,#235);
#204=VECTOR('',#349,1.);
#205=VECTOR('',#350,1.);
#206=VECTOR('',#351,1.);
#207=VECTOR('',#352,1.);
#208=VECTOR('',#355,1.);
#209=VECTOR('',#356,1.);
#210=VECTOR('',#357,1.);
#211=VECTOR('',#362,1.);
#212=VECTOR('',#367,1.);
#213=VECTOR('',#368,1.);
#214=VECTOR('',#369,1.);
#215=VECTOR('',#372,1.);
#216=VECTOR('',#373,1.);
#217=VECTOR('',#374,1.);
#218=VECTOR('',#377,1.);
#219=VECTOR('',#378,1.);
#220=VECTOR('',#379,1.);
#221=VECTOR('',#382,1.);
#222=VECTOR('',#383,1.);
#223=VECTOR('',#384,1.);
#224=VECTOR('',#387,1.);
#225=VECTOR('',#388,1.);
#226=VECTOR('',#389,1.);
#227=VECTOR('',#394,1.);
#228=VECTOR('',#399,1.);
#229=VECTOR('',#400,1.);
#230=VECTOR('',#401,1.);
#231=VECTOR('',#404,1.);
#232=VECTOR('',#405,1.);
#233=VECTOR('',#406,1.);
#234=VECTOR('',#415,1.);
#235=VECTOR('',#416,1.);
#236=EDGE_LOOP('',(#24,#25,#26,#27));
#237=EDGE_LOOP('',(#28,#29,#30,#31));
#238=EDGE_LOOP('',(#32,#33,#34,#35));
#239=EDGE_LOOP('',(#36,#37,#38,#39));
#240=EDGE_LOOP('',(#40,#41,#42,#43));
#241=EDGE_LOOP('',(#44,#45,#46,#47));
#242=EDGE_LOOP('',(#48,#49,#50,#51));
#243=EDGE_LOOP('',(#52,#53,#54,#55));
#244=EDGE_LOOP('',(#56,#57,#58,#59));
#245=EDGE_LOOP('',(#60,#61,#62,#63));
#246=EDGE_LOOP('',(#64,#65,#66,#67));
#247=EDGE_LOOP('',(#68));
#248=EDGE_LOOP('',(#69));
#249=EDGE_LOOP('',(#70,#71,#72,#73));
#250=EDGE_LOOP('',(#74));
#251=EDGE_LOOP('',(#75));
#252=EDGE_LOOP('',(#76,#77,#78,#79,#80,#81,#82,#83,#84,#85,#86,#87));
#253=EDGE_LOOP('',(#88));
#254=EDGE_LOOP('',(#89));
#255=EDGE_LOOP('',(#90,#91,#92,#93,#94,#95,#96,#97,#98,#99,#100,#101));
#256=EDGE_LOOP('',(#102));
#257=EDGE_LOOP('',(#103));
#258=FACE_BOUND('',#236,.T.);
#259=FACE_BOUND('',#237,.T.);
#260=FACE_BOUND('',#238,.T.);
#261=FACE_BOUND('',#239,.T.);
#262=FACE_BOUND('',#240,.T.);
#263=FACE_BOUND('',#241,.T.);
#264=FACE_BOUND('',#242,.T.);
#265=FACE_BOUND('',#243,.T.);
#266=FACE_BOUND('',#244,.T.);
#267=FACE_BOUND('',#245,.T.);
#268=FACE_BOUND('',#246,.T.);
#269=FACE_BOUND('',#247,.T.);
#270=FACE_BOUND('',#248,.T.);
#271=FACE_BOUND('',#249,.T.);
#272=FACE_BOUND('',#250,.T.);
#273=FACE_BOUND('',#251,.T.);
#274=FACE_BOUND('',#252,.T.);
#275=FACE_BOUND('',#253,.T.);
#276=FACE_BOUND('',#254,.T.);
#277=FACE_BOUND('',#255,.T.);
#278=FACE_BOUND('',#256,.T.);
#279=FACE_BOUND('',#257,.T.);
#280=PLANE('',#321);
#281=PLANE('',#322);
#282=PLANE('',#326);
#283=PLANE('',#327);
#284=PLANE('',#328);
#285=PLANE('',#329);
#286=PLANE('',#330);
#287=PLANE('',#334);
#288=PLANE('',#335);
#289=PLANE('',#339);
#290=PLANE('',#343);
#291=PLANE('',#344);
#292=ADVANCED_FACE('',(#258),#280,.T.);
#293=ADVANCED_FACE('',(#259),#281,.T.);
#294=ADVANCED_FACE('',(#260),#20,.T.);
#295=ADVANCED_FACE('',(#261),#282,.F.);
#296=ADVANCED_FACE('',(#262),#283,.T.);
#297=ADVANCED_FACE('',(#263),#284,.T.);
#298=ADVANCED_FACE('',(#264),#285,.T.);
#299=ADVANCED_FACE('',(#265),#286,.F.);
#300=ADVANCED_FACE('',(#266),#21,.T.);
#301=ADVANCED_FACE('',(#267),#287,.T.);
#302=ADVANCED_FACE('',(#268),#288,.T.);
#303=ADVANCED_FACE('',(#269,#270),#22,.F.);
#304=ADVANCED_FACE('',(#271),#289,.F.);
#305=ADVANCED_FACE('',(#272,#273),#23,.F.);
#306=ADVANCED_FACE('',(#274,#275,#276),#290,.T.);
#307=ADVANCED_FACE('',(#277,#278,#279),#291,.F.);
#308=CLOSED_SHELL('',(#292,#293,#294,#295,#296,#297,#298,#299,#300,#301,
#302,#303,#304,#305,#306,#307));
#309=STYLED_ITEM('',(#310),#317);
#310=PRESENTATION_STYLE_ASSIGNMENT((#311));
#311=SURFACE_STYLE_USAGE(.BOTH.,#312);
#312=SURFACE_SIDE_STYLE('',(#313));
#313=SURFACE_STYLE_FILL_AREA(#314);
#314=FILL_AREA_STYLE('',(#315));
#315=FILL_AREA_STYLE_COLOUR('',#316);
#316=COLOUR_RGB('',0.301960784313725,0.301960784313725,0.301960784313725);
#317=MANIFOLD_SOLID_BREP('Hinge Bar Notched',#308);
#318=SHAPE_DEFINITION_REPRESENTATION(#518,#319);
#319=SHAPE_REPRESENTATION('Hinge Bar Notched',(#320),#513);
#320=AXIS2_PLACEMENT_3D('',#427,#345,#346);
#321=AXIS2_PLACEMENT_3D('',#428,#347,#348);
#322=AXIS2_PLACEMENT_3D('',#437,#353,#354);
#323=AXIS2_PLACEMENT_3D('',#443,#358,#359);
#324=AXIS2_PLACEMENT_3D('',#444,#360,#361);
#325=AXIS2_PLACEMENT_3D('',#448,#363,#364);
#326=AXIS2_PLACEMENT_3D('',#449,#365,#366);
#327=AXIS2_PLACEMENT_3D('',#455,#370,#371);
#328=AXIS2_PLACEMENT_3D('',#461,#375,#376);
#329=AXIS2_PLACEMENT_3D('',#467,#380,#381);
#330=AXIS2_PLACEMENT_3D('',#473,#385,#386);
#331=AXIS2_PLACEMENT_3D('',#479,#390,#391);
#332=AXIS2_PLACEMENT_3D('',#480,#392,#393);
#333=AXIS2_PLACEMENT_3D('',#484,#395,#396);
#334=AXIS2_PLACEMENT_3D('',#485,#397,#398);
#335=AXIS2_PLACEMENT_3D('',#491,#402,#403);
#336=AXIS2_PLACEMENT_3D('',#497,#407,#408);
#337=AXIS2_PLACEMENT_3D('',#498,#409,#410);
#338=AXIS2_PLACEMENT_3D('',#500,#411,#412);
#339=AXIS2_PLACEMENT_3D('',#502,#413,#414);
#340=AXIS2_PLACEMENT_3D('',#505,#417,#418);
#341=AXIS2_PLACEMENT_3D('',#506,#419,#420);
#342=AXIS2_PLACEMENT_3D('',#508,#421,#422);
#343=AXIS2_PLACEMENT_3D('',#510,#423,#424);
#344=AXIS2_PLACEMENT_3D('',#511,#425,#426);
#345=DIRECTION('',(0.,0.,1.));
#346=DIRECTION('',(1.,0.,0.));
#347=DIRECTION('',(0.,1.,0.));
#348=DIRECTION('',(0.,0.,1.));
#349=DIRECTION('',(1.,0.,0.));
#350=DIRECTION('',(0.,0.,-1.));
#351=DIRECTION('',(1.,0.,0.));
#352=DIRECTION('',(0.,0.,-1.));
#353=DIRECTION('',(-1.,0.,0.));
#354=DIRECTION('',(0.,0.,1.));
#355=DIRECTION('',(0.,1.,0.));
#356=DIRECTION('',(0.,0.,-1.));
#357=DIRECTION('',(0.,1.,0.));
#358=DIRECTION('',(0.,0.,-1.));
#359=DIRECTION('',(-1.,0.,0.));
#360=DIRECTION('',(0.,0.,1.));
#361=DIRECTION('',(1.,0.,0.));
#362=DIRECTION('',(0.,0.,-1.));
#363=DIRECTION('',(0.,0.,1.));
#364=DIRECTION('',(1.,0.,0.));
#365=DIRECTION('',(-1.,0.,0.));
#366=DIRECTION('',(0.,0.,1.));
#367=DIRECTION('',(0.,1.,0.));
#368=DIRECTION('',(0.,0.,-1.));
#369=DIRECTION('',(0.,1.,0.));
#370=DIRECTION('',(0.866025403784439,-0.5,0.));
#371=DIRECTION('',(0.5,0.866025403784439,0.));
#372=DIRECTION('',(-0.5,-0.866025403784439,0.));
#373=DIRECTION('',(0.,0.,-1.));
#374=DIRECTION('',(-0.5,-0.866025403784439,0.));
#375=DIRECTION('',(1.,0.,0.));
#376=DIRECTION('',(0.,0.,-1.));
#377=DIRECTION('',(0.,-1.,0.));
#378=DIRECTION('',(0.,0.,-1.));
#379=DIRECTION('',(0.,-1.,0.));
#380=DIRECTION('',(0.866025403784439,0.5,0.));
#381=DIRECTION('',(-0.5,0.866025403784439,0.));
#382=DIRECTION('',(0.5,-0.866025403784439,0.));
#383=DIRECTION('',(0.,0.,-1.));
#384=DIRECTION('',(0.5,-0.866025403784439,0.));
#385=DIRECTION('',(-1.,0.,0.));
#386=DIRECTION('',(0.,0.,1.));
#387=DIRECTION('',(0.,1.,0.));
#388=DIRECTION('',(0.,0.,-1.));
#389=DIRECTION('',(0.,1.,0.));
#390=DIRECTION('',(0.,0.,-1.));
#391=DIRECTION('',(-1.,0.,0.));
#392=DIRECTION('',(0.,0.,1.));
#393=DIRECTION('',(1.,0.,0.));
#394=DIRECTION('',(0.,0.,-1.));
#395=DIRECTION('',(0.,0.,1.));
#396=DIRECTION('',(1.,0.,0.));
#397=DIRECTION('',(-1.,0.,0.));
#398=DIRECTION('',(0.,0.,1.));
#399=DIRECTION('',(0.,1.,0.));
#400=DIRECTION('',(0.,0.,-1.));
#401=DIRECTION('',(0.,1.,0.));
#402=DIRECTION('',(-0.164398987305359,-0.986393923832143,0.));
#403=DIRECTION('',(0.986393923832144,-0.164398987305359,0.));
#404=DIRECTION('',(-0.986393923832143,0.164398987305359,0.));
#405=DIRECTION('',(0.,0.,-1.));
#406=DIRECTION('',(-0.986393923832143,0.164398987305359,0.));
#407=DIRECTION('',(0.,0.,-1.));
#408=DIRECTION('',(-1.,0.,0.));
#409=DIRECTION('',(0.,0.,1.));
#410=DIRECTION('',(1.,0.,0.));
#411=DIRECTION('',(0.,0.,1.));
#412=DIRECTION('',(1.,0.,0.));
#413=DIRECTION('',(1.,2.73184799366428E-16,0.));
#414=DIRECTION('',(-2.73184799366428E-16,1.,0.));
#415=DIRECTION('',(2.73184799366428E-16,-1.,0.));
#416=DIRECTION('',(2.73184799366428E-16,-1.,0.));
#417=DIRECTION('',(0.,0.,-1.));
#418=DIRECTION('',(-1.,0.,0.));
#419=DIRECTION('',(0.,0.,1.));
#420=DIRECTION('',(1.,0.,0.));
#421=DIRECTION('',(0.,0.,1.));
#422=DIRECTION('',(1.,0.,0.));
#423=DIRECTION('',(0.,0.,1.));
#424=DIRECTION('',(1.,0.,0.));
#425=DIRECTION('',(0.,0.,1.));
#426=DIRECTION('',(1.,0.,0.));
#427=CARTESIAN_POINT('',(0.,0.,0.));
#428=CARTESIAN_POINT('',(0.0047625,0.200025,0.003175));
#429=CARTESIAN_POINT('',(0.0047625,0.200025,0.));
#430=CARTESIAN_POINT('',(0.,0.200025,0.));
#431=CARTESIAN_POINT('',(0.009525,0.200025,0.));
#432=CARTESIAN_POINT('',(0.,0.200025,0.003175));
#433=CARTESIAN_POINT('',(0.,0.200025,0.003175));
#434=CARTESIAN_POINT('',(0.0047625,0.200025,0.003175));
#435=CARTESIAN_POINT('',(0.009525,0.200025,0.003175));
#436=CARTESIAN_POINT('',(0.009525,0.200025,0.003175));
#437=CARTESIAN_POINT('',(0.,0.1000125,0.003175));
#438=CARTESIAN_POINT('',(0.,0.1000125,0.));
#439=CARTESIAN_POINT('',(0.,-2.72177751110501E-18,0.));
#440=CARTESIAN_POINT('',(0.,-2.72177751110501E-18,0.003175));
#441=CARTESIAN_POINT('',(0.,-2.72177751110501E-18,0.003175));
#442=CARTESIAN_POINT('',(0.,0.1000125,0.003175));
#443=CARTESIAN_POINT('',(0.00635,-3.88825358729288E-19,0.003175));
#444=CARTESIAN_POINT('',(0.00635,-3.88825358729288E-19,0.));
#445=CARTESIAN_POINT('',(0.0127,0.,0.));
#446=CARTESIAN_POINT('',(0.0127,0.,0.003175));
#447=CARTESIAN_POINT('',(0.0127,0.,0.003175));
#448=CARTESIAN_POINT('',(0.00635,-3.88825358729288E-19,0.003175));
#449=CARTESIAN_POINT('',(0.0127,0.0950943040144766,0.003175));
#450=CARTESIAN_POINT('',(0.0127,0.0950943040144766,0.));
#451=CARTESIAN_POINT('',(0.0127,0.190188608028954,0.));
#452=CARTESIAN_POINT('',(0.0127,0.190188608028954,0.003175));
#453=CARTESIAN_POINT('',(0.0127,0.190188608028954,0.003175));
#454=CARTESIAN_POINT('',(0.0127,0.0950943040144766,0.003175));
#455=CARTESIAN_POINT('',(0.01508125,0.194313054014477,0.003175));
#456=CARTESIAN_POINT('',(0.01508125,0.194313054014477,0.));
#457=CARTESIAN_POINT('',(0.0174625,0.1984375,0.));
#458=CARTESIAN_POINT('',(0.0174625,0.1984375,0.003175));
#459=CARTESIAN_POINT('',(0.0174625,0.1984375,0.003175));
#460=CARTESIAN_POINT('',(0.01508125,0.194313054014477,0.003175));
#461=CARTESIAN_POINT('',(0.0174625,0.2032,0.003175));
#462=CARTESIAN_POINT('',(0.0174625,0.2032,0.));
#463=CARTESIAN_POINT('',(0.0174625,0.2079625,0.));
#464=CARTESIAN_POINT('',(0.0174625,0.2079625,0.003175));
#465=CARTESIAN_POINT('',(0.0174625,0.2079625,0.003175));
#466=CARTESIAN_POINT('',(0.0174625,0.2032,0.003175));
#467=CARTESIAN_POINT('',(0.01508125,0.212086945985523,0.003175));
#468=CARTESIAN_POINT('',(0.01508125,0.212086945985523,0.));
#469=CARTESIAN_POINT('',(0.0127,0.216211391971047,0.));
#470=CARTESIAN_POINT('',(0.0127,0.216211391971047,0.003175));
#471=CARTESIAN_POINT('',(0.0127,0.216211391971047,0.003175));
#472=CARTESIAN_POINT('',(0.01508125,0.212086945985523,0.003175));
#473=CARTESIAN_POINT('',(0.0127,0.247805695985523,0.003175));
#474=CARTESIAN_POINT('',(0.0127,0.247805695985523,0.));
#475=CARTESIAN_POINT('',(0.0127,0.2794,0.));
#476=CARTESIAN_POINT('',(0.0127,0.2794,0.003175));
#477=CARTESIAN_POINT('',(0.0127,0.2794,0.003175));
#478=CARTESIAN_POINT('',(0.0127,0.247805695985523,0.003175));
#479=CARTESIAN_POINT('',(0.00635,0.2794,0.003175));
#480=CARTESIAN_POINT('',(0.00635,0.2794,0.));
#481=CARTESIAN_POINT('',(0.,0.2794,0.));
#482=CARTESIAN_POINT('',(0.,0.2794,0.003175));
#483=CARTESIAN_POINT('',(0.,0.2794,0.003175));
#484=CARTESIAN_POINT('',(0.00635,0.2794,0.003175));
#485=CARTESIAN_POINT('',(0.,0.24368125,0.003175));
#486=CARTESIAN_POINT('',(0.,0.24368125,0.));
#487=CARTESIAN_POINT('',(0.,0.2079625,0.));
#488=CARTESIAN_POINT('',(0.,0.2079625,0.003175));
#489=CARTESIAN_POINT('',(0.,0.2079625,0.003175));
#490=CARTESIAN_POINT('',(0.,0.24368125,0.003175));
#491=CARTESIAN_POINT('',(0.0047625,0.20716875,0.003175));
#492=CARTESIAN_POINT('',(0.0047625,0.20716875,0.));
#493=CARTESIAN_POINT('',(0.009525,0.206375,0.));
#494=CARTESIAN_POINT('',(0.009525,0.206375,0.003175));
#495=CARTESIAN_POINT('',(0.009525,0.206375,0.003175));
#496=CARTESIAN_POINT('',(0.0047625,0.20716875,0.003175));
#497=CARTESIAN_POINT('',(0.00635,9.18485099360515E-20,0.003175));
#498=CARTESIAN_POINT('',(0.00635,9.18485099360515E-20,0.003175));
#499=CARTESIAN_POINT('',(0.00785,9.18485099360515E-20,0.003175));
#500=CARTESIAN_POINT('',(0.00635,9.18485099360515E-20,0.));
#501=CARTESIAN_POINT('',(0.00785,9.18485099360515E-20,0.));
#502=CARTESIAN_POINT('',(0.009525,0.2032,0.003175));
#503=CARTESIAN_POINT('',(0.009525,0.2032,0.));
#504=CARTESIAN_POINT('',(0.009525,0.2032,0.003175));
#505=CARTESIAN_POINT('',(0.00635,0.2794,0.003175));
#506=CARTESIAN_POINT('',(0.00635,0.2794,0.003175));
#507=CARTESIAN_POINT('',(0.00785,0.2794,0.003175));
#508=CARTESIAN_POINT('',(0.00635,0.2794,0.));
#509=CARTESIAN_POINT('',(0.00785,0.2794,0.));
#510=CARTESIAN_POINT('',(0.00873125,0.1397,0.003175));
#511=CARTESIAN_POINT('',(0.00873125,0.1397,0.));
#512=MECHANICAL_DESIGN_GEOMETRIC_PRESENTATION_REPRESENTATION('',(#309),
#513);
#513=(
GEOMETRIC_REPRESENTATION_CONTEXT(3)
GLOBAL_UNCERTAINTY_ASSIGNED_CONTEXT((#514))
GLOBAL_UNIT_ASSIGNED_CONTEXT((#517,#516,#515))
REPRESENTATION_CONTEXT('Hinge Bar Notched','TOP_LEVEL_ASSEMBLY_PART')
);
#514=UNCERTAINTY_MEASURE_WITH_UNIT(LENGTH_MEASURE(1.E-8),#517,
'DISTANCE_ACCURACY_VALUE','Maximum Tolerance applied to model');
#515=(
NAMED_UNIT(*)
SI_UNIT($,.STERADIAN.)
SOLID_ANGLE_UNIT()
);
#516=(
NAMED_UNIT(*)
PLANE_ANGLE_UNIT()
SI_UNIT($,.RADIAN.)
);
#517=(
LENGTH_UNIT()
NAMED_UNIT(*)
SI_UNIT($,.METRE.)
);
#518=PRODUCT_DEFINITION_SHAPE('','',#519);
#519=PRODUCT_DEFINITION('','',#521,#520);
#520=PRODUCT_DEFINITION_CONTEXT('',#527,'design');
#521=PRODUCT_DEFINITION_FORMATION_WITH_SPECIFIED_SOURCE('','',#523,
 .NOT_KNOWN.);
#522=PRODUCT_RELATED_PRODUCT_CATEGORY('','',(#523));
#523=PRODUCT('Hinge Bar Notched','Hinge Bar Notched',
'Hinge Bar Notched',(#525));
#524=PRODUCT_CATEGORY('','');
#525=PRODUCT_CONTEXT('',#527,'mechanical');
#526=APPLICATION_PROTOCOL_DEFINITION('international standard',
'ap242_managed_model_based_3d_engineering',2020,#527);
#527=APPLICATION_CONTEXT('managed model based 3d engineering');
ENDSEC;
END-ISO-10303-21;
