ISO-10303-21;
HEADER;
/* Generated by software containing ST-Developer
 * from STEP Tools, Inc. (www.steptools.com) 
 */
/* OPTION: using custom renumber hook */

FILE_DESCRIPTION(
/* description */ ('STEP AP242 Edition 2',
'CAx-IF Rec.Pracs.---Representation and Presentation of Product Manufa
cturing Information (PMI)---4.0---2014-10-13',
'CAx-IF Rec.Pracs.---3D Tessellated Geometry---0.4---2014-09-14','2;1',
'CAx-IF Rec.Pracs.---User Defined Attributes---1.5---2016-08-15'),
/* implementation_level */ '2;1');

FILE_NAME(
/* name */ 'Hinge Mount - Hinge Mount',
/* time_stamp */ '2026-08-24T02:47:56Z',
/* author */ (''),
/* organization */ (''),
/* preprocessor_version */ 'ST-DEVELOPER v20',
/* originating_system */ 'ONSHAPE BY PTC INC, 1.219',
/* authorisation */ '  ');

FILE_SCHEMA (('AP242_MANAGED_MODEL_BASED_3D_ENGINEERING_MIM_LF { 1 0 10303 442 3 1 4 }'));
ENDSEC;

DATA;
#10=SHAPE_REPRESENTATION_RELATIONSHIP('','',#133,#11);
#11=ADVANCED_BREP_SHAPE_REPRESENTATION('',(#131),#220);
#12=CIRCLE('',#137,0.04585);
#13=CIRCLE('',#138,0.04585);
#14=CIRCLE('',#141,0.002);
#15=B_SPLINE_CURVE_WITH_KNOTS('',3,(#188,#189,#190,#191,#192,#193,#194,
#195,#196,#197,#198),.UNSPECIFIED.,.T.,.F.,(1,1,1,1,1,1,1,1,1,1,1,1,1,1,
1),(-0.00474861256067439,-0.00316574170711626,-0.00158287085355813,0.,0.00158287085355813,
0.00316574170711626,0.00474861256067439,0.00633148341423252,0.00791435426779065,
0.00949722512134878,0.0110800959749069,0.012662966828465,0.0142458376820232,
0.0158287085355813,0.0174115793891394),.UNSPECIFIED.);
#16=CYLINDRICAL_SURFACE('',#136,0.04585);
#17=CYLINDRICAL_SURFACE('',#144,0.002);
#18=ORIENTED_EDGE('',*,*,#46,.F.);
#19=ORIENTED_EDGE('',*,*,#47,.F.);
#20=ORIENTED_EDGE('',*,*,#48,.T.);
#21=ORIENTED_EDGE('',*,*,#49,.T.);
#22=ORIENTED_EDGE('',*,*,#50,.F.);
#23=ORIENTED_EDGE('',*,*,#51,.F.);
#24=ORIENTED_EDGE('',*,*,#52,.F.);
#25=ORIENTED_EDGE('',*,*,#53,.T.);
#26=ORIENTED_EDGE('',*,*,#47,.T.);
#27=ORIENTED_EDGE('',*,*,#54,.F.);
#28=ORIENTED_EDGE('',*,*,#55,.F.);
#29=ORIENTED_EDGE('',*,*,#56,.T.);
#30=ORIENTED_EDGE('',*,*,#52,.T.);
#31=ORIENTED_EDGE('',*,*,#57,.F.);
#32=ORIENTED_EDGE('',*,*,#58,.F.);
#33=ORIENTED_EDGE('',*,*,#49,.F.);
#34=ORIENTED_EDGE('',*,*,#59,.T.);
#35=ORIENTED_EDGE('',*,*,#55,.T.);
#36=ORIENTED_EDGE('',*,*,#48,.F.);
#37=ORIENTED_EDGE('',*,*,#53,.F.);
#38=ORIENTED_EDGE('',*,*,#56,.F.);
#39=ORIENTED_EDGE('',*,*,#59,.F.);
#40=ORIENTED_EDGE('',*,*,#46,.T.);
#41=ORIENTED_EDGE('',*,*,#58,.T.);
#42=ORIENTED_EDGE('',*,*,#54,.T.);
#43=ORIENTED_EDGE('',*,*,#51,.T.);
#44=ORIENTED_EDGE('',*,*,#50,.T.);
#45=ORIENTED_EDGE('',*,*,#57,.T.);
#46=EDGE_CURVE('',#60,#61,#70,.T.);
#47=EDGE_CURVE('',#62,#60,#71,.T.);
#48=EDGE_CURVE('',#62,#63,#72,.T.);
#49=EDGE_CURVE('',#63,#61,#73,.T.);
#50=EDGE_CURVE('',#64,#64,#15,.T.);
#51=EDGE_CURVE('',#65,#60,#12,.T.);
#52=EDGE_CURVE('',#66,#65,#74,.T.);
#53=EDGE_CURVE('',#66,#62,#13,.T.);
#54=EDGE_CURVE('',#67,#65,#75,.T.);
#55=EDGE_CURVE('',#68,#67,#76,.T.);
#56=EDGE_CURVE('',#68,#66,#77,.T.);
#57=EDGE_CURVE('',#69,#69,#14,.T.);
#58=EDGE_CURVE('',#61,#67,#78,.T.);
#59=EDGE_CURVE('',#63,#68,#79,.T.);
#60=VERTEX_POINT('',#180);
#61=VERTEX_POINT('',#181);
#62=VERTEX_POINT('',#183);
#63=VERTEX_POINT('',#185);
#64=VERTEX_POINT('',#199);
#65=VERTEX_POINT('',#201);
#66=VERTEX_POINT('',#203);
#67=VERTEX_POINT('',#207);
#68=VERTEX_POINT('',#209);
#69=VERTEX_POINT('',#213);
#70=LINE('',#179,#80);
#71=LINE('',#182,#81);
#72=LINE('',#184,#82);
#73=LINE('',#186,#83);
#74=LINE('',#202,#84);
#75=LINE('',#206,#85);
#76=LINE('',#208,#86);
#77=LINE('',#210,#87);
#78=LINE('',#214,#88);
#79=LINE('',#215,#89);
#80=VECTOR('',#149,1.);
#81=VECTOR('',#150,1.);
#82=VECTOR('',#151,1.);
#83=VECTOR('',#152,1.);
#84=VECTOR('',#157,1.);
#85=VECTOR('',#162,1.);
#86=VECTOR('',#163,1.);
#87=VECTOR('',#164,1.);
#88=VECTOR('',#169,1.);
#89=VECTOR('',#170,1.);
#90=EDGE_LOOP('',(#18,#19,#20,#21));
#91=EDGE_LOOP('',(#22));
#92=EDGE_LOOP('',(#23,#24,#25,#26));
#93=EDGE_LOOP('',(#27,#28,#29,#30));
#94=EDGE_LOOP('',(#31));
#95=EDGE_LOOP('',(#32,#33,#34,#35));
#96=EDGE_LOOP('',(#36,#37,#38,#39));
#97=EDGE_LOOP('',(#40,#41,#42,#43));
#98=EDGE_LOOP('',(#44));
#99=EDGE_LOOP('',(#45));
#100=FACE_BOUND('',#90,.T.);
#101=FACE_BOUND('',#91,.T.);
#102=FACE_BOUND('',#92,.T.);
#103=FACE_BOUND('',#93,.T.);
#104=FACE_BOUND('',#94,.T.);
#105=FACE_BOUND('',#95,.T.);
#106=FACE_BOUND('',#96,.T.);
#107=FACE_BOUND('',#97,.T.);
#108=FACE_BOUND('',#98,.T.);
#109=FACE_BOUND('',#99,.T.);
#110=PLANE('',#135);
#111=PLANE('',#139);
#112=PLANE('',#140);
#113=PLANE('',#142);
#114=PLANE('',#143);
#115=ADVANCED_FACE('',(#100),#110,.T.);
#116=ADVANCED_FACE('',(#101,#102),#16,.F.);
#117=ADVANCED_FACE('',(#103),#111,.T.);
#118=ADVANCED_FACE('',(#104,#105),#112,.T.);
#119=ADVANCED_FACE('',(#106),#113,.T.);
#120=ADVANCED_FACE('',(#107),#114,.F.);
#121=ADVANCED_FACE('',(#108,#109),#17,.F.);
#122=CLOSED_SHELL('',(#115,#116,#117,#118,#119,#120,#121));
#123=STYLED_ITEM('',(#124),#131);
#124=PRESENTATION_STYLE_ASSIGNMENT((#125));
#125=SURFACE_STYLE_USAGE(.BOTH.,#126);
#126=SURFACE_SIDE_STYLE('',(#127));
#127=SURFACE_STYLE_FILL_AREA(#128);
#128=FILL_AREA_STYLE('',(#129));
#129=FILL_AREA_STYLE_COLOUR('',#130);
#130=COLOUR_RGB('',0.701960784313725,0.701960784313725,0.701960784313725);
#131=MANIFOLD_SOLID_BREP('Hinge Mount',#122);
#132=SHAPE_DEFINITION_REPRESENTATION(#225,#133);
#133=SHAPE_REPRESENTATION('Hinge Mount',(#134),#220);
#134=AXIS2_PLACEMENT_3D('',#177,#145,#146);
#135=AXIS2_PLACEMENT_3D('',#178,#147,#148);
#136=AXIS2_PLACEMENT_3D('',#187,#153,#154);
#137=AXIS2_PLACEMENT_3D('',#200,#155,#156);
#138=AXIS2_PLACEMENT_3D('',#204,#158,#159);
#139=AXIS2_PLACEMENT_3D('',#205,#160,#161);
#140=AXIS2_PLACEMENT_3D('',#211,#165,#166);
#141=AXIS2_PLACEMENT_3D('',#212,#167,#168);
#142=AXIS2_PLACEMENT_3D('',#216,#171,#172);
#143=AXIS2_PLACEMENT_3D('',#217,#173,#174);
#144=AXIS2_PLACEMENT_3D('',#218,#175,#176);
#145=DIRECTION('',(0.,0.,1.));
#146=DIRECTION('',(1.,0.,0.));
#147=DIRECTION('',(0.,0.,1.));
#148=DIRECTION('',(1.,0.,0.));
#149=DIRECTION('',(1.,0.,0.));
#150=DIRECTION('',(0.,1.,0.));
#151=DIRECTION('',(1.,0.,0.));
#152=DIRECTION('',(0.,1.,0.));
#153=DIRECTION('',(0.,1.,0.));
#154=DIRECTION('',(0.,0.,1.));
#155=DIRECTION('',(0.,-1.,0.));
#156=DIRECTION('',(0.,0.,-1.));
#157=DIRECTION('',(0.,1.,0.));
#158=DIRECTION('',(0.,-1.,0.));
#159=DIRECTION('',(0.,0.,-1.));
#160=DIRECTION('',(0.682295770564737,0.,-0.731076248738442));
#161=DIRECTION('',(-0.731076248738442,0.,-0.682295770564737));
#162=DIRECTION('',(-0.731076248738442,0.,-0.682295770564737));
#163=DIRECTION('',(0.,1.,0.));
#164=DIRECTION('',(-0.731076248738442,0.,-0.682295770564737));
#165=DIRECTION('',(0.939692620785908,0.,0.342020143325669));
#166=DIRECTION('',(0.342020143325669,0.,-0.939692620785908));
#167=DIRECTION('',(0.939692620785908,0.,0.342020143325669));
#168=DIRECTION('',(0.342020143325669,0.,-0.939692620785908));
#169=DIRECTION('',(0.342020143325669,0.,-0.939692620785908));
#170=DIRECTION('',(0.342020143325669,0.,-0.939692620785908));
#171=DIRECTION('',(0.,-1.,0.));
#172=DIRECTION('',(1.,0.,0.));
#173=DIRECTION('',(0.,-1.,0.));
#174=DIRECTION('',(1.,0.,0.));
#175=DIRECTION('',(0.939692620785908,0.,0.342020143325669));
#176=DIRECTION('',(0.342020143325669,0.,-0.939692620785908));
#177=CARTESIAN_POINT('',(0.,0.,0.));
#178=CARTESIAN_POINT('',(0.0362530894248746,-0.0254,0.03175));
#179=CARTESIAN_POINT('',(0.0362530894248746,0.,0.03175));
#180=CARTESIAN_POINT('',(0.0330780894248746,0.,0.03175));
#181=CARTESIAN_POINT('',(0.0394280894248746,0.,0.03175));
#182=CARTESIAN_POINT('',(0.0330780894248746,-0.0254,0.03175));
#183=CARTESIAN_POINT('',(0.0330780894248746,-0.0254,0.03175));
#184=CARTESIAN_POINT('',(0.0362530894248746,-0.0254,0.03175));
#185=CARTESIAN_POINT('',(0.0394280894248746,-0.0254,0.03175));
#186=CARTESIAN_POINT('',(0.0394280894248746,-0.0254,0.03175));
#187=CARTESIAN_POINT('',(3.12250225675825E-17,-0.0254,2.08166817117217E-17));
#188=CARTESIAN_POINT('',(0.0394621731265073,-0.0111137340814239,0.0233546828854857));
#189=CARTESIAN_POINT('',(0.0398005357885855,-0.0127003259613583,0.0227608131628214));
#190=CARTESIAN_POINT('',(0.0394625939216348,-0.0142849620731429,0.0233539596858282));
#191=CARTESIAN_POINT('',(0.0386330994376436,-0.0149086845491145,0.0247129367332503));
#192=CARTESIAN_POINT('',(0.0377492336375626,-0.0142802423783064,0.0260326960829466));
#193=CARTESIAN_POINT('',(0.0373439947206805,-0.0127011243510353,0.0266001604221394));
#194=CARTESIAN_POINT('',(0.0377477792749157,-0.0111220950828341,0.0260347901314783));
#195=CARTESIAN_POINT('',(0.0386322334348097,-0.0104910654945379,0.0247143190473762));
#196=CARTESIAN_POINT('',(0.0394621731265073,-0.0111137340814239,0.0233546828854857));
#197=CARTESIAN_POINT('',(0.0398005357885855,-0.0127003259613583,0.0227608131628214));
#198=CARTESIAN_POINT('',(0.0394625939216348,-0.0142849620731429,0.0233539596858282));
#199=CARTESIAN_POINT('',(0.0396878183670807,-0.0127,0.0229586492037666));
#200=CARTESIAN_POINT('',(3.12250225675825E-17,0.,2.08166817117217E-17));
#201=CARTESIAN_POINT('',(0.0420707475327671,0.,0.0182284037160189));
#202=CARTESIAN_POINT('',(0.0420707475327671,-0.0254,0.0182284037160189));
#203=CARTESIAN_POINT('',(0.0420707475327671,-0.0254,0.0182284037160189));
#204=CARTESIAN_POINT('',(3.12250225675825E-17,-0.0254,2.08166817117217E-17));
#205=CARTESIAN_POINT('',(0.0429212463889388,-0.0254,0.0190221537160189));
#206=CARTESIAN_POINT('',(0.0429212463889388,0.,0.0190221537160189));
#207=CARTESIAN_POINT('',(0.0437717452451106,0.,0.0198159037160189));
#208=CARTESIAN_POINT('',(0.0437717452451106,-0.0254,0.0198159037160189));
#209=CARTESIAN_POINT('',(0.0437717452451106,-0.0254,0.0198159037160189));
#210=CARTESIAN_POINT('',(0.0429212463889388,-0.0254,0.0190221537160189));
#211=CARTESIAN_POINT('',(0.0415999173349926,-0.0254,0.0257829518580095));
#212=CARTESIAN_POINT('',(0.0415999173349926,-0.0127,0.0257829518580095));
#213=CARTESIAN_POINT('',(0.0422839576216439,-0.0127,0.0239035666164377));
#214=CARTESIAN_POINT('',(0.0415999173349926,0.,0.0257829518580095));
#215=CARTESIAN_POINT('',(0.0415999173349926,-0.0254,0.0257829518580095));
#216=CARTESIAN_POINT('',(0.,-0.0254,0.));
#217=CARTESIAN_POINT('',(0.,0.,0.));
#218=CARTESIAN_POINT('',(0.0177317247670306,-0.0127,0.0170956402175375));
#219=MECHANICAL_DESIGN_GEOMETRIC_PRESENTATION_REPRESENTATION('',(#123),
#220);
#220=(
GEOMETRIC_REPRESENTATION_CONTEXT(3)
GLOBAL_UNCERTAINTY_ASSIGNED_CONTEXT((#221))
GLOBAL_UNIT_ASSIGNED_CONTEXT((#224,#223,#222))
REPRESENTATION_CONTEXT('Hinge Mount','TOP_LEVEL_ASSEMBLY_PART')
);
#221=UNCERTAINTY_MEASURE_WITH_UNIT(LENGTH_MEASURE(2.E-5),#224,
'DISTANCE_ACCURACY_VALUE','Maximum Tolerance applied to model');
#222=(
NAMED_UNIT(*)
SI_UNIT($,.STERADIAN.)
SOLID_ANGLE_UNIT()
);
#223=(
NAMED_UNIT(*)
PLANE_ANGLE_UNIT()
SI_UNIT($,.RADIAN.)
);
#224=(
LENGTH_UNIT()
NAMED_UNIT(*)
SI_UNIT($,.METRE.)
);
#225=PRODUCT_DEFINITION_SHAPE('','',#226);
#226=PRODUCT_DEFINITION('','',#228,#227);
#227=PRODUCT_DEFINITION_CONTEXT('',#234,'design');
#228=PRODUCT_DEFINITION_FORMATION_WITH_SPECIFIED_SOURCE('','',#230,
 .NOT_KNOWN.);
#229=PRODUCT_RELATED_PRODUCT_CATEGORY('','',(#230));
#230=PRODUCT('Hinge Mount','Hinge Mount','Hinge Mount',(#232));
#231=PRODUCT_CATEGORY('','');
#232=PRODUCT_CONTEXT('',#234,'mechanical');
#233=APPLICATION_PROTOCOL_DEFINITION('international standard',
'ap242_managed_model_based_3d_engineering',2020,#234);
#234=APPLICATION_CONTEXT('managed model based 3d engineering');
ENDSEC;
END-ISO-10303-21;
