ISO-10303-21;
HEADER;
/* Generated by software containing ST-Developer
 * from STEP Tools, Inc. (www.steptools.com) 
 */
/* OPTION: using custom renumber hook */

FILE_DESCRIPTION(
/* description */ ('STEP AP242 Edition 2',
'CAx-IF Rec.Pracs.---Representation and Presentation of Product Manufa
cturing Information (PMI)---4.0---2014-10-13',
'CAx-IF Rec.Pracs.---3D Tessellated Geometry---0.4---2014-09-14','2;1',
'CAx-IF Rec.Pracs.---User Defined Attributes---1.5---2016-08-15'),
/* implementation_level */ '2;1');

FILE_NAME(
/* name */ 'Hinge Bars - Hinge Bar',
/* time_stamp */ '2026-08-24T02:48:40Z',
/* author */ (''),
/* organization */ (''),
/* preprocessor_version */ 'ST-DEVELOPER v20',
/* originating_system */ 'ONSHAPE BY PTC INC, 1.219',
/* authorisation */ '  ');

FILE_SCHEMA (('AP242_MANAGED_MODEL_BASED_3D_ENGINEERING_MIM_LF { 1 0 10303 442 3 1 4 }'));
ENDSEC;

DATA;
#10=SHAPE_REPRESENTATION_RELATIONSHIP('','',#195,#11);
#11=ADVANCED_BREP_SHAPE_REPRESENTATION('',(#193),#329);
#12=PLANE('',#200);
#13=PLANE('',#207);
#14=PLANE('',#211);
#15=PLANE('',#212);
#16=PLANE('',#217);
#17=PLANE('',#220);
#18=LINE('',#284,#26);
#19=LINE('',#288,#27);
#20=LINE('',#290,#28);
#21=LINE('',#292,#29);
#22=LINE('',#294,#30);
#23=LINE('',#298,#31);
#24=LINE('',#307,#32);
#25=LINE('',#308,#33);
#26=VECTOR('',#227,1.);
#27=VECTOR('',#230,1.);
#28=VECTOR('',#233,1.);
#29=VECTOR('',#234,1.);
#30=VECTOR('',#235,1.);
#31=VECTOR('',#240,1.);
#32=VECTOR('',#251,1.);
#33=VECTOR('',#252,1.);
#34=ORIENTED_EDGE('',*,*,#74,.T.);
#35=ORIENTED_EDGE('',*,*,#75,.F.);
#36=ORIENTED_EDGE('',*,*,#76,.F.);
#37=ORIENTED_EDGE('',*,*,#77,.T.);
#38=ORIENTED_EDGE('',*,*,#78,.F.);
#39=ORIENTED_EDGE('',*,*,#79,.F.);
#40=ORIENTED_EDGE('',*,*,#80,.T.);
#41=ORIENTED_EDGE('',*,*,#75,.T.);
#42=ORIENTED_EDGE('',*,*,#81,.T.);
#43=ORIENTED_EDGE('',*,*,#82,.F.);
#44=ORIENTED_EDGE('',*,*,#83,.F.);
#45=ORIENTED_EDGE('',*,*,#79,.T.);
#46=ORIENTED_EDGE('',*,*,#84,.T.);
#47=ORIENTED_EDGE('',*,*,#85,.F.);
#48=ORIENTED_EDGE('',*,*,#86,.T.);
#49=ORIENTED_EDGE('',*,*,#77,.F.);
#50=ORIENTED_EDGE('',*,*,#87,.F.);
#51=ORIENTED_EDGE('',*,*,#82,.T.);
#52=ORIENTED_EDGE('',*,*,#88,.T.);
#53=ORIENTED_EDGE('',*,*,#89,.F.);
#54=ORIENTED_EDGE('',*,*,#76,.T.);
#55=ORIENTED_EDGE('',*,*,#80,.F.);
#56=ORIENTED_EDGE('',*,*,#83,.T.);
#57=ORIENTED_EDGE('',*,*,#87,.T.);
#58=ORIENTED_EDGE('',*,*,#84,.F.);
#59=ORIENTED_EDGE('',*,*,#88,.F.);
#60=ORIENTED_EDGE('',*,*,#90,.T.);
#61=ORIENTED_EDGE('',*,*,#91,.T.);
#62=ORIENTED_EDGE('',*,*,#74,.F.);
#63=ORIENTED_EDGE('',*,*,#86,.F.);
#64=ORIENTED_EDGE('',*,*,#81,.F.);
#65=ORIENTED_EDGE('',*,*,#78,.T.);
#66=ORIENTED_EDGE('',*,*,#92,.T.);
#67=ORIENTED_EDGE('',*,*,#91,.F.);
#68=ORIENTED_EDGE('',*,*,#89,.T.);
#69=ORIENTED_EDGE('',*,*,#92,.F.);
#70=ORIENTED_EDGE('',*,*,#93,.T.);
#71=ORIENTED_EDGE('',*,*,#90,.F.);
#72=ORIENTED_EDGE('',*,*,#85,.T.);
#73=ORIENTED_EDGE('',*,*,#93,.F.);
#74=EDGE_CURVE('',#94,#95,#110,.T.);
#75=EDGE_CURVE('',#96,#95,#18,.T.);
#76=EDGE_CURVE('',#97,#96,#111,.T.);
#77=EDGE_CURVE('',#97,#94,#19,.T.);
#78=EDGE_CURVE('',#98,#95,#20,.T.);
#79=EDGE_CURVE('',#99,#98,#21,.T.);
#80=EDGE_CURVE('',#99,#96,#22,.T.);
#81=EDGE_CURVE('',#98,#100,#112,.T.);
#82=EDGE_CURVE('',#101,#100,#23,.T.);
#83=EDGE_CURVE('',#99,#101,#113,.T.);
#84=EDGE_CURVE('',#102,#102,#114,.T.);
#85=EDGE_CURVE('',#103,#103,#115,.T.);
#86=EDGE_CURVE('',#100,#94,#24,.T.);
#87=EDGE_CURVE('',#101,#97,#25,.T.);
#88=EDGE_CURVE('',#104,#104,#116,.T.);
#89=EDGE_CURVE('',#105,#105,#117,.T.);
#90=EDGE_CURVE('',#106,#106,#118,.T.);
#91=EDGE_CURVE('',#107,#107,#119,.T.);
#92=EDGE_CURVE('',#108,#108,#120,.T.);
#93=EDGE_CURVE('',#109,#109,#121,.T.);
#94=VERTEX_POINT('',#282);
#95=VERTEX_POINT('',#283);
#96=VERTEX_POINT('',#285);
#97=VERTEX_POINT('',#287);
#98=VERTEX_POINT('',#291);
#99=VERTEX_POINT('',#293);
#100=VERTEX_POINT('',#297);
#101=VERTEX_POINT('',#299);
#102=VERTEX_POINT('',#303);
#103=VERTEX_POINT('',#305);
#104=VERTEX_POINT('',#311);
#105=VERTEX_POINT('',#313);
#106=VERTEX_POINT('',#317);
#107=VERTEX_POINT('',#319);
#108=VERTEX_POINT('',#322);
#109=VERTEX_POINT('',#326);
#110=CIRCLE('',#198,0.00635);
#111=CIRCLE('',#199,0.00635);
#112=CIRCLE('',#202,0.00635);
#113=CIRCLE('',#203,0.00635);
#114=CIRCLE('',#205,0.0015);
#115=CIRCLE('',#206,0.0015);
#116=CIRCLE('',#209,0.0015);
#117=CIRCLE('',#210,0.0015);
#118=CIRCLE('',#213,0.00238125);
#119=CIRCLE('',#214,0.00238125);
#120=CIRCLE('',#216,0.00238125);
#121=CIRCLE('',#219,0.00238125);
#122=EDGE_LOOP('',(#34,#35,#36,#37));
#123=EDGE_LOOP('',(#38,#39,#40,#41));
#124=EDGE_LOOP('',(#42,#43,#44,#45));
#125=EDGE_LOOP('',(#46));
#126=EDGE_LOOP('',(#47));
#127=EDGE_LOOP('',(#48,#49,#50,#51));
#128=EDGE_LOOP('',(#52));
#129=EDGE_LOOP('',(#53));
#130=EDGE_LOOP('',(#54,#55,#56,#57));
#131=EDGE_LOOP('',(#58));
#132=EDGE_LOOP('',(#59));
#133=EDGE_LOOP('',(#60));
#134=EDGE_LOOP('',(#61));
#135=EDGE_LOOP('',(#62,#63,#64,#65));
#136=EDGE_LOOP('',(#66));
#137=EDGE_LOOP('',(#67));
#138=EDGE_LOOP('',(#68));
#139=EDGE_LOOP('',(#69));
#140=EDGE_LOOP('',(#70));
#141=EDGE_LOOP('',(#71));
#142=EDGE_LOOP('',(#72));
#143=EDGE_LOOP('',(#73));
#144=FACE_BOUND('',#122,.T.);
#145=FACE_BOUND('',#123,.T.);
#146=FACE_BOUND('',#124,.T.);
#147=FACE_BOUND('',#125,.T.);
#148=FACE_BOUND('',#126,.T.);
#149=FACE_BOUND('',#127,.T.);
#150=FACE_BOUND('',#128,.T.);
#151=FACE_BOUND('',#129,.T.);
#152=FACE_BOUND('',#130,.T.);
#153=FACE_BOUND('',#131,.T.);
#154=FACE_BOUND('',#132,.T.);
#155=FACE_BOUND('',#133,.T.);
#156=FACE_BOUND('',#134,.T.);
#157=FACE_BOUND('',#135,.T.);
#158=FACE_BOUND('',#136,.T.);
#159=FACE_BOUND('',#137,.T.);
#160=FACE_BOUND('',#138,.T.);
#161=FACE_BOUND('',#139,.T.);
#162=FACE_BOUND('',#140,.T.);
#163=FACE_BOUND('',#141,.T.);
#164=FACE_BOUND('',#142,.T.);
#165=FACE_BOUND('',#143,.T.);
#166=CYLINDRICAL_SURFACE('',#197,0.00635);
#167=CYLINDRICAL_SURFACE('',#201,0.00635);
#168=CYLINDRICAL_SURFACE('',#204,0.0015);
#169=CYLINDRICAL_SURFACE('',#208,0.0015);
#170=CYLINDRICAL_SURFACE('',#215,0.00238125);
#171=CYLINDRICAL_SURFACE('',#218,0.00238125);
#172=ADVANCED_FACE('',(#144),#166,.T.);
#173=ADVANCED_FACE('',(#145),#12,.T.);
#174=ADVANCED_FACE('',(#146),#167,.T.);
#175=ADVANCED_FACE('',(#147,#148),#168,.F.);
#176=ADVANCED_FACE('',(#149),#13,.F.);
#177=ADVANCED_FACE('',(#150,#151),#169,.F.);
#178=ADVANCED_FACE('',(#152,#153,#154),#14,.T.);
#179=ADVANCED_FACE('',(#155,#156,#157),#15,.F.);
#180=ADVANCED_FACE('',(#158,#159),#170,.T.);
#181=ADVANCED_FACE('',(#160,#161),#16,.F.);
#182=ADVANCED_FACE('',(#162,#163),#171,.T.);
#183=ADVANCED_FACE('',(#164,#165),#17,.F.);
#184=CLOSED_SHELL('',(#172,#173,#174,#175,#176,#177,#178,#179,#180,#181,
#182,#183));
#185=STYLED_ITEM('',(#186),#193);
#186=PRESENTATION_STYLE_ASSIGNMENT((#187));
#187=SURFACE_STYLE_USAGE(.BOTH.,#188);
#188=SURFACE_SIDE_STYLE('',(#189));
#189=SURFACE_STYLE_FILL_AREA(#190);
#190=FILL_AREA_STYLE('',(#191));
#191=FILL_AREA_STYLE_COLOUR('',#192);
#192=COLOUR_RGB('',0.301960784313725,0.301960784313725,0.301960784313725);
#193=MANIFOLD_SOLID_BREP('Hinge Bar',#184);
#194=SHAPE_DEFINITION_REPRESENTATION(#334,#195);
#195=SHAPE_REPRESENTATION('Hinge Bar',(#196),#329);
#196=AXIS2_PLACEMENT_3D('',#279,#221,#222);
#197=AXIS2_PLACEMENT_3D('',#280,#223,#224);
#198=AXIS2_PLACEMENT_3D('',#281,#225,#226);
#199=AXIS2_PLACEMENT_3D('',#286,#228,#229);
#200=AXIS2_PLACEMENT_3D('',#289,#231,#232);
#201=AXIS2_PLACEMENT_3D('',#295,#236,#237);
#202=AXIS2_PLACEMENT_3D('',#296,#238,#239);
#203=AXIS2_PLACEMENT_3D('',#300,#241,#242);
#204=AXIS2_PLACEMENT_3D('',#301,#243,#244);
#205=AXIS2_PLACEMENT_3D('',#302,#245,#246);
#206=AXIS2_PLACEMENT_3D('',#304,#247,#248);
#207=AXIS2_PLACEMENT_3D('',#306,#249,#250);
#208=AXIS2_PLACEMENT_3D('',#309,#253,#254);
#209=AXIS2_PLACEMENT_3D('',#310,#255,#256);
#210=AXIS2_PLACEMENT_3D('',#312,#257,#258);
#211=AXIS2_PLACEMENT_3D('',#314,#259,#260);
#212=AXIS2_PLACEMENT_3D('',#315,#261,#262);
#213=AXIS2_PLACEMENT_3D('',#316,#263,#264);
#214=AXIS2_PLACEMENT_3D('',#318,#265,#266);
#215=AXIS2_PLACEMENT_3D('',#320,#267,#268);
#216=AXIS2_PLACEMENT_3D('',#321,#269,#270);
#217=AXIS2_PLACEMENT_3D('',#323,#271,#272);
#218=AXIS2_PLACEMENT_3D('',#324,#273,#274);
#219=AXIS2_PLACEMENT_3D('',#325,#275,#276);
#220=AXIS2_PLACEMENT_3D('',#327,#277,#278);
#221=DIRECTION('',(0.,0.,1.));
#222=DIRECTION('',(1.,0.,0.));
#223=DIRECTION('',(0.,0.,-1.));
#224=DIRECTION('',(-1.,0.,0.));
#225=DIRECTION('',(0.,0.,1.));
#226=DIRECTION('',(1.,0.,0.));
#227=DIRECTION('',(0.,0.,-1.));
#228=DIRECTION('',(0.,0.,1.));
#229=DIRECTION('',(1.,0.,0.));
#230=DIRECTION('',(0.,0.,-1.));
#231=DIRECTION('',(-1.,0.,0.));
#232=DIRECTION('',(0.,0.,1.));
#233=DIRECTION('',(0.,1.,0.));
#234=DIRECTION('',(0.,0.,-1.));
#235=DIRECTION('',(0.,1.,0.));
#236=DIRECTION('',(0.,0.,-1.));
#237=DIRECTION('',(-1.,0.,0.));
#238=DIRECTION('',(0.,0.,1.));
#239=DIRECTION('',(1.,0.,0.));
#240=DIRECTION('',(0.,0.,-1.));
#241=DIRECTION('',(0.,0.,1.));
#242=DIRECTION('',(1.,0.,0.));
#243=DIRECTION('',(0.,0.,-1.));
#244=DIRECTION('',(-1.,0.,0.));
#245=DIRECTION('',(0.,0.,1.));
#246=DIRECTION('',(1.,0.,0.));
#247=DIRECTION('',(0.,0.,1.));
#248=DIRECTION('',(1.,0.,0.));
#249=DIRECTION('',(-1.,0.,0.));
#250=DIRECTION('',(0.,0.,1.));
#251=DIRECTION('',(0.,1.,0.));
#252=DIRECTION('',(0.,1.,0.));
#253=DIRECTION('',(0.,0.,-1.));
#254=DIRECTION('',(-1.,0.,0.));
#255=DIRECTION('',(0.,0.,1.));
#256=DIRECTION('',(1.,0.,0.));
#257=DIRECTION('',(0.,0.,1.));
#258=DIRECTION('',(1.,0.,0.));
#259=DIRECTION('',(0.,0.,1.));
#260=DIRECTION('',(1.,0.,0.));
#261=DIRECTION('',(0.,0.,1.));
#262=DIRECTION('',(1.,0.,0.));
#263=DIRECTION('',(0.,0.,1.));
#264=DIRECTION('',(1.,0.,0.));
#265=DIRECTION('',(0.,0.,1.));
#266=DIRECTION('',(1.,0.,0.));
#267=DIRECTION('',(0.,0.,1.));
#268=DIRECTION('',(1.,0.,0.));
#269=DIRECTION('',(0.,0.,1.));
#270=DIRECTION('',(1.,0.,0.));
#271=DIRECTION('',(0.,0.,1.));
#272=DIRECTION('',(1.,0.,0.));
#273=DIRECTION('',(0.,0.,1.));
#274=DIRECTION('',(1.,0.,0.));
#275=DIRECTION('',(0.,0.,1.));
#276=DIRECTION('',(1.,0.,0.));
#277=DIRECTION('',(0.,0.,1.));
#278=DIRECTION('',(1.,0.,0.));
#279=CARTESIAN_POINT('',(0.,0.,0.));
#280=CARTESIAN_POINT('',(0.00635,0.2794,0.003175));
#281=CARTESIAN_POINT('',(0.00635,0.2794,0.));
#282=CARTESIAN_POINT('',(0.0127,0.2794,0.));
#283=CARTESIAN_POINT('',(0.,0.2794,0.));
#284=CARTESIAN_POINT('',(0.,0.2794,0.003175));
#285=CARTESIAN_POINT('',(0.,0.2794,0.003175));
#286=CARTESIAN_POINT('',(0.00635,0.2794,0.003175));
#287=CARTESIAN_POINT('',(0.0127,0.2794,0.003175));
#288=CARTESIAN_POINT('',(0.0127,0.2794,0.003175));
#289=CARTESIAN_POINT('',(0.,0.1000125,0.003175));
#290=CARTESIAN_POINT('',(0.,0.1000125,0.));
#291=CARTESIAN_POINT('',(0.,-2.72177751110501E-18,0.));
#292=CARTESIAN_POINT('',(0.,-2.72177751110501E-18,0.003175));
#293=CARTESIAN_POINT('',(0.,-2.72177751110501E-18,0.003175));
#294=CARTESIAN_POINT('',(0.,0.1000125,0.003175));
#295=CARTESIAN_POINT('',(0.00635,-3.88825358729288E-19,0.003175));
#296=CARTESIAN_POINT('',(0.00635,-3.88825358729288E-19,0.));
#297=CARTESIAN_POINT('',(0.0127,0.,0.));
#298=CARTESIAN_POINT('',(0.0127,0.,0.003175));
#299=CARTESIAN_POINT('',(0.0127,0.,0.003175));
#300=CARTESIAN_POINT('',(0.00635,-3.88825358729288E-19,0.003175));
#301=CARTESIAN_POINT('',(0.00635,9.18485099360515E-20,0.003175));
#302=CARTESIAN_POINT('',(0.00635,9.18485099360515E-20,0.003175));
#303=CARTESIAN_POINT('',(0.00785,9.18485099360515E-20,0.003175));
#304=CARTESIAN_POINT('',(0.00635,9.18485099360515E-20,-0.0047625));
#305=CARTESIAN_POINT('',(0.00785,9.18485099360515E-20,-0.0047625));
#306=CARTESIAN_POINT('',(0.0127,0.0950943040144766,0.003175));
#307=CARTESIAN_POINT('',(0.0127,0.0950943040144766,0.));
#308=CARTESIAN_POINT('',(0.0127,0.0950943040144766,0.003175));
#309=CARTESIAN_POINT('',(0.00635,0.2794,0.003175));
#310=CARTESIAN_POINT('',(0.00635,0.2794,0.003175));
#311=CARTESIAN_POINT('',(0.00785,0.2794,0.003175));
#312=CARTESIAN_POINT('',(0.00635,0.2794,-0.0047625));
#313=CARTESIAN_POINT('',(0.00785,0.2794,-0.0047625));
#314=CARTESIAN_POINT('',(0.00873125,0.1397,0.003175));
#315=CARTESIAN_POINT('',(0.00873125,0.1397,0.));
#316=CARTESIAN_POINT('',(0.00635,1.45809509523482E-19,0.));
#317=CARTESIAN_POINT('',(0.00873125,1.45809509523482E-19,0.));
#318=CARTESIAN_POINT('',(0.00635,0.2794,0.));
#319=CARTESIAN_POINT('',(0.00873125,0.2794,0.));
#320=CARTESIAN_POINT('',(0.00635,0.2794,-0.0047625));
#321=CARTESIAN_POINT('',(0.00635,0.2794,-0.0047625));
#322=CARTESIAN_POINT('',(0.00873125,0.2794,-0.0047625));
#323=CARTESIAN_POINT('',(0.00635,0.1397,-0.0047625));
#324=CARTESIAN_POINT('',(0.00635,1.45809509523482E-19,-0.0047625));
#325=CARTESIAN_POINT('',(0.00635,1.45809509523482E-19,-0.0047625));
#326=CARTESIAN_POINT('',(0.00873125,1.45809509523482E-19,-0.0047625));
#327=CARTESIAN_POINT('',(0.00635,0.1397,-0.0047625));
#328=MECHANICAL_DESIGN_GEOMETRIC_PRESENTATION_REPRESENTATION('',(#185),
#329);
#329=(
GEOMETRIC_REPRESENTATION_CONTEXT(3)
GLOBAL_UNCERTAINTY_ASSIGNED_CONTEXT((#330))
GLOBAL_UNIT_ASSIGNED_CONTEXT((#333,#332,#331))
REPRESENTATION_CONTEXT('Hinge Bar','TOP_LEVEL_ASSEMBLY_PART')
);
#330=UNCERTAINTY_MEASURE_WITH_UNIT(LENGTH_MEASURE(1.E-8),#333,
'DISTANCE_ACCURACY_VALUE','Maximum Tolerance applied to model');
#331=(
NAMED_UNIT(*)
SI_UNIT($,.STERADIAN.)
SOLID_ANGLE_UNIT()
);
#332=(
NAMED_UNIT(*)
PLANE_ANGLE_UNIT()
SI_UNIT($,.RADIAN.)
);
#333=(
LENGTH_UNIT()
NAMED_UNIT(*)
SI_UNIT($,.METRE.)
);
#334=PRODUCT_DEFINITION_SHAPE('','',#335);
#335=PRODUCT_DEFINITION('','',#337,#336);
#336=PRODUCT_DEFINITION_CONTEXT('',#343,'design');
#337=PRODUCT_DEFINITION_FORMATION_WITH_SPECIFIED_SOURCE('','',#339,
 .NOT_KNOWN.);
#338=PRODUCT_RELATED_PRODUCT_CATEGORY('','',(#339));
#339=PRODUCT('Hinge Bar','Hinge Bar','Hinge Bar',(#341));
#340=PRODUCT_CATEGORY('','');
#341=PRODUCT_CONTEXT('',#343,'mechanical');
#342=APPLICATION_PROTOCOL_DEFINITION('international standard',
'ap242_managed_model_based_3d_engineering',2020,#343);
#343=APPLICATION_CONTEXT('managed model based 3d engineering');
ENDSEC;
END-ISO-10303-21;
