ISO-10303-21;
HEADER;
/* Generated by software containing ST-Developer
 * from STEP Tools, Inc. (www.steptools.com) 
 */
/* OPTION: using custom renumber hook */

FILE_DESCRIPTION(
/* description */ ('STEP AP242 Edition 2',
'CAx-IF Rec.Pracs.---Representation and Presentation of Product Manufa
cturing Information (PMI)---4.0---2014-10-13',
'CAx-IF Rec.Pracs.---3D Tessellated Geometry---0.4---2014-09-14','2;1',
'CAx-IF Rec.Pracs.---User Defined Attributes---1.5---2016-08-15'),
/* implementation_level */ '2;1');

FILE_NAME(
/* name */ 'Pontoons - Rear Core1',
/* time_stamp */ '2026-08-24T02:49:14Z',
/* author */ (''),
/* organization */ (''),
/* preprocessor_version */ 'ST-DEVELOPER v20',
/* originating_system */ 'ONSHAPE BY PTC INC, 1.219',
/* authorisation */ '  ');

FILE_SCHEMA (('AP242_MANAGED_MODEL_BASED_3D_ENGINEERING_MIM_LF { 1 0 10303 442 3 1 4 }'));
ENDSEC;

DATA;
#10=SHAPE_REPRESENTATION_RELATIONSHIP('','',#111,#11);
#11=ADVANCED_BREP_SHAPE_REPRESENTATION('',(#109),#249);
#12=B_SPLINE_SURFACE_WITH_KNOTS('',3,3,((#172,#173,#174,#175),(#176,#177,
#178,#179),(#180,#181,#182,#183),(#184,#185,#186,#187),(#188,#189,#190,
#191),(#192,#193,#194,#195),(#196,#197,#198,#199),(#200,#201,#202,#203),
(#204,#205,#206,#207),(#208,#209,#210,#211),(#212,#213,#214,#215),(#216,
#217,#218,#219),(#220,#221,#222,#223),(#224,#225,#226,#227),(#228,#229,
#230,#231),(#232,#233,#234,#235),(#236,#237,#238,#239),(#240,#241,#242,
#243)),.UNSPECIFIED.,.F.,.F.,.F.,(4,2,2,2,2,2,2,2,4),(4,4),(0.,0.125,0.25,
0.375,0.5,0.625,0.75,0.875,1.),(0.,1.00600003209375),.UNSPECIFIED.);
#13=CIRCLE('',#115,0.010925);
#14=CIRCLE('',#116,0.010925);
#15=CIRCLE('',#118,0.04445);
#16=CIRCLE('',#119,0.0164078097469151);
#17=CYLINDRICAL_SURFACE('',#114,0.010925);
#18=ORIENTED_EDGE('',*,*,#42,.F.);
#19=ORIENTED_EDGE('',*,*,#43,.F.);
#20=ORIENTED_EDGE('',*,*,#44,.T.);
#21=ORIENTED_EDGE('',*,*,#45,.T.);
#22=ORIENTED_EDGE('',*,*,#43,.T.);
#23=ORIENTED_EDGE('',*,*,#46,.F.);
#24=ORIENTED_EDGE('',*,*,#47,.F.);
#25=ORIENTED_EDGE('',*,*,#48,.T.);
#26=ORIENTED_EDGE('',*,*,#47,.T.);
#27=ORIENTED_EDGE('',*,*,#49,.F.);
#28=ORIENTED_EDGE('',*,*,#50,.F.);
#29=ORIENTED_EDGE('',*,*,#51,.T.);
#30=ORIENTED_EDGE('',*,*,#50,.T.);
#31=ORIENTED_EDGE('',*,*,#52,.F.);
#32=ORIENTED_EDGE('',*,*,#45,.F.);
#33=ORIENTED_EDGE('',*,*,#53,.T.);
#34=ORIENTED_EDGE('',*,*,#42,.T.);
#35=ORIENTED_EDGE('',*,*,#52,.T.);
#36=ORIENTED_EDGE('',*,*,#49,.T.);
#37=ORIENTED_EDGE('',*,*,#46,.T.);
#38=ORIENTED_EDGE('',*,*,#44,.F.);
#39=ORIENTED_EDGE('',*,*,#48,.F.);
#40=ORIENTED_EDGE('',*,*,#51,.F.);
#41=ORIENTED_EDGE('',*,*,#53,.F.);
#42=EDGE_CURVE('',#54,#55,#62,.T.);
#43=EDGE_CURVE('',#56,#54,#63,.T.);
#44=EDGE_CURVE('',#56,#57,#64,.F.);
#45=EDGE_CURVE('',#57,#55,#65,.T.);
#46=EDGE_CURVE('',#58,#54,#13,.F.);
#47=EDGE_CURVE('',#59,#58,#66,.T.);
#48=EDGE_CURVE('',#59,#56,#14,.F.);
#49=EDGE_CURVE('',#60,#58,#67,.F.);
#50=EDGE_CURVE('',#61,#60,#68,.T.);
#51=EDGE_CURVE('',#61,#59,#69,.F.);
#52=EDGE_CURVE('',#55,#60,#15,.T.);
#53=EDGE_CURVE('',#57,#61,#16,.T.);
#54=VERTEX_POINT('',#153);
#55=VERTEX_POINT('',#154);
#56=VERTEX_POINT('',#156);
#57=VERTEX_POINT('',#158);
#58=VERTEX_POINT('',#162);
#59=VERTEX_POINT('',#164);
#60=VERTEX_POINT('',#168);
#61=VERTEX_POINT('',#170);
#62=LINE('',#152,#70);
#63=LINE('',#155,#71);
#64=LINE('',#157,#72);
#65=LINE('',#159,#73);
#66=LINE('',#163,#74);
#67=LINE('',#167,#75);
#68=LINE('',#169,#76);
#69=LINE('',#171,#77);
#70=VECTOR('',#126,1.);
#71=VECTOR('',#127,1.);
#72=VECTOR('',#128,1.);
#73=VECTOR('',#129,1.);
#74=VECTOR('',#134,1.);
#75=VECTOR('',#139,1.);
#76=VECTOR('',#140,1.);
#77=VECTOR('',#141,1.);
#78=EDGE_LOOP('',(#18,#19,#20,#21));
#79=EDGE_LOOP('',(#22,#23,#24,#25));
#80=EDGE_LOOP('',(#26,#27,#28,#29));
#81=EDGE_LOOP('',(#30,#31,#32,#33));
#82=EDGE_LOOP('',(#34,#35,#36,#37));
#83=EDGE_LOOP('',(#38,#39,#40,#41));
#84=FACE_BOUND('',#78,.T.);
#85=FACE_BOUND('',#79,.T.);
#86=FACE_BOUND('',#80,.T.);
#87=FACE_BOUND('',#81,.T.);
#88=FACE_BOUND('',#82,.T.);
#89=FACE_BOUND('',#83,.T.);
#90=PLANE('',#113);
#91=PLANE('',#117);
#92=PLANE('',#120);
#93=PLANE('',#121);
#94=ADVANCED_FACE('',(#84),#90,.F.);
#95=ADVANCED_FACE('',(#85),#17,.F.);
#96=ADVANCED_FACE('',(#86),#91,.F.);
#97=ADVANCED_FACE('',(#87),#12,.T.);
#98=ADVANCED_FACE('',(#88),#92,.T.);
#99=ADVANCED_FACE('',(#89),#93,.F.);
#100=CLOSED_SHELL('',(#94,#95,#96,#97,#98,#99));
#101=STYLED_ITEM('',(#102),#109);
#102=PRESENTATION_STYLE_ASSIGNMENT((#103));
#103=SURFACE_STYLE_USAGE(.BOTH.,#104);
#104=SURFACE_SIDE_STYLE('',(#105));
#105=SURFACE_STYLE_FILL_AREA(#106);
#106=FILL_AREA_STYLE('',(#107));
#107=FILL_AREA_STYLE_COLOUR('',#108);
#108=COLOUR_RGB('',0.6,0.6,0.6);
#109=MANIFOLD_SOLID_BREP('Rear Core1',#100);
#110=SHAPE_DEFINITION_REPRESENTATION(#254,#111);
#111=SHAPE_REPRESENTATION('Rear Core1',(#112),#249);
#112=AXIS2_PLACEMENT_3D('',#150,#122,#123);
#113=AXIS2_PLACEMENT_3D('',#151,#124,#125);
#114=AXIS2_PLACEMENT_3D('',#160,#130,#131);
#115=AXIS2_PLACEMENT_3D('',#161,#132,#133);
#116=AXIS2_PLACEMENT_3D('',#165,#135,#136);
#117=AXIS2_PLACEMENT_3D('',#166,#137,#138);
#118=AXIS2_PLACEMENT_3D('',#244,#142,#143);
#119=AXIS2_PLACEMENT_3D('',#245,#144,#145);
#120=AXIS2_PLACEMENT_3D('',#246,#146,#147);
#121=AXIS2_PLACEMENT_3D('',#247,#148,#149);
#122=DIRECTION('',(0.,0.,1.));
#123=DIRECTION('',(1.,0.,0.));
#124=DIRECTION('',(-0.90408400333547,-1.41824780290889E-16,-0.427354788101069));
#125=DIRECTION('',(-0.427354788101069,0.,0.90408400333547));
#126=DIRECTION('',(-0.427354788101069,0.,0.90408400333547));
#127=DIRECTION('',(1.13826999736011E-16,-1.,9.10615997888088E-17));
#128=DIRECTION('',(0.427354788101069,0.,-0.90408400333547));
#129=DIRECTION('',(-0.00537315199844356,-0.999920956115835,0.0113670910085465));
#130=DIRECTION('',(0.,-1.,0.));
#131=DIRECTION('',(0.,0.,-1.));
#132=DIRECTION('',(0.,-1.,0.));
#133=DIRECTION('',(0.,0.,-1.));
#134=DIRECTION('',(4.78073398891246E-16,-1.,0.));
#135=DIRECTION('',(0.,-1.,0.));
#136=DIRECTION('',(0.,0.,-1.));
#137=DIRECTION('',(-1.,-4.78073398891246E-16,-1.85488530610631E-16));
#138=DIRECTION('',(4.78073398891246E-16,-1.,0.));
#139=DIRECTION('',(1.22784284209876E-16,0.,-1.));
#140=DIRECTION('',(3.18205743936168E-16,-0.924139103292404,-0.382056170956459));
#141=DIRECTION('',(1.85488530610631E-16,0.,-1.));
#142=DIRECTION('',(0.,-1.,0.));
#143=DIRECTION('',(0.,0.,-1.));
#144=DIRECTION('',(0.,-1.,0.));
#145=DIRECTION('',(0.,0.,-1.));
#146=DIRECTION('',(0.,-1.,0.));
#147=DIRECTION('',(1.,0.,0.));
#148=DIRECTION('',(0.,-1.,0.));
#149=DIRECTION('',(1.,0.,0.));
#150=CARTESIAN_POINT('',(0.,0.,0.));
#151=CARTESIAN_POINT('',(0.0201047773708294,3.15386139218867E-18,0.00950340105723766));
#152=CARTESIAN_POINT('',(-0.0132247283150881,0.,0.0800131362204019));
#153=CARTESIAN_POINT('',(-0.00987711835768823,0.,0.0729311502542684));
#154=CARTESIAN_POINT('',(-0.016572338272488,0.,0.0870951221865354));
#155=CARTESIAN_POINT('',(-0.00987711835768825,0.1524,0.0729311502542684));
#156=CARTESIAN_POINT('',(-0.00987711835768825,0.1524,0.0729311502542684));
#157=CARTESIAN_POINT('',(-0.0128152617669803,0.1524,0.0791468954145128));
#158=CARTESIAN_POINT('',(-0.0157534051762723,0.1524,0.0853626405747571));
#159=CARTESIAN_POINT('',(-0.0161628717243801,0.0762,0.0862288813806463));
#160=CARTESIAN_POINT('',(6.39679281766448E-18,0.1524,0.0776));
#161=CARTESIAN_POINT('',(-8.02309607639273E-18,0.,0.0776));
#162=CARTESIAN_POINT('',(-0.00139999999999993,0.,0.0667650738350462));
#163=CARTESIAN_POINT('',(-0.0014,0.1524,0.0667650738350462));
#164=CARTESIAN_POINT('',(-0.0014,0.1524,0.0667650738350462));
#165=CARTESIAN_POINT('',(6.39679281766448E-18,0.1524,0.0776));
#166=CARTESIAN_POINT('',(-0.00139999999999991,-6.69302758447704E-19,-2.59683942854868E-19));
#167=CARTESIAN_POINT('',(-0.00139999999999994,0.,0.0340935632747909));
#168=CARTESIAN_POINT('',(-0.00139999999999994,6.93889390390723E-18,0.00142205271453568));
#169=CARTESIAN_POINT('',(-0.00139999999999997,0.0762,0.0329245398651858));
#170=CARTESIAN_POINT('',(-0.0014,0.1524,0.0644270270158358));
#171=CARTESIAN_POINT('',(-0.0014,0.1524,0.065596050425441));
#172=CARTESIAN_POINT('',(-0.0157534051762723,0.1524,0.0853626405747571));
#173=CARTESIAN_POINT('',(-0.0160280207499642,0.101295198369638,0.0859435994271074));
#174=CARTESIAN_POINT('',(-0.016302636323656,0.0501903967392753,0.0865245582794577));
#175=CARTESIAN_POINT('',(-0.0165772518973479,-0.00091440489108711,0.087105517131808));
#176=CARTESIAN_POINT('',(-0.0160915039457942,0.1524,0.0842016501224579));
#177=CARTESIAN_POINT('',(-0.0178248718108265,0.101295198369638,0.0845402448856988));
#178=CARTESIAN_POINT('',(-0.0195582396758588,0.0501903967392753,0.0848788396489398));
#179=CARTESIAN_POINT('',(-0.0212916075408911,-0.00091440489108711,0.0852174344121808));
#180=CARTESIAN_POINT('',(-0.0163007254251464,0.1524,0.083003178786471));
#181=CARTESIAN_POINT('',(-0.0194269740310172,0.101295198369638,0.0828415017389055));
#182=CARTESIAN_POINT('',(-0.022553222636888,0.0501903967392753,0.0826798246913401));
#183=CARTESIAN_POINT('',(-0.0256794712427588,-0.00091440489108711,0.0825181476437746));
#184=CARTESIAN_POINT('',(-0.0164512611788422,0.1524,0.0805894313711457));
#185=CARTESIAN_POINT('',(-0.0220677248834893,0.101295198369638,0.0789949999925912));
#186=CARTESIAN_POINT('',(-0.0276841885881363,0.0501903967392753,0.0774005686140367));
#187=CARTESIAN_POINT('',(-0.0333006522927834,-0.00091440489108711,0.0758061372354822));
#188=CARTESIAN_POINT('',(-0.0163925694479791,0.1524,0.0793742512774664));
#189=CARTESIAN_POINT('',(-0.023105799467386,0.101295198369638,0.0768478079618455));
#190=CARTESIAN_POINT('',(-0.0298190294867928,0.0501903967392753,0.0743213646462246));
#191=CARTESIAN_POINT('',(-0.0365322595061997,-0.00091440489108711,0.0717949213306038));
#192=CARTESIAN_POINT('',(-0.0160101148701111,0.1524,0.0769862466514248));
#193=CARTESIAN_POINT('',(-0.0244961394046419,0.101295198369638,0.072297828258693));
#194=CARTESIAN_POINT('',(-0.0329821639391726,0.0501903967392753,0.0676094098659612));
#195=CARTESIAN_POINT('',(-0.0414681884737033,-0.00091440489108711,0.0629209914732294));
#196=CARTESIAN_POINT('',(-0.0156863672187559,0.1524,0.0758135169990375));
#197=CARTESIAN_POINT('',(-0.0248480462816951,0.101295198369638,0.0698957676637319));
#198=CARTESIAN_POINT('',(-0.0340097253446344,0.0501903967392753,0.0639780183284263));
#199=CARTESIAN_POINT('',(-0.0431714044075737,-0.00091440489108711,0.0580602689931207));
#200=CARTESIAN_POINT('',(-0.0147895415040402,0.1524,0.0735675113811562));
#201=CARTESIAN_POINT('',(-0.0248109628447443,0.101295198369638,0.0650607762748949));
#202=CARTESIAN_POINT('',(-0.0348323841854484,0.0501903967392753,0.0565540411686335));
#203=CARTESIAN_POINT('',(-0.0448538055261525,-0.00091440489108711,0.0480473060623721));
#204=CARTESIAN_POINT('',(-0.0142164990732753,0.1524,0.072494324653746));
#205=CARTESIAN_POINT('',(-0.0244218709296211,0.101295198369638,0.0626286538384279));
#206=CARTESIAN_POINT('',(-0.0346272427859668,0.0501903967392753,0.0527629830231098));
#207=CARTESIAN_POINT('',(-0.0448326146423126,-0.00091440489108711,0.0428973122077917));
#208=CARTESIAN_POINT('',(-0.0128489627596559,0.1524,0.0704996612663393));
#209=CARTESIAN_POINT('',(-0.0229220078464006,0.101295198369638,0.0579662136920371));
#210=CARTESIAN_POINT('',(-0.0329950529331453,0.0501903967392753,0.0454327661177349));
#211=CARTESIAN_POINT('',(-0.04306809801989,-0.00091440489108711,0.0328993185434327));
#212=CARTESIAN_POINT('',(-0.0120545232116259,0.1524,0.0695782638581206));
#213=CARTESIAN_POINT('',(-0.0218114052273446,0.101295198369638,0.0557366964709883));
#214=CARTESIAN_POINT('',(-0.0315682872430633,0.0501903967392753,0.0418951290838561));
#215=CARTESIAN_POINT('',(-0.041325169258782,-0.00091440489108711,0.0280535616967238));
#216=CARTESIAN_POINT('',(-0.0102828526362104,0.1524,0.0679320497255313));
#217=CARTESIAN_POINT('',(-0.0189610632596837,0.101295198369638,0.0516956049852005));
#218=CARTESIAN_POINT('',(-0.027639273883157,0.0501903967392753,0.0354591602448697));
#219=CARTESIAN_POINT('',(-0.0363174845066302,-0.00091440489108711,0.0192227155045389));
#220=CARTESIAN_POINT('',(-0.00930569200067393,0.1524,0.0672072984083859));
#221=CARTESIAN_POINT('',(-0.0172217456007637,0.101295198369638,0.0498847346572049));
#222=CARTESIAN_POINT('',(-0.0251377992008536,0.0501903967392753,0.0325621709060238));
#223=CARTESIAN_POINT('',(-0.0330538528009434,-0.00091440489108711,0.0152396071548428));
#224=CARTESIAN_POINT('',(-0.00721613813632399,0.1524,0.0659896768554763));
#225=CARTESIAN_POINT('',(-0.0132708915559148,0.101295198369638,0.0468576303566536));
#226=CARTESIAN_POINT('',(-0.0193256449755057,0.0501903967392753,0.0277255838578309));
#227=CARTESIAN_POINT('',(-0.0253803983950965,-0.00091440489108711,0.00859353735900815));
#228=CARTESIAN_POINT('',(-0.00610382792946837,0.1524,0.0654968549981375));
#229=CARTESIAN_POINT('',(-0.0110599845482666,0.101295198369638,0.0456419255924561));
#230=CARTESIAN_POINT('',(-0.0160161411670648,0.0501903967392753,0.0257869961867747));
#231=CARTESIAN_POINT('',(-0.020972297785863,-0.00091440489108711,0.00593206678109331));
#232=CARTESIAN_POINT('',(-0.00379811739294189,0.1524,0.0647671039995904));
#233=CARTESIAN_POINT('',(-0.00637127581787032,0.101295198369638,0.0439236125069765));
#234=CARTESIAN_POINT('',(-0.00894443424279875,0.0501903967392753,0.0230801210143625));
#235=CARTESIAN_POINT('',(-0.0115175926677272,-0.00091440489108711,0.00223662952174852));
#236=CARTESIAN_POINT('',(-0.00260480875954686,0.1524,0.0645302038601454));
#237=CARTESIAN_POINT('',(-0.00389424309137646,0.101295198369638,0.0434212998853897));
#238=CARTESIAN_POINT('',(-0.00518367742320607,0.0501903967392753,0.022312395910634));
#239=CARTESIAN_POINT('',(-0.00647311175503567,-0.00091440489108711,0.00120349193587828));
#240=CARTESIAN_POINT('',(-0.0014,0.1524,0.0644270270158358));
#241=CARTESIAN_POINT('',(-0.00139999999999998,0.101295198369638,0.0432993582927779));
#242=CARTESIAN_POINT('',(-0.00139999999999996,0.0501903967392753,0.0221716895697201));
#243=CARTESIAN_POINT('',(-0.00139999999999994,-0.00091440489108711,0.0010440208466622));
#244=CARTESIAN_POINT('',(-1.77809156287623E-17,0.,0.04585));
#245=CARTESIAN_POINT('',(7.80625564189563E-18,0.1524,0.080775));
#246=CARTESIAN_POINT('',(0.,0.,0.04585));
#247=CARTESIAN_POINT('',(-3.46944695195361E-18,0.1524,0.0759179731108623));
#248=MECHANICAL_DESIGN_GEOMETRIC_PRESENTATION_REPRESENTATION('',(#101),
#249);
#249=(
GEOMETRIC_REPRESENTATION_CONTEXT(3)
GLOBAL_UNCERTAINTY_ASSIGNED_CONTEXT((#250))
GLOBAL_UNIT_ASSIGNED_CONTEXT((#253,#252,#251))
REPRESENTATION_CONTEXT('Rear Core1','TOP_LEVEL_ASSEMBLY_PART')
);
#250=UNCERTAINTY_MEASURE_WITH_UNIT(LENGTH_MEASURE(1.E-8),#253,
'DISTANCE_ACCURACY_VALUE','Maximum Tolerance applied to model');
#251=(
NAMED_UNIT(*)
SI_UNIT($,.STERADIAN.)
SOLID_ANGLE_UNIT()
);
#252=(
NAMED_UNIT(*)
PLANE_ANGLE_UNIT()
SI_UNIT($,.RADIAN.)
);
#253=(
LENGTH_UNIT()
NAMED_UNIT(*)
SI_UNIT($,.METRE.)
);
#254=PRODUCT_DEFINITION_SHAPE('','',#255);
#255=PRODUCT_DEFINITION('','',#257,#256);
#256=PRODUCT_DEFINITION_CONTEXT('',#263,'design');
#257=PRODUCT_DEFINITION_FORMATION_WITH_SPECIFIED_SOURCE('','',#259,
 .NOT_KNOWN.);
#258=PRODUCT_RELATED_PRODUCT_CATEGORY('','',(#259));
#259=PRODUCT('Rear Core1','Rear Core1','Rear Core1',(#261));
#260=PRODUCT_CATEGORY('','');
#261=PRODUCT_CONTEXT('',#263,'mechanical');
#262=APPLICATION_PROTOCOL_DEFINITION('international standard',
'ap242_managed_model_based_3d_engineering',2020,#263);
#263=APPLICATION_CONTEXT('managed model based 3d engineering');
ENDSEC;
END-ISO-10303-21;
