ISO-10303-21;
HEADER;
/* Generated by software containing ST-Developer
 * from STEP Tools, Inc. (www.steptools.com) 
 */
/* OPTION: using custom renumber hook */

FILE_DESCRIPTION(
/* description */ ('STEP AP242 Edition 2',
'CAx-IF Rec.Pracs.---Representation and Presentation of Product Manufa
cturing Information (PMI)---4.0---2014-10-13',
'CAx-IF Rec.Pracs.---3D Tessellated Geometry---0.4---2014-09-14','2;1',
'CAx-IF Rec.Pracs.---User Defined Attributes---1.5---2016-08-15'),
/* implementation_level */ '2;1');

FILE_NAME(
/* name */ 'Pontoons - Rear Pontoon1',
/* time_stamp */ '2026-08-24T02:49:17Z',
/* author */ (''),
/* organization */ (''),
/* preprocessor_version */ 'ST-DEVELOPER v20',
/* originating_system */ 'ONSHAPE BY PTC INC, 1.219',
/* authorisation */ '  ');

FILE_SCHEMA (('AP242_MANAGED_MODEL_BASED_3D_ENGINEERING_MIM_LF { 1 0 10303 442 3 1 4 }'));
ENDSEC;

DATA;
#10=SHAPE_REPRESENTATION_RELATIONSHIP('','',#265,#11);
#11=ADVANCED_BREP_SHAPE_REPRESENTATION('',(#263),#1039);
#12=CYLINDRICAL_SURFACE('',#280,0.009525);
#13=CYLINDRICAL_SURFACE('',#283,0.010925);
#14=B_SPLINE_SURFACE_WITH_KNOTS('',3,1,((#371,#372),(#373,#374),(#375,#376),
(#377,#378),(#379,#380),(#381,#382),(#383,#384),(#385,#386),(#387,#388),
(#389,#390),(#391,#392),(#393,#394),(#395,#396),(#397,#398),(#399,#400),
(#401,#402),(#403,#404),(#405,#406),(#407,#408),(#409,#410),(#411,#412),
(#413,#414),(#415,#416),(#417,#418),(#419,#420),(#421,#422),(#423,#424),
(#425,#426),(#427,#428),(#429,#430),(#431,#432),(#433,#434),(#435,#436)),
 .RULED_SURF.,.F.,.F.,.F.,(4,1,1,2,2,1,2,2,2,2,2,2,2,2,2,2,1,1,4),(2,2),
(0.,0.0312499999999984,0.039062499999998,0.0429687499999976,0.0449218749999976,
0.0468749999999977,0.0624999999999976,0.124999999999997,0.249999999999996,
0.374999999999994,0.499999999999993,0.624999999999992,0.749999999999991,
0.87499999999999,0.890624999999989,0.89843749999999,0.90624999999999,0.9375,
1.),(0.,1.),.UNSPECIFIED.);
#15=B_SPLINE_SURFACE_WITH_KNOTS('',1,3,((#495,#496,#497,#498,#499,#500,
#501,#502,#503,#504,#505,#506,#507,#508,#509,#510,#511,#512,#513,#514,#515,
#516,#517,#518,#519,#520,#521,#522,#523,#524,#525,#526,#527,#528,#529,#530,
#531,#532,#533,#534),(#535,#536,#537,#538,#539,#540,#541,#542,#543,#544,
#545,#546,#547,#548,#549,#550,#551,#552,#553,#554,#555,#556,#557,#558,#559,
#560,#561,#562,#563,#564,#565,#566,#567,#568,#569,#570,#571,#572,#573,#574),
(#575,#576,#577,#578,#579,#580,#581,#582,#583,#584,#585,#586,#587,#588,
#589,#590,#591,#592,#593,#594,#595,#596,#597,#598,#599,#600,#601,#602,#603,
#604,#605,#606,#607,#608,#609,#610,#611,#612,#613,#614)),.RULED_SURF.,.F.,
 .F.,.F.,(2,1,2),(4,3,2,2,2,2,2,2,2,2,2,2,2,2,2,2,2,3,4),(-0.01,0.,1.),
(3.49488184605956,3.52365079677613,3.69415287413399,3.86465495149186,4.03515702884973,
4.2056591062076,4.37616118356547,4.54666326092334,4.71716533828121,4.88766741563907,
5.05816949299694,5.22867157035481,5.39917364771268,5.56967572507055,5.74017780242842,
5.91067987978629,6.08118195714415,6.25168403450202,6.28319516466401),
 .UNSPECIFIED.);
#16=B_SPLINE_SURFACE_WITH_KNOTS('',3,3,((#648,#649,#650,#651,#652,#653,
#654),(#655,#656,#657,#658,#659,#660,#661),(#662,#663,#664,#665,#666,#667,
#668),(#669,#670,#671,#672,#673,#674,#675),(#676,#677,#678,#679,#680,#681,
#682),(#683,#684,#685,#686,#687,#688,#689),(#690,#691,#692,#693,#694,#695,
#696),(#697,#698,#699,#700,#701,#702,#703),(#704,#705,#706,#707,#708,#709,
#710),(#711,#712,#713,#714,#715,#716,#717),(#718,#719,#720,#721,#722,#723,
#724),(#725,#726,#727,#728,#729,#730,#731),(#732,#733,#734,#735,#736,#737,
#738),(#739,#740,#741,#742,#743,#744,#745),(#746,#747,#748,#749,#750,#751,
#752),(#753,#754,#755,#756,#757,#758,#759),(#760,#761,#762,#763,#764,#765,
#766),(#767,#768,#769,#770,#771,#772,#773),(#774,#775,#776,#777,#778,#779,
#780),(#781,#782,#783,#784,#785,#786,#787),(#788,#789,#790,#791,#792,#793,
#794),(#795,#796,#797,#798,#799,#800,#801),(#802,#803,#804,#805,#806,#807,
#808),(#809,#810,#811,#812,#813,#814,#815),(#816,#817,#818,#819,#820,#821,
#822),(#823,#824,#825,#826,#827,#828,#829),(#830,#831,#832,#833,#834,#835,
#836),(#837,#838,#839,#840,#841,#842,#843),(#844,#845,#846,#847,#848,#849,
#850),(#851,#852,#853,#854,#855,#856,#857),(#858,#859,#860,#861,#862,#863,
#864),(#865,#866,#867,#868,#869,#870,#871),(#872,#873,#874,#875,#876,#877,
#878)),.UNSPECIFIED.,.F.,.F.,.F.,(4,1,1,1,1,1,1,1,1,1,1,1,1,1,1,1,1,1,1,
1,1,1,1,1,1,1,1,1,1,1,4),(4,1,1,1,4),(-0.127069869233409,-0.0595052452514491,
-0.0349362910761911,-0.0195806947166548,-0.00729621762902581,0.00191714018669595,
0.0111304980024177,0.0234149750900467,0.038770571449583,0.063339525624841,
0.0940507183439135,0.1309041496068,0.180042057957317,0.241464443395461,
0.315171305921236,0.38887816844701,0.462585030972784,0.536291893498558,
0.609998756024332,0.683705618550106,0.75741248107588,0.818834866514025,
0.867972774864541,0.904826206127428,0.9355373988465,0.960106353021759,0.975461949381295,
0.987746426468924,1.00003090355655,1.01538649991609,1.05223993117898),(-9.59640471877602E-16,
0.249999994733075,0.374999992099613,0.541666655254996,0.999999978932302),
 .UNSPECIFIED.);
#17=B_SPLINE_SURFACE_WITH_KNOTS('',3,1,((#899,#900),(#901,#902),(#903,#904),
(#905,#906),(#907,#908),(#909,#910),(#911,#912),(#913,#914),(#915,#916),
(#917,#918),(#919,#920),(#921,#922),(#923,#924),(#925,#926),(#927,#928),
(#929,#930),(#931,#932),(#933,#934),(#935,#936),(#937,#938),(#939,#940),
(#941,#942),(#943,#944),(#945,#946),(#947,#948),(#949,#950),(#951,#952),
(#953,#954),(#955,#956),(#957,#958),(#959,#960),(#961,#962),(#963,#964),
(#965,#966),(#967,#968),(#969,#970),(#971,#972),(#973,#974),(#975,#976),
(#977,#978),(#979,#980),(#981,#982),(#983,#984),(#985,#986),(#987,#988),
(#989,#990),(#991,#992),(#993,#994),(#995,#996),(#997,#998),(#999,#1000),
(#1001,#1002),(#1003,#1004),(#1005,#1006),(#1007,#1008),(#1009,#1010),(#1011,
#1012),(#1013,#1014),(#1015,#1016),(#1017,#1018),(#1019,#1020),(#1021,#1022),
(#1023,#1024),(#1025,#1026),(#1027,#1028),(#1029,#1030)),.RULED_SURF.,.F.,
 .F.,.F.,(4,2,2,2,2,2,2,2,2,2,2,2,2,2,2,2,2,2,2,2,2,2,2,2,2,2,2,2,2,2,2,
2,4),(2,2),(0.,0.03125,0.0625,0.09375,0.125,0.15625,0.1875,0.21875,0.25,
0.28125,0.3125,0.34375,0.375,0.40625,0.4375,0.46875,0.5,0.53125,0.5625,
0.59375,0.625,0.65625,0.6875,0.71875,0.75,0.78125,0.8125,0.84375,0.875,
0.90625,0.9375,0.96875,1.),(0.,1.),.UNSPECIFIED.);
#18=B_SPLINE_CURVE_WITH_KNOTS('',3,(#346,#347,#348,#349),.UNSPECIFIED.,
 .F.,.F.,(4,4),(0.,1.),.UNSPECIFIED.);
#19=B_SPLINE_CURVE_WITH_KNOTS('',3,(#357,#358,#359,#360),.UNSPECIFIED.,
 .F.,.F.,(4,4),(0.,1.),.UNSPECIFIED.);
#20=B_SPLINE_CURVE_WITH_KNOTS('',3,(#362,#363,#364,#365),.UNSPECIFIED.,
 .F.,.F.,(4,4),(0.,1.),.UNSPECIFIED.);
#21=B_SPLINE_CURVE_WITH_KNOTS('',3,(#367,#368,#369,#370),.UNSPECIFIED.,
 .F.,.F.,(4,4),(0.371484032677018,0.371583837324697),.UNSPECIFIED.);
#22=B_SPLINE_CURVE_WITH_KNOTS('',3,(#438,#439,#440,#441),.UNSPECIFIED.,
 .F.,.F.,(4,4),(0.,1.),.UNSPECIFIED.);
#23=B_SPLINE_CURVE_WITH_KNOTS('',3,(#443,#444,#445,#446,#447,#448,#449,
#450,#451,#452,#453,#454,#455,#456,#457,#458,#459,#460,#461),
 .UNSPECIFIED.,.F.,.F.,(4,1,1,1,1,1,1,1,1,1,1,1,1,1,1,1,4),(0.,0.03125,
0.046875,0.0625,0.125,0.25,0.375,0.5,0.625,0.75,0.8125,0.84375,0.875,0.890625,
0.90625,0.9375,1.),.UNSPECIFIED.);
#24=B_SPLINE_CURVE_WITH_KNOTS('',3,(#470,#471,#472,#473),.UNSPECIFIED.,
 .F.,.F.,(4,4),(0.,1.),.UNSPECIFIED.);
#25=B_SPLINE_CURVE_WITH_KNOTS('',3,(#481,#482,#483,#484),.UNSPECIFIED.,
 .F.,.F.,(4,4),(0.,1.),.UNSPECIFIED.);
#26=B_SPLINE_CURVE_WITH_KNOTS('',3,(#486,#487,#488,#489),.UNSPECIFIED.,
 .F.,.F.,(4,4),(0.,1.),.UNSPECIFIED.);
#27=B_SPLINE_CURVE_WITH_KNOTS('',3,(#491,#492,#493,#494),.UNSPECIFIED.,
 .F.,.F.,(4,4),(0.265995195369938,0.2665735686462),.UNSPECIFIED.);
#28=B_SPLINE_CURVE_WITH_KNOTS('',3,(#616,#617,#618,#619),.UNSPECIFIED.,
 .F.,.F.,(4,4),(0.,1.),.UNSPECIFIED.);
#29=B_SPLINE_CURVE_WITH_KNOTS('',3,(#621,#622,#623,#624,#625,#626,#627,
#628,#629,#630,#631,#632,#633,#634,#635,#636,#637),.UNSPECIFIED.,.F.,.F.,
(4,1,1,1,1,1,1,1,1,1,1,1,1,1,4),(0.,0.03125,0.0625,0.125,0.1875,0.25,0.375,
0.5,0.625,0.75,0.8125,0.875,0.9375,0.96875,1.),.UNSPECIFIED.);
#30=B_SPLINE_CURVE_WITH_KNOTS('',3,(#639,#640,#641,#642),.UNSPECIFIED.,
 .F.,.F.,(4,4),(0.219132424184325,0.219147718566673),.UNSPECIFIED.);
#31=B_SPLINE_CURVE_WITH_KNOTS('',3,(#644,#645,#646,#647),.UNSPECIFIED.,
 .F.,.F.,(4,4),(0.430875376493921,0.431449222165342),.UNSPECIFIED.);
#32=B_SPLINE_CURVE_WITH_KNOTS('',3,(#879,#880,#881,#882,#883),
 .UNSPECIFIED.,.F.,.F.,(4,1,4),(0.2665735686462,0.348724472570061,0.430875376493921),
 .UNSPECIFIED.);
#33=B_SPLINE_CURVE_WITH_KNOTS('',3,(#884,#885,#886,#887,#888,#889,#890,
#891,#892,#893),.UNSPECIFIED.,.F.,.F.,(4,1,1,1,1,1,1,4),(0.219147718566673,
0.257231797094259,0.295315875621845,0.314357914885639,0.333399954149432,
0.352441993413225,0.361963013045121,0.371484032677018),.UNSPECIFIED.);
#34=CIRCLE('',#268,0.009525);
#35=CIRCLE('',#269,0.010925);
#36=CIRCLE('',#271,0.0164078097469151);
#37=CIRCLE('',#273,0.009525);
#38=CIRCLE('',#274,0.010925);
#39=CIRCLE('',#276,0.04445);
#40=ORIENTED_EDGE('',*,*,#112,.F.);
#41=ORIENTED_EDGE('',*,*,#113,.F.);
#42=ORIENTED_EDGE('',*,*,#114,.F.);
#43=ORIENTED_EDGE('',*,*,#115,.F.);
#44=ORIENTED_EDGE('',*,*,#116,.T.);
#45=ORIENTED_EDGE('',*,*,#117,.T.);
#46=ORIENTED_EDGE('',*,*,#118,.T.);
#47=ORIENTED_EDGE('',*,*,#119,.T.);
#48=ORIENTED_EDGE('',*,*,#119,.F.);
#49=ORIENTED_EDGE('',*,*,#120,.T.);
#50=ORIENTED_EDGE('',*,*,#121,.F.);
#51=ORIENTED_EDGE('',*,*,#120,.F.);
#52=ORIENTED_EDGE('',*,*,#122,.T.);
#53=ORIENTED_EDGE('',*,*,#123,.T.);
#54=ORIENTED_EDGE('',*,*,#124,.F.);
#55=ORIENTED_EDGE('',*,*,#125,.T.);
#56=ORIENTED_EDGE('',*,*,#126,.T.);
#57=ORIENTED_EDGE('',*,*,#127,.T.);
#58=ORIENTED_EDGE('',*,*,#128,.F.);
#59=ORIENTED_EDGE('',*,*,#129,.F.);
#60=ORIENTED_EDGE('',*,*,#130,.F.);
#61=ORIENTED_EDGE('',*,*,#131,.F.);
#62=ORIENTED_EDGE('',*,*,#132,.T.);
#63=ORIENTED_EDGE('',*,*,#132,.F.);
#64=ORIENTED_EDGE('',*,*,#133,.T.);
#65=ORIENTED_EDGE('',*,*,#134,.T.);
#66=ORIENTED_EDGE('',*,*,#133,.F.);
#67=ORIENTED_EDGE('',*,*,#135,.F.);
#68=ORIENTED_EDGE('',*,*,#136,.T.);
#69=ORIENTED_EDGE('',*,*,#137,.T.);
#70=ORIENTED_EDGE('',*,*,#136,.F.);
#71=ORIENTED_EDGE('',*,*,#128,.T.);
#72=ORIENTED_EDGE('',*,*,#138,.F.);
#73=ORIENTED_EDGE('',*,*,#123,.F.);
#74=ORIENTED_EDGE('',*,*,#115,.T.);
#75=ORIENTED_EDGE('',*,*,#139,.F.);
#76=ORIENTED_EDGE('',*,*,#140,.T.);
#77=ORIENTED_EDGE('',*,*,#137,.F.);
#78=ORIENTED_EDGE('',*,*,#141,.F.);
#79=ORIENTED_EDGE('',*,*,#124,.T.);
#80=ORIENTED_EDGE('',*,*,#139,.T.);
#81=ORIENTED_EDGE('',*,*,#142,.T.);
#82=ORIENTED_EDGE('',*,*,#125,.F.);
#83=ORIENTED_EDGE('',*,*,#134,.F.);
#84=ORIENTED_EDGE('',*,*,#140,.F.);
#85=ORIENTED_EDGE('',*,*,#114,.T.);
#86=ORIENTED_EDGE('',*,*,#143,.T.);
#87=ORIENTED_EDGE('',*,*,#126,.F.);
#88=ORIENTED_EDGE('',*,*,#142,.F.);
#89=ORIENTED_EDGE('',*,*,#113,.T.);
#90=ORIENTED_EDGE('',*,*,#127,.F.);
#91=ORIENTED_EDGE('',*,*,#143,.F.);
#92=ORIENTED_EDGE('',*,*,#112,.T.);
#93=ORIENTED_EDGE('',*,*,#121,.T.);
#94=ORIENTED_EDGE('',*,*,#141,.T.);
#95=ORIENTED_EDGE('',*,*,#138,.T.);
#96=ORIENTED_EDGE('',*,*,#144,.F.);
#97=ORIENTED_EDGE('',*,*,#122,.F.);
#98=ORIENTED_EDGE('',*,*,#145,.T.);
#99=ORIENTED_EDGE('',*,*,#135,.T.);
#100=ORIENTED_EDGE('',*,*,#146,.F.);
#101=ORIENTED_EDGE('',*,*,#116,.F.);
#102=ORIENTED_EDGE('',*,*,#144,.T.);
#103=ORIENTED_EDGE('',*,*,#131,.T.);
#104=ORIENTED_EDGE('',*,*,#147,.F.);
#105=ORIENTED_EDGE('',*,*,#117,.F.);
#106=ORIENTED_EDGE('',*,*,#146,.T.);
#107=ORIENTED_EDGE('',*,*,#130,.T.);
#108=ORIENTED_EDGE('',*,*,#129,.T.);
#109=ORIENTED_EDGE('',*,*,#145,.F.);
#110=ORIENTED_EDGE('',*,*,#118,.F.);
#111=ORIENTED_EDGE('',*,*,#147,.T.);
#112=EDGE_CURVE('',#148,#149,#168,.T.);
#113=EDGE_CURVE('',#150,#148,#34,.F.);
#114=EDGE_CURVE('',#151,#150,#169,.T.);
#115=EDGE_CURVE('',#152,#151,#18,.T.);
#116=EDGE_CURVE('',#152,#153,#170,.F.);
#117=EDGE_CURVE('',#153,#154,#35,.F.);
#118=EDGE_CURVE('',#154,#155,#171,.F.);
#119=EDGE_CURVE('',#155,#149,#19,.F.);
#120=EDGE_CURVE('',#155,#156,#20,.F.);
#121=EDGE_CURVE('',#149,#156,#21,.F.);
#122=EDGE_CURVE('',#155,#152,#36,.T.);
#123=EDGE_CURVE('',#152,#157,#22,.T.);
#124=EDGE_CURVE('',#156,#157,#23,.F.);
#125=EDGE_CURVE('',#158,#159,#172,.T.);
#126=EDGE_CURVE('',#159,#160,#37,.F.);
#127=EDGE_CURVE('',#160,#161,#173,.T.);
#128=EDGE_CURVE('',#162,#161,#24,.T.);
#129=EDGE_CURVE('',#163,#162,#174,.T.);
#130=EDGE_CURVE('',#164,#163,#38,.F.);
#131=EDGE_CURVE('',#165,#164,#175,.F.);
#132=EDGE_CURVE('',#165,#158,#25,.F.);
#133=EDGE_CURVE('',#165,#166,#26,.F.);
#134=EDGE_CURVE('',#166,#158,#27,.F.);
#135=EDGE_CURVE('',#162,#165,#39,.T.);
#136=EDGE_CURVE('',#162,#167,#28,.T.);
#137=EDGE_CURVE('',#167,#166,#29,.T.);
#138=EDGE_CURVE('',#167,#161,#30,.F.);
#139=EDGE_CURVE('',#157,#151,#31,.F.);
#140=EDGE_CURVE('',#151,#166,#32,.F.);
#141=EDGE_CURVE('',#156,#167,#33,.F.);
#142=EDGE_CURVE('',#150,#159,#176,.T.);
#143=EDGE_CURVE('',#148,#160,#177,.T.);
#144=EDGE_CURVE('',#152,#165,#178,.T.);
#145=EDGE_CURVE('',#155,#162,#179,.T.);
#146=EDGE_CURVE('',#153,#164,#180,.T.);
#147=EDGE_CURVE('',#154,#163,#181,.T.);
#148=VERTEX_POINT('',#340);
#149=VERTEX_POINT('',#341);
#150=VERTEX_POINT('',#343);
#151=VERTEX_POINT('',#345);
#152=VERTEX_POINT('',#350);
#153=VERTEX_POINT('',#352);
#154=VERTEX_POINT('',#354);
#155=VERTEX_POINT('',#356);
#156=VERTEX_POINT('',#366);
#157=VERTEX_POINT('',#442);
#158=VERTEX_POINT('',#464);
#159=VERTEX_POINT('',#465);
#160=VERTEX_POINT('',#467);
#161=VERTEX_POINT('',#469);
#162=VERTEX_POINT('',#474);
#163=VERTEX_POINT('',#476);
#164=VERTEX_POINT('',#478);
#165=VERTEX_POINT('',#480);
#166=VERTEX_POINT('',#490);
#167=VERTEX_POINT('',#620);
#168=LINE('',#339,#182);
#169=LINE('',#344,#183);
#170=LINE('',#351,#184);
#171=LINE('',#355,#185);
#172=LINE('',#463,#186);
#173=LINE('',#468,#187);
#174=LINE('',#475,#188);
#175=LINE('',#479,#189);
#176=LINE('',#895,#190);
#177=LINE('',#897,#191);
#178=LINE('',#1031,#192);
#179=LINE('',#1032,#193);
#180=LINE('',#1034,#194);
#181=LINE('',#1036,#195);
#182=VECTOR('',#289,1.);
#183=VECTOR('',#292,1.);
#184=VECTOR('',#293,1.);
#185=VECTOR('',#296,1.);
#186=VECTOR('',#303,1.);
#187=VECTOR('',#306,1.);
#188=VECTOR('',#307,1.);
#189=VECTOR('',#310,1.);
#190=VECTOR('',#321,1.);
#191=VECTOR('',#324,1.);
#192=VECTOR('',#327,1.);
#193=VECTOR('',#328,1.);
#194=VECTOR('',#331,1.);
#195=VECTOR('',#334,1.);
#196=EDGE_LOOP('',(#40,#41,#42,#43,#44,#45,#46,#47));
#197=EDGE_LOOP('',(#48,#49,#50));
#198=EDGE_LOOP('',(#51,#52,#53,#54));
#199=EDGE_LOOP('',(#55,#56,#57,#58,#59,#60,#61,#62));
#200=EDGE_LOOP('',(#63,#64,#65));
#201=EDGE_LOOP('',(#66,#67,#68,#69));
#202=EDGE_LOOP('',(#70,#71,#72));
#203=EDGE_LOOP('',(#73,#74,#75));
#204=EDGE_LOOP('',(#76,#77,#78,#79,#80));
#205=EDGE_LOOP('',(#81,#82,#83,#84,#85));
#206=EDGE_LOOP('',(#86,#87,#88,#89));
#207=EDGE_LOOP('',(#90,#91,#92,#93,#94,#95));
#208=EDGE_LOOP('',(#96,#97,#98,#99));
#209=EDGE_LOOP('',(#100,#101,#102,#103));
#210=EDGE_LOOP('',(#104,#105,#106,#107));
#211=EDGE_LOOP('',(#108,#109,#110,#111));
#212=FACE_BOUND('',#196,.T.);
#213=FACE_BOUND('',#197,.T.);
#214=FACE_BOUND('',#198,.T.);
#215=FACE_BOUND('',#199,.T.);
#216=FACE_BOUND('',#200,.T.);
#217=FACE_BOUND('',#201,.T.);
#218=FACE_BOUND('',#202,.T.);
#219=FACE_BOUND('',#203,.T.);
#220=FACE_BOUND('',#204,.T.);
#221=FACE_BOUND('',#205,.T.);
#222=FACE_BOUND('',#206,.T.);
#223=FACE_BOUND('',#207,.T.);
#224=FACE_BOUND('',#208,.T.);
#225=FACE_BOUND('',#209,.T.);
#226=FACE_BOUND('',#210,.T.);
#227=FACE_BOUND('',#211,.T.);
#228=PLANE('',#267);
#229=PLANE('',#270);
#230=PLANE('',#272);
#231=PLANE('',#275);
#232=PLANE('',#277);
#233=PLANE('',#278);
#234=PLANE('',#279);
#235=PLANE('',#281);
#236=PLANE('',#282);
#237=PLANE('',#284);
#238=ADVANCED_FACE('',(#212),#228,.T.);
#239=ADVANCED_FACE('',(#213),#229,.T.);
#240=ADVANCED_FACE('',(#214),#14,.T.);
#241=ADVANCED_FACE('',(#215),#230,.F.);
#242=ADVANCED_FACE('',(#216),#231,.F.);
#243=ADVANCED_FACE('',(#217),#15,.F.);
#244=ADVANCED_FACE('',(#218),#232,.T.);
#245=ADVANCED_FACE('',(#219),#233,.T.);
#246=ADVANCED_FACE('',(#220),#16,.T.);
#247=ADVANCED_FACE('',(#221),#234,.F.);
#248=ADVANCED_FACE('',(#222),#12,.F.);
#249=ADVANCED_FACE('',(#223),#235,.F.);
#250=ADVANCED_FACE('',(#224),#17,.F.);
#251=ADVANCED_FACE('',(#225),#236,.T.);
#252=ADVANCED_FACE('',(#226),#13,.T.);
#253=ADVANCED_FACE('',(#227),#237,.T.);
#254=CLOSED_SHELL('',(#238,#239,#240,#241,#242,#243,#244,#245,#246,#247,
#248,#249,#250,#251,#252,#253));
#255=STYLED_ITEM('',(#256),#263);
#256=PRESENTATION_STYLE_ASSIGNMENT((#257));
#257=SURFACE_STYLE_USAGE(.BOTH.,#258);
#258=SURFACE_SIDE_STYLE('',(#259));
#259=SURFACE_STYLE_FILL_AREA(#260);
#260=FILL_AREA_STYLE('',(#261));
#261=FILL_AREA_STYLE_COLOUR('',#262);
#262=COLOUR_RGB('',0.6,0.6,0.6);
#263=MANIFOLD_SOLID_BREP('Rear Pontoon1',#254);
#264=SHAPE_DEFINITION_REPRESENTATION(#1044,#265);
#265=SHAPE_REPRESENTATION('Rear Pontoon1',(#266),#1039);
#266=AXIS2_PLACEMENT_3D('',#337,#285,#286);
#267=AXIS2_PLACEMENT_3D('',#338,#287,#288);
#268=AXIS2_PLACEMENT_3D('',#342,#290,#291);
#269=AXIS2_PLACEMENT_3D('',#353,#294,#295);
#270=AXIS2_PLACEMENT_3D('',#361,#297,#298);
#271=AXIS2_PLACEMENT_3D('',#437,#299,#300);
#272=AXIS2_PLACEMENT_3D('',#462,#301,#302);
#273=AXIS2_PLACEMENT_3D('',#466,#304,#305);
#274=AXIS2_PLACEMENT_3D('',#477,#308,#309);
#275=AXIS2_PLACEMENT_3D('',#485,#311,#312);
#276=AXIS2_PLACEMENT_3D('',#615,#313,#314);
#277=AXIS2_PLACEMENT_3D('',#638,#315,#316);
#278=AXIS2_PLACEMENT_3D('',#643,#317,#318);
#279=AXIS2_PLACEMENT_3D('',#894,#319,#320);
#280=AXIS2_PLACEMENT_3D('',#896,#322,#323);
#281=AXIS2_PLACEMENT_3D('',#898,#325,#326);
#282=AXIS2_PLACEMENT_3D('',#1033,#329,#330);
#283=AXIS2_PLACEMENT_3D('',#1035,#332,#333);
#284=AXIS2_PLACEMENT_3D('',#1037,#335,#336);
#285=DIRECTION('',(0.,0.,1.));
#286=DIRECTION('',(1.,0.,0.));
#287=DIRECTION('',(-1.2822151513756E-16,1.,-6.06094989286936E-17));
#288=DIRECTION('',(0.427354788101069,0.,-0.90408400333547));
#289=DIRECTION('',(-0.427354788101069,0.,0.90408400333547));
#290=DIRECTION('',(0.,-1.,0.));
#291=DIRECTION('',(0.,0.,-1.));
#292=DIRECTION('',(-1.85488530610631E-16,-8.86771322843677E-32,1.));
#293=DIRECTION('',(1.85488530610631E-16,0.,-1.));
#294=DIRECTION('',(0.,-1.,0.));
#295=DIRECTION('',(0.,0.,-1.));
#296=DIRECTION('',(0.427354788101069,0.,-0.90408400333547));
#297=DIRECTION('',(-0.99610941949843,-0.0381614432816827,-0.0794338003192643));
#298=DIRECTION('',(0.0380406824486132,-0.999271586830457,0.00303351812008083));
#299=DIRECTION('',(0.,-1.,0.));
#300=DIRECTION('',(0.,0.,-1.));
#301=DIRECTION('',(-4.78073398891246E-16,1.,-5.86999000826444E-32));
#302=DIRECTION('',(1.22784284209876E-16,0.,-1.));
#303=DIRECTION('',(-1.85488530610631E-16,-8.86771322843677E-32,1.));
#304=DIRECTION('',(0.,-1.,0.));
#305=DIRECTION('',(0.,0.,-1.));
#306=DIRECTION('',(-0.427354788101069,0.,0.90408400333547));
#307=DIRECTION('',(-0.427354788101069,0.,0.90408400333547));
#308=DIRECTION('',(0.,-1.,0.));
#309=DIRECTION('',(0.,0.,-1.));
#310=DIRECTION('',(1.22784284209876E-16,0.,-1.));
#311=DIRECTION('',(0.717324916990296,-0.266126406408992,0.643911251087214));
#312=DIRECTION('',(-0.198040823019007,-0.963938138996396,-0.177772598018138));
#313=DIRECTION('',(0.,-1.,0.));
#314=DIRECTION('',(0.,0.,-1.));
#315=DIRECTION('',(-0.931006397190885,0.00796326278180221,0.364915983255758));
#316=DIRECTION('',(-0.00741408367279498,-0.999968292720258,0.00290601400974447));
#317=DIRECTION('',(0.734490883887836,-0.258078255083672,0.627629473287092));
#318=DIRECTION('',(-0.19620268470026,-0.966124015979816,-0.167657067442572));
#319=DIRECTION('',(-1.,-4.78073398891246E-16,-1.85488530610631E-16));
#320=DIRECTION('',(4.78073398891246E-16,-1.,0.));
#321=DIRECTION('',(0.,-1.,0.));
#322=DIRECTION('',(0.,-1.,0.));
#323=DIRECTION('',(0.,0.,-1.));
#324=DIRECTION('',(0.,-1.,0.));
#325=DIRECTION('',(-0.90408400333547,-1.41824780290889E-16,-0.427354788101069));
#326=DIRECTION('',(-0.427354788101069,0.,0.90408400333547));
#327=DIRECTION('',(3.18205743936168E-16,-0.924139103292404,-0.382056170956459));
#328=DIRECTION('',(-0.00537315199844356,-0.999920956115835,0.0113670910085465));
#329=DIRECTION('',(-1.,-4.78073398891246E-16,-1.85488530610631E-16));
#330=DIRECTION('',(4.78073398891246E-16,-1.,0.));
#331=DIRECTION('',(4.78073398891246E-16,-1.,0.));
#332=DIRECTION('',(0.,-1.,0.));
#333=DIRECTION('',(0.,0.,-1.));
#334=DIRECTION('',(1.13826999736011E-16,-1.,9.10615997888088E-17));
#335=DIRECTION('',(-0.90408400333547,-1.41824780290889E-16,-0.427354788101069));
#336=DIRECTION('',(-0.427354788101069,0.,0.90408400333547));
#337=CARTESIAN_POINT('',(0.,0.,0.));
#338=CARTESIAN_POINT('',(-0.0128152617669803,0.1524,0.0791468954145128));
#339=CARTESIAN_POINT('',(0.021370494975499,0.1524,0.0101016977605791));
#340=CARTESIAN_POINT('',(-0.00861140075301859,0.1524,0.0735294469576099));
#341=CARTESIAN_POINT('',(-0.0160676640344879,0.1524,0.0893034327537858));
#342=CARTESIAN_POINT('',(6.39679281766448E-18,0.1524,0.0776));
#343=CARTESIAN_POINT('',(-4.84067389481113E-19,0.1524,0.068075));
#344=CARTESIAN_POINT('',(1.21430643318376E-17,0.1524,1.57926255439754E-32));
#345=CARTESIAN_POINT('',(4.56135075879251E-17,0.1524,0.0627886569432284));
#346=CARTESIAN_POINT('',(-0.0014,0.1524,0.0644270270158358));
#347=CARTESIAN_POINT('',(-0.000933333333333317,0.1524,0.0638809036583));
#348=CARTESIAN_POINT('',(-0.000466666666666632,0.1524,0.0633347803007642));
#349=CARTESIAN_POINT('',(5.29090660172926E-17,0.1524,0.0627886569432284));
#350=CARTESIAN_POINT('',(-0.0014,0.1524,0.0644270270158358));
#351=CARTESIAN_POINT('',(-0.0014,0.1524,0.065596050425441));
#352=CARTESIAN_POINT('',(-0.0014,0.1524,0.0667650738350462));
#353=CARTESIAN_POINT('',(6.39679281766448E-18,0.1524,0.0776));
#354=CARTESIAN_POINT('',(-0.00987711835768825,0.1524,0.0729311502542684));
#355=CARTESIAN_POINT('',(-0.0128152617669803,0.1524,0.0791468954145128));
#356=CARTESIAN_POINT('',(-0.0157534051762723,0.1524,0.0853626405747571));
#357=CARTESIAN_POINT('',(-0.0160676640344879,0.1524,0.0893034327537858));
#358=CARTESIAN_POINT('',(-0.0159629110817494,0.1524,0.0879898353607763));
#359=CARTESIAN_POINT('',(-0.0158581581290109,0.1524,0.0866762379677667));
#360=CARTESIAN_POINT('',(-0.0157534051762724,0.1524,0.0853626405747572));
#361=CARTESIAN_POINT('',(-0.0160630820357491,0.152300575295996,0.0892937393751732));
#362=CARTESIAN_POINT('',(-0.0160630820357491,0.152300575295996,0.0892937393751732));
#363=CARTESIAN_POINT('',(-0.0159598577789692,0.152333716773006,0.0879833729986925));
#364=CARTESIAN_POINT('',(-0.0158566335221892,0.152366858250016,0.0866730066222117));
#365=CARTESIAN_POINT('',(-0.0157534092654092,0.152399999727026,0.085362640245731));
#366=CARTESIAN_POINT('',(-0.0160630820357491,0.152300575295996,0.0892937393751732));
#367=CARTESIAN_POINT('',(-0.0160630820357492,0.152300575295996,0.0892937393751731));
#368=CARTESIAN_POINT('',(-0.0160646027878402,0.152333717404716,0.0892969565794186));
#369=CARTESIAN_POINT('',(-0.0160661300973049,0.152366858974644,0.0893001876560172));
#370=CARTESIAN_POINT('',(-0.0160676640344878,0.1524,0.0893034327537857));
#371=CARTESIAN_POINT('',(3.15773882736403E-18,0.152930728923958,0.063006890153183));
#372=CARTESIAN_POINT('',(-0.0014,0.1524,0.0644270270158358));
#373=CARTESIAN_POINT('',(-0.000355190264535737,0.152931313383424,0.0630375480816061));
#374=CARTESIAN_POINT('',(-0.0017012021898867,0.1524,0.0644528212269132));
#375=CARTESIAN_POINT('',(-0.000799178067180783,0.152932043350141,0.0630758708193819));
#376=CARTESIAN_POINT('',(-0.00207680647988946,0.1524,0.0644955111231924));
#377=CARTESIAN_POINT('',(-0.00128756461181351,0.152932845477162,0.0631180262778996));
#378=CARTESIAN_POINT('',(-0.0024879582809739,0.1524,0.0645566804526972));
#379=CARTESIAN_POINT('',(-0.00142076093904131,0.152933064170629,0.0631295232576402));
#380=CARTESIAN_POINT('',(-0.00259990999258712,0.1524,0.0645745225123304));
#381=CARTESIAN_POINT('',(-0.00148735910213463,0.152933173505953,0.0631352717535901));
#382=CARTESIAN_POINT('',(-0.00265585442339074,0.1524,0.0645836365315645));
#383=CARTESIAN_POINT('',(-0.00150948931352474,0.152933212402441,0.0631371666501545));
#384=CARTESIAN_POINT('',(-0.00267449732949144,0.1524,0.0645867067028788));
#385=CARTESIAN_POINT('',(-0.0015573902869419,0.152933178001223,0.0631413174593174));
#386=CARTESIAN_POINT('',(-0.00271177244579617,0.1524,0.06459291133146));
#387=CARTESIAN_POINT('',(-0.0017729061985386,0.152933014552256,0.0631604316872688));
#388=CARTESIAN_POINT('',(-0.00287946233763233,0.1524,0.064621121446862));
#389=CARTESIAN_POINT('',(-0.00198806141555534,0.152932773401441,0.0631834643330556));
#390=CARTESIAN_POINT('',(-0.0030467100993776,0.1524,0.0646519333672861));
#391=CARTESIAN_POINT('',(-0.00294242381621018,0.152931393965705,0.063301260016341));
#392=CARTESIAN_POINT('',(-0.0037880040516589,0.1524,0.0647990978395476));
#393=CARTESIAN_POINT('',(-0.00369983931497832,0.15292930642291,0.0634449333279342));
#394=CARTESIAN_POINT('',(-0.00437454502707349,0.1524,0.0649495417492272));
#395=CARTESIAN_POINT('',(-0.00593508144205449,0.152920090817473,0.0640208025308988));
#396=CARTESIAN_POINT('',(-0.00610382792946836,0.1524,0.0654968549981375));
#397=CARTESIAN_POINT('',(-0.00737551348301582,0.152910012568307,0.0645985706998363));
#398=CARTESIAN_POINT('',(-0.00721613813632399,0.1524,0.0659896768554764));
#399=CARTESIAN_POINT('',(-0.0100616929902905,0.152881972219923,0.0661048277135174));
#400=CARTESIAN_POINT('',(-0.00930569200067392,0.1524,0.0672072984083859));
#401=CARTESIAN_POINT('',(-0.011307247754827,0.152863999664654,0.0670332538851584));
#402=CARTESIAN_POINT('',(-0.0102828526362104,0.1524,0.0679320497255313));
#403=CARTESIAN_POINT('',(-0.0135194319214373,0.152820311522588,0.0691805949977338));
#404=CARTESIAN_POINT('',(-0.0120545232116259,0.1524,0.0695782638581206));
#405=CARTESIAN_POINT('',(-0.0144859306672507,0.1527945801914,0.070399432782998));
#406=CARTESIAN_POINT('',(-0.0128489627596559,0.1524,0.0704996612663392));
#407=CARTESIAN_POINT('',(-0.0160729520433599,0.152735988820664,0.0730473138395091));
#408=CARTESIAN_POINT('',(-0.0142164990732753,0.1524,0.0724943246537461));
#409=CARTESIAN_POINT('',(-0.0166933190109243,0.152703120781679,0.0744761701291589));
#410=CARTESIAN_POINT('',(-0.0147895415040403,0.1524,0.0735675113811562));
#411=CARTESIAN_POINT('',(-0.017543312237571,0.152631694860107,0.0774480287493464));
#412=CARTESIAN_POINT('',(-0.0156863672187557,0.1524,0.0758135169990375));
#413=CARTESIAN_POINT('',(-0.017772787720018,0.15259314199971,0.0789907429087986));
#414=CARTESIAN_POINT('',(-0.0160101148701112,0.1524,0.0769862466514247));
#415=CARTESIAN_POINT('',(-0.017822902792653,0.152512757231055,0.08208430996488));
#416=CARTESIAN_POINT('',(-0.0163925694479791,0.1524,0.0793742512774665));
#417=CARTESIAN_POINT('',(-0.0176434867197418,0.152470941642316,0.0836349213630986));
#418=CARTESIAN_POINT('',(-0.0164512611788422,0.1524,0.0805894313711458));
#419=CARTESIAN_POINT('',(-0.0172180627595713,0.152423787339355,0.0853232923587574));
#420=CARTESIAN_POINT('',(-0.0163665848173884,0.1524,0.0819471642922661));
#421=CARTESIAN_POINT('',(-0.0171677082218427,0.152418546611857,0.0855101114297797));
#422=CARTESIAN_POINT('',(-0.0163550833077433,0.1524,0.0820978922186664));
#423=CARTESIAN_POINT('',(-0.0170875851455977,0.152410688117542,0.085789031805572));
#424=CARTESIAN_POINT('',(-0.0163347063777257,0.1524,0.0823237019867276));
#425=CARTESIAN_POINT('',(-0.0170632646479017,0.152407970384763,0.0858718035746446));
#426=CARTESIAN_POINT('',(-0.0163273932901281,0.1524,0.0823989248891581));
#427=CARTESIAN_POINT('',(-0.0170134437353996,0.152402588156533,0.0860429551767583));
#428=CARTESIAN_POINT('',(-0.016311728038418,0.1524,0.0825492624550139));
#429=CARTESIAN_POINT('',(-0.0168888542155652,0.152389132146351,0.0864708233375794));
#430=CARTESIAN_POINT('',(-0.0162699672178546,0.1524,0.0829248357721402));
#431=CARTESIAN_POINT('',(-0.0165644372983371,0.152354149473369,0.0875831395590223));
#432=CARTESIAN_POINT('',(-0.016127699654361,0.1524,0.083897347178));
#433=CARTESIAN_POINT('',(-0.0162639042126528,0.152321941998388,0.0886095810100675));
#434=CARTESIAN_POINT('',(-0.0159224545610332,0.1524,0.0847821453486074));
#435=CARTESIAN_POINT('',(-0.0160630820357491,0.152300575295996,0.0892937393751732));
#436=CARTESIAN_POINT('',(-0.0157534051762723,0.1524,0.0853626405747571));
#437=CARTESIAN_POINT('',(7.80625564189563E-18,0.1524,0.080775));
#438=CARTESIAN_POINT('',(-0.00140000154775932,0.152400000587314,0.0644270257095098));
#439=CARTESIAN_POINT('',(-0.000933334365172881,0.152576910032862,0.0639536471907342));
#440=CARTESIAN_POINT('',(-0.000466667182586444,0.15275381947841,0.0634802686719586));
#441=CARTESIAN_POINT('',(-6.70850094225406E-18,0.152930728923958,0.063006890153183));
#442=CARTESIAN_POINT('',(3.90312782094781E-18,0.152930728923958,0.063006890153183));
#443=CARTESIAN_POINT('',(3.15773882736403E-18,0.152930728923958,0.063006890153183));
#444=CARTESIAN_POINT('',(-0.000355190264535755,0.152931313383424,0.0630375480816061));
#445=CARTESIAN_POINT('',(-0.000889180537525202,0.152932124733423,0.0630848809238914));
#446=CARTESIAN_POINT('',(-0.00159634786210588,0.152933463513827,0.0631426099326104));
#447=CARTESIAN_POINT('',(-0.00276426360836728,0.152931598157893,0.0632652455470565));
#448=CARTESIAN_POINT('',(-0.0052055781545054,0.152925390651581,0.0637321784871754));
#449=CARTESIAN_POINT('',(-0.00881918032706237,0.1528998491555,0.0651762805910364));
#450=CARTESIAN_POINT('',(-0.0125520403916763,0.152846058791892,0.067961714809513));
#451=CARTESIAN_POINT('',(-0.0154526971350265,0.152768849238661,0.0716184068195889));
#452=CARTESIAN_POINT('',(-0.0173138192000503,0.152670251289659,0.0759048977796539));
#453=CARTESIAN_POINT('',(-0.0178872363752239,0.152573868988329,0.0797629818777034));
#454=CARTESIAN_POINT('',(-0.0177529326937972,0.152502088731613,0.0824713260625949));
#455=CARTESIAN_POINT('',(-0.0175233280779513,0.152460470567578,0.0840058476877776));
#456=CARTESIAN_POINT('',(-0.0173211596636172,0.152434208729421,0.0849437300789976));
#457=CARTESIAN_POINT('',(-0.017113243255336,0.152413410292578,0.0857072030646359));
#458=CARTESIAN_POINT('',(-0.0169137235058006,0.15239179044029,0.0863815183089869));
#459=CARTESIAN_POINT('',(-0.0165645016912698,0.152354173984048,0.0875859462407683));
#460=CARTESIAN_POINT('',(-0.0162639042126528,0.152321941998388,0.0886095810100675));
#461=CARTESIAN_POINT('',(-0.0160630820357491,0.152300575295996,0.0892937393751732));
#462=CARTESIAN_POINT('',(-0.00139999999999994,0.,0.0340935632747909));
#463=CARTESIAN_POINT('',(8.50014503228636E-17,6.69302758447754E-19,1.57926255439754E-32));
#464=CARTESIAN_POINT('',(8.50269669137753E-17,6.69302758447754E-19,-0.000137564251696433));
#465=CARTESIAN_POINT('',(3.59451256060319E-17,3.34651379223874E-19,0.068075));
#466=CARTESIAN_POINT('',(6.39679281766448E-18,0.,0.0776));
#467=CARTESIAN_POINT('',(-0.00861140075301857,1.98554692407245E-19,0.0735294469576099));
#468=CARTESIAN_POINT('',(0.021370494975499,1.98554692407248E-19,0.0101016977605792));
#469=CARTESIAN_POINT('',(-0.0158703692079331,1.98554692407248E-19,0.0888860486467267));
#470=CARTESIAN_POINT('',(-0.0165723382724879,-7.25349132705607E-18,0.0870951221865354));
#471=CARTESIAN_POINT('',(-0.016338348584303,-7.14162708151999E-18,0.0876920976732658));
#472=CARTESIAN_POINT('',(-0.0161043588961181,-7.02976283598391E-18,0.0882890731599963));
#473=CARTESIAN_POINT('',(-0.0158703692079331,-6.91789859044783E-18,0.0888860486467267));
#474=CARTESIAN_POINT('',(-0.016572338272488,0.,0.0870951221865354));
#475=CARTESIAN_POINT('',(-0.0132247283150881,0.,0.0800131362204019));
#476=CARTESIAN_POINT('',(-0.00987711835768823,0.,0.0729311502542684));
#477=CARTESIAN_POINT('',(-8.02309607639273E-18,0.,0.0776));
#478=CARTESIAN_POINT('',(-0.00139999999999993,0.,0.0667650738350462));
#479=CARTESIAN_POINT('',(-0.00139999999999994,0.,0.0340935632747909));
#480=CARTESIAN_POINT('',(-0.00139999999999994,6.93889390390723E-18,0.00142205271453568));
#481=CARTESIAN_POINT('',(8.41340885848751E-17,6.69302758447754E-19,-0.000137564251696441));
#482=CARTESIAN_POINT('',(-0.000466666666666591,4.46201838965169E-19,0.000382308070380924));
#483=CARTESIAN_POINT('',(-0.000933333333333266,2.23100919482583E-19,0.000902180392458288));
#484=CARTESIAN_POINT('',(-0.00139999999999994,-2.22881133604729E-33,0.00142205271453565));
#485=CARTESIAN_POINT('',(9.16015061032526E-17,0.000534520335015993,8.3351248187979E-5));
#486=CARTESIAN_POINT('',(2.81390722053263E-9,0.000534975781704551,8.35363480827826E-5));
#487=CARTESIAN_POINT('',(-0.000466664797459436,0.000356650523707241,0.000529708464221119));
#488=CARTESIAN_POINT('',(-0.000933332408826092,0.000178325265709932,0.000975880580359456));
#489=CARTESIAN_POINT('',(-0.00140000002019275,7.71262214792177E-12,0.00142205269649779));
#490=CARTESIAN_POINT('',(9.12050946839376E-17,0.000534520335015993,8.33512481879786E-5));
#491=CARTESIAN_POINT('',(1.03589535549112E-16,-2.63753862500549E-15,-0.000137564251690057));
#492=CARTESIAN_POINT('',(1.03490696468113E-16,0.000178173424453614,-6.39257020081693E-5));
#493=CARTESIAN_POINT('',(9.40178273291435E-17,0.000356346869404424,9.71279808493686E-6));
#494=CARTESIAN_POINT('',(9.39189882469403E-17,0.000534520335015857,8.33512481879213E-5));
#495=CARTESIAN_POINT('',(-0.0158751435743621,1.54831687392079E-5,0.088899038743686));
#496=CARTESIAN_POINT('',(-0.0162832556474139,1.62377212600619E-5,0.0887350486291162));
#497=CARTESIAN_POINT('',(-0.0166913677204657,1.69922737809158E-5,0.0885710585145465));
#498=CARTESIAN_POINT('',(-0.0170994797935175,1.77468263017698E-5,0.0884070683999767));
#499=CARTESIAN_POINT('',(-0.0195181970048508,2.22187576401324E-5,0.0874351645069302));
#500=CARTESIAN_POINT('',(-0.0218536708068297,2.8204513460115E-5,0.0862566109000423));
#501=CARTESIAN_POINT('',(-0.0262909659424927,4.29739458862254E-5,0.0835199898198503));
#502=CARTESIAN_POINT('',(-0.0283924738987526,5.17461801651061E-5,0.0819621129731607));
#503=CARTESIAN_POINT('',(-0.0323006749267207,7.17651495519242E-5,0.0785119565111395));
#504=CARTESIAN_POINT('',(-0.034107094436956,8.29899115191343E-5,0.076619916744953));
#505=CARTESIAN_POINT('',(-0.0373724723705944,0.000107499705072323,0.0725563326707624));
#506=CARTESIAN_POINT('',(-0.0388312025175551,0.000120753411531597,0.0703850724126398));
#507=CARTESIAN_POINT('',(-0.0413586521451286,0.000148826671266127,0.0658261707786265));
#508=CARTESIAN_POINT('',(-0.0424271966471904,0.000163607115613454,0.0634388492963372));
#509=CARTESIAN_POINT('',(-0.0441431280752894,0.000194180167399359,0.05851733164632));
#510=CARTESIAN_POINT('',(-0.0447903996993612,0.000209927811833272,0.0559834809679774));
#511=CARTESIAN_POINT('',(-0.0456450031047224,0.000241852800435238,0.0508427259448206));
#512=CARTESIAN_POINT('',(-0.0458522832794499,0.000257981517625589,0.0482361809585));
#513=CARTESIAN_POINT('',(-0.0458210534711266,0.00029009326499383,0.0430259510458258));
#514=CARTESIAN_POINT('',(-0.0455825567285066,0.000306026280996573,0.0404226269266386));
#515=CARTESIAN_POINT('',(-0.0446669996194946,0.000337213111998267,0.0352945583301435));
#516=CARTESIAN_POINT('',(-0.0439900155490112,0.000352417687576751,0.0327701639690156));
#517=CARTESIAN_POINT('',(-0.0422175103465411,0.000381683302193032,0.0278732210484799));
#518=CARTESIAN_POINT('',(-0.0411221242199671,0.000395697756363615,0.0255010009319989));
#519=CARTESIAN_POINT('',(-0.0385449696959435,0.000422203610574478,0.0209770715063849));
#520=CARTESIAN_POINT('',(-0.0370633887996271,0.000434652588447141,0.018825659692234));
#521=CARTESIAN_POINT('',(-0.0337571050216057,0.000457735973986841,0.0148054417141888));
#522=CARTESIAN_POINT('',(-0.0319326347884791,0.000468333251764787,0.0129368946967725));
#523=CARTESIAN_POINT('',(-0.027993615599225,0.000487502704666012,0.00953618967158425));
#524=CARTESIAN_POINT('',(-0.0258793365438333,0.000496043842296689,0.0080042468165306));
#525=CARTESIAN_POINT('',(-0.0214219547414977,0.000510958228506246,0.00532074281973325));
#526=CARTESIAN_POINT('',(-0.0190791510779881,0.00051730707291404,0.00416934869721568));
#527=CARTESIAN_POINT('',(-0.0142324154580402,0.000527746630529457,0.00227995232892089));
#528=CARTESIAN_POINT('',(-0.0117288037103613,0.00053181992077511,0.00154206607650104));
#529=CARTESIAN_POINT('',(-0.00663266280718468,0.000537657045140079,0.000500828002324442));
#530=CARTESIAN_POINT('',(-0.004040472010195,0.000539410642480049,0.000197539455523034));
#531=CARTESIAN_POINT('',(-0.00144115991525775,0.000539998503072254,0.000115873753575293));
#532=CARTESIAN_POINT('',(-0.000960771271175275,0.000540107147799199,0.000100780808059774));
#533=CARTESIAN_POINT('',(-0.000480382627092798,0.000540215792526144,8.56878625442545E-5));
#534=CARTESIAN_POINT('',(6.01698967952341E-9,0.000540324437253089,7.0594917028735E-5));
#535=CARTESIAN_POINT('',(-0.0158702981105312,1.53298700388197E-5,0.0888858986971779));
#536=CARTESIAN_POINT('',(-0.0162782855971998,1.60769517426355E-5,0.088721958742621));
#537=CARTESIAN_POINT('',(-0.0166862730838684,1.68240334464513E-5,0.088558018788064));
#538=CARTESIAN_POINT('',(-0.017094260570537,1.75711151502672E-5,0.088394078833507));
#539=CARTESIAN_POINT('',(-0.0195122394081509,2.19987699407252E-5,0.0874224722188167));
#540=CARTESIAN_POINT('',(-0.0218470014759951,2.79252608515991E-5,0.0862442787931905));
#541=CARTESIAN_POINT('',(-0.0262829436204314,4.25484612734905E-5,0.0835084963379238));
#542=CARTESIAN_POINT('',(-0.0283838126736332,5.12338417476298E-5,0.0819510964770094));
#543=CARTESIAN_POINT('',(-0.0322908266829112,7.10546035167566E-5,0.0785019991160547));
#544=CARTESIAN_POINT('',(-0.0340967002584612,8.21682292268656E-5,0.0766105395560075));
#545=CARTESIAN_POINT('',(-0.0373610954198278,0.000106435351556756,0.0725482038378979));
#546=CARTESIAN_POINT('',(-0.0388193905484324,0.000119557833199601,0.0703776094657016));
#547=CARTESIAN_POINT('',(-0.0413460941837401,0.000147353139867453,0.0658201066290498));
#548=CARTESIAN_POINT('',(-0.0424143291028585,0.000161987243181638,0.0634335155061566));
#549=CARTESIAN_POINT('',(-0.0441297758473572,0.000192257591484514,0.0585135016707825));
#550=CARTESIAN_POINT('',(-0.0447768732802225,0.000207849318646804,0.055980421691247));
#551=CARTESIAN_POINT('',(-0.0456312678299572,0.00023945821825271,0.0508412254362236));
#552=CARTESIAN_POINT('',(-0.0458385137351413,0.00025542724517385,0.0482354656552308));
#553=CARTESIAN_POINT('',(-0.0458073541955051,0.000287221054449338,0.0430267975510076));
#554=CARTESIAN_POINT('',(-0.0455689618633829,0.000302996317818389,0.0404242471662346));
#555=CARTESIAN_POINT('',(-0.0446537461666679,0.000333874368315116,0.0352976928141088));
#556=CARTESIAN_POINT('',(-0.0439769984652823,0.000348928403541338,0.0327740361893053));
#557=CARTESIAN_POINT('',(-0.04220508772447,0.000377904259597061,0.0278785135866042));
#558=CARTESIAN_POINT('',(-0.0411100585922568,0.000391779956795658,0.0255069734617224));
#559=CARTESIAN_POINT('',(-0.0385337254775495,0.000418023376806414,0.0209843304894504));
#560=CARTESIAN_POINT('',(-0.0370526074870976,0.000430349097472417,0.0188335228034817));
#561=CARTESIAN_POINT('',(-0.0337473405116146,0.000453203934640437,0.0148144250441348));
#562=CARTESIAN_POINT('',(-0.0319234223178611,0.000463696288876026,0.0129463920955505));
#563=CARTESIAN_POINT('',(-0.0279855807906441,0.000482675945213873,0.00954661636173632));
#564=CARTESIAN_POINT('',(-0.0258719252176382,0.000491132517125435,0.00801508705953086));
#565=CARTESIAN_POINT('',(-0.0214158464088957,0.000505899236144798,0.00533230372836205));
#566=CARTESIAN_POINT('',(-0.0190737198978051,0.000512185220706971,0.00418121542855298));
#567=CARTESIAN_POINT('',(-0.0142283773693776,0.000522521416365799,0.00229231927590631));
#568=CARTESIAN_POINT('',(-0.0117254790458065,0.00052655437700506,0.00155462652406954));
#569=CARTESIAN_POINT('',(-0.00663078696828115,0.000532333708059484,0.000513661065070795));
#570=CARTESIAN_POINT('',(-0.00403932907342882,0.000534069943049553,0.000210451152637901));
#571=CARTESIAN_POINT('',(-0.00144075239134431,0.000534651983239855,0.000128806218535298));
#572=CARTESIAN_POINT('',(-0.000960499661676978,0.000534759552276434,0.000113717111203345));
#573=CARTESIAN_POINT('',(-0.000480246932009647,0.000534867121313013,9.86280038713912E-5));
#574=CARTESIAN_POINT('',(5.79765768347288E-9,0.000534974690349593,8.35388965394379E-5));
#575=CARTESIAN_POINT('',(-0.0153857517274362,0.,0.087571894046375));
#576=CARTESIAN_POINT('',(-0.0157812805757867,0.,0.0874129700930951));
#577=CARTESIAN_POINT('',(-0.0161768094241374,0.,0.0872540461398153));
#578=CARTESIAN_POINT('',(-0.016572338272488,0.,0.0870951221865355));
#579=CARTESIAN_POINT('',(-0.0189164797381658,0.,0.0861532434074623));
#580=CARTESIAN_POINT('',(-0.0211800683925324,0.,0.0850110681080077));
#581=CARTESIAN_POINT('',(-0.0254807114143002,0.,0.0823591481452734));
#582=CARTESIAN_POINT('',(-0.0275176901616896,0.,0.0808494468618808));
#583=CARTESIAN_POINT('',(-0.0313060023019559,0.,0.0775062596075768));
#584=CARTESIAN_POINT('',(-0.0330572824089772,0.,0.0756728206614582));
#585=CARTESIAN_POINT('',(-0.0362234003431595,0.,0.0717353205514546));
#586=CARTESIAN_POINT('',(-0.0376381936361594,0.,0.069631314771882));
#587=CARTESIAN_POINT('',(-0.0400902980448909,0.,0.0652136916713777));
#588=CARTESIAN_POINT('',(-0.0411275746696731,0.,0.0629001364880997));
#589=CARTESIAN_POINT('',(-0.0427945530541438,0.,0.0581305041170319));
#590=CARTESIAN_POINT('',(-0.043424231366353,0.,0.0556744940182079));
#591=CARTESIAN_POINT('',(-0.0442577403534342,0.,0.0506911745765221));
#592=CARTESIAN_POINT('',(-0.0444615593042881,0.,0.0481639353283174));
#593=CARTESIAN_POINT('',(-0.044437426633353,0.,0.0431114480691922));
#594=CARTESIAN_POINT('',(-0.0442094753510107,0.,0.0405862711258333));
#595=CARTESIAN_POINT('',(-0.043328400883993,0.,0.0356111412106453));
#596=CARTESIAN_POINT('',(-0.0426752900923849,0.,0.0331612582182806));
#597=CARTESIAN_POINT('',(-0.040962825517363,0.,0.0284077673990274));
#598=CARTESIAN_POINT('',(-0.0399034958212306,0.,0.0261042264340597));
#599=CARTESIAN_POINT('',(-0.0374093036381451,0.,0.0217102287960011));
#600=CARTESIAN_POINT('',(-0.0359744762341419,0.,0.0196198339282514));
#601=CARTESIAN_POINT('',(-0.0327708895125064,0.,0.0157127580387414));
#602=CARTESIAN_POINT('',(-0.0310021752560659,0.,0.0138961319733506));
#603=CARTESIAN_POINT('',(-0.0271820999325602,0.,0.010589285376943));
#604=CARTESIAN_POINT('',(-0.0251307925981271,0.,0.00909911135955665));
#605=CARTESIAN_POINT('',(-0.0208050131487014,0.,0.00648839459124272));
#606=CARTESIAN_POINT('',(-0.0185306018795028,0.,0.00536788856228326));
#607=CARTESIAN_POINT('',(-0.0138245685031184,0.,0.00352901397444836));
#608=CARTESIAN_POINT('',(-0.0113930125903237,0.,0.00281067128091942));
#609=CARTESIAN_POINT('',(-0.00644320307792849,0.,0.00179696733970609));
#610=CARTESIAN_POINT('',(-0.00392503539681105,0.,0.00150162086412459));
#611=CARTESIAN_POINT('',(-0.00140000000000002,0.,0.00142205271453574));
#612=CARTESIAN_POINT('',(-0.000933338711847323,0.,0.0014073474255604));
#613=CARTESIAN_POINT('',(-0.000466677423694622,0.,0.00139264213658506));
#614=CARTESIAN_POINT('',(-1.61355419215801E-8,0.,0.00137793684760973));
#615=CARTESIAN_POINT('',(-1.77809156287623E-17,0.,0.04585));
#616=CARTESIAN_POINT('',(-0.0165723382728091,5.49780026402263E-15,0.087095122186891));
#617=CARTESIAN_POINT('',(-0.0163383246873359,5.10995021291505E-6,0.0876920471318752));
#618=CARTESIAN_POINT('',(-0.0161043111018627,1.02199004203323E-5,0.0882889720768594));
#619=CARTESIAN_POINT('',(-0.0158702975163896,1.53298506277495E-5,0.0888858970218436));
#620=CARTESIAN_POINT('',(-0.0158702976953297,1.529346577731E-5,0.0888858973593125));
#621=CARTESIAN_POINT('',(-0.0158702974887472,1.53298503670869E-5,0.0888858970110091));
#622=CARTESIAN_POINT('',(-0.0171060013416999,1.75925929628725E-5,0.0883893591698894));
#623=CARTESIAN_POINT('',(-0.0195746522508461,2.21996006518503E-5,0.0873849670798863));
#624=CARTESIAN_POINT('',(-0.0242891996431497,3.4940189183137E-5,0.0848911395127898));
#625=CARTESIAN_POINT('',(-0.029751727062053,5.61923013510731E-5,0.081042442685045));
#626=CARTESIAN_POINT('',(-0.0354003849307717,8.95337914183737E-5,0.0753475918293121));
#627=CARTESIAN_POINT('',(-0.0415036024706389,0.000142559359082316,0.066567073748948));
#628=CARTESIAN_POINT('',(-0.0460826455160739,0.000221106929745101,0.0538484234080912));
#629=CARTESIAN_POINT('',(-0.0460228806245205,0.000320364600618348,0.0376316841240414));
#630=CARTESIAN_POINT('',(-0.0404274582719732,0.000410279711979914,0.022419681312527));
#631=CARTESIAN_POINT('',(-0.031719588346061,0.000468566101347117,0.0121056255382502));
#632=CARTESIAN_POINT('',(-0.0229619974358302,0.000502232030651778,0.00600435391969713));
#633=CARTESIAN_POINT('',(-0.015703243047088,0.000520657834869248,0.00263096348356988));
#634=CARTESIAN_POINT('',(-0.00925984391131251,0.000530053781128105,0.000918163072798555));
#635=CARTESIAN_POINT('',(-0.00398552414417358,0.000534060414145186,0.000213152094712143));
#636=CARTESIAN_POINT('',(-0.00132799230980144,0.000534677184802873,0.000125263531488219));
#637=CARTESIAN_POINT('',(5.79765570345108E-9,0.000534974642054699,8.35390133913433E-5));
#638=CARTESIAN_POINT('',(-0.0158702976953296,1.52934657773101E-5,0.0888858973593125));
#639=CARTESIAN_POINT('',(-0.0158703692079331,3.37684931015977E-16,0.0888860486467266));
#640=CARTESIAN_POINT('',(-0.015870345370063,5.09782191734912E-6,0.0888859982168784));
#641=CARTESIAN_POINT('',(-0.0158703215325283,1.01956438429387E-5,0.0888859477877403));
#642=CARTESIAN_POINT('',(-0.0158702976953295,1.5293465777209E-5,0.0888858973593125));
#643=CARTESIAN_POINT('',(3.34365619381972E-17,0.1524,0.0627886569432284));
#644=CARTESIAN_POINT('',(-6.9547770436203E-19,0.152399999999999,0.0627886569432284));
#645=CARTESIAN_POINT('',(-7.9354671191217E-19,0.152576908081794,0.0628614051587154));
#646=CARTESIAN_POINT('',(-4.91377588586354E-17,0.152753817705239,0.0629341496057269));
#647=CARTESIAN_POINT('',(-4.92358279435335E-17,0.152930728923957,0.063006890153183));
#648=CARTESIAN_POINT('',(-0.0160630820357492,0.152300575295996,0.0892937393751731));
#649=CARTESIAN_POINT('',(-0.0149063506648848,0.13961989055985,0.0899919063230906));
#650=CARTESIAN_POINT('',(-0.0131167350610835,0.120595087942472,0.0907206081534289));
#651=CARTESIAN_POINT('',(-0.0106846931768408,0.0930974739871425,0.0915854089011998));
#652=CARTESIAN_POINT('',(-0.00739302633430447,0.0550149476722835,0.0926776099491167));
#653=CARTESIAN_POINT('',(-0.00473713237857688,0.0232706666017086,0.0935210620726923));
#654=CARTESIAN_POINT('',(-0.00279662949987801,-9.07315013085941E-6,0.0941389708514247));
#655=CARTESIAN_POINT('',(-0.0162470878081176,0.152320161314831,0.088666558236573));
#656=CARTESIAN_POINT('',(-0.0152857146638066,0.139636738531535,0.0893323359046121));
#657=CARTESIAN_POINT('',(-0.0137895547305735,0.120607755391368,0.0900118800393869));
#658=CARTESIAN_POINT('',(-0.0117818611628138,0.0931069112740112,0.0908059258456506));
#659=CARTESIAN_POINT('',(-0.00907789228300285,0.055021340662067,0.0918002090479739));
#660=CARTESIAN_POINT('',(-0.00691183325434931,0.0232760332820931,0.092562157049556));
#661=CARTESIAN_POINT('',(-0.00533053478591124,-4.34657960685309E-6,0.0931202939428515));
#662=CARTESIAN_POINT('',(-0.0164977756968031,0.152346990136141,0.0878112908258129));
#663=CARTESIAN_POINT('',(-0.0158030293938783,0.13965977339522,0.0884329631306657));
#664=CARTESIAN_POINT('',(-0.014707265841967,0.120625046452202,0.089045792530161));
#665=CARTESIAN_POINT('',(-0.0132783757646357,0.0931197796024934,0.089743729187555));
#666=CARTESIAN_POINT('',(-0.0113759652006617,0.0550300468664149,0.0906049851363638));
#667=CARTESIAN_POINT('',(-0.00987795531123916,0.0232833394286126,0.0912561659597757));
#668=CARTESIAN_POINT('',(-0.00878655232055326,2.08562501228253E-6,0.0917330706103395));
#669=CARTESIAN_POINT('',(-0.0167889676972536,0.152378368630107,0.0868130448311688));
#670=CARTESIAN_POINT('',(-0.0164055801701525,0.139686685189851,0.0873828978073046));
#671=CARTESIAN_POINT('',(-0.0157771816421171,0.120645240061047,0.0879177348892653));
#672=CARTESIAN_POINT('',(-0.0150235933460706,0.0931348089744229,0.0885031992906915));
#673=CARTESIAN_POINT('',(-0.0140562811220729,0.0550402202857345,0.0892087587803861));
#674=CARTESIAN_POINT('',(-0.0133375477755781,0.0232918807209706,0.08973024272107));
#675=CARTESIAN_POINT('',(-0.0128176093340331,9.60773342830297E-6,0.0901120325202417));
#676=CARTESIAN_POINT('',(-0.0169305140914417,0.152393617494835,0.0863282588809074));
#677=CARTESIAN_POINT('',(-0.0166984544671785,0.139699756863383,0.0868730608553185));
#678=CARTESIAN_POINT('',(-0.0162971672715804,0.120655042046856,0.0873702652598209));
#679=CARTESIAN_POINT('',(-0.0158716751345958,0.0931420990428288,0.0879014254316467));
#680=CARTESIAN_POINT('',(-0.015358667001841,0.0550451491316925,0.0885318007316692));
#681=CARTESIAN_POINT('',(-0.0150185256898032,0.0232960163382933,0.0889906401740626));
#682=CARTESIAN_POINT('',(-0.0147762206424975,1.32479399441045E-5,0.089326488952727));
#683=CARTESIAN_POINT('',(-0.0170298686773955,0.152404382250363,0.085985822634629));
#684=CARTESIAN_POINT('',(-0.0169046206253897,0.139708986963238,0.0865126841393363));
#685=CARTESIAN_POINT('',(-0.0166636086113928,0.120661971297374,0.0869829888677779));
#686=CARTESIAN_POINT('',(-0.0164696199498796,0.0931472599661113,0.0874753317834897));
#687=CARTESIAN_POINT('',(-0.0162771507908053,0.0550486475818833,0.0880519693620128));
#688=CARTESIAN_POINT('',(-0.0162041145531821,0.0232989558857599,0.0884660328392802));
#689=CARTESIAN_POINT('',(-0.0161576853830369,1.58384801721421E-5,0.0887690444465413));
#690=CARTESIAN_POINT('',(-0.0171135652644273,0.152413352693261,0.0857008663863787));
#691=CARTESIAN_POINT('',(-0.0170774355170826,0.139716670747887,0.0862132595354062));
#692=CARTESIAN_POINT('',(-0.0169701467809164,0.12066772327208,0.0866618716010367));
#693=CARTESIAN_POINT('',(-0.0169693029324562,0.0931515289044231,0.0871228774677361));
#694=CARTESIAN_POINT('',(-0.017044269936502,0.0550515230277124,0.0876561157469258));
#695=CARTESIAN_POINT('',(-0.01719410031221,0.0233013636710869,0.0880340034766352));
#696=CARTESIAN_POINT('',(-0.0173111082084234,1.7954117361221E-5,0.08831048546041));
#697=CARTESIAN_POINT('',(-0.0172021123398056,0.152422022618733,0.0853838565421015));
#698=CARTESIAN_POINT('',(-0.0172644432902959,0.139724120758932,0.0858783690831978));
#699=CARTESIAN_POINT('',(-0.0173013061018827,0.120673385113441,0.0863044214200344));
#700=CARTESIAN_POINT('',(-0.0175000989129575,0.0931558307358911,0.0867338148764259));
#701=CARTESIAN_POINT('',(-0.0178471848827258,0.0550545482612265,0.0872224640168379));
#702=CARTESIAN_POINT('',(-0.018220142730709,0.0233039600792828,0.0875615713386598));
#703=CARTESIAN_POINT('',(-0.0185007001249275,2.02822669742271E-5,0.0878092730108495));
#704=CARTESIAN_POINT('',(-0.0172977250458321,0.152432532876191,0.0850122006355759));
#705=CARTESIAN_POINT('',(-0.017473739874002,0.139733208658779,0.0854821640998225));
#706=CARTESIAN_POINT('',(-0.0176781635727442,0.120680404572782,0.0858751136826353));
#707=CARTESIAN_POINT('',(-0.0181118701200968,0.0931612576374503,0.0862577045522395));
#708=CARTESIAN_POINT('',(-0.0187805977231869,0.0550584735209904,0.0866810183632664));
#709=CARTESIAN_POINT('',(-0.0194184897873647,0.0233073737676794,0.0869644469231685));
#710=CARTESIAN_POINT('',(-0.0198932509050388,2.33771182176265E-5,0.0871710362578129));
#711=CARTESIAN_POINT('',(-0.0174220611579788,0.152447352884472,0.0844762493492056));
#712=CARTESIAN_POINT('',(-0.0177591557772386,0.139746115607831,0.084905063188278));
#713=CARTESIAN_POINT('',(-0.0182003390688142,0.120690578795323,0.0852425582912222));
#714=CARTESIAN_POINT('',(-0.0189644449637489,0.0931693116270186,0.0855469385934953));
#715=CARTESIAN_POINT('',(-0.0200846877260517,0.0550645206782061,0.0858612669974452));
#716=CARTESIAN_POINT('',(-0.0210937031752225,0.0233127277831562,0.0860520035048335));
#717=CARTESIAN_POINT('',(-0.0218404692534764,2.83003357112193E-5,0.0861901640437574));
#718=CARTESIAN_POINT('',(-0.0175632393354905,0.152467403228425,0.0837492759773048));
#719=CARTESIAN_POINT('',(-0.0181126188410088,0.139763763097997,0.0841106949244492));
#720=CARTESIAN_POINT('',(-0.0188662297317998,0.120704870778873,0.0843553279872442));
#721=CARTESIAN_POINT('',(-0.0200675499198814,0.0931809597915241,0.0845285170981077));
#722=CARTESIAN_POINT('',(-0.0217857592256651,0.0550736502299357,0.0846608232544399));
#723=CARTESIAN_POINT('',(-0.0232865888554403,0.0233209682088388,0.0846979726218791));
#724=CARTESIAN_POINT('',(-0.02439377956046,3.59907312709502E-5,0.0847229603200532));
#725=CARTESIAN_POINT('',(-0.0177010348085664,0.152493406642377,0.0827908607423795));
#726=CARTESIAN_POINT('',(-0.0185185712722643,0.139786980063128,0.0830435471395888));
#727=CARTESIAN_POINT('',(-0.0196666963183466,0.120724329727485,0.0831365940779284));
#728=CARTESIAN_POINT('',(-0.0214198872571025,0.093197396917557,0.0830956027656347));
#729=CARTESIAN_POINT('',(-0.0238925280270962,0.0550871838296768,0.0829316013633485));
#730=CARTESIAN_POINT('',(-0.0260133948003157,0.0233334457520932,0.0827199802671531));
#731=CARTESIAN_POINT('',(-0.0275748931603884,4.78186916885396E-5,0.0825618637615459));
#732=CARTESIAN_POINT('',(-0.0178018192732829,0.152526039740311,0.081569598783562));
#733=CARTESIAN_POINT('',(-0.018941343986434,0.139816617096254,0.0816539947382277));
#734=CARTESIAN_POINT('',(-0.0205634654085283,0.120750109024319,0.0815097104012592));
#735=CARTESIAN_POINT('',(-0.022980453344753,0.0932199872354487,0.0811331356660601));
#736=CARTESIAN_POINT('',(-0.0263605957751335,0.055106676353337,0.080505988531649));
#737=CARTESIAN_POINT('',(-0.0292271054804043,0.0233517677840408,0.0799072590321286));
#738=CARTESIAN_POINT('',(-0.0313348288986762,6.54255002673648E-5,0.0794645257006095));
#739=CARTESIAN_POINT('',(-0.017810681111387,0.152566528922191,0.0800209124859052));
#740=CARTESIAN_POINT('',(-0.0193243477496806,0.139854166824708,0.0798468972772006));
#741=CARTESIAN_POINT('',(-0.0214975901863107,0.120784148788917,0.0793350950069022));
#742=CARTESIAN_POINT('',(-0.024686814367848,0.0932510022316196,0.078438515911095));
#743=CARTESIAN_POINT('',(-0.0291225017262132,0.0551347079369801,0.0770949681125329));
#744=CARTESIAN_POINT('',(-0.0328557296171642,0.0233786089594852,0.0758994775564059));
#745=CARTESIAN_POINT('',(-0.0355981919290905,9.15451535417312E-5,0.0750183617184817));
#746=CARTESIAN_POINT('',(-0.0176311705176197,0.15261552568862,0.0780931178155688));
#747=CARTESIAN_POINT('',(-0.0195503634124352,0.139900778297472,0.0775308847493039));
#748=CARTESIAN_POINT('',(-0.0223218136864589,0.120828338453966,0.0764630419249409));
#749=CARTESIAN_POINT('',(-0.0263497937939902,0.0932929289958744,0.0747790321495354));
#750=CARTESIAN_POINT('',(-0.0319316897354228,0.0551743458236907,0.0723520918424527));
#751=CARTESIAN_POINT('',(-0.0366052668926274,0.023417243262752,0.0702566044349286));
#752=CARTESIAN_POINT('',(-0.0400361227809262,0.000129577912732882,0.0687148559716836));
#753=CARTESIAN_POINT('',(-0.0171669740470895,0.152668111292033,0.0759479365883882));
#754=CARTESIAN_POINT('',(-0.0194459522307966,0.139952258208499,0.0748723335968508));
#755=CARTESIAN_POINT('',(-0.0227496114495183,0.120879366545153,0.0730652079034011));
#756=CARTESIAN_POINT('',(-0.0275237595817622,0.0933432685895498,0.070333154910585));
#757=CARTESIAN_POINT('',(-0.0341247781403437,0.0552239217908257,0.0664654704751752));
#758=CARTESIAN_POINT('',(-0.0396331665489948,0.023466354920759,0.0631755023964603));
#759=CARTESIAN_POINT('',(-0.0436748063328683,0.000178418599664842,0.0607575225360644));
#760=CARTESIAN_POINT('',(-0.0163835213647714,0.152719569339394,0.0737615453353846));
#761=CARTESIAN_POINT('',(-0.0189139842256352,0.140004043297929,0.0720842375859219));
#762=CARTESIAN_POINT('',(-0.0225919035422109,0.120932668342163,0.069407235053336));
#763=CARTESIAN_POINT('',(-0.0278896115811841,0.0933975838998103,0.0654404817528228));
#764=CARTESIAN_POINT('',(-0.0352046906366919,0.0552791806526276,0.0598761071891137));
#765=CARTESIAN_POINT('',(-0.0412961364319554,0.0235218293196807,0.0551811805337014));
#766=CARTESIAN_POINT('',(-0.0457639616590135,0.000234032711560329,0.0517330783718108));
#767=CARTESIAN_POINT('',(-0.0153225337017639,0.152766170413137,0.071697240610705));
#768=CARTESIAN_POINT('',(-0.0179669682394622,0.1400520802059,0.0693888881278374));
#769=CARTESIAN_POINT('',(-0.0218179049207287,0.120983561847564,0.0657971369048949));
#770=CARTESIAN_POINT('',(-0.0273547625082399,0.0934507389273379,0.060530401283065));
#771=CARTESIAN_POINT('',(-0.0349941270020229,0.0553345677917898,0.0531797654754989));
#772=CARTESIAN_POINT('',(-0.0413473951267681,0.0235779981417206,0.047006652711314));
#773=CARTESIAN_POINT('',(-0.0460060776918227,0.000290680745091196,0.0424751133993205));
#774=CARTESIAN_POINT('',(-0.0140029919600047,0.152807456044251,0.0697897320893165));
#775=CARTESIAN_POINT('',(-0.0166219817844103,0.14009552637573,0.0668505728341013));
#776=CARTESIAN_POINT('',(-0.0204417432195064,0.12103060027904,0.0623426704645551));
#777=CARTESIAN_POINT('',(-0.0259282881702874,0.0935007816586752,0.0557724374911831));
#778=CARTESIAN_POINT('',(-0.0334949543788479,0.0553876285589302,0.0466305361715965));
#779=CARTESIAN_POINT('',(-0.0397827633921491,0.0236322194757809,0.0389754887640665));
#780=CARTESIAN_POINT('',(-0.0443926334947729,0.000345607797256437,0.0333580220112328));
#781=CARTESIAN_POINT('',(-0.0124480874459743,0.152843121674068,0.0680707794058473));
#782=CARTESIAN_POINT('',(-0.0149064917801725,0.140133724008381,0.0645301826400445));
#783=CARTESIAN_POINT('',(-0.0184970262715778,0.121072604181808,0.059147572103086));
#784=CARTESIAN_POINT('',(-0.0236517699648446,0.0935460639499886,0.0513314537508821));
#785=CARTESIAN_POINT('',(-0.0307593887757543,0.05543622966171,0.0404771173250955));
#786=CARTESIAN_POINT('',(-0.0366630242805068,0.023682156164514,0.0314053758569631));
#787=CARTESIAN_POINT('',(-0.0409907310286771,0.000396354436279435,0.024749942886241));
#788=CARTESIAN_POINT('',(-0.010684697284891,0.152872990821208,0.0665686969359712));
#789=CARTESIAN_POINT('',(-0.0128574925885618,0.140166201427902,0.0624834114317635));
#790=CARTESIAN_POINT('',(-0.0160355269370249,0.121108695297345,0.0563078341993914));
#791=CARTESIAN_POINT('',(-0.0205974318345989,0.0935853240157,0.0473611572845071));
#792=CARTESIAN_POINT('',(-0.026887458562998,0.0554787021770749,0.0349525194525219));
#793=CARTESIAN_POINT('',(-0.0321109133574917,0.0237259544136284,0.0245947317497805));
#794=CARTESIAN_POINT('',(-0.0359397431916894,0.000440955949960517,0.0169971299645611));
#795=CARTESIAN_POINT('',(-0.00885074124768284,0.152895645326965,0.0653780910852729));
#796=CARTESIAN_POINT('',(-0.01065026994919,0.140191169112122,0.0608551974393986));
#797=CARTESIAN_POINT('',(-0.013286955823492,0.121136611952271,0.0540420812000048));
#798=CARTESIAN_POINT('',(-0.0170724394823176,0.0936158564746309,0.0441856453910325));
#799=CARTESIAN_POINT('',(-0.0222927086979595,0.0555118741018781,0.0305259281958247));
#800=CARTESIAN_POINT('',(-0.0266278953935492,0.0237602290834214,0.0191327360970367));
#801=CARTESIAN_POINT('',(-0.0298055464202049,0.000475898687165697,0.010776608920564));
#802=CARTESIAN_POINT('',(-0.0071213611253112,0.152911117488754,0.0645275904096619));
#803=CARTESIAN_POINT('',(-0.0085231692229376,0.140208425880705,0.0596965299639538));
#804=CARTESIAN_POINT('',(-0.0105819506843356,0.121155940690346,0.0524342331820587));
#805=CARTESIAN_POINT('',(-0.0135391588247964,0.0936370359989866,0.0419363331999375));
#806=CARTESIAN_POINT('',(-0.0176185963755304,0.0555348999761294,0.0273942506357825));
#807=CARTESIAN_POINT('',(-0.0210071858057097,0.0237840272653689,0.015270583976186));
#808=CARTESIAN_POINT('',(-0.0234910389643016,0.000500164834364742,0.00637931109373147));
#809=CARTESIAN_POINT('',(-0.00567946918218577,0.152920542636408,0.0639849466551275));
#810=CARTESIAN_POINT('',(-0.00672815060013442,0.140219059496072,0.0589652306791616));
#811=CARTESIAN_POINT('',(-0.00827338980344184,0.121167831998981,0.0514278653519265));
#812=CARTESIAN_POINT('',(-0.0104947700405135,0.0936500561928705,0.0405368700290544));
#813=CARTESIAN_POINT('',(-0.0135608379461563,0.0555490255649356,0.0254539180799547));
#814=CARTESIAN_POINT('',(-0.0161088429220316,0.0237986117155197,0.0128823319920129));
#815=CARTESIAN_POINT('',(-0.0179766531735728,0.000515027406507492,0.00366289861839697));
#816=CARTESIAN_POINT('',(-0.00450967162077964,0.152926181000912,0.0636428359090176));
#817=CARTESIAN_POINT('',(-0.00526260325886505,0.140225501578205,0.0585119722462758));
#818=CARTESIAN_POINT('',(-0.00637752871849276,0.121175007294883,0.0508125124118389));
#819=CARTESIAN_POINT('',(-0.00798239375253946,0.0936578923963564,0.0396896941451975));
#820=CARTESIAN_POINT('',(-0.0101994371499498,0.055557491131774,0.0242876719866463));
#821=CARTESIAN_POINT('',(-0.0120432617732301,0.0238073343257374,0.011451736216119));
#822=CARTESIAN_POINT('',(-0.0133950148333152,0.000523905884428174,0.00203861788837233));
#823=CARTESIAN_POINT('',(-0.00357155708653928,0.152929517663153,0.063428021867512));
#824=CARTESIAN_POINT('',(-0.00408342681808615,0.14022937121747,0.0582340379956375));
#825=CARTESIAN_POINT('',(-0.00484760472673573,0.121179285893515,0.0504425113139179));
#826=CARTESIAN_POINT('',(-0.00595000907158336,0.0936625414745759,0.0391878862075402));
#827=CARTESIAN_POINT('',(-0.00747513719454385,0.0555624774394725,0.023604374071499));
#828=CARTESIAN_POINT('',(-0.00874514037413872,0.023812454249188,0.0106179826776498));
#829=CARTESIAN_POINT('',(-0.00967637853191523,0.000529106896310714,0.00109461570065679));
#830=CARTESIAN_POINT('',(-0.00284619430828153,0.152931344617311,0.0632983805073655));
#831=CARTESIAN_POINT('',(-0.00317010929120422,0.14023154161992,0.0580717445402769));
#832=CARTESIAN_POINT('',(-0.00366063933081558,0.121181665082586,0.0502325778412377));
#833=CARTESIAN_POINT('',(-0.00437098830401496,0.0936651111788481,0.0389096395075812));
#834=CARTESIAN_POINT('',(-0.00535618786882986,0.0555652073811212,0.0232320004621994));
#835=CARTESIAN_POINT('',(-0.00617838867272596,0.0238152439474589,0.0101675024014446));
#836=CARTESIAN_POINT('',(-0.00678146084963042,0.000531932921587559,0.00058689134093343));
#837=CARTESIAN_POINT('',(-0.00230570503457225,0.152932357121559,0.0632214674776063));
#838=CARTESIAN_POINT('',(-0.00248925995437505,0.140232770616676,0.0579792915860056));
#839=CARTESIAN_POINT('',(-0.00277564849309034,0.121182985786701,0.0501174522023651));
#840=CARTESIAN_POINT('',(-0.00319361882344732,0.0936665167512882,0.0387619083452745));
#841=CARTESIAN_POINT('',(-0.00377624403724033,0.0555666722644344,0.0230392899573451));
#842=CARTESIAN_POINT('',(-0.00426462253972745,0.0238167272336522,0.00993740323517092));
#843=CARTESIAN_POINT('',(-0.00462306388009727,0.00053342746288986,0.000329381221532341));
#844=CARTESIAN_POINT('',(-0.0018935429656336,0.15293286353563,0.0631725894630547));
#845=CARTESIAN_POINT('',(-0.00196979750941306,0.140233426706637,0.0579229410064437));
#846=CARTESIAN_POINT('',(-0.00209975530204587,0.121183689919719,0.0500501869230671));
#847=CARTESIAN_POINT('',(-0.00229353354194565,0.0936672659839536,0.0386788848255711));
#848=CARTESIAN_POINT('',(-0.0025673344347594,0.0555674464331379,0.0229344913968866));
#849=CARTESIAN_POINT('',(-0.00279953004156422,0.0238175066984576,0.00981446208414684));
#850=CARTESIAN_POINT('',(-0.00297022547342641,0.000534210220762656,0.000193133375915428));
#851=CARTESIAN_POINT('',(-0.00147365375195752,0.152933380819445,0.0631328820657611));
#852=CARTESIAN_POINT('',(-0.0014411471266914,0.140234066801037,0.0578801527994243));
#853=CARTESIAN_POINT('',(-0.00141355481632081,0.121184326464509,0.0500029132031489));
#854=CARTESIAN_POINT('',(-0.00138194586372522,0.0936679015685142,0.0386249981727367));
#855=CARTESIAN_POINT('',(-0.00134564593148852,0.0555680575533232,0.0228713921185747));
#856=CARTESIAN_POINT('',(-0.00132087181525849,0.0238181014166275,0.0097435937229616));
#857=CARTESIAN_POINT('',(-0.0013032726068982,0.000534795103088961,0.000116553839249477));
#858=CARTESIAN_POINT('',(-0.000863870391869427,0.152931949524391,0.0630825060801662));
#859=CARTESIAN_POINT('',(-0.000668177581025113,0.1402329057347,0.0578285243631787));
#860=CARTESIAN_POINT('',(-0.000393935336562515,0.121183361419079,0.0499492305095064));
#861=CARTESIAN_POINT('',(-5.31862167565287E-6,0.0936671143452546,0.0385683374872517));
#862=CARTESIAN_POINT('',(0.000525962834485389,0.0555674294388143,0.0228105783491591));
#863=CARTESIAN_POINT('',(0.000963709295797776,0.023817535545879,0.00967931295160476));
#864=CARTESIAN_POINT('',(0.00128420553373904,0.000534267020147465,4.97313160971408E-5));
#865=CARTESIAN_POINT('',(-0.000352193563988752,0.152931417649595,0.0630367159566529));
#866=CARTESIAN_POINT('',(-2.10977335214547E-5,0.140232576707638,0.0577801171274716));
#867=CARTESIAN_POINT('',(0.000454875518488163,0.121183141946388,0.0498968858359753));
#868=CARTESIAN_POINT('',(0.00113434737948923,0.0936669951789505,0.038510258048667));
#869=CARTESIAN_POINT('',(0.00206786785435516,0.0555673904445687,0.0227445305014168));
#870=CARTESIAN_POINT('',(0.00284045949237973,0.0238175251428289,0.00960659267795707));
#871=CARTESIAN_POINT('',(0.00340647224251136,0.00053427402372065,-2.78863798899951E-5));
#872=CARTESIAN_POINT('',(4.90872533592812E-17,0.152930728923957,0.063006890153183));
#873=CARTESIAN_POINT('',(0.000425030153732047,0.140232039568174,0.0577492425337655));
#874=CARTESIAN_POINT('',(0.00104237432033573,0.121182706783082,0.049864365085695));
#875=CARTESIAN_POINT('',(0.00192623445730792,0.0936666527200008,0.0384753454009862));
#876=CARTESIAN_POINT('',(0.00314292117364534,0.0555671288997913,0.0227062882706347));
#877=CARTESIAN_POINT('',(0.00415160792127865,0.0238172946630216,0.00956556670196083));
#878=CARTESIAN_POINT('',(0.0048907699104977,0.000534062413699761,-7.0954373545089E-5));
#879=CARTESIAN_POINT('',(9.28212335472988E-17,0.000534520335015959,8.33512481879634E-5));
#880=CARTESIAN_POINT('',(7.87823415734789E-17,0.0258418985559018,0.0105427993032663));
#881=CARTESIAN_POINT('',(-1.1715744407401E-18,0.0764593591546472,0.0314551311861815));
#882=CARTESIAN_POINT('',(1.32422934990362E-17,0.127074098708641,0.0523741292073864));
#883=CARTESIAN_POINT('',(-7.97121658032546E-19,0.152399999999999,0.0627886569432284));
#884=CARTESIAN_POINT('',(-0.0158702976953297,1.52934657772596E-5,0.0888858973593124));
#885=CARTESIAN_POINT('',(-0.0158109414082658,0.0127092255545075,0.0887603270577128));
#886=CARTESIAN_POINT('',(-0.015696308560148,0.0380971792239806,0.0885178172575991));
#887=CARTESIAN_POINT('',(-0.015573289095643,0.0698326773348654,0.0882575652771497));
#888=CARTESIAN_POINT('',(-0.0155106333437263,0.0952215593342856,0.088125014842237));
#889=CARTESIAN_POINT('',(-0.0155021558389735,0.114263980248527,0.0881070803843844));
#890=CARTESIAN_POINT('',(-0.0155607016426697,0.130126902201083,0.0882309360800685));
#891=CARTESIAN_POINT('',(-0.0157386058441973,0.142806548443033,0.088607298641588));
#892=CARTESIAN_POINT('',(-0.0159180075241802,0.149138932275331,0.088986829171162));
#893=CARTESIAN_POINT('',(-0.0160630820357492,0.152300575295996,0.0892937393751731));
#894=CARTESIAN_POINT('',(8.50014503228636E-17,4.06371218265707E-32,1.57926255439754E-32));
#895=CARTESIAN_POINT('',(-4.84067389481115E-19,0.1524,0.068075));
#896=CARTESIAN_POINT('',(6.39679281766448E-18,0.1524,0.0776));
#897=CARTESIAN_POINT('',(-0.00861140067340784,0.1524,0.0735294467891905));
#898=CARTESIAN_POINT('',(0.021370494975499,3.35241608459592E-18,0.0101016977605792));
#899=CARTESIAN_POINT('',(-0.0157534051762723,0.1524,0.0853626405747571));
#900=CARTESIAN_POINT('',(-0.016572338272488,0.,0.0870951221865355));
#901=CARTESIAN_POINT('',(-0.0158379298686528,0.1524,0.0850723929616823));
#902=CARTESIAN_POINT('',(-0.0177444019147711,0.,0.0866241856459925));
#903=CARTESIAN_POINT('',(-0.0159144310222951,0.1524,0.0847798088612376));
#904=CARTESIAN_POINT('',(-0.0188963775235962,0.,0.0861032598630698));
#905=CARTESIAN_POINT('',(-0.0160511526737398,0.1524,0.0841908610368003));
#906=CARTESIAN_POINT('',(-0.0211517923692815,0.,0.0849652105028837));
#907=CARTESIAN_POINT('',(-0.0161113731442427,0.1524,0.0838944974251323));
#908=CARTESIAN_POINT('',(-0.0222552291479744,0.,0.0843480881173241));
#909=CARTESIAN_POINT('',(-0.0162153494772188,0.1524,0.0832988958199767));
#910=CARTESIAN_POINT('',(-0.0244055506588583,0.,0.0830221281359569));
#911=CARTESIAN_POINT('',(-0.0162591053235191,0.1524,0.0829996579191301));
#912=CARTESIAN_POINT('',(-0.0254524334987032,0.,0.0823132917070331));
#913=CARTESIAN_POINT('',(-0.0163300187568159,0.1524,0.0823992217153073));
#914=CARTESIAN_POINT('',(-0.0274820431607102,0.,0.0808090520013195));
#915=CARTESIAN_POINT('',(-0.0163571763327824,0.1524,0.082098023505724));
#916=CARTESIAN_POINT('',(-0.0284647681967562,0.,0.0800136500483048));
#917=CARTESIAN_POINT('',(-0.0163948102712063,0.1524,0.0814945866518927));
#918=CARTESIAN_POINT('',(-0.0303589242668893,0.,0.0783420564211528));
#919=CARTESIAN_POINT('',(-0.0164052866278101,0.1524,0.0811923481015044));
#920=CARTESIAN_POINT('',(-0.0312703536340635,0.,0.077465866218067));
#921=CARTESIAN_POINT('',(-0.0164095261237439,0.1524,0.0805877537113904));
#922=CARTESIAN_POINT('',(-0.0330152982146815,0.,0.0756390600206477));
#923=CARTESIAN_POINT('',(-0.0164032892624146,0.1524,0.0802853979657045));
#924=CARTESIAN_POINT('',(-0.0338488118925227,0.,0.0746884456339573));
#925=CARTESIAN_POINT('',(-0.0163741213669093,0.1524,0.0796814926885667));
#926=CARTESIAN_POINT('',(-0.0354318708596138,0.,0.0727196955789555));
#927=CARTESIAN_POINT('',(-0.0163511903372701,0.1524,0.0793799432510474));
#928=CARTESIAN_POINT('',(-0.0361814147557254,0.,0.0717015616432019));
#929=CARTESIAN_POINT('',(-0.0162887041395952,0.1524,0.0787785716313452));
#930=CARTESIAN_POINT('',(-0.0375910898153674,0.,0.0696051674296579));
#931=CARTESIAN_POINT('',(-0.0162491489812786,0.1524,0.0784787495427008));
#932=CARTESIAN_POINT('',(-0.0382512197383423,0.,0.0685269089967559));
#933=CARTESIAN_POINT('',(-0.0161535353368116,0.1524,0.0778817483861904));
#934=CARTESIAN_POINT('',(-0.039477271942708,0.,0.0663180974465038));
#935=CARTESIAN_POINT('',(-0.0160974768655331,0.1524,0.077584569411183));
#936=CARTESIAN_POINT('',(-0.0400431931451369,0.,0.0651875462729727));
#937=CARTESIAN_POINT('',(-0.0159690278128187,0.1524,0.0769937621746499));
#938=CARTESIAN_POINT('',(-0.0410767172614441,0.,0.0628823607330716));
#939=CARTESIAN_POINT('',(-0.0158966372513619,0.1524,0.0767001340050195));
#940=CARTESIAN_POINT('',(-0.0415443192657908,0.,0.0617077283953326));
#941=CARTESIAN_POINT('',(-0.0157357451201202,0.1524,0.0761173252267846));
#942=CARTESIAN_POINT('',(-0.0423778084580261,0.,0.0593229122097988));
#943=CARTESIAN_POINT('',(-0.0156472435753608,0.1524,0.0758281447088313));
#944=CARTESIAN_POINT('',(-0.0427436949124197,0.,0.0581127304607122));
#945=CARTESIAN_POINT('',(-0.0154543997881718,0.1524,0.0752551144970399));
#946=CARTESIAN_POINT('',(-0.0433710952660337,0.,0.055665605357935));
#947=CARTESIAN_POINT('',(-0.0153500575757375,0.1524,0.074971264892332));
#948=CARTESIAN_POINT('',(-0.0436326086131233,0.,0.0544286641577863));
#949=CARTESIAN_POINT('',(-0.0151258511470586,0.1524,0.0744097634878617));
#950=CARTESIAN_POINT('',(-0.0440493631066639,0.,0.0519370044369434));
#951=CARTESIAN_POINT('',(-0.0150059869656876,0.1524,0.0741321117754362));
#952=CARTESIAN_POINT('',(-0.0442046038863586,0.,0.0506822881089828));
#953=CARTESIAN_POINT('',(-0.0147511027027915,0.1524,0.0735838542060302));
#954=CARTESIAN_POINT('',(-0.0444076854906627,0.,0.0481641915392797));
#955=CARTESIAN_POINT('',(-0.0146160826609117,0.1524,0.0733132484343266));
#956=CARTESIAN_POINT('',(-0.0444555261365543,0.,0.046900813513536));
#957=CARTESIAN_POINT('',(-0.014331299072238,0.1524,0.0727799092762806));
#958=CARTESIAN_POINT('',(-0.0444434598010868,0.,0.0443745698839734));
#959=CARTESIAN_POINT('',(-0.0141815355697399,0.1524,0.0725171759728948));
#960=CARTESIAN_POINT('',(-0.0443835528303464,0.,0.043111706503323));
#961=CARTESIAN_POINT('',(-0.0138677224870494,0.1524,0.0720003842362974));
#962=CARTESIAN_POINT('',(-0.0441564261969921,0.,0.040595664777759));
#963=CARTESIAN_POINT('',(-0.013703672955668,0.1524,0.0717463258834685));
#964=CARTESIAN_POINT('',(-0.0439892067342563,0.,0.0393424886470363));
#965=CARTESIAN_POINT('',(-0.0133617888772632,0.1524,0.0712476600366168));
#966=CARTESIAN_POINT('',(-0.0435486695007474,0.,0.0368549236894422));
#967=CARTESIAN_POINT('',(-0.0131839543834169,0.1524,0.0710030526201573));
#968=CARTESIAN_POINT('',(-0.0432753521176601,0.,0.0356205370517012));
#969=CARTESIAN_POINT('',(-0.0128150435465423,0.1524,0.0705240357683456));
#970=CARTESIAN_POINT('',(-0.0426246040552625,0.,0.0331795168896291));
#971=CARTESIAN_POINT('',(-0.012623967260895,0.1524,0.0702896264075006));
#972=CARTESIAN_POINT('',(-0.0422471739486294,0.,0.0319728855134672));
#973=CARTESIAN_POINT('',(-0.0122291564522603,0.1524,0.0698317216409079));
#974=CARTESIAN_POINT('',(-0.0413909416611185,0.,0.0295961401038407));
#975=CARTESIAN_POINT('',(-0.0120254219906825,0.1524,0.0696082263063836));
#976=CARTESIAN_POINT('',(-0.0409121402337501,0.,0.0284260281619815));
#977=CARTESIAN_POINT('',(-0.0116059171048496,0.1524,0.0691728322312685));
#978=CARTESIAN_POINT('',(-0.0398566428264861,0.,0.0261308206124087));
#979=CARTESIAN_POINT('',(-0.0113901467458451,0.1524,0.0689609335583996));
#980=CARTESIAN_POINT('',(-0.0392799477754592,0.,0.0250057270245449));
#981=CARTESIAN_POINT('',(-0.0109472291019912,0.1524,0.0685493800252523));
#982=CARTESIAN_POINT('',(-0.0380328516839165,0.,0.0228087282055156));
#983=CARTESIAN_POINT('',(-0.0107200818860341,0.1524,0.0683497252289876));
#984=CARTESIAN_POINT('',(-0.0373624517408817,0.,0.0217368249077735));
#985=CARTESIAN_POINT('',(-0.0102551043143413,0.1524,0.0679632692706874));
#986=CARTESIAN_POINT('',(-0.0359328150467289,0.,0.0196539923664758));
#987=CARTESIAN_POINT('',(-0.010017274030929,0.1524,0.067776468168762));
#988=CARTESIAN_POINT('',(-0.035173579553733,0.,0.0186430649558738));
#989=CARTESIAN_POINT('',(-0.00953165674055268,0.1524,0.0674162901611454));
#990=CARTESIAN_POINT('',(-0.0335717861929153,0.,0.0166895270111188));
#991=CARTESIAN_POINT('',(-0.00928386980912244,0.1524,0.0672429133114771));
#992=CARTESIAN_POINT('',(-0.0327292297347186,0.,0.0157469181961365));
#993=CARTESIAN_POINT('',(-0.00877909605036072,0.1524,0.0669101133680446));
#994=CARTESIAN_POINT('',(-0.0309669140754109,0.,0.0139368640562511));
#995=CARTESIAN_POINT('',(-0.0085221093015427,0.1524,0.0667506903260448));
#996=CARTESIAN_POINT('',(-0.0300471564251895,0.,0.0130694203242487));
#997=CARTESIAN_POINT('',(-0.00799972083545522,0.1524,0.0664462849378174));
#998=CARTESIAN_POINT('',(-0.0281371187634366,0.,0.0114159970260449));
#999=CARTESIAN_POINT('',(-0.00773431919943905,0.1524,0.0663013026389377));
#1000=CARTESIAN_POINT('',(-0.0271468404327945,0.,0.0106300189149046));
#1001=CARTESIAN_POINT('',(-0.00719591158875272,0.1524,0.0660262215697269));
#1002=CARTESIAN_POINT('',(-0.0251029540196215,0.,0.00914523583229483));
#1003=CARTESIAN_POINT('',(-0.00692290569782748,0.1524,0.0658961228421826));
#1004=CARTESIAN_POINT('',(-0.0240493477357707,0.,0.00844643216747812));
#1005=CARTESIAN_POINT('',(-0.00637012343351266,0.1524,0.0656512062887566));
#1006=CARTESIAN_POINT('',(-0.0218864580110578,0.,0.00714107378332116));
#1007=CARTESIAN_POINT('',(-0.00609034714610387,0.1524,0.0655363885009697));
#1008=CARTESIAN_POINT('',(-0.0207771764736022,0.,0.0065345202127346));
#1009=CARTESIAN_POINT('',(-0.00552487862450599,0.1524,0.0653223845267893));
#1010=CARTESIAN_POINT('',(-0.0185109932386227,0.,0.00541806778748079));
#1011=CARTESIAN_POINT('',(-0.00523918647827094,0.1524,0.0652231983736824));
#1012=CARTESIAN_POINT('',(-0.0173540935354065,0.,0.00490816991532445));
#1013=CARTESIAN_POINT('',(-0.00466275884413932,0.1524,0.0650407606240456));
#1014=CARTESIAN_POINT('',(-0.0150010768472143,0.,0.00398873262140702));
#1015=CARTESIAN_POINT('',(-0.00437202344590139,0.1524,0.0649575090558925));
#1016=CARTESIAN_POINT('',(-0.013804961932962,0.,0.00357919400877773));
#1017=CARTESIAN_POINT('',(-0.00378639731706643,0.1524,0.0648071947614663));
#1018=CARTESIAN_POINT('',(-0.0113822025494175,0.,0.0028634500309444));
#1019=CARTESIAN_POINT('',(-0.00349150667755882,0.1524,0.0647401320585732));
#1020=CARTESIAN_POINT('',(-0.0101555602122248,0.,0.00255724529561605));
#1021=CARTESIAN_POINT('',(-0.00289847076737032,0.1524,0.0646224003334097));
#1022=CARTESIAN_POINT('',(-0.00768065545602719,0.,0.0020503933250094));
#1023=CARTESIAN_POINT('',(-0.00260032558893132,0.1524,0.0645717313294514));
#1024=CARTESIAN_POINT('',(-0.00643239521501117,0.,0.0018497465357757));
#1025=CARTESIAN_POINT('',(-0.00200169124288299,0.1524,0.0644869417686884));
#1026=CARTESIAN_POINT('',(-0.00392332115837793,0.,0.00155546801007708));
#1027=CARTESIAN_POINT('',(-0.00170120218988672,0.1524,0.0644528212269132));
#1028=CARTESIAN_POINT('',(-0.00266251006068213,0.,0.00146183654865254));
#1029=CARTESIAN_POINT('',(-0.0014,0.1524,0.0644270270158358));
#1030=CARTESIAN_POINT('',(-0.00139999999999994,0.,0.00142205271453574));
#1031=CARTESIAN_POINT('',(-0.00139999999999997,0.0762,0.0329245398651858));
#1032=CARTESIAN_POINT('',(-0.0161628717243801,0.0762,0.0862288813806463));
#1033=CARTESIAN_POINT('',(-0.00139999999999991,-6.69302758447704E-19,-2.59683942854868E-19));
#1034=CARTESIAN_POINT('',(-0.0014,0.1524,0.0667650738350462));
#1035=CARTESIAN_POINT('',(6.39679281766448E-18,0.1524,0.0776));
#1036=CARTESIAN_POINT('',(-0.00987711835768825,0.1524,0.0729311502542684));
#1037=CARTESIAN_POINT('',(0.0201047773708294,3.15386139218867E-18,0.00950340105723766));
#1038=MECHANICAL_DESIGN_GEOMETRIC_PRESENTATION_REPRESENTATION('',(#255),
#1039);
#1039=(
GEOMETRIC_REPRESENTATION_CONTEXT(3)
GLOBAL_UNCERTAINTY_ASSIGNED_CONTEXT((#1040))
GLOBAL_UNIT_ASSIGNED_CONTEXT((#1043,#1042,#1041))
REPRESENTATION_CONTEXT('Rear Pontoon1','TOP_LEVEL_ASSEMBLY_PART')
);
#1040=UNCERTAINTY_MEASURE_WITH_UNIT(LENGTH_MEASURE(2.E-5),#1043,
'DISTANCE_ACCURACY_VALUE','Maximum Tolerance applied to model');
#1041=(
NAMED_UNIT(*)
SI_UNIT($,.STERADIAN.)
SOLID_ANGLE_UNIT()
);
#1042=(
NAMED_UNIT(*)
PLANE_ANGLE_UNIT()
SI_UNIT($,.RADIAN.)
);
#1043=(
LENGTH_UNIT()
NAMED_UNIT(*)
SI_UNIT($,.METRE.)
);
#1044=PRODUCT_DEFINITION_SHAPE('','',#1045);
#1045=PRODUCT_DEFINITION('','',#1047,#1046);
#1046=PRODUCT_DEFINITION_CONTEXT('',#1053,'design');
#1047=PRODUCT_DEFINITION_FORMATION_WITH_SPECIFIED_SOURCE('','',#1049,
 .NOT_KNOWN.);
#1048=PRODUCT_RELATED_PRODUCT_CATEGORY('','',(#1049));
#1049=PRODUCT('Rear Pontoon1','Rear Pontoon1','Rear Pontoon1',(#1051));
#1050=PRODUCT_CATEGORY('','');
#1051=PRODUCT_CONTEXT('',#1053,'mechanical');
#1052=APPLICATION_PROTOCOL_DEFINITION('international standard',
'ap242_managed_model_based_3d_engineering',2020,#1053);
#1053=APPLICATION_CONTEXT('managed model based 3d engineering');
ENDSEC;
END-ISO-10303-21;
