ISO-10303-21;
HEADER;
/* Generated by software containing ST-Developer
 * from STEP Tools, Inc. (www.steptools.com) 
 */
/* OPTION: using custom renumber hook */

FILE_DESCRIPTION(
/* description */ ('STEP AP242 Edition 2',
'CAx-IF Rec.Pracs.---Representation and Presentation of Product Manufa
cturing Information (PMI)---4.0---2014-10-13',
'CAx-IF Rec.Pracs.---3D Tessellated Geometry---0.4---2014-09-14','2;1',
'CAx-IF Rec.Pracs.---User Defined Attributes---1.5---2016-08-15'),
/* implementation_level */ '2;1');

FILE_NAME(
/* name */ 'Pontoons - Middle Pontoon1',
/* time_stamp */ '2026-08-24T02:49:04Z',
/* author */ (''),
/* organization */ (''),
/* preprocessor_version */ 'ST-DEVELOPER v20',
/* originating_system */ 'ONSHAPE BY PTC INC, 1.219',
/* authorisation */ '  ');

FILE_SCHEMA (('AP242_MANAGED_MODEL_BASED_3D_ENGINEERING_MIM_LF { 1 0 10303 442 3 1 4 }'));
ENDSEC;

DATA;
#10=SHAPE_REPRESENTATION_RELATIONSHIP('','',#195,#11);
#11=ADVANCED_BREP_SHAPE_REPRESENTATION('',(#193),#321);
#12=PLANE('',#200);
#13=PLANE('',#204);
#14=PLANE('',#208);
#15=PLANE('',#212);
#16=PLANE('',#213);
#17=PLANE('',#214);
#18=LINE('',#274,#34);
#19=LINE('',#278,#35);
#20=LINE('',#280,#36);
#21=LINE('',#282,#37);
#22=LINE('',#284,#38);
#23=LINE('',#288,#39);
#24=LINE('',#292,#40);
#25=LINE('',#295,#41);
#26=LINE('',#297,#42);
#27=LINE('',#299,#43);
#28=LINE('',#303,#44);
#29=LINE('',#307,#45);
#30=LINE('',#309,#46);
#31=LINE('',#311,#47);
#32=LINE('',#316,#48);
#33=LINE('',#317,#49);
#34=VECTOR('',#221,1.);
#35=VECTOR('',#224,1.);
#36=VECTOR('',#227,1.);
#37=VECTOR('',#228,1.);
#38=VECTOR('',#229,1.);
#39=VECTOR('',#234,1.);
#40=VECTOR('',#239,1.);
#41=VECTOR('',#240,1.);
#42=VECTOR('',#241,1.);
#43=VECTOR('',#242,1.);
#44=VECTOR('',#247,1.);
#45=VECTOR('',#252,1.);
#46=VECTOR('',#253,1.);
#47=VECTOR('',#254,1.);
#48=VECTOR('',#263,1.);
#49=VECTOR('',#264,1.);
#50=ORIENTED_EDGE('',*,*,#98,.F.);
#51=ORIENTED_EDGE('',*,*,#99,.F.);
#52=ORIENTED_EDGE('',*,*,#100,.T.);
#53=ORIENTED_EDGE('',*,*,#101,.T.);
#54=ORIENTED_EDGE('',*,*,#102,.T.);
#55=ORIENTED_EDGE('',*,*,#103,.F.);
#56=ORIENTED_EDGE('',*,*,#104,.F.);
#57=ORIENTED_EDGE('',*,*,#99,.T.);
#58=ORIENTED_EDGE('',*,*,#105,.T.);
#59=ORIENTED_EDGE('',*,*,#106,.F.);
#60=ORIENTED_EDGE('',*,*,#107,.F.);
#61=ORIENTED_EDGE('',*,*,#103,.T.);
#62=ORIENTED_EDGE('',*,*,#108,.F.);
#63=ORIENTED_EDGE('',*,*,#109,.F.);
#64=ORIENTED_EDGE('',*,*,#110,.T.);
#65=ORIENTED_EDGE('',*,*,#111,.T.);
#66=ORIENTED_EDGE('',*,*,#112,.F.);
#67=ORIENTED_EDGE('',*,*,#113,.F.);
#68=ORIENTED_EDGE('',*,*,#114,.T.);
#69=ORIENTED_EDGE('',*,*,#109,.T.);
#70=ORIENTED_EDGE('',*,*,#115,.F.);
#71=ORIENTED_EDGE('',*,*,#116,.F.);
#72=ORIENTED_EDGE('',*,*,#117,.T.);
#73=ORIENTED_EDGE('',*,*,#113,.T.);
#74=ORIENTED_EDGE('',*,*,#118,.T.);
#75=ORIENTED_EDGE('',*,*,#111,.F.);
#76=ORIENTED_EDGE('',*,*,#119,.F.);
#77=ORIENTED_EDGE('',*,*,#116,.T.);
#78=ORIENTED_EDGE('',*,*,#120,.F.);
#79=ORIENTED_EDGE('',*,*,#101,.F.);
#80=ORIENTED_EDGE('',*,*,#121,.T.);
#81=ORIENTED_EDGE('',*,*,#106,.T.);
#82=ORIENTED_EDGE('',*,*,#110,.F.);
#83=ORIENTED_EDGE('',*,*,#114,.F.);
#84=ORIENTED_EDGE('',*,*,#117,.F.);
#85=ORIENTED_EDGE('',*,*,#119,.T.);
#86=ORIENTED_EDGE('',*,*,#100,.F.);
#87=ORIENTED_EDGE('',*,*,#104,.T.);
#88=ORIENTED_EDGE('',*,*,#107,.T.);
#89=ORIENTED_EDGE('',*,*,#121,.F.);
#90=ORIENTED_EDGE('',*,*,#108,.T.);
#91=ORIENTED_EDGE('',*,*,#118,.F.);
#92=ORIENTED_EDGE('',*,*,#115,.T.);
#93=ORIENTED_EDGE('',*,*,#112,.T.);
#94=ORIENTED_EDGE('',*,*,#98,.T.);
#95=ORIENTED_EDGE('',*,*,#120,.T.);
#96=ORIENTED_EDGE('',*,*,#105,.F.);
#97=ORIENTED_EDGE('',*,*,#102,.F.);
#98=EDGE_CURVE('',#122,#123,#138,.T.);
#99=EDGE_CURVE('',#124,#122,#18,.T.);
#100=EDGE_CURVE('',#124,#125,#139,.T.);
#101=EDGE_CURVE('',#125,#123,#19,.T.);
#102=EDGE_CURVE('',#122,#126,#20,.T.);
#103=EDGE_CURVE('',#127,#126,#21,.T.);
#104=EDGE_CURVE('',#124,#127,#22,.T.);
#105=EDGE_CURVE('',#126,#128,#140,.T.);
#106=EDGE_CURVE('',#129,#128,#23,.T.);
#107=EDGE_CURVE('',#127,#129,#141,.T.);
#108=EDGE_CURVE('',#130,#131,#24,.T.);
#109=EDGE_CURVE('',#132,#130,#25,.T.);
#110=EDGE_CURVE('',#132,#133,#26,.T.);
#111=EDGE_CURVE('',#133,#131,#27,.T.);
#112=EDGE_CURVE('',#134,#130,#142,.T.);
#113=EDGE_CURVE('',#135,#134,#28,.T.);
#114=EDGE_CURVE('',#135,#132,#143,.T.);
#115=EDGE_CURVE('',#136,#134,#29,.T.);
#116=EDGE_CURVE('',#137,#136,#30,.T.);
#117=EDGE_CURVE('',#137,#135,#31,.T.);
#118=EDGE_CURVE('',#136,#131,#144,.T.);
#119=EDGE_CURVE('',#137,#133,#145,.T.);
#120=EDGE_CURVE('',#123,#128,#32,.T.);
#121=EDGE_CURVE('',#125,#129,#33,.T.);
#122=VERTEX_POINT('',#272);
#123=VERTEX_POINT('',#273);
#124=VERTEX_POINT('',#275);
#125=VERTEX_POINT('',#277);
#126=VERTEX_POINT('',#281);
#127=VERTEX_POINT('',#283);
#128=VERTEX_POINT('',#287);
#129=VERTEX_POINT('',#289);
#130=VERTEX_POINT('',#293);
#131=VERTEX_POINT('',#294);
#132=VERTEX_POINT('',#296);
#133=VERTEX_POINT('',#298);
#134=VERTEX_POINT('',#302);
#135=VERTEX_POINT('',#304);
#136=VERTEX_POINT('',#308);
#137=VERTEX_POINT('',#310);
#138=CIRCLE('',#198,0.04445);
#139=CIRCLE('',#199,0.04445);
#140=CIRCLE('',#202,0.010925);
#141=CIRCLE('',#203,0.010925);
#142=CIRCLE('',#206,0.009525);
#143=CIRCLE('',#207,0.009525);
#144=CIRCLE('',#210,0.04585);
#145=CIRCLE('',#211,0.04585);
#146=EDGE_LOOP('',(#50,#51,#52,#53));
#147=EDGE_LOOP('',(#54,#55,#56,#57));
#148=EDGE_LOOP('',(#58,#59,#60,#61));
#149=EDGE_LOOP('',(#62,#63,#64,#65));
#150=EDGE_LOOP('',(#66,#67,#68,#69));
#151=EDGE_LOOP('',(#70,#71,#72,#73));
#152=EDGE_LOOP('',(#74,#75,#76,#77));
#153=EDGE_LOOP('',(#78,#79,#80,#81));
#154=EDGE_LOOP('',(#82,#83,#84,#85));
#155=EDGE_LOOP('',(#86,#87,#88,#89));
#156=EDGE_LOOP('',(#90,#91,#92,#93));
#157=EDGE_LOOP('',(#94,#95,#96,#97));
#158=FACE_BOUND('',#146,.T.);
#159=FACE_BOUND('',#147,.T.);
#160=FACE_BOUND('',#148,.T.);
#161=FACE_BOUND('',#149,.T.);
#162=FACE_BOUND('',#150,.T.);
#163=FACE_BOUND('',#151,.T.);
#164=FACE_BOUND('',#152,.T.);
#165=FACE_BOUND('',#153,.T.);
#166=FACE_BOUND('',#154,.T.);
#167=FACE_BOUND('',#155,.T.);
#168=FACE_BOUND('',#156,.T.);
#169=FACE_BOUND('',#157,.T.);
#170=CYLINDRICAL_SURFACE('',#197,0.04445);
#171=CYLINDRICAL_SURFACE('',#201,0.010925);
#172=CYLINDRICAL_SURFACE('',#205,0.009525);
#173=CYLINDRICAL_SURFACE('',#209,0.04585);
#174=ADVANCED_FACE('',(#158),#170,.F.);
#175=ADVANCED_FACE('',(#159),#12,.F.);
#176=ADVANCED_FACE('',(#160),#171,.T.);
#177=ADVANCED_FACE('',(#161),#13,.T.);
#178=ADVANCED_FACE('',(#162),#172,.F.);
#179=ADVANCED_FACE('',(#163),#14,.T.);
#180=ADVANCED_FACE('',(#164),#173,.T.);
#181=ADVANCED_FACE('',(#165),#15,.T.);
#182=ADVANCED_FACE('',(#166,#167),#16,.T.);
#183=ADVANCED_FACE('',(#168,#169),#17,.F.);
#184=CLOSED_SHELL('',(#174,#175,#176,#177,#178,#179,#180,#181,#182,#183));
#185=STYLED_ITEM('',(#186),#193);
#186=PRESENTATION_STYLE_ASSIGNMENT((#187));
#187=SURFACE_STYLE_USAGE(.BOTH.,#188);
#188=SURFACE_SIDE_STYLE('',(#189));
#189=SURFACE_STYLE_FILL_AREA(#190);
#190=FILL_AREA_STYLE('',(#191));
#191=FILL_AREA_STYLE_COLOUR('',#192);
#192=COLOUR_RGB('',0.6,0.6,0.6);
#193=MANIFOLD_SOLID_BREP('Middle Pontoon1',#184);
#194=SHAPE_DEFINITION_REPRESENTATION(#326,#195);
#195=SHAPE_REPRESENTATION('Middle Pontoon1',(#196),#321);
#196=AXIS2_PLACEMENT_3D('',#269,#215,#216);
#197=AXIS2_PLACEMENT_3D('',#270,#217,#218);
#198=AXIS2_PLACEMENT_3D('',#271,#219,#220);
#199=AXIS2_PLACEMENT_3D('',#276,#222,#223);
#200=AXIS2_PLACEMENT_3D('',#279,#225,#226);
#201=AXIS2_PLACEMENT_3D('',#285,#230,#231);
#202=AXIS2_PLACEMENT_3D('',#286,#232,#233);
#203=AXIS2_PLACEMENT_3D('',#290,#235,#236);
#204=AXIS2_PLACEMENT_3D('',#291,#237,#238);
#205=AXIS2_PLACEMENT_3D('',#300,#243,#244);
#206=AXIS2_PLACEMENT_3D('',#301,#245,#246);
#207=AXIS2_PLACEMENT_3D('',#305,#248,#249);
#208=AXIS2_PLACEMENT_3D('',#306,#250,#251);
#209=AXIS2_PLACEMENT_3D('',#312,#255,#256);
#210=AXIS2_PLACEMENT_3D('',#313,#257,#258);
#211=AXIS2_PLACEMENT_3D('',#314,#259,#260);
#212=AXIS2_PLACEMENT_3D('',#315,#261,#262);
#213=AXIS2_PLACEMENT_3D('',#318,#265,#266);
#214=AXIS2_PLACEMENT_3D('',#319,#267,#268);
#215=DIRECTION('',(0.,0.,1.));
#216=DIRECTION('',(1.,0.,0.));
#217=DIRECTION('',(0.,1.,0.));
#218=DIRECTION('',(0.,0.,1.));
#219=DIRECTION('',(0.,-1.,0.));
#220=DIRECTION('',(0.,0.,-1.));
#221=DIRECTION('',(0.,1.,0.));
#222=DIRECTION('',(0.,-1.,0.));
#223=DIRECTION('',(0.,0.,-1.));
#224=DIRECTION('',(0.,1.,0.));
#225=DIRECTION('',(-1.,0.,0.));
#226=DIRECTION('',(0.,0.,1.));
#227=DIRECTION('',(0.,0.,1.));
#228=DIRECTION('',(0.,1.,0.));
#229=DIRECTION('',(0.,0.,1.));
#230=DIRECTION('',(0.,1.,0.));
#231=DIRECTION('',(0.,0.,1.));
#232=DIRECTION('',(0.,-1.,0.));
#233=DIRECTION('',(0.,0.,-1.));
#234=DIRECTION('',(0.,1.,0.));
#235=DIRECTION('',(0.,-1.,0.));
#236=DIRECTION('',(0.,0.,-1.));
#237=DIRECTION('',(-0.90408400333547,0.,0.427354788101068));
#238=DIRECTION('',(0.427354788101068,0.,0.90408400333547));
#239=DIRECTION('',(0.427354788101068,0.,0.904084003335471));
#240=DIRECTION('',(0.,1.,0.));
#241=DIRECTION('',(0.427354788101068,0.,0.904084003335471));
#242=DIRECTION('',(0.,1.,0.));
#243=DIRECTION('',(0.,1.,0.));
#244=DIRECTION('',(0.,0.,1.));
#245=DIRECTION('',(0.,-1.,0.));
#246=DIRECTION('',(0.,0.,-1.));
#247=DIRECTION('',(0.,1.,0.));
#248=DIRECTION('',(0.,-1.,0.));
#249=DIRECTION('',(0.,0.,-1.));
#250=DIRECTION('',(-1.,0.,0.));
#251=DIRECTION('',(0.,0.,1.));
#252=DIRECTION('',(0.,0.,1.));
#253=DIRECTION('',(0.,1.,0.));
#254=DIRECTION('',(0.,0.,1.));
#255=DIRECTION('',(0.,1.,0.));
#256=DIRECTION('',(0.,0.,1.));
#257=DIRECTION('',(0.,-1.,0.));
#258=DIRECTION('',(0.,0.,-1.));
#259=DIRECTION('',(0.,-1.,0.));
#260=DIRECTION('',(0.,0.,-1.));
#261=DIRECTION('',(0.90408400333547,0.,-0.427354788101068));
#262=DIRECTION('',(-0.427354788101068,0.,-0.90408400333547));
#263=DIRECTION('',(-0.427354788101068,0.,-0.90408400333547));
#264=DIRECTION('',(-0.427354788101068,0.,-0.90408400333547));
#265=DIRECTION('',(0.,-1.,0.));
#266=DIRECTION('',(1.,0.,0.));
#267=DIRECTION('',(0.,-1.,0.));
#268=DIRECTION('',(1.,0.,0.));
#269=CARTESIAN_POINT('',(0.,0.,0.));
#270=CARTESIAN_POINT('',(3.48028897367847E-17,-0.1524,0.04585));
#271=CARTESIAN_POINT('',(3.48028897367847E-17,0.,0.04585));
#272=CARTESIAN_POINT('',(0.0014,0.,0.00142205271453564));
#273=CARTESIAN_POINT('',(0.0165723382724879,0.,0.0870951221865354));
#274=CARTESIAN_POINT('',(0.0014,-0.1524,0.00142205271453564));
#275=CARTESIAN_POINT('',(0.0014,-0.1524,0.00142205271453564));
#276=CARTESIAN_POINT('',(3.48028897367847E-17,-0.1524,0.04585));
#277=CARTESIAN_POINT('',(0.0165723382724879,-0.1524,0.0870951221865354));
#278=CARTESIAN_POINT('',(0.0165723382724879,-0.1524,0.0870951221865354));
#279=CARTESIAN_POINT('',(0.0014,-0.1524,0.0340935632747909));
#280=CARTESIAN_POINT('',(0.0014,0.,0.0340935632747909));
#281=CARTESIAN_POINT('',(0.0014,0.,0.0667650738350462));
#282=CARTESIAN_POINT('',(0.0014,-0.1524,0.0667650738350462));
#283=CARTESIAN_POINT('',(0.0014,-0.1524,0.0667650738350462));
#284=CARTESIAN_POINT('',(0.0014,-0.1524,0.0340935632747909));
#285=CARTESIAN_POINT('',(-1.35525271560688E-17,-0.1524,0.0776));
#286=CARTESIAN_POINT('',(-1.35525271560688E-17,0.,0.0776));
#287=CARTESIAN_POINT('',(0.00987711835768825,0.,0.0729311502542684));
#288=CARTESIAN_POINT('',(0.00987711835768825,-0.1524,0.0729311502542684));
#289=CARTESIAN_POINT('',(0.00987711835768825,-0.1524,0.0729311502542684));
#290=CARTESIAN_POINT('',(-1.35525271560688E-17,-0.1524,0.0776));
#291=CARTESIAN_POINT('',(0.0155618390387631,-0.1524,0.088233342281291));
#292=CARTESIAN_POINT('',(0.0155618390387631,0.,0.088233342281291));
#293=CARTESIAN_POINT('',(0.00861140013177036,0.,0.0735294456433373));
#294=CARTESIAN_POINT('',(0.0158621946123564,0.,0.0888687550038322));
#295=CARTESIAN_POINT('',(0.00861140013177036,-0.1524,0.0735294456433373));
#296=CARTESIAN_POINT('',(0.00861140013177036,-0.1524,0.0735294456433373));
#297=CARTESIAN_POINT('',(0.0155618390387631,-0.1524,0.088233342281291));
#298=CARTESIAN_POINT('',(0.0158621946123564,-0.1524,0.0888687550038322));
#299=CARTESIAN_POINT('',(0.0158621946123564,-0.1524,0.0888687550038322));
#300=CARTESIAN_POINT('',(2.84123699894477E-19,-0.1524,0.0776));
#301=CARTESIAN_POINT('',(2.84123699894477E-19,0.,0.0776));
#302=CARTESIAN_POINT('',(-1.16647607618785E-18,0.,0.068075));
#303=CARTESIAN_POINT('',(-1.16647607618785E-18,-0.1524,0.068075));
#304=CARTESIAN_POINT('',(-1.16647607618785E-18,-0.1524,0.068075));
#305=CARTESIAN_POINT('',(2.84123699894477E-19,-0.1524,0.0776));
#306=CARTESIAN_POINT('',(0.,-0.1524,0.0347375));
#307=CARTESIAN_POINT('',(0.,0.,0.0347375));
#308=CARTESIAN_POINT('',(0.,0.,0.));
#309=CARTESIAN_POINT('',(0.,-0.1524,0.));
#310=CARTESIAN_POINT('',(0.,-0.1524,0.));
#311=CARTESIAN_POINT('',(0.,-0.1524,0.0347375));
#312=CARTESIAN_POINT('',(-8.67361737988404E-18,-0.1524,0.04585));
#313=CARTESIAN_POINT('',(-8.67361737988404E-18,0.,0.04585));
#314=CARTESIAN_POINT('',(-8.67361737988404E-18,-0.1524,0.04585));
#315=CARTESIAN_POINT('',(0.0132247283150881,-0.1524,0.0800131362204019));
#316=CARTESIAN_POINT('',(0.0132247283150881,0.,0.0800131362204019));
#317=CARTESIAN_POINT('',(0.0132247283150881,-0.1524,0.0800131362204019));
#318=CARTESIAN_POINT('',(0.,-0.1524,0.04585));
#319=CARTESIAN_POINT('',(0.,0.,0.04585));
#320=MECHANICAL_DESIGN_GEOMETRIC_PRESENTATION_REPRESENTATION('',(#185),
#321);
#321=(
GEOMETRIC_REPRESENTATION_CONTEXT(3)
GLOBAL_UNCERTAINTY_ASSIGNED_CONTEXT((#322))
GLOBAL_UNIT_ASSIGNED_CONTEXT((#325,#324,#323))
REPRESENTATION_CONTEXT('Middle Pontoon1','TOP_LEVEL_ASSEMBLY_PART')
);
#322=UNCERTAINTY_MEASURE_WITH_UNIT(LENGTH_MEASURE(1.E-8),#325,
'DISTANCE_ACCURACY_VALUE','Maximum Tolerance applied to model');
#323=(
NAMED_UNIT(*)
SI_UNIT($,.STERADIAN.)
SOLID_ANGLE_UNIT()
);
#324=(
NAMED_UNIT(*)
PLANE_ANGLE_UNIT()
SI_UNIT($,.RADIAN.)
);
#325=(
LENGTH_UNIT()
NAMED_UNIT(*)
SI_UNIT($,.METRE.)
);
#326=PRODUCT_DEFINITION_SHAPE('','',#327);
#327=PRODUCT_DEFINITION('','',#329,#328);
#328=PRODUCT_DEFINITION_CONTEXT('',#335,'design');
#329=PRODUCT_DEFINITION_FORMATION_WITH_SPECIFIED_SOURCE('','',#331,
 .NOT_KNOWN.);
#330=PRODUCT_RELATED_PRODUCT_CATEGORY('','',(#331));
#331=PRODUCT('Middle Pontoon1','Middle Pontoon1','Middle Pontoon1',(#333));
#332=PRODUCT_CATEGORY('','');
#333=PRODUCT_CONTEXT('',#335,'mechanical');
#334=APPLICATION_PROTOCOL_DEFINITION('international standard',
'ap242_managed_model_based_3d_engineering',2020,#335);
#335=APPLICATION_CONTEXT('managed model based 3d engineering');
ENDSEC;
END-ISO-10303-21;
