ISO-10303-21;
HEADER;
/* Generated by software containing ST-Developer
 * from STEP Tools, Inc. (www.steptools.com) 
 */
/* OPTION: using custom renumber hook */

FILE_DESCRIPTION(
/* description */ ('STEP AP242 Edition 2',
'CAx-IF Rec.Pracs.---Representation and Presentation of Product Manufa
cturing Information (PMI)---4.0---2014-10-13',
'CAx-IF Rec.Pracs.---3D Tessellated Geometry---0.4---2014-09-14','2;1',
'CAx-IF Rec.Pracs.---User Defined Attributes---1.5---2016-08-15'),
/* implementation_level */ '2;1');

FILE_NAME(
/* name */ 'Pontoons - Middle Pontoon2',
/* time_stamp */ '2026-08-24T02:49:10Z',
/* author */ (''),
/* organization */ (''),
/* preprocessor_version */ 'ST-DEVELOPER v20',
/* originating_system */ 'ONSHAPE BY PTC INC, 1.219',
/* authorisation */ '  ');

FILE_SCHEMA (('AP242_MANAGED_MODEL_BASED_3D_ENGINEERING_MIM_LF { 1 0 10303 442 3 1 4 }'));
ENDSEC;

DATA;
#10=SHAPE_REPRESENTATION_RELATIONSHIP('','',#195,#11);
#11=ADVANCED_BREP_SHAPE_REPRESENTATION('',(#193),#321);
#12=CIRCLE('',#199,0.04585);
#13=CIRCLE('',#200,0.04585);
#14=CIRCLE('',#203,0.04445);
#15=CIRCLE('',#204,0.04445);
#16=CIRCLE('',#207,0.010925);
#17=CIRCLE('',#208,0.010925);
#18=CIRCLE('',#211,0.009525);
#19=CIRCLE('',#212,0.009525);
#20=CYLINDRICAL_SURFACE('',#198,0.04585);
#21=CYLINDRICAL_SURFACE('',#202,0.04445);
#22=CYLINDRICAL_SURFACE('',#206,0.010925);
#23=CYLINDRICAL_SURFACE('',#210,0.009525);
#24=ORIENTED_EDGE('',*,*,#72,.T.);
#25=ORIENTED_EDGE('',*,*,#73,.F.);
#26=ORIENTED_EDGE('',*,*,#74,.F.);
#27=ORIENTED_EDGE('',*,*,#75,.T.);
#28=ORIENTED_EDGE('',*,*,#76,.T.);
#29=ORIENTED_EDGE('',*,*,#77,.F.);
#30=ORIENTED_EDGE('',*,*,#78,.F.);
#31=ORIENTED_EDGE('',*,*,#73,.T.);
#32=ORIENTED_EDGE('',*,*,#79,.T.);
#33=ORIENTED_EDGE('',*,*,#80,.F.);
#34=ORIENTED_EDGE('',*,*,#81,.F.);
#35=ORIENTED_EDGE('',*,*,#77,.T.);
#36=ORIENTED_EDGE('',*,*,#82,.F.);
#37=ORIENTED_EDGE('',*,*,#83,.F.);
#38=ORIENTED_EDGE('',*,*,#84,.T.);
#39=ORIENTED_EDGE('',*,*,#85,.T.);
#40=ORIENTED_EDGE('',*,*,#86,.F.);
#41=ORIENTED_EDGE('',*,*,#87,.F.);
#42=ORIENTED_EDGE('',*,*,#88,.T.);
#43=ORIENTED_EDGE('',*,*,#83,.T.);
#44=ORIENTED_EDGE('',*,*,#89,.T.);
#45=ORIENTED_EDGE('',*,*,#90,.F.);
#46=ORIENTED_EDGE('',*,*,#91,.F.);
#47=ORIENTED_EDGE('',*,*,#87,.T.);
#48=ORIENTED_EDGE('',*,*,#92,.T.);
#49=ORIENTED_EDGE('',*,*,#85,.F.);
#50=ORIENTED_EDGE('',*,*,#93,.F.);
#51=ORIENTED_EDGE('',*,*,#90,.T.);
#52=ORIENTED_EDGE('',*,*,#94,.F.);
#53=ORIENTED_EDGE('',*,*,#75,.F.);
#54=ORIENTED_EDGE('',*,*,#95,.T.);
#55=ORIENTED_EDGE('',*,*,#80,.T.);
#56=ORIENTED_EDGE('',*,*,#84,.F.);
#57=ORIENTED_EDGE('',*,*,#88,.F.);
#58=ORIENTED_EDGE('',*,*,#91,.T.);
#59=ORIENTED_EDGE('',*,*,#93,.T.);
#60=ORIENTED_EDGE('',*,*,#74,.T.);
#61=ORIENTED_EDGE('',*,*,#78,.T.);
#62=ORIENTED_EDGE('',*,*,#81,.T.);
#63=ORIENTED_EDGE('',*,*,#95,.F.);
#64=ORIENTED_EDGE('',*,*,#82,.T.);
#65=ORIENTED_EDGE('',*,*,#92,.F.);
#66=ORIENTED_EDGE('',*,*,#89,.F.);
#67=ORIENTED_EDGE('',*,*,#86,.T.);
#68=ORIENTED_EDGE('',*,*,#72,.F.);
#69=ORIENTED_EDGE('',*,*,#94,.T.);
#70=ORIENTED_EDGE('',*,*,#79,.F.);
#71=ORIENTED_EDGE('',*,*,#76,.F.);
#72=EDGE_CURVE('',#96,#97,#112,.T.);
#73=EDGE_CURVE('',#98,#97,#113,.T.);
#74=EDGE_CURVE('',#99,#98,#114,.T.);
#75=EDGE_CURVE('',#99,#96,#115,.T.);
#76=EDGE_CURVE('',#97,#100,#12,.T.);
#77=EDGE_CURVE('',#101,#100,#116,.T.);
#78=EDGE_CURVE('',#98,#101,#13,.T.);
#79=EDGE_CURVE('',#100,#102,#117,.T.);
#80=EDGE_CURVE('',#103,#102,#118,.T.);
#81=EDGE_CURVE('',#101,#103,#119,.T.);
#82=EDGE_CURVE('',#104,#105,#14,.T.);
#83=EDGE_CURVE('',#106,#104,#120,.T.);
#84=EDGE_CURVE('',#106,#107,#15,.T.);
#85=EDGE_CURVE('',#107,#105,#121,.T.);
#86=EDGE_CURVE('',#108,#104,#122,.T.);
#87=EDGE_CURVE('',#109,#108,#123,.T.);
#88=EDGE_CURVE('',#109,#106,#124,.T.);
#89=EDGE_CURVE('',#108,#110,#16,.T.);
#90=EDGE_CURVE('',#111,#110,#125,.T.);
#91=EDGE_CURVE('',#109,#111,#17,.T.);
#92=EDGE_CURVE('',#110,#105,#126,.T.);
#93=EDGE_CURVE('',#111,#107,#127,.T.);
#94=EDGE_CURVE('',#96,#102,#18,.T.);
#95=EDGE_CURVE('',#99,#103,#19,.T.);
#96=VERTEX_POINT('',#272);
#97=VERTEX_POINT('',#273);
#98=VERTEX_POINT('',#275);
#99=VERTEX_POINT('',#277);
#100=VERTEX_POINT('',#281);
#101=VERTEX_POINT('',#283);
#102=VERTEX_POINT('',#287);
#103=VERTEX_POINT('',#289);
#104=VERTEX_POINT('',#293);
#105=VERTEX_POINT('',#294);
#106=VERTEX_POINT('',#296);
#107=VERTEX_POINT('',#298);
#108=VERTEX_POINT('',#302);
#109=VERTEX_POINT('',#304);
#110=VERTEX_POINT('',#308);
#111=VERTEX_POINT('',#310);
#112=LINE('',#271,#128);
#113=LINE('',#274,#129);
#114=LINE('',#276,#130);
#115=LINE('',#278,#131);
#116=LINE('',#282,#132);
#117=LINE('',#286,#133);
#118=LINE('',#288,#134);
#119=LINE('',#290,#135);
#120=LINE('',#295,#136);
#121=LINE('',#299,#137);
#122=LINE('',#301,#138);
#123=LINE('',#303,#139);
#124=LINE('',#305,#140);
#125=LINE('',#309,#141);
#126=LINE('',#313,#142);
#127=LINE('',#314,#143);
#128=VECTOR('',#219,1.);
#129=VECTOR('',#220,1.);
#130=VECTOR('',#221,1.);
#131=VECTOR('',#222,1.);
#132=VECTOR('',#227,1.);
#133=VECTOR('',#232,1.);
#134=VECTOR('',#233,1.);
#135=VECTOR('',#234,1.);
#136=VECTOR('',#239,1.);
#137=VECTOR('',#242,1.);
#138=VECTOR('',#245,1.);
#139=VECTOR('',#246,1.);
#140=VECTOR('',#247,1.);
#141=VECTOR('',#252,1.);
#142=VECTOR('',#257,1.);
#143=VECTOR('',#258,1.);
#144=EDGE_LOOP('',(#24,#25,#26,#27));
#145=EDGE_LOOP('',(#28,#29,#30,#31));
#146=EDGE_LOOP('',(#32,#33,#34,#35));
#147=EDGE_LOOP('',(#36,#37,#38,#39));
#148=EDGE_LOOP('',(#40,#41,#42,#43));
#149=EDGE_LOOP('',(#44,#45,#46,#47));
#150=EDGE_LOOP('',(#48,#49,#50,#51));
#151=EDGE_LOOP('',(#52,#53,#54,#55));
#152=EDGE_LOOP('',(#56,#57,#58,#59));
#153=EDGE_LOOP('',(#60,#61,#62,#63));
#154=EDGE_LOOP('',(#64,#65,#66,#67));
#155=EDGE_LOOP('',(#68,#69,#70,#71));
#156=FACE_BOUND('',#144,.T.);
#157=FACE_BOUND('',#145,.T.);
#158=FACE_BOUND('',#146,.T.);
#159=FACE_BOUND('',#147,.T.);
#160=FACE_BOUND('',#148,.T.);
#161=FACE_BOUND('',#149,.T.);
#162=FACE_BOUND('',#150,.T.);
#163=FACE_BOUND('',#151,.T.);
#164=FACE_BOUND('',#152,.T.);
#165=FACE_BOUND('',#153,.T.);
#166=FACE_BOUND('',#154,.T.);
#167=FACE_BOUND('',#155,.T.);
#168=PLANE('',#197);
#169=PLANE('',#201);
#170=PLANE('',#205);
#171=PLANE('',#209);
#172=PLANE('',#213);
#173=PLANE('',#214);
#174=ADVANCED_FACE('',(#156),#168,.F.);
#175=ADVANCED_FACE('',(#157),#20,.T.);
#176=ADVANCED_FACE('',(#158),#169,.F.);
#177=ADVANCED_FACE('',(#159),#21,.F.);
#178=ADVANCED_FACE('',(#160),#170,.T.);
#179=ADVANCED_FACE('',(#161),#22,.T.);
#180=ADVANCED_FACE('',(#162),#171,.F.);
#181=ADVANCED_FACE('',(#163),#23,.F.);
#182=ADVANCED_FACE('',(#164,#165),#172,.T.);
#183=ADVANCED_FACE('',(#166,#167),#173,.F.);
#184=CLOSED_SHELL('',(#174,#175,#176,#177,#178,#179,#180,#181,#182,#183));
#185=STYLED_ITEM('',(#186),#193);
#186=PRESENTATION_STYLE_ASSIGNMENT((#187));
#187=SURFACE_STYLE_USAGE(.BOTH.,#188);
#188=SURFACE_SIDE_STYLE('',(#189));
#189=SURFACE_STYLE_FILL_AREA(#190);
#190=FILL_AREA_STYLE('',(#191));
#191=FILL_AREA_STYLE_COLOUR('',#192);
#192=COLOUR_RGB('',0.6,0.6,0.6);
#193=MANIFOLD_SOLID_BREP('Middle Pontoon2',#184);
#194=SHAPE_DEFINITION_REPRESENTATION(#326,#195);
#195=SHAPE_REPRESENTATION('Middle Pontoon2',(#196),#321);
#196=AXIS2_PLACEMENT_3D('',#269,#215,#216);
#197=AXIS2_PLACEMENT_3D('',#270,#217,#218);
#198=AXIS2_PLACEMENT_3D('',#279,#223,#224);
#199=AXIS2_PLACEMENT_3D('',#280,#225,#226);
#200=AXIS2_PLACEMENT_3D('',#284,#228,#229);
#201=AXIS2_PLACEMENT_3D('',#285,#230,#231);
#202=AXIS2_PLACEMENT_3D('',#291,#235,#236);
#203=AXIS2_PLACEMENT_3D('',#292,#237,#238);
#204=AXIS2_PLACEMENT_3D('',#297,#240,#241);
#205=AXIS2_PLACEMENT_3D('',#300,#243,#244);
#206=AXIS2_PLACEMENT_3D('',#306,#248,#249);
#207=AXIS2_PLACEMENT_3D('',#307,#250,#251);
#208=AXIS2_PLACEMENT_3D('',#311,#253,#254);
#209=AXIS2_PLACEMENT_3D('',#312,#255,#256);
#210=AXIS2_PLACEMENT_3D('',#315,#259,#260);
#211=AXIS2_PLACEMENT_3D('',#316,#261,#262);
#212=AXIS2_PLACEMENT_3D('',#317,#263,#264);
#213=AXIS2_PLACEMENT_3D('',#318,#265,#266);
#214=AXIS2_PLACEMENT_3D('',#319,#267,#268);
#215=DIRECTION('',(0.,0.,1.));
#216=DIRECTION('',(1.,0.,0.));
#217=DIRECTION('',(-0.90408400333547,0.,-0.427354788101069));
#218=DIRECTION('',(-0.427354788101069,0.,0.90408400333547));
#219=DIRECTION('',(-0.427354788101069,0.,0.90408400333547));
#220=DIRECTION('',(0.,1.,0.));
#221=DIRECTION('',(-0.427354788101069,0.,0.90408400333547));
#222=DIRECTION('',(0.,1.,0.));
#223=DIRECTION('',(0.,1.,0.));
#224=DIRECTION('',(0.,0.,1.));
#225=DIRECTION('',(0.,-1.,0.));
#226=DIRECTION('',(0.,0.,-1.));
#227=DIRECTION('',(0.,1.,0.));
#228=DIRECTION('',(0.,-1.,0.));
#229=DIRECTION('',(0.,0.,-1.));
#230=DIRECTION('',(-1.,0.,0.));
#231=DIRECTION('',(0.,0.,1.));
#232=DIRECTION('',(0.,0.,1.));
#233=DIRECTION('',(0.,1.,0.));
#234=DIRECTION('',(0.,0.,1.));
#235=DIRECTION('',(0.,1.,0.));
#236=DIRECTION('',(0.,0.,1.));
#237=DIRECTION('',(0.,-1.,0.));
#238=DIRECTION('',(0.,0.,-1.));
#239=DIRECTION('',(0.,1.,0.));
#240=DIRECTION('',(0.,-1.,0.));
#241=DIRECTION('',(0.,0.,-1.));
#242=DIRECTION('',(0.,1.,0.));
#243=DIRECTION('',(-0.90408400333547,0.,-0.427354788101069));
#244=DIRECTION('',(-0.427354788101069,0.,0.90408400333547));
#245=DIRECTION('',(-0.427354788101069,0.,0.90408400333547));
#246=DIRECTION('',(0.,1.,0.));
#247=DIRECTION('',(-0.427354788101069,0.,0.90408400333547));
#248=DIRECTION('',(0.,1.,0.));
#249=DIRECTION('',(0.,0.,1.));
#250=DIRECTION('',(0.,-1.,0.));
#251=DIRECTION('',(0.,0.,-1.));
#252=DIRECTION('',(0.,1.,0.));
#253=DIRECTION('',(0.,-1.,0.));
#254=DIRECTION('',(0.,0.,-1.));
#255=DIRECTION('',(1.,0.,1.22784284209876E-16));
#256=DIRECTION('',(1.22784284209876E-16,0.,-1.));
#257=DIRECTION('',(1.22784284209876E-16,0.,-1.));
#258=DIRECTION('',(1.22784284209876E-16,0.,-1.));
#259=DIRECTION('',(0.,1.,0.));
#260=DIRECTION('',(0.,0.,1.));
#261=DIRECTION('',(0.,-1.,0.));
#262=DIRECTION('',(0.,0.,-1.));
#263=DIRECTION('',(0.,-1.,0.));
#264=DIRECTION('',(0.,0.,-1.));
#265=DIRECTION('',(0.,-1.,0.));
#266=DIRECTION('',(1.,0.,0.));
#267=DIRECTION('',(0.,-1.,0.));
#268=DIRECTION('',(1.,0.,0.));
#269=CARTESIAN_POINT('',(0.,0.,0.));
#270=CARTESIAN_POINT('',(-0.00975472395400493,-0.1524,0.0759481871833766));
#271=CARTESIAN_POINT('',(-0.00975472395400493,0.,0.0759481871833766));
#272=CARTESIAN_POINT('',(-0.00861140013177035,0.,0.0735294456433373));
#273=CARTESIAN_POINT('',(-0.0158621946123564,0.,0.0888687550038322));
#274=CARTESIAN_POINT('',(-0.0158621946123564,-0.1524,0.0888687550038322));
#275=CARTESIAN_POINT('',(-0.0158621946123564,-0.1524,0.0888687550038322));
#276=CARTESIAN_POINT('',(-0.00975472395400493,-0.1524,0.0759481871833766));
#277=CARTESIAN_POINT('',(-0.00861140013177035,-0.1524,0.0735294456433373));
#278=CARTESIAN_POINT('',(-0.00861140013177035,-0.1524,0.0735294456433373));
#279=CARTESIAN_POINT('',(8.67361737988403E-18,-0.1524,0.04585));
#280=CARTESIAN_POINT('',(8.67361737988403E-18,0.,0.04585));
#281=CARTESIAN_POINT('',(0.,0.,0.));
#282=CARTESIAN_POINT('',(0.,-0.1524,0.));
#283=CARTESIAN_POINT('',(0.,-0.1524,0.));
#284=CARTESIAN_POINT('',(8.67361737988403E-18,-0.1524,0.04585));
#285=CARTESIAN_POINT('',(0.,-0.1524,0.0007));
#286=CARTESIAN_POINT('',(0.,0.,0.0007));
#287=CARTESIAN_POINT('',(-1.16647607618785E-18,0.,0.068075));
#288=CARTESIAN_POINT('',(-1.16647607618785E-18,-0.1524,0.068075));
#289=CARTESIAN_POINT('',(-1.16647607618785E-18,-0.1524,0.068075));
#290=CARTESIAN_POINT('',(0.,-0.1524,0.0007));
#291=CARTESIAN_POINT('',(-1.77809156287623E-17,-0.1524,0.04585));
#292=CARTESIAN_POINT('',(-1.77809156287623E-17,0.,0.04585));
#293=CARTESIAN_POINT('',(-0.0165723382724879,0.,0.0870951221865354));
#294=CARTESIAN_POINT('',(-0.00139999999999994,0.,0.00142205271453563));
#295=CARTESIAN_POINT('',(-0.0165723382724879,-0.1524,0.0870951221865354));
#296=CARTESIAN_POINT('',(-0.0165723382724879,-0.1524,0.0870951221865354));
#297=CARTESIAN_POINT('',(-1.77809156287623E-17,-0.1524,0.04585));
#298=CARTESIAN_POINT('',(-0.00139999999999994,-0.1524,0.00142205271453563));
#299=CARTESIAN_POINT('',(-0.00139999999999994,-0.1524,0.00142205271453563));
#300=CARTESIAN_POINT('',(-0.0132247283150881,-0.1524,0.0800131362204019));
#301=CARTESIAN_POINT('',(-0.0132247283150881,0.,0.0800131362204019));
#302=CARTESIAN_POINT('',(-0.00987711835768823,0.,0.0729311502542684));
#303=CARTESIAN_POINT('',(-0.00987711835768823,-0.1524,0.0729311502542684));
#304=CARTESIAN_POINT('',(-0.00987711835768823,-0.1524,0.0729311502542684));
#305=CARTESIAN_POINT('',(-0.0132247283150881,-0.1524,0.0800131362204019));
#306=CARTESIAN_POINT('',(-8.02309607639273E-18,-0.1524,0.0776));
#307=CARTESIAN_POINT('',(-8.02309607639273E-18,0.,0.0776));
#308=CARTESIAN_POINT('',(-0.00139999999999993,0.,0.0667650738350462));
#309=CARTESIAN_POINT('',(-0.00139999999999993,-0.1524,0.0667650738350462));
#310=CARTESIAN_POINT('',(-0.00139999999999993,-0.1524,0.0667650738350462));
#311=CARTESIAN_POINT('',(-8.02309607639273E-18,-0.1524,0.0776));
#312=CARTESIAN_POINT('',(-0.00139999999999994,-0.1524,0.0340935632747909));
#313=CARTESIAN_POINT('',(-0.00139999999999994,0.,0.0340935632747909));
#314=CARTESIAN_POINT('',(-0.00139999999999994,-0.1524,0.0340935632747909));
#315=CARTESIAN_POINT('',(-1.45059977608233E-18,-0.1524,0.0776));
#316=CARTESIAN_POINT('',(-1.45059977608233E-18,0.,0.0776));
#317=CARTESIAN_POINT('',(-1.45059977608233E-18,-0.1524,0.0776));
#318=CARTESIAN_POINT('',(0.,-0.1524,0.04585));
#319=CARTESIAN_POINT('',(0.,0.,0.04585));
#320=MECHANICAL_DESIGN_GEOMETRIC_PRESENTATION_REPRESENTATION('',(#185),
#321);
#321=(
GEOMETRIC_REPRESENTATION_CONTEXT(3)
GLOBAL_UNCERTAINTY_ASSIGNED_CONTEXT((#322))
GLOBAL_UNIT_ASSIGNED_CONTEXT((#325,#324,#323))
REPRESENTATION_CONTEXT('Middle Pontoon2','TOP_LEVEL_ASSEMBLY_PART')
);
#322=UNCERTAINTY_MEASURE_WITH_UNIT(LENGTH_MEASURE(1.E-8),#325,
'DISTANCE_ACCURACY_VALUE','Maximum Tolerance applied to model');
#323=(
NAMED_UNIT(*)
SI_UNIT($,.STERADIAN.)
SOLID_ANGLE_UNIT()
);
#324=(
NAMED_UNIT(*)
PLANE_ANGLE_UNIT()
SI_UNIT($,.RADIAN.)
);
#325=(
LENGTH_UNIT()
NAMED_UNIT(*)
SI_UNIT($,.METRE.)
);
#326=PRODUCT_DEFINITION_SHAPE('','',#327);
#327=PRODUCT_DEFINITION('','',#329,#328);
#328=PRODUCT_DEFINITION_CONTEXT('',#335,'design');
#329=PRODUCT_DEFINITION_FORMATION_WITH_SPECIFIED_SOURCE('','',#331,
 .NOT_KNOWN.);
#330=PRODUCT_RELATED_PRODUCT_CATEGORY('','',(#331));
#331=PRODUCT('Middle Pontoon2','Middle Pontoon2','Middle Pontoon2',(#333));
#332=PRODUCT_CATEGORY('','');
#333=PRODUCT_CONTEXT('',#335,'mechanical');
#334=APPLICATION_PROTOCOL_DEFINITION('international standard',
'ap242_managed_model_based_3d_engineering',2020,#335);
#335=APPLICATION_CONTEXT('managed model based 3d engineering');
ENDSEC;
END-ISO-10303-21;
