ISO-10303-21;
HEADER;
/* Generated by software containing ST-Developer
 * from STEP Tools, Inc. (www.steptools.com) 
 */
/* OPTION: using custom renumber hook */

FILE_DESCRIPTION(
/* description */ ('STEP AP242 Edition 2',
'CAx-IF Rec.Pracs.---Representation and Presentation of Product Manufa
cturing Information (PMI)---4.0---2014-10-13',
'CAx-IF Rec.Pracs.---3D Tessellated Geometry---0.4---2014-09-14','2;1',
'CAx-IF Rec.Pracs.---User Defined Attributes---1.5---2016-08-15'),
/* implementation_level */ '2;1');

FILE_NAME(
/* name */ 'Pontoons - Rear Core2',
/* time_stamp */ '2026-08-24T02:49:25Z',
/* author */ (''),
/* organization */ (''),
/* preprocessor_version */ 'ST-DEVELOPER v20',
/* originating_system */ 'ONSHAPE BY PTC INC, 1.219',
/* authorisation */ '  ');

FILE_SCHEMA (('AP242_MANAGED_MODEL_BASED_3D_ENGINEERING_MIM_LF { 1 0 10303 442 3 1 4 }'));
ENDSEC;

DATA;
#10=SHAPE_REPRESENTATION_RELATIONSHIP('','',#111,#11);
#11=ADVANCED_BREP_SHAPE_REPRESENTATION('',(#109),#249);
#12=CYLINDRICAL_SURFACE('',#116,0.010925);
#13=PLANE('',#115);
#14=PLANE('',#119);
#15=PLANE('',#120);
#16=PLANE('',#121);
#17=LINE('',#226,#25);
#18=LINE('',#230,#26);
#19=LINE('',#232,#27);
#20=LINE('',#234,#28);
#21=LINE('',#236,#29);
#22=LINE('',#240,#30);
#23=LINE('',#244,#31);
#24=LINE('',#245,#32);
#25=VECTOR('',#126,1.);
#26=VECTOR('',#129,1.);
#27=VECTOR('',#132,1.);
#28=VECTOR('',#133,1.);
#29=VECTOR('',#134,1.);
#30=VECTOR('',#139,1.);
#31=VECTOR('',#144,1.);
#32=VECTOR('',#145,1.);
#33=ORIENTED_EDGE('',*,*,#57,.F.);
#34=ORIENTED_EDGE('',*,*,#58,.F.);
#35=ORIENTED_EDGE('',*,*,#59,.T.);
#36=ORIENTED_EDGE('',*,*,#60,.T.);
#37=ORIENTED_EDGE('',*,*,#58,.T.);
#38=ORIENTED_EDGE('',*,*,#61,.F.);
#39=ORIENTED_EDGE('',*,*,#62,.F.);
#40=ORIENTED_EDGE('',*,*,#63,.T.);
#41=ORIENTED_EDGE('',*,*,#62,.T.);
#42=ORIENTED_EDGE('',*,*,#64,.F.);
#43=ORIENTED_EDGE('',*,*,#65,.F.);
#44=ORIENTED_EDGE('',*,*,#66,.T.);
#45=ORIENTED_EDGE('',*,*,#65,.T.);
#46=ORIENTED_EDGE('',*,*,#67,.F.);
#47=ORIENTED_EDGE('',*,*,#60,.F.);
#48=ORIENTED_EDGE('',*,*,#68,.T.);
#49=ORIENTED_EDGE('',*,*,#64,.T.);
#50=ORIENTED_EDGE('',*,*,#61,.T.);
#51=ORIENTED_EDGE('',*,*,#57,.T.);
#52=ORIENTED_EDGE('',*,*,#67,.T.);
#53=ORIENTED_EDGE('',*,*,#68,.F.);
#54=ORIENTED_EDGE('',*,*,#59,.F.);
#55=ORIENTED_EDGE('',*,*,#63,.F.);
#56=ORIENTED_EDGE('',*,*,#66,.F.);
#57=EDGE_CURVE('',#69,#70,#77,.F.);
#58=EDGE_CURVE('',#71,#69,#17,.T.);
#59=EDGE_CURVE('',#71,#72,#78,.F.);
#60=EDGE_CURVE('',#72,#70,#18,.T.);
#61=EDGE_CURVE('',#73,#69,#19,.F.);
#62=EDGE_CURVE('',#74,#73,#20,.T.);
#63=EDGE_CURVE('',#74,#71,#21,.F.);
#64=EDGE_CURVE('',#75,#73,#79,.T.);
#65=EDGE_CURVE('',#76,#75,#22,.T.);
#66=EDGE_CURVE('',#76,#74,#80,.T.);
#67=EDGE_CURVE('',#70,#75,#23,.T.);
#68=EDGE_CURVE('',#72,#76,#24,.T.);
#69=VERTEX_POINT('',#224);
#70=VERTEX_POINT('',#225);
#71=VERTEX_POINT('',#227);
#72=VERTEX_POINT('',#229);
#73=VERTEX_POINT('',#233);
#74=VERTEX_POINT('',#235);
#75=VERTEX_POINT('',#239);
#76=VERTEX_POINT('',#241);
#77=CIRCLE('',#113,0.0164078097469151);
#78=CIRCLE('',#114,0.04445);
#79=CIRCLE('',#117,0.010925);
#80=CIRCLE('',#118,0.010925);
#81=EDGE_LOOP('',(#33,#34,#35,#36));
#82=EDGE_LOOP('',(#37,#38,#39,#40));
#83=EDGE_LOOP('',(#41,#42,#43,#44));
#84=EDGE_LOOP('',(#45,#46,#47,#48));
#85=EDGE_LOOP('',(#49,#50,#51,#52));
#86=EDGE_LOOP('',(#53,#54,#55,#56));
#87=FACE_BOUND('',#81,.T.);
#88=FACE_BOUND('',#82,.T.);
#89=FACE_BOUND('',#83,.T.);
#90=FACE_BOUND('',#84,.T.);
#91=FACE_BOUND('',#85,.T.);
#92=FACE_BOUND('',#86,.T.);
#93=B_SPLINE_SURFACE_WITH_KNOTS('',3,3,((#151,#152,#153,#154),(#155,#156,
#157,#158),(#159,#160,#161,#162),(#163,#164,#165,#166),(#167,#168,#169,
#170),(#171,#172,#173,#174),(#175,#176,#177,#178),(#179,#180,#181,#182),
(#183,#184,#185,#186),(#187,#188,#189,#190),(#191,#192,#193,#194),(#195,
#196,#197,#198),(#199,#200,#201,#202),(#203,#204,#205,#206),(#207,#208,
#209,#210),(#211,#212,#213,#214),(#215,#216,#217,#218),(#219,#220,#221,
#222)),.UNSPECIFIED.,.F.,.F.,.F.,(4,2,2,2,2,2,2,2,4),(4,4),(0.,0.125,0.25,
0.375,0.5,0.625,0.75,0.875,1.),(-0.00600003209374731,1.),.UNSPECIFIED.);
#94=ADVANCED_FACE('',(#87),#93,.T.);
#95=ADVANCED_FACE('',(#88),#13,.T.);
#96=ADVANCED_FACE('',(#89),#12,.F.);
#97=ADVANCED_FACE('',(#90),#14,.T.);
#98=ADVANCED_FACE('',(#91),#15,.F.);
#99=ADVANCED_FACE('',(#92),#16,.T.);
#100=CLOSED_SHELL('',(#94,#95,#96,#97,#98,#99));
#101=STYLED_ITEM('',(#102),#109);
#102=PRESENTATION_STYLE_ASSIGNMENT((#103));
#103=SURFACE_STYLE_USAGE(.BOTH.,#104);
#104=SURFACE_SIDE_STYLE('',(#105));
#105=SURFACE_STYLE_FILL_AREA(#106);
#106=FILL_AREA_STYLE('',(#107));
#107=FILL_AREA_STYLE_COLOUR('',#108);
#108=COLOUR_RGB('',0.6,0.6,0.6);
#109=MANIFOLD_SOLID_BREP('Rear Core2',#100);
#110=SHAPE_DEFINITION_REPRESENTATION(#254,#111);
#111=SHAPE_REPRESENTATION('Rear Core2',(#112),#249);
#112=AXIS2_PLACEMENT_3D('',#150,#122,#123);
#113=AXIS2_PLACEMENT_3D('',#223,#124,#125);
#114=AXIS2_PLACEMENT_3D('',#228,#127,#128);
#115=AXIS2_PLACEMENT_3D('',#231,#130,#131);
#116=AXIS2_PLACEMENT_3D('',#237,#135,#136);
#117=AXIS2_PLACEMENT_3D('',#238,#137,#138);
#118=AXIS2_PLACEMENT_3D('',#242,#140,#141);
#119=AXIS2_PLACEMENT_3D('',#243,#142,#143);
#120=AXIS2_PLACEMENT_3D('',#246,#146,#147);
#121=AXIS2_PLACEMENT_3D('',#247,#148,#149);
#122=DIRECTION('',(0.,0.,1.));
#123=DIRECTION('',(1.,0.,0.));
#124=DIRECTION('',(0.,-1.,0.));
#125=DIRECTION('',(0.,0.,-1.));
#126=DIRECTION('',(-0.00537315706127236,0.999920956286205,-0.0113670736284866));
#127=DIRECTION('',(0.,-1.,0.));
#128=DIRECTION('',(0.,0.,-1.));
#129=DIRECTION('',(-2.11698862701335E-16,0.924139103292404,0.382056170956459));
#130=DIRECTION('',(-0.904084003335471,-6.00281167895267E-9,0.427354788101068));
#131=DIRECTION('',(0.427354788101068,0.,0.904084003335471));
#132=DIRECTION('',(-0.427354667801521,0.,-0.904084060200296));
#133=DIRECTION('',(-9.10615997888088E-17,1.,1.82123199577617E-16));
#134=DIRECTION('',(-0.427354788101068,0.,-0.90408400333547));
#135=DIRECTION('',(0.,-1.,0.));
#136=DIRECTION('',(0.,0.,-1.));
#137=DIRECTION('',(0.,-1.,0.));
#138=DIRECTION('',(0.,0.,-1.));
#139=DIRECTION('',(-1.82123199577617E-16,1.,-1.82123199577617E-16));
#140=DIRECTION('',(0.,-1.,0.));
#141=DIRECTION('',(0.,0.,-1.));
#142=DIRECTION('',(-1.,-1.82123199577617E-16,0.));
#143=DIRECTION('',(1.82123199577617E-16,-1.,0.));
#144=DIRECTION('',(0.,0.,1.));
#145=DIRECTION('',(0.,0.,1.));
#146=DIRECTION('',(0.,-1.,0.));
#147=DIRECTION('',(1.,0.,0.));
#148=DIRECTION('',(0.,-1.,0.));
#149=DIRECTION('',(1.,0.,0.));
#150=CARTESIAN_POINT('',(0.,0.,0.));
#151=CARTESIAN_POINT('',(0.0165772519019769,-0.000914404891087089,0.0871055171159127));
#152=CARTESIAN_POINT('',(0.0163026360695765,0.0501903967392753,0.086524559151936));
#153=CARTESIAN_POINT('',(0.0160280202371761,0.101295198369638,0.0859436011879594));
#154=CARTESIAN_POINT('',(0.0157534044047757,0.1524,0.0853626432239828));
#155=CARTESIAN_POINT('',(0.0212916075441557,-0.000914404891087089,0.0852174343966066));
#156=CARTESIAN_POINT('',(0.0195582394966654,0.0501903967392753,0.0848788405037899));
#157=CARTESIAN_POINT('',(0.0178248714491752,0.101295198369638,0.0845402466109731));
#158=CARTESIAN_POINT('',(0.016091503401685,0.1524,0.0842016527181563));
#159=CARTESIAN_POINT('',(0.025679471244769,-0.000914404891087089,0.0825181476286944));
#160=CARTESIAN_POINT('',(0.0225532225265525,0.0501903967392753,0.0826798255190719));
#161=CARTESIAN_POINT('',(0.0194269738083359,0.101295198369638,0.0828415034094494));
#162=CARTESIAN_POINT('',(0.0163007250901193,0.1524,0.0830031812998268));
#163=CARTESIAN_POINT('',(0.0333006522925765,-0.000914404891087089,0.0758061372216462));
#164=CARTESIAN_POINT('',(0.0276841885994858,0.0501903967392753,0.0774005693734839));
#165=CARTESIAN_POINT('',(0.022067724906395,0.101295198369638,0.0789950015253216));
#166=CARTESIAN_POINT('',(0.0164512612133043,0.1524,0.0805894336771593));
#167=CARTESIAN_POINT('',(0.0365322595050305,-0.000914404891087089,0.0717949213175175));
#168=CARTESIAN_POINT('',(0.0298190295509642,0.0501903967392753,0.0743213653645198));
#169=CARTESIAN_POINT('',(0.0231057995968979,0.101295198369638,0.076847809411522));
#170=CARTESIAN_POINT('',(0.0163925696428316,0.1524,0.0793742534585243));
#171=CARTESIAN_POINT('',(0.0414681884709454,-0.000914404891087089,0.0629209914617948));
#172=CARTESIAN_POINT('',(0.0329821640905607,0.0501903967392753,0.0676094104935961));
#173=CARTESIAN_POINT('',(0.0244961397101759,0.101295198369638,0.0722978295253974));
#174=CARTESIAN_POINT('',(0.0160101153297912,0.1524,0.0769862485571987));
#175=CARTESIAN_POINT('',(0.0431714044041889,-0.000914404891087089,0.0580602689825881));
#176=CARTESIAN_POINT('',(0.0340097255304152,0.0501903967392753,0.0639780189065687));
#177=CARTESIAN_POINT('',(0.0248480466566415,0.101295198369638,0.0698957688305494));
#178=CARTESIAN_POINT('',(0.0156863677828678,0.1524,0.0758135187545301));
#179=CARTESIAN_POINT('',(0.0448538055218631,-0.000914404891087089,0.0480473060536859));
#180=CARTESIAN_POINT('',(0.0348323844208925,0.0501903967392753,0.0565540416454048));
#181=CARTESIAN_POINT('',(0.0248109633199219,0.101295198369638,0.0650607772371237));
#182=CARTESIAN_POINT('',(0.0147895422189512,0.1524,0.0735675128288426));
#183=CARTESIAN_POINT('',(0.0448326146377447,-0.000914404891087089,0.0428973122000504));
#184=CARTESIAN_POINT('',(0.0346272430366833,0.0501903967392753,0.0527629834480182));
#185=CARTESIAN_POINT('',(0.024421871435622,0.101295198369638,0.0626286546959859));
#186=CARTESIAN_POINT('',(0.0142164998345606,0.1524,0.0724943259439536));
#187=CARTESIAN_POINT('',(0.0430680980150962,-0.000914404891087089,0.0328993185375195));
#188=CARTESIAN_POINT('',(0.032995053196277,0.0501903967392753,0.0454327664423164));
#189=CARTESIAN_POINT('',(0.0229220083774578,0.101295198369638,0.0579662143471132));
#190=CARTESIAN_POINT('',(0.0128489635586386,0.1524,0.0704996622519101));
#191=CARTESIAN_POINT('',(0.0413251692540401,-0.000914404891087089,0.0280535616916932));
#192=CARTESIAN_POINT('',(0.0315682875033436,0.0501903967392753,0.0418951293599875));
#193=CARTESIAN_POINT('',(0.0218114057526472,0.101295198369638,0.0557366970282818));
#194=CARTESIAN_POINT('',(0.0120545240019507,0.1524,0.0695782646965761));
#195=CARTESIAN_POINT('',(0.036317484502276,-0.000914404891087089,0.0192227155011177));
#196=CARTESIAN_POINT('',(0.0276392741221521,0.0501903967392753,0.0354591604326589));
#197=CARTESIAN_POINT('',(0.0189610637420282,0.101295198369638,0.0516956053642002));
#198=CARTESIAN_POINT('',(0.0102828533619043,0.1524,0.0679320502957414));
#199=CARTESIAN_POINT('',(0.0330538527969248,-0.000914404891087089,0.0152396071521482));
#200=CARTESIAN_POINT('',(0.0251377994214245,0.0501903967392753,0.0325621710539326));
#201=CARTESIAN_POINT('',(0.0172217460459242,0.101295198369638,0.0498847349557169));
#202=CARTESIAN_POINT('',(0.00930569267042381,0.1524,0.0672072988575013));
#203=CARTESIAN_POINT('',(0.0253803983919629,-0.000914404891087089,0.0085935373575353));
#204=CARTESIAN_POINT('',(0.019325645147507,0.0501903967392753,0.0277255839386814));
#205=CARTESIAN_POINT('',(0.013270891903051,0.101295198369638,0.0468576305198275));
#206=CARTESIAN_POINT('',(0.00721613865859509,0.1524,0.0659896771009736));
#207=CARTESIAN_POINT('',(0.0209722977832784,-0.000914404891087089,0.00593206678011544));
#208=CARTESIAN_POINT('',(0.016016141308933,0.0501903967392753,0.0257869962404563));
#209=CARTESIAN_POINT('',(0.0110599848345875,0.101295198369638,0.0456419257007972));
#210=CARTESIAN_POINT('',(0.00610382836024203,0.1524,0.065496855161138));
#211=CARTESIAN_POINT('',(0.0115175926663659,-0.000914404891087089,0.00223662952147777));
#212=CARTESIAN_POINT('',(0.00894443431752185,0.0501903967392753,0.0230801210292316));
#213=CARTESIAN_POINT('',(0.00637127596867785,0.101295198369638,0.0439236125369854));
#214=CARTESIAN_POINT('',(0.00379811761983384,0.1524,0.0647671040447393));
#215=CARTESIAN_POINT('',(0.00647311175434825,-0.000914404891087089,0.00120349193581954));
#216=CARTESIAN_POINT('',(0.00518367746093126,0.0501903967392753,0.0223123959138647));
#217=CARTESIAN_POINT('',(0.00389424316751428,0.101295198369638,0.0434212998919098));
#218=CARTESIAN_POINT('',(0.00260480887409729,0.1524,0.0645302038699549));
#219=CARTESIAN_POINT('',(0.0014,-0.000914404891087089,0.00104402084666233));
#220=CARTESIAN_POINT('',(0.00139999999999999,0.0501903967392753,0.0221716895697202));
#221=CARTESIAN_POINT('',(0.00139999999999998,0.101295198369638,0.043299358292778));
#222=CARTESIAN_POINT('',(0.00139999999999996,0.1524,0.0644270270158358));
#223=CARTESIAN_POINT('',(4.11996825544492E-18,0.1524,0.080775));
#224=CARTESIAN_POINT('',(0.0157534044047757,0.1524,0.0853626432239828));
#225=CARTESIAN_POINT('',(0.00139999999999996,0.1524,0.0644270270158358));
#226=CARTESIAN_POINT('',(0.0165723382724879,0.,0.0870951221865354));
#227=CARTESIAN_POINT('',(0.0165723382724879,0.,0.0870951221865354));
#228=CARTESIAN_POINT('',(3.48028897367847E-17,0.,0.04585));
#229=CARTESIAN_POINT('',(0.0014,0.,0.00142205271453564));
#230=CARTESIAN_POINT('',(0.0014,0.,0.00142205271453564));
#231=CARTESIAN_POINT('',(0.0161628713386318,0.0762,0.0862288827052591));
#232=CARTESIAN_POINT('',(0.012815261381232,0.1524,0.0791468967391256));
#233=CARTESIAN_POINT('',(0.00987711835768823,0.1524,0.0729311502542684));
#234=CARTESIAN_POINT('',(0.00987711835768825,0.,0.0729311502542684));
#235=CARTESIAN_POINT('',(0.00987711835768825,0.,0.0729311502542684));
#236=CARTESIAN_POINT('',(0.0132247283150881,0.,0.0800131362204019));
#237=CARTESIAN_POINT('',(-1.35525271560688E-17,0.,0.0776));
#238=CARTESIAN_POINT('',(3.79470760369927E-18,0.1524,0.0776));
#239=CARTESIAN_POINT('',(0.00139999999999997,0.1524,0.0667650738350462));
#240=CARTESIAN_POINT('',(0.0014,0.,0.0667650738350462));
#241=CARTESIAN_POINT('',(0.0014,0.,0.0667650738350462));
#242=CARTESIAN_POINT('',(-1.35525271560688E-17,0.,0.0776));
#243=CARTESIAN_POINT('',(0.0014,2.54972479408664E-19,0.));
#244=CARTESIAN_POINT('',(0.00139999999999997,0.1524,0.065596050425441));
#245=CARTESIAN_POINT('',(0.0014,0.,0.0340935632747909));
#246=CARTESIAN_POINT('',(-3.46944695195361E-18,0.1524,0.0759179731108623));
#247=CARTESIAN_POINT('',(0.,0.,0.04585));
#248=MECHANICAL_DESIGN_GEOMETRIC_PRESENTATION_REPRESENTATION('',(#101),
#249);
#249=(
GEOMETRIC_REPRESENTATION_CONTEXT(3)
GLOBAL_UNCERTAINTY_ASSIGNED_CONTEXT((#250))
GLOBAL_UNIT_ASSIGNED_CONTEXT((#253,#252,#251))
REPRESENTATION_CONTEXT('Rear Core2','TOP_LEVEL_ASSEMBLY_PART')
);
#250=UNCERTAINTY_MEASURE_WITH_UNIT(LENGTH_MEASURE(1.E-8),#253,
'DISTANCE_ACCURACY_VALUE','Maximum Tolerance applied to model');
#251=(
NAMED_UNIT(*)
SI_UNIT($,.STERADIAN.)
SOLID_ANGLE_UNIT()
);
#252=(
NAMED_UNIT(*)
PLANE_ANGLE_UNIT()
SI_UNIT($,.RADIAN.)
);
#253=(
LENGTH_UNIT()
NAMED_UNIT(*)
SI_UNIT($,.METRE.)
);
#254=PRODUCT_DEFINITION_SHAPE('','',#255);
#255=PRODUCT_DEFINITION('','',#257,#256);
#256=PRODUCT_DEFINITION_CONTEXT('',#263,'design');
#257=PRODUCT_DEFINITION_FORMATION_WITH_SPECIFIED_SOURCE('','',#259,
 .NOT_KNOWN.);
#258=PRODUCT_RELATED_PRODUCT_CATEGORY('','',(#259));
#259=PRODUCT('Rear Core2','Rear Core2','Rear Core2',(#261));
#260=PRODUCT_CATEGORY('','');
#261=PRODUCT_CONTEXT('',#263,'mechanical');
#262=APPLICATION_PROTOCOL_DEFINITION('international standard',
'ap242_managed_model_based_3d_engineering',2020,#263);
#263=APPLICATION_CONTEXT('managed model based 3d engineering');
ENDSEC;
END-ISO-10303-21;
