ISO-10303-21;
HEADER;
/* Generated by software containing ST-Developer
 * from STEP Tools, Inc. (www.steptools.com) 
 */
/* OPTION: using custom renumber hook */

FILE_DESCRIPTION(
/* description */ ('STEP AP242 Edition 2',
'CAx-IF Rec.Pracs.---Representation and Presentation of Product Manufa
cturing Information (PMI)---4.0---2014-10-13',
'CAx-IF Rec.Pracs.---3D Tessellated Geometry---0.4---2014-09-14','2;1',
'CAx-IF Rec.Pracs.---User Defined Attributes---1.5---2016-08-15'),
/* implementation_level */ '2;1');

FILE_NAME(
/* name */ 'Pontoons - Front Pontoon2',
/* time_stamp */ '2026-08-24T02:48:56Z',
/* author */ (''),
/* organization */ (''),
/* preprocessor_version */ 'ST-DEVELOPER v20',
/* originating_system */ 'ONSHAPE BY PTC INC, 1.219',
/* authorisation */ '  ');

FILE_SCHEMA (('AP242_MANAGED_MODEL_BASED_3D_ENGINEERING_MIM_LF { 1 0 10303 442 3 1 4 }'));
ENDSEC;

DATA;
#10=SHAPE_REPRESENTATION_RELATIONSHIP('','',#271,#11);
#11=ADVANCED_BREP_SHAPE_REPRESENTATION('',(#269),#445);
#12=CIRCLE('',#276,0.010925);
#13=CIRCLE('',#280,0.009525);
#14=CIRCLE('',#283,0.04585);
#15=CIRCLE('',#284,0.04585);
#16=CIRCLE('',#287,0.04445);
#17=CIRCLE('',#289,0.04445);
#18=ELLIPSE('',#275,0.0129887997042672,0.010925);
#19=ELLIPSE('',#279,0.0113243310922787,0.009525);
#20=ELLIPSE('',#285,0.0545113470426224,0.04585);
#21=ELLIPSE('',#288,0.0528468784306339,0.04445);
#22=CYLINDRICAL_SURFACE('',#274,0.010925);
#23=CYLINDRICAL_SURFACE('',#278,0.009525);
#24=CYLINDRICAL_SURFACE('',#282,0.04585);
#25=CYLINDRICAL_SURFACE('',#286,0.04445);
#26=ORIENTED_EDGE('',*,*,#98,.F.);
#27=ORIENTED_EDGE('',*,*,#99,.F.);
#28=ORIENTED_EDGE('',*,*,#100,.T.);
#29=ORIENTED_EDGE('',*,*,#101,.T.);
#30=ORIENTED_EDGE('',*,*,#102,.F.);
#31=ORIENTED_EDGE('',*,*,#103,.F.);
#32=ORIENTED_EDGE('',*,*,#104,.T.);
#33=ORIENTED_EDGE('',*,*,#105,.T.);
#34=ORIENTED_EDGE('',*,*,#106,.F.);
#35=ORIENTED_EDGE('',*,*,#105,.F.);
#36=ORIENTED_EDGE('',*,*,#107,.T.);
#37=ORIENTED_EDGE('',*,*,#108,.T.);
#38=ORIENTED_EDGE('',*,*,#109,.T.);
#39=ORIENTED_EDGE('',*,*,#110,.T.);
#40=ORIENTED_EDGE('',*,*,#101,.F.);
#41=ORIENTED_EDGE('',*,*,#111,.F.);
#42=ORIENTED_EDGE('',*,*,#112,.T.);
#43=ORIENTED_EDGE('',*,*,#113,.T.);
#44=ORIENTED_EDGE('',*,*,#114,.T.);
#45=ORIENTED_EDGE('',*,*,#115,.F.);
#46=ORIENTED_EDGE('',*,*,#109,.F.);
#47=ORIENTED_EDGE('',*,*,#116,.T.);
#48=ORIENTED_EDGE('',*,*,#117,.T.);
#49=ORIENTED_EDGE('',*,*,#118,.T.);
#50=ORIENTED_EDGE('',*,*,#112,.F.);
#51=ORIENTED_EDGE('',*,*,#119,.T.);
#52=ORIENTED_EDGE('',*,*,#99,.T.);
#53=ORIENTED_EDGE('',*,*,#120,.F.);
#54=ORIENTED_EDGE('',*,*,#121,.F.);
#55=ORIENTED_EDGE('',*,*,#122,.F.);
#56=ORIENTED_EDGE('',*,*,#123,.T.);
#57=ORIENTED_EDGE('',*,*,#108,.F.);
#58=ORIENTED_EDGE('',*,*,#124,.F.);
#59=ORIENTED_EDGE('',*,*,#125,.T.);
#60=ORIENTED_EDGE('',*,*,#126,.F.);
#61=ORIENTED_EDGE('',*,*,#125,.F.);
#62=ORIENTED_EDGE('',*,*,#127,.F.);
#63=ORIENTED_EDGE('',*,*,#103,.T.);
#64=ORIENTED_EDGE('',*,*,#128,.T.);
#65=ORIENTED_EDGE('',*,*,#129,.F.);
#66=ORIENTED_EDGE('',*,*,#124,.T.);
#67=ORIENTED_EDGE('',*,*,#107,.F.);
#68=ORIENTED_EDGE('',*,*,#104,.F.);
#69=ORIENTED_EDGE('',*,*,#127,.T.);
#70=ORIENTED_EDGE('',*,*,#116,.F.);
#71=ORIENTED_EDGE('',*,*,#111,.T.);
#72=ORIENTED_EDGE('',*,*,#100,.F.);
#73=ORIENTED_EDGE('',*,*,#119,.F.);
#74=ORIENTED_EDGE('',*,*,#113,.F.);
#75=ORIENTED_EDGE('',*,*,#118,.F.);
#76=ORIENTED_EDGE('',*,*,#130,.T.);
#77=ORIENTED_EDGE('',*,*,#121,.T.);
#78=ORIENTED_EDGE('',*,*,#126,.T.);
#79=ORIENTED_EDGE('',*,*,#131,.T.);
#80=ORIENTED_EDGE('',*,*,#117,.F.);
#81=ORIENTED_EDGE('',*,*,#132,.T.);
#82=ORIENTED_EDGE('',*,*,#122,.T.);
#83=ORIENTED_EDGE('',*,*,#130,.F.);
#84=ORIENTED_EDGE('',*,*,#114,.F.);
#85=ORIENTED_EDGE('',*,*,#131,.F.);
#86=ORIENTED_EDGE('',*,*,#129,.T.);
#87=ORIENTED_EDGE('',*,*,#133,.T.);
#88=ORIENTED_EDGE('',*,*,#123,.F.);
#89=ORIENTED_EDGE('',*,*,#132,.F.);
#90=ORIENTED_EDGE('',*,*,#120,.T.);
#91=ORIENTED_EDGE('',*,*,#98,.T.);
#92=ORIENTED_EDGE('',*,*,#110,.F.);
#93=ORIENTED_EDGE('',*,*,#115,.T.);
#94=ORIENTED_EDGE('',*,*,#133,.F.);
#95=ORIENTED_EDGE('',*,*,#128,.F.);
#96=ORIENTED_EDGE('',*,*,#102,.T.);
#97=ORIENTED_EDGE('',*,*,#106,.T.);
#98=EDGE_CURVE('',#134,#135,#158,.T.);
#99=EDGE_CURVE('',#136,#134,#159,.T.);
#100=EDGE_CURVE('',#136,#137,#160,.T.);
#101=EDGE_CURVE('',#137,#135,#161,.T.);
#102=EDGE_CURVE('',#138,#139,#18,.F.);
#103=EDGE_CURVE('',#140,#138,#162,.T.);
#104=EDGE_CURVE('',#140,#141,#12,.T.);
#105=EDGE_CURVE('',#141,#139,#163,.T.);
#106=EDGE_CURVE('',#139,#142,#164,.T.);
#107=EDGE_CURVE('',#141,#143,#165,.T.);
#108=EDGE_CURVE('',#143,#142,#166,.T.);
#109=EDGE_CURVE('',#144,#145,#167,.T.);
#110=EDGE_CURVE('',#145,#135,#19,.F.);
#111=EDGE_CURVE('',#144,#137,#13,.T.);
#112=EDGE_CURVE('',#146,#147,#168,.T.);
#113=EDGE_CURVE('',#147,#148,#169,.T.);
#114=EDGE_CURVE('',#148,#149,#170,.T.);
#115=EDGE_CURVE('',#145,#149,#171,.T.);
#116=EDGE_CURVE('',#144,#146,#172,.T.);
#117=EDGE_CURVE('',#150,#151,#173,.F.);
#118=EDGE_CURVE('',#151,#147,#14,.F.);
#119=EDGE_CURVE('',#146,#136,#15,.T.);
#120=EDGE_CURVE('',#150,#134,#20,.F.);
#121=EDGE_CURVE('',#152,#153,#16,.F.);
#122=EDGE_CURVE('',#154,#152,#174,.F.);
#123=EDGE_CURVE('',#154,#142,#21,.F.);
#124=EDGE_CURVE('',#155,#143,#17,.T.);
#125=EDGE_CURVE('',#155,#153,#175,.T.);
#126=EDGE_CURVE('',#153,#156,#176,.T.);
#127=EDGE_CURVE('',#140,#155,#177,.T.);
#128=EDGE_CURVE('',#138,#157,#178,.T.);
#129=EDGE_CURVE('',#156,#157,#179,.T.);
#130=EDGE_CURVE('',#151,#152,#180,.T.);
#131=EDGE_CURVE('',#156,#148,#181,.T.);
#132=EDGE_CURVE('',#150,#154,#182,.T.);
#133=EDGE_CURVE('',#157,#149,#183,.T.);
#134=VERTEX_POINT('',#373);
#135=VERTEX_POINT('',#374);
#136=VERTEX_POINT('',#376);
#137=VERTEX_POINT('',#378);
#138=VERTEX_POINT('',#382);
#139=VERTEX_POINT('',#383);
#140=VERTEX_POINT('',#385);
#141=VERTEX_POINT('',#387);
#142=VERTEX_POINT('',#391);
#143=VERTEX_POINT('',#393);
#144=VERTEX_POINT('',#397);
#145=VERTEX_POINT('',#398);
#146=VERTEX_POINT('',#403);
#147=VERTEX_POINT('',#404);
#148=VERTEX_POINT('',#406);
#149=VERTEX_POINT('',#408);
#150=VERTEX_POINT('',#413);
#151=VERTEX_POINT('',#414);
#152=VERTEX_POINT('',#420);
#153=VERTEX_POINT('',#421);
#154=VERTEX_POINT('',#423);
#155=VERTEX_POINT('',#426);
#156=VERTEX_POINT('',#430);
#157=VERTEX_POINT('',#433);
#158=LINE('',#372,#184);
#159=LINE('',#375,#185);
#160=LINE('',#377,#186);
#161=LINE('',#379,#187);
#162=LINE('',#384,#188);
#163=LINE('',#388,#189);
#164=LINE('',#390,#190);
#165=LINE('',#392,#191);
#166=LINE('',#394,#192);
#167=LINE('',#396,#193);
#168=LINE('',#402,#194);
#169=LINE('',#405,#195);
#170=LINE('',#407,#196);
#171=LINE('',#409,#197);
#172=LINE('',#410,#198);
#173=LINE('',#412,#199);
#174=LINE('',#422,#200);
#175=LINE('',#427,#201);
#176=LINE('',#429,#202);
#177=LINE('',#431,#203);
#178=LINE('',#432,#204);
#179=LINE('',#434,#205);
#180=LINE('',#437,#206);
#181=LINE('',#438,#207);
#182=LINE('',#440,#208);
#183=LINE('',#442,#209);
#184=VECTOR('',#300,1.);
#185=VECTOR('',#301,1.);
#186=VECTOR('',#302,1.);
#187=VECTOR('',#303,1.);
#188=VECTOR('',#308,1.);
#189=VECTOR('',#311,1.);
#190=VECTOR('',#314,1.);
#191=VECTOR('',#315,1.);
#192=VECTOR('',#316,1.);
#193=VECTOR('',#319,1.);
#194=VECTOR('',#326,1.);
#195=VECTOR('',#327,1.);
#196=VECTOR('',#328,1.);
#197=VECTOR('',#329,1.);
#198=VECTOR('',#330,1.);
#199=VECTOR('',#333,1.);
#200=VECTOR('',#344,1.);
#201=VECTOR('',#349,1.);
#202=VECTOR('',#352,1.);
#203=VECTOR('',#353,1.);
#204=VECTOR('',#354,1.);
#205=VECTOR('',#355,1.);
#206=VECTOR('',#360,1.);
#207=VECTOR('',#361,1.);
#208=VECTOR('',#364,1.);
#209=VECTOR('',#367,1.);
#210=EDGE_LOOP('',(#26,#27,#28,#29));
#211=EDGE_LOOP('',(#30,#31,#32,#33));
#212=EDGE_LOOP('',(#34,#35,#36,#37));
#213=EDGE_LOOP('',(#38,#39,#40,#41));
#214=EDGE_LOOP('',(#42,#43,#44,#45,#46,#47));
#215=EDGE_LOOP('',(#48,#49,#50,#51,#52,#53));
#216=EDGE_LOOP('',(#54,#55,#56,#57,#58,#59));
#217=EDGE_LOOP('',(#60,#61,#62,#63,#64,#65));
#218=EDGE_LOOP('',(#66,#67,#68,#69));
#219=EDGE_LOOP('',(#70,#71,#72,#73));
#220=EDGE_LOOP('',(#74,#75,#76,#77,#78,#79));
#221=EDGE_LOOP('',(#80,#81,#82,#83));
#222=EDGE_LOOP('',(#84,#85,#86,#87));
#223=EDGE_LOOP('',(#88,#89,#90,#91,#92,#93,#94,#95,#96,#97));
#224=FACE_BOUND('',#210,.T.);
#225=FACE_BOUND('',#211,.T.);
#226=FACE_BOUND('',#212,.T.);
#227=FACE_BOUND('',#213,.T.);
#228=FACE_BOUND('',#214,.T.);
#229=FACE_BOUND('',#215,.T.);
#230=FACE_BOUND('',#216,.T.);
#231=FACE_BOUND('',#217,.T.);
#232=FACE_BOUND('',#218,.T.);
#233=FACE_BOUND('',#219,.T.);
#234=FACE_BOUND('',#220,.T.);
#235=FACE_BOUND('',#221,.T.);
#236=FACE_BOUND('',#222,.T.);
#237=FACE_BOUND('',#223,.T.);
#238=PLANE('',#273);
#239=PLANE('',#277);
#240=PLANE('',#281);
#241=PLANE('',#290);
#242=PLANE('',#291);
#243=PLANE('',#292);
#244=PLANE('',#293);
#245=PLANE('',#294);
#246=PLANE('',#295);
#247=ADVANCED_FACE('',(#224),#238,.T.);
#248=ADVANCED_FACE('',(#225),#22,.T.);
#249=ADVANCED_FACE('',(#226),#239,.T.);
#250=ADVANCED_FACE('',(#227),#23,.F.);
#251=ADVANCED_FACE('',(#228),#240,.T.);
#252=ADVANCED_FACE('',(#229),#24,.T.);
#253=ADVANCED_FACE('',(#230),#25,.F.);
#254=ADVANCED_FACE('',(#231),#241,.F.);
#255=ADVANCED_FACE('',(#232,#233),#242,.F.);
#256=ADVANCED_FACE('',(#234),#243,.T.);
#257=ADVANCED_FACE('',(#235),#244,.T.);
#258=ADVANCED_FACE('',(#236),#245,.T.);
#259=ADVANCED_FACE('',(#237),#246,.F.);
#260=CLOSED_SHELL('',(#247,#248,#249,#250,#251,#252,#253,#254,#255,#256,
#257,#258,#259));
#261=STYLED_ITEM('',(#262),#269);
#262=PRESENTATION_STYLE_ASSIGNMENT((#263));
#263=SURFACE_STYLE_USAGE(.BOTH.,#264);
#264=SURFACE_SIDE_STYLE('',(#265));
#265=SURFACE_STYLE_FILL_AREA(#266);
#266=FILL_AREA_STYLE('',(#267));
#267=FILL_AREA_STYLE_COLOUR('',#268);
#268=COLOUR_RGB('',0.6,0.6,0.6);
#269=MANIFOLD_SOLID_BREP('Front Pontoon2',#260);
#270=SHAPE_DEFINITION_REPRESENTATION(#450,#271);
#271=SHAPE_REPRESENTATION('Front Pontoon2',(#272),#445);
#272=AXIS2_PLACEMENT_3D('',#370,#296,#297);
#273=AXIS2_PLACEMENT_3D('',#371,#298,#299);
#274=AXIS2_PLACEMENT_3D('',#380,#304,#305);
#275=AXIS2_PLACEMENT_3D('',#381,#306,#307);
#276=AXIS2_PLACEMENT_3D('',#386,#309,#310);
#277=AXIS2_PLACEMENT_3D('',#389,#312,#313);
#278=AXIS2_PLACEMENT_3D('',#395,#317,#318);
#279=AXIS2_PLACEMENT_3D('',#399,#320,#321);
#280=AXIS2_PLACEMENT_3D('',#400,#322,#323);
#281=AXIS2_PLACEMENT_3D('',#401,#324,#325);
#282=AXIS2_PLACEMENT_3D('',#411,#331,#332);
#283=AXIS2_PLACEMENT_3D('',#415,#334,#335);
#284=AXIS2_PLACEMENT_3D('',#416,#336,#337);
#285=AXIS2_PLACEMENT_3D('',#417,#338,#339);
#286=AXIS2_PLACEMENT_3D('',#418,#340,#341);
#287=AXIS2_PLACEMENT_3D('',#419,#342,#343);
#288=AXIS2_PLACEMENT_3D('',#424,#345,#346);
#289=AXIS2_PLACEMENT_3D('',#425,#347,#348);
#290=AXIS2_PLACEMENT_3D('',#428,#350,#351);
#291=AXIS2_PLACEMENT_3D('',#435,#356,#357);
#292=AXIS2_PLACEMENT_3D('',#436,#358,#359);
#293=AXIS2_PLACEMENT_3D('',#439,#362,#363);
#294=AXIS2_PLACEMENT_3D('',#441,#365,#366);
#295=AXIS2_PLACEMENT_3D('',#443,#368,#369);
#296=DIRECTION('',(0.,0.,1.));
#297=DIRECTION('',(1.,0.,0.));
#298=DIRECTION('',(1.,0.,0.));
#299=DIRECTION('',(0.,0.,-1.));
#300=DIRECTION('',(0.,0.540865209516608,0.841109282515985));
#301=DIRECTION('',(0.,-1.,0.));
#302=DIRECTION('',(0.,0.,1.));
#303=DIRECTION('',(0.,-1.,0.));
#304=DIRECTION('',(0.,-1.,0.));
#305=DIRECTION('',(0.,0.,-1.));
#306=DIRECTION('',(0.,0.841109282515985,-0.540865209516608));
#307=DIRECTION('',(0.,-0.540865209516608,-0.841109282515985));
#308=DIRECTION('',(0.,-1.,0.));
#309=DIRECTION('',(0.,-1.,0.));
#310=DIRECTION('',(0.,0.,-1.));
#311=DIRECTION('',(0.,-1.,0.));
#312=DIRECTION('',(-1.,0.,-1.22784284209876E-16));
#313=DIRECTION('',(-1.22784284209876E-16,0.,1.));
#314=DIRECTION('',(1.03275001196008E-16,-0.540865209516608,-0.841109282515985));
#315=DIRECTION('',(1.22784284209876E-16,0.,-1.));
#316=DIRECTION('',(0.,-1.,0.));
#317=DIRECTION('',(0.,-1.,0.));
#318=DIRECTION('',(0.,0.,-1.));
#319=DIRECTION('',(0.,-1.,0.));
#320=DIRECTION('',(0.,0.841109282515985,-0.540865209516608));
#321=DIRECTION('',(0.,-0.540865209516608,-0.841109282515985));
#322=DIRECTION('',(0.,-1.,0.));
#323=DIRECTION('',(0.,0.,-1.));
#324=DIRECTION('',(0.90408400333547,0.,0.427354788101069));
#325=DIRECTION('',(0.427354788101069,0.,-0.90408400333547));
#326=DIRECTION('',(0.,-1.,0.));
#327=DIRECTION('',(0.427354788101069,0.,-0.90408400333547));
#328=DIRECTION('',(0.,-1.,0.));
#329=DIRECTION('',(-0.369456904595843,0.502597841498575,0.781599005480068));
#330=DIRECTION('',(-0.427354788101069,0.,0.90408400333547));
#331=DIRECTION('',(0.,-1.,0.));
#332=DIRECTION('',(0.,0.,-1.));
#333=DIRECTION('',(0.,-1.,0.));
#334=DIRECTION('',(0.,-1.,0.));
#335=DIRECTION('',(0.,0.,-1.));
#336=DIRECTION('',(0.,-1.,0.));
#337=DIRECTION('',(0.,0.,-1.));
#338=DIRECTION('',(0.,0.841109282515985,-0.540865209516608));
#339=DIRECTION('',(0.,-0.540865209516608,-0.841109282515985));
#340=DIRECTION('',(0.,-1.,0.));
#341=DIRECTION('',(0.,0.,-1.));
#342=DIRECTION('',(0.,-1.,0.));
#343=DIRECTION('',(0.,0.,-1.));
#344=DIRECTION('',(0.,-1.,0.));
#345=DIRECTION('',(0.,0.841109282515985,-0.540865209516608));
#346=DIRECTION('',(0.,-0.540865209516608,-0.841109282515985));
#347=DIRECTION('',(0.,-1.,0.));
#348=DIRECTION('',(0.,0.,-1.));
#349=DIRECTION('',(0.,-1.,0.));
#350=DIRECTION('',(0.90408400333547,0.,0.427354788101069));
#351=DIRECTION('',(0.427354788101069,0.,-0.90408400333547));
#352=DIRECTION('',(0.427354788101069,0.,-0.90408400333547));
#353=DIRECTION('',(-0.427354788101069,0.,0.90408400333547));
#354=DIRECTION('',(-0.369456904595843,0.502597841498575,0.781599005480068));
#355=DIRECTION('',(0.,-1.,0.));
#356=DIRECTION('',(0.,-1.,0.));
#357=DIRECTION('',(1.,0.,0.));
#358=DIRECTION('',(0.,-1.,0.));
#359=DIRECTION('',(0.,0.,-1.));
#360=DIRECTION('',(1.,0.,0.));
#361=DIRECTION('',(1.,0.,0.));
#362=DIRECTION('',(0.,0.,1.));
#363=DIRECTION('',(1.,0.,0.));
#364=DIRECTION('',(1.,0.,0.));
#365=DIRECTION('',(0.,0.,1.));
#366=DIRECTION('',(1.,0.,0.));
#367=DIRECTION('',(1.,0.,0.));
#368=DIRECTION('',(0.,0.841109282515985,-0.540865209516608));
#369=DIRECTION('',(0.,0.540865209516608,0.841109282515985));
#370=CARTESIAN_POINT('',(0.,0.,0.));
#371=CARTESIAN_POINT('',(0.,0.1524,0.0007));
#372=CARTESIAN_POINT('',(0.,0.0449008093733138,0.0698260618207045));
#373=CARTESIAN_POINT('',(-2.77555756156289E-17,-6.93889390390723E-18,-1.38777878078145E-17));
#374=CARTESIAN_POINT('',(-1.16647607618785E-18,0.0437748101265822,0.068075));
#375=CARTESIAN_POINT('',(0.,0.1524,0.));
#376=CARTESIAN_POINT('',(0.,0.1524,0.));
#377=CARTESIAN_POINT('',(0.,0.1524,0.0007));
#378=CARTESIAN_POINT('',(-1.16647607618785E-18,0.1524,0.068075));
#379=CARTESIAN_POINT('',(-1.16647607618785E-18,0.1524,0.068075));
#380=CARTESIAN_POINT('',(-8.02309607639273E-18,0.1524,0.0776));
#381=CARTESIAN_POINT('',(-8.02309607639273E-18,0.049899746835443,0.0776));
#382=CARTESIAN_POINT('',(-0.00987711835768823,0.046897499150846,0.0729311502542684));
#383=CARTESIAN_POINT('',(-0.00139999999999994,0.0429324778584855,0.0667650738350462));
#384=CARTESIAN_POINT('',(-0.00987711835768823,0.1524,0.0729311502542684));
#385=CARTESIAN_POINT('',(-0.00987711835768823,0.1524,0.0729311502542684));
#386=CARTESIAN_POINT('',(-8.02309607639273E-18,0.1524,0.0776));
#387=CARTESIAN_POINT('',(-0.00139999999999993,0.1524,0.0667650738350462));
#388=CARTESIAN_POINT('',(-0.00139999999999993,0.1524,0.0667650738350462));
#389=CARTESIAN_POINT('',(-0.00139999999999994,0.1524,0.0340935632747909));
#390=CARTESIAN_POINT('',(-0.00139999999999995,0.0600924345285447,0.0934508332235242));
#391=CARTESIAN_POINT('',(-0.00139999999999994,0.000914433897448233,0.00142205271453563));
#392=CARTESIAN_POINT('',(-0.00139999999999994,0.1524,0.0340935632747909));
#393=CARTESIAN_POINT('',(-0.00139999999999994,0.1524,0.00142205271453563));
#394=CARTESIAN_POINT('',(-0.00139999999999994,0.1524,0.00142205271453563));
#395=CARTESIAN_POINT('',(-1.45059977608233E-18,0.1524,0.0776));
#396=CARTESIAN_POINT('',(-0.00861140013177035,0.1524,0.0735294456433373));
#397=CARTESIAN_POINT('',(-0.00861140013177035,0.1524,0.0735294456433373));
#398=CARTESIAN_POINT('',(-0.00861140013177035,0.0472822258060954,0.0735294456433373));
#399=CARTESIAN_POINT('',(-1.45059977608233E-18,0.049899746835443,0.0776));
#400=CARTESIAN_POINT('',(-1.45059977608233E-18,0.1524,0.0776));
#401=CARTESIAN_POINT('',(-0.00975472395400493,0.1524,0.0759481871833766));
#402=CARTESIAN_POINT('',(-0.0158621946123564,0.1524,0.0888687550038322));
#403=CARTESIAN_POINT('',(-0.0158621946123564,0.1524,0.0888687550038322));
#404=CARTESIAN_POINT('',(-0.0158621946123564,0.0762,0.0888687550038321));
#405=CARTESIAN_POINT('',(-0.00975472395400493,0.0762,0.0759481871833766));
#406=CARTESIAN_POINT('',(-0.0111972965631437,0.0762,0.079));
#407=CARTESIAN_POINT('',(-0.0111972965631436,0.1524,0.079));
#408=CARTESIAN_POINT('',(-0.0111972965631436,0.0508,0.079));
#409=CARTESIAN_POINT('',(-0.0289850498829883,0.0749979140529064,0.116630614373614));
#410=CARTESIAN_POINT('',(-0.00975472395400493,0.1524,0.0759481871833766));
#411=CARTESIAN_POINT('',(8.67361737988403E-18,0.1524,0.04585));
#412=CARTESIAN_POINT('',(-0.0316749112074525,0.1524,0.079));
#413=CARTESIAN_POINT('',(-0.0316749112074525,0.0508,0.079));
#414=CARTESIAN_POINT('',(-0.0316749112074525,0.0762,0.079));
#415=CARTESIAN_POINT('',(8.67361737988403E-18,0.0762,0.04585));
#416=CARTESIAN_POINT('',(8.67361737988403E-18,0.1524,0.04585));
#417=CARTESIAN_POINT('',(8.67361737988403E-18,0.0294832911392405,0.04585));
#418=CARTESIAN_POINT('',(-1.77809156287623E-17,0.1524,0.04585));
#419=CARTESIAN_POINT('',(-1.77809156287623E-17,0.0762,0.04585));
#420=CARTESIAN_POINT('',(-0.0296121596645703,0.0762,0.079));
#421=CARTESIAN_POINT('',(-0.0165723382724879,0.0762,0.0870951221865354));
#422=CARTESIAN_POINT('',(-0.0296121596645703,0.1524,0.079));
#423=CARTESIAN_POINT('',(-0.0296121596645704,0.0508,0.079));
#424=CARTESIAN_POINT('',(-1.77809156287623E-17,0.0294832911392405,0.04585));
#425=CARTESIAN_POINT('',(-1.77809156287623E-17,0.1524,0.04585));
#426=CARTESIAN_POINT('',(-0.0165723382724879,0.1524,0.0870951221865354));
#427=CARTESIAN_POINT('',(-0.0165723382724879,0.1524,0.0870951221865354));
#428=CARTESIAN_POINT('',(-0.0132247283150881,0.1524,0.0800131362204019));
#429=CARTESIAN_POINT('',(-0.0132247283150881,0.0762,0.0800131362204019));
#430=CARTESIAN_POINT('',(-0.0127458252339695,0.0762,0.079));
#431=CARTESIAN_POINT('',(-0.0132247283150881,0.1524,0.0800131362204019));
#432=CARTESIAN_POINT('',(-0.0319696806646029,0.0769515433181208,0.119668738624637));
#433=CARTESIAN_POINT('',(-0.0127458252339695,0.0508,0.079));
#434=CARTESIAN_POINT('',(-0.0127458252339695,0.1524,0.079));
#435=CARTESIAN_POINT('',(0.,0.1524,0.04585));
#436=CARTESIAN_POINT('',(-0.1016,0.0762,0.08535));
#437=CARTESIAN_POINT('',(-0.1016,0.0762,0.079));
#438=CARTESIAN_POINT('',(-0.1016,0.0762,0.079));
#439=CARTESIAN_POINT('',(-0.1016,0.0650875,0.079));
#440=CARTESIAN_POINT('',(-0.1016,0.0508,0.079));
#441=CARTESIAN_POINT('',(-0.1016,0.0650875,0.079));
#442=CARTESIAN_POINT('',(-0.1016,0.0508,0.079));
#443=CARTESIAN_POINT('',(-0.1016,0.0254,0.0395));
#444=MECHANICAL_DESIGN_GEOMETRIC_PRESENTATION_REPRESENTATION('',(#261),
#445);
#445=(
GEOMETRIC_REPRESENTATION_CONTEXT(3)
GLOBAL_UNCERTAINTY_ASSIGNED_CONTEXT((#446))
GLOBAL_UNIT_ASSIGNED_CONTEXT((#449,#448,#447))
REPRESENTATION_CONTEXT('Front Pontoon2','TOP_LEVEL_ASSEMBLY_PART')
);
#446=UNCERTAINTY_MEASURE_WITH_UNIT(LENGTH_MEASURE(1.E-8),#449,
'DISTANCE_ACCURACY_VALUE','Maximum Tolerance applied to model');
#447=(
NAMED_UNIT(*)
SI_UNIT($,.STERADIAN.)
SOLID_ANGLE_UNIT()
);
#448=(
NAMED_UNIT(*)
PLANE_ANGLE_UNIT()
SI_UNIT($,.RADIAN.)
);
#449=(
LENGTH_UNIT()
NAMED_UNIT(*)
SI_UNIT($,.METRE.)
);
#450=PRODUCT_DEFINITION_SHAPE('','',#451);
#451=PRODUCT_DEFINITION('','',#453,#452);
#452=PRODUCT_DEFINITION_CONTEXT('',#459,'design');
#453=PRODUCT_DEFINITION_FORMATION_WITH_SPECIFIED_SOURCE('','',#455,
 .NOT_KNOWN.);
#454=PRODUCT_RELATED_PRODUCT_CATEGORY('','',(#455));
#455=PRODUCT('Front Pontoon2','Front Pontoon2','Front Pontoon2',(#457));
#456=PRODUCT_CATEGORY('','');
#457=PRODUCT_CONTEXT('',#459,'mechanical');
#458=APPLICATION_PROTOCOL_DEFINITION('international standard',
'ap242_managed_model_based_3d_engineering',2020,#459);
#459=APPLICATION_CONTEXT('managed model based 3d engineering');
ENDSEC;
END-ISO-10303-21;
