ISO-10303-21;
HEADER;
/* Generated by software containing ST-Developer
 * from STEP Tools, Inc. (www.steptools.com) 
 */
/* OPTION: using custom renumber hook */

FILE_DESCRIPTION(
/* description */ ('STEP AP242 Edition 2',
'CAx-IF Rec.Pracs.---Representation and Presentation of Product Manufa
cturing Information (PMI)---4.0---2014-10-13',
'CAx-IF Rec.Pracs.---3D Tessellated Geometry---0.4---2014-09-14','2;1',
'CAx-IF Rec.Pracs.---User Defined Attributes---1.5---2016-08-15'),
/* implementation_level */ '2;1');

FILE_NAME(
/* name */ 'Rear Landing Gear - Tail Bouy Mast',
/* time_stamp */ '2026-08-24T02:45:39Z',
/* author */ (''),
/* organization */ (''),
/* preprocessor_version */ 'ST-DEVELOPER v20',
/* originating_system */ 'ONSHAPE BY PTC INC, 1.219',
/* authorisation */ '  ');

FILE_SCHEMA (('AP242_MANAGED_MODEL_BASED_3D_ENGINEERING_MIM_LF { 1 0 10303 442 3 1 4 }'));
ENDSEC;

DATA;
#10=SHAPE_REPRESENTATION_RELATIONSHIP('','',#533,#11);
#11=ADVANCED_BREP_SHAPE_REPRESENTATION('',(#531),#1160);
#12=(
BOUNDED_SURFACE()
B_SPLINE_SURFACE(3,2,((#964,#965,#966),(#967,#968,#969),(#970,#971,#972),
(#973,#974,#975)),.UNSPECIFIED.,.F.,.F.,.F.)
B_SPLINE_SURFACE_WITH_KNOTS((4,4),(3,3),(-2.34187669256869E-17,0.00529237169137625),
(0.,1.),.PIECEWISE_BEZIER_KNOTS.)
GEOMETRIC_REPRESENTATION_ITEM()
RATIONAL_B_SPLINE_SURFACE(((1.,0.810407547204587,1.),(1.,0.797474421703616,
1.),(1.,0.792614076075361,1.),(1.,0.797945045361952,1.)))
REPRESENTATION_ITEM('')
SURFACE()
);
#13=(
BOUNDED_SURFACE()
B_SPLINE_SURFACE(3,2,((#978,#979,#980),(#981,#982,#983),(#984,#985,#986),
(#987,#988,#989),(#990,#991,#992),(#993,#994,#995)),.UNSPECIFIED.,.F.,.F.,
 .F.)
B_SPLINE_SURFACE_WITH_KNOTS((4,1,1,4),(3,3),(0.0482439022354852,0.0504072202044023,
0.0525705381733193,0.0568971741111534),(0.,1.),.UNSPECIFIED.)
GEOMETRIC_REPRESENTATION_ITEM()
RATIONAL_B_SPLINE_SURFACE(((1.,0.797945045361952,1.),(1.,0.807826234456295,
1.),(1.,0.823452016400257,1.),(1.,0.834876746528565,1.),(1.,0.817665978283117,
1.),(1.,0.797945045361952,1.)))
REPRESENTATION_ITEM('')
SURFACE()
);
#14=(
BOUNDED_SURFACE()
B_SPLINE_SURFACE(3,2,((#997,#998,#999),(#1000,#1001,#1002),(#1003,#1004,
#1005),(#1006,#1007,#1008),(#1009,#1010,#1011)),.UNSPECIFIED.,.F.,.F.,.F.)
B_SPLINE_SURFACE_WITH_KNOTS((4,1,4),(3,3),(3.42607886505419E-17,0.00428312573362325,
0.00856625146724647),(0.,1.),.UNSPECIFIED.)
GEOMETRIC_REPRESENTATION_ITEM()
RATIONAL_B_SPLINE_SURFACE(((1.,0.923879532511286,1.),(1.,0.923879532377783,
1.),(1.,0.899190200624545,1.),(1.,0.841745037953601,1.),(1.,0.810407547204587,
1.)))
REPRESENTATION_ITEM('')
SURFACE()
);
#15=(
BOUNDED_SURFACE()
B_SPLINE_SURFACE(3,2,((#1013,#1014,#1015),(#1016,#1017,#1018),(#1019,#1020,
#1021),(#1022,#1023,#1024)),.UNSPECIFIED.,.F.,.F.,.F.)
B_SPLINE_SURFACE_WITH_KNOTS((4,4),(3,3),(0.,0.00529048207427553),(0.,1.),
 .PIECEWISE_BEZIER_KNOTS.)
GEOMETRIC_REPRESENTATION_ITEM()
RATIONAL_B_SPLINE_SURFACE(((1.,0.797945045361952,1.),(1.,0.792613922654686,
1.),(1.,0.797472036859299,1.),(1.,0.810407547204587,1.)))
REPRESENTATION_ITEM('')
SURFACE()
);
#16=(
BOUNDED_SURFACE()
B_SPLINE_SURFACE(3,2,((#1026,#1027,#1028),(#1029,#1030,#1031),(#1032,#1033,
#1034),(#1035,#1036,#1037),(#1038,#1039,#1040),(#1041,#1042,#1043),(#1044,
#1045,#1046),(#1047,#1048,#1049),(#1050,#1051,#1052),(#1053,#1054,#1055),
(#1056,#1057,#1058),(#1059,#1060,#1061),(#1062,#1063,#1064)),
 .UNSPECIFIED.,.F.,.F.,.F.)
B_SPLINE_SURFACE_WITH_KNOTS((4,1,1,1,1,1,1,1,1,1,4),(3,3),(-1.38777878078145E-17,
0.00528811967660061,0.0105762393532012,0.0158643590298019,0.0211524787064025,
0.0264405983830031,0.0317287180596037,0.0370168377362044,0.0396608975745047,
0.0409829274936548,0.042304957412805),(0.,1.),.UNSPECIFIED.)
GEOMETRIC_REPRESENTATION_ITEM()
RATIONAL_B_SPLINE_SURFACE(((1.,0.923879532511287,1.),(1.,0.923879532502561,
1.),(1.,0.921069836533015,1.),(1.,0.910300155880011,1.),(1.,0.896394273122039,
1.),(1.,0.878150388062934,1.),(1.,0.850037174277991,1.),(1.,0.812165963238082,
1.),(1.,0.772815080254117,1.),(1.,0.741275740677116,1.),(1.,0.721965002584303,
1.),(1.,0.712096484035392,1.),(1.,0.707106781186547,1.)))
REPRESENTATION_ITEM('')
SURFACE()
);
#17=(
BOUNDED_SURFACE()
B_SPLINE_SURFACE(3,2,((#1072,#1073,#1074),(#1075,#1076,#1077),(#1078,#1079,
#1080),(#1081,#1082,#1083),(#1084,#1085,#1086)),.UNSPECIFIED.,.F.,.F.,.F.)
B_SPLINE_SURFACE_WITH_KNOTS((4,1,4),(3,3),(-1.30104260698261E-17,0.00428301757243737,
0.00856603514487475),(0.,1.),.UNSPECIFIED.)
GEOMETRIC_REPRESENTATION_ITEM()
RATIONAL_B_SPLINE_SURFACE(((1.,0.810407547204587,1.),(1.,0.841735027554628,
1.),(1.,0.898919645812242,1.),(1.,0.923879532455839,1.),(1.,0.923879532511286,
1.)))
REPRESENTATION_ITEM('')
SURFACE()
);
#18=(
BOUNDED_SURFACE()
B_SPLINE_SURFACE(3,2,((#1088,#1089,#1090),(#1091,#1092,#1093),(#1094,#1095,
#1096),(#1097,#1098,#1099)),.UNSPECIFIED.,.F.,.F.,.F.)
B_SPLINE_SURFACE_WITH_KNOTS((4,4),(3,3),(0.,0.0123339237599876),(0.304856657482441,
1.),.PIECEWISE_BEZIER_KNOTS.)
GEOMETRIC_REPRESENTATION_ITEM()
RATIONAL_B_SPLINE_SURFACE(((0.875860679480297,0.796397228873289,1.),(0.875860679480297,
0.796397228873289,1.),(0.875860679480297,0.79639722887329,1.),(0.875860679480297,
0.79639722887329,1.)))
REPRESENTATION_ITEM('')
SURFACE()
);
#19=(
BOUNDED_SURFACE()
B_SPLINE_SURFACE(3,2,((#1107,#1108,#1109),(#1110,#1111,#1112),(#1113,#1114,
#1115),(#1116,#1117,#1118),(#1119,#1120,#1121),(#1122,#1123,#1124),(#1125,
#1126,#1127),(#1128,#1129,#1130),(#1131,#1132,#1133),(#1134,#1135,#1136),
(#1137,#1138,#1139),(#1140,#1141,#1142),(#1143,#1144,#1145)),
 .UNSPECIFIED.,.F.,.F.,.F.)
B_SPLINE_SURFACE_WITH_KNOTS((4,1,1,1,1,1,1,1,1,1,4),(3,3),(-1.38777878078145E-17,
0.00528334591560367,0.0105666918312073,0.015850037746811,0.0211333836624147,
0.0264167295780184,0.0317000754936221,0.0369834214092258,0.0396250943670276,
0.0409459308459285,0.0422667673248294),(0.,1.),.UNSPECIFIED.)
GEOMETRIC_REPRESENTATION_ITEM()
RATIONAL_B_SPLINE_SURFACE(((1.,0.923879532511288,1.),(1.,0.923879532499925,
1.),(1.,0.921074604203935,1.),(1.,0.910323789204723,1.),(1.,0.896430736584679,
1.),(1.,0.878236658965542,1.),(1.,0.850157360010357,1.),(1.,0.812243831995745,
1.),(1.,0.772616055355604,1.),(1.,0.741070697461732,1.),(1.,0.721850516037689,
1.),(1.,0.712054660021337,1.),(1.,0.707106781186418,1.)))
REPRESENTATION_ITEM('')
SURFACE()
);
#20=(
BOUNDED_SURFACE()
B_SPLINE_SURFACE(3,2,((#1147,#1148,#1149),(#1150,#1151,#1152),(#1153,#1154,
#1155),(#1156,#1157,#1158)),.UNSPECIFIED.,.F.,.F.,.F.)
B_SPLINE_SURFACE_WITH_KNOTS((4,4),(3,3),(0.,0.0123339237599877),(0.,0.695143342517005),
 .PIECEWISE_BEZIER_KNOTS.)
GEOMETRIC_REPRESENTATION_ITEM()
RATIONAL_B_SPLINE_SURFACE(((1.,0.796397228873452,0.875860679480171),(1.,
0.796397228873452,0.875860679480171),(1.,0.796397228873452,0.875860679480171),
(1.,0.796397228873452,0.875860679480171)))
REPRESENTATION_ITEM('')
SURFACE()
);
#21=SPHERICAL_SURFACE('',#558,0.00508);
#22=SPHERICAL_SURFACE('',#566,0.00508);
#23=SPHERICAL_SURFACE('',#571,0.00508);
#24=SPHERICAL_SURFACE('',#575,0.00508);
#25=ELLIPSE('',#548,0.00718420489685533,0.00508);
#26=ELLIPSE('',#549,0.00718420489685533,0.00508);
#27=ELLIPSE('',#551,0.00718420489685533,0.00508);
#28=ELLIPSE('',#552,0.00718420489685533,0.00508);
#29=PLANE('',#541);
#30=PLANE('',#542);
#31=PLANE('',#546);
#32=PLANE('',#547);
#33=PLANE('',#550);
#34=PLANE('',#553);
#35=PLANE('',#554);
#36=PLANE('',#555);
#37=B_SPLINE_SURFACE_WITH_KNOTS('',3,1,((#746,#747),(#748,#749),(#750,#751),
(#752,#753),(#754,#755),(#756,#757),(#758,#759),(#760,#761)),
 .SURF_OF_LINEAR_EXTRUSION.,.F.,.F.,.F.,(4,1,1,1,1,4),(2,2),(0.,0.25,0.375,
0.5,0.75,1.),(0.,1.),.UNSPECIFIED.);
#38=B_SPLINE_SURFACE_WITH_KNOTS('',3,1,((#817,#818),(#819,#820),(#821,#822),
(#823,#824),(#825,#826),(#827,#828),(#829,#830),(#831,#832)),
 .SURF_OF_LINEAR_EXTRUSION.,.F.,.F.,.F.,(4,1,1,1,1,4),(2,2),(-5.67522934507848E-17,
0.25,0.375,0.5,0.75,1.),(0.,1.),.UNSPECIFIED.);
#39=CIRCLE('',#536,0.00508);
#40=CIRCLE('',#538,0.00508);
#41=CIRCLE('',#540,0.00635);
#42=CIRCLE('',#544,0.00635);
#43=CIRCLE('',#545,0.00635);
#44=CIRCLE('',#557,0.00508);
#45=CIRCLE('',#559,0.00508);
#46=CIRCLE('',#560,0.00508);
#47=CIRCLE('',#562,0.00508);
#48=CIRCLE('',#564,0.00508);
#49=CIRCLE('',#568,0.00508);
#50=CIRCLE('',#570,0.00508);
#51=CIRCLE('',#572,0.00508);
#52=CIRCLE('',#574,0.00508);
#53=CIRCLE('',#576,0.00508);
#54=CIRCLE('',#578,0.00508);
#55=CIRCLE('',#579,0.00508);
#56=CIRCLE('',#580,0.00508);
#57=CIRCLE('',#581,0.00508);
#58=CIRCLE('',#582,0.00508);
#59=CIRCLE('',#583,0.00508);
#60=CIRCLE('',#584,0.00508);
#61=CIRCLE('',#585,0.00508);
#62=B_SPLINE_CURVE_WITH_KNOTS('',3,(#723,#724,#725,#726,#727),
 .UNSPECIFIED.,.F.,.F.,(4,1,4),(0.,0.00393884346733969,0.00787768693467938),
 .UNSPECIFIED.);
#63=B_SPLINE_CURVE_WITH_KNOTS('',3,(#734,#735,#736,#737,#738,#739,#740,
#741),.UNSPECIFIED.,.F.,.F.,(4,1,1,1,1,4),(0.,0.0103800337362609,0.0155700506043914,
0.0207600674725218,0.0311401012087827,0.0415201349450436),.UNSPECIFIED.);
#64=B_SPLINE_CURVE_WITH_KNOTS('',3,(#765,#766,#767,#768,#769,#770,#771,
#772,#773),.UNSPECIFIED.,.F.,.F.,(4,1,1,1,1,1,4),(3.46944695195361E-18,
0.00975284378045725,0.0146292656706859,0.0195056875609145,0.0243821094511431,
0.0292585313413717,0.039011375121829),.UNSPECIFIED.);
#65=B_SPLINE_CURVE_WITH_KNOTS('',3,(#777,#778,#779,#780,#781),
 .UNSPECIFIED.,.F.,.F.,(4,1,4),(0.,0.430032684254583,1.),.UNSPECIFIED.);
#66=B_SPLINE_CURVE_WITH_KNOTS('',3,(#786,#787,#788,#789,#790,#791),
 .UNSPECIFIED.,.F.,.F.,(4,1,1,4),(0.,0.00129227356646786,0.00258454713293572,
0.00516909426587143),.UNSPECIFIED.);
#67=B_SPLINE_CURVE_WITH_KNOTS('',3,(#793,#794,#795,#796,#797),
 .UNSPECIFIED.,.F.,.F.,(4,1,4),(0.,0.00150294034284536,0.00300588068569072),
 .UNSPECIFIED.);
#68=B_SPLINE_CURVE_WITH_KNOTS('',3,(#799,#800,#801,#802,#803,#804),
 .UNSPECIFIED.,.F.,.F.,(4,1,1,4),(0.,0.00245610729543682,0.00368416094315523,
0.00491221459087364),.UNSPECIFIED.);
#69=B_SPLINE_CURVE_WITH_KNOTS('',3,(#806,#807,#808,#809),.UNSPECIFIED.,
 .F.,.F.,(4,4),(0.,0.00300869128190193),.UNSPECIFIED.);
#70=B_SPLINE_CURVE_WITH_KNOTS('',3,(#811,#812,#813,#814,#815),
 .UNSPECIFIED.,.F.,.F.,(4,1,4),(0.,0.00256568516345763,0.00513137032691526),
 .UNSPECIFIED.);
#71=B_SPLINE_CURVE_WITH_KNOTS('',3,(#833,#834,#835,#836,#837,#838,#839,
#840,#841),.UNSPECIFIED.,.F.,.F.,(4,1,1,1,1,1,4),(-6.00000000030068E-8,
0.00974612865080207,0.0146192229762031,0.0194923173016041,0.0243654116270052,
0.0292385059524062,0.0389846946032083),.UNSPECIFIED.);
#72=B_SPLINE_CURVE_WITH_KNOTS('',3,(#842,#843,#844,#845,#846),
 .UNSPECIFIED.,.F.,.F.,(4,1,4),(0.,0.430032684254583,1.),.UNSPECIFIED.);
#73=B_SPLINE_CURVE_WITH_KNOTS('',3,(#849,#850,#851,#852),.UNSPECIFIED.,
 .F.,.F.,(4,4),(0.,0.012260361590445),.UNSPECIFIED.);
#74=B_SPLINE_CURVE_WITH_KNOTS('',3,(#854,#855,#856,#857),.UNSPECIFIED.,
 .F.,.F.,(4,4),(0.00602346297127674,0.0182838245617217),.UNSPECIFIED.);
#75=B_SPLINE_CURVE_WITH_KNOTS('',3,(#918,#919,#920,#921),.UNSPECIFIED.,
 .F.,.F.,(4,4),(0.,0.00264524103713774),.UNSPECIFIED.);
#76=B_SPLINE_CURVE_WITH_KNOTS('',3,(#929,#930,#931,#932,#933),
 .UNSPECIFIED.,.F.,.F.,(4,1,4),(0.,0.00426984100395812,0.00853968200791625),
 .UNSPECIFIED.);
#77=B_SPLINE_CURVE_WITH_KNOTS('',3,(#935,#936,#937,#938,#939),
 .UNSPECIFIED.,.F.,.F.,(4,1,4),(0.,0.00393455070156662,0.00786910140313325),
 .UNSPECIFIED.);
#78=B_SPLINE_CURVE_WITH_KNOTS('',3,(#941,#942,#943,#944),.UNSPECIFIED.,
 .F.,.F.,(4,4),(0.,0.00264618584568813),.UNSPECIFIED.);
#79=B_SPLINE_CURVE_WITH_KNOTS('',3,(#948,#949,#950,#951,#952,#953,#954,
#955),.UNSPECIFIED.,.F.,.F.,(4,1,1,1,1,4),(0.,0.0103668041788406,0.0207336083576812,
0.0259170104471015,0.0311004125365218,0.0414672167153625),.UNSPECIFIED.);
#80=B_SPLINE_CURVE_WITH_KNOTS('',3,(#1067,#1068,#1069,#1070,#1071),
 .UNSPECIFIED.,.F.,.F.,(4,1,4),(0.0127683080756298,0.0142075725923817,0.0156468371091337),
 .UNSPECIFIED.);
#81=B_SPLINE_CURVE_WITH_KNOTS('',3,(#1100,#1101,#1102,#1103,#1104,#1105,
#1106),.UNSPECIFIED.,.F.,.F.,(4,1,1,1,4),(1.31159564929468E-14,0.00338448752300029,
0.00676897504598747,0.0101534625689746,0.0135379500919618),
 .UNSPECIFIED.);
#82=ORIENTED_EDGE('',*,*,#232,.F.);
#83=ORIENTED_EDGE('',*,*,#233,.T.);
#84=ORIENTED_EDGE('',*,*,#234,.T.);
#85=ORIENTED_EDGE('',*,*,#235,.F.);
#86=ORIENTED_EDGE('',*,*,#236,.T.);
#87=ORIENTED_EDGE('',*,*,#237,.F.);
#88=ORIENTED_EDGE('',*,*,#238,.F.);
#89=ORIENTED_EDGE('',*,*,#239,.T.);
#90=ORIENTED_EDGE('',*,*,#240,.T.);
#91=ORIENTED_EDGE('',*,*,#241,.F.);
#92=ORIENTED_EDGE('',*,*,#242,.F.);
#93=ORIENTED_EDGE('',*,*,#243,.T.);
#94=ORIENTED_EDGE('',*,*,#244,.T.);
#95=ORIENTED_EDGE('',*,*,#245,.T.);
#96=ORIENTED_EDGE('',*,*,#246,.T.);
#97=ORIENTED_EDGE('',*,*,#247,.T.);
#98=ORIENTED_EDGE('',*,*,#248,.T.);
#99=ORIENTED_EDGE('',*,*,#239,.F.);
#100=ORIENTED_EDGE('',*,*,#249,.T.);
#101=ORIENTED_EDGE('',*,*,#241,.T.);
#102=ORIENTED_EDGE('',*,*,#250,.T.);
#103=ORIENTED_EDGE('',*,*,#243,.F.);
#104=ORIENTED_EDGE('',*,*,#251,.T.);
#105=ORIENTED_EDGE('',*,*,#242,.T.);
#106=ORIENTED_EDGE('',*,*,#251,.F.);
#107=ORIENTED_EDGE('',*,*,#249,.F.);
#108=ORIENTED_EDGE('',*,*,#237,.T.);
#109=ORIENTED_EDGE('',*,*,#252,.T.);
#110=ORIENTED_EDGE('',*,*,#253,.T.);
#111=ORIENTED_EDGE('',*,*,#254,.T.);
#112=ORIENTED_EDGE('',*,*,#255,.T.);
#113=ORIENTED_EDGE('',*,*,#256,.F.);
#114=ORIENTED_EDGE('',*,*,#257,.F.);
#115=ORIENTED_EDGE('',*,*,#258,.T.);
#116=ORIENTED_EDGE('',*,*,#259,.T.);
#117=ORIENTED_EDGE('',*,*,#260,.T.);
#118=ORIENTED_EDGE('',*,*,#235,.T.);
#119=ORIENTED_EDGE('',*,*,#261,.T.);
#120=ORIENTED_EDGE('',*,*,#262,.F.);
#121=ORIENTED_EDGE('',*,*,#263,.T.);
#122=ORIENTED_EDGE('',*,*,#262,.T.);
#123=ORIENTED_EDGE('',*,*,#264,.T.);
#124=ORIENTED_EDGE('',*,*,#265,.F.);
#125=ORIENTED_EDGE('',*,*,#259,.F.);
#126=ORIENTED_EDGE('',*,*,#266,.T.);
#127=ORIENTED_EDGE('',*,*,#267,.T.);
#128=ORIENTED_EDGE('',*,*,#268,.F.);
#129=ORIENTED_EDGE('',*,*,#269,.T.);
#130=ORIENTED_EDGE('',*,*,#270,.F.);
#131=ORIENTED_EDGE('',*,*,#271,.T.);
#132=ORIENTED_EDGE('',*,*,#272,.T.);
#133=ORIENTED_EDGE('',*,*,#257,.T.);
#134=ORIENTED_EDGE('',*,*,#270,.T.);
#135=ORIENTED_EDGE('',*,*,#273,.T.);
#136=ORIENTED_EDGE('',*,*,#274,.T.);
#137=ORIENTED_EDGE('',*,*,#232,.T.);
#138=ORIENTED_EDGE('',*,*,#275,.T.);
#139=ORIENTED_EDGE('',*,*,#272,.F.);
#140=ORIENTED_EDGE('',*,*,#276,.T.);
#141=ORIENTED_EDGE('',*,*,#277,.T.);
#142=ORIENTED_EDGE('',*,*,#278,.T.);
#143=ORIENTED_EDGE('',*,*,#266,.F.);
#144=ORIENTED_EDGE('',*,*,#258,.F.);
#145=ORIENTED_EDGE('',*,*,#279,.T.);
#146=ORIENTED_EDGE('',*,*,#280,.T.);
#147=ORIENTED_EDGE('',*,*,#268,.T.);
#148=ORIENTED_EDGE('',*,*,#256,.T.);
#149=ORIENTED_EDGE('',*,*,#265,.T.);
#150=ORIENTED_EDGE('',*,*,#281,.T.);
#151=ORIENTED_EDGE('',*,*,#282,.F.);
#152=ORIENTED_EDGE('',*,*,#263,.F.);
#153=ORIENTED_EDGE('',*,*,#267,.F.);
#154=ORIENTED_EDGE('',*,*,#278,.F.);
#155=ORIENTED_EDGE('',*,*,#283,.F.);
#156=ORIENTED_EDGE('',*,*,#284,.T.);
#157=ORIENTED_EDGE('',*,*,#285,.F.);
#158=ORIENTED_EDGE('',*,*,#282,.T.);
#159=ORIENTED_EDGE('',*,*,#271,.F.);
#160=ORIENTED_EDGE('',*,*,#275,.F.);
#161=ORIENTED_EDGE('',*,*,#286,.F.);
#162=ORIENTED_EDGE('',*,*,#276,.F.);
#163=ORIENTED_EDGE('',*,*,#287,.F.);
#164=ORIENTED_EDGE('',*,*,#288,.T.);
#165=ORIENTED_EDGE('',*,*,#283,.T.);
#166=ORIENTED_EDGE('',*,*,#277,.F.);
#167=ORIENTED_EDGE('',*,*,#285,.T.);
#168=ORIENTED_EDGE('',*,*,#289,.T.);
#169=ORIENTED_EDGE('',*,*,#260,.F.);
#170=ORIENTED_EDGE('',*,*,#234,.F.);
#171=ORIENTED_EDGE('',*,*,#290,.T.);
#172=ORIENTED_EDGE('',*,*,#287,.T.);
#173=ORIENTED_EDGE('',*,*,#286,.T.);
#174=ORIENTED_EDGE('',*,*,#264,.F.);
#175=ORIENTED_EDGE('',*,*,#261,.F.);
#176=ORIENTED_EDGE('',*,*,#291,.F.);
#177=ORIENTED_EDGE('',*,*,#281,.F.);
#178=ORIENTED_EDGE('',*,*,#254,.F.);
#179=ORIENTED_EDGE('',*,*,#292,.T.);
#180=ORIENTED_EDGE('',*,*,#274,.F.);
#181=ORIENTED_EDGE('',*,*,#293,.F.);
#182=ORIENTED_EDGE('',*,*,#291,.T.);
#183=ORIENTED_EDGE('',*,*,#238,.T.);
#184=ORIENTED_EDGE('',*,*,#294,.F.);
#185=ORIENTED_EDGE('',*,*,#294,.T.);
#186=ORIENTED_EDGE('',*,*,#255,.F.);
#187=ORIENTED_EDGE('',*,*,#295,.F.);
#188=ORIENTED_EDGE('',*,*,#279,.F.);
#189=ORIENTED_EDGE('',*,*,#295,.T.);
#190=ORIENTED_EDGE('',*,*,#293,.T.);
#191=ORIENTED_EDGE('',*,*,#296,.F.);
#192=ORIENTED_EDGE('',*,*,#296,.T.);
#193=ORIENTED_EDGE('',*,*,#273,.F.);
#194=ORIENTED_EDGE('',*,*,#269,.F.);
#195=ORIENTED_EDGE('',*,*,#280,.F.);
#196=ORIENTED_EDGE('',*,*,#297,.F.);
#197=ORIENTED_EDGE('',*,*,#247,.F.);
#198=ORIENTED_EDGE('',*,*,#298,.F.);
#199=ORIENTED_EDGE('',*,*,#290,.F.);
#200=ORIENTED_EDGE('',*,*,#298,.T.);
#201=ORIENTED_EDGE('',*,*,#246,.F.);
#202=ORIENTED_EDGE('',*,*,#299,.F.);
#203=ORIENTED_EDGE('',*,*,#288,.F.);
#204=ORIENTED_EDGE('',*,*,#297,.T.);
#205=ORIENTED_EDGE('',*,*,#233,.F.);
#206=ORIENTED_EDGE('',*,*,#300,.F.);
#207=ORIENTED_EDGE('',*,*,#248,.F.);
#208=ORIENTED_EDGE('',*,*,#299,.T.);
#209=ORIENTED_EDGE('',*,*,#245,.F.);
#210=ORIENTED_EDGE('',*,*,#301,.F.);
#211=ORIENTED_EDGE('',*,*,#284,.F.);
#212=ORIENTED_EDGE('',*,*,#300,.T.);
#213=ORIENTED_EDGE('',*,*,#292,.F.);
#214=ORIENTED_EDGE('',*,*,#302,.F.);
#215=ORIENTED_EDGE('',*,*,#303,.F.);
#216=ORIENTED_EDGE('',*,*,#240,.F.);
#217=ORIENTED_EDGE('',*,*,#301,.T.);
#218=ORIENTED_EDGE('',*,*,#244,.F.);
#219=ORIENTED_EDGE('',*,*,#304,.F.);
#220=ORIENTED_EDGE('',*,*,#289,.F.);
#221=ORIENTED_EDGE('',*,*,#302,.T.);
#222=ORIENTED_EDGE('',*,*,#253,.F.);
#223=ORIENTED_EDGE('',*,*,#305,.F.);
#224=ORIENTED_EDGE('',*,*,#250,.F.);
#225=ORIENTED_EDGE('',*,*,#303,.T.);
#226=ORIENTED_EDGE('',*,*,#306,.F.);
#227=ORIENTED_EDGE('',*,*,#236,.F.);
#228=ORIENTED_EDGE('',*,*,#304,.T.);
#229=ORIENTED_EDGE('',*,*,#305,.T.);
#230=ORIENTED_EDGE('',*,*,#252,.F.);
#231=ORIENTED_EDGE('',*,*,#306,.T.);
#232=EDGE_CURVE('',#307,#308,#349,.F.);
#233=EDGE_CURVE('',#307,#309,#62,.T.);
#234=EDGE_CURVE('',#309,#308,#39,.F.);
#235=EDGE_CURVE('',#310,#311,#350,.T.);
#236=EDGE_CURVE('',#310,#312,#63,.T.);
#237=EDGE_CURVE('',#313,#312,#351,.F.);
#238=EDGE_CURVE('',#311,#313,#40,.T.);
#239=EDGE_CURVE('',#314,#315,#352,.T.);
#240=EDGE_CURVE('',#315,#316,#64,.T.);
#241=EDGE_CURVE('',#317,#316,#353,.T.);
#242=EDGE_CURVE('',#314,#317,#65,.T.);
#243=EDGE_CURVE('',#318,#319,#354,.T.);
#244=EDGE_CURVE('',#319,#320,#66,.T.);
#245=EDGE_CURVE('',#320,#321,#67,.T.);
#246=EDGE_CURVE('',#321,#322,#68,.T.);
#247=EDGE_CURVE('',#322,#323,#69,.T.);
#248=EDGE_CURVE('',#323,#315,#70,.T.);
#249=EDGE_CURVE('',#314,#318,#41,.T.);
#250=EDGE_CURVE('',#316,#319,#71,.T.);
#251=EDGE_CURVE('',#318,#317,#72,.T.);
#252=EDGE_CURVE('',#312,#324,#73,.T.);
#253=EDGE_CURVE('',#324,#325,#74,.T.);
#254=EDGE_CURVE('',#325,#326,#355,.T.);
#255=EDGE_CURVE('',#326,#313,#356,.T.);
#256=EDGE_CURVE('',#327,#328,#42,.T.);
#257=EDGE_CURVE('',#329,#327,#357,.T.);
#258=EDGE_CURVE('',#329,#330,#43,.T.);
#259=EDGE_CURVE('',#330,#328,#358,.T.);
#260=EDGE_CURVE('',#331,#310,#359,.T.);
#261=EDGE_CURVE('',#311,#332,#360,.T.);
#262=EDGE_CURVE('',#333,#332,#361,.T.);
#263=EDGE_CURVE('',#333,#331,#362,.F.);
#264=EDGE_CURVE('',#332,#334,#25,.T.);
#265=EDGE_CURVE('',#328,#334,#363,.T.);
#266=EDGE_CURVE('',#330,#335,#364,.T.);
#267=EDGE_CURVE('',#335,#333,#26,.T.);
#268=EDGE_CURVE('',#336,#327,#365,.T.);
#269=EDGE_CURVE('',#336,#337,#27,.T.);
#270=EDGE_CURVE('',#338,#337,#366,.T.);
#271=EDGE_CURVE('',#338,#339,#28,.T.);
#272=EDGE_CURVE('',#339,#329,#367,.T.);
#273=EDGE_CURVE('',#337,#340,#368,.F.);
#274=EDGE_CURVE('',#340,#307,#369,.F.);
#275=EDGE_CURVE('',#308,#338,#370,.T.);
#276=EDGE_CURVE('',#339,#341,#371,.F.);
#277=EDGE_CURVE('',#341,#342,#372,.T.);
#278=EDGE_CURVE('',#342,#335,#373,.T.);
#279=EDGE_CURVE('',#343,#344,#374,.F.);
#280=EDGE_CURVE('',#344,#336,#375,.T.);
#281=EDGE_CURVE('',#334,#343,#376,.F.);
#282=EDGE_CURVE('',#331,#342,#44,.T.);
#283=EDGE_CURVE('',#345,#342,#45,.F.);
#284=EDGE_CURVE('',#345,#346,#75,.T.);
#285=EDGE_CURVE('',#331,#346,#46,.F.);
#286=EDGE_CURVE('',#341,#308,#47,.T.);
#287=EDGE_CURVE('',#347,#341,#48,.T.);
#288=EDGE_CURVE('',#347,#345,#76,.T.);
#289=EDGE_CURVE('',#346,#310,#77,.T.);
#290=EDGE_CURVE('',#309,#347,#78,.T.);
#291=EDGE_CURVE('',#343,#311,#49,.T.);
#292=EDGE_CURVE('',#325,#307,#79,.T.);
#293=EDGE_CURVE('',#326,#340,#50,.T.);
#294=EDGE_CURVE('',#343,#313,#51,.F.);
#295=EDGE_CURVE('',#344,#326,#52,.T.);
#296=EDGE_CURVE('',#344,#340,#53,.F.);
#297=EDGE_CURVE('',#323,#309,#54,.T.);
#298=EDGE_CURVE('',#347,#322,#55,.T.);
#299=EDGE_CURVE('',#345,#321,#56,.T.);
#300=EDGE_CURVE('',#315,#307,#57,.T.);
#301=EDGE_CURVE('',#346,#320,#58,.T.);
#302=EDGE_CURVE('',#348,#325,#59,.T.);
#303=EDGE_CURVE('',#316,#348,#80,.F.);
#304=EDGE_CURVE('',#310,#319,#60,.T.);
#305=EDGE_CURVE('',#348,#324,#81,.T.);
#306=EDGE_CURVE('',#312,#348,#61,.T.);
#307=VERTEX_POINT('',#721);
#308=VERTEX_POINT('',#722);
#309=VERTEX_POINT('',#728);
#310=VERTEX_POINT('',#732);
#311=VERTEX_POINT('',#733);
#312=VERTEX_POINT('',#742);
#313=VERTEX_POINT('',#744);
#314=VERTEX_POINT('',#763);
#315=VERTEX_POINT('',#764);
#316=VERTEX_POINT('',#774);
#317=VERTEX_POINT('',#776);
#318=VERTEX_POINT('',#784);
#319=VERTEX_POINT('',#785);
#320=VERTEX_POINT('',#792);
#321=VERTEX_POINT('',#798);
#322=VERTEX_POINT('',#805);
#323=VERTEX_POINT('',#810);
#324=VERTEX_POINT('',#853);
#325=VERTEX_POINT('',#858);
#326=VERTEX_POINT('',#860);
#327=VERTEX_POINT('',#864);
#328=VERTEX_POINT('',#865);
#329=VERTEX_POINT('',#867);
#330=VERTEX_POINT('',#869);
#331=VERTEX_POINT('',#873);
#332=VERTEX_POINT('',#875);
#333=VERTEX_POINT('',#877);
#334=VERTEX_POINT('',#881);
#335=VERTEX_POINT('',#884);
#336=VERTEX_POINT('',#888);
#337=VERTEX_POINT('',#890);
#338=VERTEX_POINT('',#892);
#339=VERTEX_POINT('',#894);
#340=VERTEX_POINT('',#898);
#341=VERTEX_POINT('',#903);
#342=VERTEX_POINT('',#905);
#343=VERTEX_POINT('',#909);
#344=VERTEX_POINT('',#910);
#345=VERTEX_POINT('',#917);
#346=VERTEX_POINT('',#922);
#347=VERTEX_POINT('',#928);
#348=VERTEX_POINT('',#1066);
#349=LINE('',#720,#377);
#350=LINE('',#731,#378);
#351=LINE('',#743,#379);
#352=LINE('',#762,#380);
#353=LINE('',#775,#381);
#354=LINE('',#783,#382);
#355=LINE('',#859,#383);
#356=LINE('',#861,#384);
#357=LINE('',#866,#385);
#358=LINE('',#870,#386);
#359=LINE('',#872,#387);
#360=LINE('',#874,#388);
#361=LINE('',#876,#389);
#362=LINE('',#878,#390);
#363=LINE('',#882,#391);
#364=LINE('',#883,#392);
#365=LINE('',#887,#393);
#366=LINE('',#891,#394);
#367=LINE('',#895,#395);
#368=LINE('',#897,#396);
#369=LINE('',#899,#397);
#370=LINE('',#900,#398);
#371=LINE('',#902,#399);
#372=LINE('',#904,#400);
#373=LINE('',#906,#401);
#374=LINE('',#908,#402);
#375=LINE('',#911,#403);
#376=LINE('',#912,#404);
#377=VECTOR('',#590,1.);
#378=VECTOR('',#595,1.);
#379=VECTOR('',#596,1.);
#380=VECTOR('',#599,1.);
#381=VECTOR('',#600,1.);
#382=VECTOR('',#603,1.);
#383=VECTOR('',#610,1.);
#384=VECTOR('',#611,1.);
#385=VECTOR('',#616,1.);
#386=VECTOR('',#619,1.);
#387=VECTOR('',#622,1.);
#388=VECTOR('',#623,1.);
#389=VECTOR('',#624,1.);
#390=VECTOR('',#625,1.);
#391=VECTOR('',#630,1.);
#392=VECTOR('',#631,1.);
#393=VECTOR('',#636,1.);
#394=VECTOR('',#639,1.);
#395=VECTOR('',#642,1.);
#396=VECTOR('',#645,1.);
#397=VECTOR('',#646,1.);
#398=VECTOR('',#647,1.);
#399=VECTOR('',#650,1.);
#400=VECTOR('',#651,1.);
#401=VECTOR('',#652,1.);
#402=VECTOR('',#655,1.);
#403=VECTOR('',#656,1.);
#404=VECTOR('',#657,1.);
#405=EDGE_LOOP('',(#82,#83,#84));
#406=EDGE_LOOP('',(#85,#86,#87,#88));
#407=EDGE_LOOP('',(#89,#90,#91,#92));
#408=EDGE_LOOP('',(#93,#94,#95,#96,#97,#98,#99,#100));
#409=EDGE_LOOP('',(#101,#102,#103,#104));
#410=EDGE_LOOP('',(#105,#106,#107));
#411=EDGE_LOOP('',(#108,#109,#110,#111,#112));
#412=EDGE_LOOP('',(#113,#114,#115,#116));
#413=EDGE_LOOP('',(#117,#118,#119,#120,#121));
#414=EDGE_LOOP('',(#122,#123,#124,#125,#126,#127));
#415=EDGE_LOOP('',(#128,#129,#130,#131,#132,#133));
#416=EDGE_LOOP('',(#134,#135,#136,#137,#138));
#417=EDGE_LOOP('',(#139,#140,#141,#142,#143,#144));
#418=EDGE_LOOP('',(#145,#146,#147,#148,#149,#150));
#419=EDGE_LOOP('',(#151,#152,#153,#154));
#420=EDGE_LOOP('',(#155,#156,#157,#158));
#421=EDGE_LOOP('',(#159,#160,#161,#162));
#422=EDGE_LOOP('',(#163,#164,#165,#166));
#423=EDGE_LOOP('',(#167,#168,#169));
#424=EDGE_LOOP('',(#170,#171,#172,#173));
#425=EDGE_LOOP('',(#174,#175,#176,#177));
#426=EDGE_LOOP('',(#178,#179,#180,#181));
#427=EDGE_LOOP('',(#182,#183,#184));
#428=EDGE_LOOP('',(#185,#186,#187,#188));
#429=EDGE_LOOP('',(#189,#190,#191));
#430=EDGE_LOOP('',(#192,#193,#194,#195));
#431=EDGE_LOOP('',(#196,#197,#198,#199));
#432=EDGE_LOOP('',(#200,#201,#202,#203));
#433=EDGE_LOOP('',(#204,#205,#206,#207));
#434=EDGE_LOOP('',(#208,#209,#210,#211));
#435=EDGE_LOOP('',(#212,#213,#214,#215,#216));
#436=EDGE_LOOP('',(#217,#218,#219,#220));
#437=EDGE_LOOP('',(#221,#222,#223));
#438=EDGE_LOOP('',(#224,#225,#226,#227,#228));
#439=EDGE_LOOP('',(#229,#230,#231));
#440=FACE_BOUND('',#405,.T.);
#441=FACE_BOUND('',#406,.T.);
#442=FACE_BOUND('',#407,.T.);
#443=FACE_BOUND('',#408,.T.);
#444=FACE_BOUND('',#409,.T.);
#445=FACE_BOUND('',#410,.T.);
#446=FACE_BOUND('',#411,.T.);
#447=FACE_BOUND('',#412,.T.);
#448=FACE_BOUND('',#413,.T.);
#449=FACE_BOUND('',#414,.T.);
#450=FACE_BOUND('',#415,.T.);
#451=FACE_BOUND('',#416,.T.);
#452=FACE_BOUND('',#417,.T.);
#453=FACE_BOUND('',#418,.T.);
#454=FACE_BOUND('',#419,.T.);
#455=FACE_BOUND('',#420,.T.);
#456=FACE_BOUND('',#421,.T.);
#457=FACE_BOUND('',#422,.T.);
#458=FACE_BOUND('',#423,.T.);
#459=FACE_BOUND('',#424,.T.);
#460=FACE_BOUND('',#425,.T.);
#461=FACE_BOUND('',#426,.T.);
#462=FACE_BOUND('',#427,.T.);
#463=FACE_BOUND('',#428,.T.);
#464=FACE_BOUND('',#429,.T.);
#465=FACE_BOUND('',#430,.T.);
#466=FACE_BOUND('',#431,.T.);
#467=FACE_BOUND('',#432,.T.);
#468=FACE_BOUND('',#433,.T.);
#469=FACE_BOUND('',#434,.T.);
#470=FACE_BOUND('',#435,.T.);
#471=FACE_BOUND('',#436,.T.);
#472=FACE_BOUND('',#437,.T.);
#473=FACE_BOUND('',#438,.T.);
#474=FACE_BOUND('',#439,.T.);
#475=CYLINDRICAL_SURFACE('',#535,0.00508);
#476=CYLINDRICAL_SURFACE('',#537,0.00508);
#477=CYLINDRICAL_SURFACE('',#539,0.00635);
#478=CYLINDRICAL_SURFACE('',#543,0.00635);
#479=CYLINDRICAL_SURFACE('',#556,0.00508);
#480=CYLINDRICAL_SURFACE('',#561,0.00508);
#481=CYLINDRICAL_SURFACE('',#563,0.00508);
#482=CYLINDRICAL_SURFACE('',#565,0.00508);
#483=CYLINDRICAL_SURFACE('',#567,0.00508);
#484=CYLINDRICAL_SURFACE('',#569,0.00508);
#485=CYLINDRICAL_SURFACE('',#573,0.00508);
#486=CYLINDRICAL_SURFACE('',#577,0.00508);
#487=ADVANCED_FACE('',(#440),#475,.T.);
#488=ADVANCED_FACE('',(#441),#476,.T.);
#489=ADVANCED_FACE('',(#442),#37,.F.);
#490=ADVANCED_FACE('',(#443),#477,.T.);
#491=ADVANCED_FACE('',(#444),#38,.T.);
#492=ADVANCED_FACE('',(#445),#29,.F.);
#493=ADVANCED_FACE('',(#446),#30,.F.);
#494=ADVANCED_FACE('',(#447),#478,.F.);
#495=ADVANCED_FACE('',(#448),#31,.F.);
#496=ADVANCED_FACE('',(#449),#32,.T.);
#497=ADVANCED_FACE('',(#450),#33,.T.);
#498=ADVANCED_FACE('',(#451),#34,.T.);
#499=ADVANCED_FACE('',(#452),#35,.T.);
#500=ADVANCED_FACE('',(#453),#36,.F.);
#501=ADVANCED_FACE('',(#454),#479,.T.);
#502=ADVANCED_FACE('',(#455),#21,.T.);
#503=ADVANCED_FACE('',(#456),#480,.T.);
#504=ADVANCED_FACE('',(#457),#481,.T.);
#505=ADVANCED_FACE('',(#458),#482,.T.);
#506=ADVANCED_FACE('',(#459),#22,.T.);
#507=ADVANCED_FACE('',(#460),#483,.T.);
#508=ADVANCED_FACE('',(#461),#484,.T.);
#509=ADVANCED_FACE('',(#462),#23,.T.);
#510=ADVANCED_FACE('',(#463),#485,.T.);
#511=ADVANCED_FACE('',(#464),#24,.T.);
#512=ADVANCED_FACE('',(#465),#486,.T.);
#513=ADVANCED_FACE('',(#466),#12,.F.);
#514=ADVANCED_FACE('',(#467),#13,.F.);
#515=ADVANCED_FACE('',(#468),#14,.F.);
#516=ADVANCED_FACE('',(#469),#15,.F.);
#517=ADVANCED_FACE('',(#470),#16,.F.);
#518=ADVANCED_FACE('',(#471),#17,.F.);
#519=ADVANCED_FACE('',(#472),#18,.F.);
#520=ADVANCED_FACE('',(#473),#19,.F.);
#521=ADVANCED_FACE('',(#474),#20,.F.);
#522=CLOSED_SHELL('',(#487,#488,#489,#490,#491,#492,#493,#494,#495,#496,
#497,#498,#499,#500,#501,#502,#503,#504,#505,#506,#507,#508,#509,#510,#511,
#512,#513,#514,#515,#516,#517,#518,#519,#520,#521));
#523=STYLED_ITEM('',(#524),#531);
#524=PRESENTATION_STYLE_ASSIGNMENT((#525));
#525=SURFACE_STYLE_USAGE(.BOTH.,#526);
#526=SURFACE_SIDE_STYLE('',(#527));
#527=SURFACE_STYLE_FILL_AREA(#528);
#528=FILL_AREA_STYLE('',(#529));
#529=FILL_AREA_STYLE_COLOUR('',#530);
#530=COLOUR_RGB('',0.6,0.6,0.6);
#531=MANIFOLD_SOLID_BREP('Tail Bouy Mast',#522);
#532=SHAPE_DEFINITION_REPRESENTATION(#1165,#533);
#533=SHAPE_REPRESENTATION('Tail Bouy Mast',(#534),#1160);
#534=AXIS2_PLACEMENT_3D('',#718,#586,#587);
#535=AXIS2_PLACEMENT_3D('',#719,#588,#589);
#536=AXIS2_PLACEMENT_3D('',#729,#591,#592);
#537=AXIS2_PLACEMENT_3D('',#730,#593,#594);
#538=AXIS2_PLACEMENT_3D('',#745,#597,#598);
#539=AXIS2_PLACEMENT_3D('',#782,#601,#602);
#540=AXIS2_PLACEMENT_3D('',#816,#604,#605);
#541=AXIS2_PLACEMENT_3D('',#847,#606,#607);
#542=AXIS2_PLACEMENT_3D('',#848,#608,#609);
#543=AXIS2_PLACEMENT_3D('',#862,#612,#613);
#544=AXIS2_PLACEMENT_3D('',#863,#614,#615);
#545=AXIS2_PLACEMENT_3D('',#868,#617,#618);
#546=AXIS2_PLACEMENT_3D('',#871,#620,#621);
#547=AXIS2_PLACEMENT_3D('',#879,#626,#627);
#548=AXIS2_PLACEMENT_3D('',#880,#628,#629);
#549=AXIS2_PLACEMENT_3D('',#885,#632,#633);
#550=AXIS2_PLACEMENT_3D('',#886,#634,#635);
#551=AXIS2_PLACEMENT_3D('',#889,#637,#638);
#552=AXIS2_PLACEMENT_3D('',#893,#640,#641);
#553=AXIS2_PLACEMENT_3D('',#896,#643,#644);
#554=AXIS2_PLACEMENT_3D('',#901,#648,#649);
#555=AXIS2_PLACEMENT_3D('',#907,#653,#654);
#556=AXIS2_PLACEMENT_3D('',#913,#658,#659);
#557=AXIS2_PLACEMENT_3D('',#914,#660,#661);
#558=AXIS2_PLACEMENT_3D('',#915,#662,#663);
#559=AXIS2_PLACEMENT_3D('',#916,#664,#665);
#560=AXIS2_PLACEMENT_3D('',#923,#666,#667);
#561=AXIS2_PLACEMENT_3D('',#924,#668,#669);
#562=AXIS2_PLACEMENT_3D('',#925,#670,#671);
#563=AXIS2_PLACEMENT_3D('',#926,#672,#673);
#564=AXIS2_PLACEMENT_3D('',#927,#674,#675);
#565=AXIS2_PLACEMENT_3D('',#934,#676,#677);
#566=AXIS2_PLACEMENT_3D('',#940,#678,#679);
#567=AXIS2_PLACEMENT_3D('',#945,#680,#681);
#568=AXIS2_PLACEMENT_3D('',#946,#682,#683);
#569=AXIS2_PLACEMENT_3D('',#947,#684,#685);
#570=AXIS2_PLACEMENT_3D('',#956,#686,#687);
#571=AXIS2_PLACEMENT_3D('',#957,#688,#689);
#572=AXIS2_PLACEMENT_3D('',#958,#690,#691);
#573=AXIS2_PLACEMENT_3D('',#959,#692,#693);
#574=AXIS2_PLACEMENT_3D('',#960,#694,#695);
#575=AXIS2_PLACEMENT_3D('',#961,#696,#697);
#576=AXIS2_PLACEMENT_3D('',#962,#698,#699);
#577=AXIS2_PLACEMENT_3D('',#963,#700,#701);
#578=AXIS2_PLACEMENT_3D('',#976,#702,#703);
#579=AXIS2_PLACEMENT_3D('',#977,#704,#705);
#580=AXIS2_PLACEMENT_3D('',#996,#706,#707);
#581=AXIS2_PLACEMENT_3D('',#1012,#708,#709);
#582=AXIS2_PLACEMENT_3D('',#1025,#710,#711);
#583=AXIS2_PLACEMENT_3D('',#1065,#712,#713);
#584=AXIS2_PLACEMENT_3D('',#1087,#714,#715);
#585=AXIS2_PLACEMENT_3D('',#1146,#716,#717);
#586=DIRECTION('',(0.,0.,1.));
#587=DIRECTION('',(1.,0.,0.));
#588=DIRECTION('',(0.,-1.,0.));
#589=DIRECTION('',(0.,0.,-1.));
#590=DIRECTION('',(0.,1.,0.));
#591=DIRECTION('',(0.,-1.,0.));
#592=DIRECTION('',(0.,0.,-1.));
#593=DIRECTION('',(0.,1.,0.));
#594=DIRECTION('',(0.,0.,1.));
#595=DIRECTION('',(0.,1.,0.));
#596=DIRECTION('',(0.,1.,0.));
#597=DIRECTION('',(0.,1.,0.));
#598=DIRECTION('',(0.,0.,1.));
#599=DIRECTION('',(0.,0.,1.));
#600=DIRECTION('',(0.,0.,1.));
#601=DIRECTION('',(0.,0.,1.));
#602=DIRECTION('',(1.,0.,0.));
#603=DIRECTION('',(0.,0.,1.));
#604=DIRECTION('',(0.,0.,1.));
#605=DIRECTION('',(1.,0.,0.));
#606=DIRECTION('',(0.,0.,1.));
#607=DIRECTION('',(1.,0.,0.));
#608=DIRECTION('',(-2.73184799366426E-16,0.,1.));
#609=DIRECTION('',(1.,0.,2.73184799366426E-16));
#610=DIRECTION('',(0.,1.,0.));
#611=DIRECTION('',(1.,0.,2.73184799366426E-16));
#612=DIRECTION('',(0.,1.,0.));
#613=DIRECTION('',(0.,0.,1.));
#614=DIRECTION('',(0.,-1.,0.));
#615=DIRECTION('',(0.,0.,-1.));
#616=DIRECTION('',(0.,1.,0.));
#617=DIRECTION('',(0.,-1.,0.));
#618=DIRECTION('',(0.,0.,-1.));
#619=DIRECTION('',(0.,1.,0.));
#620=DIRECTION('',(-0.707106781186548,0.,0.707106781186548));
#621=DIRECTION('',(0.707106781186548,0.,0.707106781186548));
#622=DIRECTION('',(0.,1.,0.));
#623=DIRECTION('',(0.707106781186548,0.,0.707106781186548));
#624=DIRECTION('',(0.,1.,0.));
#625=DIRECTION('',(0.707106781186548,0.,0.707106781186548));
#626=DIRECTION('',(-2.52943751957604E-16,0.,1.));
#627=DIRECTION('',(1.,0.,2.52943751957604E-16));
#628=DIRECTION('',(-2.52943751957604E-16,0.,1.));
#629=DIRECTION('',(1.,0.,2.52943751957604E-16));
#630=DIRECTION('',(1.,0.,2.52943751957604E-16));
#631=DIRECTION('',(1.,0.,2.52943751957604E-16));
#632=DIRECTION('',(-2.52943751957604E-16,0.,1.));
#633=DIRECTION('',(-1.,0.,-2.52943751957604E-16));
#634=DIRECTION('',(-2.52943751957604E-16,0.,1.));
#635=DIRECTION('',(1.,0.,2.52943751957604E-16));
#636=DIRECTION('',(1.,0.,2.52943751957604E-16));
#637=DIRECTION('',(-2.52943751957604E-16,0.,1.));
#638=DIRECTION('',(1.,0.,2.52943751957604E-16));
#639=DIRECTION('',(0.,1.,0.));
#640=DIRECTION('',(-2.52943751957604E-16,0.,1.));
#641=DIRECTION('',(-1.,0.,-2.52943751957604E-16));
#642=DIRECTION('',(1.,0.,2.52943751957604E-16));
#643=DIRECTION('',(-0.707106781186547,0.,-0.707106781186548));
#644=DIRECTION('',(-0.707106781186548,0.,0.707106781186547));
#645=DIRECTION('',(-0.707106781186548,0.,0.707106781186547));
#646=DIRECTION('',(0.,1.,0.));
#647=DIRECTION('',(-0.707106781186548,0.,0.707106781186547));
#648=DIRECTION('',(0.,-1.,0.));
#649=DIRECTION('',(1.,0.,0.));
#650=DIRECTION('',(-0.707106781186548,0.,0.707106781186547));
#651=DIRECTION('',(1.,0.,2.73184799366426E-16));
#652=DIRECTION('',(0.707106781186548,0.,0.707106781186548));
#653=DIRECTION('',(0.,-1.,0.));
#654=DIRECTION('',(1.,0.,0.));
#655=DIRECTION('',(1.,0.,2.73184799366426E-16));
#656=DIRECTION('',(-0.707106781186548,0.,0.707106781186547));
#657=DIRECTION('',(0.707106781186548,0.,0.707106781186548));
#658=DIRECTION('',(-0.707106781186548,0.,-0.707106781186548));
#659=DIRECTION('',(-0.707106781186548,0.,0.707106781186548));
#660=DIRECTION('',(-0.707106781186548,1.44878118111815E-15,-0.707106781186548));
#661=DIRECTION('',(-0.707106781186548,0.,0.707106781186548));
#662=DIRECTION('',(-1.87814549564418E-15,-1.,0.));
#663=DIRECTION('',(1.,-1.87814549564418E-15,0.));
#664=DIRECTION('',(1.,0.,2.04888599524819E-15));
#665=DIRECTION('',(2.04888599524819E-15,0.,-1.));
#666=DIRECTION('',(0.,-1.,0.));
#667=DIRECTION('',(0.,0.,-1.));
#668=DIRECTION('',(-0.707106781186548,0.,0.707106781186547));
#669=DIRECTION('',(0.707106781186547,0.,0.707106781186548));
#670=DIRECTION('',(0.707106781186548,0.,-0.707106781186547));
#671=DIRECTION('',(-0.707106781186547,0.,-0.707106781186548));
#672=DIRECTION('',(-1.,0.,-2.73184799366426E-16));
#673=DIRECTION('',(-2.73184799366426E-16,0.,1.));
#674=DIRECTION('',(-1.,0.,-3.41480999208033E-16));
#675=DIRECTION('',(-3.41480999208033E-16,0.,1.));
#676=DIRECTION('',(0.,1.,0.));
#677=DIRECTION('',(0.,0.,1.));
#678=DIRECTION('',(1.70740499604017E-16,-1.,0.));
#679=DIRECTION('',(1.,1.70740499604017E-16,0.));
#680=DIRECTION('',(0.707106781186548,0.,0.707106781186548));
#681=DIRECTION('',(0.707106781186548,0.,-0.707106781186548));
#682=DIRECTION('',(-0.707106781186548,0.,-0.707106781186548));
#683=DIRECTION('',(-0.707106781186548,0.,0.707106781186548));
#684=DIRECTION('',(0.,-1.,0.));
#685=DIRECTION('',(0.,0.,-1.));
#686=DIRECTION('',(0.,1.,0.));
#687=DIRECTION('',(0.,0.,1.));
#688=DIRECTION('',(0.,1.,0.));
#689=DIRECTION('',(0.,0.,1.));
#690=DIRECTION('',(1.,-1.70740499604017E-16,3.41480999208033E-16));
#691=DIRECTION('',(3.41480999208033E-16,0.,-1.));
#692=DIRECTION('',(1.,0.,2.73184799366426E-16));
#693=DIRECTION('',(2.73184799366426E-16,0.,-1.));
#694=DIRECTION('',(-1.,0.,-1.70740499604017E-15));
#695=DIRECTION('',(-1.70740499604017E-15,0.,1.));
#696=DIRECTION('',(-1.0244429976241E-15,1.,0.));
#697=DIRECTION('',(-1.,-1.0244429976241E-15,0.));
#698=DIRECTION('',(0.707106781186548,7.24390590559075E-16,-0.707106781186547));
#699=DIRECTION('',(-0.707106781186547,0.,-0.707106781186548));
#700=DIRECTION('',(0.707106781186548,0.,-0.707106781186547));
#701=DIRECTION('',(-0.707106781186547,0.,-0.707106781186548));
#702=DIRECTION('',(0.636934184440416,-0.712114066801082,-0.295310684796956));
#703=DIRECTION('',(0.745355992499931,0.666666666666665,0.));
#704=DIRECTION('',(-0.922424527368184,0.36905044218917,-0.113731097020824));
#705=DIRECTION('',(-0.37146063894529,-0.928448702791036,0.));
#706=DIRECTION('',(-0.922424527368183,-0.369050442189172,0.113731097020823));
#707=DIRECTION('',(0.371460638945292,-0.928448702791035,0.));
#708=DIRECTION('',(-2.04888599524819E-15,-1.,2.04888599524819E-15));
#709=DIRECTION('',(1.,-2.04888599524819E-15,0.));
#710=DIRECTION('',(-0.636934184440417,-0.712114066801081,-0.295310684796954));
#711=DIRECTION('',(0.74535599249993,-0.666666666666666,0.));
#712=DIRECTION('',(-0.3463026006063,-0.938122864455032,-1.1825575808338E-16));
#713=DIRECTION('',(0.938122864455032,-0.3463026006063,0.));
#714=DIRECTION('',(0.,-1.,0.));
#715=DIRECTION('',(0.,0.,-1.));
#716=DIRECTION('',(0.346302600602516,-0.938122864456428,1.18255758082088E-16));
#717=DIRECTION('',(0.938122864456428,0.346302600602516,0.));
#718=CARTESIAN_POINT('',(0.,0.,0.));
#719=CARTESIAN_POINT('',(-0.00424579510314468,-0.0381,-0.0098425));
#720=CARTESIAN_POINT('',(-0.00783789755157234,-0.0381,-0.0134346024484277));
#721=CARTESIAN_POINT('',(-0.00783789755157234,-0.0254,-0.0134346024484277));
#722=CARTESIAN_POINT('',(-0.00783789755157234,-0.03302,-0.0134346024484277));
#723=CARTESIAN_POINT('',(-0.00783789755157234,-0.0254,-0.0134346024484277));
#724=CARTESIAN_POINT('',(-0.00783789755157234,-0.0267192497875395,-0.0134346024484277));
#725=CARTESIAN_POINT('',(-0.00761162024599093,-0.0293404711159343,-0.0136776838521073));
#726=CARTESIAN_POINT('',(-0.00691192897408884,-0.0318364001928706,-0.0142058176990972));
#727=CARTESIAN_POINT('',(-0.00638260704870944,-0.03302,-0.0144512346104209));
#728=CARTESIAN_POINT('',(-0.00638260704870944,-0.03302,-0.0144512346104209));
#729=CARTESIAN_POINT('',(-0.00424579510314468,-0.03302,-0.0098425));
#730=CARTESIAN_POINT('',(0.00424579510314468,-0.0381,-0.0098425));
#731=CARTESIAN_POINT('',(0.00783789755157235,-0.0381,-0.0134346024484277));
#732=CARTESIAN_POINT('',(0.00783789755157235,-0.0254,-0.0134346024484277));
#733=CARTESIAN_POINT('',(0.00783789755157235,0.03302,-0.0134346024484277));
#734=CARTESIAN_POINT('',(0.00783789755157235,-0.0254,-0.0134346024484277));
#735=CARTESIAN_POINT('',(0.00783789755157235,-0.0219382636586186,-0.0134346024484277));
#736=CARTESIAN_POINT('',(0.0076896700412268,-0.0167516662207627,-0.0135865927458099));
#737=CARTESIAN_POINT('',(0.00735607307014973,-0.00984372001404451,-0.0138638875514488));
#738=CARTESIAN_POINT('',(0.00695018697917272,-0.00293849346345122,-0.0141582279676407));
#739=CARTESIAN_POINT('',(0.00605077472061941,0.0056475290167941,-0.0146740405486801));
#740=CARTESIAN_POINT('',(0.00487307511718308,0.01246896243031,-0.0149225));
#741=CARTESIAN_POINT('',(0.00424579510314468,0.0158675261289643,-0.0149225));
#742=CARTESIAN_POINT('',(0.00424579510314469,0.0158675261289643,-0.0149225));
#743=CARTESIAN_POINT('',(0.00424579510314469,-0.0381,-0.0149225));
#744=CARTESIAN_POINT('',(0.00424579510314469,0.03302,-0.0149225));
#745=CARTESIAN_POINT('',(0.00424579510314468,0.03302,-0.0098425));
#746=CARTESIAN_POINT('',(-0.00635,-0.0254,-0.0762));
#747=CARTESIAN_POINT('',(-0.00635,-0.0254,-0.0166716651262364));
#748=CARTESIAN_POINT('',(-0.00635,-0.0226946049953358,-0.0762));
#749=CARTESIAN_POINT('',(-0.00635,-0.0226946049953358,-0.0166716651262364));
#750=CARTESIAN_POINT('',(-0.00616885381403013,-0.0186929418239203,-0.0762));
#751=CARTESIAN_POINT('',(-0.00616885381403013,-0.0186929418239203,-0.0166716651262364));
#752=CARTESIAN_POINT('',(-0.0056904098306286,-0.0132296248456753,-0.0762));
#753=CARTESIAN_POINT('',(-0.0056904098306286,-0.0132296248456753,-0.0166716651262364));
#754=CARTESIAN_POINT('',(-0.00513009391556515,-0.00762542830851798,-0.0762));
#755=CARTESIAN_POINT('',(-0.00513009391556515,-0.00762542830851798,-0.0166716651262364));
#756=CARTESIAN_POINT('',(-0.00403851673464124,2.02846067136017E-5,-0.0762));
#757=CARTESIAN_POINT('',(-0.00403851673464124,2.02846067136017E-5,-0.0166716651262364));
#758=CARTESIAN_POINT('',(-0.00174272489448913,0.00797901301603598,-0.0762));
#759=CARTESIAN_POINT('',(-0.00174272489448913,0.00797901301603598,-0.0166716651262364));
#760=CARTESIAN_POINT('',(1.70658944605911E-19,0.0127,-0.0762));
#761=CARTESIAN_POINT('',(1.70658944605911E-19,0.0127,-0.0166716651262364));
#762=CARTESIAN_POINT('',(-0.00635,-0.0254,-0.0762));
#763=CARTESIAN_POINT('',(-0.00635,-0.0254,-0.0762));
#764=CARTESIAN_POINT('',(-0.00635,-0.0254,-0.0170267048968554));
#765=CARTESIAN_POINT('',(-0.00635,-0.0254,-0.0170267048968553));
#766=CARTESIAN_POINT('',(-0.00635,-0.0221422761666432,-0.0170267048968553));
#767=CARTESIAN_POINT('',(-0.00607626079059136,-0.0172796111442068,-0.0173237149803258));
#768=CARTESIAN_POINT('',(-0.00545660836834338,-0.0108221658524318,-0.0178481660366506));
#769=CARTESIAN_POINT('',(-0.00490941478634272,-0.00598702869960893,-0.0182678207165381));
#770=CARTESIAN_POINT('',(-0.00409557242381575,-0.00120928006597897,-0.018805234488476));
#771=CARTESIAN_POINT('',(-0.00262526201753002,0.00504760942492591,-0.0195397271882533));
#772=CARTESIAN_POINT('',(-0.00112607750616577,0.00964949141637087,-0.0199291666805424));
#773=CARTESIAN_POINT('',(5.2742416386681E-19,0.0127,-0.0199891908976588));
#774=CARTESIAN_POINT('',(-1.70658944605911E-19,0.0127,-0.0199891908976491));
#775=CARTESIAN_POINT('',(-1.70658944605911E-19,0.0127,-0.0762));
#776=CARTESIAN_POINT('',(-1.70658944605911E-19,0.0127,-0.0762));
#777=CARTESIAN_POINT('',(-0.00635,-0.0254,-0.0762));
#778=CARTESIAN_POINT('',(-0.00635,-0.0207463668967014,-0.0762));
#779=CARTESIAN_POINT('',(-0.00551034403944797,-0.0101773841164709,-0.0762));
#780=CARTESIAN_POINT('',(-0.00397318492077873,0.0019367668843239,-0.0762));
#781=CARTESIAN_POINT('',(1.70658944605911E-19,0.0127,-0.0762));
#782=CARTESIAN_POINT('',(0.,-0.0254,-0.0762));
#783=CARTESIAN_POINT('',(0.00635,-0.0254,-0.0762));
#784=CARTESIAN_POINT('',(0.00635,-0.0254,-0.0762));
#785=CARTESIAN_POINT('',(0.00635,-0.0254,-0.0170267048968554));
#786=CARTESIAN_POINT('',(0.00635,-0.0254,-0.0170267048968554));
#787=CARTESIAN_POINT('',(0.00635,-0.0258337870955206,-0.0170267048968554));
#788=CARTESIAN_POINT('',(0.00625822879012069,-0.0266868710510596,-0.0171963972179934));
#789=CARTESIAN_POINT('',(0.00580272391432491,-0.0281584245757645,-0.0179339314211864));
#790=CARTESIAN_POINT('',(0.0052333418777198,-0.0290739459059611,-0.0186424131501198));
#791=CARTESIAN_POINT('',(0.00473301055237456,-0.0296333333333334,-0.0190599692208419));
#792=CARTESIAN_POINT('',(0.00473301055237456,-0.0296333333333333,-0.0190599692208419));
#793=CARTESIAN_POINT('',(0.00473301055237456,-0.0296333333333333,-0.0190599692208419));
#794=CARTESIAN_POINT('',(0.00443671126533043,-0.029964606007091,-0.0193072484931731));
#795=CARTESIAN_POINT('',(0.0037314212360829,-0.0306117916009868,-0.0196662022791441));
#796=CARTESIAN_POINT('',(0.00282259170709315,-0.0311100820595306,-0.0196548400159982));
#797=CARTESIAN_POINT('',(0.0023587750573026,-0.0312956492627231,-0.019551904030779));
#798=CARTESIAN_POINT('',(0.0023587750573026,-0.0312956492627231,-0.019551904030779));
#799=CARTESIAN_POINT('',(0.0023587750573026,-0.0312956492627231,-0.019551904030779));
#800=CARTESIAN_POINT('',(0.00161402461920748,-0.0315936145383037,-0.0193866197096526));
#801=CARTESIAN_POINT('',(0.000419567357672232,-0.0318291837656415,-0.0191998314268071));
#802=CARTESIAN_POINT('',(-0.00122529482669808,-0.0316701517698113,-0.0193212933697542));
#803=CARTESIAN_POINT('',(-0.00198626514691606,-0.0314446857888227,-0.0194692319778312));
#804=CARTESIAN_POINT('',(-0.0023587750573026,-0.0312956492627231,-0.019551904030779));
#805=CARTESIAN_POINT('',(-0.0023587750573026,-0.0312956492627231,-0.019551904030779));
#806=CARTESIAN_POINT('',(-0.0023587750573026,-0.0312956492627231,-0.019551904030779));
#807=CARTESIAN_POINT('',(-0.00328861983536356,-0.0309236300716357,-0.0197582668001487));
#808=CARTESIAN_POINT('',(-0.00413861320834901,-0.0302978897667766,-0.0195560289453609));
#809=CARTESIAN_POINT('',(-0.00473301055237457,-0.0296333333333333,-0.0190599692208419));
#810=CARTESIAN_POINT('',(-0.00473301055237456,-0.0296333333333333,-0.0190599692208419));
#811=CARTESIAN_POINT('',(-0.00473301055237456,-0.0296333333333333,-0.0190599692208419));
#812=CARTESIAN_POINT('',(-0.00523192792440357,-0.0290755267538271,-0.0186435931777554));
#813=CARTESIAN_POINT('',(-0.00599013872267526,-0.0278732839334212,-0.0177006102278497));
#814=CARTESIAN_POINT('',(-0.00635,-0.026263814830381,-0.0170267048968554));
#815=CARTESIAN_POINT('',(-0.00635,-0.0254,-0.0170267048968554));
#816=CARTESIAN_POINT('',(0.,-0.0254,-0.0762));
#817=CARTESIAN_POINT('',(0.00635,-0.0254,-0.0762));
#818=CARTESIAN_POINT('',(0.00635,-0.0254,-0.0166716651262364));
#819=CARTESIAN_POINT('',(0.00635,-0.0226946049953358,-0.0762));
#820=CARTESIAN_POINT('',(0.00635,-0.0226946049953358,-0.0166716651262364));
#821=CARTESIAN_POINT('',(0.00616885381403013,-0.0186929418239203,-0.0762));
#822=CARTESIAN_POINT('',(0.00616885381403013,-0.0186929418239203,-0.0166716651262364));
#823=CARTESIAN_POINT('',(0.0056904098306286,-0.0132296248456753,-0.0762));
#824=CARTESIAN_POINT('',(0.0056904098306286,-0.0132296248456753,-0.0166716651262364));
#825=CARTESIAN_POINT('',(0.00513009391556515,-0.00762542830851798,-0.0762));
#826=CARTESIAN_POINT('',(0.00513009391556515,-0.00762542830851798,-0.0166716651262364));
#827=CARTESIAN_POINT('',(0.00403851673464124,2.02846067136017E-5,-0.0762));
#828=CARTESIAN_POINT('',(0.00403851673464124,2.02846067136017E-5,-0.0166716651262364));
#829=CARTESIAN_POINT('',(0.00174272489448913,0.00797901301603598,-0.0762));
#830=CARTESIAN_POINT('',(0.00174272489448913,0.00797901301603598,-0.0166716651262364));
#831=CARTESIAN_POINT('',(-1.70658944605911E-19,0.0127,-0.0762));
#832=CARTESIAN_POINT('',(-1.70658944605911E-19,0.0127,-0.0166716651262364));
#833=CARTESIAN_POINT('',(-8.1467639790687E-20,0.0127,-0.0199891908976589));
#834=CARTESIAN_POINT('',(0.00112485119507139,0.00965281139148547,-0.0199292320462049));
#835=CARTESIAN_POINT('',(0.00263409276463997,0.00501967415972375,-0.0195371074473924));
#836=CARTESIAN_POINT('',(0.0041026999396853,-0.00124479229764036,-0.0188009286918845));
#837=CARTESIAN_POINT('',(0.00491362771604444,-0.00601858137026342,-0.0182647176515218));
#838=CARTESIAN_POINT('',(0.00545882740417176,-0.0108452258123972,-0.0178463846166151));
#839=CARTESIAN_POINT('',(0.00607725783281394,-0.0172926785745886,-0.0173226740523133));
#840=CARTESIAN_POINT('',(0.00635,-0.0221474889059127,-0.0170267048968554));
#841=CARTESIAN_POINT('',(0.00635,-0.0254,-0.0170267048968554));
#842=CARTESIAN_POINT('',(0.00635,-0.0254,-0.0762));
#843=CARTESIAN_POINT('',(0.00635,-0.0207463668967014,-0.0762));
#844=CARTESIAN_POINT('',(0.00551034403944797,-0.0101773841164709,-0.0762));
#845=CARTESIAN_POINT('',(0.00397318492077873,0.0019367668843239,-0.0762));
#846=CARTESIAN_POINT('',(-1.70658944605911E-19,0.0127,-0.0762));
#847=CARTESIAN_POINT('',(0.,-0.009525,-0.0762));
#848=CARTESIAN_POINT('',(1.7347234759768E-18,-0.0381,-0.0149225));
#849=CARTESIAN_POINT('',(0.00424579510314469,0.0158675261289643,-0.0149225));
#850=CARTESIAN_POINT('',(0.00283053006876313,0.0197014346404586,-0.0149225));
#851=CARTESIAN_POINT('',(0.00141526503438156,0.0235353431519528,-0.0149225));
#852=CARTESIAN_POINT('',(-4.85722573273506E-18,0.0273692516634471,-0.0149225));
#853=CARTESIAN_POINT('',(-5.20417042793041E-19,0.027369251663447,-0.0149225));
#854=CARTESIAN_POINT('',(2.08166817117217E-18,0.0273692516634471,-0.0149225));
#855=CARTESIAN_POINT('',(-0.00141526503438156,0.0235353431519528,-0.0149225));
#856=CARTESIAN_POINT('',(-0.00283053006876312,0.0197014346404586,-0.0149225));
#857=CARTESIAN_POINT('',(-0.00424579510314468,0.0158675261289644,-0.0149225));
#858=CARTESIAN_POINT('',(-0.00424579510314467,0.0158675261289644,-0.0149225));
#859=CARTESIAN_POINT('',(-0.00424579510314467,0.0381,-0.0149225));
#860=CARTESIAN_POINT('',(-0.00424579510314467,0.03302,-0.0149225));
#861=CARTESIAN_POINT('',(1.7347234759768E-18,0.03302,-0.0149225));
#862=CARTESIAN_POINT('',(-1.4476583291991E-19,-0.0381,0.));
#863=CARTESIAN_POINT('',(-1.4476583291991E-19,0.0381,0.));
#864=CARTESIAN_POINT('',(-0.00482558221875869,0.0381,0.0041275));
#865=CARTESIAN_POINT('',(0.00482558221875869,0.0381,0.0041275));
#866=CARTESIAN_POINT('',(-0.00482558221875869,-0.0381,0.0041275));
#867=CARTESIAN_POINT('',(-0.00482558221875869,-0.0381,0.0041275));
#868=CARTESIAN_POINT('',(-1.4476583291991E-19,-0.0381,0.));
#869=CARTESIAN_POINT('',(0.00482558221875869,-0.0381,0.0041275));
#870=CARTESIAN_POINT('',(0.00482558221875869,-0.0381,0.0041275));
#871=CARTESIAN_POINT('',(0.015875,-0.0381,-0.0053975));
#872=CARTESIAN_POINT('',(0.00783789755157235,-0.0381,-0.0134346024484277));
#873=CARTESIAN_POINT('',(0.00783789755157235,-0.03302,-0.0134346024484277));
#874=CARTESIAN_POINT('',(0.015875,0.03302,-0.0053975));
#875=CARTESIAN_POINT('',(0.0254,0.03302,0.0041275));
#876=CARTESIAN_POINT('',(0.0254,-0.0381,0.0041275));
#877=CARTESIAN_POINT('',(0.0254,-0.03302,0.0041275));
#878=CARTESIAN_POINT('',(0.00635,-0.03302,-0.0149225));
#879=CARTESIAN_POINT('',(0.0151127911093793,-0.0381,0.0041275));
#880=CARTESIAN_POINT('',(0.0182157951031447,0.03302,0.0041275));
#881=CARTESIAN_POINT('',(0.0182157951031447,0.0381,0.0041275));
#882=CARTESIAN_POINT('',(0.0151127911093793,0.0381,0.0041275));
#883=CARTESIAN_POINT('',(0.0151127911093793,-0.0381,0.0041275));
#884=CARTESIAN_POINT('',(0.0182157951031447,-0.0381,0.0041275));
#885=CARTESIAN_POINT('',(0.0182157951031447,-0.03302,0.0041275));
#886=CARTESIAN_POINT('',(-0.0151127911093793,-0.0381,0.0041275));
#887=CARTESIAN_POINT('',(-0.0151127911093793,0.0381,0.0041275));
#888=CARTESIAN_POINT('',(-0.0182157951031447,0.0381,0.0041275));
#889=CARTESIAN_POINT('',(-0.0182157951031447,0.03302,0.0041275));
#890=CARTESIAN_POINT('',(-0.0254,0.03302,0.0041275));
#891=CARTESIAN_POINT('',(-0.0254,-0.0381,0.0041275));
#892=CARTESIAN_POINT('',(-0.0254,-0.03302,0.0041275));
#893=CARTESIAN_POINT('',(-0.0182157951031447,-0.03302,0.0041275));
#894=CARTESIAN_POINT('',(-0.0182157951031447,-0.0381,0.0041275));
#895=CARTESIAN_POINT('',(-0.0151127911093793,-0.0381,0.0041275));
#896=CARTESIAN_POINT('',(-0.015875,-0.0381,-0.0053975));
#897=CARTESIAN_POINT('',(-0.00635,0.03302,-0.0149225));
#898=CARTESIAN_POINT('',(-0.00783789755157234,0.03302,-0.0134346024484277));
#899=CARTESIAN_POINT('',(-0.00783789755157234,-0.0381,-0.0134346024484277));
#900=CARTESIAN_POINT('',(-0.015875,-0.03302,-0.0053975));
#901=CARTESIAN_POINT('',(2.77555756156289E-17,-0.0381,-0.040005));
#902=CARTESIAN_POINT('',(0.0129583524484277,-0.0381,-0.0270466475515724));
#903=CARTESIAN_POINT('',(-0.00424579510314468,-0.0381,-0.0098425));
#904=CARTESIAN_POINT('',(0.00635,-0.0381,-0.0098425));
#905=CARTESIAN_POINT('',(0.00424579510314467,-0.0381,-0.0098425));
#906=CARTESIAN_POINT('',(0.0218078975515723,-0.0381,0.00771960244842767));
#907=CARTESIAN_POINT('',(2.77555756156289E-17,0.0381,-0.040005));
#908=CARTESIAN_POINT('',(1.95156391047391E-17,0.0381,-0.0098425));
#909=CARTESIAN_POINT('',(0.00424579510314468,0.0381,-0.0098425));
#910=CARTESIAN_POINT('',(-0.00424579510314468,0.0381,-0.0098425));
#911=CARTESIAN_POINT('',(-0.0218078975515723,0.0381,0.00771960244842766));
#912=CARTESIAN_POINT('',(-0.0129583524484276,0.0381,-0.0270466475515724));
#913=CARTESIAN_POINT('',(-0.0129583524484276,-0.03302,-0.0270466475515724));
#914=CARTESIAN_POINT('',(0.00424579510314468,-0.03302,-0.0098425));
#915=CARTESIAN_POINT('',(0.00424579510314468,-0.03302,-0.0098425));
#916=CARTESIAN_POINT('',(0.00424579510314467,-0.03302,-0.0098425));
#917=CARTESIAN_POINT('',(0.00424579510314468,-0.0345160843364508,-0.0146972020153895));
#918=CARTESIAN_POINT('',(0.00424579510314468,-0.0345160843364508,-0.0146972020153895));
#919=CARTESIAN_POINT('',(0.00507111181262885,-0.0341858855098321,-0.0147989601234778));
#920=CARTESIAN_POINT('',(0.00581288808194342,-0.0336569651688799,-0.0147153813658118));
#921=CARTESIAN_POINT('',(0.00638260704870944,-0.03302,-0.0144512346104209));
#922=CARTESIAN_POINT('',(0.00638260704870944,-0.03302,-0.0144512346104209));
#923=CARTESIAN_POINT('',(0.00424579510314468,-0.03302,-0.0098425));
#924=CARTESIAN_POINT('',(-0.0122828975515723,-0.03302,-0.00180539755157234));
#925=CARTESIAN_POINT('',(-0.00424579510314468,-0.03302,-0.0098425));
#926=CARTESIAN_POINT('',(1.95156391047391E-17,-0.03302,-0.0098425));
#927=CARTESIAN_POINT('',(-0.00424579510314468,-0.03302,-0.0098425));
#928=CARTESIAN_POINT('',(-0.00424579510314467,-0.0345160843364508,-0.0146972020153895));
#929=CARTESIAN_POINT('',(-0.00424579510314468,-0.0345160843364508,-0.0146972020153895));
#930=CARTESIAN_POINT('',(-0.00284785755509848,-0.0347957329445224,-0.0146110220807776));
#931=CARTESIAN_POINT('',(1.91107842883922E-6,-0.0350542735548772,-0.0144925479988804));
#932=CARTESIAN_POINT('',(0.002847922948,-0.034795719863084,-0.0146110261121137));
#933=CARTESIAN_POINT('',(0.00424579510314469,-0.0345160843364508,-0.0146972020153895));
#934=CARTESIAN_POINT('',(0.00424579510314468,-0.0381,-0.0098425));
#935=CARTESIAN_POINT('',(0.00638260704870944,-0.03302,-0.0144512346104209));
#936=CARTESIAN_POINT('',(0.00691227458067859,-0.0318356273930424,-0.0142056574606909));
#937=CARTESIAN_POINT('',(0.00761050284301267,-0.0293462073980386,-0.0136785491306991));
#938=CARTESIAN_POINT('',(0.00783789755157234,-0.0267189276157976,-0.0134346024484277));
#939=CARTESIAN_POINT('',(0.00783789755157234,-0.0254,-0.0134346024484277));
#940=CARTESIAN_POINT('',(-0.00424579510314468,-0.03302,-0.0098425));
#941=CARTESIAN_POINT('',(-0.00638260704870944,-0.03302,-0.0144512346104209));
#942=CARTESIAN_POINT('',(-0.00581299311726554,-0.0336568477358197,-0.0147153326668196));
#943=CARTESIAN_POINT('',(-0.00507108805947506,-0.0341858950131699,-0.014798957194813));
#944=CARTESIAN_POINT('',(-0.00424579510314467,-0.0345160843364508,-0.0146972020153895));
#945=CARTESIAN_POINT('',(0.0122828975515723,0.03302,-0.00180539755157233));
#946=CARTESIAN_POINT('',(0.00424579510314468,0.03302,-0.0098425));
#947=CARTESIAN_POINT('',(-0.00424579510314468,-0.0381,-0.0098425));
#948=CARTESIAN_POINT('',(-0.00424579510314467,0.0158675261289644,-0.0149225));
#949=CARTESIAN_POINT('',(-0.00487428161117078,0.012462425721699,-0.0149225));
#950=CARTESIAN_POINT('',(-0.00604986914887276,0.00565200078746258,-0.0146740970864114));
#951=CARTESIAN_POINT('',(-0.00694971192785053,-0.00293203468878026,-0.0141585866658551));
#952=CARTESIAN_POINT('',(-0.00735587525801752,-0.00983963619655925,-0.0138640372359815));
#953=CARTESIAN_POINT('',(-0.00768957722513982,-0.0167492993480096,-0.0135866883803802));
#954=CARTESIAN_POINT('',(-0.00783789755157249,-0.0219373355502421,-0.0134346024484275));
#955=CARTESIAN_POINT('',(-0.00783789755157249,-0.0254,-0.0134346024484275));
#956=CARTESIAN_POINT('',(-0.00424579510314468,0.03302,-0.0098425));
#957=CARTESIAN_POINT('',(0.00424579510314468,0.03302,-0.0098425));
#958=CARTESIAN_POINT('',(0.00424579510314468,0.03302,-0.0098425));
#959=CARTESIAN_POINT('',(3.46944695195363E-19,0.03302,-0.0098425));
#960=CARTESIAN_POINT('',(-0.00424579510314468,0.03302,-0.0098425));
#961=CARTESIAN_POINT('',(-0.00424579510314468,0.03302,-0.0098425));
#962=CARTESIAN_POINT('',(-0.00424579510314468,0.03302,-0.0098425));
#963=CARTESIAN_POINT('',(0.0129583524484277,0.03302,-0.0270466475515724));
#964=CARTESIAN_POINT('',(-0.00638260704870944,-0.03302,-0.0144512346104209));
#965=CARTESIAN_POINT('',(-0.00400999633837937,-0.0304416877989292,-0.0155512812255037));
#966=CARTESIAN_POINT('',(-0.00473301055237456,-0.0296333333333333,-0.0190599692208419));
#967=CARTESIAN_POINT('',(-0.00581299311796606,-0.0336568477363813,-0.0147153326664948));
#968=CARTESIAN_POINT('',(-0.00353843787878363,-0.0307217498743993,-0.0157699164495141));
#969=CARTESIAN_POINT('',(-0.00410010618381237,-0.0303409419290142,-0.0195881653300391));
#970=CARTESIAN_POINT('',(-0.00507108805921951,-0.0341858950130384,-0.0147989571948535));
#971=CARTESIAN_POINT('',(-0.00317331740631719,-0.0308961607172088,-0.0158127619398031));
#972=CARTESIAN_POINT('',(-0.00327576723096828,-0.0309287722368694,-0.0197554143869475));
#973=CARTESIAN_POINT('',(-0.00424579510314468,-0.0345160843364508,-0.0146972020153895));
#974=CARTESIAN_POINT('',(-0.0027639576981477,-0.0311335407884418,-0.0157396079969506));
#975=CARTESIAN_POINT('',(-0.0023587750573026,-0.0312956492627231,-0.019551904030779));
#976=CARTESIAN_POINT('',(-0.00851941899427421,-0.03302,-0.0190599692208419));
#977=CARTESIAN_POINT('',(-0.00424579510314468,-0.0360121686729016,-0.019551904030779));
#978=CARTESIAN_POINT('',(-0.00424579510314468,-0.0345160843364508,-0.0146972020153895));
#979=CARTESIAN_POINT('',(-0.00276395769814769,-0.0311335407884418,-0.0157396079969506));
#980=CARTESIAN_POINT('',(-0.0023587750573026,-0.0312956492627231,-0.019551904030779));
#981=CARTESIAN_POINT('',(-0.00357289617039286,-0.0346506935327928,-0.0146557191994409));
#982=CARTESIAN_POINT('',(-0.00236751847732168,-0.0313215909921228,-0.0157830969889584));
#983=CARTESIAN_POINT('',(-0.00198494231702652,-0.0314452150364101,-0.0194689383966675));
#984=CARTESIAN_POINT('',(-0.00219696419502649,-0.0348536453145799,-0.0145816900943599));
#985=CARTESIAN_POINT('',(-0.00149647247199012,-0.0316322541853088,-0.0158281278124345));
#986=CARTESIAN_POINT('',(-0.00122053566385179,-0.0316707170161498,-0.0193208801895454));
#987=CARTESIAN_POINT('',(0.000739558732177048,-0.0349958651393596,-0.0145213187572491));
#988=CARTESIAN_POINT('',(0.000498623331207273,-0.0318678005988917,-0.0158429874950347));
#989=CARTESIAN_POINT('',(0.000410865962344689,-0.0318287390440358,-0.0192001375147986));
#990=CARTESIAN_POINT('',(0.00290281962433152,-0.0347847381298231,-0.0146144103773202));
#991=CARTESIAN_POINT('',(0.00198226351255982,-0.0315043359668429,-0.0158253590800921));
#992=CARTESIAN_POINT('',(0.00161267756879708,-0.0315941534762166,-0.0193863207506618));
#993=CARTESIAN_POINT('',(0.00424579510314467,-0.0345160843364508,-0.0146972020153895));
#994=CARTESIAN_POINT('',(0.00276395769814769,-0.0311335407884418,-0.0157396079969506));
#995=CARTESIAN_POINT('',(0.0023587750573026,-0.0312956492627231,-0.019551904030779));
#996=CARTESIAN_POINT('',(0.00424579510314469,-0.0360121686729016,-0.019551904030779));
#997=CARTESIAN_POINT('',(-0.00783789755157235,-0.0254,-0.0134346024484277));
#998=CARTESIAN_POINT('',(-0.00635,-0.0254,-0.0149225));
#999=CARTESIAN_POINT('',(-0.00635,-0.0254,-0.0170267048968554));
#1000=CARTESIAN_POINT('',(-0.0078378975500416,-0.0268549261293691,-0.0134346024499584));
#1001=CARTESIAN_POINT('',(-0.00634999999714014,-0.0264761368062318,-0.0149225000015294));
#1002=CARTESIAN_POINT('',(-0.00635,-0.0262082922940914,-0.0170267048998916));
#1003=CARTESIAN_POINT('',(-0.0075580479214503,-0.0296623890795062,-0.0137339419704465));
#1004=CARTESIAN_POINT('',(-0.00579076742401598,-0.0286159879589664,-0.0152632454264876));
#1005=CARTESIAN_POINT('',(-0.00603905596598798,-0.0277679939327942,-0.0176253839432467));
#1006=CARTESIAN_POINT('',(-0.00684367376335998,-0.0319890234841583,-0.014237463814997));
#1007=CARTESIAN_POINT('',(-0.00459521783866511,-0.0299769259974177,-0.0155575954198831));
#1008=CARTESIAN_POINT('',(-0.00524530690137162,-0.0290605686028421,-0.0186324276253116));
#1009=CARTESIAN_POINT('',(-0.00638260704870944,-0.03302,-0.0144512346104209));
#1010=CARTESIAN_POINT('',(-0.00400999633837937,-0.0304416877989293,-0.0155512812255037));
#1011=CARTESIAN_POINT('',(-0.00473301055237456,-0.0296333333333333,-0.0190599692208419));
#1012=CARTESIAN_POINT('',(-0.01143,-0.0254,-0.0170267048968554));
#1013=CARTESIAN_POINT('',(0.00424579510314468,-0.0345160843364508,-0.0146972020153895));
#1014=CARTESIAN_POINT('',(0.0027639576981477,-0.0311335407884418,-0.0157396079969506));
#1015=CARTESIAN_POINT('',(0.00235877505730261,-0.0312956492627231,-0.019551904030779));
#1016=CARTESIAN_POINT('',(0.00507111181219304,-0.0341858855095656,-0.0147989601235599));
#1017=CARTESIAN_POINT('',(0.00317332926740815,-0.0308961538391779,-0.0158127640592269));
#1018=CARTESIAN_POINT('',(0.00327579362327399,-0.0309287616776401,-0.0197554202437585));
#1019=CARTESIAN_POINT('',(0.0058128880827016,-0.0336569651695782,-0.0147153813654603));
#1020=CARTESIAN_POINT('',(0.00353834951405122,-0.0307218023549463,-0.0157699574194908));
#1021=CARTESIAN_POINT('',(0.0040999894779017,-0.030341072410189,-0.0195882627285133));
#1022=CARTESIAN_POINT('',(0.00638260704870944,-0.03302,-0.0144512346104209));
#1023=CARTESIAN_POINT('',(0.00400999633837937,-0.0304416877989292,-0.0155512812255037));
#1024=CARTESIAN_POINT('',(0.00473301055237456,-0.0296333333333333,-0.0190599692208419));
#1025=CARTESIAN_POINT('',(0.0085194189942742,-0.03302,-0.0190599692208419));
#1026=CARTESIAN_POINT('',(-0.00635,-0.0254,-0.0170267048968553));
#1027=CARTESIAN_POINT('',(-0.00635,-0.0254,-0.0149225));
#1028=CARTESIAN_POINT('',(-0.00783789755157233,-0.0254,-0.0134346024484276));
#1029=CARTESIAN_POINT('',(-0.00635,-0.0237281823779655,-0.0170267048972843));
#1030=CARTESIAN_POINT('',(-0.00634999999984027,-0.0236890799041249,-0.0149225000003001));
#1031=CARTESIAN_POINT('',(-0.00783789755141071,-0.0236337806568174,-0.0134346024485893));
#1032=CARTESIAN_POINT('',(-0.00625666570234385,-0.0203741110739386,-0.0171269478699156));
#1033=CARTESIAN_POINT('',(-0.00625169408281169,-0.0202501249865653,-0.0149813326955192));
#1034=CARTESIAN_POINT('',(-0.00778870175914358,-0.0201105815741787,-0.0134847239349823));
#1035=CARTESIAN_POINT('',(-0.00589006373153052,-0.0153001276566147,-0.0174849439755693));
#1036=CARTESIAN_POINT('',(-0.00587175133249856,-0.0150942608047429,-0.0151818363467506));
#1037=CARTESIAN_POINT('',(-0.00759779806664564,-0.0148432955673328,-0.0136637219877781));
#1038=CARTESIAN_POINT('',(-0.00538692742770897,-0.0100978926511615,-0.0179039331489784));
#1039=CARTESIAN_POINT('',(-0.0053651072158979,-0.00987671622288339,-0.0153991328056937));
#1040=CARTESIAN_POINT('',(-0.00734402900351399,-0.00959251705685805,-0.0138732165744909));
#1041=CARTESIAN_POINT('',(-0.00478448793740716,-0.00510088816472238,-0.0183586018066586));
#1042=CARTESIAN_POINT('',(-0.00474000243911907,-0.00479038607508489,-0.0156041244729585));
#1043=CARTESIAN_POINT('',(-0.00702885855330158,-0.00435053506492352,-0.0141005509033288));
#1044=CARTESIAN_POINT('',(-0.00389824589670289,-0.000259736607037401,-0.0189190984678737));
#1045=CARTESIAN_POINT('',(-0.00381269117691495,0.000140857081958731,-0.0157903029232914));
#1046=CARTESIAN_POINT('',(-0.00655640664372667,0.000814069694645529,-0.0143807992339369));
#1047=CARTESIAN_POINT('',(-0.00271192983799408,0.00452206253551351,-0.0194690844694891));
#1048=CARTESIAN_POINT('',(-0.0025923351770524,0.00494607240949727,-0.0158360666030762));
#1049=CARTESIAN_POINT('',(-0.00592629941772513,0.00589096202706826,-0.0146557922347447));
#1050=CARTESIAN_POINT('',(-0.00148827795607021,0.00848866615303286,-0.0198174501761964));
#1051=CARTESIAN_POINT('',(-0.00137938966795921,0.0088149819529562,-0.0156513580025636));
#1052=CARTESIAN_POINT('',(-0.00528172385549015,0.0100675743331145,-0.0148299750880976));
#1053=CARTESIAN_POINT('',(-0.000522648441437027,0.0112742089272345,-0.0199543403558001));
#1054=CARTESIAN_POINT('',(-0.000460558424473464,0.0114470057929579,-0.0153559586399154));
#1055=CARTESIAN_POINT('',(-0.00477836255424993,0.0129717618115193,-0.0148984201779008));
#1056=CARTESIAN_POINT('',(5.63010361977601E-5,0.012854508311353,-0.0199955881793863));
#1057=CARTESIAN_POINT('',(8.65105010140132E-5,0.0129354540616446,-0.0151267295457624));
#1058=CARTESIAN_POINT('',(-0.00447531736794167,0.0146260583877894,-0.0149190440896918));
#1059=CARTESIAN_POINT('',(0.000367023194052182,0.0136942543010733,-0.0200024999999939));
#1060=CARTESIAN_POINT('',(0.000377195031050521,0.0137218094879156,-0.0149936917305302));
#1061=CARTESIAN_POINT('',(-0.00432221803025931,0.01545347151216,-0.0149225));
#1062=CARTESIAN_POINT('',(0.000519869048286891,0.0141083089178844,-0.0200025));
#1063=CARTESIAN_POINT('',(0.000519869048286897,0.0141083089178844,-0.0149225));
#1064=CARTESIAN_POINT('',(-0.00424579510314468,0.0158675261289644,-0.0149225));
#1065=CARTESIAN_POINT('',(-0.00424579510314467,0.0158675261289644,-0.0200025));
#1066=CARTESIAN_POINT('',(5.3030496660611E-15,0.0143002155542438,-0.0176953022398315));
#1067=CARTESIAN_POINT('',(-7.98805721670979E-19,0.0143002155542485,-0.017695302239838));
#1068=CARTESIAN_POINT('',(-3.04168231444743E-19,0.0139022877378815,-0.0179656199756391));
#1069=CARTESIAN_POINT('',(-4.02823715567145E-19,0.0131394722269758,-0.0185787600346478));
#1070=CARTESIAN_POINT('',(2.53646693816927E-19,0.0127000000000027,-0.0194983489602648));
#1071=CARTESIAN_POINT('',(2.53646693816927E-19,0.0127,-0.0199891908976491));
#1072=CARTESIAN_POINT('',(0.00638260704870944,-0.03302,-0.0144512346104209));
#1073=CARTESIAN_POINT('',(0.00400999633837937,-0.0304416877989292,-0.0155512812255037));
#1074=CARTESIAN_POINT('',(0.00473301055237456,-0.0296333333333333,-0.0190599692208419));
#1075=CARTESIAN_POINT('',(0.00684352648075761,-0.0319893528168027,-0.0142375321016853));
#1076=CARTESIAN_POINT('',(0.00459503785448893,-0.0299770689335014,-0.0155575934773704));
#1077=CARTESIAN_POINT('',(0.0052451432543202,-0.0290607515658078,-0.0186325641981108));
#1078=CARTESIAN_POINT('',(0.00755477861367222,-0.029680949511516,-0.0137366230943949));
#1079=CARTESIAN_POINT('',(0.00578513820519219,-0.0286287226909959,-0.0152654178427703));
#1080=CARTESIAN_POINT('',(0.00603542340214321,-0.0277783052837177,-0.0176307461914303));
#1081=CARTESIAN_POINT('',(0.00783789755093327,-0.0268518250776773,-0.0134346024490668));
#1082=CARTESIAN_POINT('',(0.00634999999881091,-0.0264738431117765,-0.0149225000006462));
#1083=CARTESIAN_POINT('',(0.00635,-0.0262065694875968,-0.0170267048981121));
#1084=CARTESIAN_POINT('',(0.00783789755157235,-0.0254,-0.0134346024484277));
#1085=CARTESIAN_POINT('',(0.00635,-0.0254,-0.0149225));
#1086=CARTESIAN_POINT('',(0.00635,-0.0254,-0.0170267048968554));
#1087=CARTESIAN_POINT('',(0.01143,-0.0254,-0.0170267048968554));
#1088=CARTESIAN_POINT('',(1.41843984532707E-5,0.0142949794660176,-0.0177252051928176));
#1089=CARTESIAN_POINT('',(-0.00130440204560521,0.0147817279847917,-0.0149225));
#1090=CARTESIAN_POINT('',(-0.00424579510314468,0.0158675261289644,-0.0149225));
#1091=CARTESIAN_POINT('',(0.00143794102298682,0.0181518914284513,-0.0177252051928147));
#1092=CARTESIAN_POINT('',(0.000119354578942558,0.0186386399472607,-0.0149225000000373));
#1093=CARTESIAN_POINT('',(-0.00282203847855961,0.0197244380914292,-0.0149225));
#1094=CARTESIAN_POINT('',(0.0028616976476267,0.0220088033911253,-0.0177252051928072));
#1095=CARTESIAN_POINT('',(0.00154311120357274,0.0224955519098973,-0.0149224999999813));
#1096=CARTESIAN_POINT('',(-0.00139828185396724,0.0235813500540722,-0.0149225));
#1097=CARTESIAN_POINT('',(0.00428545427221681,0.0258657153537071,-0.0177252051928176));
#1098=CARTESIAN_POINT('',(0.00296686782815833,0.0263524638724813,-0.0149225));
#1099=CARTESIAN_POINT('',(2.54747706188722E-5,0.027438262016654,-0.0149225));
#1100=CARTESIAN_POINT('',(-2.19415552100071E-19,0.0143002155542582,-0.0176953022398315));
#1101=CARTESIAN_POINT('',(-2.19415552100071E-19,0.0152478155704687,-0.0170515847607049));
#1102=CARTESIAN_POINT('',(-4.89718086073947E-18,0.0173511095475338,-0.016199944341524));
#1103=CARTESIAN_POINT('',(1.70185939149488E-17,0.0206572818657239,-0.015423958963238));
#1104=CARTESIAN_POINT('',(-6.36278572248452E-17,0.0239879864041717,-0.0150125821765595));
#1105=CARTESIAN_POINT('',(1.3681882929748E-16,0.0262410891312061,-0.0149225));
#1106=CARTESIAN_POINT('',(-2.25514051876985E-18,0.027369251663447,-0.0149225));
#1107=CARTESIAN_POINT('',(0.00783789755157235,-0.0254,-0.0134346024484277));
#1108=CARTESIAN_POINT('',(0.00635000000000002,-0.0254,-0.0149225));
#1109=CARTESIAN_POINT('',(0.00635,-0.0254,-0.0170267048968553));
#1110=CARTESIAN_POINT('',(0.0078378975514721,-0.0236353750815777,-0.0134346024485279));
#1111=CARTESIAN_POINT('',(0.00634999999973519,-0.0236906244084314,-0.0149225000001454));
#1112=CARTESIAN_POINT('',(0.00635,-0.0237296915831738,-0.0170267048971614));
#1113=CARTESIAN_POINT('',(0.00778878503830404,-0.020115324725704,-0.0134846354496605));
#1114=CARTESIAN_POINT('',(0.00625186310314537,-0.0202547830134644,-0.0149812255067845));
#1115=CARTESIAN_POINT('',(0.00625682304478454,-0.0203786289482564,-0.0171267708992721));
#1116=CARTESIAN_POINT('',(0.00759822005671778,-0.0148528774386893,-0.0136633447386668));
#1117=CARTESIAN_POINT('',(0.00587259154468503,-0.0151037032680969,-0.0151814247059133));
#1118=CARTESIAN_POINT('',(0.00589088061519884,-0.0153094372915377,-0.0174841894773466));
#1119=CARTESIAN_POINT('',(0.00734469269999268,-0.00960642781398511,-0.0138726873905144));
#1120=CARTESIAN_POINT('',(0.00536644551769784,-0.00989060024686364,-0.0153985946732486));
#1121=CARTESIAN_POINT('',(0.00538824507350889,-0.010111627546721,-0.0179028747810253));
#1122=CARTESIAN_POINT('',(0.00703032011065529,-0.00437054447268947,-0.0140995698820795));
#1123=CARTESIAN_POINT('',(0.00474288920225853,-0.00480962663776556,-0.0156033176845434));
#1124=CARTESIAN_POINT('',(0.00478724339879575,-0.00511967833848144,-0.01835663976416));
#1125=CARTESIAN_POINT('',(0.00655841875089339,0.000795814492974599,-0.0143797443560277));
#1126=CARTESIAN_POINT('',(0.00381663030699139,0.000123534635111879,-0.0157897980366266));
#1127=CARTESIAN_POINT('',(0.00390200872914746,-0.000276844979020294,-0.0189169887120552));
#1128=CARTESIAN_POINT('',(0.00592756490834458,0.00588383156943593,-0.0146555652519806));
#1129=CARTESIAN_POINT('',(0.00259446419388753,0.00494031849746706,-0.0158366506866386));
#1130=CARTESIAN_POINT('',(0.00271437600088344,0.00451515813418717,-0.0194686305039615));
#1131=CARTESIAN_POINT('',(0.0052784761844382,0.0100878518548012,-0.0148307323046413));
#1132=CARTESIAN_POINT('',(0.00137307942956735,0.00883439564338768,-0.0156501309593022));
#1133=CARTESIAN_POINT('',(0.00148200592949009,0.00850821778345701,-0.0198189646092821));
#1134=CARTESIAN_POINT('',(0.00477512765114452,0.0129898126838173,-0.0148987292681195));
#1135=CARTESIAN_POINT('',(0.00045476934008682,0.0114630695883031,-0.0153537268890042));
#1136=CARTESIAN_POINT('',(0.000516564068052786,0.0112911954326703,-0.0199549585362397));
#1137=CARTESIAN_POINT('',(0.0044735277362515,0.0146356496257166,-0.0149191034059047));
#1138=CARTESIAN_POINT('',(-8.99165941815768E-5,0.0129446026308861,-0.0151252349005063));
#1139=CARTESIAN_POINT('',(-5.9957386141633E-5,0.0128643124226501,-0.019995706811808));
#1140=CARTESIAN_POINT('',(0.00432157744831311,0.015456942144897,-0.0149225));
#1141=CARTESIAN_POINT('',(-0.000378382623946748,0.0137250266397517,-0.0149930991433623));
#1142=CARTESIAN_POINT('',(-0.000368304357949078,0.0136977249338167,-0.020002500000003));
#1143=CARTESIAN_POINT('',(0.0042457951031427,0.0158675261289751,-0.0149225));
#1144=CARTESIAN_POINT('',(-0.000519869048290614,0.0141083089178945,-0.0149224999999981));
#1145=CARTESIAN_POINT('',(-0.000519869048290852,0.0141083089178951,-0.0200025));
#1146=CARTESIAN_POINT('',(0.00424579510314469,0.0158675261289643,-0.0200025));
#1147=CARTESIAN_POINT('',(0.00424579510314469,0.0158675261289643,-0.0149225));
#1148=CARTESIAN_POINT('',(0.00130440204560816,0.0147817279847928,-0.0149225));
#1149=CARTESIAN_POINT('',(-1.41843984513587E-5,0.0142949794660183,-0.0177252051928135));
#1150=CARTESIAN_POINT('',(0.00282203847854891,0.0197244380914934,-0.0149225));
#1151=CARTESIAN_POINT('',(-0.000119354578878831,0.018638639947137,-0.0149225000000498));
#1152=CARTESIAN_POINT('',(-0.00143794102290104,0.0181518914282432,-0.0177252051928175));
#1153=CARTESIAN_POINT('',(0.00139828185396725,0.0235813500540722,-0.0149225));
#1154=CARTESIAN_POINT('',(-0.00154311120357369,0.0224955519098984,-0.0149224999999813));
#1155=CARTESIAN_POINT('',(-0.00286169764762718,0.0220088033911267,-0.0177252051928031));
#1156=CARTESIAN_POINT('',(-2.54747706188749E-5,0.027438262016654,-0.0149225));
#1157=CARTESIAN_POINT('',(-0.00296686782815539,0.0263524638724824,-0.0149225));
#1158=CARTESIAN_POINT('',(-0.0042854542722149,0.0258657153537078,-0.0177252051928135));
#1159=MECHANICAL_DESIGN_GEOMETRIC_PRESENTATION_REPRESENTATION('',(#523),
#1160);
#1160=(
GEOMETRIC_REPRESENTATION_CONTEXT(3)
GLOBAL_UNCERTAINTY_ASSIGNED_CONTEXT((#1161))
GLOBAL_UNIT_ASSIGNED_CONTEXT((#1164,#1163,#1162))
REPRESENTATION_CONTEXT('Tail Bouy Mast','TOP_LEVEL_ASSEMBLY_PART')
);
#1161=UNCERTAINTY_MEASURE_WITH_UNIT(LENGTH_MEASURE(2.E-5),#1164,
'DISTANCE_ACCURACY_VALUE','Maximum Tolerance applied to model');
#1162=(
NAMED_UNIT(*)
SI_UNIT($,.STERADIAN.)
SOLID_ANGLE_UNIT()
);
#1163=(
NAMED_UNIT(*)
PLANE_ANGLE_UNIT()
SI_UNIT($,.RADIAN.)
);
#1164=(
LENGTH_UNIT()
NAMED_UNIT(*)
SI_UNIT($,.METRE.)
);
#1165=PRODUCT_DEFINITION_SHAPE('','',#1166);
#1166=PRODUCT_DEFINITION('','',#1168,#1167);
#1167=PRODUCT_DEFINITION_CONTEXT('',#1174,'design');
#1168=PRODUCT_DEFINITION_FORMATION_WITH_SPECIFIED_SOURCE('','',#1170,
 .NOT_KNOWN.);
#1169=PRODUCT_RELATED_PRODUCT_CATEGORY('','',(#1170));
#1170=PRODUCT('Tail Bouy Mast','Tail Bouy Mast','Tail Bouy Mast',(#1172));
#1171=PRODUCT_CATEGORY('','');
#1172=PRODUCT_CONTEXT('',#1174,'mechanical');
#1173=APPLICATION_PROTOCOL_DEFINITION('international standard',
'ap242_managed_model_based_3d_engineering',2020,#1174);
#1174=APPLICATION_CONTEXT('managed model based 3d engineering');
ENDSEC;
END-ISO-10303-21;
