ISO-10303-21;
HEADER;
/* Generated by software containing ST-Developer
 * from STEP Tools, Inc. (www.steptools.com) 
 */
/* OPTION: using custom renumber hook */

FILE_DESCRIPTION(
/* description */ ('STEP AP242 Edition 2',
'CAx-IF Rec.Pracs.---Representation and Presentation of Product Manufa
cturing Information (PMI)---4.0---2014-10-13',
'CAx-IF Rec.Pracs.---3D Tessellated Geometry---0.4---2014-09-14','2;1',
'CAx-IF Rec.Pracs.---User Defined Attributes---1.5---2016-08-15'),
/* implementation_level */ '2;1');

FILE_NAME(
/* name */ 'Rear Landing Gear - Foam Block',
/* time_stamp */ '2026-08-24T02:45:42Z',
/* author */ (''),
/* organization */ (''),
/* preprocessor_version */ 'ST-DEVELOPER v20',
/* originating_system */ 'ONSHAPE BY PTC INC, 1.219',
/* authorisation */ '  ');

FILE_SCHEMA (('AP242_MANAGED_MODEL_BASED_3D_ENGINEERING_MIM_LF { 1 0 10303 442 3 1 4 }'));
ENDSEC;

DATA;
#10=SHAPE_REPRESENTATION_RELATIONSHIP('','',#766,#11);
#11=ADVANCED_BREP_SHAPE_REPRESENTATION('',(#764),#1388);
#12=B_SPLINE_SURFACE_WITH_KNOTS('',3,1,((#1336,#1337),(#1338,#1339),(#1340,
#1341),(#1342,#1343),(#1344,#1345),(#1346,#1347),(#1348,#1349),(#1350,#1351)),
 .SURF_OF_LINEAR_EXTRUSION.,.F.,.F.,.F.,(4,1,1,1,1,4),(2,2),(0.,0.25,0.375,
0.5,0.75,1.),(0.,1.),.UNSPECIFIED.);
#13=B_SPLINE_SURFACE_WITH_KNOTS('',3,1,((#1365,#1366),(#1367,#1368),(#1369,
#1370),(#1371,#1372),(#1373,#1374),(#1375,#1376),(#1377,#1378),(#1379,#1380)),
 .SURF_OF_LINEAR_EXTRUSION.,.F.,.F.,.F.,(4,1,1,1,1,4),(2,2),(0.,0.25,0.375,
0.5,0.75,1.),(0.,1.),.UNSPECIFIED.);
#14=SPHERICAL_SURFACE('',#782,0.00508);
#15=SPHERICAL_SURFACE('',#785,0.00508);
#16=SPHERICAL_SURFACE('',#799,0.00508);
#17=SPHERICAL_SURFACE('',#802,0.00508);
#18=SPHERICAL_SURFACE('',#804,0.00508);
#19=SPHERICAL_SURFACE('',#806,0.00508);
#20=SPHERICAL_SURFACE('',#821,0.00508);
#21=SPHERICAL_SURFACE('',#824,0.00508);
#22=SPHERICAL_SURFACE('',#826,0.00508);
#23=SPHERICAL_SURFACE('',#828,0.00508);
#24=SPHERICAL_SURFACE('',#846,0.00508);
#25=SPHERICAL_SURFACE('',#848,0.00508);
#26=SPHERICAL_SURFACE('',#850,0.00508);
#27=SPHERICAL_SURFACE('',#852,0.00508);
#28=SPHERICAL_SURFACE('',#862,0.00508);
#29=SPHERICAL_SURFACE('',#864,0.00508);
#30=CYLINDRICAL_SURFACE('',#779,0.00508);
#31=CYLINDRICAL_SURFACE('',#788,0.00508);
#32=CYLINDRICAL_SURFACE('',#790,0.00508);
#33=CYLINDRICAL_SURFACE('',#792,0.00508);
#34=CYLINDRICAL_SURFACE('',#795,0.00508);
#35=CYLINDRICAL_SURFACE('',#797,0.00508);
#36=CYLINDRICAL_SURFACE('',#809,0.00508);
#37=CYLINDRICAL_SURFACE('',#811,0.00508);
#38=CYLINDRICAL_SURFACE('',#813,0.00508);
#39=CYLINDRICAL_SURFACE('',#815,0.00508);
#40=CYLINDRICAL_SURFACE('',#817,0.00508);
#41=CYLINDRICAL_SURFACE('',#819,0.00508);
#42=CYLINDRICAL_SURFACE('',#831,0.00508);
#43=CYLINDRICAL_SURFACE('',#833,0.00508);
#44=CYLINDRICAL_SURFACE('',#835,0.00508);
#45=CYLINDRICAL_SURFACE('',#837,0.00508);
#46=CYLINDRICAL_SURFACE('',#839,0.00508);
#47=CYLINDRICAL_SURFACE('',#841,0.00508);
#48=CYLINDRICAL_SURFACE('',#843,0.00508);
#49=CYLINDRICAL_SURFACE('',#854,0.00508);
#50=CYLINDRICAL_SURFACE('',#856,0.00508);
#51=CYLINDRICAL_SURFACE('',#858,0.00508);
#52=CYLINDRICAL_SURFACE('',#860,0.00508);
#53=CYLINDRICAL_SURFACE('',#866,0.00508);
#54=CYLINDRICAL_SURFACE('',#867,0.00635);
#55=CIRCLE('',#769,0.00635);
#56=CIRCLE('',#780,0.00508);
#57=CIRCLE('',#781,0.00508);
#58=CIRCLE('',#783,0.00508);
#59=CIRCLE('',#784,0.00508);
#60=CIRCLE('',#786,0.00508);
#61=CIRCLE('',#787,0.00508);
#62=CIRCLE('',#789,0.00508);
#63=CIRCLE('',#791,0.00508);
#64=CIRCLE('',#793,0.00508);
#65=CIRCLE('',#794,0.00508);
#66=CIRCLE('',#796,0.00508);
#67=CIRCLE('',#798,0.00508);
#68=CIRCLE('',#800,0.00508);
#69=CIRCLE('',#801,0.00508);
#70=CIRCLE('',#803,0.00508);
#71=CIRCLE('',#805,0.00508);
#72=CIRCLE('',#807,0.00508);
#73=CIRCLE('',#808,0.00508);
#74=CIRCLE('',#810,0.00508);
#75=CIRCLE('',#812,0.00508);
#76=CIRCLE('',#814,0.00508);
#77=CIRCLE('',#816,0.00508);
#78=CIRCLE('',#818,0.00508);
#79=CIRCLE('',#820,0.00508);
#80=CIRCLE('',#822,0.00508);
#81=CIRCLE('',#823,0.00508);
#82=CIRCLE('',#825,0.00508);
#83=CIRCLE('',#827,0.00508);
#84=CIRCLE('',#829,0.00508);
#85=CIRCLE('',#830,0.00508);
#86=CIRCLE('',#832,0.00508);
#87=CIRCLE('',#834,0.00508);
#88=CIRCLE('',#836,0.00508);
#89=CIRCLE('',#838,0.00508);
#90=CIRCLE('',#840,0.00508);
#91=CIRCLE('',#842,0.00508);
#92=CIRCLE('',#844,0.00508);
#93=CIRCLE('',#845,0.00508);
#94=CIRCLE('',#847,0.00508);
#95=CIRCLE('',#849,0.00508);
#96=CIRCLE('',#851,0.00508);
#97=CIRCLE('',#853,0.00508);
#98=CIRCLE('',#855,0.00508);
#99=CIRCLE('',#857,0.00508);
#100=CIRCLE('',#859,0.00508);
#101=CIRCLE('',#861,0.00508);
#102=CIRCLE('',#863,0.00508);
#103=CIRCLE('',#865,0.00508);
#104=CIRCLE('',#868,0.00635);
#105=B_SPLINE_CURVE_WITH_KNOTS('',3,(#1145,#1146,#1147,#1148,#1149),
 .UNSPECIFIED.,.F.,.F.,(4,1,4),(0.,0.430032684254583,1.),.UNSPECIFIED.);
#106=B_SPLINE_CURVE_WITH_KNOTS('',3,(#1152,#1153,#1154,#1155,#1156),
 .UNSPECIFIED.,.F.,.F.,(4,1,4),(0.,0.430032684254583,1.),.UNSPECIFIED.);
#107=B_SPLINE_CURVE_WITH_KNOTS('',3,(#1354,#1355,#1356,#1357,#1358),
 .UNSPECIFIED.,.F.,.F.,(4,1,4),(0.,0.430032684254583,1.),.UNSPECIFIED.);
#108=B_SPLINE_CURVE_WITH_KNOTS('',3,(#1381,#1382,#1383,#1384,#1385),
 .UNSPECIFIED.,.F.,.F.,(4,1,4),(0.,0.430032684254583,1.),.UNSPECIFIED.);
#109=ORIENTED_EDGE('',*,*,#319,.T.);
#110=ORIENTED_EDGE('',*,*,#320,.T.);
#111=ORIENTED_EDGE('',*,*,#321,.T.);
#112=ORIENTED_EDGE('',*,*,#322,.T.);
#113=ORIENTED_EDGE('',*,*,#323,.T.);
#114=ORIENTED_EDGE('',*,*,#324,.T.);
#115=ORIENTED_EDGE('',*,*,#325,.T.);
#116=ORIENTED_EDGE('',*,*,#326,.T.);
#117=ORIENTED_EDGE('',*,*,#327,.F.);
#118=ORIENTED_EDGE('',*,*,#328,.T.);
#119=ORIENTED_EDGE('',*,*,#329,.T.);
#120=ORIENTED_EDGE('',*,*,#330,.T.);
#121=ORIENTED_EDGE('',*,*,#331,.T.);
#122=ORIENTED_EDGE('',*,*,#332,.T.);
#123=ORIENTED_EDGE('',*,*,#333,.T.);
#124=ORIENTED_EDGE('',*,*,#334,.T.);
#125=ORIENTED_EDGE('',*,*,#335,.T.);
#126=ORIENTED_EDGE('',*,*,#336,.T.);
#127=ORIENTED_EDGE('',*,*,#337,.T.);
#128=ORIENTED_EDGE('',*,*,#338,.T.);
#129=ORIENTED_EDGE('',*,*,#339,.T.);
#130=ORIENTED_EDGE('',*,*,#340,.T.);
#131=ORIENTED_EDGE('',*,*,#341,.T.);
#132=ORIENTED_EDGE('',*,*,#342,.T.);
#133=ORIENTED_EDGE('',*,*,#343,.T.);
#134=ORIENTED_EDGE('',*,*,#344,.T.);
#135=ORIENTED_EDGE('',*,*,#345,.T.);
#136=ORIENTED_EDGE('',*,*,#346,.T.);
#137=ORIENTED_EDGE('',*,*,#347,.T.);
#138=ORIENTED_EDGE('',*,*,#348,.T.);
#139=ORIENTED_EDGE('',*,*,#349,.T.);
#140=ORIENTED_EDGE('',*,*,#350,.T.);
#141=ORIENTED_EDGE('',*,*,#351,.T.);
#142=ORIENTED_EDGE('',*,*,#352,.T.);
#143=ORIENTED_EDGE('',*,*,#353,.T.);
#144=ORIENTED_EDGE('',*,*,#354,.T.);
#145=ORIENTED_EDGE('',*,*,#355,.T.);
#146=ORIENTED_EDGE('',*,*,#356,.T.);
#147=ORIENTED_EDGE('',*,*,#357,.T.);
#148=ORIENTED_EDGE('',*,*,#358,.T.);
#149=ORIENTED_EDGE('',*,*,#359,.T.);
#150=ORIENTED_EDGE('',*,*,#360,.T.);
#151=ORIENTED_EDGE('',*,*,#361,.T.);
#152=ORIENTED_EDGE('',*,*,#362,.T.);
#153=ORIENTED_EDGE('',*,*,#363,.T.);
#154=ORIENTED_EDGE('',*,*,#364,.T.);
#155=ORIENTED_EDGE('',*,*,#365,.T.);
#156=ORIENTED_EDGE('',*,*,#366,.T.);
#157=ORIENTED_EDGE('',*,*,#367,.T.);
#158=ORIENTED_EDGE('',*,*,#368,.T.);
#159=ORIENTED_EDGE('',*,*,#369,.T.);
#160=ORIENTED_EDGE('',*,*,#370,.F.);
#161=ORIENTED_EDGE('',*,*,#359,.F.);
#162=ORIENTED_EDGE('',*,*,#371,.F.);
#163=ORIENTED_EDGE('',*,*,#325,.F.);
#164=ORIENTED_EDGE('',*,*,#372,.F.);
#165=ORIENTED_EDGE('',*,*,#370,.T.);
#166=ORIENTED_EDGE('',*,*,#373,.F.);
#167=ORIENTED_EDGE('',*,*,#374,.F.);
#168=ORIENTED_EDGE('',*,*,#371,.T.);
#169=ORIENTED_EDGE('',*,*,#375,.F.);
#170=ORIENTED_EDGE('',*,*,#373,.T.);
#171=ORIENTED_EDGE('',*,*,#324,.F.);
#172=ORIENTED_EDGE('',*,*,#376,.F.);
#173=ORIENTED_EDGE('',*,*,#330,.F.);
#174=ORIENTED_EDGE('',*,*,#372,.T.);
#175=ORIENTED_EDGE('',*,*,#333,.F.);
#176=ORIENTED_EDGE('',*,*,#377,.F.);
#177=ORIENTED_EDGE('',*,*,#360,.F.);
#178=ORIENTED_EDGE('',*,*,#378,.F.);
#179=ORIENTED_EDGE('',*,*,#361,.F.);
#180=ORIENTED_EDGE('',*,*,#379,.F.);
#181=ORIENTED_EDGE('',*,*,#342,.F.);
#182=ORIENTED_EDGE('',*,*,#375,.T.);
#183=ORIENTED_EDGE('',*,*,#358,.F.);
#184=ORIENTED_EDGE('',*,*,#380,.F.);
#185=ORIENTED_EDGE('',*,*,#353,.F.);
#186=ORIENTED_EDGE('',*,*,#374,.T.);
#187=ORIENTED_EDGE('',*,*,#352,.F.);
#188=ORIENTED_EDGE('',*,*,#381,.F.);
#189=ORIENTED_EDGE('',*,*,#326,.F.);
#190=ORIENTED_EDGE('',*,*,#382,.F.);
#191=ORIENTED_EDGE('',*,*,#376,.T.);
#192=ORIENTED_EDGE('',*,*,#383,.F.);
#193=ORIENTED_EDGE('',*,*,#379,.T.);
#194=ORIENTED_EDGE('',*,*,#377,.T.);
#195=ORIENTED_EDGE('',*,*,#384,.F.);
#196=ORIENTED_EDGE('',*,*,#380,.T.);
#197=ORIENTED_EDGE('',*,*,#378,.T.);
#198=ORIENTED_EDGE('',*,*,#385,.F.);
#199=ORIENTED_EDGE('',*,*,#386,.F.);
#200=ORIENTED_EDGE('',*,*,#381,.T.);
#201=ORIENTED_EDGE('',*,*,#387,.F.);
#202=ORIENTED_EDGE('',*,*,#383,.T.);
#203=ORIENTED_EDGE('',*,*,#323,.F.);
#204=ORIENTED_EDGE('',*,*,#388,.F.);
#205=ORIENTED_EDGE('',*,*,#368,.F.);
#206=ORIENTED_EDGE('',*,*,#382,.T.);
#207=ORIENTED_EDGE('',*,*,#367,.F.);
#208=ORIENTED_EDGE('',*,*,#389,.F.);
#209=ORIENTED_EDGE('',*,*,#331,.F.);
#210=ORIENTED_EDGE('',*,*,#384,.T.);
#211=ORIENTED_EDGE('',*,*,#332,.F.);
#212=ORIENTED_EDGE('',*,*,#390,.F.);
#213=ORIENTED_EDGE('',*,*,#343,.F.);
#214=ORIENTED_EDGE('',*,*,#385,.T.);
#215=ORIENTED_EDGE('',*,*,#341,.F.);
#216=ORIENTED_EDGE('',*,*,#391,.F.);
#217=ORIENTED_EDGE('',*,*,#350,.F.);
#218=ORIENTED_EDGE('',*,*,#387,.T.);
#219=ORIENTED_EDGE('',*,*,#351,.F.);
#220=ORIENTED_EDGE('',*,*,#392,.F.);
#221=ORIENTED_EDGE('',*,*,#357,.F.);
#222=ORIENTED_EDGE('',*,*,#386,.T.);
#223=ORIENTED_EDGE('',*,*,#356,.F.);
#224=ORIENTED_EDGE('',*,*,#393,.F.);
#225=ORIENTED_EDGE('',*,*,#319,.F.);
#226=ORIENTED_EDGE('',*,*,#394,.F.);
#227=ORIENTED_EDGE('',*,*,#388,.T.);
#228=ORIENTED_EDGE('',*,*,#395,.F.);
#229=ORIENTED_EDGE('',*,*,#390,.T.);
#230=ORIENTED_EDGE('',*,*,#389,.T.);
#231=ORIENTED_EDGE('',*,*,#396,.F.);
#232=ORIENTED_EDGE('',*,*,#392,.T.);
#233=ORIENTED_EDGE('',*,*,#391,.T.);
#234=ORIENTED_EDGE('',*,*,#397,.F.);
#235=ORIENTED_EDGE('',*,*,#398,.F.);
#236=ORIENTED_EDGE('',*,*,#393,.T.);
#237=ORIENTED_EDGE('',*,*,#399,.F.);
#238=ORIENTED_EDGE('',*,*,#395,.T.);
#239=ORIENTED_EDGE('',*,*,#322,.F.);
#240=ORIENTED_EDGE('',*,*,#400,.F.);
#241=ORIENTED_EDGE('',*,*,#346,.F.);
#242=ORIENTED_EDGE('',*,*,#394,.T.);
#243=ORIENTED_EDGE('',*,*,#349,.F.);
#244=ORIENTED_EDGE('',*,*,#401,.F.);
#245=ORIENTED_EDGE('',*,*,#369,.F.);
#246=ORIENTED_EDGE('',*,*,#396,.T.);
#247=ORIENTED_EDGE('',*,*,#366,.F.);
#248=ORIENTED_EDGE('',*,*,#402,.F.);
#249=ORIENTED_EDGE('',*,*,#344,.F.);
#250=ORIENTED_EDGE('',*,*,#397,.T.);
#251=ORIENTED_EDGE('',*,*,#340,.F.);
#252=ORIENTED_EDGE('',*,*,#403,.F.);
#253=ORIENTED_EDGE('',*,*,#354,.F.);
#254=ORIENTED_EDGE('',*,*,#399,.T.);
#255=ORIENTED_EDGE('',*,*,#355,.F.);
#256=ORIENTED_EDGE('',*,*,#404,.F.);
#257=ORIENTED_EDGE('',*,*,#335,.F.);
#258=ORIENTED_EDGE('',*,*,#398,.T.);
#259=ORIENTED_EDGE('',*,*,#334,.F.);
#260=ORIENTED_EDGE('',*,*,#405,.F.);
#261=ORIENTED_EDGE('',*,*,#320,.F.);
#262=ORIENTED_EDGE('',*,*,#406,.F.);
#263=ORIENTED_EDGE('',*,*,#321,.F.);
#264=ORIENTED_EDGE('',*,*,#407,.F.);
#265=ORIENTED_EDGE('',*,*,#362,.F.);
#266=ORIENTED_EDGE('',*,*,#400,.T.);
#267=ORIENTED_EDGE('',*,*,#406,.T.);
#268=ORIENTED_EDGE('',*,*,#408,.F.);
#269=ORIENTED_EDGE('',*,*,#402,.T.);
#270=ORIENTED_EDGE('',*,*,#401,.T.);
#271=ORIENTED_EDGE('',*,*,#409,.F.);
#272=ORIENTED_EDGE('',*,*,#404,.T.);
#273=ORIENTED_EDGE('',*,*,#403,.T.);
#274=ORIENTED_EDGE('',*,*,#410,.F.);
#275=ORIENTED_EDGE('',*,*,#407,.T.);
#276=ORIENTED_EDGE('',*,*,#405,.T.);
#277=ORIENTED_EDGE('',*,*,#411,.F.);
#278=ORIENTED_EDGE('',*,*,#408,.T.);
#279=ORIENTED_EDGE('',*,*,#365,.F.);
#280=ORIENTED_EDGE('',*,*,#412,.F.);
#281=ORIENTED_EDGE('',*,*,#347,.F.);
#282=ORIENTED_EDGE('',*,*,#409,.T.);
#283=ORIENTED_EDGE('',*,*,#348,.F.);
#284=ORIENTED_EDGE('',*,*,#413,.F.);
#285=ORIENTED_EDGE('',*,*,#345,.F.);
#286=ORIENTED_EDGE('',*,*,#410,.T.);
#287=ORIENTED_EDGE('',*,*,#339,.F.);
#288=ORIENTED_EDGE('',*,*,#414,.F.);
#289=ORIENTED_EDGE('',*,*,#336,.F.);
#290=ORIENTED_EDGE('',*,*,#411,.T.);
#291=ORIENTED_EDGE('',*,*,#337,.F.);
#292=ORIENTED_EDGE('',*,*,#415,.F.);
#293=ORIENTED_EDGE('',*,*,#363,.F.);
#294=ORIENTED_EDGE('',*,*,#413,.T.);
#295=ORIENTED_EDGE('',*,*,#412,.T.);
#296=ORIENTED_EDGE('',*,*,#416,.F.);
#297=ORIENTED_EDGE('',*,*,#415,.T.);
#298=ORIENTED_EDGE('',*,*,#414,.T.);
#299=ORIENTED_EDGE('',*,*,#417,.F.);
#300=ORIENTED_EDGE('',*,*,#416,.T.);
#301=ORIENTED_EDGE('',*,*,#364,.F.);
#302=ORIENTED_EDGE('',*,*,#417,.T.);
#303=ORIENTED_EDGE('',*,*,#338,.F.);
#304=ORIENTED_EDGE('',*,*,#327,.T.);
#305=ORIENTED_EDGE('',*,*,#418,.F.);
#306=ORIENTED_EDGE('',*,*,#419,.T.);
#307=ORIENTED_EDGE('',*,*,#420,.T.);
#308=ORIENTED_EDGE('',*,*,#421,.F.);
#309=ORIENTED_EDGE('',*,*,#422,.F.);
#310=ORIENTED_EDGE('',*,*,#418,.T.);
#311=ORIENTED_EDGE('',*,*,#329,.F.);
#312=ORIENTED_EDGE('',*,*,#420,.F.);
#313=ORIENTED_EDGE('',*,*,#423,.F.);
#314=ORIENTED_EDGE('',*,*,#421,.T.);
#315=ORIENTED_EDGE('',*,*,#328,.F.);
#316=ORIENTED_EDGE('',*,*,#419,.F.);
#317=ORIENTED_EDGE('',*,*,#422,.T.);
#318=ORIENTED_EDGE('',*,*,#423,.T.);
#319=EDGE_CURVE('',#424,#425,#478,.T.);
#320=EDGE_CURVE('',#425,#426,#479,.F.);
#321=EDGE_CURVE('',#426,#427,#480,.F.);
#322=EDGE_CURVE('',#427,#428,#481,.F.);
#323=EDGE_CURVE('',#428,#429,#482,.T.);
#324=EDGE_CURVE('',#429,#430,#483,.T.);
#325=EDGE_CURVE('',#430,#431,#484,.F.);
#326=EDGE_CURVE('',#431,#424,#485,.T.);
#327=EDGE_CURVE('',#432,#433,#105,.F.);
#328=EDGE_CURVE('',#432,#434,#106,.F.);
#329=EDGE_CURVE('',#434,#433,#55,.T.);
#330=EDGE_CURVE('',#435,#436,#486,.F.);
#331=EDGE_CURVE('',#436,#437,#487,.T.);
#332=EDGE_CURVE('',#437,#438,#488,.T.);
#333=EDGE_CURVE('',#438,#435,#489,.F.);
#334=EDGE_CURVE('',#439,#440,#490,.T.);
#335=EDGE_CURVE('',#440,#441,#491,.T.);
#336=EDGE_CURVE('',#441,#442,#492,.F.);
#337=EDGE_CURVE('',#442,#439,#493,.F.);
#338=EDGE_CURVE('',#443,#444,#494,.F.);
#339=EDGE_CURVE('',#444,#445,#495,.T.);
#340=EDGE_CURVE('',#445,#446,#496,.T.);
#341=EDGE_CURVE('',#446,#447,#497,.F.);
#342=EDGE_CURVE('',#447,#448,#498,.F.);
#343=EDGE_CURVE('',#448,#449,#499,.F.);
#344=EDGE_CURVE('',#449,#450,#500,.T.);
#345=EDGE_CURVE('',#450,#443,#501,.T.);
#346=EDGE_CURVE('',#451,#452,#502,.T.);
#347=EDGE_CURVE('',#452,#453,#503,.F.);
#348=EDGE_CURVE('',#453,#454,#504,.F.);
#349=EDGE_CURVE('',#454,#451,#505,.T.);
#350=EDGE_CURVE('',#455,#456,#506,.T.);
#351=EDGE_CURVE('',#456,#457,#507,.T.);
#352=EDGE_CURVE('',#457,#458,#508,.F.);
#353=EDGE_CURVE('',#458,#455,#509,.F.);
#354=EDGE_CURVE('',#459,#460,#510,.F.);
#355=EDGE_CURVE('',#460,#461,#511,.F.);
#356=EDGE_CURVE('',#461,#462,#512,.F.);
#357=EDGE_CURVE('',#462,#459,#513,.F.);
#358=EDGE_CURVE('',#463,#464,#514,.F.);
#359=EDGE_CURVE('',#464,#465,#515,.F.);
#360=EDGE_CURVE('',#465,#466,#516,.F.);
#361=EDGE_CURVE('',#466,#463,#517,.F.);
#362=EDGE_CURVE('',#467,#468,#518,.F.);
#363=EDGE_CURVE('',#468,#469,#519,.F.);
#364=EDGE_CURVE('',#469,#470,#520,.F.);
#365=EDGE_CURVE('',#470,#467,#521,.F.);
#366=EDGE_CURVE('',#471,#472,#522,.F.);
#367=EDGE_CURVE('',#472,#473,#523,.F.);
#368=EDGE_CURVE('',#473,#474,#524,.F.);
#369=EDGE_CURVE('',#474,#471,#525,.F.);
#370=EDGE_CURVE('',#465,#430,#56,.T.);
#371=EDGE_CURVE('',#431,#464,#57,.T.);
#372=EDGE_CURVE('',#465,#435,#58,.F.);
#373=EDGE_CURVE('',#435,#430,#59,.F.);
#374=EDGE_CURVE('',#431,#458,#60,.F.);
#375=EDGE_CURVE('',#458,#464,#61,.F.);
#376=EDGE_CURVE('',#436,#429,#62,.T.);
#377=EDGE_CURVE('',#466,#438,#63,.T.);
#378=EDGE_CURVE('',#463,#447,#64,.T.);
#379=EDGE_CURVE('',#448,#466,#65,.T.);
#380=EDGE_CURVE('',#455,#463,#66,.T.);
#381=EDGE_CURVE('',#424,#457,#67,.T.);
#382=EDGE_CURVE('',#436,#473,#68,.F.);
#383=EDGE_CURVE('',#473,#429,#69,.F.);
#384=EDGE_CURVE('',#448,#438,#70,.F.);
#385=EDGE_CURVE('',#455,#447,#71,.F.);
#386=EDGE_CURVE('',#424,#462,#72,.F.);
#387=EDGE_CURVE('',#462,#457,#73,.F.);
#388=EDGE_CURVE('',#474,#428,#74,.T.);
#389=EDGE_CURVE('',#437,#472,#75,.T.);
#390=EDGE_CURVE('',#449,#437,#76,.T.);
#391=EDGE_CURVE('',#456,#446,#77,.T.);
#392=EDGE_CURVE('',#459,#456,#78,.T.);
#393=EDGE_CURVE('',#425,#461,#79,.T.);
#394=EDGE_CURVE('',#474,#451,#80,.F.);
#395=EDGE_CURVE('',#451,#428,#81,.F.);
#396=EDGE_CURVE('',#449,#472,#82,.F.);
#397=EDGE_CURVE('',#459,#446,#83,.F.);
#398=EDGE_CURVE('',#425,#440,#84,.F.);
#399=EDGE_CURVE('',#440,#461,#85,.F.);
#400=EDGE_CURVE('',#452,#427,#86,.T.);
#401=EDGE_CURVE('',#471,#454,#87,.T.);
#402=EDGE_CURVE('',#450,#471,#88,.T.);
#403=EDGE_CURVE('',#460,#445,#89,.T.);
#404=EDGE_CURVE('',#441,#460,#90,.T.);
#405=EDGE_CURVE('',#426,#439,#91,.T.);
#406=EDGE_CURVE('',#427,#467,#92,.T.);
#407=EDGE_CURVE('',#468,#426,#93,.T.);
#408=EDGE_CURVE('',#452,#467,#94,.F.);
#409=EDGE_CURVE('',#450,#454,#95,.F.);
#410=EDGE_CURVE('',#441,#445,#96,.F.);
#411=EDGE_CURVE('',#468,#439,#97,.F.);
#412=EDGE_CURVE('',#453,#470,#98,.T.);
#413=EDGE_CURVE('',#443,#453,#99,.T.);
#414=EDGE_CURVE('',#442,#444,#100,.T.);
#415=EDGE_CURVE('',#469,#442,#101,.T.);
#416=EDGE_CURVE('',#443,#470,#102,.F.);
#417=EDGE_CURVE('',#469,#444,#103,.F.);
#418=EDGE_CURVE('',#475,#433,#526,.T.);
#419=EDGE_CURVE('',#475,#476,#107,.T.);
#420=EDGE_CURVE('',#476,#432,#527,.T.);
#421=EDGE_CURVE('',#477,#434,#528,.T.);
#422=EDGE_CURVE('',#475,#477,#104,.T.);
#423=EDGE_CURVE('',#477,#476,#108,.T.);
#424=VERTEX_POINT('',#1130);
#425=VERTEX_POINT('',#1131);
#426=VERTEX_POINT('',#1133);
#427=VERTEX_POINT('',#1135);
#428=VERTEX_POINT('',#1137);
#429=VERTEX_POINT('',#1139);
#430=VERTEX_POINT('',#1141);
#431=VERTEX_POINT('',#1143);
#432=VERTEX_POINT('',#1150);
#433=VERTEX_POINT('',#1151);
#434=VERTEX_POINT('',#1157);
#435=VERTEX_POINT('',#1161);
#436=VERTEX_POINT('',#1162);
#437=VERTEX_POINT('',#1164);
#438=VERTEX_POINT('',#1166);
#439=VERTEX_POINT('',#1170);
#440=VERTEX_POINT('',#1171);
#441=VERTEX_POINT('',#1173);
#442=VERTEX_POINT('',#1175);
#443=VERTEX_POINT('',#1179);
#444=VERTEX_POINT('',#1180);
#445=VERTEX_POINT('',#1182);
#446=VERTEX_POINT('',#1184);
#447=VERTEX_POINT('',#1186);
#448=VERTEX_POINT('',#1188);
#449=VERTEX_POINT('',#1190);
#450=VERTEX_POINT('',#1192);
#451=VERTEX_POINT('',#1196);
#452=VERTEX_POINT('',#1197);
#453=VERTEX_POINT('',#1199);
#454=VERTEX_POINT('',#1201);
#455=VERTEX_POINT('',#1205);
#456=VERTEX_POINT('',#1206);
#457=VERTEX_POINT('',#1208);
#458=VERTEX_POINT('',#1210);
#459=VERTEX_POINT('',#1214);
#460=VERTEX_POINT('',#1215);
#461=VERTEX_POINT('',#1217);
#462=VERTEX_POINT('',#1219);
#463=VERTEX_POINT('',#1223);
#464=VERTEX_POINT('',#1224);
#465=VERTEX_POINT('',#1226);
#466=VERTEX_POINT('',#1228);
#467=VERTEX_POINT('',#1232);
#468=VERTEX_POINT('',#1233);
#469=VERTEX_POINT('',#1235);
#470=VERTEX_POINT('',#1237);
#471=VERTEX_POINT('',#1241);
#472=VERTEX_POINT('',#1242);
#473=VERTEX_POINT('',#1244);
#474=VERTEX_POINT('',#1246);
#475=VERTEX_POINT('',#1353);
#476=VERTEX_POINT('',#1359);
#477=VERTEX_POINT('',#1363);
#478=LINE('',#1129,#529);
#479=LINE('',#1132,#530);
#480=LINE('',#1134,#531);
#481=LINE('',#1136,#532);
#482=LINE('',#1138,#533);
#483=LINE('',#1140,#534);
#484=LINE('',#1142,#535);
#485=LINE('',#1144,#536);
#486=LINE('',#1160,#537);
#487=LINE('',#1163,#538);
#488=LINE('',#1165,#539);
#489=LINE('',#1167,#540);
#490=LINE('',#1169,#541);
#491=LINE('',#1172,#542);
#492=LINE('',#1174,#543);
#493=LINE('',#1176,#544);
#494=LINE('',#1178,#545);
#495=LINE('',#1181,#546);
#496=LINE('',#1183,#547);
#497=LINE('',#1185,#548);
#498=LINE('',#1187,#549);
#499=LINE('',#1189,#550);
#500=LINE('',#1191,#551);
#501=LINE('',#1193,#552);
#502=LINE('',#1195,#553);
#503=LINE('',#1198,#554);
#504=LINE('',#1200,#555);
#505=LINE('',#1202,#556);
#506=LINE('',#1204,#557);
#507=LINE('',#1207,#558);
#508=LINE('',#1209,#559);
#509=LINE('',#1211,#560);
#510=LINE('',#1213,#561);
#511=LINE('',#1216,#562);
#512=LINE('',#1218,#563);
#513=LINE('',#1220,#564);
#514=LINE('',#1222,#565);
#515=LINE('',#1225,#566);
#516=LINE('',#1227,#567);
#517=LINE('',#1229,#568);
#518=LINE('',#1231,#569);
#519=LINE('',#1234,#570);
#520=LINE('',#1236,#571);
#521=LINE('',#1238,#572);
#522=LINE('',#1240,#573);
#523=LINE('',#1243,#574);
#524=LINE('',#1245,#575);
#525=LINE('',#1247,#576);
#526=LINE('',#1352,#577);
#527=LINE('',#1360,#578);
#528=LINE('',#1362,#579);
#529=VECTOR('',#874,1.);
#530=VECTOR('',#875,1.);
#531=VECTOR('',#876,1.);
#532=VECTOR('',#877,1.);
#533=VECTOR('',#878,1.);
#534=VECTOR('',#879,1.);
#535=VECTOR('',#880,1.);
#536=VECTOR('',#881,1.);
#537=VECTOR('',#886,1.);
#538=VECTOR('',#887,1.);
#539=VECTOR('',#888,1.);
#540=VECTOR('',#889,1.);
#541=VECTOR('',#892,1.);
#542=VECTOR('',#893,1.);
#543=VECTOR('',#894,1.);
#544=VECTOR('',#895,1.);
#545=VECTOR('',#898,1.);
#546=VECTOR('',#899,1.);
#547=VECTOR('',#900,1.);
#548=VECTOR('',#901,1.);
#549=VECTOR('',#902,1.);
#550=VECTOR('',#903,1.);
#551=VECTOR('',#904,1.);
#552=VECTOR('',#905,1.);
#553=VECTOR('',#908,1.);
#554=VECTOR('',#909,1.);
#555=VECTOR('',#910,1.);
#556=VECTOR('',#911,1.);
#557=VECTOR('',#914,1.);
#558=VECTOR('',#915,1.);
#559=VECTOR('',#916,1.);
#560=VECTOR('',#917,1.);
#561=VECTOR('',#920,1.);
#562=VECTOR('',#921,1.);
#563=VECTOR('',#922,1.);
#564=VECTOR('',#923,1.);
#565=VECTOR('',#926,1.);
#566=VECTOR('',#927,1.);
#567=VECTOR('',#928,1.);
#568=VECTOR('',#929,1.);
#569=VECTOR('',#932,1.);
#570=VECTOR('',#933,1.);
#571=VECTOR('',#934,1.);
#572=VECTOR('',#935,1.);
#573=VECTOR('',#938,1.);
#574=VECTOR('',#939,1.);
#575=VECTOR('',#940,1.);
#576=VECTOR('',#941,1.);
#577=VECTOR('',#1118,1.);
#578=VECTOR('',#1119,1.);
#579=VECTOR('',#1122,1.);
#580=EDGE_LOOP('',(#109,#110,#111,#112,#113,#114,#115,#116));
#581=EDGE_LOOP('',(#117,#118,#119));
#582=EDGE_LOOP('',(#120,#121,#122,#123));
#583=EDGE_LOOP('',(#124,#125,#126,#127));
#584=EDGE_LOOP('',(#128,#129,#130,#131,#132,#133,#134,#135));
#585=EDGE_LOOP('',(#136,#137,#138,#139));
#586=EDGE_LOOP('',(#140,#141,#142,#143));
#587=EDGE_LOOP('',(#144,#145,#146,#147));
#588=EDGE_LOOP('',(#148,#149,#150,#151));
#589=EDGE_LOOP('',(#152,#153,#154,#155));
#590=EDGE_LOOP('',(#156,#157,#158,#159));
#591=EDGE_LOOP('',(#160,#161,#162,#163));
#592=EDGE_LOOP('',(#164,#165,#166));
#593=EDGE_LOOP('',(#167,#168,#169));
#594=EDGE_LOOP('',(#170,#171,#172,#173));
#595=EDGE_LOOP('',(#174,#175,#176,#177));
#596=EDGE_LOOP('',(#178,#179,#180,#181));
#597=EDGE_LOOP('',(#182,#183,#184,#185));
#598=EDGE_LOOP('',(#186,#187,#188,#189));
#599=EDGE_LOOP('',(#190,#191,#192));
#600=EDGE_LOOP('',(#193,#194,#195));
#601=EDGE_LOOP('',(#196,#197,#198));
#602=EDGE_LOOP('',(#199,#200,#201));
#603=EDGE_LOOP('',(#202,#203,#204,#205));
#604=EDGE_LOOP('',(#206,#207,#208,#209));
#605=EDGE_LOOP('',(#210,#211,#212,#213));
#606=EDGE_LOOP('',(#214,#215,#216,#217));
#607=EDGE_LOOP('',(#218,#219,#220,#221));
#608=EDGE_LOOP('',(#222,#223,#224,#225));
#609=EDGE_LOOP('',(#226,#227,#228));
#610=EDGE_LOOP('',(#229,#230,#231));
#611=EDGE_LOOP('',(#232,#233,#234));
#612=EDGE_LOOP('',(#235,#236,#237));
#613=EDGE_LOOP('',(#238,#239,#240,#241));
#614=EDGE_LOOP('',(#242,#243,#244,#245));
#615=EDGE_LOOP('',(#246,#247,#248,#249));
#616=EDGE_LOOP('',(#250,#251,#252,#253));
#617=EDGE_LOOP('',(#254,#255,#256,#257));
#618=EDGE_LOOP('',(#258,#259,#260,#261));
#619=EDGE_LOOP('',(#262,#263,#264,#265));
#620=EDGE_LOOP('',(#266,#267,#268));
#621=EDGE_LOOP('',(#269,#270,#271));
#622=EDGE_LOOP('',(#272,#273,#274));
#623=EDGE_LOOP('',(#275,#276,#277));
#624=EDGE_LOOP('',(#278,#279,#280,#281));
#625=EDGE_LOOP('',(#282,#283,#284,#285));
#626=EDGE_LOOP('',(#286,#287,#288,#289));
#627=EDGE_LOOP('',(#290,#291,#292,#293));
#628=EDGE_LOOP('',(#294,#295,#296));
#629=EDGE_LOOP('',(#297,#298,#299));
#630=EDGE_LOOP('',(#300,#301,#302,#303));
#631=EDGE_LOOP('',(#304,#305,#306,#307));
#632=EDGE_LOOP('',(#308,#309,#310,#311));
#633=EDGE_LOOP('',(#312,#313,#314,#315));
#634=EDGE_LOOP('',(#316,#317,#318));
#635=FACE_BOUND('',#580,.T.);
#636=FACE_BOUND('',#581,.T.);
#637=FACE_BOUND('',#582,.T.);
#638=FACE_BOUND('',#583,.T.);
#639=FACE_BOUND('',#584,.T.);
#640=FACE_BOUND('',#585,.T.);
#641=FACE_BOUND('',#586,.T.);
#642=FACE_BOUND('',#587,.T.);
#643=FACE_BOUND('',#588,.T.);
#644=FACE_BOUND('',#589,.T.);
#645=FACE_BOUND('',#590,.T.);
#646=FACE_BOUND('',#591,.T.);
#647=FACE_BOUND('',#592,.T.);
#648=FACE_BOUND('',#593,.T.);
#649=FACE_BOUND('',#594,.T.);
#650=FACE_BOUND('',#595,.T.);
#651=FACE_BOUND('',#596,.T.);
#652=FACE_BOUND('',#597,.T.);
#653=FACE_BOUND('',#598,.T.);
#654=FACE_BOUND('',#599,.T.);
#655=FACE_BOUND('',#600,.T.);
#656=FACE_BOUND('',#601,.T.);
#657=FACE_BOUND('',#602,.T.);
#658=FACE_BOUND('',#603,.T.);
#659=FACE_BOUND('',#604,.T.);
#660=FACE_BOUND('',#605,.T.);
#661=FACE_BOUND('',#606,.T.);
#662=FACE_BOUND('',#607,.T.);
#663=FACE_BOUND('',#608,.T.);
#664=FACE_BOUND('',#609,.T.);
#665=FACE_BOUND('',#610,.T.);
#666=FACE_BOUND('',#611,.T.);
#667=FACE_BOUND('',#612,.T.);
#668=FACE_BOUND('',#613,.T.);
#669=FACE_BOUND('',#614,.T.);
#670=FACE_BOUND('',#615,.T.);
#671=FACE_BOUND('',#616,.T.);
#672=FACE_BOUND('',#617,.T.);
#673=FACE_BOUND('',#618,.T.);
#674=FACE_BOUND('',#619,.T.);
#675=FACE_BOUND('',#620,.T.);
#676=FACE_BOUND('',#621,.T.);
#677=FACE_BOUND('',#622,.T.);
#678=FACE_BOUND('',#623,.T.);
#679=FACE_BOUND('',#624,.T.);
#680=FACE_BOUND('',#625,.T.);
#681=FACE_BOUND('',#626,.T.);
#682=FACE_BOUND('',#627,.T.);
#683=FACE_BOUND('',#628,.T.);
#684=FACE_BOUND('',#629,.T.);
#685=FACE_BOUND('',#630,.T.);
#686=FACE_BOUND('',#631,.T.);
#687=FACE_BOUND('',#632,.T.);
#688=FACE_BOUND('',#633,.T.);
#689=FACE_BOUND('',#634,.T.);
#690=PLANE('',#768);
#691=PLANE('',#770);
#692=PLANE('',#771);
#693=PLANE('',#772);
#694=PLANE('',#773);
#695=PLANE('',#774);
#696=PLANE('',#775);
#697=PLANE('',#776);
#698=PLANE('',#777);
#699=PLANE('',#778);
#700=PLANE('',#869);
#701=ADVANCED_FACE('',(#635,#636),#690,.F.);
#702=ADVANCED_FACE('',(#637),#691,.F.);
#703=ADVANCED_FACE('',(#638),#692,.T.);
#704=ADVANCED_FACE('',(#639),#693,.T.);
#705=ADVANCED_FACE('',(#640),#694,.T.);
#706=ADVANCED_FACE('',(#641),#695,.F.);
#707=ADVANCED_FACE('',(#642),#696,.T.);
#708=ADVANCED_FACE('',(#643),#697,.F.);
#709=ADVANCED_FACE('',(#644),#698,.F.);
#710=ADVANCED_FACE('',(#645),#699,.T.);
#711=ADVANCED_FACE('',(#646),#30,.T.);
#712=ADVANCED_FACE('',(#647),#14,.T.);
#713=ADVANCED_FACE('',(#648),#15,.T.);
#714=ADVANCED_FACE('',(#649),#31,.T.);
#715=ADVANCED_FACE('',(#650),#32,.T.);
#716=ADVANCED_FACE('',(#651),#33,.T.);
#717=ADVANCED_FACE('',(#652),#34,.T.);
#718=ADVANCED_FACE('',(#653),#35,.T.);
#719=ADVANCED_FACE('',(#654),#16,.T.);
#720=ADVANCED_FACE('',(#655),#17,.T.);
#721=ADVANCED_FACE('',(#656),#18,.T.);
#722=ADVANCED_FACE('',(#657),#19,.T.);
#723=ADVANCED_FACE('',(#658),#36,.T.);
#724=ADVANCED_FACE('',(#659),#37,.T.);
#725=ADVANCED_FACE('',(#660),#38,.T.);
#726=ADVANCED_FACE('',(#661),#39,.T.);
#727=ADVANCED_FACE('',(#662),#40,.T.);
#728=ADVANCED_FACE('',(#663),#41,.T.);
#729=ADVANCED_FACE('',(#664),#20,.T.);
#730=ADVANCED_FACE('',(#665),#21,.T.);
#731=ADVANCED_FACE('',(#666),#22,.T.);
#732=ADVANCED_FACE('',(#667),#23,.T.);
#733=ADVANCED_FACE('',(#668),#42,.T.);
#734=ADVANCED_FACE('',(#669),#43,.T.);
#735=ADVANCED_FACE('',(#670),#44,.T.);
#736=ADVANCED_FACE('',(#671),#45,.T.);
#737=ADVANCED_FACE('',(#672),#46,.T.);
#738=ADVANCED_FACE('',(#673),#47,.T.);
#739=ADVANCED_FACE('',(#674),#48,.T.);
#740=ADVANCED_FACE('',(#675),#24,.T.);
#741=ADVANCED_FACE('',(#676),#25,.T.);
#742=ADVANCED_FACE('',(#677),#26,.T.);
#743=ADVANCED_FACE('',(#678),#27,.T.);
#744=ADVANCED_FACE('',(#679),#49,.T.);
#745=ADVANCED_FACE('',(#680),#50,.T.);
#746=ADVANCED_FACE('',(#681),#51,.T.);
#747=ADVANCED_FACE('',(#682),#52,.T.);
#748=ADVANCED_FACE('',(#683),#28,.T.);
#749=ADVANCED_FACE('',(#684),#29,.T.);
#750=ADVANCED_FACE('',(#685),#53,.T.);
#751=ADVANCED_FACE('',(#686),#12,.T.);
#752=ADVANCED_FACE('',(#687),#54,.F.);
#753=ADVANCED_FACE('',(#688),#13,.F.);
#754=ADVANCED_FACE('',(#689),#700,.T.);
#755=CLOSED_SHELL('',(#701,#702,#703,#704,#705,#706,#707,#708,#709,#710,
#711,#712,#713,#714,#715,#716,#717,#718,#719,#720,#721,#722,#723,#724,#725,
#726,#727,#728,#729,#730,#731,#732,#733,#734,#735,#736,#737,#738,#739,#740,
#741,#742,#743,#744,#745,#746,#747,#748,#749,#750,#751,#752,#753,#754));
#756=STYLED_ITEM('',(#757),#764);
#757=PRESENTATION_STYLE_ASSIGNMENT((#758));
#758=SURFACE_STYLE_USAGE(.BOTH.,#759);
#759=SURFACE_SIDE_STYLE('',(#760));
#760=SURFACE_STYLE_FILL_AREA(#761);
#761=FILL_AREA_STYLE('',(#762));
#762=FILL_AREA_STYLE_COLOUR('',#763);
#763=COLOUR_RGB('',0.901960784313726,0.901960784313726,0.901960784313726);
#764=MANIFOLD_SOLID_BREP('Foam Block',#755);
#765=SHAPE_DEFINITION_REPRESENTATION(#1393,#766);
#766=SHAPE_REPRESENTATION('Foam Block',(#767),#1388);
#767=AXIS2_PLACEMENT_3D('',#1127,#870,#871);
#768=AXIS2_PLACEMENT_3D('',#1128,#872,#873);
#769=AXIS2_PLACEMENT_3D('',#1158,#882,#883);
#770=AXIS2_PLACEMENT_3D('',#1159,#884,#885);
#771=AXIS2_PLACEMENT_3D('',#1168,#890,#891);
#772=AXIS2_PLACEMENT_3D('',#1177,#896,#897);
#773=AXIS2_PLACEMENT_3D('',#1194,#906,#907);
#774=AXIS2_PLACEMENT_3D('',#1203,#912,#913);
#775=AXIS2_PLACEMENT_3D('',#1212,#918,#919);
#776=AXIS2_PLACEMENT_3D('',#1221,#924,#925);
#777=AXIS2_PLACEMENT_3D('',#1230,#930,#931);
#778=AXIS2_PLACEMENT_3D('',#1239,#936,#937);
#779=AXIS2_PLACEMENT_3D('',#1248,#942,#943);
#780=AXIS2_PLACEMENT_3D('',#1249,#944,#945);
#781=AXIS2_PLACEMENT_3D('',#1250,#946,#947);
#782=AXIS2_PLACEMENT_3D('',#1251,#948,#949);
#783=AXIS2_PLACEMENT_3D('',#1252,#950,#951);
#784=AXIS2_PLACEMENT_3D('',#1253,#952,#953);
#785=AXIS2_PLACEMENT_3D('',#1254,#954,#955);
#786=AXIS2_PLACEMENT_3D('',#1255,#956,#957);
#787=AXIS2_PLACEMENT_3D('',#1256,#958,#959);
#788=AXIS2_PLACEMENT_3D('',#1257,#960,#961);
#789=AXIS2_PLACEMENT_3D('',#1258,#962,#963);
#790=AXIS2_PLACEMENT_3D('',#1259,#964,#965);
#791=AXIS2_PLACEMENT_3D('',#1260,#966,#967);
#792=AXIS2_PLACEMENT_3D('',#1261,#968,#969);
#793=AXIS2_PLACEMENT_3D('',#1262,#970,#971);
#794=AXIS2_PLACEMENT_3D('',#1263,#972,#973);
#795=AXIS2_PLACEMENT_3D('',#1264,#974,#975);
#796=AXIS2_PLACEMENT_3D('',#1265,#976,#977);
#797=AXIS2_PLACEMENT_3D('',#1266,#978,#979);
#798=AXIS2_PLACEMENT_3D('',#1267,#980,#981);
#799=AXIS2_PLACEMENT_3D('',#1268,#982,#983);
#800=AXIS2_PLACEMENT_3D('',#1269,#984,#985);
#801=AXIS2_PLACEMENT_3D('',#1270,#986,#987);
#802=AXIS2_PLACEMENT_3D('',#1271,#988,#989);
#803=AXIS2_PLACEMENT_3D('',#1272,#990,#991);
#804=AXIS2_PLACEMENT_3D('',#1273,#992,#993);
#805=AXIS2_PLACEMENT_3D('',#1274,#994,#995);
#806=AXIS2_PLACEMENT_3D('',#1275,#996,#997);
#807=AXIS2_PLACEMENT_3D('',#1276,#998,#999);
#808=AXIS2_PLACEMENT_3D('',#1277,#1000,#1001);
#809=AXIS2_PLACEMENT_3D('',#1278,#1002,#1003);
#810=AXIS2_PLACEMENT_3D('',#1279,#1004,#1005);
#811=AXIS2_PLACEMENT_3D('',#1280,#1006,#1007);
#812=AXIS2_PLACEMENT_3D('',#1281,#1008,#1009);
#813=AXIS2_PLACEMENT_3D('',#1282,#1010,#1011);
#814=AXIS2_PLACEMENT_3D('',#1283,#1012,#1013);
#815=AXIS2_PLACEMENT_3D('',#1284,#1014,#1015);
#816=AXIS2_PLACEMENT_3D('',#1285,#1016,#1017);
#817=AXIS2_PLACEMENT_3D('',#1286,#1018,#1019);
#818=AXIS2_PLACEMENT_3D('',#1287,#1020,#1021);
#819=AXIS2_PLACEMENT_3D('',#1288,#1022,#1023);
#820=AXIS2_PLACEMENT_3D('',#1289,#1024,#1025);
#821=AXIS2_PLACEMENT_3D('',#1290,#1026,#1027);
#822=AXIS2_PLACEMENT_3D('',#1291,#1028,#1029);
#823=AXIS2_PLACEMENT_3D('',#1292,#1030,#1031);
#824=AXIS2_PLACEMENT_3D('',#1293,#1032,#1033);
#825=AXIS2_PLACEMENT_3D('',#1294,#1034,#1035);
#826=AXIS2_PLACEMENT_3D('',#1295,#1036,#1037);
#827=AXIS2_PLACEMENT_3D('',#1296,#1038,#1039);
#828=AXIS2_PLACEMENT_3D('',#1297,#1040,#1041);
#829=AXIS2_PLACEMENT_3D('',#1298,#1042,#1043);
#830=AXIS2_PLACEMENT_3D('',#1299,#1044,#1045);
#831=AXIS2_PLACEMENT_3D('',#1300,#1046,#1047);
#832=AXIS2_PLACEMENT_3D('',#1301,#1048,#1049);
#833=AXIS2_PLACEMENT_3D('',#1302,#1050,#1051);
#834=AXIS2_PLACEMENT_3D('',#1303,#1052,#1053);
#835=AXIS2_PLACEMENT_3D('',#1304,#1054,#1055);
#836=AXIS2_PLACEMENT_3D('',#1305,#1056,#1057);
#837=AXIS2_PLACEMENT_3D('',#1306,#1058,#1059);
#838=AXIS2_PLACEMENT_3D('',#1307,#1060,#1061);
#839=AXIS2_PLACEMENT_3D('',#1308,#1062,#1063);
#840=AXIS2_PLACEMENT_3D('',#1309,#1064,#1065);
#841=AXIS2_PLACEMENT_3D('',#1310,#1066,#1067);
#842=AXIS2_PLACEMENT_3D('',#1311,#1068,#1069);
#843=AXIS2_PLACEMENT_3D('',#1312,#1070,#1071);
#844=AXIS2_PLACEMENT_3D('',#1313,#1072,#1073);
#845=AXIS2_PLACEMENT_3D('',#1314,#1074,#1075);
#846=AXIS2_PLACEMENT_3D('',#1315,#1076,#1077);
#847=AXIS2_PLACEMENT_3D('',#1316,#1078,#1079);
#848=AXIS2_PLACEMENT_3D('',#1317,#1080,#1081);
#849=AXIS2_PLACEMENT_3D('',#1318,#1082,#1083);
#850=AXIS2_PLACEMENT_3D('',#1319,#1084,#1085);
#851=AXIS2_PLACEMENT_3D('',#1320,#1086,#1087);
#852=AXIS2_PLACEMENT_3D('',#1321,#1088,#1089);
#853=AXIS2_PLACEMENT_3D('',#1322,#1090,#1091);
#854=AXIS2_PLACEMENT_3D('',#1323,#1092,#1093);
#855=AXIS2_PLACEMENT_3D('',#1324,#1094,#1095);
#856=AXIS2_PLACEMENT_3D('',#1325,#1096,#1097);
#857=AXIS2_PLACEMENT_3D('',#1326,#1098,#1099);
#858=AXIS2_PLACEMENT_3D('',#1327,#1100,#1101);
#859=AXIS2_PLACEMENT_3D('',#1328,#1102,#1103);
#860=AXIS2_PLACEMENT_3D('',#1329,#1104,#1105);
#861=AXIS2_PLACEMENT_3D('',#1330,#1106,#1107);
#862=AXIS2_PLACEMENT_3D('',#1331,#1108,#1109);
#863=AXIS2_PLACEMENT_3D('',#1332,#1110,#1111);
#864=AXIS2_PLACEMENT_3D('',#1333,#1112,#1113);
#865=AXIS2_PLACEMENT_3D('',#1334,#1114,#1115);
#866=AXIS2_PLACEMENT_3D('',#1335,#1116,#1117);
#867=AXIS2_PLACEMENT_3D('',#1361,#1120,#1121);
#868=AXIS2_PLACEMENT_3D('',#1364,#1123,#1124);
#869=AXIS2_PLACEMENT_3D('',#1386,#1125,#1126);
#870=DIRECTION('',(0.,0.,1.));
#871=DIRECTION('',(1.,0.,0.));
#872=DIRECTION('',(0.,0.,-1.));
#873=DIRECTION('',(-1.,0.,0.));
#874=DIRECTION('',(-0.447213595499958,-0.894427190999916,0.));
#875=DIRECTION('',(0.,1.,0.));
#876=DIRECTION('',(-0.707106781186548,0.707106781186548,0.));
#877=DIRECTION('',(-1.,0.,0.));
#878=DIRECTION('',(0.707106781186548,0.707106781186548,0.));
#879=DIRECTION('',(0.,1.,0.));
#880=DIRECTION('',(0.447213595499958,-0.894427190999916,0.));
#881=DIRECTION('',(-1.,0.,0.));
#882=DIRECTION('',(0.,0.,-1.));
#883=DIRECTION('',(-1.,0.,0.));
#884=DIRECTION('',(-1.,0.,0.));
#885=DIRECTION('',(0.,0.,1.));
#886=DIRECTION('',(0.,1.,0.));
#887=DIRECTION('',(0.,0.,-1.));
#888=DIRECTION('',(0.,1.,0.));
#889=DIRECTION('',(0.,0.,-1.));
#890=DIRECTION('',(-1.,0.,0.));
#891=DIRECTION('',(0.,0.,1.));
#892=DIRECTION('',(0.,1.,0.));
#893=DIRECTION('',(0.,0.,-1.));
#894=DIRECTION('',(0.,1.,0.));
#895=DIRECTION('',(0.,0.,-1.));
#896=DIRECTION('',(1.82123199577617E-16,0.,-1.));
#897=DIRECTION('',(-1.,0.,-1.82123199577617E-16));
#898=DIRECTION('',(0.707106781186548,-0.707106781186548,1.28780549432724E-16));
#899=DIRECTION('',(0.,1.,0.));
#900=DIRECTION('',(0.447213595499958,0.894427190999916,8.14479709070628E-17));
#901=DIRECTION('',(-1.,0.,-1.82123199577617E-16));
#902=DIRECTION('',(-0.447213595499958,0.894427190999916,-8.14479709070628E-17));
#903=DIRECTION('',(0.,1.,0.));
#904=DIRECTION('',(-0.707106781186548,-0.707106781186548,-1.28780549432724E-16));
#905=DIRECTION('',(-1.,0.,-1.82123199577617E-16));
#906=DIRECTION('',(0.,-1.,0.));
#907=DIRECTION('',(1.,0.,0.));
#908=DIRECTION('',(-1.,0.,0.));
#909=DIRECTION('',(0.,0.,1.));
#910=DIRECTION('',(-1.,0.,-1.82123199577617E-16));
#911=DIRECTION('',(0.,0.,1.));
#912=DIRECTION('',(0.,-1.,0.));
#913=DIRECTION('',(1.,0.,0.));
#914=DIRECTION('',(-1.,0.,-1.82123199577617E-16));
#915=DIRECTION('',(0.,0.,1.));
#916=DIRECTION('',(-1.,0.,0.));
#917=DIRECTION('',(0.,0.,1.));
#918=DIRECTION('',(-0.894427190999916,0.447213595499958,0.));
#919=DIRECTION('',(0.,0.,-1.));
#920=DIRECTION('',(0.447213595499958,0.894427190999916,8.14479709070628E-17));
#921=DIRECTION('',(0.,0.,-1.));
#922=DIRECTION('',(-0.447213595499958,-0.894427190999916,0.));
#923=DIRECTION('',(0.,0.,1.));
#924=DIRECTION('',(-0.894427190999916,-0.447213595499958,0.));
#925=DIRECTION('',(0.,0.,1.));
#926=DIRECTION('',(0.,0.,-1.));
#927=DIRECTION('',(-0.447213595499958,0.894427190999916,0.));
#928=DIRECTION('',(0.,0.,1.));
#929=DIRECTION('',(0.447213595499958,-0.894427190999916,8.14479709070628E-17));
#930=DIRECTION('',(0.707106781186547,0.707106781186548,0.));
#931=DIRECTION('',(0.,0.,1.));
#932=DIRECTION('',(0.707106781186548,-0.707106781186548,0.));
#933=DIRECTION('',(0.,0.,1.));
#934=DIRECTION('',(-0.707106781186548,0.707106781186548,-1.28780549432724E-16));
#935=DIRECTION('',(0.,0.,-1.));
#936=DIRECTION('',(0.707106781186547,-0.707106781186548,0.));
#937=DIRECTION('',(0.,0.,-1.));
#938=DIRECTION('',(-0.707106781186548,-0.707106781186548,-1.28780549432724E-16));
#939=DIRECTION('',(0.,0.,-1.));
#940=DIRECTION('',(0.707106781186548,0.707106781186548,0.));
#941=DIRECTION('',(0.,0.,1.));
#942=DIRECTION('',(-0.447213595499958,0.894427190999916,0.));
#943=DIRECTION('',(-0.894427190999916,-0.447213595499958,0.));
#944=DIRECTION('',(0.447213595499958,-0.894427190999916,1.22171956360594E-15));
#945=DIRECTION('',(0.894427190999916,0.447213595499958,0.));
#946=DIRECTION('',(-0.447213595499959,0.894427190999916,0.));
#947=DIRECTION('',(-0.894427190999916,-0.447213595499959,0.));
#948=DIRECTION('',(0.,-2.04888599524819E-15,1.));
#949=DIRECTION('',(0.,-1.,-2.04888599524819E-15));
#950=DIRECTION('',(0.,0.,1.));
#951=DIRECTION('',(1.,0.,0.));
#952=DIRECTION('',(1.36592399683213E-15,1.,0.));
#953=DIRECTION('',(-1.,1.36592399683213E-15,0.));
#954=DIRECTION('',(-3.41480999208033E-16,0.,1.));
#955=DIRECTION('',(1.,0.,3.41480999208033E-16));
#956=DIRECTION('',(1.,0.,1.0244429976241E-15));
#957=DIRECTION('',(1.0244429976241E-15,0.,-1.));
#958=DIRECTION('',(0.,0.,1.));
#959=DIRECTION('',(1.,0.,0.));
#960=DIRECTION('',(0.,1.,0.));
#961=DIRECTION('',(0.,0.,1.));
#962=DIRECTION('',(0.,-1.,6.82961998416066E-16));
#963=DIRECTION('',(0.,-6.82961998416066E-16,-1.));
#964=DIRECTION('',(0.,0.,1.));
#965=DIRECTION('',(1.,0.,0.));
#966=DIRECTION('',(0.,0.,-1.));
#967=DIRECTION('',(-1.,0.,0.));
#968=DIRECTION('',(-0.447213595499958,0.894427190999916,-8.14479709070628E-17));
#969=DIRECTION('',(-0.894427190999916,-0.447213595499958,0.));
#970=DIRECTION('',(-0.447213595499959,0.894427190999916,0.));
#971=DIRECTION('',(-0.894427190999916,-0.447213595499959,0.));
#972=DIRECTION('',(0.447213595499955,-0.894427190999917,0.));
#973=DIRECTION('',(0.894427190999917,0.447213595499955,0.));
#974=DIRECTION('',(0.,0.,-1.));
#975=DIRECTION('',(-1.,0.,0.));
#976=DIRECTION('',(0.,0.,-1.));
#977=DIRECTION('',(-1.,0.,0.));
#978=DIRECTION('',(-1.,0.,0.));
#979=DIRECTION('',(0.,0.,1.));
#980=DIRECTION('',(-1.,1.36592399683213E-15,0.));
#981=DIRECTION('',(-1.36592399683213E-15,-1.,0.));
#982=DIRECTION('',(0.,0.,1.));
#983=DIRECTION('',(1.,0.,0.));
#984=DIRECTION('',(0.,0.,1.));
#985=DIRECTION('',(1.,0.,0.));
#986=DIRECTION('',(0.707106781186548,0.707106781186548,0.));
#987=DIRECTION('',(-0.707106781186548,0.707106781186548,0.));
#988=DIRECTION('',(0.,0.,-1.));
#989=DIRECTION('',(-1.,0.,0.));
#990=DIRECTION('',(0.,1.,3.41480999208033E-15));
#991=DIRECTION('',(0.,-3.41480999208033E-15,1.));
#992=DIRECTION('',(-3.41480999208033E-16,0.,-1.));
#993=DIRECTION('',(-1.,0.,3.41480999208033E-16));
#994=DIRECTION('',(1.,-6.82961998416066E-16,3.41480999208033E-16));
#995=DIRECTION('',(6.82961998416066E-16,1.,0.));
#996=DIRECTION('',(-1.36592399683213E-15,0.,1.));
#997=DIRECTION('',(1.,0.,1.36592399683213E-15));
#998=DIRECTION('',(0.447213595499959,0.894427190999916,6.10859781802971E-16));
#999=DIRECTION('',(-0.894427190999916,0.447213595499959,0.));
#1000=DIRECTION('',(0.,0.,1.));
#1001=DIRECTION('',(1.,0.,0.));
#1002=DIRECTION('',(-0.707106781186548,-0.707106781186548,0.));
#1003=DIRECTION('',(0.707106781186548,-0.707106781186548,0.));
#1004=DIRECTION('',(-0.707106781186548,-0.707106781186548,0.));
#1005=DIRECTION('',(0.707106781186548,-0.707106781186548,0.));
#1006=DIRECTION('',(0.,0.,1.));
#1007=DIRECTION('',(1.,0.,0.));
#1008=DIRECTION('',(0.,0.,-1.));
#1009=DIRECTION('',(-1.,0.,0.));
#1010=DIRECTION('',(0.,-1.,0.));
#1011=DIRECTION('',(0.,0.,-1.));
#1012=DIRECTION('',(0.,-1.,0.));
#1013=DIRECTION('',(0.,0.,-1.));
#1014=DIRECTION('',(1.,0.,1.82123199577617E-16));
#1015=DIRECTION('',(1.82123199577617E-16,0.,-1.));
#1016=DIRECTION('',(-1.,0.,3.41480999208033E-16));
#1017=DIRECTION('',(3.41480999208033E-16,0.,1.));
#1018=DIRECTION('',(0.,0.,-1.));
#1019=DIRECTION('',(-1.,0.,0.));
#1020=DIRECTION('',(1.36592399683213E-15,2.73184799366427E-15,-1.));
#1021=DIRECTION('',(0.,1.,2.73184799366427E-15));
#1022=DIRECTION('',(0.447213595499958,0.894427190999916,0.));
#1023=DIRECTION('',(-0.894427190999916,0.447213595499958,0.));
#1024=DIRECTION('',(-0.447213595499956,-0.894427190999917,0.));
#1025=DIRECTION('',(0.894427190999917,-0.447213595499956,0.));
#1026=DIRECTION('',(-6.82961998416066E-16,0.,1.));
#1027=DIRECTION('',(1.,0.,6.82961998416066E-16));
#1028=DIRECTION('',(0.,0.,1.));
#1029=DIRECTION('',(1.,0.,0.));
#1030=DIRECTION('',(1.,0.,0.));
#1031=DIRECTION('',(0.,0.,-1.));
#1032=DIRECTION('',(0.,-6.82961998416066E-16,-1.));
#1033=DIRECTION('',(0.,1.,-6.82961998416066E-16));
#1034=DIRECTION('',(0.707106781186548,0.707106781186548,-4.82927060372716E-16));
#1035=DIRECTION('',(-0.707106781186548,0.707106781186548,0.));
#1036=DIRECTION('',(-3.41480999208033E-16,0.,-1.));
#1037=DIRECTION('',(-1.,0.,3.41480999208033E-16));
#1038=DIRECTION('',(0.447213595499959,0.894427190999916,1.52714945450743E-16));
#1039=DIRECTION('',(-0.894427190999916,0.447213595499959,0.));
#1040=DIRECTION('',(0.,2.04888599524819E-15,1.));
#1041=DIRECTION('',(0.,-1.,2.04888599524819E-15));
#1042=DIRECTION('',(0.,1.,-2.73184799366427E-15));
#1043=DIRECTION('',(0.,2.73184799366427E-15,1.));
#1044=DIRECTION('',(0.,0.,1.));
#1045=DIRECTION('',(1.,0.,0.));
#1046=DIRECTION('',(1.,0.,0.));
#1047=DIRECTION('',(0.,0.,-1.));
#1048=DIRECTION('',(-1.,0.,-2.04888599524819E-15));
#1049=DIRECTION('',(-2.04888599524819E-15,0.,1.));
#1050=DIRECTION('',(0.,0.,1.));
#1051=DIRECTION('',(1.,0.,0.));
#1052=DIRECTION('',(0.,0.,-1.));
#1053=DIRECTION('',(-1.,0.,0.));
#1054=DIRECTION('',(-0.707106781186548,-0.707106781186548,-1.28780549432724E-16));
#1055=DIRECTION('',(0.707106781186548,-0.707106781186548,0.));
#1056=DIRECTION('',(-0.707106781186548,-0.707106781186547,0.));
#1057=DIRECTION('',(0.707106781186547,-0.707106781186548,0.));
#1058=DIRECTION('',(0.447213595499958,0.894427190999916,8.14479709070628E-17));
#1059=DIRECTION('',(-0.894427190999916,0.447213595499958,0.));
#1060=DIRECTION('',(-0.447213595499958,-0.894427190999916,-1.22171956360594E-15));
#1061=DIRECTION('',(0.894427190999916,-0.447213595499958,0.));
#1062=DIRECTION('',(0.,0.,-1.));
#1063=DIRECTION('',(-1.,0.,0.));
#1064=DIRECTION('',(0.,-6.1085978180297E-15,-1.));
#1065=DIRECTION('',(0.,1.,-6.10859781802971E-15));
#1066=DIRECTION('',(0.,-1.,0.));
#1067=DIRECTION('',(0.,0.,-1.));
#1068=DIRECTION('',(-1.36592399683213E-15,-1.,0.));
#1069=DIRECTION('',(1.,-1.36592399683213E-15,0.));
#1070=DIRECTION('',(0.707106781186548,-0.707106781186548,0.));
#1071=DIRECTION('',(0.707106781186548,0.707106781186548,0.));
#1072=DIRECTION('',(0.707106781186548,-0.707106781186547,0.));
#1073=DIRECTION('',(0.707106781186547,0.707106781186548,0.));
#1074=DIRECTION('',(-0.707106781186548,0.707106781186548,9.65854120745432E-16));
#1075=DIRECTION('',(-0.707106781186548,-0.707106781186548,0.));
#1076=DIRECTION('',(-1.36592399683213E-15,0.,1.));
#1077=DIRECTION('',(1.,0.,1.36592399683213E-15));
#1078=DIRECTION('',(0.,0.,1.));
#1079=DIRECTION('',(1.,0.,0.));
#1080=DIRECTION('',(0.,0.,-1.));
#1081=DIRECTION('',(-1.,0.,0.));
#1082=DIRECTION('',(1.,0.,6.82961998416066E-16));
#1083=DIRECTION('',(6.82961998416066E-16,0.,-1.));
#1084=DIRECTION('',(0.,6.82961998416066E-16,-1.));
#1085=DIRECTION('',(0.,1.,6.82961998416066E-16));
#1086=DIRECTION('',(-1.36592399683213E-15,1.,0.));
#1087=DIRECTION('',(-1.,-1.36592399683213E-15,0.));
#1088=DIRECTION('',(0.,-1.36592399683213E-15,1.));
#1089=DIRECTION('',(0.,-1.,-1.36592399683213E-15));
#1090=DIRECTION('',(0.,0.,1.));
#1091=DIRECTION('',(1.,0.,0.));
#1092=DIRECTION('',(0.,0.,1.));
#1093=DIRECTION('',(1.,0.,0.));
#1094=DIRECTION('',(0.,0.,-1.));
#1095=DIRECTION('',(-1.,0.,0.));
#1096=DIRECTION('',(-1.,0.,-1.82123199577617E-16));
#1097=DIRECTION('',(-1.82123199577617E-16,0.,1.));
#1098=DIRECTION('',(-1.,-6.82961998416066E-16,0.));
#1099=DIRECTION('',(6.82961998416066E-16,-1.,0.));
#1100=DIRECTION('',(0.,1.,0.));
#1101=DIRECTION('',(0.,0.,1.));
#1102=DIRECTION('',(0.,-1.,0.));
#1103=DIRECTION('',(0.,0.,-1.));
#1104=DIRECTION('',(0.,0.,-1.));
#1105=DIRECTION('',(-1.,0.,0.));
#1106=DIRECTION('',(0.,0.,-1.));
#1107=DIRECTION('',(-1.,0.,0.));
#1108=DIRECTION('',(0.,0.,-1.));
#1109=DIRECTION('',(-1.,0.,0.));
#1110=DIRECTION('',(0.707106781186548,-0.707106781186548,0.));
#1111=DIRECTION('',(0.707106781186548,0.707106781186548,0.));
#1112=DIRECTION('',(0.,0.,-1.));
#1113=DIRECTION('',(-1.,0.,0.));
#1114=DIRECTION('',(-0.707106781186548,0.707106781186548,0.));
#1115=DIRECTION('',(-0.707106781186548,-0.707106781186548,0.));
#1116=DIRECTION('',(0.707106781186548,-0.707106781186548,1.28780549432724E-16));
#1117=DIRECTION('',(0.707106781186548,0.707106781186548,0.));
#1118=DIRECTION('',(0.,0.,1.));
#1119=DIRECTION('',(0.,0.,1.));
#1120=DIRECTION('',(0.,0.,1.));
#1121=DIRECTION('',(1.,0.,0.));
#1122=DIRECTION('',(0.,0.,1.));
#1123=DIRECTION('',(0.,0.,1.));
#1124=DIRECTION('',(1.,0.,0.));
#1125=DIRECTION('',(0.,0.,1.));
#1126=DIRECTION('',(1.,0.,0.));
#1127=CARTESIAN_POINT('',(0.,0.,0.));
#1128=CARTESIAN_POINT('',(0.022225,-0.0508,-0.0635));
#1129=CARTESIAN_POINT('',(-0.0335563098697204,0.0231281549348602,-0.0635));
#1130=CARTESIAN_POINT('',(-0.00956038733715051,0.07112,-0.0635));
#1131=CARTESIAN_POINT('',(-0.03302,0.0242007746743011,-0.0635));
#1132=CARTESIAN_POINT('',(-0.03302,-0.03175,-0.0635));
#1133=CARTESIAN_POINT('',(-0.03302,-0.0296457951031447,-0.0635));
#1134=CARTESIAN_POINT('',(-0.0154578975515723,-0.0472078975515723,-0.0635));
#1135=CARTESIAN_POINT('',(-0.0169457951031447,-0.04572,-0.0635));
#1136=CARTESIAN_POINT('',(0.01905,-0.04572,-0.0635));
#1137=CARTESIAN_POINT('',(0.0169457951031447,-0.04572,-0.0635));
#1138=CARTESIAN_POINT('',(0.0345078975515724,-0.0281578975515724,-0.0635));
#1139=CARTESIAN_POINT('',(0.03302,-0.0296457951031447,-0.0635));
#1140=CARTESIAN_POINT('',(0.03302,-0.0508,-0.0635));
#1141=CARTESIAN_POINT('',(0.03302,0.0242007746743011,-0.0635));
#1142=CARTESIAN_POINT('',(0.00815630986972043,0.0739281549348602,-0.0635));
#1143=CARTESIAN_POINT('',(0.00956038733715055,0.07112,-0.0635));
#1144=CARTESIAN_POINT('',(0.022225,0.07112,-0.0635));
#1145=CARTESIAN_POINT('',(-0.00635,-0.0254,-0.0635));
#1146=CARTESIAN_POINT('',(-0.00635,-0.0207463668967014,-0.0635));
#1147=CARTESIAN_POINT('',(-0.00551034403944797,-0.0101773841164709,-0.0635));
#1148=CARTESIAN_POINT('',(-0.00397318492077873,0.0019367668843239,-0.0635));
#1149=CARTESIAN_POINT('',(1.70658944605911E-19,0.0127,-0.0635));
#1150=CARTESIAN_POINT('',(-1.70658944605911E-19,0.0127,-0.0635));
#1151=CARTESIAN_POINT('',(-0.00635,-0.0254,-0.0635));
#1152=CARTESIAN_POINT('',(0.00635,-0.0254,-0.0635));
#1153=CARTESIAN_POINT('',(0.00635,-0.0207463668967014,-0.0635));
#1154=CARTESIAN_POINT('',(0.00551034403944797,-0.0101773841164709,-0.0635));
#1155=CARTESIAN_POINT('',(0.00397318492077873,0.0019367668843239,-0.0635));
#1156=CARTESIAN_POINT('',(-1.70658944605911E-19,0.0127,-0.0635));
#1157=CARTESIAN_POINT('',(0.00635,-0.0254,-0.0635));
#1158=CARTESIAN_POINT('',(0.,-0.0254,-0.0635));
#1159=CARTESIAN_POINT('',(0.0381,-0.0508,-0.0762));
#1160=CARTESIAN_POINT('',(0.0381,-0.0508,-0.06858));
#1161=CARTESIAN_POINT('',(0.0381,0.0242007746743011,-0.06858));
#1162=CARTESIAN_POINT('',(0.0381,-0.0296457951031447,-0.06858));
#1163=CARTESIAN_POINT('',(0.0381,-0.0296457951031447,-0.0889));
#1164=CARTESIAN_POINT('',(0.0381,-0.0296457951031447,-0.08382));
#1165=CARTESIAN_POINT('',(0.0381,0.0254,-0.08382));
#1166=CARTESIAN_POINT('',(0.0381,0.0242007746743011,-0.08382));
#1167=CARTESIAN_POINT('',(0.0381,0.0242007746743011,-0.0635));
#1168=CARTESIAN_POINT('',(-0.0381,-0.0508,-0.0762));
#1169=CARTESIAN_POINT('',(-0.0381,0.0254,-0.06858));
#1170=CARTESIAN_POINT('',(-0.0381,-0.0296457951031447,-0.06858));
#1171=CARTESIAN_POINT('',(-0.0381,0.0242007746743011,-0.06858));
#1172=CARTESIAN_POINT('',(-0.0381,0.0242007746743011,-0.0762));
#1173=CARTESIAN_POINT('',(-0.0381,0.0242007746743011,-0.08382));
#1174=CARTESIAN_POINT('',(-0.0381,-0.0508,-0.08382));
#1175=CARTESIAN_POINT('',(-0.0381,-0.0296457951031447,-0.08382));
#1176=CARTESIAN_POINT('',(-0.0381,-0.0296457951031447,-0.0762));
#1177=CARTESIAN_POINT('',(2.08166817117217E-17,-0.0508,-0.0889));
#1178=CARTESIAN_POINT('',(-0.00593289755157231,-0.0567328975515723,-0.0889));
#1179=CARTESIAN_POINT('',(-0.0169457951031447,-0.04572,-0.0889));
#1180=CARTESIAN_POINT('',(-0.03302,-0.0296457951031447,-0.0889));
#1181=CARTESIAN_POINT('',(-0.03302,-0.0508,-0.0889));
#1182=CARTESIAN_POINT('',(-0.03302,0.0242007746743011,-0.0889));
#1183=CARTESIAN_POINT('',(-0.0564163098697204,-0.0225918450651398,-0.0889));
#1184=CARTESIAN_POINT('',(-0.0095603873371505,0.07112,-0.0889));
#1185=CARTESIAN_POINT('',(0.0127,0.07112,-0.0889));
#1186=CARTESIAN_POINT('',(0.00956038733715055,0.07112,-0.0889));
#1187=CARTESIAN_POINT('',(0.0564163098697204,-0.0225918450651398,-0.0889));
#1188=CARTESIAN_POINT('',(0.03302,0.0242007746743011,-0.0889));
#1189=CARTESIAN_POINT('',(0.03302,-0.03175,-0.0889));
#1190=CARTESIAN_POINT('',(0.03302,-0.0296457951031447,-0.0889));
#1191=CARTESIAN_POINT('',(0.00593289755157236,-0.0567328975515723,-0.0889));
#1192=CARTESIAN_POINT('',(0.0169457951031447,-0.04572,-0.0889));
#1193=CARTESIAN_POINT('',(2.08166817117217E-17,-0.04572,-0.0889));
#1194=CARTESIAN_POINT('',(2.77555756156289E-17,-0.0508,-0.040005));
#1195=CARTESIAN_POINT('',(-0.01905,-0.0508,-0.06858));
#1196=CARTESIAN_POINT('',(0.0169457951031447,-0.0508,-0.06858));
#1197=CARTESIAN_POINT('',(-0.0169457951031447,-0.0508,-0.06858));
#1198=CARTESIAN_POINT('',(-0.0169457951031447,-0.0508,-0.040005));
#1199=CARTESIAN_POINT('',(-0.0169457951031447,-0.0508,-0.08382));
#1200=CARTESIAN_POINT('',(3.57353036051222E-17,-0.0508,-0.08382));
#1201=CARTESIAN_POINT('',(0.0169457951031447,-0.0508,-0.08382));
#1202=CARTESIAN_POINT('',(0.0169457951031447,-0.0508,-0.040005));
#1203=CARTESIAN_POINT('',(2.77555756156289E-17,0.0762,-0.040005));
#1204=CARTESIAN_POINT('',(-0.0127,0.0762,-0.08382));
#1205=CARTESIAN_POINT('',(0.00956038733715055,0.0762,-0.08382));
#1206=CARTESIAN_POINT('',(-0.0095603873371505,0.0762,-0.08382));
#1207=CARTESIAN_POINT('',(-0.0095603873371505,0.0762,-0.0635));
#1208=CARTESIAN_POINT('',(-0.0095603873371505,0.0762,-0.06858));
#1209=CARTESIAN_POINT('',(2.77555756156289E-17,0.0762,-0.06858));
#1210=CARTESIAN_POINT('',(0.00956038733715055,0.0762,-0.06858));
#1211=CARTESIAN_POINT('',(0.00956038733715055,0.0762,-0.0889));
#1212=CARTESIAN_POINT('',(-0.0127,0.0762,-0.040005));
#1213=CARTESIAN_POINT('',(-0.0127,0.0762,-0.08382));
#1214=CARTESIAN_POINT('',(-0.0141040774674301,0.0733918450651398,-0.08382));
#1215=CARTESIAN_POINT('',(-0.0375636901302795,0.0264726197394409,-0.08382));
#1216=CARTESIAN_POINT('',(-0.0375636901302795,0.0264726197394409,-0.040005));
#1217=CARTESIAN_POINT('',(-0.0375636901302795,0.0264726197394409,-0.06858));
#1218=CARTESIAN_POINT('',(-0.0127,0.0762,-0.06858));
#1219=CARTESIAN_POINT('',(-0.0141040774674301,0.0733918450651398,-0.06858));
#1220=CARTESIAN_POINT('',(-0.0141040774674301,0.0733918450651398,-0.0889));
#1221=CARTESIAN_POINT('',(0.0381,0.0254,-0.0762));
#1222=CARTESIAN_POINT('',(0.0141040774674301,0.0733918450651398,-0.0635));
#1223=CARTESIAN_POINT('',(0.0141040774674301,0.0733918450651398,-0.08382));
#1224=CARTESIAN_POINT('',(0.0141040774674301,0.0733918450651398,-0.06858));
#1225=CARTESIAN_POINT('',(0.0381,0.0254,-0.06858));
#1226=CARTESIAN_POINT('',(0.0375636901302796,0.0264726197394409,-0.06858));
#1227=CARTESIAN_POINT('',(0.0375636901302796,0.0264726197394409,-0.0889));
#1228=CARTESIAN_POINT('',(0.0375636901302796,0.0264726197394409,-0.08382));
#1229=CARTESIAN_POINT('',(0.0381,0.0254,-0.08382));
#1230=CARTESIAN_POINT('',(-0.0381,-0.03175,-0.0762));
#1231=CARTESIAN_POINT('',(-0.0381,-0.03175,-0.06858));
#1232=CARTESIAN_POINT('',(-0.0205378975515723,-0.0493121024484277,-0.06858));
#1233=CARTESIAN_POINT('',(-0.0366121024484276,-0.0332378975515724,-0.06858));
#1234=CARTESIAN_POINT('',(-0.0366121024484276,-0.0332378975515724,-0.0762));
#1235=CARTESIAN_POINT('',(-0.0366121024484276,-0.0332378975515724,-0.08382));
#1236=CARTESIAN_POINT('',(-0.0381,-0.03175,-0.08382));
#1237=CARTESIAN_POINT('',(-0.0205378975515723,-0.0493121024484277,-0.08382));
#1238=CARTESIAN_POINT('',(-0.0205378975515723,-0.0493121024484277,-0.0762));
#1239=CARTESIAN_POINT('',(0.01905,-0.0508,-0.040005));
#1240=CARTESIAN_POINT('',(0.01905,-0.0508,-0.08382));
#1241=CARTESIAN_POINT('',(0.0205378975515723,-0.0493121024484277,-0.08382));
#1242=CARTESIAN_POINT('',(0.0366121024484277,-0.0332378975515724,-0.08382));
#1243=CARTESIAN_POINT('',(0.0366121024484277,-0.0332378975515724,-0.0635));
#1244=CARTESIAN_POINT('',(0.0366121024484277,-0.0332378975515724,-0.06858));
#1245=CARTESIAN_POINT('',(0.01905,-0.0508,-0.06858));
#1246=CARTESIAN_POINT('',(0.0205378975515723,-0.0493121024484277,-0.06858));
#1247=CARTESIAN_POINT('',(0.0205378975515723,-0.0493121024484277,-0.040005));
#1248=CARTESIAN_POINT('',(0.0608613098697204,-0.0314818450651398,-0.06858));
#1249=CARTESIAN_POINT('',(0.03302,0.0242007746743011,-0.06858));
#1250=CARTESIAN_POINT('',(0.00956038733715055,0.07112,-0.06858));
#1251=CARTESIAN_POINT('',(0.03302,0.0242007746743011,-0.06858));
#1252=CARTESIAN_POINT('',(0.03302,0.0242007746743011,-0.06858));
#1253=CARTESIAN_POINT('',(0.03302,0.0242007746743011,-0.06858));
#1254=CARTESIAN_POINT('',(0.00956038733715055,0.07112,-0.06858));
#1255=CARTESIAN_POINT('',(0.00956038733715055,0.07112,-0.06858));
#1256=CARTESIAN_POINT('',(0.00956038733715055,0.07112,-0.06858));
#1257=CARTESIAN_POINT('',(0.03302,-0.0508,-0.06858));
#1258=CARTESIAN_POINT('',(0.03302,-0.0296457951031447,-0.06858));
#1259=CARTESIAN_POINT('',(0.03302,0.0242007746743011,-0.0762));
#1260=CARTESIAN_POINT('',(0.03302,0.0242007746743011,-0.08382));
#1261=CARTESIAN_POINT('',(0.0564163098697204,-0.0225918450651398,-0.08382));
#1262=CARTESIAN_POINT('',(0.00956038733715055,0.07112,-0.08382));
#1263=CARTESIAN_POINT('',(0.03302,0.0242007746743011,-0.08382));
#1264=CARTESIAN_POINT('',(0.00956038733715055,0.07112,-0.040005));
#1265=CARTESIAN_POINT('',(0.00956038733715055,0.07112,-0.08382));
#1266=CARTESIAN_POINT('',(0.022225,0.07112,-0.06858));
#1267=CARTESIAN_POINT('',(-0.00956038733715051,0.07112,-0.06858));
#1268=CARTESIAN_POINT('',(0.03302,-0.0296457951031447,-0.06858));
#1269=CARTESIAN_POINT('',(0.03302,-0.0296457951031447,-0.06858));
#1270=CARTESIAN_POINT('',(0.03302,-0.0296457951031447,-0.06858));
#1271=CARTESIAN_POINT('',(0.03302,0.0242007746743011,-0.08382));
#1272=CARTESIAN_POINT('',(0.03302,0.0242007746743011,-0.08382));
#1273=CARTESIAN_POINT('',(0.00956038733715055,0.07112,-0.08382));
#1274=CARTESIAN_POINT('',(0.00956038733715055,0.07112,-0.08382));
#1275=CARTESIAN_POINT('',(-0.0095603873371505,0.07112,-0.06858));
#1276=CARTESIAN_POINT('',(-0.0095603873371505,0.07112,-0.06858));
#1277=CARTESIAN_POINT('',(-0.0095603873371505,0.07112,-0.06858));
#1278=CARTESIAN_POINT('',(0.0170453975515724,-0.0456203975515723,-0.06858));
#1279=CARTESIAN_POINT('',(0.0169457951031447,-0.04572,-0.06858));
#1280=CARTESIAN_POINT('',(0.03302,-0.0296457951031447,-0.0762));
#1281=CARTESIAN_POINT('',(0.03302,-0.0296457951031447,-0.08382));
#1282=CARTESIAN_POINT('',(0.03302,-0.0508,-0.08382));
#1283=CARTESIAN_POINT('',(0.03302,-0.0296457951031447,-0.08382));
#1284=CARTESIAN_POINT('',(3.57353036051222E-17,0.07112,-0.08382));
#1285=CARTESIAN_POINT('',(-0.0095603873371505,0.07112,-0.08382));
#1286=CARTESIAN_POINT('',(-0.0095603873371505,0.07112,-0.040005));
#1287=CARTESIAN_POINT('',(-0.0095603873371505,0.07112,-0.08382));
#1288=CARTESIAN_POINT('',(-0.0519713098697204,-0.0137018450651398,-0.06858));
#1289=CARTESIAN_POINT('',(-0.03302,0.0242007746743011,-0.06858));
#1290=CARTESIAN_POINT('',(0.0169457951031447,-0.04572,-0.06858));
#1291=CARTESIAN_POINT('',(0.0169457951031447,-0.04572,-0.06858));
#1292=CARTESIAN_POINT('',(0.0169457951031447,-0.04572,-0.06858));
#1293=CARTESIAN_POINT('',(0.03302,-0.0296457951031447,-0.08382));
#1294=CARTESIAN_POINT('',(0.03302,-0.0296457951031447,-0.08382));
#1295=CARTESIAN_POINT('',(-0.0095603873371505,0.07112,-0.08382));
#1296=CARTESIAN_POINT('',(-0.00956038733715051,0.07112,-0.08382));
#1297=CARTESIAN_POINT('',(-0.03302,0.0242007746743011,-0.06858));
#1298=CARTESIAN_POINT('',(-0.03302,0.0242007746743011,-0.06858));
#1299=CARTESIAN_POINT('',(-0.03302,0.0242007746743011,-0.06858));
#1300=CARTESIAN_POINT('',(2.77555756156289E-17,-0.04572,-0.06858));
#1301=CARTESIAN_POINT('',(-0.0169457951031447,-0.04572,-0.06858));
#1302=CARTESIAN_POINT('',(0.0169457951031447,-0.04572,-0.040005));
#1303=CARTESIAN_POINT('',(0.0169457951031447,-0.04572,-0.08382));
#1304=CARTESIAN_POINT('',(0.00593289755157236,-0.0567328975515723,-0.08382));
#1305=CARTESIAN_POINT('',(0.0169457951031447,-0.04572,-0.08382));
#1306=CARTESIAN_POINT('',(-0.0564163098697204,-0.0225918450651398,-0.08382));
#1307=CARTESIAN_POINT('',(-0.03302,0.0242007746743011,-0.08382));
#1308=CARTESIAN_POINT('',(-0.03302,0.0242007746743011,-0.0762));
#1309=CARTESIAN_POINT('',(-0.03302,0.0242007746743011,-0.08382));
#1310=CARTESIAN_POINT('',(-0.03302,-0.0508,-0.06858));
#1311=CARTESIAN_POINT('',(-0.03302,-0.0296457951031447,-0.06858));
#1312=CARTESIAN_POINT('',(0.00517960244842768,-0.0678453975515723,-0.06858));
#1313=CARTESIAN_POINT('',(-0.0169457951031447,-0.04572,-0.06858));
#1314=CARTESIAN_POINT('',(-0.03302,-0.0296457951031447,-0.06858));
#1315=CARTESIAN_POINT('',(-0.0169457951031447,-0.04572,-0.06858));
#1316=CARTESIAN_POINT('',(-0.0169457951031447,-0.04572,-0.06858));
#1317=CARTESIAN_POINT('',(0.0169457951031447,-0.04572,-0.08382));
#1318=CARTESIAN_POINT('',(0.0169457951031447,-0.04572,-0.08382));
#1319=CARTESIAN_POINT('',(-0.03302,0.0242007746743011,-0.08382));
#1320=CARTESIAN_POINT('',(-0.03302,0.0242007746743011,-0.08382));
#1321=CARTESIAN_POINT('',(-0.03302,-0.0296457951031447,-0.06858));
#1322=CARTESIAN_POINT('',(-0.03302,-0.0296457951031447,-0.06858));
#1323=CARTESIAN_POINT('',(-0.0169457951031447,-0.04572,-0.040005));
#1324=CARTESIAN_POINT('',(-0.0169457951031447,-0.04572,-0.08382));
#1325=CARTESIAN_POINT('',(1.98914958578674E-17,-0.04572,-0.08382));
#1326=CARTESIAN_POINT('',(-0.0169457951031447,-0.04572,-0.08382));
#1327=CARTESIAN_POINT('',(-0.03302,-0.0508,-0.08382));
#1328=CARTESIAN_POINT('',(-0.03302,-0.0296457951031447,-0.08382));
#1329=CARTESIAN_POINT('',(-0.03302,-0.0296457951031447,-0.0762));
#1330=CARTESIAN_POINT('',(-0.03302,-0.0296457951031447,-0.08382));
#1331=CARTESIAN_POINT('',(-0.0169457951031447,-0.04572,-0.08382));
#1332=CARTESIAN_POINT('',(-0.0169457951031447,-0.04572,-0.08382));
#1333=CARTESIAN_POINT('',(-0.03302,-0.0296457951031447,-0.08382));
#1334=CARTESIAN_POINT('',(-0.03302,-0.0296457951031447,-0.08382));
#1335=CARTESIAN_POINT('',(-0.00593289755157231,-0.0567328975515723,-0.08382));
#1336=CARTESIAN_POINT('',(-0.00635,-0.0254,-0.0762));
#1337=CARTESIAN_POINT('',(-0.00635,-0.0254,-0.0635));
#1338=CARTESIAN_POINT('',(-0.00635,-0.0226946049953358,-0.0762));
#1339=CARTESIAN_POINT('',(-0.00635,-0.0226946049953358,-0.0635));
#1340=CARTESIAN_POINT('',(-0.00616885381403013,-0.0186929418239203,-0.0762));
#1341=CARTESIAN_POINT('',(-0.00616885381403013,-0.0186929418239203,-0.0635));
#1342=CARTESIAN_POINT('',(-0.0056904098306286,-0.0132296248456753,-0.0762));
#1343=CARTESIAN_POINT('',(-0.0056904098306286,-0.0132296248456753,-0.0635));
#1344=CARTESIAN_POINT('',(-0.00513009391556515,-0.00762542830851798,-0.0762));
#1345=CARTESIAN_POINT('',(-0.00513009391556515,-0.00762542830851798,-0.0635));
#1346=CARTESIAN_POINT('',(-0.00403851673464124,2.02846067136017E-5,-0.0762));
#1347=CARTESIAN_POINT('',(-0.00403851673464124,2.02846067136017E-5,-0.0635));
#1348=CARTESIAN_POINT('',(-0.00174272489448913,0.00797901301603598,-0.0762));
#1349=CARTESIAN_POINT('',(-0.00174272489448913,0.00797901301603598,-0.0635));
#1350=CARTESIAN_POINT('',(1.70658944605911E-19,0.0127,-0.0762));
#1351=CARTESIAN_POINT('',(1.70658944605911E-19,0.0127,-0.0635));
#1352=CARTESIAN_POINT('',(-0.00635,-0.0254,-0.0762));
#1353=CARTESIAN_POINT('',(-0.00635,-0.0254,-0.0762));
#1354=CARTESIAN_POINT('',(-0.00635,-0.0254,-0.0762));
#1355=CARTESIAN_POINT('',(-0.00635,-0.0207463668967014,-0.0762));
#1356=CARTESIAN_POINT('',(-0.00551034403944797,-0.0101773841164709,-0.0762));
#1357=CARTESIAN_POINT('',(-0.00397318492077873,0.0019367668843239,-0.0762));
#1358=CARTESIAN_POINT('',(1.70658944605911E-19,0.0127,-0.0762));
#1359=CARTESIAN_POINT('',(-1.70658944605911E-19,0.0127,-0.0762));
#1360=CARTESIAN_POINT('',(-1.70658944605911E-19,0.0127,-0.0762));
#1361=CARTESIAN_POINT('',(0.,-0.0254,-0.0762));
#1362=CARTESIAN_POINT('',(0.00635,-0.0254,-0.0762));
#1363=CARTESIAN_POINT('',(0.00635,-0.0254,-0.0762));
#1364=CARTESIAN_POINT('',(0.,-0.0254,-0.0762));
#1365=CARTESIAN_POINT('',(0.00635,-0.0254,-0.0762));
#1366=CARTESIAN_POINT('',(0.00635,-0.0254,-0.0635));
#1367=CARTESIAN_POINT('',(0.00635,-0.0226946049953358,-0.0762));
#1368=CARTESIAN_POINT('',(0.00635,-0.0226946049953358,-0.0635));
#1369=CARTESIAN_POINT('',(0.00616885381403013,-0.0186929418239203,-0.0762));
#1370=CARTESIAN_POINT('',(0.00616885381403013,-0.0186929418239203,-0.0635));
#1371=CARTESIAN_POINT('',(0.0056904098306286,-0.0132296248456753,-0.0762));
#1372=CARTESIAN_POINT('',(0.0056904098306286,-0.0132296248456753,-0.0635));
#1373=CARTESIAN_POINT('',(0.00513009391556515,-0.00762542830851798,-0.0762));
#1374=CARTESIAN_POINT('',(0.00513009391556515,-0.00762542830851798,-0.0635));
#1375=CARTESIAN_POINT('',(0.00403851673464124,2.02846067136017E-5,-0.0762));
#1376=CARTESIAN_POINT('',(0.00403851673464124,2.02846067136017E-5,-0.0635));
#1377=CARTESIAN_POINT('',(0.00174272489448913,0.00797901301603598,-0.0762));
#1378=CARTESIAN_POINT('',(0.00174272489448913,0.00797901301603598,-0.0635));
#1379=CARTESIAN_POINT('',(-1.70658944605911E-19,0.0127,-0.0762));
#1380=CARTESIAN_POINT('',(-1.70658944605911E-19,0.0127,-0.0635));
#1381=CARTESIAN_POINT('',(0.00635,-0.0254,-0.0762));
#1382=CARTESIAN_POINT('',(0.00635,-0.0207463668967014,-0.0762));
#1383=CARTESIAN_POINT('',(0.00551034403944797,-0.0101773841164709,-0.0762));
#1384=CARTESIAN_POINT('',(0.00397318492077873,0.0019367668843239,-0.0762));
#1385=CARTESIAN_POINT('',(-1.70658944605911E-19,0.0127,-0.0762));
#1386=CARTESIAN_POINT('',(0.,-0.009525,-0.0762));
#1387=MECHANICAL_DESIGN_GEOMETRIC_PRESENTATION_REPRESENTATION('',(#756),
#1388);
#1388=(
GEOMETRIC_REPRESENTATION_CONTEXT(3)
GLOBAL_UNCERTAINTY_ASSIGNED_CONTEXT((#1389))
GLOBAL_UNIT_ASSIGNED_CONTEXT((#1392,#1391,#1390))
REPRESENTATION_CONTEXT('Foam Block','TOP_LEVEL_ASSEMBLY_PART')
);
#1389=UNCERTAINTY_MEASURE_WITH_UNIT(LENGTH_MEASURE(2.E-5),#1392,
'DISTANCE_ACCURACY_VALUE','Maximum Tolerance applied to model');
#1390=(
NAMED_UNIT(*)
SI_UNIT($,.STERADIAN.)
SOLID_ANGLE_UNIT()
);
#1391=(
NAMED_UNIT(*)
PLANE_ANGLE_UNIT()
SI_UNIT($,.RADIAN.)
);
#1392=(
LENGTH_UNIT()
NAMED_UNIT(*)
SI_UNIT($,.METRE.)
);
#1393=PRODUCT_DEFINITION_SHAPE('','',#1394);
#1394=PRODUCT_DEFINITION('','',#1396,#1395);
#1395=PRODUCT_DEFINITION_CONTEXT('',#1402,'design');
#1396=PRODUCT_DEFINITION_FORMATION_WITH_SPECIFIED_SOURCE('','',#1398,
 .NOT_KNOWN.);
#1397=PRODUCT_RELATED_PRODUCT_CATEGORY('','',(#1398));
#1398=PRODUCT('Foam Block','Foam Block','Foam Block',(#1400));
#1399=PRODUCT_CATEGORY('','');
#1400=PRODUCT_CONTEXT('',#1402,'mechanical');
#1401=APPLICATION_PROTOCOL_DEFINITION('international standard',
'ap242_managed_model_based_3d_engineering',2020,#1402);
#1402=APPLICATION_CONTEXT('managed model based 3d engineering');
ENDSEC;
END-ISO-10303-21;
