ISO-10303-21;
HEADER;
/* Generated by software containing ST-Developer
 * from STEP Tools, Inc. (www.steptools.com) 
 */
/* OPTION: using custom renumber hook */

FILE_DESCRIPTION(
/* description */ ('STEP AP242 Edition 2',
'CAx-IF Rec.Pracs.---Representation and Presentation of Product Manufa
cturing Information (PMI)---4.0---2014-10-13',
'CAx-IF Rec.Pracs.---3D Tessellated Geometry---0.4---2014-09-14','2;1',
'CAx-IF Rec.Pracs.---User Defined Attributes---1.5---2016-08-15'),
/* implementation_level */ '2;1');

FILE_NAME(
/* name */ 'Wing - Wing',
/* time_stamp */ '2026-08-24T02:45:19Z',
/* author */ (''),
/* organization */ (''),
/* preprocessor_version */ 'ST-DEVELOPER v20',
/* originating_system */ 'ONSHAPE BY PTC INC, 1.219',
/* authorisation */ '  ');

FILE_SCHEMA (('AP242_MANAGED_MODEL_BASED_3D_ENGINEERING_MIM_LF { 1 0 10303 442 3 1 4 }'));
ENDSEC;

DATA;
#10=SHAPE_REPRESENTATION_RELATIONSHIP('','',#703,#11);
#11=ADVANCED_BREP_SHAPE_REPRESENTATION('',(#701),#1189);
#12=B_SPLINE_CURVE_WITH_KNOTS('',3,(#985,#986,#987,#988,#989,#990,#991,
#992,#993,#994,#995,#996,#997,#998,#999),.UNSPECIFIED.,.F.,.F.,(4,1,1,1,
1,1,1,1,1,1,1,1,4),(0.,0.00284618926997387,0.00569237853994774,0.00853856780992161,
0.0113847570798955,0.0170771356198432,0.0199233248898171,0.022769514159791,
0.0256157034297648,0.0284618926997387,0.0341542712396864,0.0398466497796342,
0.0455390283195819),.UNSPECIFIED.);
#13=B_SPLINE_CURVE_WITH_KNOTS('',3,(#1003,#1004,#1005,#1006,#1007),
 .UNSPECIFIED.,.F.,.F.,(4,1,4),(0.,0.218591661106694,0.438113808066033),
 .UNSPECIFIED.);
#14=B_SPLINE_CURVE_WITH_KNOTS('',3,(#1016,#1017,#1018,#1019,#1020,#1021,
#1022,#1023,#1024),.UNSPECIFIED.,.F.,.F.,(4,1,1,1,1,1,4),(0.0448001126321987,
0.0641968404540752,0.0835935682759516,0.102990296097828,0.122387023919704,
0.161180479563457,0.19997393520721),.UNSPECIFIED.);
#15=B_SPLINE_CURVE_WITH_KNOTS('',3,(#1025,#1026,#1027,#1028),
 .UNSPECIFIED.,.F.,.F.,(4,4),(0.438113808066033,1.),
 .PIECEWISE_BEZIER_KNOTS.);
#16=B_SPLINE_CURVE_WITH_KNOTS('',3,(#1060,#1061,#1062,#1063,#1064,#1065,
#1066,#1067,#1068,#1069,#1070,#1071,#1072,#1073,#1074),.UNSPECIFIED.,.F.,
 .F.,(4,1,1,1,1,1,1,1,1,1,1,1,4),(0.,0.00284618926997387,0.00569237853994774,
0.0085385678099216,0.0113847570798955,0.0170771356198432,0.0199233248898171,
0.0227695141597909,0.0256157034297648,0.0284618926997387,0.0341542712396864,
0.0398466497796341,0.0455390283195819),.UNSPECIFIED.);
#17=B_SPLINE_CURVE_WITH_KNOTS('',3,(#1085,#1086,#1087,#1088,#1089,#1090,
#1091,#1092,#1093),.UNSPECIFIED.,.F.,.F.,(4,1,1,1,1,1,4),(0.0448001126322318,
0.0641968404541083,0.0835935682759849,0.102990296097861,0.122387023919738,
0.161180479563491,0.199973935207244),.UNSPECIFIED.);
#18=B_SPLINE_CURVE_WITH_KNOTS('',3,(#1127,#1128,#1129,#1130,#1131),
 .UNSPECIFIED.,.F.,.F.,(4,1,4),(0.,0.218591661106694,0.438113808066033),
 .UNSPECIFIED.);
#19=B_SPLINE_CURVE_WITH_KNOTS('',3,(#1142,#1143,#1144,#1145),
 .UNSPECIFIED.,.F.,.F.,(4,4),(0.438113808066033,1.),
 .PIECEWISE_BEZIER_KNOTS.);
#20=B_SPLINE_SURFACE_WITH_KNOTS('',3,1,((#973,#974),(#975,#976),(#977,#978),
(#979,#980),(#981,#982)),.SURF_OF_LINEAR_EXTRUSION.,.F.,.F.,.F.,(4,1,4),
(2,2),(-1.30253307201699E-14,0.500000000000005,1.00000000000002),(0.,1.),
 .UNSPECIFIED.);
#21=B_SPLINE_SURFACE_WITH_KNOTS('',3,1,((#1008,#1009),(#1010,#1011),(#1012,
#1013),(#1014,#1015)),.SURF_OF_LINEAR_EXTRUSION.,.F.,.F.,.F.,(4,4),(2,2),
(3.85218964323594E-13,1.),(0.,1.),.PIECEWISE_BEZIER_KNOTS.);
#22=B_SPLINE_SURFACE_WITH_KNOTS('',3,1,((#1045,#1046),(#1047,#1048),(#1049,
#1050),(#1051,#1052),(#1053,#1054)),.SURF_OF_LINEAR_EXTRUSION.,.F.,.F.,
 .F.,(4,1,4),(2,2),(1.38780066547388E-16,0.5,1.),(0.,1.),.UNSPECIFIED.);
#23=B_SPLINE_SURFACE_WITH_KNOTS('',3,1,((#1077,#1078),(#1079,#1080),(#1081,
#1082),(#1083,#1084)),.SURF_OF_LINEAR_EXTRUSION.,.F.,.F.,.F.,(4,4),(2,2),
(3.88228204719469E-13,0.999999999999998),(0.,1.),
 .PIECEWISE_BEZIER_KNOTS.);
#24=B_SPLINE_SURFACE_WITH_KNOTS('',3,1,((#1117,#1118),(#1119,#1120),(#1121,
#1122),(#1123,#1124),(#1125,#1126)),.SURF_OF_LINEAR_EXTRUSION.,.F.,.F.,
 .F.,(4,1,4),(2,2),(-9.09172227197222E-15,0.500000000000003,1.00000000000002),
(0.,1.),.UNSPECIFIED.);
#25=B_SPLINE_SURFACE_WITH_KNOTS('',3,1,((#1134,#1135),(#1136,#1137),(#1138,
#1139),(#1140,#1141)),.SURF_OF_LINEAR_EXTRUSION.,.F.,.F.,.F.,(4,4),(2,2),
(3.85101759676542E-13,1.),(0.,1.),.PIECEWISE_BEZIER_KNOTS.);
#26=ORIENTED_EDGE('',*,*,#218,.T.);
#27=ORIENTED_EDGE('',*,*,#219,.T.);
#28=ORIENTED_EDGE('',*,*,#220,.F.);
#29=ORIENTED_EDGE('',*,*,#221,.T.);
#30=ORIENTED_EDGE('',*,*,#222,.T.);
#31=ORIENTED_EDGE('',*,*,#223,.T.);
#32=ORIENTED_EDGE('',*,*,#224,.F.);
#33=ORIENTED_EDGE('',*,*,#225,.T.);
#34=ORIENTED_EDGE('',*,*,#226,.T.);
#35=ORIENTED_EDGE('',*,*,#227,.F.);
#36=ORIENTED_EDGE('',*,*,#228,.F.);
#37=ORIENTED_EDGE('',*,*,#229,.F.);
#38=ORIENTED_EDGE('',*,*,#230,.F.);
#39=ORIENTED_EDGE('',*,*,#231,.T.);
#40=ORIENTED_EDGE('',*,*,#232,.F.);
#41=ORIENTED_EDGE('',*,*,#233,.F.);
#42=ORIENTED_EDGE('',*,*,#234,.F.);
#43=ORIENTED_EDGE('',*,*,#235,.T.);
#44=ORIENTED_EDGE('',*,*,#236,.T.);
#45=ORIENTED_EDGE('',*,*,#237,.F.);
#46=ORIENTED_EDGE('',*,*,#238,.T.);
#47=ORIENTED_EDGE('',*,*,#239,.T.);
#48=ORIENTED_EDGE('',*,*,#240,.F.);
#49=ORIENTED_EDGE('',*,*,#241,.T.);
#50=ORIENTED_EDGE('',*,*,#242,.T.);
#51=ORIENTED_EDGE('',*,*,#243,.T.);
#52=ORIENTED_EDGE('',*,*,#244,.F.);
#53=ORIENTED_EDGE('',*,*,#245,.T.);
#54=ORIENTED_EDGE('',*,*,#244,.T.);
#55=ORIENTED_EDGE('',*,*,#246,.T.);
#56=ORIENTED_EDGE('',*,*,#247,.F.);
#57=ORIENTED_EDGE('',*,*,#248,.T.);
#58=ORIENTED_EDGE('',*,*,#247,.T.);
#59=ORIENTED_EDGE('',*,*,#249,.T.);
#60=ORIENTED_EDGE('',*,*,#250,.T.);
#61=ORIENTED_EDGE('',*,*,#251,.F.);
#62=ORIENTED_EDGE('',*,*,#252,.F.);
#63=ORIENTED_EDGE('',*,*,#253,.F.);
#64=ORIENTED_EDGE('',*,*,#254,.F.);
#65=ORIENTED_EDGE('',*,*,#235,.F.);
#66=ORIENTED_EDGE('',*,*,#255,.F.);
#67=ORIENTED_EDGE('',*,*,#218,.F.);
#68=ORIENTED_EDGE('',*,*,#256,.F.);
#69=ORIENTED_EDGE('',*,*,#257,.T.);
#70=ORIENTED_EDGE('',*,*,#258,.T.);
#71=ORIENTED_EDGE('',*,*,#259,.T.);
#72=ORIENTED_EDGE('',*,*,#260,.F.);
#73=ORIENTED_EDGE('',*,*,#261,.T.);
#74=ORIENTED_EDGE('',*,*,#260,.T.);
#75=ORIENTED_EDGE('',*,*,#262,.T.);
#76=ORIENTED_EDGE('',*,*,#238,.F.);
#77=ORIENTED_EDGE('',*,*,#263,.T.);
#78=ORIENTED_EDGE('',*,*,#240,.T.);
#79=ORIENTED_EDGE('',*,*,#225,.F.);
#80=ORIENTED_EDGE('',*,*,#242,.F.);
#81=ORIENTED_EDGE('',*,*,#264,.T.);
#82=ORIENTED_EDGE('',*,*,#256,.T.);
#83=ORIENTED_EDGE('',*,*,#221,.F.);
#84=ORIENTED_EDGE('',*,*,#258,.F.);
#85=ORIENTED_EDGE('',*,*,#265,.T.);
#86=ORIENTED_EDGE('',*,*,#266,.T.);
#87=ORIENTED_EDGE('',*,*,#267,.T.);
#88=ORIENTED_EDGE('',*,*,#226,.F.);
#89=ORIENTED_EDGE('',*,*,#239,.F.);
#90=ORIENTED_EDGE('',*,*,#224,.T.);
#91=ORIENTED_EDGE('',*,*,#268,.T.);
#92=ORIENTED_EDGE('',*,*,#232,.T.);
#93=ORIENTED_EDGE('',*,*,#269,.T.);
#94=ORIENTED_EDGE('',*,*,#228,.T.);
#95=ORIENTED_EDGE('',*,*,#270,.T.);
#96=ORIENTED_EDGE('',*,*,#271,.F.);
#97=ORIENTED_EDGE('',*,*,#243,.F.);
#98=ORIENTED_EDGE('',*,*,#271,.T.);
#99=ORIENTED_EDGE('',*,*,#272,.T.);
#100=ORIENTED_EDGE('',*,*,#249,.F.);
#101=ORIENTED_EDGE('',*,*,#246,.F.);
#102=ORIENTED_EDGE('',*,*,#220,.T.);
#103=ORIENTED_EDGE('',*,*,#273,.F.);
#104=ORIENTED_EDGE('',*,*,#237,.T.);
#105=ORIENTED_EDGE('',*,*,#274,.T.);
#106=ORIENTED_EDGE('',*,*,#275,.T.);
#107=ORIENTED_EDGE('',*,*,#276,.T.);
#108=ORIENTED_EDGE('',*,*,#277,.F.);
#109=ORIENTED_EDGE('',*,*,#259,.F.);
#110=ORIENTED_EDGE('',*,*,#277,.T.);
#111=ORIENTED_EDGE('',*,*,#278,.T.);
#112=ORIENTED_EDGE('',*,*,#266,.F.);
#113=ORIENTED_EDGE('',*,*,#262,.F.);
#114=ORIENTED_EDGE('',*,*,#279,.F.);
#115=ORIENTED_EDGE('',*,*,#253,.T.);
#116=ORIENTED_EDGE('',*,*,#280,.F.);
#117=ORIENTED_EDGE('',*,*,#275,.F.);
#118=ORIENTED_EDGE('',*,*,#267,.F.);
#119=ORIENTED_EDGE('',*,*,#281,.T.);
#120=ORIENTED_EDGE('',*,*,#282,.F.);
#121=ORIENTED_EDGE('',*,*,#283,.F.);
#122=ORIENTED_EDGE('',*,*,#283,.T.);
#123=ORIENTED_EDGE('',*,*,#284,.F.);
#124=ORIENTED_EDGE('',*,*,#285,.F.);
#125=ORIENTED_EDGE('',*,*,#227,.T.);
#126=ORIENTED_EDGE('',*,*,#270,.F.);
#127=ORIENTED_EDGE('',*,*,#285,.T.);
#128=ORIENTED_EDGE('',*,*,#286,.F.);
#129=ORIENTED_EDGE('',*,*,#287,.F.);
#130=ORIENTED_EDGE('',*,*,#272,.F.);
#131=ORIENTED_EDGE('',*,*,#287,.T.);
#132=ORIENTED_EDGE('',*,*,#288,.F.);
#133=ORIENTED_EDGE('',*,*,#250,.F.);
#134=ORIENTED_EDGE('',*,*,#252,.T.);
#135=ORIENTED_EDGE('',*,*,#289,.F.);
#136=ORIENTED_EDGE('',*,*,#290,.F.);
#137=ORIENTED_EDGE('',*,*,#280,.T.);
#138=ORIENTED_EDGE('',*,*,#276,.F.);
#139=ORIENTED_EDGE('',*,*,#290,.T.);
#140=ORIENTED_EDGE('',*,*,#291,.F.);
#141=ORIENTED_EDGE('',*,*,#292,.F.);
#142=ORIENTED_EDGE('',*,*,#278,.F.);
#143=ORIENTED_EDGE('',*,*,#292,.T.);
#144=ORIENTED_EDGE('',*,*,#293,.F.);
#145=ORIENTED_EDGE('',*,*,#281,.F.);
#146=ORIENTED_EDGE('',*,*,#263,.F.);
#147=ORIENTED_EDGE('',*,*,#241,.F.);
#148=ORIENTED_EDGE('',*,*,#264,.F.);
#149=ORIENTED_EDGE('',*,*,#245,.F.);
#150=ORIENTED_EDGE('',*,*,#248,.F.);
#151=ORIENTED_EDGE('',*,*,#257,.F.);
#152=ORIENTED_EDGE('',*,*,#265,.F.);
#153=ORIENTED_EDGE('',*,*,#261,.F.);
#154=ORIENTED_EDGE('',*,*,#293,.T.);
#155=ORIENTED_EDGE('',*,*,#291,.T.);
#156=ORIENTED_EDGE('',*,*,#289,.T.);
#157=ORIENTED_EDGE('',*,*,#251,.T.);
#158=ORIENTED_EDGE('',*,*,#288,.T.);
#159=ORIENTED_EDGE('',*,*,#286,.T.);
#160=ORIENTED_EDGE('',*,*,#284,.T.);
#161=ORIENTED_EDGE('',*,*,#282,.T.);
#162=ORIENTED_EDGE('',*,*,#269,.F.);
#163=ORIENTED_EDGE('',*,*,#294,.T.);
#164=ORIENTED_EDGE('',*,*,#254,.T.);
#165=ORIENTED_EDGE('',*,*,#295,.F.);
#166=ORIENTED_EDGE('',*,*,#296,.F.);
#167=ORIENTED_EDGE('',*,*,#274,.F.);
#168=ORIENTED_EDGE('',*,*,#297,.T.);
#169=ORIENTED_EDGE('',*,*,#298,.T.);
#170=ORIENTED_EDGE('',*,*,#299,.F.);
#171=ORIENTED_EDGE('',*,*,#298,.F.);
#172=ORIENTED_EDGE('',*,*,#300,.T.);
#173=ORIENTED_EDGE('',*,*,#301,.T.);
#174=ORIENTED_EDGE('',*,*,#302,.F.);
#175=ORIENTED_EDGE('',*,*,#301,.F.);
#176=ORIENTED_EDGE('',*,*,#303,.T.);
#177=ORIENTED_EDGE('',*,*,#230,.T.);
#178=ORIENTED_EDGE('',*,*,#231,.F.);
#179=ORIENTED_EDGE('',*,*,#303,.F.);
#180=ORIENTED_EDGE('',*,*,#300,.F.);
#181=ORIENTED_EDGE('',*,*,#297,.F.);
#182=ORIENTED_EDGE('',*,*,#236,.F.);
#183=ORIENTED_EDGE('',*,*,#294,.F.);
#184=ORIENTED_EDGE('',*,*,#229,.T.);
#185=ORIENTED_EDGE('',*,*,#295,.T.);
#186=ORIENTED_EDGE('',*,*,#279,.T.);
#187=ORIENTED_EDGE('',*,*,#296,.T.);
#188=ORIENTED_EDGE('',*,*,#299,.T.);
#189=ORIENTED_EDGE('',*,*,#302,.T.);
#190=ORIENTED_EDGE('',*,*,#304,.T.);
#191=ORIENTED_EDGE('',*,*,#255,.T.);
#192=ORIENTED_EDGE('',*,*,#305,.F.);
#193=ORIENTED_EDGE('',*,*,#268,.F.);
#194=ORIENTED_EDGE('',*,*,#306,.T.);
#195=ORIENTED_EDGE('',*,*,#307,.F.);
#196=ORIENTED_EDGE('',*,*,#308,.F.);
#197=ORIENTED_EDGE('',*,*,#273,.T.);
#198=ORIENTED_EDGE('',*,*,#309,.T.);
#199=ORIENTED_EDGE('',*,*,#310,.F.);
#200=ORIENTED_EDGE('',*,*,#311,.F.);
#201=ORIENTED_EDGE('',*,*,#307,.T.);
#202=ORIENTED_EDGE('',*,*,#312,.T.);
#203=ORIENTED_EDGE('',*,*,#222,.F.);
#204=ORIENTED_EDGE('',*,*,#313,.F.);
#205=ORIENTED_EDGE('',*,*,#310,.T.);
#206=ORIENTED_EDGE('',*,*,#233,.T.);
#207=ORIENTED_EDGE('',*,*,#305,.T.);
#208=ORIENTED_EDGE('',*,*,#234,.T.);
#209=ORIENTED_EDGE('',*,*,#308,.T.);
#210=ORIENTED_EDGE('',*,*,#311,.T.);
#211=ORIENTED_EDGE('',*,*,#313,.T.);
#212=ORIENTED_EDGE('',*,*,#223,.F.);
#213=ORIENTED_EDGE('',*,*,#312,.F.);
#214=ORIENTED_EDGE('',*,*,#309,.F.);
#215=ORIENTED_EDGE('',*,*,#306,.F.);
#216=ORIENTED_EDGE('',*,*,#219,.F.);
#217=ORIENTED_EDGE('',*,*,#304,.F.);
#218=EDGE_CURVE('',#314,#315,#370,.T.);
#219=EDGE_CURVE('',#315,#316,#371,.T.);
#220=EDGE_CURVE('',#317,#316,#372,.T.);
#221=EDGE_CURVE('',#317,#314,#373,.F.);
#222=EDGE_CURVE('',#318,#319,#374,.T.);
#223=EDGE_CURVE('',#319,#320,#375,.T.);
#224=EDGE_CURVE('',#321,#320,#376,.T.);
#225=EDGE_CURVE('',#321,#322,#377,.F.);
#226=EDGE_CURVE('',#322,#323,#378,.T.);
#227=EDGE_CURVE('',#324,#323,#379,.F.);
#228=EDGE_CURVE('',#325,#324,#380,.T.);
#229=EDGE_CURVE('',#326,#325,#381,.T.);
#230=EDGE_CURVE('',#327,#326,#382,.T.);
#231=EDGE_CURVE('',#327,#328,#383,.T.);
#232=EDGE_CURVE('',#329,#328,#384,.T.);
#233=EDGE_CURVE('',#318,#329,#385,.T.);
#234=EDGE_CURVE('',#330,#331,#386,.T.);
#235=EDGE_CURVE('',#330,#332,#387,.T.);
#236=EDGE_CURVE('',#332,#333,#388,.T.);
#237=EDGE_CURVE('',#331,#333,#389,.T.);
#238=EDGE_CURVE('',#334,#335,#390,.T.);
#239=EDGE_CURVE('',#335,#322,#391,.T.);
#240=EDGE_CURVE('',#336,#322,#392,.T.);
#241=EDGE_CURVE('',#336,#334,#393,.F.);
#242=EDGE_CURVE('',#337,#321,#394,.T.);
#243=EDGE_CURVE('',#321,#338,#395,.T.);
#244=EDGE_CURVE('',#339,#338,#396,.T.);
#245=EDGE_CURVE('',#339,#337,#397,.F.);
#246=EDGE_CURVE('',#338,#340,#398,.T.);
#247=EDGE_CURVE('',#341,#340,#399,.T.);
#248=EDGE_CURVE('',#341,#339,#400,.F.);
#249=EDGE_CURVE('',#340,#342,#401,.T.);
#250=EDGE_CURVE('',#342,#343,#402,.T.);
#251=EDGE_CURVE('',#344,#343,#403,.T.);
#252=EDGE_CURVE('',#345,#344,#404,.T.);
#253=EDGE_CURVE('',#346,#345,#405,.T.);
#254=EDGE_CURVE('',#332,#346,#406,.T.);
#255=EDGE_CURVE('',#315,#330,#407,.T.);
#256=EDGE_CURVE('',#347,#314,#408,.T.);
#257=EDGE_CURVE('',#347,#341,#409,.T.);
#258=EDGE_CURVE('',#348,#317,#410,.T.);
#259=EDGE_CURVE('',#317,#349,#12,.T.);
#260=EDGE_CURVE('',#350,#349,#411,.T.);
#261=EDGE_CURVE('',#350,#348,#13,.F.);
#262=EDGE_CURVE('',#349,#335,#14,.T.);
#263=EDGE_CURVE('',#334,#350,#15,.F.);
#264=EDGE_CURVE('',#337,#336,#412,.F.);
#265=EDGE_CURVE('',#348,#347,#413,.F.);
#266=EDGE_CURVE('',#335,#351,#414,.T.);
#267=EDGE_CURVE('',#351,#323,#415,.T.);
#268=EDGE_CURVE('',#320,#329,#416,.T.);
#269=EDGE_CURVE('',#328,#325,#417,.T.);
#270=EDGE_CURVE('',#324,#352,#418,.T.);
#271=EDGE_CURVE('',#338,#352,#419,.T.);
#272=EDGE_CURVE('',#352,#342,#420,.T.);
#273=EDGE_CURVE('',#331,#316,#421,.T.);
#274=EDGE_CURVE('',#333,#353,#422,.T.);
#275=EDGE_CURVE('',#353,#354,#423,.T.);
#276=EDGE_CURVE('',#354,#355,#16,.T.);
#277=EDGE_CURVE('',#349,#355,#424,.T.);
#278=EDGE_CURVE('',#355,#351,#17,.T.);
#279=EDGE_CURVE('',#346,#353,#425,.T.);
#280=EDGE_CURVE('',#354,#345,#426,.F.);
#281=EDGE_CURVE('',#351,#356,#427,.T.);
#282=EDGE_CURVE('',#357,#356,#428,.F.);
#283=EDGE_CURVE('',#323,#357,#429,.T.);
#284=EDGE_CURVE('',#358,#357,#430,.F.);
#285=EDGE_CURVE('',#324,#358,#431,.T.);
#286=EDGE_CURVE('',#359,#358,#432,.F.);
#287=EDGE_CURVE('',#352,#359,#433,.T.);
#288=EDGE_CURVE('',#343,#359,#434,.F.);
#289=EDGE_CURVE('',#360,#344,#435,.F.);
#290=EDGE_CURVE('',#354,#360,#436,.T.);
#291=EDGE_CURVE('',#361,#360,#18,.F.);
#292=EDGE_CURVE('',#355,#361,#437,.T.);
#293=EDGE_CURVE('',#356,#361,#19,.F.);
#294=EDGE_CURVE('',#328,#332,#438,.T.);
#295=EDGE_CURVE('',#325,#346,#439,.T.);
#296=EDGE_CURVE('',#353,#362,#440,.T.);
#297=EDGE_CURVE('',#333,#363,#441,.T.);
#298=EDGE_CURVE('',#363,#362,#442,.T.);
#299=EDGE_CURVE('',#362,#364,#443,.T.);
#300=EDGE_CURVE('',#363,#365,#444,.T.);
#301=EDGE_CURVE('',#365,#364,#445,.T.);
#302=EDGE_CURVE('',#364,#326,#446,.T.);
#303=EDGE_CURVE('',#365,#327,#447,.T.);
#304=EDGE_CURVE('',#320,#315,#448,.T.);
#305=EDGE_CURVE('',#329,#330,#449,.T.);
#306=EDGE_CURVE('',#316,#366,#450,.T.);
#307=EDGE_CURVE('',#367,#366,#451,.T.);
#308=EDGE_CURVE('',#331,#367,#452,.T.);
#309=EDGE_CURVE('',#366,#368,#453,.T.);
#310=EDGE_CURVE('',#369,#368,#454,.T.);
#311=EDGE_CURVE('',#367,#369,#455,.T.);
#312=EDGE_CURVE('',#368,#319,#456,.T.);
#313=EDGE_CURVE('',#369,#318,#457,.T.);
#314=VERTEX_POINT('',#894);
#315=VERTEX_POINT('',#895);
#316=VERTEX_POINT('',#897);
#317=VERTEX_POINT('',#899);
#318=VERTEX_POINT('',#903);
#319=VERTEX_POINT('',#904);
#320=VERTEX_POINT('',#906);
#321=VERTEX_POINT('',#908);
#322=VERTEX_POINT('',#910);
#323=VERTEX_POINT('',#912);
#324=VERTEX_POINT('',#914);
#325=VERTEX_POINT('',#916);
#326=VERTEX_POINT('',#918);
#327=VERTEX_POINT('',#920);
#328=VERTEX_POINT('',#922);
#329=VERTEX_POINT('',#924);
#330=VERTEX_POINT('',#928);
#331=VERTEX_POINT('',#929);
#332=VERTEX_POINT('',#931);
#333=VERTEX_POINT('',#933);
#334=VERTEX_POINT('',#937);
#335=VERTEX_POINT('',#938);
#336=VERTEX_POINT('',#941);
#337=VERTEX_POINT('',#945);
#338=VERTEX_POINT('',#947);
#339=VERTEX_POINT('',#949);
#340=VERTEX_POINT('',#953);
#341=VERTEX_POINT('',#955);
#342=VERTEX_POINT('',#959);
#343=VERTEX_POINT('',#961);
#344=VERTEX_POINT('',#963);
#345=VERTEX_POINT('',#965);
#346=VERTEX_POINT('',#967);
#347=VERTEX_POINT('',#971);
#348=VERTEX_POINT('',#984);
#349=VERTEX_POINT('',#1000);
#350=VERTEX_POINT('',#1002);
#351=VERTEX_POINT('',#1035);
#352=VERTEX_POINT('',#1041);
#353=VERTEX_POINT('',#1057);
#354=VERTEX_POINT('',#1059);
#355=VERTEX_POINT('',#1075);
#356=VERTEX_POINT('',#1099);
#357=VERTEX_POINT('',#1101);
#358=VERTEX_POINT('',#1105);
#359=VERTEX_POINT('',#1109);
#360=VERTEX_POINT('',#1115);
#361=VERTEX_POINT('',#1132);
#362=VERTEX_POINT('',#1153);
#363=VERTEX_POINT('',#1155);
#364=VERTEX_POINT('',#1159);
#365=VERTEX_POINT('',#1161);
#366=VERTEX_POINT('',#1173);
#367=VERTEX_POINT('',#1175);
#368=VERTEX_POINT('',#1179);
#369=VERTEX_POINT('',#1181);
#370=LINE('',#893,#458);
#371=LINE('',#896,#459);
#372=LINE('',#898,#460);
#373=LINE('',#900,#461);
#374=LINE('',#902,#462);
#375=LINE('',#905,#463);
#376=LINE('',#907,#464);
#377=LINE('',#909,#465);
#378=LINE('',#911,#466);
#379=LINE('',#913,#467);
#380=LINE('',#915,#468);
#381=LINE('',#917,#469);
#382=LINE('',#919,#470);
#383=LINE('',#921,#471);
#384=LINE('',#923,#472);
#385=LINE('',#925,#473);
#386=LINE('',#927,#474);
#387=LINE('',#930,#475);
#388=LINE('',#932,#476);
#389=LINE('',#934,#477);
#390=LINE('',#936,#478);
#391=LINE('',#939,#479);
#392=LINE('',#940,#480);
#393=LINE('',#942,#481);
#394=LINE('',#944,#482);
#395=LINE('',#946,#483);
#396=LINE('',#948,#484);
#397=LINE('',#950,#485);
#398=LINE('',#952,#486);
#399=LINE('',#954,#487);
#400=LINE('',#956,#488);
#401=LINE('',#958,#489);
#402=LINE('',#960,#490);
#403=LINE('',#962,#491);
#404=LINE('',#964,#492);
#405=LINE('',#966,#493);
#406=LINE('',#968,#494);
#407=LINE('',#969,#495);
#408=LINE('',#970,#496);
#409=LINE('',#972,#497);
#410=LINE('',#983,#498);
#411=LINE('',#1001,#499);
#412=LINE('',#1030,#500);
#413=LINE('',#1032,#501);
#414=LINE('',#1034,#502);
#415=LINE('',#1036,#503);
#416=LINE('',#1038,#504);
#417=LINE('',#1039,#505);
#418=LINE('',#1040,#506);
#419=LINE('',#1042,#507);
#420=LINE('',#1044,#508);
#421=LINE('',#1055,#509);
#422=LINE('',#1056,#510);
#423=LINE('',#1058,#511);
#424=LINE('',#1076,#512);
#425=LINE('',#1095,#513);
#426=LINE('',#1096,#514);
#427=LINE('',#1098,#515);
#428=LINE('',#1100,#516);
#429=LINE('',#1102,#517);
#430=LINE('',#1104,#518);
#431=LINE('',#1106,#519);
#432=LINE('',#1108,#520);
#433=LINE('',#1110,#521);
#434=LINE('',#1112,#522);
#435=LINE('',#1114,#523);
#436=LINE('',#1116,#524);
#437=LINE('',#1133,#525);
#438=LINE('',#1149,#526);
#439=LINE('',#1150,#527);
#440=LINE('',#1152,#528);
#441=LINE('',#1154,#529);
#442=LINE('',#1156,#530);
#443=LINE('',#1158,#531);
#444=LINE('',#1160,#532);
#445=LINE('',#1162,#533);
#446=LINE('',#1164,#534);
#447=LINE('',#1165,#535);
#448=LINE('',#1169,#536);
#449=LINE('',#1170,#537);
#450=LINE('',#1172,#538);
#451=LINE('',#1174,#539);
#452=LINE('',#1176,#540);
#453=LINE('',#1178,#541);
#454=LINE('',#1180,#542);
#455=LINE('',#1182,#543);
#456=LINE('',#1184,#544);
#457=LINE('',#1185,#545);
#458=VECTOR('',#741,1.);
#459=VECTOR('',#742,1.);
#460=VECTOR('',#743,1.);
#461=VECTOR('',#744,1.);
#462=VECTOR('',#747,1.);
#463=VECTOR('',#748,1.);
#464=VECTOR('',#749,1.);
#465=VECTOR('',#750,1.);
#466=VECTOR('',#751,1.);
#467=VECTOR('',#752,1.);
#468=VECTOR('',#753,1.);
#469=VECTOR('',#754,1.);
#470=VECTOR('',#755,1.);
#471=VECTOR('',#756,1.);
#472=VECTOR('',#757,1.);
#473=VECTOR('',#758,1.);
#474=VECTOR('',#761,1.);
#475=VECTOR('',#762,1.);
#476=VECTOR('',#763,1.);
#477=VECTOR('',#764,1.);
#478=VECTOR('',#767,1.);
#479=VECTOR('',#768,1.);
#480=VECTOR('',#769,1.);
#481=VECTOR('',#770,1.);
#482=VECTOR('',#773,1.);
#483=VECTOR('',#774,1.);
#484=VECTOR('',#775,1.);
#485=VECTOR('',#776,1.);
#486=VECTOR('',#779,1.);
#487=VECTOR('',#780,1.);
#488=VECTOR('',#781,1.);
#489=VECTOR('',#784,1.);
#490=VECTOR('',#785,1.);
#491=VECTOR('',#786,1.);
#492=VECTOR('',#787,1.);
#493=VECTOR('',#788,1.);
#494=VECTOR('',#789,1.);
#495=VECTOR('',#790,1.);
#496=VECTOR('',#791,1.);
#497=VECTOR('',#792,1.);
#498=VECTOR('',#793,1.);
#499=VECTOR('',#794,1.);
#500=VECTOR('',#797,1.);
#501=VECTOR('',#800,1.);
#502=VECTOR('',#803,1.);
#503=VECTOR('',#804,1.);
#504=VECTOR('',#807,1.);
#505=VECTOR('',#808,1.);
#506=VECTOR('',#809,1.);
#507=VECTOR('',#810,1.);
#508=VECTOR('',#813,1.);
#509=VECTOR('',#814,1.);
#510=VECTOR('',#815,1.);
#511=VECTOR('',#816,1.);
#512=VECTOR('',#817,1.);
#513=VECTOR('',#820,1.);
#514=VECTOR('',#821,1.);
#515=VECTOR('',#824,1.);
#516=VECTOR('',#825,1.);
#517=VECTOR('',#826,1.);
#518=VECTOR('',#829,1.);
#519=VECTOR('',#830,1.);
#520=VECTOR('',#833,1.);
#521=VECTOR('',#834,1.);
#522=VECTOR('',#837,1.);
#523=VECTOR('',#840,1.);
#524=VECTOR('',#841,1.);
#525=VECTOR('',#842,1.);
#526=VECTOR('',#849,1.);
#527=VECTOR('',#850,1.);
#528=VECTOR('',#853,1.);
#529=VECTOR('',#854,1.);
#530=VECTOR('',#855,1.);
#531=VECTOR('',#858,1.);
#532=VECTOR('',#859,1.);
#533=VECTOR('',#860,1.);
#534=VECTOR('',#863,1.);
#535=VECTOR('',#864,1.);
#536=VECTOR('',#871,1.);
#537=VECTOR('',#872,1.);
#538=VECTOR('',#875,1.);
#539=VECTOR('',#876,1.);
#540=VECTOR('',#877,1.);
#541=VECTOR('',#880,1.);
#542=VECTOR('',#881,1.);
#543=VECTOR('',#882,1.);
#544=VECTOR('',#885,1.);
#545=VECTOR('',#886,1.);
#546=EDGE_LOOP('',(#26,#27,#28,#29));
#547=EDGE_LOOP('',(#30,#31,#32,#33,#34,#35,#36,#37,#38,#39,#40,#41));
#548=EDGE_LOOP('',(#42,#43,#44,#45));
#549=EDGE_LOOP('',(#46,#47,#48,#49));
#550=EDGE_LOOP('',(#50,#51,#52,#53));
#551=EDGE_LOOP('',(#54,#55,#56,#57));
#552=EDGE_LOOP('',(#58,#59,#60,#61,#62,#63,#64,#65,#66,#67,#68,#69));
#553=EDGE_LOOP('',(#70,#71,#72,#73));
#554=EDGE_LOOP('',(#74,#75,#76,#77));
#555=EDGE_LOOP('',(#78,#79,#80,#81));
#556=EDGE_LOOP('',(#82,#83,#84,#85));
#557=EDGE_LOOP('',(#86,#87,#88,#89));
#558=EDGE_LOOP('',(#90,#91,#92,#93,#94,#95,#96,#97));
#559=EDGE_LOOP('',(#98,#99,#100,#101));
#560=EDGE_LOOP('',(#102,#103,#104,#105,#106,#107,#108,#109));
#561=EDGE_LOOP('',(#110,#111,#112,#113));
#562=EDGE_LOOP('',(#114,#115,#116,#117));
#563=EDGE_LOOP('',(#118,#119,#120,#121));
#564=EDGE_LOOP('',(#122,#123,#124,#125));
#565=EDGE_LOOP('',(#126,#127,#128,#129));
#566=EDGE_LOOP('',(#130,#131,#132,#133));
#567=EDGE_LOOP('',(#134,#135,#136,#137));
#568=EDGE_LOOP('',(#138,#139,#140,#141));
#569=EDGE_LOOP('',(#142,#143,#144,#145));
#570=EDGE_LOOP('',(#146,#147,#148,#149,#150,#151,#152,#153));
#571=EDGE_LOOP('',(#154,#155,#156,#157,#158,#159,#160,#161));
#572=EDGE_LOOP('',(#162,#163,#164,#165));
#573=EDGE_LOOP('',(#166,#167,#168,#169));
#574=EDGE_LOOP('',(#170,#171,#172,#173));
#575=EDGE_LOOP('',(#174,#175,#176,#177));
#576=EDGE_LOOP('',(#178,#179,#180,#181,#182,#183));
#577=EDGE_LOOP('',(#184,#185,#186,#187,#188,#189));
#578=EDGE_LOOP('',(#190,#191,#192,#193));
#579=EDGE_LOOP('',(#194,#195,#196,#197));
#580=EDGE_LOOP('',(#198,#199,#200,#201));
#581=EDGE_LOOP('',(#202,#203,#204,#205));
#582=EDGE_LOOP('',(#206,#207,#208,#209,#210,#211));
#583=EDGE_LOOP('',(#212,#213,#214,#215,#216,#217));
#584=FACE_BOUND('',#546,.T.);
#585=FACE_BOUND('',#547,.T.);
#586=FACE_BOUND('',#548,.T.);
#587=FACE_BOUND('',#549,.T.);
#588=FACE_BOUND('',#550,.T.);
#589=FACE_BOUND('',#551,.T.);
#590=FACE_BOUND('',#552,.T.);
#591=FACE_BOUND('',#553,.T.);
#592=FACE_BOUND('',#554,.T.);
#593=FACE_BOUND('',#555,.T.);
#594=FACE_BOUND('',#556,.T.);
#595=FACE_BOUND('',#557,.T.);
#596=FACE_BOUND('',#558,.T.);
#597=FACE_BOUND('',#559,.T.);
#598=FACE_BOUND('',#560,.T.);
#599=FACE_BOUND('',#561,.T.);
#600=FACE_BOUND('',#562,.T.);
#601=FACE_BOUND('',#563,.T.);
#602=FACE_BOUND('',#564,.T.);
#603=FACE_BOUND('',#565,.T.);
#604=FACE_BOUND('',#566,.T.);
#605=FACE_BOUND('',#567,.T.);
#606=FACE_BOUND('',#568,.T.);
#607=FACE_BOUND('',#569,.T.);
#608=FACE_BOUND('',#570,.T.);
#609=FACE_BOUND('',#571,.T.);
#610=FACE_BOUND('',#572,.T.);
#611=FACE_BOUND('',#573,.T.);
#612=FACE_BOUND('',#574,.T.);
#613=FACE_BOUND('',#575,.T.);
#614=FACE_BOUND('',#576,.T.);
#615=FACE_BOUND('',#577,.T.);
#616=FACE_BOUND('',#578,.T.);
#617=FACE_BOUND('',#579,.T.);
#618=FACE_BOUND('',#580,.T.);
#619=FACE_BOUND('',#581,.T.);
#620=FACE_BOUND('',#582,.T.);
#621=FACE_BOUND('',#583,.T.);
#622=PLANE('',#705);
#623=PLANE('',#706);
#624=PLANE('',#707);
#625=PLANE('',#708);
#626=PLANE('',#709);
#627=PLANE('',#710);
#628=PLANE('',#711);
#629=PLANE('',#712);
#630=PLANE('',#713);
#631=PLANE('',#714);
#632=PLANE('',#715);
#633=PLANE('',#716);
#634=PLANE('',#717);
#635=PLANE('',#718);
#636=PLANE('',#719);
#637=PLANE('',#720);
#638=PLANE('',#721);
#639=PLANE('',#722);
#640=PLANE('',#723);
#641=PLANE('',#724);
#642=PLANE('',#725);
#643=PLANE('',#726);
#644=PLANE('',#727);
#645=PLANE('',#728);
#646=PLANE('',#729);
#647=PLANE('',#730);
#648=PLANE('',#731);
#649=PLANE('',#732);
#650=PLANE('',#733);
#651=PLANE('',#734);
#652=PLANE('',#735);
#653=PLANE('',#736);
#654=ADVANCED_FACE('',(#584),#622,.T.);
#655=ADVANCED_FACE('',(#585),#623,.T.);
#656=ADVANCED_FACE('',(#586),#624,.T.);
#657=ADVANCED_FACE('',(#587),#625,.T.);
#658=ADVANCED_FACE('',(#588),#626,.T.);
#659=ADVANCED_FACE('',(#589),#627,.T.);
#660=ADVANCED_FACE('',(#590),#628,.T.);
#661=ADVANCED_FACE('',(#591),#20,.T.);
#662=ADVANCED_FACE('',(#592),#21,.T.);
#663=ADVANCED_FACE('',(#593),#629,.T.);
#664=ADVANCED_FACE('',(#594),#630,.T.);
#665=ADVANCED_FACE('',(#595),#631,.T.);
#666=ADVANCED_FACE('',(#596),#632,.T.);
#667=ADVANCED_FACE('',(#597),#633,.T.);
#668=ADVANCED_FACE('',(#598),#22,.T.);
#669=ADVANCED_FACE('',(#599),#23,.T.);
#670=ADVANCED_FACE('',(#600),#634,.T.);
#671=ADVANCED_FACE('',(#601),#635,.T.);
#672=ADVANCED_FACE('',(#602),#636,.T.);
#673=ADVANCED_FACE('',(#603),#637,.T.);
#674=ADVANCED_FACE('',(#604),#638,.T.);
#675=ADVANCED_FACE('',(#605),#639,.T.);
#676=ADVANCED_FACE('',(#606),#24,.T.);
#677=ADVANCED_FACE('',(#607),#25,.T.);
#678=ADVANCED_FACE('',(#608),#640,.F.);
#679=ADVANCED_FACE('',(#609),#641,.T.);
#680=ADVANCED_FACE('',(#610),#642,.T.);
#681=ADVANCED_FACE('',(#611),#643,.T.);
#682=ADVANCED_FACE('',(#612),#644,.T.);
#683=ADVANCED_FACE('',(#613),#645,.T.);
#684=ADVANCED_FACE('',(#614),#646,.F.);
#685=ADVANCED_FACE('',(#615),#647,.T.);
#686=ADVANCED_FACE('',(#616),#648,.F.);
#687=ADVANCED_FACE('',(#617),#649,.F.);
#688=ADVANCED_FACE('',(#618),#650,.F.);
#689=ADVANCED_FACE('',(#619),#651,.F.);
#690=ADVANCED_FACE('',(#620),#652,.T.);
#691=ADVANCED_FACE('',(#621),#653,.F.);
#692=CLOSED_SHELL('',(#654,#655,#656,#657,#658,#659,#660,#661,#662,#663,
#664,#665,#666,#667,#668,#669,#670,#671,#672,#673,#674,#675,#676,#677,#678,
#679,#680,#681,#682,#683,#684,#685,#686,#687,#688,#689,#690,#691));
#693=STYLED_ITEM('',(#694),#701);
#694=PRESENTATION_STYLE_ASSIGNMENT((#695));
#695=SURFACE_STYLE_USAGE(.BOTH.,#696);
#696=SURFACE_SIDE_STYLE('',(#697));
#697=SURFACE_STYLE_FILL_AREA(#698);
#698=FILL_AREA_STYLE('',(#699));
#699=FILL_AREA_STYLE_COLOUR('',#700);
#700=COLOUR_RGB('',0.901960784313726,0.901960784313726,0.901960784313726);
#701=MANIFOLD_SOLID_BREP('Wing',#692);
#702=SHAPE_DEFINITION_REPRESENTATION(#1194,#703);
#703=SHAPE_REPRESENTATION('Wing',(#704),#1189);
#704=AXIS2_PLACEMENT_3D('',#891,#737,#738);
#705=AXIS2_PLACEMENT_3D('',#892,#739,#740);
#706=AXIS2_PLACEMENT_3D('',#901,#745,#746);
#707=AXIS2_PLACEMENT_3D('',#926,#759,#760);
#708=AXIS2_PLACEMENT_3D('',#935,#765,#766);
#709=AXIS2_PLACEMENT_3D('',#943,#771,#772);
#710=AXIS2_PLACEMENT_3D('',#951,#777,#778);
#711=AXIS2_PLACEMENT_3D('',#957,#782,#783);
#712=AXIS2_PLACEMENT_3D('',#1029,#795,#796);
#713=AXIS2_PLACEMENT_3D('',#1031,#798,#799);
#714=AXIS2_PLACEMENT_3D('',#1033,#801,#802);
#715=AXIS2_PLACEMENT_3D('',#1037,#805,#806);
#716=AXIS2_PLACEMENT_3D('',#1043,#811,#812);
#717=AXIS2_PLACEMENT_3D('',#1094,#818,#819);
#718=AXIS2_PLACEMENT_3D('',#1097,#822,#823);
#719=AXIS2_PLACEMENT_3D('',#1103,#827,#828);
#720=AXIS2_PLACEMENT_3D('',#1107,#831,#832);
#721=AXIS2_PLACEMENT_3D('',#1111,#835,#836);
#722=AXIS2_PLACEMENT_3D('',#1113,#838,#839);
#723=AXIS2_PLACEMENT_3D('',#1146,#843,#844);
#724=AXIS2_PLACEMENT_3D('',#1147,#845,#846);
#725=AXIS2_PLACEMENT_3D('',#1148,#847,#848);
#726=AXIS2_PLACEMENT_3D('',#1151,#851,#852);
#727=AXIS2_PLACEMENT_3D('',#1157,#856,#857);
#728=AXIS2_PLACEMENT_3D('',#1163,#861,#862);
#729=AXIS2_PLACEMENT_3D('',#1166,#865,#866);
#730=AXIS2_PLACEMENT_3D('',#1167,#867,#868);
#731=AXIS2_PLACEMENT_3D('',#1168,#869,#870);
#732=AXIS2_PLACEMENT_3D('',#1171,#873,#874);
#733=AXIS2_PLACEMENT_3D('',#1177,#878,#879);
#734=AXIS2_PLACEMENT_3D('',#1183,#883,#884);
#735=AXIS2_PLACEMENT_3D('',#1186,#887,#888);
#736=AXIS2_PLACEMENT_3D('',#1187,#889,#890);
#737=DIRECTION('',(0.,0.,1.));
#738=DIRECTION('',(1.,0.,0.));
#739=DIRECTION('',(0.,0.,-1.));
#740=DIRECTION('',(-1.,0.,0.));
#741=DIRECTION('',(1.,0.,0.));
#742=DIRECTION('',(0.,-1.,0.));
#743=DIRECTION('',(1.,0.,0.));
#744=DIRECTION('',(0.,-1.,0.));
#745=DIRECTION('',(0.,1.22464679914735E-16,-1.));
#746=DIRECTION('',(0.,1.,1.22464679914735E-16));
#747=DIRECTION('',(-1.,0.,0.));
#748=DIRECTION('',(0.,-1.,0.));
#749=DIRECTION('',(1.,0.,0.));
#750=DIRECTION('',(-2.12657684957577E-17,-1.,-1.2060416625019E-16));
#751=DIRECTION('',(1.,0.,0.));
#752=DIRECTION('',(0.,-1.,-1.22464679914735E-16));
#753=DIRECTION('',(1.,0.,0.));
#754=DIRECTION('',(0.,-1.,0.));
#755=DIRECTION('',(1.,0.,0.));
#756=DIRECTION('',(0.,-1.,0.));
#757=DIRECTION('',(1.,0.,0.));
#758=DIRECTION('',(0.,-1.,0.));
#759=DIRECTION('',(0.,0.,-1.));
#760=DIRECTION('',(-1.,0.,0.));
#761=DIRECTION('',(0.,-1.,0.));
#762=DIRECTION('',(1.,0.,0.));
#763=DIRECTION('',(0.,-1.,0.));
#764=DIRECTION('',(1.,0.,0.));
#765=DIRECTION('',(0.172935040453992,0.0905357460425184,0.980763350901582));
#766=DIRECTION('',(0.984807753012208,0.,-0.17364817766693));
#767=DIRECTION('',(0.984807753012208,0.,-0.17364817766693));
#768=DIRECTION('',(-0.0079206029576112,0.995861966823927,-0.0905329060749024));
#769=DIRECTION('',(0.984807753012208,0.,-0.17364817766693));
#770=DIRECTION('',(-0.0157213673139993,0.995893206467704,-0.0891603046274165));
#771=DIRECTION('',(-0.0776578258864433,-0.894427190999916,-0.440419416100824));
#772=DIRECTION('',(0.,0.4417534802228,-0.897136479422749));
#773=DIRECTION('',(0.984807753012208,0.,-0.17364817766693));
#774=DIRECTION('',(0.078013748896889,-0.445850615112967,0.891701230225933));
#775=DIRECTION('',(0.984807753012208,0.,-0.17364817766693));
#776=DIRECTION('',(0.155315651772887,-0.447213595499958,0.880838832201648));
#777=DIRECTION('',(-0.17364817766693,0.,-0.984807753012208));
#778=DIRECTION('',(-0.984807753012208,0.,0.17364817766693));
#779=DIRECTION('',(0.,-1.,0.));
#780=DIRECTION('',(0.984807753012208,0.,-0.17364817766693));
#781=DIRECTION('',(0.,-1.,0.));
#782=DIRECTION('',(0.,1.,0.));
#783=DIRECTION('',(0.,0.,1.));
#784=DIRECTION('',(1.,0.,0.));
#785=DIRECTION('',(0.984807753012208,0.,0.17364817766693));
#786=DIRECTION('',(-0.17364817766693,0.,0.984807753012208));
#787=DIRECTION('',(0.984807753012208,0.,0.17364817766693));
#788=DIRECTION('',(1.,0.,0.));
#789=DIRECTION('',(1.,0.,0.));
#790=DIRECTION('',(1.,0.,0.));
#791=DIRECTION('',(0.984807753012208,0.,-0.17364817766693));
#792=DIRECTION('',(0.17364817766693,0.,0.984807753012208));
#793=DIRECTION('',(0.984807753012208,0.,-0.17364817766693));
#794=DIRECTION('',(0.984807753012208,0.,-0.17364817766693));
#795=DIRECTION('',(-0.17364817766693,1.22464679914735E-16,-0.984807753012208));
#796=DIRECTION('',(-0.984807753012208,0.,0.17364817766693));
#797=DIRECTION('',(-2.12657684957577E-17,-1.,-1.2060416625019E-16));
#798=DIRECTION('',(-0.17364817766693,0.,-0.984807753012208));
#799=DIRECTION('',(-0.984807753012208,0.,0.17364817766693));
#800=DIRECTION('',(0.,-1.,0.));
#801=DIRECTION('',(0.,0.0905357460425184,0.995893206467704));
#802=DIRECTION('',(0.,-0.995893206467704,0.0905357460425184));
#803=DIRECTION('',(1.,0.,0.));
#804=DIRECTION('',(0.00792060295761122,0.995861966823927,-0.0905329060749024));
#805=DIRECTION('',(0.,-0.894427190999916,-0.447213595499958));
#806=DIRECTION('',(0.,0.447213595499958,-0.894427190999916));
#807=DIRECTION('',(1.,0.,0.));
#808=DIRECTION('',(1.,0.,0.));
#809=DIRECTION('',(-0.0780137488968892,-0.445850615112967,0.891701230225933));
#810=DIRECTION('',(1.,0.,0.));
#811=DIRECTION('',(0.,0.,-1.));
#812=DIRECTION('',(-1.,0.,0.));
#813=DIRECTION('',(0.,-1.,0.));
#814=DIRECTION('',(-1.,0.,0.));
#815=DIRECTION('',(1.,0.,0.));
#816=DIRECTION('',(1.,0.,0.));
#817=DIRECTION('',(1.,0.,0.));
#818=DIRECTION('',(0.,0.,-1.));
#819=DIRECTION('',(-1.,0.,0.));
#820=DIRECTION('',(0.,-1.,0.));
#821=DIRECTION('',(0.,-1.,0.));
#822=DIRECTION('',(-0.172935040453993,0.0905357460425184,0.980763350901583));
#823=DIRECTION('',(0.984807753012208,0.,0.17364817766693));
#824=DIRECTION('',(0.984807753012208,0.,0.17364817766693));
#825=DIRECTION('',(0.0157213673139994,0.995893206467704,-0.0891603046274165));
#826=DIRECTION('',(0.984807753012208,0.,0.17364817766693));
#827=DIRECTION('',(0.17364817766693,1.22464679914735E-16,-0.984807753012208));
#828=DIRECTION('',(-0.984807753012208,0.,-0.17364817766693));
#829=DIRECTION('',(2.12657684957577E-17,-1.,-1.2060416625019E-16));
#830=DIRECTION('',(0.984807753012208,0.,0.17364817766693));
#831=DIRECTION('',(0.0776578258864435,-0.894427190999916,-0.440419416100824));
#832=DIRECTION('',(0.,0.4417534802228,-0.897136479422749));
#833=DIRECTION('',(-0.155315651772887,-0.447213595499958,0.880838832201648));
#834=DIRECTION('',(0.984807753012208,0.,0.17364817766693));
#835=DIRECTION('',(0.17364817766693,0.,-0.984807753012208));
#836=DIRECTION('',(-0.984807753012208,0.,-0.17364817766693));
#837=DIRECTION('',(0.,-1.,0.));
#838=DIRECTION('',(0.17364817766693,0.,-0.984807753012208));
#839=DIRECTION('',(-0.984807753012208,0.,-0.17364817766693));
#840=DIRECTION('',(0.,-1.,0.));
#841=DIRECTION('',(0.984807753012208,0.,0.17364817766693));
#842=DIRECTION('',(0.984807753012208,0.,0.17364817766693));
#843=DIRECTION('',(0.984807753012208,0.,-0.17364817766693));
#844=DIRECTION('',(0.,1.,0.));
#845=DIRECTION('',(0.984807753012208,0.,0.17364817766693));
#846=DIRECTION('',(0.,1.,0.));
#847=DIRECTION('',(0.,0.,1.));
#848=DIRECTION('',(1.,0.,0.));
#849=DIRECTION('',(0.,-1.,0.));
#850=DIRECTION('',(0.,-1.,0.));
#851=DIRECTION('',(0.,-1.,0.));
#852=DIRECTION('',(0.,0.,-1.));
#853=DIRECTION('',(0.,0.,-1.));
#854=DIRECTION('',(0.,0.,-1.));
#855=DIRECTION('',(1.,0.,0.));
#856=DIRECTION('',(0.,0.,-1.));
#857=DIRECTION('',(-1.,0.,0.));
#858=DIRECTION('',(0.,1.,0.));
#859=DIRECTION('',(0.,1.,0.));
#860=DIRECTION('',(1.,0.,0.));
#861=DIRECTION('',(0.,1.,0.));
#862=DIRECTION('',(0.,0.,1.));
#863=DIRECTION('',(0.,0.,1.));
#864=DIRECTION('',(0.,0.,1.));
#865=DIRECTION('',(1.,0.,0.));
#866=DIRECTION('',(0.,1.,0.));
#867=DIRECTION('',(1.,0.,0.));
#868=DIRECTION('',(0.,1.,0.));
#869=DIRECTION('',(0.,0.,-1.));
#870=DIRECTION('',(-1.,0.,0.));
#871=DIRECTION('',(0.,-1.,0.));
#872=DIRECTION('',(0.,-1.,0.));
#873=DIRECTION('',(0.,1.,0.));
#874=DIRECTION('',(0.,0.,1.));
#875=DIRECTION('',(0.,0.,-1.));
#876=DIRECTION('',(-1.,0.,0.));
#877=DIRECTION('',(0.,0.,-1.));
#878=DIRECTION('',(0.,0.,1.));
#879=DIRECTION('',(1.,0.,0.));
#880=DIRECTION('',(0.,1.,0.));
#881=DIRECTION('',(-1.,0.,0.));
#882=DIRECTION('',(0.,1.,0.));
#883=DIRECTION('',(0.,-1.,0.));
#884=DIRECTION('',(0.,0.,-1.));
#885=DIRECTION('',(0.,0.,1.));
#886=DIRECTION('',(0.,0.,1.));
#887=DIRECTION('',(1.,0.,0.));
#888=DIRECTION('',(0.,1.,0.));
#889=DIRECTION('',(1.,0.,0.));
#890=DIRECTION('',(0.,1.,0.));
#891=CARTESIAN_POINT('',(0.,0.,0.));
#892=CARTESIAN_POINT('',(-0.635,-0.085725,0.));
#893=CARTESIAN_POINT('',(-0.635,0.,0.));
#894=CARTESIAN_POINT('',(-0.635,0.,6.93889390390723E-18));
#895=CARTESIAN_POINT('',(-0.0238125,0.,0.));
#896=CARTESIAN_POINT('',(-0.0238125,-0.060325,0.));
#897=CARTESIAN_POINT('',(-0.0238125,-0.17145,0.));
#898=CARTESIAN_POINT('',(-0.635,-0.17145,0.));
#899=CARTESIAN_POINT('',(-0.635,-0.17145,6.93889390390723E-18));
#900=CARTESIAN_POINT('',(-0.635,-0.085725,5.40103269518811E-18));
#901=CARTESIAN_POINT('',(-0.635,0.0365125,4.04136232943459E-18));
#902=CARTESIAN_POINT('',(-0.01905,0.0508,0.));
#903=CARTESIAN_POINT('',(-0.01905,0.0508,0.));
#904=CARTESIAN_POINT('',(-0.0238125,0.0508,5.79107644371637E-18));
#905=CARTESIAN_POINT('',(-0.0238125,-0.060325,0.));
#906=CARTESIAN_POINT('',(-0.0238125,0.003175,0.));
#907=CARTESIAN_POINT('',(-0.635,0.003175,-2.60208521396521E-18));
#908=CARTESIAN_POINT('',(-0.635,0.003175,5.63785129692462E-18));
#909=CARTESIAN_POINT('',(-0.635,0.0365125,9.38099764994677E-18));
#910=CARTESIAN_POINT('',(-0.635,0.06985,1.79398021058605E-17));
#911=CARTESIAN_POINT('',(-0.635,0.06985,8.12402859609208E-18));
#912=CARTESIAN_POINT('',(0.635,0.06985,1.86194753589138E-17));
#913=CARTESIAN_POINT('',(0.635,0.0365125,4.04136232943459E-18));
#914=CARTESIAN_POINT('',(0.635,0.003175,7.97483843396734E-18));
#915=CARTESIAN_POINT('',(-0.635,0.003175,-2.60208521396521E-18));
#916=CARTESIAN_POINT('',(0.0238125,0.003175,0.));
#917=CARTESIAN_POINT('',(0.0238125,-0.060325,0.));
#918=CARTESIAN_POINT('',(0.0238125,0.0508,0.));
#919=CARTESIAN_POINT('',(0.01905,0.0508,0.));
#920=CARTESIAN_POINT('',(0.01905,0.0508,0.));
#921=CARTESIAN_POINT('',(0.01905,-0.060325,0.));
#922=CARTESIAN_POINT('',(0.01905,0.003175,-2.60208521396521E-18));
#923=CARTESIAN_POINT('',(-0.635,0.003175,-2.60208521396521E-18));
#924=CARTESIAN_POINT('',(-0.01905,0.003175,0.));
#925=CARTESIAN_POINT('',(-0.01905,-0.060325,0.));
#926=CARTESIAN_POINT('',(-0.635,-0.085725,0.));
#927=CARTESIAN_POINT('',(-0.01905,-0.060325,0.));
#928=CARTESIAN_POINT('',(-0.01905,0.,0.));
#929=CARTESIAN_POINT('',(-0.01905,-0.17145,0.));
#930=CARTESIAN_POINT('',(-0.635,0.,0.));
#931=CARTESIAN_POINT('',(0.01905,0.,0.));
#932=CARTESIAN_POINT('',(0.01905,-0.060325,0.));
#933=CARTESIAN_POINT('',(0.01905,-0.17145,0.));
#934=CARTESIAN_POINT('',(-0.635,-0.17145,0.));
#935=CARTESIAN_POINT('',(-1.15974512249262,0.034925,0.0957507025833544));
#936=CARTESIAN_POINT('',(-1.15919378952853,0.,0.0988774671991681));
#937=CARTESIAN_POINT('',(-1.15919378952853,0.,0.0988774671991681));
#938=CARTESIAN_POINT('',(-0.63444444698661,0.,0.00635));
#939=CARTESIAN_POINT('',(-0.634688777563502,0.0307198240033877,0.0035572887269648));
#940=CARTESIAN_POINT('',(-1.16029645545671,0.06985,0.0926239379675406));
#941=CARTESIAN_POINT('',(-1.16029645545671,0.06985,0.0926239379675406));
#942=CARTESIAN_POINT('',(-1.15974512249262,0.034925,0.0957507025833544));
#943=CARTESIAN_POINT('',(-1.15977476514119,0.00167285260481077,0.0955825907694395));
#944=CARTESIAN_POINT('',(-1.16029645545671,0.003175,0.0926239379675406));
#945=CARTESIAN_POINT('',(-1.16029645545671,0.003175,0.0926239379675406));
#946=CARTESIAN_POINT('',(-0.631492408204835,-0.0168709788377389,0.0400919576754779));
#947=CARTESIAN_POINT('',(-0.634474316527904,0.000170705209621524,0.00600858958075697));
#948=CARTESIAN_POINT('',(-1.15925307482566,0.000170705209621524,0.0985412435713384));
#949=CARTESIAN_POINT('',(-1.15925307482566,0.000170705209621524,0.0985412435713384));
#950=CARTESIAN_POINT('',(-1.15977476514119,0.00167285260481077,0.0955825907694395));
#951=CARTESIAN_POINT('',(-1.15925307482566,8.53526048107616E-5,0.0985412435713384));
#952=CARTESIAN_POINT('',(-0.634474316527904,8.53526048107616E-5,0.00600858958075701));
#953=CARTESIAN_POINT('',(-0.634474316527904,0.,0.00600858958075697));
#954=CARTESIAN_POINT('',(-1.15925307482566,0.,0.0985412435713384));
#955=CARTESIAN_POINT('',(-1.15925307482566,0.,0.0985412435713384));
#956=CARTESIAN_POINT('',(-1.15925307482566,8.53526048107616E-5,0.0985412435713384));
#957=CARTESIAN_POINT('',(-1.15977476514119,0.,0.0955825907694395));
#958=CARTESIAN_POINT('',(-0.635,0.,0.00600858958075695));
#959=CARTESIAN_POINT('',(0.634474316527902,0.,0.00600858958075685));
#960=CARTESIAN_POINT('',(0.633956619368953,0.,0.00591730560379784));
#961=CARTESIAN_POINT('',(1.15925307482566,0.,0.0985412435713386));
#962=CARTESIAN_POINT('',(1.15977476514119,0.,0.0955825907694397));
#963=CARTESIAN_POINT('',(1.16029645545671,0.,0.0926239379675408));
#964=CARTESIAN_POINT('',(0.635,0.,2.11143157746112E-17));
#965=CARTESIAN_POINT('',(0.635,0.,1.05571578873056E-17));
#966=CARTESIAN_POINT('',(-0.635,0.,0.));
#967=CARTESIAN_POINT('',(0.0238125,0.,0.));
#968=CARTESIAN_POINT('',(-0.635,0.,0.));
#969=CARTESIAN_POINT('',(-0.635,0.,0.));
#970=CARTESIAN_POINT('',(-1.16029645545671,0.,0.0926239379675406));
#971=CARTESIAN_POINT('',(-1.16029645545671,0.,0.0926239379675406));
#972=CARTESIAN_POINT('',(-1.15977476514119,0.,0.0955825907694395));
#973=CARTESIAN_POINT('',(-1.15620719116745,-0.152399999999998,0.115815308186852));
#974=CARTESIAN_POINT('',(-0.627758956977997,-0.1524,0.0226356265915064));
#975=CARTESIAN_POINT('',(-1.15656219340022,-0.16545585862072,0.113801990478201));
#976=CARTESIAN_POINT('',(-0.628113959210769,-0.165455858620722,0.0206223088828555));
#977=CARTESIAN_POINT('',(-1.15784897100658,-0.183480208753363,0.106504312033356));
#978=CARTESIAN_POINT('',(-0.629400736817131,-0.183480208753365,0.0133246304380097));
#979=CARTESIAN_POINT('',(-1.16029645545671,-0.178699615648384,0.0926239379675401));
#980=CARTESIAN_POINT('',(-0.63184822126726,-0.178699615648386,-0.00055574362780586));
#981=CARTESIAN_POINT('',(-1.16029645545671,-0.171449999999998,0.0926239379675407));
#982=CARTESIAN_POINT('',(-0.63184822126726,-0.17145,-0.000555743627805277));
#983=CARTESIAN_POINT('',(-1.16029645545671,-0.17145,0.0926239379675406));
#984=CARTESIAN_POINT('',(-1.16029645545671,-0.17145,0.0926239379675406));
#985=CARTESIAN_POINT('',(-0.635,-0.17145,1.864478423856E-17));
#986=CARTESIAN_POINT('',(-0.635,-0.172414324983486,1.864478423856E-17));
#987=CARTESIAN_POINT('',(-0.634979057797744,-0.174305454842299,0.000239370467124514));
#988=CARTESIAN_POINT('',(-0.634858202729466,-0.176917954896708,0.00162075021859092));
#989=CARTESIAN_POINT('',(-0.634652554810751,-0.178686960282536,0.00397131668546959));
#990=CARTESIAN_POINT('',(-0.634321056639322,-0.179619560212348,0.00776035812315682));
#991=CARTESIAN_POINT('',(-0.633983005577167,-0.178574087572259,0.0116242994446087));
#992=CARTESIAN_POINT('',(-0.63372016635764,-0.176145509244835,0.0146285654710153));
#993=CARTESIAN_POINT('',(-0.63356120370542,-0.173948862235188,0.0164455169000733));
#994=CARTESIAN_POINT('',(-0.633429009909525,-0.171490405123354,0.0179564989012459));
#995=CARTESIAN_POINT('',(-0.633285030527409,-0.16807790502598,0.0196021907693586));
#996=CARTESIAN_POINT('',(-0.633146681875788,-0.163584827078635,0.021183523093398));
#997=CARTESIAN_POINT('',(-0.633025128387864,-0.158031635715606,0.0225728858179681));
#998=CARTESIAN_POINT('',(-0.632965537144242,-0.154284689233084,0.0232540168493434));
#999=CARTESIAN_POINT('',(-0.632939717696559,-0.1524,0.0235491344867835));
#1000=CARTESIAN_POINT('',(-0.632939717696559,-0.1524,0.0235491344867838));
#1001=CARTESIAN_POINT('',(-1.15620719116745,-0.1524,0.115815308186852));
#1002=CARTESIAN_POINT('',(-1.15620719116745,-0.1524,0.115815308186852));
#1003=CARTESIAN_POINT('',(-1.16029645545671,-0.17145,0.0926239379675406));
#1004=CARTESIAN_POINT('',(-1.16029645545671,-0.17868421858791,0.0926239379675406));
#1005=CARTESIAN_POINT('',(-1.15785255611474,-0.18348811243051,0.106483979874657));
#1006=CARTESIAN_POINT('',(-1.15656294736996,-0.165483587241726,0.113797714503305));
#1007=CARTESIAN_POINT('',(-1.15620719116745,-0.1524,0.115815308186852));
#1008=CARTESIAN_POINT('',(-1.15919378952852,-6.73834456344427E-14,0.0988774671991871));
#1009=CARTESIAN_POINT('',(-0.631295950931355,-6.85287692077747E-14,0.00579483519682414));
#1010=CARTESIAN_POINT('',(-1.15628868077763,-0.0588093273339098,0.115353157642156));
#1011=CARTESIAN_POINT('',(-0.628390842180461,-0.0588093273339109,0.0222705256397929));
#1012=CARTESIAN_POINT('',(-1.15529660195967,-0.118911410744142,0.120979516206044));
#1013=CARTESIAN_POINT('',(-0.627398763362506,-0.118911410744143,0.0278968842036812));
#1014=CARTESIAN_POINT('',(-1.15620719116745,-0.1524,0.115815308186852));
#1015=CARTESIAN_POINT('',(-0.628309352570282,-0.152400000000001,0.022732676184489));
#1016=CARTESIAN_POINT('',(-0.632939717696559,-0.1524,0.0235491344867835));
#1017=CARTESIAN_POINT('',(-0.632852116050397,-0.146005522420485,0.0245504258842213));
#1018=CARTESIAN_POINT('',(-0.632765998604003,-0.133185001440492,0.0255347528006827));
#1019=CARTESIAN_POINT('',(-0.632774589027922,-0.113901772013989,0.0254365638059833));
#1020=CARTESIAN_POINT('',(-0.632882242678623,-0.0945930161107413,0.0242060769478964));
#1021=CARTESIAN_POINT('',(-0.633128427090709,-0.0690627767926069,0.021392176241632));
#1022=CARTESIAN_POINT('',(-0.633601154310367,-0.0374005497121476,0.0159888793960019));
#1023=CARTESIAN_POINT('',(-0.634136766738561,-0.0123623741104257,0.0098668013277363));
#1024=CARTESIAN_POINT('',(-0.63444444698661,-2.50755781968872E-17,0.00635000000000001));
#1025=CARTESIAN_POINT('',(-1.15620719116745,-0.1524,0.115815308186852));
#1026=CARTESIAN_POINT('',(-1.15529660195967,-0.11891141074413,0.120979516206046));
#1027=CARTESIAN_POINT('',(-1.15628868077763,-0.0588093273338639,0.115353157642151));
#1028=CARTESIAN_POINT('',(-1.15919378952853,-2.27000143790734E-18,0.0988774671991681));
#1029=CARTESIAN_POINT('',(-1.16029645545671,0.0365125,0.0926239379675406));
#1030=CARTESIAN_POINT('',(-1.16029645545671,0.0365125,0.0926239379675406));
#1031=CARTESIAN_POINT('',(-1.16029645545671,-0.085725,0.0926239379675406));
#1032=CARTESIAN_POINT('',(-1.16029645545671,-0.085725,0.0926239379675406));
#1033=CARTESIAN_POINT('',(-0.635,0.034925,0.003175));
#1034=CARTESIAN_POINT('',(-0.635,0.,0.00635));
#1035=CARTESIAN_POINT('',(0.634444446986609,0.,0.00634999999999989));
#1036=CARTESIAN_POINT('',(0.634642566261838,0.0249096504585525,0.00408548632194978));
#1037=CARTESIAN_POINT('',(-0.635,0.00167285260481077,0.00300429479037848));
#1038=CARTESIAN_POINT('',(-0.635,0.003175,-2.60208521396521E-18));
#1039=CARTESIAN_POINT('',(-0.635,0.003175,-2.60208521396521E-18));
#1040=CARTESIAN_POINT('',(0.62700935378535,-0.0424917520831474,0.0913335041662947));
#1041=CARTESIAN_POINT('',(0.634474316527902,0.000170705209621524,0.00600858958075684));
#1042=CARTESIAN_POINT('',(-0.635,0.000170705209621524,0.00600858958075695));
#1043=CARTESIAN_POINT('',(-0.635,8.53526048107616E-5,0.00600858958075695));
#1044=CARTESIAN_POINT('',(0.634474316527902,8.53526048107616E-5,0.00600858958075695));
#1045=CARTESIAN_POINT('',(-0.64262,-0.1524,0.0235491344867835));
#1046=CARTESIAN_POINT('',(0.64262,-0.1524,0.0235491344867835));
#1047=CARTESIAN_POINT('',(-0.64262,-0.165455858620722,0.0215047581072385));
#1048=CARTESIAN_POINT('',(0.64262,-0.165455858620722,0.0215047581072385));
#1049=CARTESIAN_POINT('',(-0.64262,-0.183480208753363,0.0140945012093573));
#1050=CARTESIAN_POINT('',(0.64262,-0.183480208753363,0.0140945012093573));
#1051=CARTESIAN_POINT('',(-0.64262,-0.178699615648385,-1.40318796735055E-17));
#1052=CARTESIAN_POINT('',(0.64262,-0.178699615648385,-1.40318796735055E-17));
#1053=CARTESIAN_POINT('',(-0.64262,-0.17145,-6.93077395725951E-21));
#1054=CARTESIAN_POINT('',(0.64262,-0.17145,-6.93077395725951E-21));
#1055=CARTESIAN_POINT('',(-0.01905,-0.17145,0.));
#1056=CARTESIAN_POINT('',(0.01905,-0.17145,0.));
#1057=CARTESIAN_POINT('',(0.0238125,-0.17145,0.));
#1058=CARTESIAN_POINT('',(-0.635,-0.17145,0.));
#1059=CARTESIAN_POINT('',(0.635,-0.17145,1.05571578873056E-17));
#1060=CARTESIAN_POINT('',(0.635,-0.17145,-5.30066899246819E-17));
#1061=CARTESIAN_POINT('',(0.635,-0.172414324983486,-5.30066899247914E-17));
#1062=CARTESIAN_POINT('',(0.634979057797744,-0.174305454842299,0.000239370467124572));
#1063=CARTESIAN_POINT('',(0.634858202729466,-0.176917954896708,0.00162075021859089));
#1064=CARTESIAN_POINT('',(0.63465255481075,-0.178686960282536,0.00397131668546951));
#1065=CARTESIAN_POINT('',(0.634321056639322,-0.179619560212348,0.00776035812315689));
#1066=CARTESIAN_POINT('',(0.633983005577166,-0.178574087572259,0.0116242994446086));
#1067=CARTESIAN_POINT('',(0.633720166357639,-0.176145509244835,0.0146285654710152));
#1068=CARTESIAN_POINT('',(0.63356120370542,-0.173948862235188,0.0164455169000732));
#1069=CARTESIAN_POINT('',(0.633429009909525,-0.171490405123354,0.0179564989012458));
#1070=CARTESIAN_POINT('',(0.633285030527409,-0.16807790502598,0.0196021907693585));
#1071=CARTESIAN_POINT('',(0.633146681875788,-0.163584827078636,0.0211835230933981));
#1072=CARTESIAN_POINT('',(0.633025128387863,-0.158031635715606,0.0225728858179682));
#1073=CARTESIAN_POINT('',(0.632965537144241,-0.154284689233084,0.0232540168493434));
#1074=CARTESIAN_POINT('',(0.632939717696558,-0.1524,0.0235491344867835));
#1075=CARTESIAN_POINT('',(0.632939717696558,-0.1524,0.0235491344867837));
#1076=CARTESIAN_POINT('',(-0.635,-0.1524,0.0235491344867838));
#1077=CARTESIAN_POINT('',(-0.64205778035045,-6.85049739705793E-14,0.00635000000001948));
#1078=CARTESIAN_POINT('',(0.64205778035045,-6.85049739705793E-14,0.00635000000001948));
#1079=CARTESIAN_POINT('',(-0.64205778035045,-0.0588093273339104,0.0230798545250014));
#1080=CARTESIAN_POINT('',(0.64205778035045,-0.0588093273339104,0.0230798545250014));
#1081=CARTESIAN_POINT('',(-0.64205778035045,-0.118911410744142,0.0287930087387847));
#1082=CARTESIAN_POINT('',(0.64205778035045,-0.118911410744142,0.0287930087387847));
#1083=CARTESIAN_POINT('',(-0.64205778035045,-0.1524,0.0235491344867835));
#1084=CARTESIAN_POINT('',(0.64205778035045,-0.1524,0.0235491344867835));
#1085=CARTESIAN_POINT('',(0.63293971769656,-0.1524,0.0235491344867836));
#1086=CARTESIAN_POINT('',(0.632852116050398,-0.146005522420485,0.0245504258842213));
#1087=CARTESIAN_POINT('',(0.632765998604004,-0.133185001440492,0.0255347528006827));
#1088=CARTESIAN_POINT('',(0.632774589027923,-0.113901772013989,0.0254365638059833));
#1089=CARTESIAN_POINT('',(0.632882242678624,-0.0945930161107414,0.0242060769478965));
#1090=CARTESIAN_POINT('',(0.633128427090709,-0.069062776792607,0.021392176241632));
#1091=CARTESIAN_POINT('',(0.633601154310368,-0.0374005497121478,0.0159888793960019));
#1092=CARTESIAN_POINT('',(0.634136766738561,-0.0123623741104257,0.00986680132773632));
#1093=CARTESIAN_POINT('',(0.63444444698661,-2.24179777901126E-17,0.00635000000000001));
#1094=CARTESIAN_POINT('',(-0.635,-0.085725,0.));
#1095=CARTESIAN_POINT('',(0.0238125,-0.060325,0.));
#1096=CARTESIAN_POINT('',(0.635,-0.085725,0.));
#1097=CARTESIAN_POINT('',(0.634448667035908,0.034925,0.00312676461581379));
#1098=CARTESIAN_POINT('',(0.633897334071815,0.,0.00625352923162754));
#1099=CARTESIAN_POINT('',(1.15919378952853,0.,0.0988774671991683));
#1100=CARTESIAN_POINT('',(1.15974512249262,0.034925,0.0957507025833545));
#1101=CARTESIAN_POINT('',(1.16029645545671,0.06985,0.0926239379675408));
#1102=CARTESIAN_POINT('',(0.635,0.06985,2.91149221217357E-17));
#1103=CARTESIAN_POINT('',(0.635,0.0365125,2.50942807293699E-17));
#1104=CARTESIAN_POINT('',(1.16029645545671,0.0365125,0.0926239379675407));
#1105=CARTESIAN_POINT('',(1.16029645545671,0.003175,0.0926239379675407));
#1106=CARTESIAN_POINT('',(0.635,0.003175,1.85517620818999E-17));
#1107=CARTESIAN_POINT('',(0.634478309684477,0.00167285260481077,0.00295865280189893));
#1108=CARTESIAN_POINT('',(1.15977476514119,0.00167285260481077,0.0955825907694397));
#1109=CARTESIAN_POINT('',(1.15925307482566,0.000170705209621524,0.0985412435713386));
#1110=CARTESIAN_POINT('',(0.633956619368953,0.000170705209621524,0.00591730560379784));
#1111=CARTESIAN_POINT('',(0.633956619368953,8.53526048107616E-5,0.00591730560379784));
#1112=CARTESIAN_POINT('',(1.15925307482566,8.53526048107616E-5,0.0985412435713386));
#1113=CARTESIAN_POINT('',(0.635,-0.085725,2.11143157746112E-17));
#1114=CARTESIAN_POINT('',(1.16029645545671,-0.085725,0.0926239379675407));
#1115=CARTESIAN_POINT('',(1.16029645545671,-0.17145,0.0926239379675408));
#1116=CARTESIAN_POINT('',(0.635,-0.17145,2.11143157746112E-17));
#1117=CARTESIAN_POINT('',(0.627758956977997,-0.1524,0.0226356265915064));
#1118=CARTESIAN_POINT('',(1.15620719116745,-0.152399999999999,0.115815308186853));
#1119=CARTESIAN_POINT('',(0.628113959210769,-0.165455858620722,0.0206223088828555));
#1120=CARTESIAN_POINT('',(1.15656219340022,-0.165455858620721,0.113801990478202));
#1121=CARTESIAN_POINT('',(0.629400736817131,-0.183480208753364,0.0133246304380098));
#1122=CARTESIAN_POINT('',(1.15784897100658,-0.183480208753363,0.106504312033356));
#1123=CARTESIAN_POINT('',(0.631848221267258,-0.178699615648386,-0.000555743627805764));
#1124=CARTESIAN_POINT('',(1.16029645545671,-0.178699615648384,0.0926239379675403));
#1125=CARTESIAN_POINT('',(0.63184822126726,-0.17145,-0.000555743627805224));
#1126=CARTESIAN_POINT('',(1.16029645545671,-0.171449999999999,0.0926239379675409));
#1127=CARTESIAN_POINT('',(1.16029645545671,-0.17145,0.0926239379675407));
#1128=CARTESIAN_POINT('',(1.16029645545671,-0.17868421858791,0.0926239379675407));
#1129=CARTESIAN_POINT('',(1.15785255611474,-0.18348811243051,0.106483979874658));
#1130=CARTESIAN_POINT('',(1.15656294736996,-0.165483587241726,0.113797714503306));
#1131=CARTESIAN_POINT('',(1.15620719116745,-0.1524,0.115815308186852));
#1132=CARTESIAN_POINT('',(1.15620719116745,-0.1524,0.115815308186853));
#1133=CARTESIAN_POINT('',(0.630910735710737,-0.1524,0.0231913702193118));
#1134=CARTESIAN_POINT('',(0.631295950931354,-6.85223377638718E-14,0.00579483519682396));
#1135=CARTESIAN_POINT('',(1.15919378952852,-6.73846306399053E-14,0.0988774671991873));
#1136=CARTESIAN_POINT('',(0.62839084218046,-0.058809327333911,0.0222705256397927));
#1137=CARTESIAN_POINT('',(1.15628868077763,-0.0588093273339099,0.115353157642156));
#1138=CARTESIAN_POINT('',(0.627398763362505,-0.118911410744144,0.0278968842036809));
#1139=CARTESIAN_POINT('',(1.15529660195967,-0.118911410744142,0.120979516206044));
#1140=CARTESIAN_POINT('',(0.628309352570281,-0.152400000000001,0.0227326761844888));
#1141=CARTESIAN_POINT('',(1.15620719116745,-0.1524,0.115815308186852));
#1142=CARTESIAN_POINT('',(1.15620719116745,-0.1524,0.115815308186852));
#1143=CARTESIAN_POINT('',(1.15529660195967,-0.11891141074413,0.120979516206046));
#1144=CARTESIAN_POINT('',(1.15628868077763,-0.0588093273338639,0.115353157642152));
#1145=CARTESIAN_POINT('',(1.15919378952853,-2.27000143790734E-18,0.0988774671991683));
#1146=CARTESIAN_POINT('',(-1.1577250726712,-0.0549057933600077,0.10720697441027));
#1147=CARTESIAN_POINT('',(1.1577250726712,-0.0549057933600077,0.10720697441027));
#1148=CARTESIAN_POINT('',(0.01905,-0.060325,0.));
#1149=CARTESIAN_POINT('',(0.01905,-0.060325,0.));
#1150=CARTESIAN_POINT('',(0.0238125,-0.060325,0.));
#1151=CARTESIAN_POINT('',(0.01905,-0.17145,-0.00635));
#1152=CARTESIAN_POINT('',(0.0238125,-0.17145,-0.00635));
#1153=CARTESIAN_POINT('',(0.0238125,-0.17145,-0.0127));
#1154=CARTESIAN_POINT('',(0.01905,-0.17145,-0.00635));
#1155=CARTESIAN_POINT('',(0.01905,-0.17145,-0.0127));
#1156=CARTESIAN_POINT('',(0.01905,-0.17145,-0.0127));
#1157=CARTESIAN_POINT('',(0.01905,-0.060325,-0.0127));
#1158=CARTESIAN_POINT('',(0.0238125,-0.060325,-0.0127));
#1159=CARTESIAN_POINT('',(0.0238125,0.0508,-0.0127));
#1160=CARTESIAN_POINT('',(0.01905,-0.060325,-0.0127));
#1161=CARTESIAN_POINT('',(0.01905,0.0508,-0.0127));
#1162=CARTESIAN_POINT('',(0.01905,0.0508,-0.0127));
#1163=CARTESIAN_POINT('',(0.01905,0.0508,-0.00635));
#1164=CARTESIAN_POINT('',(0.0238125,0.0508,-0.00635));
#1165=CARTESIAN_POINT('',(0.01905,0.0508,-0.00635));
#1166=CARTESIAN_POINT('',(0.01905,-0.060325,-0.00635));
#1167=CARTESIAN_POINT('',(0.0238125,-0.060325,-0.00635));
#1168=CARTESIAN_POINT('',(-0.01905,-0.060325,0.));
#1169=CARTESIAN_POINT('',(-0.0238125,-0.060325,0.));
#1170=CARTESIAN_POINT('',(-0.01905,-0.060325,0.));
#1171=CARTESIAN_POINT('',(-0.01905,-0.17145,-0.00635));
#1172=CARTESIAN_POINT('',(-0.0238125,-0.17145,-0.00635));
#1173=CARTESIAN_POINT('',(-0.0238125,-0.17145,-0.0127));
#1174=CARTESIAN_POINT('',(-0.01905,-0.17145,-0.0127));
#1175=CARTESIAN_POINT('',(-0.01905,-0.17145,-0.0127));
#1176=CARTESIAN_POINT('',(-0.01905,-0.17145,-0.00635));
#1177=CARTESIAN_POINT('',(-0.01905,-0.060325,-0.0127));
#1178=CARTESIAN_POINT('',(-0.0238125,-0.060325,-0.0127));
#1179=CARTESIAN_POINT('',(-0.0238125,0.0508,-0.0127));
#1180=CARTESIAN_POINT('',(-0.01905,0.0508,-0.0127));
#1181=CARTESIAN_POINT('',(-0.01905,0.0508,-0.0127));
#1182=CARTESIAN_POINT('',(-0.01905,-0.060325,-0.0127));
#1183=CARTESIAN_POINT('',(-0.01905,0.0508,-0.00635));
#1184=CARTESIAN_POINT('',(-0.0238125,0.0508,-0.00635));
#1185=CARTESIAN_POINT('',(-0.01905,0.0508,-0.00635));
#1186=CARTESIAN_POINT('',(-0.01905,-0.060325,-0.00635));
#1187=CARTESIAN_POINT('',(-0.0238125,-0.060325,-0.00635));
#1188=MECHANICAL_DESIGN_GEOMETRIC_PRESENTATION_REPRESENTATION('',(#693),
#1189);
#1189=(
GEOMETRIC_REPRESENTATION_CONTEXT(3)
GLOBAL_UNCERTAINTY_ASSIGNED_CONTEXT((#1190))
GLOBAL_UNIT_ASSIGNED_CONTEXT((#1193,#1192,#1191))
REPRESENTATION_CONTEXT('Wing','TOP_LEVEL_ASSEMBLY_PART')
);
#1190=UNCERTAINTY_MEASURE_WITH_UNIT(LENGTH_MEASURE(2.E-5),#1193,
'DISTANCE_ACCURACY_VALUE','Maximum Tolerance applied to model');
#1191=(
NAMED_UNIT(*)
SI_UNIT($,.STERADIAN.)
SOLID_ANGLE_UNIT()
);
#1192=(
NAMED_UNIT(*)
PLANE_ANGLE_UNIT()
SI_UNIT($,.RADIAN.)
);
#1193=(
LENGTH_UNIT()
NAMED_UNIT(*)
SI_UNIT($,.METRE.)
);
#1194=PRODUCT_DEFINITION_SHAPE('','',#1195);
#1195=PRODUCT_DEFINITION('','',#1197,#1196);
#1196=PRODUCT_DEFINITION_CONTEXT('',#1203,'design');
#1197=PRODUCT_DEFINITION_FORMATION_WITH_SPECIFIED_SOURCE('','',#1199,
 .NOT_KNOWN.);
#1198=PRODUCT_RELATED_PRODUCT_CATEGORY('','',(#1199));
#1199=PRODUCT('Wing','Wing','Wing',(#1201));
#1200=PRODUCT_CATEGORY('','');
#1201=PRODUCT_CONTEXT('',#1203,'mechanical');
#1202=APPLICATION_PROTOCOL_DEFINITION('international standard',
'ap242_managed_model_based_3d_engineering',2020,#1203);
#1203=APPLICATION_CONTEXT('managed model based 3d engineering');
ENDSEC;
END-ISO-10303-21;
